<svg xmlns="http://www.w3.org/2000/svg" viewBox="0 0 847.57 511.46"><defs><style>.cls-1{fill:#e4e4e4;}.cls-2{fill:#feb326;}.cls-3{fill:#ff7b2a;}.cls-4{fill:#791579;}.cls-5{fill:#531354;}</style></defs><title>slide_13</title><g id="Layer_2" data-name="Layer 2"><g id="Layer_1-2" data-name="Layer 1"><path class="cls-1" d="M369.81,162.34c1.33-3.17,3.85-4,5.85-5.47a29,29,0,0,0,6.11-5.42,2.88,2.88,0,0,0,.34-3.5,3.07,3.07,0,0,0-3.27-1.38,17.27,17.27,0,0,0-7,2.81c-5.74,3.87-11.5,7.72-17.12,11.77-3.4,2.45-4.1,5.38-1.5,8.71,4.67,6,7.06,12.81,9.09,19.91a24,24,0,0,0,4,8.51c1,1.26,2.05,3,4.1,1.93,1.59-.81,1.43-2.43,1.25-3.91a72.16,72.16,0,0,0-4.08-15.82c-.55-1.51-1.81-2.86-1.23-4.67,1.5-.74,3-.2,4.32.22,34.72,10.72,67.87,24.71,97,47,4.17,3.19,8.1,6.69,12.13,10.05,1,.81,1.88,1.69,2.89,2.44,1.46,1.09,3.1,1.5,4.65.31,1.8-1.4,1.66-3.27.75-5.11a37.12,37.12,0,0,0-4.94-7.29c-7.35-8.82-16.37-15.7-25.91-21.89a298.4,298.4,0,0,0-84.66-38.18C371.81,163.15,371.08,162.81,369.81,162.34Z"/><path class="cls-2" d="M21.83,57.91A95,95,0,0,0,11.2,79.11c-9.83,26.55-14.19,57.9-.62,84a70.86,70.86,0,0,0,7,10.93c37,47.35,87.77,75.07,166.31,56.59s128.2-75.07,114.34-122.42S223.19,1.93,148.12,4.24C120.28,5.1,93,12.84,68.17,25.32,54.81,32,41.09,38.89,29.78,48.83A50.47,50.47,0,0,0,21.83,57.91Z"/><path class="cls-3" d="M256.88,197.35a128.22,128.22,0,0,1-27.45,18.17,237.69,237.69,0,0,1-53.18,18.82,51.49,51.49,0,0,1-7.93,1.11c-28.93,2-57.49.84-84.77-10.48a97.08,97.08,0,0,1-18.1-9.66c-11.3-7.77-22.53-15.61-32.85-24.69-15.58-13.7-26-30.8-30.15-50.9-6.65-32.42-.09-61.78,23.81-86,2.34-2.38,4.63-4.82,7-7.15,1.88-1.83,4.17-3.19,4-6.48-.1-1.59,1.46-2.93,2.67-4.11a31.26,31.26,0,0,1,6.52-4.63,279.79,279.79,0,0,1,74-29C133.58-.77,147-.19,160.32.74c4.16.3,8.29,1,12.44,1.44a46.38,46.38,0,0,1,13.51,3.07C201,9.93,214.53,17,227.49,25.37,245.6,37,263.2,49.18,277.4,65.7a129.49,129.49,0,0,1,19.73,29.94c5.88,12.7,6.68,25.9,4.71,39.56-.75,5.25-1.5,11.58-3.65,16.43-2.89,6.51-8,10.93-12.74,15.92-8.49,8.92-16.36,18.45-25.36,26.9Q258.52,195.92,256.88,197.35ZM144.08,227c6.8-.33,13.61.05,20.46-.71A123.12,123.12,0,0,0,186,221.94a258.72,258.72,0,0,0,48.53-20,64,64,0,0,0,16.15-11.66c9.46-9.69,19.15-19.15,28.63-28.83a101.83,101.83,0,0,0,7.33-8.83c4.12-5.32,5.73-11.62,6.48-18.13.92-7.89,1.53-15.77-.24-23.7-1.92-8.63-5.82-16.39-10.41-23.73C274,73.53,262.86,62.37,250.26,52.53c-25-19.52-53.28-37.24-85.2-42-33.71-5-68.23,5.87-96.89,23.25C56.12,41.09,44.6,49.45,34.89,59.72c-19.86,21-28.51,49-22.8,77.36,4.4,21.86,16.1,39.54,34,53.14q8.74,6.66,17.57,13.19A104,104,0,0,0,93,219.2C109.59,224.7,126.49,228.12,144.08,227Z"/><path class="cls-4" d="M490,312.61c4.18,25.09-56.6,58.91-16.17,79.7s97-12.71,113.18,6.93-40.42,55.43,0,87.77,161.7,20.79,204.43-24.25,47.35-88.93,52-136.29,5.78-63.52-41.57-64.67-57.75-5.78-62.37-25.41-34.9-59.93-79.94-54.16-54,20.66-89.84,41.45S484.21,278,490,312.61Z"/><path class="cls-5" d="M799.52,262.31c7.32-.5,14.68-.82,21.87.5,8.63,1.58,17.68,5.87,21.75,13.92,4.63,9.16,4.66,20.11,4.3,30.12-1.51,42.18-5.79,85.8-26.69,122.47-19.19,33.68-51.69,59-88.29,71.81s-77,13.28-114.58,3.87c-13.64-3.41-27.37-8.34-37.71-17.87s-16.61-24.54-12.48-38c2.67-8.68,9.14-15.58,13.69-23.44s6.94-18.42,1.41-25.63c-5.73-7.48-16.81-7.61-26.16-6.43-17.09,2.16-34,6.4-51.25,6.16-13.85-.2-28.51-3.73-39.35-12.75-11.43-9.5-5.94-25.32,1.94-35.69,6.06-8,13.68-15.18,16.8-24.7,3.22-9.84,1.11-20.64,3-30.82,2.44-13.19,11.36-24.28,21.27-33.32,25.3-23.1,57.9-36.27,86.53-55.08,15.58-10.24,30.67-22.49,48.91-26.34,15-3.16,30.65-.27,45.09,4.8,11.56,4.06,23,9.81,30.6,19.44,11,14,12.45,34.43,25.48,46.57s33.08,11.86,49.56,10.7ZM586,393.71c8,9.94,9.81,20,3.75,31.27-4.82,8.95-12.38,17.46-14.86,27.73-2.76,11.43,2.45,23.43,11.94,30.15,21.8,15.41,47.95,20.4,74.24,19.24,23.19-1,46.65-2.07,69.23-7.91,20.79-5.38,40-17.37,55.2-32.41C802.63,444.91,818,425,825,401.44a363.83,363.83,0,0,0,14.18-85c.88-18,3.85-47.59-22.3-47.25-15.49.21-31,.07-46.49,0a36.1,36.1,0,0,1-16.8-3.94c-1.39-.72-2.7-1.86-4.77-1.67.32,2.48,1.63,4.19,2.63,6,1.83,3.37,3.58,6.77,5.34,10.16.53,1,1.25,2.28-.1,3.08s-2.29-.21-3-1.14c-1.4-1.86-2.61-3.85-3.94-5.76-11.35-16.29-21-33.42-27.68-52.25-3-8.6-7.32-16.93-15.65-21.92-9.24-5.55-18.3-11.58-29.32-13.24a29.31,29.31,0,0,1-4.39-.83c-8.24-2.57-16.65-2.58-25-1.3-11.9,1.83-22.39,7.16-32,14.2-14.78,10.78-29.88,21.12-45.94,29.84C553.3,239.37,536.57,249,522,261c-12.79,10.56-33.41,28.83-30.27,47.42.78,4.67.48,9.28.85,13.91.54,6.77-2,12.49-6.24,17.38-4.46,5.16-8.59,10.55-12.71,16A33.3,33.3,0,0,0,467.06,369c-1.27,6.1,0,10.26,5.33,13.13a67.12,67.12,0,0,0,16.19,6.3c5.91,1.43,11.89.87,17.82,1.56,10.06,1.18,20.25-.48,30.34-1.11,6.72-.42,13.57-.87,20.3-1.33,13.27-.9,26.65-.44,40-.2a29.89,29.89,0,0,1,14.3,3.82c1.49.84,2.83,1.8,3.09,3.65a1.76,1.76,0,0,1-.52,1.83,1.3,1.3,0,0,1-1.76-.4c-1.6-2.07-4.09-2.29-6.28-2.65-4.24-.7-8.56-.92-12.85-1.31A12.58,12.58,0,0,0,586,393.71Z"/></g></g></svg>