<svg xmlns="http://www.w3.org/2000/svg" viewBox="0 0 1010.52 549.1"><defs><style>.cls-1{fill:#00b3ea;}.cls-2{fill:#e4e4e4;}.cls-3{fill:#feb326;}.cls-4{fill:#ff7b2a;}.cls-5{fill:#ff8500;}.cls-6{fill:#ff5704;}.cls-7{fill:#ff5701;}.cls-8{fill:#791579;}.cls-9{fill:#531354;}.cls-10{fill:#7f58af;}.cls-11{fill:#511154;}.cls-12{fill:#ccc;}</style></defs><title>slide_14</title><g id="Layer_2" data-name="Layer 2"><g id="Layer_1-2" data-name="Layer 1"><path class="cls-1" d="M369.81,136.11c1.33-3.17,3.85-4,5.85-5.47a29,29,0,0,0,6.11-5.42,2.88,2.88,0,0,0,.34-3.5,3.07,3.07,0,0,0-3.27-1.38,17.27,17.27,0,0,0-7,2.81c-5.74,3.87-11.5,7.72-17.12,11.77-3.4,2.45-4.1,5.38-1.5,8.71,4.67,6,7.06,12.81,9.09,19.91a24,24,0,0,0,4,8.51c1,1.26,2.05,3,4.1,1.93,1.59-.81,1.43-2.43,1.25-3.9a72.1,72.1,0,0,0-4.08-15.83c-.55-1.51-1.81-2.85-1.23-4.67,1.5-.74,3-.2,4.32.22,34.72,10.72,67.87,24.71,97,47,4.17,3.19,8.1,6.69,12.13,10,1,.81,1.88,1.69,2.89,2.44,1.46,1.09,3.1,1.5,4.65.31,1.8-1.4,1.66-3.27.75-5.11a37.12,37.12,0,0,0-4.94-7.29c-7.35-8.82-16.37-15.7-25.91-21.89a298.4,298.4,0,0,0-84.66-38.18C371.81,136.92,371.08,136.58,369.81,136.11Z"/><path class="cls-2" d="M341,394.59c-1.26-1-3-1.49-3.49-3.34.89-1.42,2.41-1.72,3.79-2.07,7.43-1.91,15-3.12,22.48-4.71,12.32-2.64,24.21-6.09,36.85-7.1,8.27-.65,16.56-.76,24.84-1,4.39-.12,20.29,1.5,14.38-7.08a7.69,7.69,0,0,0-4.52-2.78,33,33,0,0,0-7.36-.76,296.7,296.7,0,0,0-91.69,11.63c-.76.23-1.57.32-2.89.58-.53-3.4,1.16-5.46,2.12-7.72a29,29,0,0,0,2.36-7.81,2.87,2.87,0,0,0-1.54-3.16,3,3,0,0,0-3.51.53,17.14,17.14,0,0,0-4.46,6c-2.87,6.3-5.76,12.6-8.43,19-1.62,3.86-.67,6.72,3.28,8.2,7.11,2.63,12.72,7.22,18.17,12.21a24,24,0,0,0,7.86,5.16c1.5.55,3.3,1.45,4.5-.5.93-1.53-.06-2.83-1-4A70.91,70.91,0,0,0,341,394.59Z"/><path class="cls-3" d="M21.83,84.68a95,95,0,0,0-10.63,21.2c-9.83,26.55-14.19,57.9-.62,84a70.86,70.86,0,0,0,7,10.93c37,47.35,87.77,75.07,166.31,56.59S312.12,182.31,298.26,135,223.19,28.7,148.12,31c-27.84.86-55.14,8.6-79.95,21.08C54.81,58.81,41.09,65.66,29.78,75.6A50.47,50.47,0,0,0,21.83,84.68Z"/><path class="cls-4" d="M256.88,225.12a128.22,128.22,0,0,1-27.45,18.17,237.69,237.69,0,0,1-53.18,18.82,51.49,51.49,0,0,1-7.93,1.11c-28.93,2-57.49.84-84.77-10.48a97.08,97.08,0,0,1-18.1-9.66c-11.3-7.77-22.53-15.61-32.85-24.69-15.58-13.7-26-30.8-30.15-50.9-6.65-32.41-.09-61.78,23.81-86,2.34-2.38,4.63-4.82,7-7.15,1.88-1.83,4.17-3.19,4-6.48-.1-1.59,1.46-2.93,2.67-4.11a31.26,31.26,0,0,1,6.52-4.63,279.79,279.79,0,0,1,74-29C133.58,27,147,27.58,160.32,28.51c4.16.3,8.29,1,12.44,1.44A46.38,46.38,0,0,1,186.27,33C201,37.7,214.53,44.81,227.49,53.14,245.6,64.77,263.2,77,277.4,93.47a129.49,129.49,0,0,1,19.73,29.94c5.88,12.7,6.68,25.9,4.71,39.56-.75,5.25-1.5,11.58-3.65,16.43-2.89,6.51-8,10.93-12.74,15.92-8.49,8.92-16.36,18.45-25.36,26.9Q258.52,223.69,256.88,225.12ZM144.08,254.8c6.8-.33,13.61,0,20.46-.71A123.12,123.12,0,0,0,186,249.71a258.72,258.72,0,0,0,48.53-20,64,64,0,0,0,16.15-11.66c9.46-9.69,19.15-19.15,28.63-28.83a101.83,101.83,0,0,0,7.33-8.83c4.12-5.32,5.73-11.62,6.48-18.13.92-7.89,1.53-15.77-.24-23.7-1.92-8.63-5.82-16.39-10.41-23.73C274,101.3,262.86,90.14,250.26,80.3c-25-19.52-53.28-37.24-85.2-42-33.71-5-68.23,5.87-96.89,23.25C56.12,68.86,44.6,77.22,34.89,87.49c-19.86,21-28.51,49-22.8,77.36,4.4,21.86,16.1,39.54,34,53.14q8.74,6.66,17.57,13.19A104,104,0,0,0,93,247C109.59,252.47,126.49,255.89,144.08,254.8Z"/><path class="cls-5" d="M17.77,291.09a80.2,80.2,0,0,0-4.41,19.37c-2.67,23.56.05,49.93,16.31,68.43a58.86,58.86,0,0,0,7.9,7.48C77.1,417.48,124,429.86,184.15,399.12s89.25-86.71,68.5-122.45-82.31-71.4-142.91-54.5c-22.47,6.27-43.12,18-60.8,33.14-9.52,8.14-19.31,16.46-26.52,26.81A42.28,42.28,0,0,0,17.77,291.09Z"/><path class="cls-6" d="M18,284.16c6.6-11.18,16.48-20.63,26.48-28.65a162.19,162.19,0,0,1,55.59-28.94,156.71,156.71,0,0,1,17.08-4c21.23-3.71,42.3-2.58,63,4.84a254.12,254.12,0,0,1,45.58,21.84c12.27,7.4,24.73,19.92,30.33,33.31,6,14.37,3.95,32.21-1.5,46.42-2.8,7.29-7.31,13.7-11.72,20.09S234.53,361.5,229.22,367c-14.72,15.26-32.53,27.33-51.53,36.63-18,8.79-37.21,16.47-57.44,17.05a104.32,104.32,0,0,1-69.43-23.89c-9.08-7.63-19.79-14.57-26.39-24.63-7.51-11.44-9.59-25.3-10.75-38.66-.5-5.79-2.2-13.21-.28-18.8.66-1.9,1.59-4.25-1.8-5.5-1.85-.68-1.27-3.33-1-5.05A56.62,56.62,0,0,1,18,284.16ZM19.52,299a4,4,0,0,0,1.81-1.64A106.6,106.6,0,0,1,31.94,284.2a126.3,126.3,0,0,1,20-18C61.47,259.28,71.42,253,83,249.72c3.42-1,4.37-1.17,7.16-.81-2.08,1.32-3.86,2.48-5.67,3.6-9.43,5.86-19.34,10.86-28.16,17.82a131.08,131.08,0,0,0-28.89,31.31c-5.65,8.65-5.94,18.14-5.47,28.09.8,17,4.07,31.21,15.43,44.62,13.28,15.69,33.13,27.84,52.53,34.2,21,6.86,42,4.78,62.5-2.94,18.94-7.15,38.79-17,54.25-30.13,7.34-6.24,14.36-12.7,20.3-20.34,11.41-14.69,22.49-32.71,23.7-51.73,1.19-18.62-12.29-36.24-27.38-45.87-11.49-7.32-23.92-14.39-36.72-19.13-16.16-6.1-32.39-10.89-49.95-9.48a132.37,132.37,0,0,0-14.75,1.85A195,195,0,0,0,87.6,241.16c-8.48,3.35-17,6.53-24.94,11.23-6.31,3.75-11.78,8.55-17.43,13.19a104.06,104.06,0,0,0-24,28.31c-.93,1.6-1.87,3.16-1.69,5.11a1.26,1.26,0,0,0-.33.16c-.06,0-.05.16-.07.25Z"/><path class="cls-7" d="M241.81,321.71c-.46,4.76-5.68,10.55-8.25,13.89-2.69,3.5-5.54,6.86-8.48,10.15a128.36,128.36,0,0,1-16.6,15.77,9.79,9.79,0,0,1-1.6,1.15,1.48,1.48,0,0,1-1.83-.23,1.42,1.42,0,0,1-.19-1.83,52,52,0,0,1,4.18-5.55q6.74-7.32,13-15.05c4.58-5.67,9.49-11.09,12.88-17.63a20.82,20.82,0,0,1,2.25-3.29,2.6,2.6,0,0,1,4.67,1.49A6.11,6.11,0,0,1,241.81,321.71Z"/><path class="cls-8" d="M490,286.38c4.18,25.09-56.6,58.91-16.17,79.7s68.53,3.29,84.7,22.92S546.58,428.44,587,460.78s161.7,20.79,204.43-24.25,47.35-88.93,52-136.29,5.78-63.52-41.57-64.67-57.75-5.78-62.37-25.41-34.9-59.93-79.94-54.16-54,20.66-89.84,41.45S484.21,251.74,490,286.38Z"/><path class="cls-9" d="M799.52,236.08c7.32-.5,14.68-.82,21.87.5,8.63,1.58,17.68,5.87,21.75,13.92,4.63,9.16,4.66,20.11,4.3,30.12-1.51,42.18-5.79,85.8-26.69,122.47-19.19,33.68-51.69,59-88.29,71.81s-77,13.28-114.58,3.87c-13.64-3.41-27.37-8.34-37.71-17.87s-12.9-15.11-15.65-28.9c-2-10-8-16-7.14-18.52,2.94-8.6,6.94-18.42,1.41-25.63-3.86-5-9.89-6.77-16-6.94-7.86-.21-15.4.62-23.18-.5-8.13-1.16-16.32-2-24.33-3.84-7.57-1.75-15.07-4.5-21.44-9-5.81-4.13-12.5-9.55-14-16.94-1.77-9,2.8-18.48,8.11-25.47,6.06-8,13.68-15.18,16.8-24.7,3.22-9.84,1.11-20.64,3-30.82,2.44-13.19,11.36-24.27,21.27-33.32,25.3-23.1,57.9-36.27,86.53-55.08,15.58-10.24,30.67-22.49,48.91-26.34,15-3.16,30.65-.27,45.09,4.8,11.56,4.06,23,9.81,30.6,19.44,11,14,12.45,34.43,25.48,46.57s33.08,11.86,49.56,10.7ZM562,381.48c8,9.94,12.57,18.24,6.51,29.52-4.82,8.95,2,7,6.38,15.48,5.4,10.44,2.45,23.43,11.94,30.15,21.8,15.41,47.95,20.4,74.24,19.24,23.19-1,46.65-2.07,69.23-7.91,20.79-5.38,40-17.37,55.2-32.41C802.63,418.68,818,398.77,825,375.21a363.83,363.83,0,0,0,14.18-85c.88-18,3.85-47.59-22.3-47.25-15.49.21-31,.07-46.49,0a36.1,36.1,0,0,1-16.8-3.94c-1.39-.72-2.7-1.86-4.77-1.67.32,2.48,1.63,4.19,2.63,6,1.83,3.37,3.58,6.77,5.34,10.17.53,1,1.25,2.27-.1,3.07s-2.29-.21-3-1.14c-1.4-1.86-2.61-3.85-3.94-5.76-11.35-16.29-21-33.42-27.68-52.25-3-8.6-7.32-16.93-15.65-21.92-9.24-5.55-18.3-11.58-29.32-13.24a29.31,29.31,0,0,1-4.39-.83c-8.24-2.57-16.65-2.58-25-1.3-11.9,1.83-22.39,7.16-32,14.2-14.78,10.78-29.88,21.12-45.94,29.84-16.38,8.9-33.11,18.53-47.69,30.55-12.79,10.56-33.41,28.83-30.27,47.42.78,4.67.48,9.28.85,13.91.54,6.77-2,12.49-6.24,17.38-4.46,5.16-8.59,10.55-12.71,16a33.3,33.3,0,0,0-6.56,13.29c-1.75,8.36,5.82,14,12.63,16.8,9.89,4.08,20.52,6,30.8,9,7.09,2,14.2,4.05,21.45,5.39,7.41,1.38,14.08,1.06,21.54.67,6.47-.34,13,.39,19.54.51a29.89,29.89,0,0,1,14.3,3.82c1.49.84,2.83,1.8,3.09,3.65a1.76,1.76,0,0,1-.52,1.83,1.3,1.3,0,0,1-1.76-.4c-1.6-2.07-4.09-2.29-6.28-2.65-4.24-.7-8.56-.92-12.85-1.31A12.58,12.58,0,0,0,562,381.48Z"/><path class="cls-10" d="M591.88,163.24a243.07,243.07,0,0,0-19.27,45.91c-7.33,24.94-9.63,45.64-5.36,47.1s13.67-12,18.41-25.93,2-33.91,10.67-41.7,21.64-28.4,17.57-9.51-21,131.25-18.15,133.42,2.84,2.16-.08,10.71.67,53.92,5.36,47.17,4.85-28.17,13.62-53.81,5.88-69.59,8.83-81.71S627,193.14,631.31,191s13.92,1.18,9.54,14,9.6,52.21,3,71.44-4.37,58.17-4.77,62.81,8.16,7.56,10.35,1.15,6.95-69.22,12.82-89.89-6.06-48.61,3.56-45.32,12.37,38.62,9.31,76.51c-2.55,31.6-7.74,93.47-2.74,92.8s11.65-11.11,13.92-28.24,2.06-83.79,5.38-97c1.26-5,4-10,6.36-14.61,1.37-2.67,4.24-11.61,8.8-9.61,3,1.33,3.66,7.06,4.44,9.82a34.1,34.1,0,0,1,.23,18.15c-4.41,16.39-11.36,85.61-8.63,102.06s2.4,28.78,5.61,29.88,13.46-1.89,13.21-15.1,4.38-107.09,6.91-111,19.91,11.58,17,20.12-12.07,84.18-7.46,88.15,9.67-3.86,12.6-12.41-.59-64.63,7.23-59.57,13.42,20.09,12.58,36.51-4.34,54.6-3,64.61,51,11.46,63.73-22.37,8.95-50.64,18.08-77.35,31.79-47.61-25.15-73c-14.67-6.55-27.94-16.14-36.46-30-8.39-13.63-8.45-32.09-18.42-44.34-3.55-4.37-8.44-7.41-13.24-10.35-16.58-10.14-34.2-20.4-53.62-21.12-21.8-.81-41.42,10.64-61.06,18.26C628.58,141,599.28,150.22,591.88,163.24Z"/><path class="cls-11" d="M859,246.58a47,47,0,0,0-15.23-15.09c-10.9-6.58-21.57-13.57-33-19.12-13.64-6.6-22.51-17-26.84-31.49-2.25-7.54-4.76-15-7.17-22.49A37.82,37.82,0,0,0,764.1,140a91.48,91.48,0,0,0-16.32-10.78c-10.38-5.18-21.49-8.43-32.39-12.23A39.47,39.47,0,0,0,696,115.65c-6.45,1-12.93,1.88-19.35,3.06-7.61,1.39-15,3.57-21.77,7.43-5.88,3.39-11.84,6.67-18,9.53s-12.7,4.69-18.89,7.5c-7.25,3.31-14.8,5.16-20.22,11.47a93.37,93.37,0,0,0-12.34,18.69c-6.68,13.18-11.66,27.09-16.49,41a166.41,166.41,0,0,0-5.88,20.3c-1,4.9-2,9.84-1.54,14.89.29,3.25,1.9,6,4.91,7s5.72.35,8.22-2.13a29.42,29.42,0,0,0,7-11.43,156.2,156.2,0,0,0,6.8-26.65c2.23-13.38,7.22-25.31,15.77-35.78,2.34-2.86,5-5.33,8.93-5.81.88,4.19.92,4.51,0,7.95-4.43,16.95-8.19,34.05-11.67,51.21-1.69,8.33-2.54,16.79-4,25.15-2,11.52-4,23-4,34.73,0,2.47-1.23,4.88-.81,7.43a87.82,87.82,0,0,1,.12,25.95c-.43,3.28-1.2,6.57-1.19,9.92,0,7.35-.53,14.74,1,22,.69,3.26.85,6.68,2.3,9.71.84,1.78,2.16,3.68,4.46,3.51a5.08,5.08,0,0,0,4.57-3.44,45,45,0,0,0,1.69-5.24c1.76-7.8,2.35-15.8,4-23.64,2.46-12,5.21-23.77,9.66-35.19a65.53,65.53,0,0,0,4.44-23.5c.07-14,.62-28,2-42,.78-8.14,1.67-16.24,3.16-24.27,1-5.55,1.35-11.34,4-16.46,1.07-2,1.36-6,4.16-5.35,2.61.58,2,4.26,1.82,6.68-.58,9.51-1.38,19-1,28.55a28,28,0,0,0,.39,5A57.82,57.82,0,0,1,640,248.33c-.14,3.51-.63,7.19.16,10.53,1.52,6.47-.12,12.61-1,18.81-1.5,10.38-3.42,20.73-4.08,31.19-.52,8.19-.31,16.44-.05,24.64a18.46,18.46,0,0,0,4.18,11.6c2.77,3.25,6.5,3,8.7-.64,2.39-4,4.45-8.26,5.08-13,.69-5.12,1.77-10.23,1.92-15.36a201.58,201.58,0,0,1,3.14-27.3c2.15-13,4.58-25.91,6.46-38.92a100.37,100.37,0,0,0,0-25.51c-.52-4.58-1.2-9.19,1.4-13.55,3.66,1.25,4.37,4.26,5.13,7.14a91.1,91.1,0,0,1,3.12,25.25c-.19,8.73-.75,17.46-1,26.18q-.27,7.94-1.16,15.85c-.53,4.72-1.8,9.59-1.8,14.34-.47,4.31-.6,8.67-1.34,12.93-1.54,8.89-1.86,17.89-2.67,26.85-.31,3.48-.17,7-.75,10.47a46.2,46.2,0,0,0-.1,12,26.08,26.08,0,0,0,4.15,12.22c2.71,4,6.15,4.32,9.7,1.05a12.89,12.89,0,0,0,2.85-4.09c4.86-10.25,7-21.21,8.19-32.36.54-5.13.89-10.31,1.31-15.46.82-10.32,1.31-20.64,1.78-31,.49-10.69-.76-21.4.92-32.09a99.6,99.6,0,0,1,3.69-15.62c1.53-4.67,3.32-10.34,6.34-14.28a2.51,2.51,0,0,1,2.8-1.06,3,3,0,0,1,1.25,1.28c2.88,4.68,2.41,10.5,2.11,15.77a87.91,87.91,0,0,1-2.77,17.44,221.24,221.24,0,0,0-5.8,35.35c-1.09,11.43-2.38,23.06-2.46,34.54,0,7.51,0,15,.73,22.54.84,9,1.87,17.89,4.28,26.6,2.05,2.82,3.72,6.17,8,6,5.8-1.65,8.6-5.84,10-11.41,2.34-9.3,2.25-18.87,2.87-28.31,1.06-16.05,3.13-32.17,3.32-48.25.1-7.9-.27-15.84.91-23.67.57-3.78.79-7.64,1.76-11.31.82-3.13,2.54-3.42,4.55-1a26.25,26.25,0,0,1,5.73,11.56c1.11,5.45.27,10.88-.64,16.28-.8,4.76-1.51,9.54-2.4,14.28a174.71,174.71,0,0,0-2.23,19.35c-.72,10.15-1.9,20.29-1.57,30.45.15,4.73,1.17,9.67,4.82,13.4s7.94,3.2,10.59-1.46,3.82-10,4.49-15.27c.84-6.61,1.72-13.21,2.34-19.85.63-6.79,1.89-13.53,1.76-20.39,0-2.52,0-5,0-7.55,0-1.85-.06-4.42,1.78-4.76,2.57-.47,2.74,2.43,3.26,4.2a72.87,72.87,0,0,1,2.93,18.71c.21,9.38,0,18.77.1,28.15a70.14,70.14,0,0,1-1.78,15.36c-1.53,7.19-2.79,14.4-2.37,21.84.53,9.43,9,19.15,18.39,19.64,8.26.43,16.74-.46,24.31-4a37.26,37.26,0,0,0,10.1-6.88,41.46,41.46,0,0,0,4.37-4.9c1.26-1.65,2.21-4,4.33-4.71a6,6,0,0,0,2.2-.8,3.36,3.36,0,0,0,.84-1.28c3.77-8.08,7.31-16,9.77-24.57,1-3.41,1.89-6.85,2.85-10.27.76-2.72,1.3-6.79,2.93-9.13.76-1.08,2-1.66,2.83-2.69a19.37,19.37,0,0,0,2-4.1c.91-2,.78-4.12,1.43-6.13a10.59,10.59,0,0,0,.06-5.93c.22-4.68-.64-9.41.45-14,2.23-9.46,4.59-18.87,8.77-27.72a65.63,65.63,0,0,0,4.53-14.35A26.58,26.58,0,0,0,859,246.58ZM607.24,149.05c-.73.35-1.38.79-1,1.58C605.86,149.84,606.51,149.4,607.24,149.05Zm226,216.17a19,19,0,0,0,.93-3.71h0A19,19,0,0,1,833.22,365.22Zm24.53-97.7a63.25,63.25,0,0,1-4.92,13.65c-6.91,14-9.25,28.7-9,44.15.11,8.36-3.52,18-7.24,25.39-1.75,3.48-3.6,6.94-4.54,10.75-3.89,6.28-6.58,13.16-10,19.69a46.85,46.85,0,0,1-5.65,8.88,28.54,28.54,0,0,1-17.57,9.86c-3.95.67-7.85,1.55-11.86,2-11.1,1.14-18.35-9-16.89-19.27.92-6.45,1.91-12.89,3.1-19.3a40.19,40.19,0,0,0,.7-7c.07-12.73.6-25.47-1.1-38.14-.8-6-1.78-11.91-4-17.58a12.53,12.53,0,0,0-3.59-5.37c-4-3.34-8.56-2.34-10.61,2.51a22.31,22.31,0,0,0-1.73,9.31c.26,10.18-1.16,20.28-2.54,30.33-.76,5.5-1.16,11.05-2.1,16.53-.24,1.36-3.37,15.3-5.41,10.51a30.76,30.76,0,0,1-2.24-10.24c-.37-6.06,1.25-12,1.06-18-.41-13.47,1.6-26.68,4.42-39.8a83.2,83.2,0,0,0,1.77-15.92c.19-8.75-4-15.42-9.61-21.36-3.73-3.94-8-3.07-10.55,1.84-2,3.93-2.44,8.29-3,12.61-1.48,10.33-.74,20.74-1.26,31.09-.43,8.5-1.64,17-2.53,25.44-.51,4.82-.75,9.67-1.08,14.5-.62,9-1.28,18-2.2,27a20.87,20.87,0,0,1-2.73,8.53A2.67,2.67,0,0,1,712,381.7c-1.16-.21-1.39-1.29-1.74-2.24-2.25-6.2-2.85-12.72-3.64-19.18-.63-5.13-.85-10.33-1.06-15.51-.37-8.72.73-17.36,1.65-26,.55-5.15.89-10.38,1-15.51.23-14.36,2.89-28.26,6.42-42.05,1.9-7.4,2.12-14.9,1.85-22.44a17.85,17.85,0,0,0-4.49-11c-.73-.88-1.87-1.45-2.09-3-.09-.62,3.17-2.47,3.69-2.76,8.27-4.51,17.71,1.84,24,6.89.49.39,1.17.74,1.71,0a1.42,1.42,0,0,0-.06-1.82c-2.48-2.88-5.7-4.72-8.83-6.78-5.24-3.45-10.58-5.81-16.9-4.11-5.35,1.45-9.61,5.21-13,9.46-4.58,5.71-7,12.55-9,19.5a76.59,76.59,0,0,0-3.31,24.26c.44,10.4-.36,20.77-1,31.11-1.06,16.16-1.77,32.39-4.83,48.35a108,108,0,0,1-4.82,17.39c-.59,1.56-1,3.24-3,3.85-2.63-2.92-3.09-6.62-3.19-10.24-.34-12.06.8-24.06,1.67-36.07.59-8.17,1.9-16.26,2.42-24.44.47-7.49,1.7-14.93,2.57-22.39a35.83,35.83,0,0,0,.26-4q0-20.61,0-41.23c0-5.93-1.53-11.59-3.23-17.2a14.36,14.36,0,0,0-7.62-8.88c-2-1-3.35-1-4.45,1.26a27.7,27.7,0,0,0-2.75,10.6c-.31,4.72,1,9.33.86,14A206.78,206.78,0,0,1,657.7,265c-2.46,13.47-5.71,26.8-7.37,40.41-.61,5-.89,10-1.23,15a80.7,80.7,0,0,1-2.44,14.82,33.19,33.19,0,0,1-1.62,4.21c-.33.78-.81,1.63-1.7,1.68-1.24.07-1.59-1.11-1.94-2-2-5.1-1.66-10.49-1.91-15.81-.07-1.49.36-3,.34-4.49-.18-13.62,1.87-27,4.49-40.3,1.69-8.59,2.36-17.2,1-25.92a44.36,44.36,0,0,1-.14-6.53,64.58,64.58,0,0,0-1.07-12.47c-1.65-8.11-1.38-16.26-.31-24.45.86-6.53.82-13.11-2.83-19-1.12-1.82-.48-2.57.87-3.67,2.24-1.82,5.22-2.21,8-4.36a7.34,7.34,0,0,0-6.34-.21c-6.91,2.59-12,7-14.59,14.21a108.67,108.67,0,0,0-4.86,21A347.05,347.05,0,0,0,619.58,263c-.14,7-.39,14.05-.79,21.06a54.22,54.22,0,0,1-3.11,16.2,253.38,253.38,0,0,0-12.57,49c-.79,4.95-1.08,10-2.27,14.85-.18.76-.06,1.72-1.49,2.08-2.15-3.64-2.28-7.88-2.51-11.85-.58-10-.53-20,1.51-30,1.21-5.9.77-12.06,0-18a45.38,45.38,0,0,1,0-13c.78-5,.5-10,1-15,.9-8.31,2.47-16.52,3.5-24.81,2-16.25,5.49-32.26,9-48.26,1.91-8.82,4.7-17.44,6.3-26.34a15.11,15.11,0,0,0,.47-2.45c0-5.14-3.11-7.3-7.94-5.44-5.75,2.2-9.41,6.75-12.92,11.5-7.1,9.64-11.06,20.5-13.13,32.24a161.25,161.25,0,0,1-7,26.65c-1.25,3.46-2.6,6.91-5.37,9.54-1.41,1.34-3,2.87-5,1.41a4.66,4.66,0,0,1-1.67-3.71c0-2.71.82-5.87,1.24-8.58.5-3.21,1.16-6.4,1.93-9.56,1.52-6.19,3.47-12.27,5.53-18.3,1.65-4.82,3.06-9.94,5.19-14.55,2.5-5.39,3.93-11.22,6.28-16.68A119,119,0,0,1,594.47,164c3.77-5.93,9.75-11.5,16.26-14,13.89-5.33,28.45-9.63,41.6-16.68a80.37,80.37,0,0,1,30.9-9.48c5-.47,9.84-1.65,14.85-2.12a37.52,37.52,0,0,1,15.78,1.4c10.43,3.57,21.06,6.62,31,11.54a85,85,0,0,1,17.48,11.63,27.72,27.72,0,0,1,7.95,12c3.38,9.44,6.45,19,9.61,28.5a5.71,5.71,0,0,1,.1,1.5l-.2.2c-5.72-4.51-10.07-10.2-14-16.22-.55-.83-1-1.77-1.53-2.59s-1.5-1.56-2.54-1-.63,1.7-.33,2.67c2.18,6.87,6.48,12.49,11.07,17.78a118.5,118.5,0,0,0,30.66,25.65c2.31,1.32,4.85,2.24,7.26,3.4,10.41,5,20.32,11,30.33,16.71a38.21,38.21,0,0,1,15.24,15.54C858.81,256,859.14,261.61,857.75,267.52Z"/><path class="cls-8" d="M863.09,529.76c1-1.77,1.74-4,.81-5.54-1.23-2-16.13,12.57-18.18,13.36a.85.85,0,0,1-1-.25,1.3,1.3,0,0,1-.12-.55C843.79,525.57,847,515,849,504.07c.62-3.11.17-5.59-3-6.5-3.74-1.06-3.89,2.2-4.27,4.45-1.92,11.39-4.46,22.85-5,34.41-.1,2-.07,4.26,1.2,5.85,1.66,2.07,4.73,2.58,7.22,2.43,2.9-.16,5.42-2.17,7.5-4,3.1-2.75,5.89-5.82,8.84-8.72A11,11,0,0,0,863.09,529.76Z"/><path class="cls-8" d="M918.11,503.6a3.82,3.82,0,0,0-.29-1.1c-1.15-2.73-4.05-5.61-7.3-5.31-2.52.23-4.23,2.95-5.44,4.86a91.59,91.59,0,0,0-12.34,29.76,18.43,18.43,0,0,0,.06,7.79c.89,4,4.53,5.88,8.79,5.2,3.8-.61,7.08-3.63,7.11-6.69a3.12,3.12,0,0,0-.75-2.32c-.46-.33-1.61.05-2.31.41-2,1.06-4,2.26-6.12,3.46-1.93-5.89,7.57-30.74,12.75-34.45.24.8.45,1.49.64,2.1.12.35,1.76.16,2,.11a4.18,4.18,0,0,0,2-1.05A3.3,3.3,0,0,0,918.11,503.6Z"/><path class="cls-8" d="M971.7,500.92a43.27,43.27,0,0,0-19.09-3.1c-5.88.38-11.56,1.77-15.94,6-1.2,1.15-2.49,2.86-1.62,4.59a2,2,0,0,0,1.72,1.4c1.5,0,2.79-1,4-1.79,4-2.53,9.49-3.65,14.12-4.23a35,35,0,0,1,15.38,1.41c5.36,1.78,6.12,3.5,3,8.2a54.56,54.56,0,0,1-10.38,11.29c-2,1.67-4.06,3.24-6.17,4.75-1.2.85-4.59,4.15-6.07,3.94s.58-4.21.83-5c.71-2.13,1.4-4.26,2-6.41a88.75,88.75,0,0,0,2.37-9.85c.49-2.87-1.39-4.46-3.93-5.12-3-.77-2.78,1.89-3.28,3.46-1.75,5.58-3.45,11.18-5.14,16.78-.86,2.84-1.86,5.63-2.76,8.45-.42,1.29-2.81,6.69-1.86,7.8a2,2,0,0,0,1,.51c4.76,1.38,8.61-1.31,12.35-4.15,8.07-6.12,16.53-11.9,23.83-18.86C984.31,513.14,982.24,505.21,971.7,500.92Z"/><path class="cls-8" d="M991.1,519.93a1.33,1.33,0,0,0,.43.42c1.15.69,3.91-.69,5-1.12,2.49-1,5-1.88,7.55-2.71,1.07-.35,5.3-2.26,4.09.51-3,6.9-13.21,11.22-20.35,9.91.24,0-3,8.82-1.76,9.68s6.18-2.88,7.39-3.56c1.47-.88,2.9-1.82,4.38-2.69.83-.49,3.67-2.56,4.58-2,1.43.8-.46,4.26-1,5.17a21.39,21.39,0,0,1-4.51,5.12c-2.74,2.35-7.18,5.53-11.06,4.68-3.35-.74-6.63-4.14-6.11-8,.78-5.87,2.63-11.6,4-17.38.73-3,1.32-6,2.31-8.86a8.43,8.43,0,0,1,2.62-3.49,27.74,27.74,0,0,1,10.68-5.35c2.28-.62,9.21-2.91,10.82-.36a3.11,3.11,0,0,1-1.07,3.91,43.1,43.1,0,0,1-7.55,3.31c-4.66,1.64-8,5.87-9.86,10.31C991.39,518.13,990.69,519.19,991.1,519.93Z"/><path class="cls-8" d="M783.5,519.93a1.33,1.33,0,0,0,.43.42c1.15.69,3.91-.69,5-1.12,2.49-1,5-1.88,7.54-2.71,1.08-.35,5.31-2.26,4.1.51-3,6.9-13.21,11.22-20.35,9.91.24,0-3,8.82-1.76,9.68s6.18-2.88,7.38-3.56c1.47-.88,2.91-1.82,4.39-2.69.83-.49,3.67-2.56,4.58-2,1.43.8-.46,4.26-1,5.17a21.39,21.39,0,0,1-4.51,5.12c-2.75,2.35-7.18,5.53-11.06,4.68-3.35-.74-6.63-4.14-6.12-8,.78-5.87,2.64-11.6,4-17.38.73-3,1.32-6,2.31-8.86a8.43,8.43,0,0,1,2.62-3.49,27.67,27.67,0,0,1,10.68-5.35c2.28-.62,9.21-2.91,10.82-.36a3.11,3.11,0,0,1-1.07,3.91,43.1,43.1,0,0,1-7.55,3.31c-4.66,1.64-8,5.87-9.87,10.31C783.79,518.13,783.09,519.19,783.5,519.93Z"/><path class="cls-8" d="M914.56,526.45c.32-4.68,2.1-9.18,3.76-13.51,1.81-4.73,3.74-7.82,9.28-7.77,3.58,0,5.71,2.57,6.54,6.17,1.68,7.27.07,13.9-3.7,20.11-2.76,4.55-6.26,6.28-9.8,5.14C915.57,535,914.25,531,914.56,526.45Zm14.19-16.71c-4.87,2.79-9.22,16.62-7,21.78C927.66,527.85,931,517.7,928.75,509.74Z"/><path class="cls-8" d="M820.08,525.91c-4.58,2.65-9.23,5.2-10.51,11.17-.44,2-.76,4.6-3.88,3.83-2.88-.7-3.19-3-2.5-5.38,4.34-15,11.19-28.66,21.79-40.28,1.64-1.8,3.35-3,5.92-1.75a4.69,4.69,0,0,1,2.7,5.62c-1.53,7.71-3.27,15.39-4.91,23.08-1,4.59-1.93,9.19-2.91,13.77-.86,4-1,9.71-3.87,12.84-1,1.1-3.6-1.21-3.76-2.22a23.52,23.52,0,0,1,.37-7.42c.72-4.26,1.72-8.47,2.6-12.71ZM825,504.65c-.93-1.48-3.25,3.24-3.53,3.78-1.5,2.88-3.53,5.5-4.68,8.55-.29.78-1.06,2.23-.33,2.73.55.37,2.56-.49,3.1-.72,3.85-1.63,5.84-5.87,6-9.87C825.58,508.39,825.64,505.71,825,504.65Z"/><path class="cls-8" d="M767.43,507.41c2.22-3.6,3.42-7.76-1.39-9.12a26,26,0,0,0-6.34-1.4c-7.75-.14-14.56,2.75-20.93,7-1.9,1.27-1.48,2.49-.75,4.26,1,2.38,2.08,5,2,7.48-.15,5-1,10-1.65,15-.43,3.7-1.21,7.41-1.11,11.1,0,1.23,2.15,3,3.62,3.44,2.72.77,3-2.19,3.21-4.07.47-3.43.65-10.61,5.38-10.24s9.53.51,14.3.62c.66,0,5.84.16,4.55-1.36-2-2.34-5.32-3.14-8.22-3.64-1.52-.27-3.06-.42-4.58-.66-.49-.08-4.37-1.25-4.5-1.12,4.3-4,8.6-8,12.64-12.36A32.16,32.16,0,0,0,767.43,507.41ZM749,517.07l-.12,0a1,1,0,0,1-.49-.61,9.36,9.36,0,0,1,5.19-12.4,15.19,15.19,0,0,1,4.41-1,5.3,5.3,0,0,1,2.21.09c1.25.53.83.77,0,1.75-3.39,3.94-6.88,7.79-10.32,11.68A1.18,1.18,0,0,1,749,517.07Z"/><path class="cls-1" d="M525.15,80.58a3.6,3.6,0,0,0-.29-1.1c-1.14-2.73-4-5.6-7.28-5.3-2.51.23-4.22,2.94-5.44,4.85a91.73,91.73,0,0,0-12.32,29.71,18.55,18.55,0,0,0,.07,7.78c.88,4,4.52,5.86,8.78,5.19,3.78-.61,7.06-3.62,7.09-6.68a3.17,3.17,0,0,0-.74-2.32c-.46-.32-1.62.05-2.32.41-1.23.64-2.44,1.33-3.65,2-.66.39-1.9,1.69-2.58.86-.39-.47-.12-2.09-.08-2.67a37,37,0,0,1,1.17-6.25,89.16,89.16,0,0,1,5.37-14.84c1.51-3.3,3.33-7.86,6.4-10.06.19.63.18,1.73.76,2.16s2.36,0,3-.37A3.73,3.73,0,0,0,525.15,80.58Z"/><path class="cls-1" d="M437.77,103.39c.32-4.68,2.09-9.16,3.75-13.49,1.81-4.71,3.73-7.8,9.26-7.75,3.57,0,5.71,2.56,6.53,6.16,1.67,7.25.07,13.88-3.69,20.07-2.76,4.54-6.25,6.27-9.79,5.13C438.78,111.89,437.45,107.92,437.77,103.39Zm14.16-16.68c-4.86,2.78-9.2,16.6-7,21.74C450.84,104.79,454.19,94.66,451.93,86.71Z"/><path class="cls-1" d="M496.52,36.7c1-1.77,1.74-4,.8-5.53-1.22-2-16.09,12.54-18.14,13.33a.83.83,0,0,1-1-.25,1.17,1.17,0,0,1-.13-.55c-.81-11.19,2.36-21.77,4.38-32.65.61-3.1.17-5.58-3-6.49-3.73-1.06-3.88,2.2-4.26,4.44-1.91,11.37-4.44,22.81-5,34.35-.1,2-.06,4.26,1.21,5.85,1.65,2.06,4.72,2.56,7.2,2.42,2.89-.16,5.41-2.17,7.49-4,3.09-2.75,5.88-5.82,8.82-8.71A11.25,11.25,0,0,0,496.52,36.7Z"/><path class="cls-1" d="M417.07,26.88a1.24,1.24,0,0,0,.43.42c1.14.69,3.9-.69,5-1.11q3.72-1.47,7.53-2.71c1.07-.35,5.29-2.26,4.09.51-3,6.89-13.19,11.2-20.32,9.89.25,0-2.95,8.81-1.76,9.66s6.17-2.87,7.38-3.55c1.47-.88,2.9-1.82,4.38-2.69.82-.48,3.66-2.55,4.57-2,1.43.8-.46,4.25-1,5.16a21.31,21.31,0,0,1-4.5,5.11c-2.74,2.34-7.17,5.52-11.05,4.67-3.33-.73-6.61-4.13-6.1-8,.78-5.86,2.63-11.58,4-17.35.73-3,1.32-6,2.31-8.85a8.56,8.56,0,0,1,2.61-3.49,27.91,27.91,0,0,1,10.66-5.34c2.28-.61,9.2-2.9,10.81-.36a3.13,3.13,0,0,1-1.07,3.91,42.55,42.55,0,0,1-7.54,3.3c-4.65,1.64-8,5.87-9.85,10.3C417.36,25.09,416.66,26.14,417.07,26.88Z"/><path class="cls-1" d="M536.66,96.88a1.16,1.16,0,0,0,.43.42c1.14.69,3.9-.69,5-1.11q3.72-1.47,7.53-2.71c1.07-.35,5.29-2.26,4.09.51-3,6.89-13.19,11.2-20.32,9.89.24,0-3,8.81-1.76,9.66s6.17-2.87,7.38-3.55c1.46-.88,2.9-1.82,4.38-2.69.82-.48,3.65-2.55,4.57-2,1.43.8-.46,4.25-1,5.16a21.31,21.31,0,0,1-4.5,5.11c-2.74,2.34-7.18,5.52-11.05,4.67-3.34-.73-6.61-4.13-6.1-8,.78-5.86,2.63-11.58,4-17.35.73-3,1.32-6,2.3-8.85a8.49,8.49,0,0,1,2.62-3.49,27.91,27.91,0,0,1,10.66-5.34c2.28-.61,9.19-2.9,10.8-.36a3.11,3.11,0,0,1-1.06,3.91A42.33,42.33,0,0,1,547.1,84c-4.64,1.64-8,5.87-9.84,10.3C537,95.09,536.25,96.14,536.66,96.88Z"/><path class="cls-1" d="M453.58,32.85C449,35.5,444.37,38,443.09,44c-.43,2-.75,4.59-3.87,3.83-2.87-.71-3.18-3-2.49-5.37,4.32-15,11.16-28.61,21.75-40.22,1.63-1.79,3.34-3,5.9-1.74a4.67,4.67,0,0,1,2.7,5.61c-1.53,7.7-3.26,15.36-4.9,23-1,4.58-1.93,9.17-2.91,13.75-.85,4-1,9.68-3.86,12.81-1,1.1-3.59-1.21-3.75-2.21a23.75,23.75,0,0,1,.36-7.41c.72-4.25,1.72-8.46,2.6-12.69Zm4.89-21.22c-.93-1.48-3.24,3.23-3.53,3.77-1.5,2.87-3.52,5.49-4.67,8.54-.29.77-1.06,2.22-.33,2.72.55.37,2.56-.48,3.1-.71,3.84-1.64,5.82-5.87,6-9.86C459.08,15.37,459.14,12.69,458.47,11.63Z"/><path class="cls-1" d="M401,14.38c2.22-3.59,3.41-7.74-1.39-9.1a25.77,25.77,0,0,0-6.33-1.4c-7.74-.14-14.54,2.75-20.89,7-1.9,1.26-1.48,2.48-.75,4.25,1,2.38,2.08,5,2,7.47-.15,5-1.06,10-1.65,14.93-.43,3.7-1.21,7.4-1.11,11.08,0,1.23,2.14,3,3.62,3.44,2.71.76,2.94-2.18,3.2-4.06.47-3.43.65-10.6,5.36-10.23s9.52.51,14.28.62c.66,0,5.84.16,4.55-1.36-2-2.33-5.31-3.13-8.21-3.63-1.52-.27-3.05-.42-4.57-.66-.49-.08-4.36-1.24-4.5-1.12,4.3-4,8.6-8,12.63-12.33A32.85,32.85,0,0,0,401,14.38ZM382.64,24l-.12,0a.94.94,0,0,1-.49-.6A9.34,9.34,0,0,1,387.21,11a15.88,15.88,0,0,1,4.4-1,5.13,5.13,0,0,1,2.21.1c1.25.52.83.76,0,1.74-3.38,3.93-6.87,7.77-10.3,11.66A1.18,1.18,0,0,1,382.64,24Z"/><path class="cls-1" d="M494.39,84.38c2.21-3.59,3.41-7.74-1.4-9.1a25.7,25.7,0,0,0-6.32-1.4c-7.74-.14-14.54,2.75-20.89,7-1.91,1.26-1.48,2.48-.76,4.25,1,2.38,2.08,5,2,7.47-.14,5-1,10-1.64,14.93-.44,3.7-1.21,7.4-1.11,11.08,0,1.23,2.14,3,3.61,3.44,2.72.76,2.94-2.18,3.2-4.06.48-3.43.66-10.6,5.37-10.23s9.51.51,14.28.62c.66,0,5.83.16,4.55-1.36-2-2.33-5.32-3.13-8.21-3.63-1.52-.27-3.06-.42-4.58-.66-.49-.08-4.36-1.24-4.49-1.12,4.29-4,8.59-8,12.62-12.33A32.16,32.16,0,0,0,494.39,84.38ZM476,94l-.12,0a.94.94,0,0,1-.49-.6A9.34,9.34,0,0,1,480.57,81a15.8,15.8,0,0,1,4.4-1,5.14,5.14,0,0,1,2.21.1c1.24.52.82.76,0,1.74-3.38,3.93-6.86,7.77-10.3,11.66C476.63,93.78,476.32,94.06,476,94Z"/><path class="cls-1" d="M424.37,94.84l7.32-2.61,3.63-1.3c.64-.23,2.81-1,2.78.49a1.59,1.59,0,0,1-.24.69l-1.3,2.51a6.58,6.58,0,0,1-1.19,1.79,6.67,6.67,0,0,1-1.55,1c-.64,0-1.88,1-2.46,1.29-.94.5-1.89,1-2.82,1.49s-1.92,1.06-2.85,1.64a16.29,16.29,0,0,0-3.93,3.17c-2.36,2.79-2.8,6.67-3.23,10.17-.37,3-.65,6.08-1,9.12-2.71,1.2-4.67-.1-5.32-2.51a18.12,18.12,0,0,1-.5-7.84c.89-4.72,2.39-9.23,3.4-13.91a77.9,77.9,0,0,0,1.66-11.88c.21-3.32-.21-7,2.51-9.53,5.75-5.25,12.88-7.09,20.46-7.39.8,0,2.23.79,2.32,1.38a3.5,3.5,0,0,1-1,2.95,27,27,0,0,1-5.55,2.49C426,81.51,424.27,84.06,424.37,94.84Z"/><path class="cls-12" d="M364.47,429.15a44.88,44.88,0,0,0-19.74-3.21c-6.1.4-12,1.83-16.5,6.18-1.24,1.19-2.58,3-1.68,4.75.37.74.87,1.43,1.78,1.45,1.56,0,2.89-1.06,4.13-1.85,4.14-2.62,9.81-3.78,14.61-4.38A36.18,36.18,0,0,1,363,433.55c5.55,1.84,6.34,3.62,3.09,8.48a55.93,55.93,0,0,1-10.74,11.68c-2.05,1.73-4.2,3.35-6.38,4.92-1.24.88-4.75,4.29-6.28,4.08s.6-4.36.86-5.15c.73-2.2,1.45-4.41,2.1-6.63a97.42,97.42,0,0,0,2.45-10.19c.5-3-1.45-4.61-4.07-5.3-3.06-.8-2.88,2-3.39,3.58-1.82,5.78-3.57,11.57-5.33,17.37-.89,2.93-1.92,5.81-2.85,8.73-.44,1.35-2.91,6.93-1.93,8.07a2.08,2.08,0,0,0,1,.53c4.93,1.43,8.92-1.35,12.78-4.29,8.36-6.34,17.11-12.31,24.67-19.51C377.52,441.8,375.38,433.58,364.47,429.15Z"/><path class="cls-12" d="M304.57,465.68a126.23,126.23,0,0,1,8.29-35.76c.88-2.18,2-4.25,5-3.68s4.16,2,3.29,5.13c-1.95,7-4.29,13.88-6.19,20.9-.94,3.5-1.78,7-2.4,10.6-.52,3-.41,6.39-2,9.11-.66,1.1-1.89,2.13-3.12,1.76C304.61,472.9,304.36,467.9,304.57,465.68Z"/><path class="cls-12" d="M483.71,498.92a4.19,4.19,0,0,0-.3-1.14c-1.19-2.82-4.19-5.8-7.55-5.49-2.61.24-4.38,3-5.63,5a94.81,94.81,0,0,0-12.77,30.79,19.21,19.21,0,0,0,.06,8.06c.92,4.12,4.69,6.08,9.1,5.38,3.93-.63,7.32-3.75,7.36-6.92a3.23,3.23,0,0,0-.78-2.4c-.47-.34-1.67,0-2.39.42-1.29.66-2.54,1.38-3.79,2.1-.69.4-2,1.75-2.67.9-.41-.49-.13-2.17-.08-2.78a37.6,37.6,0,0,1,1.2-6.47A92.75,92.75,0,0,1,471,511c1.57-3.41,3.45-8.14,6.63-10.42.2.66.19,1.8.79,2.24s2.45,0,3.14-.38A3.88,3.88,0,0,0,483.71,498.92Z"/><path class="cls-12" d="M393.13,522.56c.34-4.84,2.17-9.49,3.89-14,1.88-4.89,3.87-8.09,9.6-8,3.71,0,5.92,2.66,6.78,6.39,1.73,7.51.06,14.38-3.83,20.8-2.86,4.71-6.48,6.49-10.15,5.32C394.18,531.38,392.81,527.26,393.13,522.56Zm14.69-17.29c-5.05,2.89-9.54,17.21-7.27,22.54C406.68,524,410.16,513.52,407.82,505.27Z"/><path class="cls-12" d="M469.62,459c1.08-1.83,1.8-4.12.83-5.73-1.27-2.08-16.68,13-18.81,13.82a.85.85,0,0,1-1-.26,1.22,1.22,0,0,1-.13-.57c-.84-11.6,2.45-22.56,4.54-33.84.64-3.22.18-5.79-3.14-6.73-3.87-1.09-4,2.28-4.42,4.61-2,11.78-4.61,23.64-5.2,35.6-.1,2.11-.06,4.41,1.25,6.06,1.71,2.14,4.9,2.66,7.47,2.51,3-.17,5.61-2.25,7.76-4.16,3.2-2.84,6.09-6,9.14-9A10.84,10.84,0,0,0,469.62,459Z"/><path class="cls-12" d="M387.27,448.82a1.21,1.21,0,0,0,.44.43c1.19.72,4.05-.71,5.16-1.15,2.58-1,5.18-2,7.81-2.8,1.11-.37,5.49-2.35,4.24.52-3.07,7.14-13.67,11.61-21.06,10.25.25.05-3.06,9.13-1.82,10s6.39-3,7.64-3.68c1.52-.92,3-1.89,4.54-2.79.86-.5,3.79-2.64,4.74-2.11,1.48.83-.48,4.41-1,5.35a22,22,0,0,1-4.66,5.29c-2.84,2.43-7.44,5.73-11.45,4.85-3.46-.76-6.86-4.29-6.32-8.3.8-6.07,2.72-12,4.18-18,.75-3.07,1.37-6.19,2.39-9.17a8.85,8.85,0,0,1,2.71-3.61,28.74,28.74,0,0,1,11.05-5.54c2.36-.63,9.53-3,11.2-.37a3.23,3.23,0,0,1-1.11,4.05,44,44,0,0,1-7.82,3.42c-4.81,1.7-8.3,6.08-10.2,10.67C387.57,447,386.84,448.05,387.27,448.82Z"/><path class="cls-12" d="M495.64,515.82a1.21,1.21,0,0,0,.44.43c1.19.72,4.05-.71,5.16-1.15,2.57-1,5.18-2,7.81-2.8,1.11-.37,5.48-2.35,4.24.52-3.08,7.14-13.67,11.61-21.06,10.25.25,0-3.06,9.13-1.83,10s6.4-3,7.65-3.68c1.52-.92,3-1.89,4.54-2.79.85-.5,3.79-2.64,4.73-2.11,1.49.83-.47,4.41-1,5.35a22,22,0,0,1-4.66,5.29c-2.85,2.43-7.44,5.73-11.45,4.85-3.46-.76-6.86-4.29-6.33-8.3.81-6.07,2.73-12,4.19-18,.75-3.07,1.37-6.19,2.39-9.17a8.68,8.68,0,0,1,2.71-3.61,28.74,28.74,0,0,1,11.05-5.54c2.36-.63,9.53-3,11.2-.37a3.23,3.23,0,0,1-1.11,4.05,44.32,44.32,0,0,1-7.82,3.42c-4.81,1.7-8.3,6.08-10.2,10.67C495.93,514,495.21,515.05,495.64,515.82Z"/><path class="cls-12" d="M425.11,455c-4.74,2.75-9.55,5.39-10.87,11.57-.45,2.11-.78,4.75-4,4-3-.73-3.3-3.08-2.58-5.57,4.49-15.52,11.58-29.65,22.54-41.68,1.7-1.85,3.47-3.07,6.13-1.81a4.86,4.86,0,0,1,2.8,5.81c-1.59,8-3.39,15.93-5.09,23.89-1,4.75-2,9.5-3,14.25-.89,4.16-1,10-4,13.28-1.05,1.14-3.73-1.25-3.89-2.29a24.57,24.57,0,0,1,.38-7.68c.74-4.41,1.78-8.77,2.69-13.15Zm5.07-22c-1-1.53-3.37,3.35-3.66,3.91-1.55,3-3.65,5.69-4.84,8.85-.3.8-1.1,2.31-.34,2.82.57.39,2.65-.5,3.21-.74,4-1.69,6-6.08,6.22-10.21C430.81,436.88,430.87,434.11,430.18,433Z"/><path class="cls-12" d="M451.82,502.87c2.3-3.73,3.54-8-1.44-9.44a26.82,26.82,0,0,0-6.56-1.45c-8-.14-15.07,2.84-21.65,7.21-2,1.3-1.54,2.57-.79,4.4,1,2.46,2.16,5.17,2.09,7.73-.15,5.18-1.09,10.33-1.7,15.49-.46,3.83-1.26,7.67-1.16,11.48,0,1.27,2.22,3.13,3.75,3.56,2.82.8,3.05-2.26,3.32-4.21.49-3.55.67-11,5.56-10.59s9.86.52,14.8.64c.68,0,6,.16,4.71-1.41-2.06-2.42-5.5-3.25-8.5-3.77-1.58-.27-3.17-.43-4.75-.68-.5-.08-4.52-1.29-4.65-1.16,4.45-4.17,8.9-8.33,13.08-12.78A33.55,33.55,0,0,0,451.82,502.87Zm-19.06,10-.12,0a1,1,0,0,1-.51-.63,9.69,9.69,0,0,1,5.37-12.83,15.9,15.9,0,0,1,4.56-1,5.35,5.35,0,0,1,2.29.1c1.29.55.85.8,0,1.81-3.5,4.07-7.11,8.05-10.67,12.08A1.23,1.23,0,0,1,432.76,512.86Z"/><path class="cls-12" d="M379.24,513.71l7.6-2.72,3.76-1.34c.66-.24,2.91-1,2.88.51a1.77,1.77,0,0,1-.25.72l-1.35,2.6a6.79,6.79,0,0,1-1.23,1.85,6.67,6.67,0,0,1-1.61,1c-.66,0-2,1-2.55,1.34-1,.51-2,1-2.92,1.54s-2,1.1-3,1.7a16.71,16.71,0,0,0-4.06,3.28c-2.45,2.9-2.91,6.92-3.35,10.54-.39,3.15-.67,6.31-1,9.46-2.81,1.25-4.84-.11-5.51-2.6a18.68,18.68,0,0,1-.52-8.13c.92-4.89,2.47-9.57,3.53-14.42a82.3,82.3,0,0,0,1.71-12.31c.22-3.44-.22-7.31,2.61-9.88,6-5.44,13.34-7.35,21.2-7.65.83,0,2.31.81,2.41,1.42a3.6,3.6,0,0,1-1,3.05,27.11,27.11,0,0,1-5.75,2.59C381,499.89,379.15,502.53,379.24,513.71Z"/></g></g></svg>