<svg xmlns="http://www.w3.org/2000/svg" viewBox="0 0 1480.94 630.2"><defs><style>.cls-1{fill:#023d53;}.cls-2{fill:#032c3b;}.cls-3{fill:#e4e4e4;}.cls-4{fill:#ccc;}.cls-5{fill:#aaa9a9;}.cls-6{fill:#7f7f7f;}.cls-7{fill:#009ddb;}.cls-8{fill:#00b3ea;}</style></defs><title>slide_10</title><g id="Layer_2" data-name="Layer 2"><g id="Layer_1-2" data-name="Layer 1"><path class="cls-1" d="M323.1,249.77c10.48-7.37,25.36-9.13,36.16-2.23,3.75,2.4,6.85,5.66,9.9,8.9l15.58,16.49c4.67,4.94,9.42,10,12.17,16.22a30,30,0,0,1-32.09,41.79c-9.81-1.54-18.19-7.78-27.59-11-6.87-2.32-14.28-3-20.86-6.06C288.53,301,303.61,263.49,323.1,249.77Z"/><path class="cls-2" d="M403.56,307.1c-1.22,4.24-2.45,7.18-4.54,9.51-10.52,11.75-23.27,18.33-39.47,16-8.92-1.28-15.69-6.81-22.18-12.44a10.13,10.13,0,0,0-6.58-2.9,43.23,43.23,0,0,1-26.13-10.48c-8.6-7.18-9.68-19.57-6.79-27.32,5.28-14.17,12.83-26.77,26.47-34.65,11.07-6.4,22.27-8.06,33.74-1,5.72,3.52,10.47,8.17,15.05,13,8.48,8.93,17.23,17.58,25.71,26.5,4.91,5.16,7.1,10.55,5.72,17.47C404.07,303.29,403.76,305.81,403.56,307.1Zm-56.23,11.17-.39,1.25a34.77,34.77,0,0,0,19.83,6.56c8.4.23,15.43-3.66,21.57-9.16,5.35-4.79,7.8-10.72,8.43-18,.37-4.27-.61-7.06-3.36-9.89-4.62-4.75-9-9.77-13.64-14.48-7.28-7.35-14.58-14.7-22.18-21.73-4.81-4.45-12.09-7.94-18.77-6.29A47.87,47.87,0,0,0,315.31,261c-5.37,6-7.86,11.58-10.81,19-1.82,4.59.09,12.67,2.85,17,4.13,6.47,10.9,9.79,17.84,11.36a190.33,190.33,0,0,0,35.27,4.05,15.83,15.83,0,0,1,5.14,1,2.67,2.67,0,0,1,2,2.56c0,1.39-1.26,1.84-2.31,2.35s-2.29.16-3.45.14C357,318.26,352.18,318.29,347.33,318.27Z"/><path class="cls-3" d="M1108.76,130.8c-.24-6.54-1-12.57-1.76-18.6a59.51,59.51,0,0,1-.47-6.39,2.78,2.78,0,0,1,2.19-3.09c1.65-.35,2.56.68,3.26,2a29.21,29.21,0,0,1,2.7,7.78,169.86,169.86,0,0,1,4.2,29.93c.36,8.89-.12,11.88-10.51,12.67-4.75.36-9.31,1.71-13.93,2.74a29.57,29.57,0,0,1-6.81.82c-4.53-.07-7.06-1.51-7.71-4.36s1.07-5.28,5-7.36c3-1.6,6.39-2.06,9.58-3.09,1.48-.48,3.89.18,4.19-1.84.26-1.8-2-2.53-3.21-3.54a170.26,170.26,0,0,0-20.83-14.19c-15.77-9.13-32-17.24-49.28-23.28-4-1.41-8-3.07-11.93-4.73-2-.82-3.47-2.2-3-4.57s2.33-3.11,4.5-3.08a58.94,58.94,0,0,1,5.94.32,88.88,88.88,0,0,1,20,5,246.41,246.41,0,0,1,63.51,34.36C1105.58,129.17,1106.59,130.39,1108.76,130.8Z"/><path class="cls-3" d="M149.7,178.23a28,28,0,0,1-11.45,10.25,83.51,83.51,0,0,1-17.15,6.28c-3.24.84-6.55,1.53-9.68,2.67-5.23,1.9-10.7,2.31-16.11,3.08A162.06,162.06,0,0,1,73,201.64a69.67,69.67,0,0,1-29.31-5.95A46.66,46.66,0,0,1,34.28,190a4.72,4.72,0,0,1-2.2-3.82c-3-1.22-4.26-4.14-5.11-6.74-2.4-7.28-3.81-14.81-2.14-22.51A27,27,0,0,1,34.12,142,17.94,17.94,0,0,1,49,137.65a55.13,55.13,0,0,1,10.23,2.49c1.38.5,3,.83,2.74,3-.13,1.34,1.14,1.39,2,1,2.66-1.18,4.63.13,6.78,1.42,5.37,3.22,10.74,6.44,15.84,10.08,1,.73,2,2,3.62,1.31.53-1.38-.59-2-1.27-2.68a57.07,57.07,0,0,0-12.12-9.72c-.9-.53-1.55-.94-1.26-2s1.2-.84,1.9-.85c9.93-.18,19.87-1.91,29.78-.89,11.6,1.19,22.94,3.71,33,10.15,1.41.91,3,1.57,3.49,3.42C151.1,159,154.16,171.05,149.7,178.23Z"/><path class="cls-4" d="M33.08,187.19a5.94,5.94,0,0,1,3.59,0c10,2.11,20.1,3.1,30.38,1.75,5.27-.69,10.63-.44,16-1a199.53,199.53,0,0,0,35.4-6.61,74.07,74.07,0,0,0,12-4.37c7.14-3.47,11.24-9.13,13.05-16.68.39-1.62.83-3.24,1.25-4.86,7.38,4.54,10.44,16.61,6,23.8a28.19,28.19,0,0,1-11.45,10.25,83.91,83.91,0,0,1-17.15,6.27c-3.24.84-6.55,1.53-9.69,2.67-5.22,1.91-10.69,2.32-16.1,3.08A160.52,160.52,0,0,1,74,202.65a69.9,69.9,0,0,1-29.32-6A46.91,46.91,0,0,1,35.28,191,4.72,4.72,0,0,1,33.08,187.19Z"/><path class="cls-5" d="M71.56,208.24a71.44,71.44,0,0,1-32.25-7.85c-11.59-6.16-18.76-15.17-20-28.65-.65-7.06-1.51-14.06,1.2-20.81,4.31-10.73,11.3-18.58,23.61-19.62a30.14,30.14,0,0,1,17.23,3.89,23.08,23.08,0,0,0,17.36,2.47,101.86,101.86,0,0,1,21.86-2c15.5,0,30.3,3.4,43.87,11.25,8.17,4.72,12.12,12.25,13.74,21.17A18,18,0,0,1,155,182a38.26,38.26,0,0,1-15.12,13C123.26,202.71,95.38,208.62,71.56,208.24Zm-40-21.63A32.86,32.86,0,0,0,44,196.3c5.85,2.6,12.23,3.78,18.6,4.51,20.25,2.29,39-1,58.48-6.05a83.91,83.91,0,0,0,17.15-6.27,28.19,28.19,0,0,0,11.45-10.25c3.83-6.18,2.1-14.78-2.17-20.26a41.07,41.07,0,0,0-4.17-4.38c-9.26-8.78-23.9-11.48-36.14-12.74-9.9-1-19.84.71-29.77.89-.71,0-1.65-.1-1.91.86s.37,1.46,1.27,2a58,58,0,0,1,12.12,9.72c.68.71,1.79,1.3,1.27,2.68-1.6.66-2.6-.58-3.62-1.31-5.08-3.62-10.7-7.9-16.35-10.55a10.68,10.68,0,0,0-6.48-1,1.71,1.71,0,0,1-1.34-.08c-.4-.3-.4-.88-.49-1.38a4.45,4.45,0,0,0-3.18-3,60.46,60.46,0,0,0-9.7-2A17.85,17.85,0,0,0,34.12,142a27,27,0,0,0-9.29,14.94A35.72,35.72,0,0,0,31.54,186.61Z"/><path class="cls-3" d="M6.8,326.48C7,334.32,9,341.81,11.41,349.22a3.77,3.77,0,0,1-.09,1.32C6.83,342.44,3,334.1,1.54,324.85c2,1.35,1.74,4,3.36,5.76.78-1.24,0-2.48.4-3.57Z"/><path class="cls-3" d="M218.17,282.54c-1.75,10.64-6,20.56-13.82,28.36a174.47,174.47,0,0,1-34.71,26.6A67.68,67.68,0,0,1,154,343.82c-7,2-13.94,4.36-21.14,5.67-4,.73-8.09,1.52-12.18.32a6.3,6.3,0,0,1-3.6.2,174.7,174.7,0,0,1-20.17-6c-2.86-1-2.84-1.27-1.18-3.87,1.82-2.83,3.69-5.61,5.52-8.42a53.41,53.41,0,0,0,8.33-25.87c.37-5.47.43-11,.38-16.46,0-2.35.55-3.43,3-4.08,19-5.07,35.58-14.26,49.47-28.21.75-.76,1.54-1.5,2.24-2.31a2.25,2.25,0,0,1,3.24-.42,9.76,9.76,0,0,1,2.51,2,13.12,13.12,0,0,0,9.35,5.06c2.55-1.06,5.14-.59,7.67,0,6.4,1.39,12.78,2.87,19.16,4.34a16.8,16.8,0,0,1,2.15.79C217.39,270,219.49,274.49,218.17,282.54Z"/><path class="cls-3" d="M66.16,241.36c-.53-.8,0-1.48.32-2.11,11-19,25.37-34.7,44.77-45.51a133.68,133.68,0,0,1,15.17-7.52c7-2.81,14.06-3.93,21.45-2,9.81.51,15.59,5.38,18.47,15.9A68.59,68.59,0,0,1,168,231.67c-.86,4.37-2.82,8.35-4.69,12.34a3.9,3.9,0,0,1-4.39,2.4c-3.91-.38-6.71,1.63-10.65,1.47-4.73,1.78-11.06,2-15.89,3.53-8,2.55-15,4.82-21.66,9.69-1.24.89-2.44,1.85-3.7,2.7-2.72,1.83-2.8,1.85-4.6-.92-7.86-12-19.27-18.39-33.15-20.83C68.2,241.87,67.07,242.11,66.16,241.36Z"/><path class="cls-3" d="M142.18,251.55c5.1-.56,9.58-.85,14.78.1a7.07,7.07,0,0,1-2.74,3.66c-5.94,5.18-12.07,10-19.23,13.59-4.2,2.07-8.52,7.69-13.18,8.77-1.36,3.3,1.83-.72,1.84-.79-.07.14-5.58,2.38-5.51,2.36-3.47,1.59-2.78-1.23-6.54-.36-1.72.4-2.45.07-2.85-1.72-1.74-7.69-1.74-7.61,4.65-12.35A79.11,79.11,0,0,1,142.18,251.55Z"/><path class="cls-3" d="M80.56,323.6c.67,6.32.72,10.94,4.65,16.09,1.4,1.81,1.29,3.39-.25,5.29a62.2,62.2,0,0,1-27.15,19.51c-5.29,1.95-11,2.53-16.64,2.71a3.26,3.26,0,0,1-2.56-.77c-6.08,1.07-10.43-2.5-14-6.29C14.07,349,9.81,335.49,12,320.17c1.42-9.66,5.4-18.4,9.89-26.95,1.57-3,3.18-5.9,4.71-8.9a11.09,11.09,0,0,0,1.73-4.9,4.62,4.62,0,0,0-3.29,2.44c-8.36,12.29-16.27,24.78-17.94,40.06-.17,1.52-.23,3-.34,4.56L5.3,327c-.57-3.3-1.12-6.6-1.75-9.89-.44-2.32.72-4.43.86-6.69a49.46,49.46,0,0,1,4.32-17.24,122.46,122.46,0,0,1,11.92-21.64c8.37-11.67,19.71-18.89,33.7-22,.1,0,.23.14.72.43.71,8.07,2,13.4,6,19.22,5.45,7.78,12,14.23,21.33,17.28,1.9.63,6.48,1.46,5.48,3.5a74.79,74.79,0,0,0-7.5,28.23C81.29,319.26,80.43,322.42,80.56,323.6Z"/><path class="cls-3" d="M94.84,331.19c-1.27,1.71-2.3,3.59-3.57,5.3-.74,1-1.23,2.88-2.89,2.34a5.61,5.61,0,0,1-4-4.16,59.56,59.56,0,0,1-1.84-16.13,86.31,86.31,0,0,1,3-21.19c.76-2.87,3-4.84,3.9-7.68.37-1.22,2.12-1.59,3.56-1.65,2.88-.13,5.78-.14,8.65-.44,2.14-.23,3.31.43,3.25,2.61C104.48,304.58,104,318.93,94.84,331.19Z"/><path class="cls-3" d="M57.48,259.51c-1.55-2.64-2.1-7.12.53-8.93.12-2.54,4-2.71,6.32-2.56a43.41,43.41,0,0,1,23.33,8.18,47.28,47.28,0,0,1,11.1,10.73c1.3,1.84,1,2.93-.4,4.26-2.77,2.6-5.61,5.13-7.62,8.41a3,3,0,0,1-3.47,1.53c-1.89-.48-4-.24-5.68-1.43C71.47,275.14,63,268.86,57.48,259.51Z"/><path class="cls-3" d="M104.55,275.09a16.9,16.9,0,0,1,.1,4.09c0,1.12-.65,1.59-1.76,1.62-2.26.09-4.49.79-7.16.26,1.75-3,4.16-4.68,6.12-6.78C103,273,104.22,273.6,104.55,275.09Z"/><path class="cls-3" d="M454.27,39.15c10.82,10.57,14.15,23.39,10.92,38.13-1.8,8.22-3.44,16.44-6.94,24.15-.59,1.33-.66,3-2.27,3.79-1.64-.72-.86-2.13-.83-3.19.18-9.25-2.65-17.72-6.5-25.95a4.94,4.94,0,0,0-1-1.47c-.42-.38-1-.8-1.63-.3a1.14,1.14,0,0,0-.36,1.22c.78,3.41,1.6,6.81,2.29,10.24,2.2,11,2.48,21.83-2.65,32.23-4.08,8.25-10.23,14.75-17.37,20.39a162.84,162.84,0,0,1-37.66,22.23c-10.28,4.33-20.42,9-31.14,12.13-6,1.75-11.85,4-18.08,4.76-3.6.45-7.24,1.06-10.77-.45-6.31.58-11.5-2.44-16.77-5.2-1.75-.91-1.26-2.21-.42-3.46a50,50,0,0,0,4.75-9.89c5.31-13.63,4.73-27.39-.35-40.77C313.81,108.16,306,103,296,101.08c-2-.39-4.81.53-5.83-1.58-.84-1.72,1-3.69,1.58-5.54,3-9.07,5.48-18.19,3.38-27.86a5.29,5.29,0,0,1,1.17-4.65C307,47.21,319.07,33.57,333.11,22.63c2.73-2.12,12.73-8.06,14.12-9,16.48-11.77,30.41-8.27,35.69-9.76s26.4,9.74,28.33,8.84c5.11-.3,10.18,4.65,14.52,6.75A106.94,106.94,0,0,1,454.27,39.15Z"/><path class="cls-3" d="M274.16,97.78c-.14,1.71-.39,3-2.57,2.82s-4.37,1.24-6.69.79c-7.14,2.68-14.21,5.56-21.07,8.93-1.34.66-2.65,3.49-4.27,2.76-.75-.34-6.14,1.47-6.83,1.83-7.59,4-11.38,2.58-18.77,7.08a143.64,143.64,0,0,0-25.12,19.08c-3.23,3.11-3.85,3.27-6.14-.57-5.87-9.89-11-20.11-11.72-31.94A45.52,45.52,0,0,1,173.6,91a14,14,0,0,1,5.07-6.9c4.42-3.28,8.72-6.72,13.18-9.93,7.33-5.28,13.61-11.82,20.9-17.16,9.24-6.75,19.15-12,30.41-14.43a36.33,36.33,0,0,1,21.62,1.49c5.8,2.32,12,3.87,16.66,8.38a17.22,17.22,0,0,1,1.17,1.37c1.73.89,2.51,2.64,3.42,4.13,1.82,3,2.31,5.52-.26,9A60.39,60.39,0,0,0,274.16,97.78Z"/><path class="cls-3" d="M303.79,169.75c.93,1,.45,1.95-.26,2.86A78,78,0,0,1,284,191a85,85,0,0,1-18.1,8.67c-7.57,2.6-15.15,5.34-23.41,5.56a57.34,57.34,0,0,1,7.44-4.39c8.56-4.57,15.77-10.87,22.94-17.2C278,179.08,283,174.38,288,169.75a14.76,14.76,0,0,0,2-1.91c.6-.82,1.47-1.85.56-2.84-.72-.8-1.68.1-2.53.26l-.89.16c-4.74,4.57-9.9,8.63-15,12.81-8.31,6.85-16.82,13.33-26.33,18.52-8.9,4.85-18.53,6.95-28.27,8.88-9.28,1.83-18.24.17-27-2.71-7.5-2.44-11.6-7.82-13.62-15.33-3.4-12.69-.61-23.83,7.46-33.93,1.45-1.8,5.65-6.54,7.91-8.84a129.14,129.14,0,0,1,24.91-19.2c5.1-3.12,10.62-5.32,16-7.88a7.07,7.07,0,0,1,2.58-.91c7.57-.25,16.55-19,23.24-21.86,4.79-1.44,16.09,6.58,21.14,6.18,1.39-.1-1,18.83,2.62,16.29,1.51,1.11,4.87,26,10.87,35.67a5.74,5.74,0,0,1,.42,1.29C298,159,299.54,165.26,303.79,169.75Z"/><path class="cls-3" d="M315,132c-.75-5.9-1.94-11.68-5.7-16.56-5.1-7.53-13-9-21.22-9.76a2.18,2.18,0,0,0-1.28.4c-1.91,1.28-4,7.08-3.28,9.36a180.42,180.42,0,0,0,13.22,32.15.27.27,0,0,0,.08-.07c0,.06-.07.09-.08.07,2.11,5.74,5.95,10.62,8,16.39a4.38,4.38,0,0,0,.7,1.17c1.52,2,2.27,1.93,3.62-.17C315.54,154.76,316.44,143.56,315,132Zm-6.29-16.32a3.48,3.48,0,0,0-1.61,2.53A2.78,2.78,0,0,1,308.66,115.63Zm-1.81,8.61c.21-1.56-.18-4,.19-6a20.42,20.42,0,0,0,0,2.07c.07,2.75.19,5.49-.91,8.11-.23.56-.46,1.12-.68,1.69A33.25,33.25,0,0,0,306.85,124.24Zm-10.06,23.22c.54-.67,3.14-5,3.38-5.49.35-.76.73-1.51,1.11-2.27C300,142.42,299.21,145.42,296.79,147.46Zm4.88-8.53c.63-1.22,1.26-2.44,1.82-3.7a30.94,30.94,0,0,1-1.61,3.33Z"/><path class="cls-3" d="M288.61,73.08l.34.13a7.84,7.84,0,0,1,.55,4.45c-.83,6.54-3,12.73-5,19a13.19,13.19,0,0,1-.72,1.69c-.59,1.21-1.54,2-2.91,1.6s-1-1.69-1-2.72a22,22,0,0,1,1.3-7.17C283,84.1,284.31,77.93,288.61,73.08Z"/><path class="cls-3" d="M300.17,142c.35-.76.73-1.51,1.11-2.27-1.28,2.72-2.07,5.72-4.49,7.76C297.33,146.79,299.93,142.49,300.17,142Z"/><path class="cls-3" d="M301.67,138.93c.63-1.22,1.26-2.44,1.82-3.7a30.94,30.94,0,0,1-1.61,3.33Z"/><path class="cls-3" d="M306.85,124.24c.21-1.56-.18-4,.19-6a20.42,20.42,0,0,0,0,2.07c.07,2.75.19,5.49-.91,8.11-.23.56-.46,1.12-.68,1.69A33.25,33.25,0,0,0,306.85,124.24Z"/><path class="cls-3" d="M212.41,213c-4.42,13.68-24.23,31-39.75,29,1.57-3.84,2.13-7.89,3.28-11.8a94.18,94.18,0,0,0-1.88-29.71c-.23-1-.53-2-.8-3.07l.86-.44c4,7.48,10.89,10.95,18.66,13.13,1.53.43,3.42.15,4.28,2a2.45,2.45,0,0,1,2.15-.49C203.55,212.54,208,212.57,212.41,213Z"/><path class="cls-3" d="M148.19,177.11a49.82,49.82,0,0,1,23.43-11.5c-2.53,8.72-1.79,16.94.36,25.11l-1.21.71C166.27,182.59,158.42,178.81,148.19,177.11Z"/><path class="cls-3" d="M300.17,142c.35-.76.73-1.51,1.11-2.27-1.28,2.72-2.07,5.72-4.49,7.76C297.33,146.79,299.93,142.49,300.17,142Z"/><path class="cls-3" d="M301.67,138.93c.63-1.22,1.26-2.44,1.82-3.7a30.94,30.94,0,0,1-1.61,3.33Z"/><path class="cls-3" d="M306.85,124.24c.21-1.56-.18-4,.19-6a20.42,20.42,0,0,0,0,2.07c.07,2.75.19,5.49-.91,8.11-.23.56-.46,1.12-.68,1.69A33.25,33.25,0,0,0,306.85,124.24Z"/><path class="cls-3" d="M122.27,274.55a.74.74,0,0,0,0,.21C122.19,274.78,122.2,274.68,122.27,274.55Z"/><path class="cls-3" d="M122.27,274.55a.74.74,0,0,0,0,.21C122.19,274.78,122.2,274.68,122.27,274.55Z"/><path class="cls-3" d="M172,190.72q1.07,3.14,2.14,6.27l-.86.44c-.83-2-1.67-4-2.49-6Z"/><path class="cls-6" d="M216.91,214.94c-.27-1-2.26-2.31.44-2.87C217.23,213,217.54,214.06,216.91,214.94Z"/><path class="cls-6" d="M288.61,73.08l.4-.53-.06.67Z"/><path class="cls-4" d="M8.12,327c.23,7.85,2.18,15.34,4.6,22.74a3.54,3.54,0,0,1-.09,1.32C8.14,343,4.3,334.63,2.84,325.37c2,1.36,1.75,4,3.38,5.76.77-1.23,0-2.47.4-3.56Z"/><path class="cls-4" d="M328.74,178.66c1-2.13,3.21-2.26,5.07-2.73a118.2,118.2,0,0,0,15.35-5,123.54,123.54,0,0,0,25.55-14.76c13.05-9.48,25.19-19.9,35.2-32.63A123.33,123.33,0,0,0,427.24,94.6c3.6-8.69,7.43-17.31,9.37-26.63a36.39,36.39,0,0,0-5.05-27.86c-5.43-8.68-12.08-16.35-19.09-23.75a10.18,10.18,0,0,1-1-1.54c5.18-.31,9.67,2,14.06,4.15A108.63,108.63,0,0,1,454.4,39c11,10.71,14.33,23.7,11.05,38.63-1.82,8.32-3.48,16.65-7,24.46-.61,1.35-.68,3.07-2.31,3.85-1.65-.75-.87-2.17-.84-3.24.19-9.37-2.67-18-6.58-26.28a4.7,4.7,0,0,0-1.06-1.5c-.43-.38-1-.81-1.65-.3a1.14,1.14,0,0,0-.36,1.23c.77,3.46,1.61,6.91,2.31,10.38,2.23,11.13,2.52,22.12-2.68,32.64-4.14,8.36-10.36,15-17.6,20.66A164.88,164.88,0,0,1,389.51,162c-10.41,4.39-20.68,9.12-31.54,12.29-6.06,1.78-12,4-18.32,4.82C336,179.58,332.31,180.2,328.74,178.66Z"/><path class="cls-4" d="M120.55,350.61a2,2,0,0,1,1.39-1.69c8-3.35,15.14-8.18,22.86-12,8.44-4.2,15.66-10.31,22.5-16.77,7.74-7.3,15-15,20.34-24.38,3.11-5.55,5.83-11.09,6.32-17.62.53-7.1-3-12.42-9.2-14.1-1.68-.45-3.79-.61-4.4-2.87,2.58-1.06,5.19-.58,7.75,0,6.48,1.4,12.93,2.9,19.39,4.39a15.84,15.84,0,0,1,2.18.8c8.74,3.51,10.87,8.07,9.53,16.21-1.76,10.77-6,20.82-14,28.71a177,177,0,0,1-35.13,26.92,68.86,68.86,0,0,1-15.85,6.39c-7.1,2.06-14.11,4.41-21.39,5.74C128.8,351,124.69,351.83,120.55,350.61Z"/><path class="cls-4" d="M147.36,246.49c-.22-2.69,1.3-4.81,2.08-7.16a90.06,90.06,0,0,0,4.92-24.52,48.47,48.47,0,0,0-4.29-23.34c-1.4-3-3.56-5.84-3-9.46,9.95.71,15.89,5.89,19,16.94,3,10.87,4.1,22,2.16,33.07-.79,4.55-2.71,8.68-4.53,12.82a3.79,3.79,0,0,1-4.41,2.43C155.33,246.81,151.34,246.73,147.36,246.49Z"/><path class="cls-4" d="M84.48,334.88a62.19,62.19,0,0,1-1.9-16.62,89.75,89.75,0,0,1,3-21.85c.8-3,3.16-5,4-7.91.38-1.27,2.18-1.64,3.67-1.71,3-.12,6-.14,8.92-.45,2.2-.23,3.41.45,3.35,2.69-.41,14.83-.93,29.63-10.33,42.27-1.31,1.76-2.39,3.7-3.69,5.47-.77,1.05-1.27,3-3,2.41A5.82,5.82,0,0,1,84.48,334.88Z"/><path class="cls-4" d="M209.07,151.13a5.38,5.38,0,0,1,2.26-2.39A219.38,219.38,0,0,0,255.53,113a3.82,3.82,0,0,0,.84-3.8,75.53,75.53,0,0,1,15.38-3.23c1.45-.12,3.77-1.16,4.1.94s2.59,4.55,0,7c-4,3.92-8,7.81-13.39,9.91a17.15,17.15,0,0,0-1.76.78c-.94.5-2,.28-1.37,1.76.53,1.26,2.08-.23,3.15-.26,1.73,0,4-2.14,5.91-1.44-1.51,2.34-5.39,7.74-7.75,9.84-.67-1.35,0-1.87-1.06-1.34-4.72,2.31-9.6,4.26-14.27,6.74a97.08,97.08,0,0,1-20.33,8.4c-3.52,1-6.9,2.54-10.54,3.06C212.71,151.6,210.78,152.73,209.07,151.13Z"/><path class="cls-4" d="M39.93,367c.48-.38.9-.94,1.43-1.1,5.63-1.6,9-5.6,12.21-10.25,8-11.46,16.79-22.44,23.91-34.55a4.85,4.85,0,0,1,2-1.78c.86,1.05.6,2.35.72,3.53.68,6.32,2.36,12.26,6.29,17.4,1.4,1.82,1.29,3.4-.24,5.29A62.15,62.15,0,0,1,59.12,365c-5.29,2-11,2.53-16.63,2.72A3.28,3.28,0,0,1,39.93,367Z"/><path class="cls-4" d="M287.53,166.34c1.28-4.31,5.41-9.9,8.34-13.18,4,4.63,5.59,10.88,9.84,15.37.92,1-1.08,4.09-1.78,5a77.78,77.78,0,0,1-19.56,18.35,84.15,84.15,0,0,1-18.1,8.68c-7.56,2.6-19.95,5.38-28.21,5.6,2.34-1.73,51.22-40.15,50.37-40Z"/><path class="cls-4" d="M197.71,211.59a2.8,2.8,0,0,1,2.37-.55c4.75.87,9.61.83,14.46,1.18-5.07,14.66-27.11,33.45-44.11,31.63,1.79-4.12,2.48-8.45,3.79-12.64A80.87,80.87,0,0,0,197.71,211.59Z"/><path class="cls-4" d="M296.53,149.61c.06.19,4.69-6.54,5-7.11,1.07-2.34,2.36-4.57,3.4-6.93a40.1,40.1,0,0,0,3.28-10.81c.34-2.61-1-7.79,2.4-8.84,3.77,4.88,4.95,10.66,5.71,16.56,1.49,11.61.58,22.8-5.95,33-1.34,2.09-1.78,5.58-3.3,3.59-.28-.36-3.26-2.47-3.41-2.89C301.56,160.4,298.63,155.35,296.53,149.61Z"/><path class="cls-4" d="M60.1,250.37c.12-2.71,1.71-3.53,4.19-3.37a46.25,46.25,0,0,1,24.89,8.74A49.86,49.86,0,0,1,101,267.18c1.39,2,1.08,3.13-.42,4.55-3,2.77-6,5.47-8.14,9a3.17,3.17,0,0,1-3.7,1.63c-1.93-.48-4.26-.12-5.88-1.5.91-1.4.64-3.27,0-4.82-3.07-7.58-7.23-14.67-10.68-22.09a11.1,11.1,0,0,0-1.4-2.47c-1.26-1.52-3.42-1.83-5.28-1.81C65.07,249.65,60.12,250,60.1,250.37Z"/><path class="cls-4" d="M266.22,101.91c-.12-1.54,1.07-2.45,1.74-3.6A143.16,143.16,0,0,0,283.05,61c.56-2.23,0-4.5.87-6.63,1.73.88,2.51,2.63,3.43,4.13,1.81,3,2.3,5.52-.27,9a60.25,60.25,0,0,0-11.6,30.81c-.15,1.7-.4,3-2.58,2.82S268.53,102.37,266.22,101.91Z"/><path class="cls-4" d="M119.72,277.14c3.7-4.54,8.79-7.71,13.35-11.41s9-8.56,9.92-14.49a57.26,57.26,0,0,1,16.89-.32c.63.08-2.83,3.7-3,3.81-1.57,1.39-3.18,2.73-4.82,4a122.44,122.44,0,0,1-10.22,7.31,123.92,123.92,0,0,1-22.39,11.35A3.25,3.25,0,0,1,119.72,277.14Z"/><path class="cls-4" d="M290.65,69.81a8.93,8.93,0,0,1,.58,5.45C290,83.34,287,91,284.24,98.75a15.31,15.31,0,0,1-1,2.1c-.8,1.51-2,2.52-3.8,2.06s-1.19-2-1.21-3.32c-.07-3.06.94-6,1.9-8.86,2.47-7.35,4.36-15,10-21.08Z"/><path class="cls-4" d="M93.27,282.14c2.37-4,5.62-6.33,8.27-9.16,1.6-1.7,3.19-.91,3.64,1.1a24.15,24.15,0,0,1,.15,5.52c0,1.51-.89,2.14-2.38,2.2C99.9,281.91,96.87,282.85,93.27,282.14Z"/><path class="cls-4" d="M172.08,192l1.21-.71c.71,2.09,1.43,4.17,2.15,6.26l-.87.45Z"/><path class="cls-4" d="M289.92,73.61l.4-.53-.06.66Z"/><path class="cls-5" d="M457,33.22c-11.35-10.39-24.83-18.08-39-24-6.06-2.55-12.72-2.71-19.12-3.77-6.75-1.12-13-4.09-19.79-5.09-8-1.18-16.47.76-23.84,3.89C343.14,9.37,333,18,323.23,26.56s-19.62,17.77-28,28c-.73.89-1.22,2.14-3,2.26-4.9-10.81-15-14.86-25.31-18.53-1.15-.41-2.33-.75-3.5-1.11a38.92,38.92,0,0,0-16.31-1.36,69,69,0,0,0-30.56,11.69c-15.08,10.2-28.71,22.29-42.68,33.92a16.47,16.47,0,0,0-4.44,6.86,44.87,44.87,0,0,0-2.37,27,78.53,78.53,0,0,0,13.63,30.29c1.48,1.94,1.21,3.09-.12,4.72a51.76,51.76,0,0,0-4.28,5.95c-.92,1.52-1.8,2.18-3.66,1.64a13.38,13.38,0,0,0-7.26.27c-10,2.76-18.67,7.59-24.61,16.42-.81,1.2-1.54,2.08-3.14,2.24-10.6,1-20,5.57-29,10.73a118,118,0,0,0-48.32,51.26,7.57,7.57,0,0,1-5.52,4.65c-18.7,4.67-33.17,15.12-42.61,32.16a142.91,142.91,0,0,0-9.13,19C-.1,303-.47,310.76.42,319.45c.06.57.12,1.15.2,1.72A14.82,14.82,0,0,0,1,322.78c.65,2.3,2,5,4.19,6.25,1.05-2,.75-4.52.19-6.75-2.79-11,0-21.53,4.46-31.76,4.28-9.72,9.83-19,17.41-26.46s17.3-13,27.83-14.31c-2.4,6,1.13,12.67,4.89,17.94,5.58,7.82,12.41,15.39,21.53,18.42a5.12,5.12,0,0,1,2.65,1.47c1.07,1.42.24,3.42-.54,5a52.39,52.39,0,0,0,1.24,47.18,6.53,6.53,0,0,1,1,2.64c.11,1.6-1,3-2.06,4.18a67.49,67.49,0,0,1-19.5,15c-11.21,5.63-25.53,8.4-36.49.81-9-6.25-14.35-17.26-15.89-27.92-2.17-15,3.83-30.06,11.2-43.34,2.11-3.82,4.38-7.64,5.35-11.89A15.45,15.45,0,0,0,24.54,283,84.07,84.07,0,0,0,8.87,313.85c-1.51,5.62-2.39,10.87-1.8,16.66C8.71,346.65,16.49,372.1,36.55,373c11.23.5,22.18-1.61,32.13-7.48,7.83-4.62,15.06-9.88,20.74-17.07.93-1.17,1.75-2.53,3.71-1.45,5.42,3,11.51,4,17.33,5.84a47.41,47.41,0,0,0,24,1c7.65-1.55,15.09-3.85,22.53-6.14,21.61-6.66,39.81-18.33,53.62-36.47a64,64,0,0,0,12-25.52c2.26-10.53-1.62-19.3-10.59-23.45a68.36,68.36,0,0,0-29.71-6.67c-3.79,0-6.49-.91-8.56-3.92-.24-.29-.74-.66-.67-.85.2-.65.78-.56,1.31-.36,6.86-.69,13.5-2.1,19.42-5.91,8.44-5.42,15.45-12.21,20.35-21.07,1.47-2.68,2.73-5.38,2.77-8.51-.27-1-2.26-2.31.44-2.87,3.43-.8,6.87-1.52,10.26-2.43a17.39,17.39,0,0,1,9-.14,26.32,26.32,0,0,0,11.38.26c11.77-2.22,23.19-5.54,33.75-11.38,9-5,17-11.37,24.81-18,3.08-2.62,5.54-3.36,9.35-1.56,11.52,5.44,23.46,6.14,35.75,2.52q10.79-3.18,21.35-7c18.2-6.58,35.48-15,51.28-26.23,4.6-3.28,8.78-7.33,13.73-9.92,8.83-4.61,15-11.56,19.44-20.08a143.24,143.24,0,0,0,14.7-44.21,46.67,46.67,0,0,0,.4-9.6C471.92,51.66,466.09,41.59,457,33.22ZM171,108.56A45.32,45.32,0,0,1,173.6,91a14,14,0,0,1,5.08-6.9c4.41-3.28,8.71-6.71,13.17-9.93,7.33-5.28,13.61-11.82,20.9-17.15,9.24-6.76,19.14-12,30.41-14.44,11.6-2.51,23.89.81,34,6.77,5.67,3.35,13.65,10.75,8.61,17.63a60.23,60.23,0,0,0-11.61,30.81c-.24,2.91-2.9,2.8-5.12,3a21.68,21.68,0,0,0-4.06.88c-1.76.54-3.51,1.23-5.24,1.83q-10,3.44-19.83,7.27c-8.63,3.36-18,6.37-25.95,11.2a143.64,143.64,0,0,0-25.12,19.08c-3.23,3.11-3.85,3.27-6.14-.58C176.83,130.6,171.73,120.39,171,108.56ZM289.5,77.66c-.83,6.55-3,12.73-5,19a11.86,11.86,0,0,1-.71,1.69c-.59,1.21-1.54,2-2.91,1.6s-1-1.69-1-2.72a21.5,21.5,0,0,1,1.3-7.17c1.78-5.94,3.1-12.1,7.4-17l.4-.53-.06.67A7.63,7.63,0,0,1,289.5,77.66ZM81.67,279.55c-4-1.85-7.63-4.93-11-7.59-4.93-3.91-9.28-8.55-11.81-14.39a6.5,6.5,0,0,1-.69-2.89c.17-2.78,3.2-6.84,6.17-6.66a43.42,43.42,0,0,1,23.33,8.19,46.93,46.93,0,0,1,10.86,10.42,4.91,4.91,0,0,1,.93,1.8c.3,1.37-.81,2.41-1.69,3.28a50.45,50.45,0,0,0-5.91,6.48c-1.47,2.07-2.54,3.25-5.16,2.89A18,18,0,0,1,81.67,279.55Zm20.18-5.27c1.18-1.26,2.36-.67,2.7.81a18,18,0,0,1,.11,4.09c0,1.12-.66,1.59-1.76,1.63-2.27.08-4.51.78-7.17.25C97.48,278.09,99.89,276.38,101.85,274.28ZM88.38,338.83a5.61,5.61,0,0,1-4-4.17,60.27,60.27,0,0,1-1.85-16.12,87.27,87.27,0,0,1,3-21.19c.78-2.87,3.06-4.84,3.91-7.68.37-1.23,2.12-1.59,3.56-1.65,2.89-.12,5.79-.14,8.66-.44,2.13-.23,3.3.44,3.24,2.61-.39,14.38-.9,28.74-10,41-1.27,1.71-2.31,3.59-3.57,5.3C90.52,337.52,90,339.37,88.38,338.83Zm91.39-77.41c2.54-1.05,5.13-.59,7.65,0,6.41,1.38,12.79,2.87,19.17,4.35a15.37,15.37,0,0,1,2.15.78c8.65,3.47,10.74,8,9.43,16-1.75,10.65-6,20.57-13.82,28.37a171.49,171.49,0,0,1-27.83,22.35c-10.09,6.54-21.58,10.79-33.25,13.86A78.65,78.65,0,0,1,119.39,350c-7.75-.39-15.23-3.38-22.5-5.92-2.86-1-2.84-1.26-1.18-3.86,1.81-2.83,3.7-5.61,5.52-8.42a53.41,53.41,0,0,0,8.33-25.87c.36-5.47.43-11,.38-16.46,0-2.35.55-3.42,3-4.08,18.93-5.07,35.57-14.26,49.46-28.21.76-.76,1.53-1.5,2.23-2.3a2.25,2.25,0,0,1,3.25-.43,10,10,0,0,1,2.52,2A13.08,13.08,0,0,0,179.77,261.42Zm-71,15.73c-1.74-7.68-1.74-7.6,4.65-12.34a78.94,78.94,0,0,1,28.78-13.26c5.1-.56,9.58-.85,14.79.1a7.18,7.18,0,0,1-2.75,3.66q-3.94,3.44-8.2,6.51C142.07,264.68,110.28,283.93,108.75,277.15ZM168,231.67c-.86,4.37-2.83,8.35-4.69,12.35a3.9,3.9,0,0,1-4.39,2.39c-17.05-1.67-34.52,4.79-48.21,14.69-1.23.89-2.43,1.85-3.69,2.7-2.71,1.83-2.8,1.84-4.6-.92-7.86-12-19.27-18.39-33.15-20.83-1-.18-2.15.06-3-.69-.53-.8,0-1.49.31-2.11,11-19,25.37-34.7,44.76-45.51a135.5,135.5,0,0,1,15.18-7.52c7-2.81,14.06-3.93,21.45-2,9.81.52,15.59,5.38,18.47,15.9A68.72,68.72,0,0,1,168,231.67ZM172.66,242c1.57-3.84,2.14-7.89,3.27-11.8a93.89,93.89,0,0,0-1.87-29.71c-.24-1-.53-2-.8-3.07q-1.24-3-2.5-6c-4.49-8.83-12.35-12.63-22.57-14.32a49.91,49.91,0,0,1,23.43-11.5c-2.53,8.71-1.79,16.94.35,25.12.72,2.08,1.44,4.17,2.15,6.25a24.39,24.39,0,0,0,10.36,10c3.51,1.83,7.4,2.95,11.12,4.28,1.5.54,16.42,2.9,16.81,1.72C208,226.64,188.17,244,172.66,242Zm130.87-69.39A77.61,77.61,0,0,1,284,191a83.85,83.85,0,0,1-18.09,8.68c-7.57,2.6-15.15,5.33-23.41,5.56a56.88,56.88,0,0,1,7.44-4.39c8.56-4.57,15.76-10.86,23-17.2C278,179.08,283,174.38,288,169.75a14.18,14.18,0,0,0,2-1.91c.6-.82,1.47-1.84.56-2.84-.73-.79-1.68.1-2.53.26l-.9.16c-4.72,4.57-9.88,8.63-14.95,12.81-8.31,6.85-16.82,13.33-26.33,18.52-8.9,4.85-18.53,6.95-28.28,8.87-9.27,1.83-18.22.19-27-2.69-7.5-2.46-11.6-7.83-13.62-15.35-3.4-12.68-.62-23.82,7.47-33.92,1.43-1.8,2.67-2.47,5-1.32,10.18,5,20.77,4.1,31.36,1.64,14.33-3.39,27.78-11.7,40.14-19.44.68-.43,1.47-1.19,1.08-1.9s-1.43-.49-2.16-.16c-9.58,4.22-18.72,9.43-28.44,13.3-12,4.76-26.15,7.87-38.52,2.79-2.77-1.14-2.81-1.45-.56-3.74a111,111,0,0,1,26.79-20c9.79-5.22,20.56-8.43,31-12.18,2.14-.77,4.3-1.62,6.47-2.46,5-1.91,10-3.71,15.21-4.12a4.57,4.57,0,0,1,2.52.33c2.05,1.11,2.29,6.09.74,7.63a58.25,58.25,0,0,1-14.38,10.26c-1.11.59-3.12,2.11-.78,3a3.89,3.89,0,0,0,2.06,0c4-.73,6.76-2.58,9.95-4.95.6-.45,5-4.32,5.72-3.77,1.5,1.11,1.78,2.52,2.18,3.79a135.3,135.3,0,0,0,13.88,30.72,5,5,0,0,1,.42,1.29c4,4.64,5.51,10.86,9.75,15.35C304.72,170.73,304.24,171.7,303.53,172.62Zm5.48-7.69c-1.34,2.1-2.1,2.16-3.62.17a4.38,4.38,0,0,1-.7-1.17c-2.05-5.77-5.89-10.66-8-16.39a179,179,0,0,1-13.23-32.15c-.72-2.28,1.38-8.08,3.29-9.36a2.11,2.11,0,0,1,1.27-.4c8.23.72,16.12,2.24,21.22,9.76C313,120.27,314.2,126.05,315,132,316.44,143.56,315.54,154.76,309,164.93ZM465.19,77.29c-1.8,8.2-3.44,16.43-6.93,24.14-.61,1.33-.68,3-2.28,3.8-1.64-.74-.86-2.14-.84-3.2.19-9.25-2.64-17.72-6.49-25.94a4.48,4.48,0,0,0-1-1.48c-.42-.37-1-.8-1.63-.29a1.12,1.12,0,0,0-.35,1.21c.76,3.41,1.59,6.82,2.28,10.25,2.2,11,2.48,21.83-2.65,32.22-4.08,8.25-10.23,14.76-17.37,20.39a162.7,162.7,0,0,1-37.66,22.23c-10.31,4.34-20.59,9.22-31.3,12.61-15.29,4.83-30.85,6.28-45.46-1.37-1.75-.91-1.25-2.21-.42-3.45a50.9,50.9,0,0,0,4.75-9.9c5.31-13.63,4.73-27.39-.35-40.78C313.81,108.16,306,103,296,101.08c-2-.39-4.81.53-5.84-1.58-.83-1.72,1-3.69,1.6-5.54,3-9.07,5.47-18.19,3.36-27.86a5.29,5.29,0,0,1,1.18-4.65c9.84-13,21.23-25.43,34.21-35.6,11.76-9.21,28.68-21,44.25-20.61,5.46.13,9.56,2.52,14.5,4.27,11.54,4.08,24.17,4.22,35.45,9.13,11.05,4.81,21,12.12,29.6,20.51C465.09,49.72,468.43,62.54,465.19,77.29Z"/><path class="cls-3" d="M607.05,215.83a21.77,21.77,0,0,1-7.43,12.34c-7.61,6.71-17,9.34-26.59,11.44-7.5,1.65-15.17,1.07-23.11,1,.88-1.46,2.23-1.29,3.21-1.53a133.56,133.56,0,0,0,20.68-7.29c1.52-.65,3.05-1.36,3.68-3-.66-1.44-1.57-.9-2.4-.63-3.92,1.26-7.77,2.72-11.79,3.64a7.76,7.76,0,0,1-4,.26,66.66,66.66,0,0,1-28.65,4,99.28,99.28,0,0,1-34.84-8.94,41.18,41.18,0,0,1-8.34-5.58c-3.09-2.49-3.69-6.13-5.18-9.38-.1-.89-.79-1.4-1.31-2,11.47-12.81,23.73-24.62,39.84-31.59A62.92,62.92,0,0,1,538,173.91c11.43-1.42,22.85-1.35,34.14,1.28a21.62,21.62,0,0,1,9.11,4.09,58.14,58.14,0,0,1,20,15.55C606.17,200.82,608.46,208,607.05,215.83Z"/><path class="cls-4" d="M560.25,233.07c2.18-3.64,6.3-4.58,9.54-6.72,5.5-3.65,10.83-7.37,14.61-12.95,4.08-6,5.12-12.68,4.34-19.68-.32-2.92-2.1-5.36-3.61-7.85-1.09-1.79-2.86-3.25-2.92-5.59a58.14,58.14,0,0,1,20,15.56c4.91,6,7.2,13.21,5.79,21a21.8,21.8,0,0,1-7.44,12.34c-7.6,6.7-17,9.34-26.59,11.43-7.49,1.65-15.16,1.08-23.1,1,.88-1.46,2.23-1.29,3.21-1.53a132.52,132.52,0,0,0,20.68-7.29c1.52-.64,3.05-1.35,3.68-3-.66-1.45-1.57-.9-2.4-.64-3.92,1.26-7.77,2.72-11.8,3.64A7.72,7.72,0,0,1,560.25,233.07Z"/><path class="cls-5" d="M478.32,209c10.22-17,25-28.59,43.05-36.2,5.51-2.32,11.41-3.39,17.32-4.19a98,98,0,0,1,31.92.84c13.91,2.71,24.79,10.79,34.24,20.87,3.9,4.17,6.13,9.49,7.53,15,2.47,9.83-.77,18.06-7.53,25.13a41.16,41.16,0,0,1-15.69,10.05,83.72,83.72,0,0,1-28.64,5.5c-6.71,0-13.61.74-20.06-1.17-12.16-3.59-24.81-5.1-36.85-9.07A62.73,62.73,0,0,1,492.23,231a27.83,27.83,0,0,1-10.39-9.44c-.7-2.65-2.13-5.09-2.12-7.92.64-.84,1.32-1.6,2.52-1.46,1.49,3.25,2.09,6.9,5.18,9.39a41.6,41.6,0,0,0,8.34,5.58,99.66,99.66,0,0,0,34.84,8.94,66.51,66.51,0,0,0,28.65-4,7.72,7.72,0,0,0,4-.26c4-.92,7.88-2.38,11.8-3.64.83-.26,1.74-.81,2.4.64-.63,1.61-2.16,2.32-3.68,3a132.52,132.52,0,0,1-20.68,7.29c-1,.24-2.33.07-3.21,1.53,7.94.1,15.61.67,23.1-1,9.56-2.09,19-4.73,26.59-11.43a21.8,21.8,0,0,0,7.44-12.34c1.41-7.79-.88-15-5.79-21a58.14,58.14,0,0,0-20-15.56,21.48,21.48,0,0,0-9.11-4.08c-11.29-2.64-22.71-2.71-34.14-1.28a62.21,62.21,0,0,0-17.19,4.63c-16.11,7-28.37,18.77-39.84,31.59C479.67,210.61,478.48,210.94,478.32,209Z"/><path class="cls-3" d="M212.82,452.65c-.06.12-.11.25-.17.37a25.5,25.5,0,0,0,.92-3.09c.34-1.49.25-3.38.54-5.06a10.14,10.14,0,0,0,0,1.56A13.37,13.37,0,0,1,212.82,452.65Z"/><path class="cls-3" d="M215.59,441.81a6.78,6.78,0,0,0-2.72-3c-11.36-8-23.64-13.25-37.88-12.59-2.59.13-5.19.08-7.77.25-7.94.53-24.3,2.12-34.75,8.46-11.72,7.11-18,16-16,22a23.82,23.82,0,0,1,1.16,2.63c1.76,7.93,4.68,15.09,12.59,18.92a5.07,5.07,0,0,0,2.16,2.26c8.86,6.35,18.82,7.33,29.23,6,5.26-.69,10.49-1.69,15.76-2.31,13.72-1.62,27-4.41,38.45-12.85,2.23-1.64,4.45-3.24,5.58-5.87C225.2,456.85,222.59,447.84,215.59,441.81Zm-2.77,10.84c-.06.12-.11.25-.17.37a25.5,25.5,0,0,0,.92-3.09c.34-1.49.25-3.38.54-5.06a10.14,10.14,0,0,0,0,1.56A13.37,13.37,0,0,1,212.82,452.65Z"/><path class="cls-3" d="M212.82,452.65c-.06.12-.11.25-.17.37a25.5,25.5,0,0,0,.92-3.09c.34-1.49.25-3.38.54-5.06a10.14,10.14,0,0,0,0,1.56A13.37,13.37,0,0,1,212.82,452.65Z"/><path class="cls-4" d="M131.22,479.5c1.89-.91,3.67.12,5.28.65,9.07,3,18.23,2.67,27.56,1.73,11.86-1.2,24.91-4.44,35.09-10.81A37,37,0,0,0,211.28,459a27.75,27.75,0,0,0,3.29-8c.59-2.55-.13-6.27,2-8.12,7,6,9.61,15,5.81,23.86-1.13,2.63-3.35,4.23-5.58,5.87-11.44,8.44-24.73,11.23-38.45,12.85-5.27.63-10.5,1.62-15.76,2.31-10.41,1.37-20.37.39-29.23-6A5,5,0,0,1,131.22,479.5Z"/><path class="cls-4" d="M127.28,444.39a6,6,0,0,1,1.9-.81c2.46-.67,4.63-2.11,6.87-3.35a19.77,19.77,0,0,1,4-1.74c.62-.19,3.86-1.1,3.28.29a2,2,0,0,1-.5.65,43.38,43.38,0,0,1-6.76,4.81q-3.81,2.46-7.54,5.05c-1,.7-2.22.92-2.79-.45a3.07,3.07,0,0,1,0-1.94A4.14,4.14,0,0,1,127.28,444.39Z"/><path class="cls-5" d="M112.35,451.15c3.4-5.59,8.31-10.16,13.29-14.35a53.46,53.46,0,0,1,16.3-9.72c10.28-3.66,20.57-6.74,31.71-6.11,14.4.81,27.65,4.88,39.56,13,7.07,4.82,12,11.22,13.9,19.76a27,27,0,0,1-.84,14c-1.08,3.56-3.53,5.92-6.42,8.09-10.95,8.2-23.37,12.54-36.83,14C173.3,491,163.69,493,153.85,493c-14.91,0-26.29-7-35.46-18.11A21.88,21.88,0,0,1,114,466a27.24,27.24,0,0,1-.7-5.08,13.61,13.61,0,0,1,0-2.3c.09-.69.69-1.52.25-2.2a1.4,1.4,0,0,0-1.07-.54c-.4,0-.82,0-1.22-.08a1,1,0,0,1-.67-.41,1.25,1.25,0,0,1,.13-1.1A32.13,32.13,0,0,1,112.35,451.15Zm17.54,27.77c9.65,6.16,22.47,9,31.72,7.79,5.26-.69,10.49-1.68,15.76-2.31,13.72-1.62,27-4.41,38.45-12.85,2.23-1.64,4.45-3.24,5.58-5.87,4.69-10.91-1.89-22.54-11.13-28.63-10.52-6.93-22.54-11.41-35.28-10.81-2.59.12-5.19.07-7.78.24-15.57,1-31.65,6.72-43.06,17.68-.53.51-1,1-1.54,1.56-2,2.1-4.88,3.35-5.63,6.31C114.05,463.69,120.45,472.89,129.89,478.92Z"/><path class="cls-3" d="M408.93,433.15a30.7,30.7,0,0,1-8.53,8.77c-10.27,7-21.11,12.8-33.3,15.56-8.44,1.91-17,3.56-25.69,1.24-7.65,1.07-14.14-1.82-20.2-6-4-2.75-4.89-5.86-3-10.32a20.73,20.73,0,0,1,7.67-9.46c5-3.2,9.93-6.49,15.15-9.36,10.25-5.62,21.42-6.65,32.74-6.9,3.58-.08,7.32-.89,10.77.93,7.84-.53,15.08,1.57,21.85,5.3C411.07,425.45,411.81,428.72,408.93,433.15Z"/><path class="cls-4" d="M336.47,460.76a1.93,1.93,0,0,1,2.08-1.67c8.3-.4,16-2.8,23.65-5.76a61.22,61.22,0,0,0,21.74-14.2c6.74-6.85,6.62-11.81,1.21-17.65-.95-1-2.87-5.18-2.68-6.54,8.61-.54,17.94,4.72,25.38,8.6,5.1,2.66,5.91,6.06,2.75,10.66a32.79,32.79,0,0,1-9.36,9.11c-11.28,7.26-23.18,13.3-36.56,16.16C355.4,461.46,346,463.18,336.47,460.76Z"/><path class="cls-5" d="M351,464.54c-9.74,0-19.22-1.21-27.84-6.23-1.05-.62-2.14-1.18-3.17-1.83-8.09-5.06-8.08-13-3.36-18.92,10.58-13.25,23.9-22.64,41.07-25.41a109.72,109.72,0,0,1,38.29,1,40.88,40.88,0,0,1,14,5.57c7.28,4.56,8.63,11.42,3.67,18.36a40.14,40.14,0,0,1-10.93,10.28c-10.69,7-22,12.54-34.45,15.56A63.53,63.53,0,0,1,351,464.54Zm-9.69-4.86c12.82,1.18,25.77-1.26,37.66-6.07,10.95-4.42,25.56-11.16,30.87-22.41a6.27,6.27,0,0,0,.79-3.76c-.34-1.76-1.9-3-3.43-3.9a41.49,41.49,0,0,0-8.85-3.79,79.6,79.6,0,0,0-73.88,14.58,23.74,23.74,0,0,0-5.38,5.85,10,10,0,0,0-1.34,7.65c.79,2.86,3.16,5,5.67,6.57,4.87,3,10.59,4.45,16.28,5.11Z"/><path class="cls-3" d="M1356.61,178.59a27.89,27.89,0,0,1-14.43-5.27,82.86,82.86,0,0,1-13.62-12.17c-2.27-2.46-4.44-5.05-6.92-7.28-4.14-3.72-7.07-8.35-10.3-12.76a161.21,161.21,0,0,1-11.53-19.19,69.6,69.6,0,0,1-8.56-28.66,47,47,0,0,1,.6-10.93,4.72,4.72,0,0,1,2.34-3.74c-.36-3.26,1.64-5.71,3.54-7.68,5.29-5.55,11.26-10.34,18.84-12.49a27.09,27.09,0,0,1,17.57,1.15A18,18,0,0,1,1345,70.69a55.28,55.28,0,0,1,2.63,10.19c.2,1.46.66,3-1.38,3.84-1.24.52-.69,1.66,0,2.21,2.3,1.79,2.07,4.14,1.94,6.65-.31,6.25-.62,12.51-1.43,18.72-.16,1.24-.78,2.71.55,3.81,1.47-.18,1.47-1.45,1.77-2.38a56.91,56.91,0,0,0,2.86-15.27c0-1,.1-1.81,1.17-2.06s1.31.67,1.65,1.28c4.84,8.67,11,16.63,14.81,25.85,4.42,10.79,7.53,22,6.59,33.89-.14,1.67,0,3.4-1.37,4.69C1374.25,170.76,1365.05,179.15,1356.61,178.59Z"/><path class="cls-4" d="M1293.78,79.94a6,6,0,0,1,1.69,3.17c2.86,9.85,6.73,19.19,12.77,27.63,3.08,4.31,5.39,9.16,8.38,13.61a199.12,199.12,0,0,0,22.51,28.11,74.22,74.22,0,0,0,9.51,8.54c6.42,4.66,13.34,5.61,20.85,3.65,1.62-.42,3.26-.79,4.89-1.19-.54,8.65-9.75,17-18.18,16.49a28.17,28.17,0,0,1-14.44-5.27,84.61,84.61,0,0,1-13.61-12.17c-2.27-2.47-4.43-5.06-6.92-7.29-4.14-3.71-7.08-8.35-10.3-12.76a161.81,161.81,0,0,1-11.54-19.19,69.7,69.7,0,0,1-8.55-28.66,46,46,0,0,1,.61-10.93A4.71,4.71,0,0,1,1293.78,79.94Z"/><path class="cls-5" d="M1293.34,123.8a71.35,71.35,0,0,1-8.27-32.15c0-13.12,4.55-23.69,15.85-31.14,5.92-3.91,11.69-8,18.91-8.75,11.5-1.26,21.72,1.22,28.44,11.58a30.2,30.2,0,0,1,4.68,17,23.14,23.14,0,0,0,6,16.47A102.23,102.23,0,0,1,1371,115.19c7.26,13.69,11.27,28.32,10.74,44-.32,9.43-5.1,16.46-12.21,22.09a17.88,17.88,0,0,1-13.8,3.73,38.14,38.14,0,0,1-18.59-7.21C1322.56,166.8,1304.23,145,1293.34,123.8Zm.22-45.48a33,33,0,0,0-2.66,15.56c.46,6.39,2.42,12.58,4.78,18.53,7.52,19,19.26,33.9,32.88,48.74a83.67,83.67,0,0,0,13.61,12.17,28.09,28.09,0,0,0,14.44,5.28c7.25.47,14-5.11,16.85-11.46a39.34,39.34,0,0,0,1.89-5.74c3.38-12.3-1.12-26.49-5.78-37.88-3.77-9.22-10-17.16-14.81-25.84-.34-.62-.68-1.5-1.65-1.28s-1.12,1-1.16,2.06a57.72,57.72,0,0,1-2.87,15.27c-.3.93-.3,2.19-1.77,2.38-1.33-1.1-.71-2.57-.54-3.81.8-6.19,1.93-13.16,1.61-19.4a10.82,10.82,0,0,0-2.13-6.21c-.29-.36-.64-.76-.56-1.21s.59-.77,1-1.09a4.41,4.41,0,0,0,1.14-4.2,59.23,59.23,0,0,0-2.82-9.5,17.87,17.87,0,0,0-10.86-11.12,27,27,0,0,0-17.55-1.15A35.71,35.71,0,0,0,1293.56,78.32Z"/><path class="cls-3" d="M1176.87,31.86c-7.81.67-15.19,3-22.45,5.85a3.67,3.67,0,0,1-1.32,0c7.83-4.93,16-9.23,25.11-11.18-1.24,2-3.92,1.95-5.57,3.67,1.28.71,2.47-.12,3.59.21C1176.45,30.89,1176.65,31.38,1176.87,31.86Z"/><path class="cls-3" d="M1232.38,240.49c-10.73-1.16-20.86-4.84-29.08-12.24a174.13,174.13,0,0,1-28.47-33.19,67.27,67.27,0,0,1-7.17-15.29c-2.42-6.89-5.13-13.67-6.83-20.8-1-4-2-8-1-12.14a6.43,6.43,0,0,1-.4-3.58,172.94,172.94,0,0,1,4.85-20.47c.84-2.91,1.11-2.9,3.8-1.39,2.91,1.66,5.8,3.38,8.71,5a53.25,53.25,0,0,0,26.28,6.89c5.49.07,11-.17,16.46-.52,2.35-.16,3.45.36,4.24,2.78,6.1,18.63,16.2,34.74,30.89,47.84.8.71,1.58,1.45,2.42,2.1a2.25,2.25,0,0,1,.6,3.22,9.56,9.56,0,0,1-1.81,2.62,13.13,13.13,0,0,0-4.53,9.61c1.2,2.49.87,5.1.46,7.65-1,6.47-2.16,12.92-3.28,19.38a16.19,16.19,0,0,1-.67,2.19C1244.87,239,1240.49,241.37,1232.38,240.49Z"/><path class="cls-3" d="M1265.13,86.45c.77-.57,1.48-.12,2.12.2,19.57,10,36,23.43,47.91,42.19a137,137,0,0,1,8.34,14.74c3.19,6.79,4.7,13.82,3.22,21.3,0,9.83-4.52,15.87-14.86,19.32a68.56,68.56,0,0,1-31.46,3.35c-4.41-.62-8.49-2.36-12.58-4a3.91,3.91,0,0,1-2.64-4.25c.17-3.92-2-6.61-2-10.55-2.05-4.62-2.6-10.94-4.41-15.67-3-7.84-5.63-14.66-10.86-21.1-1-1.19-2-2.33-2.9-3.54-2-2.61-2-2.69.67-4.65,11.58-8.5,17.29-20.25,19-34.24C1264.73,88.51,1264.43,87.4,1265.13,86.45Z"/><path class="cls-3" d="M1259.14,162.91a48.65,48.65,0,0,1,.71,14.77,7.09,7.09,0,0,1-3.8-2.54c-5.51-5.64-10.7-11.5-14.63-18.46-2.3-4.07-8.15-8.08-9.48-12.67-3.37-1.17.81,1.79.88,1.8-.14-.07-2.68-5.45-2.66-5.38-1.78-3.37,1.08-2.84,0-6.55-.49-1.7-.2-2.44,1.57-2.94,7.57-2.16,7.5-2.16,12.58,4A79.2,79.2,0,0,1,1259.14,162.91Z"/><path class="cls-3" d="M1183.8,105.35c-6.27,1-10.88,1.32-15.8,5.53-1.74,1.49-3.32,1.47-5.3,0a62.14,62.14,0,0,1-21-26c-2.25-5.17-3.13-10.81-3.63-16.46a3.28,3.28,0,0,1,.63-2.59c-1.4-6,1.92-10.56,5.51-14.34,10.59-11.14,23.8-16.13,39.22-14.74,9.72.88,18.67,4.38,27.45,8.39,3,1.4,6.07,2.85,9.14,4.21a11.12,11.12,0,0,0,5,1.46,4.62,4.62,0,0,0-2.62-3.15c-12.73-7.67-25.64-14.88-41-15.72-1.52-.08-3-.05-4.57-.08-.22-.48-.42-1-.64-1.46,3.26-.76,6.52-1.49,9.77-2.3,2.3-.56,4.46.48,6.74.49A49.43,49.43,0,0,1,1210.19,32a122.56,122.56,0,0,1,22.26,10.71c12.11,7.71,20,18.64,23.84,32.43,0,.1-.13.24-.4.74-8,1.16-13.26,2.73-18.85,7.11-7.47,5.87-13.55,12.77-16.08,22.25-.52,1.93-1.1,6.54-3.19,5.66a75,75,0,0,0-28.6-5.94C1188.17,105.84,1185,105.16,1183.8,105.35Z"/><path class="cls-3" d="M1177,120c-1.78-1.17-3.71-2.1-5.49-3.27-1.07-.69-2.94-1.07-2.49-2.76a5.61,5.61,0,0,1,3.94-4.22,59.47,59.47,0,0,1,16-2.72,86.83,86.83,0,0,1,21.32,1.79c2.9.6,5,2.78,7.88,3.47,1.24.3,1.7,2,1.84,3.46.29,2.88.46,5.77.92,8.62.34,2.12-.25,3.33-2.43,3.39C1204.12,128.19,1189.75,128.47,1177,120Z"/><path class="cls-3" d="M1246.53,78.78c2.55-1.69,7-2.49,8.94,0,2.54,0,2.92,3.83,2.9,6.16a43.37,43.37,0,0,1-6.88,23.75,47.42,47.42,0,0,1-10.1,11.68c-1.76,1.39-2.87,1.16-4.28-.17-2.74-2.62-5.43-5.32-8.81-7.15a3,3,0,0,1-1.72-3.38c.37-1.91,0-4,1.11-5.74C1231.69,93.61,1237.49,84.77,1246.53,78.78Z"/><path class="cls-3" d="M1233.56,126.63a17.22,17.22,0,0,1-4.08.33c-1.12.06-1.62-.57-1.72-1.67-.21-2.25-1-4.44-.65-7.14,3.06,1.59,4.91,3.9,7.11,5.74C1235.54,125,1235,126.22,1233.56,126.63Z"/><path class="cls-3" d="M1419.93,286.23c-1.7-.05-3-.23-3-2.42s-1.48-4.29-1.15-6.62c-3.08-7-6.34-13.9-10.08-20.56-.73-1.3-3.63-2.45-3-4.11.3-.77-1.81-6.05-2.21-6.71-4.36-7.37-3.2-11.23-8.1-18.36a144.38,144.38,0,0,0-20.43-24c-3.29-3.06-3.48-3.67.23-6.16,9.55-6.41,19.47-12.06,31.24-13.46a45.67,45.67,0,0,1,17.68,1.64,14.14,14.14,0,0,1,7.17,4.69c3.52,4.23,7.19,8.34,10.64,12.61,5.68,7,12.55,12.94,18.28,19.93,7.25,8.86,13,18.46,16.09,29.57a36.33,36.33,0,0,1-.31,21.67c-2,5.91-3.19,12.16-7.44,17.09a16.88,16.88,0,0,1-1.3,1.24c-.8,1.78-2.5,2.66-3.94,3.65-2.85,2-5.39,2.61-9,.23A60.35,60.35,0,0,0,1419.93,286.23Z"/><path class="cls-3" d="M1349.71,319.78c-.93,1-1.93.55-2.88-.11a77.81,77.81,0,0,1-19.41-18.51,84.87,84.87,0,0,1-9.66-17.59c-3-7.42-6.16-14.84-6.84-23.07a56.58,56.58,0,0,1,4.8,7.19c5,8.3,11.72,15.14,18.44,22,4.81,4.88,9.78,9.61,14.68,14.4a14,14,0,0,0,2,1.85c.86.55,1.93,1.37,2.87.4.76-.76-.19-1.67-.39-2.5-.08-.3-.15-.6-.22-.89-4.82-4.48-9.16-9.4-13.61-14.23-7.3-7.92-14.24-16.06-19.94-25.27-5.33-8.62-8-18.12-10.42-27.74-2.34-9.17-1.18-18.2,1.21-27.14,2-7.63,7.17-12,14.56-14.45,12.48-4.1,23.76-1.92,34.3,5.58,1.86,1.35,6.83,5.28,9.25,7.41A128.7,128.7,0,0,1,1389,230.89c3.4,4.92,5.9,10.31,8.75,15.52a7.26,7.26,0,0,1,1.06,2.52c.66,7.55,19.85,15.49,23.1,22,1.7,4.7-5.69,16.43-5,21.45.18,1.38-4.9,18.71-2.16,22.15-1,1.57-8.09,6.86-17.37,13.38-.36.26-31.5-9.42-31.93-9.25C1361,322.92,1354,315.29,1349.71,319.78Z"/><path class="cls-3" d="M1445.4,299.3l-.12.35a7.82,7.82,0,0,1-4.41.79c-6.58-.47-12.87-2.31-19.21-3.91a15.51,15.51,0,0,1-1.73-.62c-1.24-.53-2.09-1.44-1.76-2.82s1.64-1,2.67-1.16a22.31,22.31,0,0,1,7.23.91C1434.09,294.29,1440.32,295.27,1445.4,299.3Z"/><path class="cls-3" d="M1301.53,230.92c-13.9-3.67-32.29-22.5-31.19-38.1,3.92,1.36,8,1.7,12,2.62a93.94,93.94,0,0,0,29.56-3.5c1-.3,2-.64,3-1,.16.28.34.56.5.84-7.26,4.44-10.34,11.47-12.09,19.36-.35,1.54,0,3.42-1.79,4.38a2.46,2.46,0,0,1,.62,2.12C1301.46,222.05,1301.68,226.47,1301.53,230.92Z"/><path class="cls-3" d="M1333.79,164.82a49.92,49.92,0,0,1,12.78,22.76c-8.85-2.05-17-.86-25.06,1.74-.26-.4-.52-.78-.77-1.18C1329.31,183.17,1332.66,175.12,1333.79,164.82Z"/><path class="cls-3" d="M1235.08,144.3a.54.54,0,0,0-.22,0C1234.84,144.23,1234.94,144.24,1235.08,144.3Z"/><path class="cls-3" d="M1235.08,144.3a.54.54,0,0,0-.22,0C1234.84,144.23,1234.94,144.24,1235.08,144.3Z"/><path class="cls-3" d="M1321.51,189.32l-6.13,2.48c-.16-.28-.34-.56-.5-.84l5.86-2.82C1321,188.54,1321.25,188.92,1321.51,189.32Z"/><path class="cls-6" d="M1299.8,235.51c1-.33,2.18-2.38,2.89.29C1301.72,235.73,1300.72,236.09,1299.8,235.51Z"/><path class="cls-6" d="M1445.39,299.29l.55.38-.66,0Z"/><path class="cls-4" d="M1176.42,33.2c-7.82.67-15.2,3-22.45,5.85a3.72,3.72,0,0,1-1.33,0c7.84-4.93,16-9.23,25.12-11.19-1.25,2-3.92,2-5.57,3.69,1.27.7,2.47-.13,3.58.2C1176,32.23,1176.2,32.72,1176.42,33.2Z"/><path class="cls-4" d="M1159,146.76a2.07,2.07,0,0,1,1.76,1.3c3.78,7.77,9,14.67,13.26,22.17,4.66,8.19,11.16,15.07,18,21.54,7.72,7.32,15.78,14.21,25.46,19,5.72,2.81,11.4,5.22,18,5.34,7.12.14,12.24-3.63,13.57-10,.35-1.69.4-3.82,2.62-4.55,1.2,2.52.87,5.15.46,7.74-1,6.54-2.19,13.07-3.32,19.6a14.57,14.57,0,0,1-.68,2.22c-3,8.93-7.46,11.3-15.66,10.41-10.85-1.16-21.11-4.89-29.43-12.37a176.68,176.68,0,0,1-28.81-33.6,68.24,68.24,0,0,1-7.26-15.47c-2.44-7-5.18-13.84-6.91-21C1159.07,155,1158,151,1159,146.76Z"/><path class="cls-4" d="M1264.47,167.8c2.68-.36,4.88,1,7.27,1.69a90,90,0,0,0,24.75,3.56,48.32,48.32,0,0,0,23.06-5.57c2.89-1.56,5.64-3.87,9.29-3.49-.16,10-5,16.19-15.87,19.89-10.69,3.64-21.7,5.3-32.9,4-4.58-.54-8.81-2.23-13-3.82a3.79,3.79,0,0,1-2.67-4.27C1264.6,175.79,1264.45,171.79,1264.47,167.8Z"/><path class="cls-4" d="M1172.76,109.89a61.32,61.32,0,0,1,16.49-2.81,89.71,89.71,0,0,1,22,1.84c3,.63,5.16,2.88,8.12,3.59,1.29.31,1.76,2.08,1.91,3.56.28,3,.47,6,.94,8.89.36,2.18-.26,3.42-2.5,3.49-14.83.41-29.64.7-42.78-8-1.83-1.21-3.82-2.18-5.66-3.38-1.09-.71-3-1.11-2.57-2.85A5.79,5.79,0,0,1,1172.76,109.89Z"/><path class="cls-4" d="M1363.08,224.18a5.44,5.44,0,0,1,2.52,2.11,218.94,218.94,0,0,0,38.16,42.17,3.82,3.82,0,0,0,3.85.63,75.23,75.23,0,0,1,4.06,15.18c.21,1.45,1.38,3.7-.71,4.15s-4.4,2.83-7,.43c-4.14-3.79-8.24-7.57-10.63-12.82a18.39,18.39,0,0,0-.88-1.71c-.55-.91-.39-2-1.84-1.28-1.22.6.35,2.07.44,3.14.14,1.72,2.36,3.9,1.76,5.82-2.42-1.38-8-5-10.25-7.2,1.31-.74,1.87-.07,1.28-1.13-2.56-4.59-4.78-9.35-7.52-13.88a97,97,0,0,1-9.5-19.83c-1.14-3.47-2.92-6.75-3.63-10.36C1362.82,227.83,1361.58,226,1363.08,224.18Z"/><path class="cls-4" d="M1138.27,67.17c.4.45,1,.84,1.18,1.37,1.9,5.53,6.08,8.62,10.91,11.63,11.89,7.4,23.33,15.52,35.81,22a4.87,4.87,0,0,1,1.88,1.94c-1,.91-2.3.72-3.48.91-6.27,1-12.11,3-17,7.24-1.74,1.49-3.33,1.47-5.3,0a62.28,62.28,0,0,1-21-26c-2.24-5.18-3.12-10.82-3.62-16.46A3.28,3.28,0,0,1,1138.27,67.17Z"/><path class="cls-4" d="M1352.21,303.35c4.38,1,10.19,4.86,13.63,7.6-4.41,4.25-10.56,6.19-14.81,10.67-.93,1-4.15-.85-5.1-1.5a77.63,77.63,0,0,1-19.4-18.52,84.16,84.16,0,0,1-9.66-17.59c-3-7.41-6.47-19.63-7.15-27.86,1.86,2.24,42.91,48.93,42.71,48.09C1352.35,303.94,1352.28,303.65,1352.21,303.35Z"/><path class="cls-4" d="M1302.09,216.16a2.84,2.84,0,0,1,.69,2.33c-.62,4.79-.31,9.65-.39,14.51-14.92-4.26-34.9-25.23-34-42.3,4.21,1.55,8.58,2,12.83,3.09A80.72,80.72,0,0,0,1302.09,216.16Z"/><path class="cls-4" d="M1365.74,310.62c-.19.07,10.46,5.12,11,5.35,2.39.94,4.69,2.11,7.1,3a40,40,0,0,0,11,2.68c2.64.2,7.73-1.41,9,1.92-4.67,4-10.37,5.52-16.22,6.6-11.51,2.13-22.74,1.84-33.26-4.12-2.16-1.23-9.71-1.75-7.8-3.37.34-.3,1.54-5.59,2-5.76C1354.14,314.56,1360.12,313,1365.74,310.62Z"/><path class="cls-4" d="M1255.8,80.89c2.71,0,3.61,1.51,3.6,4a46.45,46.45,0,0,1-7.36,25.34,50.13,50.13,0,0,1-10.77,12.45c-1.89,1.5-3.07,1.25-4.57-.17-2.93-2.79-5.79-5.67-9.4-7.63a3.16,3.16,0,0,1-1.84-3.6c.38-2-.11-4.27,1.17-6a5.38,5.38,0,0,0,4.82-.25c7.4-3.48,14.25-8,21.47-11.88a10.72,10.72,0,0,0,2.39-1.54c1.45-1.34,1.64-3.51,1.51-5.36C1256.79,85.81,1256.16,80.89,1255.8,80.89Z"/><path class="cls-4" d="M1415.38,278.52c1.52-.2,2.5.94,3.69,1.54a142.87,142.87,0,0,0,38.1,13c2.26.44,4.5-.2,6.67.5-.79,1.78-2.49,2.66-3.93,3.65-2.86,2-5.39,2.61-9,.23a60.31,60.31,0,0,0-31.4-9.89c-1.71-.05-3-.23-3-2.41S1415,280.86,1415.38,278.52Z"/><path class="cls-4" d="M1232.35,141.89c4.74,3.45,8.18,8.36,12.12,12.71s9,8.54,15,9.1a57.13,57.13,0,0,1,1.26,16.85c0,.64-3.85-2.62-4-2.74q-2.2-2.25-4.3-4.59a125.46,125.46,0,0,1-7.86-9.81,123.35,123.35,0,0,1-12.56-21.73Z"/><path class="cls-4" d="M1458.23,300.58a10.87,10.87,0,0,1-6.74,1c-10.19-1.22-20.34.88-30.23-2.2-.92-.28-4.56-3.49-5.44-3.92-2-1-.26-5.23.16-7.5s2.45-1.61,4-1.72c3.82-.24,7.57.9,11.22,2,9.39,2.78,19.07,4.81,27.16,11.77Z"/><path class="cls-4" d="M1225.9,115.76c4.14,2.15,6.63,5.26,9.6,7.76,1.79,1.49,1.08,3.13-.89,3.69a23.9,23.9,0,0,1-5.51.45c-1.51.07-2.19-.77-2.32-2.25C1226.5,122.36,1225.39,119.4,1225.9,115.76Z"/><path class="cls-4" d="M1320.28,189.48c.26.39.52.78.77,1.17l-6.12,2.5c-.17-.28-.34-.56-.5-.84Z"/><path class="cls-4" d="M1444.94,300.63l.55.38-.67,0Z"/><path class="cls-5" d="M1480.28,255.81a69,69,0,0,0-13.35-29.87c-11-14.5-23.84-27.44-36.22-40.74a16.34,16.34,0,0,0-7.1-4.06,44.78,44.78,0,0,0-27.09-.89A78.62,78.62,0,0,0,1367,195.54c-1.87,1.58-3,1.37-4.73.13a51.15,51.15,0,0,0-6.17-3.94c-1.57-.83-2.27-1.68-1.84-3.56a13.46,13.46,0,0,0-.67-7.24c-3.31-9.83-8.6-18.22-17.75-23.67-1.25-.75-2.16-1.42-2.41-3-1.63-10.53-6.66-19.67-12.31-28.41a118,118,0,0,0-53.85-45.42,7.56,7.56,0,0,1-4.94-5.26c-5.69-18.41-16.92-32.28-34.46-40.77a143.15,143.15,0,0,0-19.47-8.08c-8.46-2.64-16.26-2.57-24.89-1.2-.57.09-1.15.18-1.71.29a12.4,12.4,0,0,0-1.59.42c-2.26.77-4.92,2.3-6,4.53,2.1.93,4.55.5,6.75-.19,10.85-3.39,21.5-1.22,32,2.71,9.94,3.74,19.52,8.77,27.38,15.92s13.89,16.57,15.82,27c-6.14-2.07-12.59,1.82-17.65,5.87-7.5,6-14.68,13.23-17.2,22.5a5.26,5.26,0,0,1-1.32,2.74c-1.36,1.14-3.41.42-5-.27a52.41,52.41,0,0,0-47,3.83,6.46,6.46,0,0,1-2.58,1.16c-1.59.2-3-.82-4.28-1.83A67.24,67.24,0,0,1,1145,91.16c-6.24-10.89-9.79-25-2.82-36.39,5.75-9.37,16.45-15.28,27-17.4,14.9-3,30.22,2.16,43.89,8.79,3.93,1.9,7.87,4,12.16,4.69a15.45,15.45,0,0,0-3.93-3.67,84.07,84.07,0,0,0-31.67-14c-5.69-1.2-11-1.78-16.73-.88-16,2.53-41,11.7-40.79,31.77.12,11.25,2.83,22.06,9.25,31.68,5,7.56,10.69,14.49,18.17,19.77,1.23.86,2.64,1.6,1.67,3.62-2.68,5.57-3.4,11.71-4.89,17.63a47.53,47.53,0,0,0,.33,24c2,7.55,4.68,14.85,7.38,22.16,7.83,21.21,20.49,38.74,39.37,51.53a63.91,63.91,0,0,0,26.13,10.56c10.64,1.68,19.18-2.68,22.83-11.86a68.38,68.38,0,0,0,5-30c-.25-3.78.55-6.52,3.45-8.77.27-.25.61-.76.8-.71.66.17.61.75.44,1.29,1.06,6.82,2.84,13.37,7,19.07,5.88,8.13,13,14.75,22.16,19.15,2.76,1.33,5.53,2.44,8.65,2.3,1-.33,2.18-2.38,2.89.29,1,3.37,1.9,6.77,3,10.11a17.3,17.3,0,0,1,.64,9,26.38,26.38,0,0,0,.37,11.39c2.86,11.62,6.8,22.84,13.22,33.06a130,130,0,0,0,12.9,16.68c3.25,3.7,6.26,7.72,10.24,10.69,2.44,1.82,3.67,2.22,6.5,2.16s5.68,1.53,8.25,2.68c13.57,6.1,30.7,5.43,44.14-.86,9.18-4.3,14.56-12.63,15.9-22.53.28-2-.79-4.78,1.26-5.92,1.67-.93,3.73.77,5.62,1.29a68.91,68.91,0,0,0,33.49.83,12.73,12.73,0,0,0,2.7-.88,13.94,13.94,0,0,0,3.25-2.48c7.64-7.12,13-14.76,14.75-25.29.35-1.18.62-2.37.91-3.56A38.73,38.73,0,0,0,1480.28,255.81ZM1227.85,104c1.62-4.11,4.5-7.89,7-11.4,3.63-5.15,8-9.74,13.71-12.59a6.36,6.36,0,0,1,2.85-.84c2.79,0,7,2.81,7,5.79a43.47,43.47,0,0,1-6.9,23.74,47,47,0,0,1-9.8,11.42,4.94,4.94,0,0,1-1.75,1c-1.35.37-2.45-.68-3.37-1.51a49.46,49.46,0,0,0-6.79-5.54c-2.15-1.36-3.39-2.36-3.17-5A18.14,18.14,0,0,1,1227.85,104Zm5.71,22.6a17.76,17.76,0,0,1-4.08.34c-1.12,0-1.62-.58-1.72-1.67-.2-2.26-1-4.45-.65-7.15,3.07,1.59,4.91,3.9,7.11,5.75C1235.54,125,1235,126.22,1233.56,126.63ZM1173,109.78a60.32,60.32,0,0,1,16-2.73,87.32,87.32,0,0,1,21.32,1.79c2.9.62,5,2.79,7.88,3.48,1.24.31,1.7,2,1.84,3.46.28,2.88.46,5.77.92,8.62.34,2.12-.26,3.32-2.43,3.39-14.38.4-28.75.68-41.49-7.75-1.78-1.18-3.71-2.11-5.49-3.28-1.07-.69-2.94-1.07-2.5-2.77A5.63,5.63,0,0,1,1173,109.78Zm84.73,79a9.76,9.76,0,0,1-1.82,2.61,13.1,13.1,0,0,0-4.53,9.62c1.19,2.48.87,5.09.46,7.64-1,6.47-2.16,12.92-3.28,19.38a14.88,14.88,0,0,1-.67,2.19c-3,8.82-7.37,11.16-15.48,10.29-10.72-1.16-20.86-4.84-29.08-12.23a171.42,171.42,0,0,1-23.85-26.57c-7.08-9.71-12-20.95-15.67-32.43a78.72,78.72,0,0,1-4.16-23.69c0-7.76,2.53-15.39,4.67-22.79.84-2.91,1.11-2.9,3.79-1.39,2.93,1.65,5.8,3.38,8.72,5a53.25,53.25,0,0,0,26.28,6.89c5.49.06,11-.17,16.46-.53,2.35-.15,3.44.36,4.24,2.79,6.1,18.63,16.2,34.74,30.89,47.84.8.71,1.58,1.45,2.42,2.1A2.27,2.27,0,0,1,1257.7,188.76Zm-1.65-13.62c-2.44-2.5-4.76-5.12-7-7.83-3.07-3.78-24-34.47-17.36-36.37,7.58-2.16,7.5-2.16,12.58,4a79.07,79.07,0,0,1,14.83,28,48.63,48.63,0,0,1,.71,14.77A7.12,7.12,0,0,1,1256.05,175.14Zm9.13,4.15c.74-17.11-6.67-34.2-17.31-47.32-1-1.19-2-2.33-2.91-3.54-2-2.61-2-2.69.67-4.65,11.59-8.5,17.3-20.25,19-34.24.12-1-.18-2.14.52-3.09.77-.57,1.48-.12,2.12.2,19.58,10,36,23.43,47.9,42.19a135.43,135.43,0,0,1,8.35,14.74c3.19,6.8,4.7,13.82,3.22,21.3,0,9.83-4.51,15.87-14.86,19.32a68.56,68.56,0,0,1-31.46,3.34c-4.4-.61-8.49-2.35-12.58-4A3.9,3.9,0,0,1,1265.18,179.29Zm40.81,23.4c-1.64,3.61-2.54,7.55-3.67,11.34-.45,1.53-2,16.56-.79,16.88-13.9-3.66-32.29-22.49-31.19-38.09,3.92,1.36,8,1.7,12,2.62a94,94,0,0,0,29.56-3.5c1-.3,2-.65,3-1l5.85-2.83c8.58-5,11.93-13,13.06-23.32a49.88,49.88,0,0,1,12.78,22.75c-8.84-2-17-.85-25.06,1.74l-6.13,2.5A24.3,24.3,0,0,0,1306,202.69Zm98.29,119.55c-4.66,4-10.37,5.52-16.22,6.6-7,1.3-15.54,2.36-22.41,0a82.81,82.81,0,0,1-27.73-16.1,71.51,71.51,0,0,1-10.5-11.56,84.62,84.62,0,0,1-9.66-17.59c-3-7.41-6.15-14.84-6.83-23.07a59,59,0,0,1,4.79,7.18c5,8.31,11.71,15.15,18.44,22,4.81,4.88,9.78,9.61,14.68,14.4a15.2,15.2,0,0,0,2,1.85c.23.15.47.31.73.46a8.92,8.92,0,0,1,2.23-1.45,7.11,7.11,0,0,1-.49-1.11l-.21-.89c-4.82-4.47-9.16-9.4-13.61-14.23-7.29-7.92-14.24-16.06-19.94-25.27-5.34-8.62-8-18.12-10.42-27.75-2.33-9.16-1.18-18.19,1.21-27.14,2-7.62,7.18-12,14.57-14.44,12.47-4.09,23.76-1.93,34.28,5.59,1.87,1.33,2.61,2.53,1.59,4.91-4.48,10.44-3,21,.1,31.41,4.17,14.11,13.2,27.09,21.61,39,.47.66,1.27,1.4,2,1s.41-1.46,0-2.17c-4.75-9.33-10.45-18.17-14.85-27.67-5.4-11.66-9.29-25.68-4.9-38.3,1-2.83,1.29-2.89,3.71-.76a110.75,110.75,0,0,1,21.47,25.64c5.76,9.49,9.56,20.06,13.87,30.26.88,2.1,1.86,4.2,2.81,6.33,2.18,4.83,4.26,9.78,5,15a4.43,4.43,0,0,1-.18,2.53c-1,2.11-6,2.62-7.58,1.16-4.69-4.22-8-9.29-11.6-14.44-.36-.52-.83-1.09-1.46-1.06-1,.06-1.21,1.41-1,2.37,1,6.39,6.76,12.49,10.86,17.21a15.91,15.91,0,0,0,5.51,4.33c2.12.92,4.83.91,6.33,2.9a2.1,2.1,0,0,1,.47,1.25C1412.6,308.77,1411.52,316.72,1404.28,322.24Zm64.18-35.68c-4.58,8.84-14.21,12.72-23.7,13.42-7.43.54-17-.69-23.87-3.66a3.82,3.82,0,0,1-1.72-1.19,4.23,4.23,0,0,1-.56-1.47c-1-4.37-1.45-8.87-2.5-13.21a69.72,69.72,0,0,0-3.44-10.12q-3.64-8.86-7.61-17.58c-3.82-8.44-7.35-17.65-12.61-25.3a144,144,0,0,0-20.43-24c-3.29-3-3.48-3.67.23-6.16,9.56-6.41,19.47-12.06,31.25-13.45a45.24,45.24,0,0,1,17.67,1.64,13.91,13.91,0,0,1,7.17,4.69c3.52,4.22,7.18,8.33,10.64,12.61,5.67,7,12.55,12.93,18.28,19.92,7.25,8.85,13,18.45,16.09,29.56C1476.49,263.68,1473.86,276.14,1468.46,286.56Z"/><path class="cls-3" d="M972.61,38.35a21.82,21.82,0,0,1-3,14.09c-5,8.82-13.06,14.39-21.4,19.49-6.55,4-14,6-21.53,8.46.36-1.66,1.69-1.94,2.54-2.49a133.52,133.52,0,0,0,17.17-13.64c1.22-1.11,2.44-2.28,2.51-4-1.1-1.14-1.78-.33-2.48.19-3.29,2.47-6.46,5.11-10,7.29a7.77,7.77,0,0,1-3.74,1.57,66.7,66.7,0,0,1-25.78,13.11,99.35,99.35,0,0,1-35.85,2.91,41.4,41.4,0,0,1-9.71-2.55c-3.73-1.35-5.49-4.59-8-7.18-.39-.81-1.21-1.06-1.9-1.48,6.66-15.85,14.4-31,27.35-42.86a63,63,0,0,1,14.74-10c10.34-5.07,21.16-8.73,32.69-9.92a21.57,21.57,0,0,1,10,.89,58.18,58.18,0,0,1,24,8.16C966.88,24.45,971.4,30.53,972.61,38.35Z"/><path class="cls-4" d="M934,69.91c.88-4.15,4.47-6.38,6.82-9.47,4-5.24,7.84-10.49,9.59-17,1.9-7,.71-13.65-2.31-20-1.26-2.66-3.74-4.38-6-6.24-1.62-1.35-3.77-2.15-4.59-4.33a58,58,0,0,1,24,8.16c6.6,4.06,11.12,10.14,12.33,18a21.7,21.7,0,0,1-3,14.09c-5,8.82-13,14.39-21.4,19.49-6.55,4-14,6-21.53,8.46.36-1.67,1.69-2,2.54-2.49a132.83,132.83,0,0,0,17.17-13.64c1.23-1.11,2.44-2.28,2.51-4-1.09-1.15-1.78-.34-2.47.18-3.3,2.47-6.46,5.11-10,7.29A7.66,7.66,0,0,1,934,69.91Z"/><path class="cls-5" d="M848.68,73.86C852.81,54.48,863,38.68,877.57,25.6a67.61,67.61,0,0,1,15-9.62A97.85,97.85,0,0,1,923,6.37c14-2,27,2.11,39.17,8.55,5,2.67,8.89,7,12,11.75,5.55,8.47,5.17,17.32,1.09,26.2a41.15,41.15,0,0,1-11.55,14.62A83.84,83.84,0,0,1,938.47,82c-6.34,2.24-12.64,5.13-19.35,5.44-12.67.56-25.12,3.27-37.8,3.44a62,62,0,0,1-12.31-.8,27.93,27.93,0,0,1-12.9-5.54c-1.52-2.27-3.68-4.11-4.59-6.79.33-1,.73-1.94,1.91-2.2,2.47,2.59,4.22,5.83,8,7.18a41.53,41.53,0,0,0,9.71,2.55,99.37,99.37,0,0,0,35.85-2.91,66.59,66.59,0,0,0,25.78-13.12,7.66,7.66,0,0,0,3.74-1.56c3.51-2.18,6.67-4.82,10-7.29.7-.52,1.38-1.33,2.48-.18-.07,1.73-1.28,2.9-2.51,4A133.52,133.52,0,0,1,929.22,77.9c-.85.54-2.18.82-2.54,2.49,7.54-2.5,15-4.46,21.52-8.46,8.35-5.1,16.41-10.66,21.41-19.49a21.76,21.76,0,0,0,3-14.09c-1.21-7.82-5.73-13.9-12.33-18a58,58,0,0,0-24-8.16,21.56,21.56,0,0,0-10-.89c-11.53,1.19-22.35,4.85-32.68,9.93a62.51,62.51,0,0,0-14.75,10c-13,11.85-20.69,27-27.35,42.86C850.5,75,849.48,75.67,848.68,73.86Z"/><path class="cls-3" d="M1125.93,406.15a30.7,30.7,0,0,1-8.53,8.77c-10.27,7-21.11,12.8-33.3,15.56-8.44,1.91-17,3.56-25.69,1.24-7.65,1.07-14.14-1.82-20.2-6-4-2.75-4.89-5.86-3-10.32a20.73,20.73,0,0,1,7.67-9.46c5-3.2,9.93-6.49,15.15-9.36,10.25-5.62,21.42-6.65,32.74-6.9,3.58-.08,7.32-.89,10.77.93,7.84-.53,15.08,1.57,21.85,5.3C1128.07,398.45,1128.81,401.72,1125.93,406.15Z"/><path class="cls-4" d="M1053.47,433.76a1.93,1.93,0,0,1,2.08-1.67c8.3-.4,16-2.8,23.65-5.76a61.22,61.22,0,0,0,21.74-14.2c6.74-6.85,6.62-11.81,1.21-17.65-1-1-2.87-5.18-2.68-6.54,8.61-.54,17.94,4.72,25.38,8.6,5.1,2.66,5.91,6.06,2.75,10.66a32.79,32.79,0,0,1-9.36,9.11c-11.28,7.26-23.18,13.3-36.56,16.16C1072.4,434.46,1063,436.18,1053.47,433.76Z"/><path class="cls-5" d="M1068,437.54c-9.74,0-19.22-1.21-27.84-6.23-1-.62-2.14-1.18-3.17-1.83-8.09-5.06-8.08-13-3.36-18.92,10.58-13.25,23.9-22.64,41.07-25.41a109.72,109.72,0,0,1,38.29,1,40.88,40.88,0,0,1,14,5.57c7.28,4.56,8.63,11.42,3.67,18.36a40.14,40.14,0,0,1-10.93,10.28c-10.69,7-22,12.54-34.45,15.56A63.53,63.53,0,0,1,1068,437.54Zm-9.69-4.86c12.82,1.18,25.77-1.26,37.66-6.07,11-4.42,25.56-11.16,30.87-22.41a6.27,6.27,0,0,0,.79-3.76c-.34-1.76-1.9-3-3.43-3.9a41.49,41.49,0,0,0-8.85-3.79,79.6,79.6,0,0,0-73.88,14.58,23.74,23.74,0,0,0-5.38,5.85,10,10,0,0,0-1.34,7.65c.79,2.86,3.16,5,5.67,6.57,4.87,3,10.59,4.45,16.28,5.11Z"/><path class="cls-1" d="M466.39,316.82a3.14,3.14,0,0,1,1.68-1c2.29-.63,5.24,1.85,7.07,2.85a195.12,195.12,0,0,0,19,9.09A308.1,308.1,0,0,0,534.64,341a322.88,322.88,0,0,0,50.86,9.13c48.3,4.63,97.23,2.47,145.18-4.77,14.67-2.22,29.2-4.83,43.69-8.1,22.92-5.19,45.39-12.39,67.48-20.37.94-.34,6.29-1.55,6.29-2.83.46-1.4-2.51-1.26-3.51-1.35a102.87,102.87,0,0,1-16.43-2.85c-2.15-.56-4.94-1.63-4.52-4.37.31-2,1.92-2.86,5.2-2.51s6.23,1,9.36,1.31c10.38,1.12,20.74,3,31.22.78a6.56,6.56,0,0,1,3.93.32c5.31,2.25,1.58,7.73.46,11.51-2.32,7.91-4,15.86-7.37,23.38a96.67,96.67,0,0,1-5.91,11.1c-2,3.15-4.14,7.5-7,9.93a2,2,0,0,1-1.69.51c-2.43-.56-1.09-4.1-.46-5.47,1.59-2.39,2.55-5.56,3.74-8.17s2.6-5.41,3.73-8.18a99.81,99.81,0,0,0,3.23-9.53c.82-2.86,2.21-6.16,2.48-9.11.24-2.69-1.67-2.33-3.43-1.56a445.31,445.31,0,0,1-48.84,17.43c-46,13.93-93.22,21.47-141.16,23.79-16.46.79-32.86.8-49.33.29-45.87-1.44-91.37-9-133.24-28.41-3.34-1.56-6.52-3.32-9.79-5-3.74-1.92-9.63-4.92-12.25-8.29A2.13,2.13,0,0,1,466.39,316.82Z"/><path class="cls-2" d="M1114.42,316c-14.88-.35-30.22-4.74-43.77-8.47-8.62-2.38-16-6.48-21.06-14.17-12.27-18.77-.77-41.15,16.45-52a39.18,39.18,0,0,1,17.31-5.42c4.89-.45,9.26,1.4,13.35,3.91a7.5,7.5,0,0,1,2.92,3.27c1.2,2.67,3.2,3.52,6,3.72a117.39,117.39,0,0,1,22.59,4.12c12.32,3.36,24,11.6,27.32,24.48,3.09,12.09-2,27.13-12.57,34C1134.77,314.82,1124,316.22,1114.42,316Zm-3.55-7c3.71-.18,7.42-.06,11.15-.42a60.11,60.11,0,0,0,14-3.24,18.32,18.32,0,0,0,7-4.22,27.5,27.5,0,0,0,8.13-15.95c.5-3.25,1-6.58.1-9.88-.56-2-.81-4.17-2.14-5.76a43.64,43.64,0,0,0-6.72-6.59c-5.29-4.1-11.56-5.68-17.91-7.06-3.34-.73-6.75-1-10.15-1.45-4.85-.59-9.69-1.24-14.57-1.49-2.85-.15-5.71,0-8.56,0a24.71,24.71,0,0,0-7.55,1,56.82,56.82,0,0,1-6.6,1.37c-1,.16-2.07.13-2.42-1.12a1.84,1.84,0,0,1,1.24-2.12c3.15-1.6,6.16-3.51,9.65-4.36a39.26,39.26,0,0,1,11.06-1.23c.47,0,1,.07,1.23-.53a1.06,1.06,0,0,0-.62-1.21c-1.71-1-3.45-1.88-5.2-2.78-3.88-2-8.1-1.91-12.08-1a37.11,37.11,0,0,0-13.15,6.45,44.15,44.15,0,0,0-8.53,8.47c-3.35,4.2-6,8.66-7.06,14-.38,1.87.07,3.78-.46,5.55-.83,2.74,0,5.24.79,7.73,1.69,5.5,5.14,9.88,9.31,13.72a19.7,19.7,0,0,0,10.62,5.21,130.54,130.54,0,0,1,15.48,3.35C1094.7,307.59,1102.58,309.7,1110.87,309Z"/><path class="cls-1" d="M1110.87,309c-8.29.73-16.17-1.38-24-3.61a130.54,130.54,0,0,0-15.48-3.35,19.7,19.7,0,0,1-10.62-5.21c-4.17-3.84-7.62-8.22-9.31-13.72-.76-2.49-1.62-5-.79-7.73.53-1.77.08-3.68.46-5.55,1.07-5.36,3.71-9.82,7.06-14a44.15,44.15,0,0,1,8.53-8.47,37.11,37.11,0,0,1,13.15-6.45c4-.92,8.2-1,12.08,1,1.75.9,3.49,1.81,5.2,2.78a1.06,1.06,0,0,1,.62,1.21c-.18.6-.76.55-1.23.53a39.26,39.26,0,0,0-11.06,1.23c-3.49.85-6.5,2.76-9.65,4.36a1.84,1.84,0,0,0-1.24,2.12c.35,1.25,1.46,1.28,2.42,1.12a56.82,56.82,0,0,0,6.6-1.37,24.71,24.71,0,0,1,7.55-1c2.85.07,5.71-.1,8.56,0,4.88.25,9.72.9,14.57,1.49,3.4.42,6.81.72,10.15,1.45,6.35,1.38,12.62,3,17.91,7.06a43.64,43.64,0,0,1,6.72,6.59c1.33,1.59,1.58,3.78,2.14,5.76.92,3.3.4,6.63-.1,9.88a27.5,27.5,0,0,1-8.13,15.95,18.32,18.32,0,0,1-7,4.22,60.11,60.11,0,0,1-14,3.24C1118.29,308.91,1114.58,308.79,1110.87,309Z"/><path class="cls-5" d="M1292.52,536.16c.11-1.5-.92-2-1.68-2.53-9-6.69-17.66-13.8-27.9-18.59-1.39-.65-3.36-1.35-2.53-3.39.76-1.86,2.72-1.33,4.26-1,4.78,1,9,3.24,13.08,5.81,11.08,7,21.34,15.13,31.56,23.31a14.92,14.92,0,0,1,1.56,1.52c2.72,2.9,2.84,5,0,7.91-2.67,2.66-5.6,5.07-8.51,7.47-4.4,3.62-9.36,6.39-14.25,9.27-4.11,2.42-8.68,3.22-13.24,4.17-1.51.32-3.12.37-3.77-1.25s.63-2.69,1.88-3.52c6.4-4.28,12.8-8.57,19.25-12.78a94,94,0,0,0,8.71-6.23c-1.94-1.39-3.72-.95-5.33-1-32.86-.91-192.73-.95-225.6-.58-31.56.36-63.12.63-94.67,1-22.54.25-45.09.47-67.63.85-29.08.5-58.16,1-87.23,1.76q-42.09,1.1-84.19,1.73-48.19.76-96.4,1.74c-28.93.54-57.87,1-86.8,1.72-32.85.78-65.7,1.73-98.56,2.64-18.75.52-37.5,1.05-56.25,1.69-33.71,1.15-67.43,2.25-101.14,3.61-37.19,1.5-74.35,3.8-111.56,5-15.84.5-31.7.58-47.54,1.09-26.89.87-53.77,2-80.65,2.89-13.43.44-26.87.93-40.3.11a36.89,36.89,0,0,1-7.54-1.18c-1.17-.33-2.24-.93-2-2.49.28-1.93,2.23-1.47,3.61-1.45,10.48.16,20.93-.4,31.39-1,22-1.35,44.11-2.76,66.18-4,11.76-.64,23.53-1,35.31-1.33q56.25-1.54,112.43-5c27.58-1.67,55.17-3,82.79-3.85,25.14-.76,50.28-1.73,75.42-2.57,26.89-.9,53.78-1.72,80.67-2.63,23-.79,45.93-1.3,68.9-1.78q55-1.16,109.93-1.75,27.93-.33,55.84-.86c26.61-.53,53.21-1.06,79.82-1.79,32.13-.87,64.26-1.58,96.4-1.73,74.32-.34,275.64-1,350-.85,10.76,0,21.52.22,32.28.3C1289.81,536.53,1291.27,536.88,1292.52,536.16Z"/><path class="cls-5" d="M1257.52,610c0-.94.07-1.87.16-2.81.15-1.56.84-4-.77-5-3-2-13.58,7-15.38,3.63a1.8,1.8,0,0,1,.41-2,8.15,8.15,0,0,1,2.77-2.09,33.81,33.81,0,0,1,9.66-3.93c4.62-.9,3.91-5.49,4.56-9.06a17.43,17.43,0,0,1,.9-3.35,2.74,2.74,0,0,1,3.1-1.89A2.62,2.62,0,0,1,1265,586a30,30,0,0,1,0,3.91c-.19,5.49-.21,5.45,5,4.82a53.59,53.59,0,0,1,6.08-.31c.94,0,2.31-.18,2.35,1.25,0,1-1.11,1.21-2,1.38-2.84.6-5.7,1.13-8.54,1.73-3.48.73-3.51.76-3.62,4.22a74.16,74.16,0,0,0,.54,13.49,16.87,16.87,0,0,0,.73,3.4c1,2.68,2.32,3.35,5.07,2.45,3.88-1.27,7.38-3.37,11-5.27,2.31-1.22,4.6-2.48,7-3.57,1.12-.5,2.74-1.42,3.54,0s-.58,2.63-1.77,3.5-2.62,1.84-3.91,2.77c-2.94,2.13-5.87,4.27-8.82,6.39-1.06.76-2.13,1.52-3.26,2.17-4.24,2.44-9.54,2.9-13-1.11-3-3.52-3.76-8.52-3.92-13C1257.52,612.81,1257.49,611.39,1257.52,610Z"/><path class="cls-7" d="M1033.91,275.75l-1.14-1.18c-2.07-4.07-4.5-8-6.15-12.24-4-10.34-12.11-16.73-20.78-22.78-5.89-4.11-12.53-6.24-19.17-8.53-5.44-1.87-10.79-3.3-16.71-2-11.64,2.58-19.63-2.47-23.45-13.9-1.66-5-1.15-10.06-2-15a11.21,11.21,0,0,1,.22-2.57c.07-.81.14-1.63.16-2.45.06-1.66-.14-3.38.47-5,1-2.59,1.62-5.3,2.53-7.93a90.71,90.71,0,0,1,3.67-9,63.13,63.13,0,0,1,10.5-15.75A53.1,53.1,0,0,1,974,147.82c19-11.25,37.37-8,47.58,14.07q5.76,12.53,11.19,25.2c1.4,3.27,3.84,5.66,6.07,8.25,4.05,4,8,8.38,13.59,10.12,10.28,3.17,20.39,5.81,29.18,13.17,9.58,8,10.81,17.69,9.57,28.44-.88,7.61-5,14.3-9.41,20.38-6.87,9.43-16.41,14.26-28.28,14.3C1046.29,281.78,1040.48,277.6,1033.91,275.75Zm11-68.87c.25,4.08,2.18,5.82,3.51,7.79,3.48,5.16,7.23,10.14,10.78,15.26.69,1,1.7,2.29.29,3.51a3,3,0,0,1-4.06,0,29.35,29.35,0,0,1-2.51-2.36c-12.86-12.31-20.81-27.79-27.86-43.75-3.92-8.88-7.43-18-13-26-4.6-6.61-9.87-13-19.64-11.11-5.67,1.11-10.08,4.18-14.48,7.77-16.58,13.47-23,31.33-23.13,52,0,4.6,2.19,7.9,6.37,10.28,6.7,3.79,14.1,4,21.36,5,14.32,2.07,27,7.11,37.3,17.94,7.28,7.66,13,16.44,19.84,24.4,7.21,8.44,16.47,11.52,26.21,6.49a38.22,38.22,0,0,0,15.43-14.72c3.88-6.39,6.23-13.5,5.34-21-1.17-9.81-8.09-15.6-16.31-19.35S1053,213.36,1044.87,206.88Z"/><path class="cls-8" d="M1033.91,275.75c6.57,1.85,12.38,6,19.57,6,11.87,0,21.41-4.87,28.28-14.3,4.42-6.08,8.53-12.77,9.41-20.38,1.24-10.75,0-20.42-9.57-28.44-8.79-7.36-18.9-10-29.18-13.17-5.64-1.74-9.54-6.09-13.59-10.12,10.14,7.28,21.93,10.75,33.49,14.88,6.19,2.22,11.35,6.65,15.87,11.45,8.18,8.67,9.58,19,6.88,30.3-4.37,18.25-21.08,33.11-38.37,33.93C1047.41,286.34,1039.69,283.22,1033.91,275.75Z"/><path class="cls-8" d="M944.53,200.08c.83,5,.32,10.09,2,15,3.82,11.43,11.81,16.48,23.45,13.9,5.92-1.31,11.27.12,16.71,2,6.64,2.29,13.28,4.42,19.17,8.53,8.67,6,16.76,12.44,20.78,22.78,1.65,4.24,4.08,8.17,6.15,12.24-5.12-4.45-8.43-10.4-12.5-15.68-11.37-14.71-26-22.67-44.52-23.86-3.89-.25-7.75-1.39-11.57-2.3C948.07,228.92,942.22,217.7,944.53,200.08Z"/><path class="cls-8" d="M1044.87,206.88c8.09,6.48,17.19,8.42,25.47,12.19s15.14,9.54,16.31,19.35c.89,7.54-1.46,14.65-5.34,21a38.22,38.22,0,0,1-15.43,14.72c-9.74,5-19,1.95-26.21-6.49-6.8-8-12.56-16.74-19.84-24.4-10.3-10.83-23-15.87-37.3-17.94-7.26-1-14.66-1.26-21.36-5-4.18-2.38-6.4-5.68-6.37-10.28.14-20.67,6.55-38.53,23.13-52,4.4-3.59,8.81-6.66,14.48-7.77,9.77-1.92,15,4.5,19.64,11.11,5.54,8,9.05,17.08,13,26,7,16,15,31.44,27.86,43.75a29.35,29.35,0,0,0,2.51,2.36,3,3,0,0,0,4.06,0c1.41-1.22.4-2.52-.29-3.51-3.55-5.12-7.3-10.1-10.78-15.26C1047.05,212.7,1045.12,211,1044.87,206.88Z"/></g></g></svg>