<svg xmlns="http://www.w3.org/2000/svg" viewBox="0 0 1449.48 729.31"><defs><style>.cls-1{fill:#023d53;}.cls-2{fill:#032c3b;}.cls-3{fill:#e4e4e4;}.cls-4{fill:#ccc;}.cls-5{fill:#aaa9a9;}.cls-6{fill:#7f7f7f;}.cls-7{fill:#009ddb;}.cls-8{fill:#00b3ea;}</style></defs><title>slide_11</title><g id="Layer_2" data-name="Layer 2"><g id="Layer_1-2" data-name="Layer 1"><path class="cls-1" d="M323.1,348.88c10.48-7.37,25.36-9.13,36.16-2.23,3.75,2.39,6.85,5.66,9.9,8.9L384.74,372c4.67,4.94,9.42,10,12.17,16.22a30,30,0,0,1-32.09,41.79c-9.81-1.54-18.19-7.78-27.59-11-6.87-2.33-14.28-3-20.86-6.06C288.53,400.14,303.61,362.59,323.1,348.88Z"/><path class="cls-2" d="M403.56,406.21c-1.22,4.23-2.45,7.18-4.54,9.51-10.52,11.75-23.27,18.33-39.47,16-8.92-1.27-15.69-6.8-22.18-12.43a10.19,10.19,0,0,0-6.58-2.91,43.22,43.22,0,0,1-26.13-10.47c-8.6-7.18-9.68-19.57-6.79-27.32,5.28-14.17,12.83-26.77,26.47-34.65,11.07-6.4,22.27-8.06,33.74-1,5.72,3.53,10.47,8.17,15.05,13,8.48,8.92,17.23,17.58,25.71,26.5,4.91,5.16,7.1,10.55,5.72,17.47C404.07,402.4,403.76,404.92,403.56,406.21Zm-56.23,11.17-.39,1.25a34.68,34.68,0,0,0,19.83,6.55c8.4.23,15.43-3.65,21.57-9.15,5.35-4.79,7.8-10.73,8.43-18,.37-4.27-.61-7.06-3.36-9.89-4.62-4.76-9-9.77-13.64-14.48-7.28-7.35-14.58-14.7-22.18-21.73-4.81-4.46-12.09-7.94-18.77-6.29a47.87,47.87,0,0,0-23.51,14.45c-5.37,6-7.86,11.57-10.81,19-1.82,4.58.09,12.67,2.85,17,4.13,6.47,10.9,9.79,17.84,11.35a188.64,188.64,0,0,0,35.27,4.05,16.1,16.1,0,0,1,5.14,1,2.67,2.67,0,0,1,2,2.56c0,1.38-1.26,1.84-2.31,2.35s-2.29.16-3.45.14C357,417.37,352.18,417.4,347.33,417.38Z"/><path class="cls-3" d="M1219.94,167.85c.61-6.52.61-12.6.64-18.68a59.53,59.53,0,0,1,.35-6.4,2.77,2.77,0,0,1,2.56-2.78c1.68-.14,2.46,1,3,2.35a29.39,29.39,0,0,1,1.68,8.06,170.43,170.43,0,0,1,.35,30.22c-.78,8.87-1.65,11.77-12,11.22-4.76-.25-9.45.51-14.17.95a29.15,29.15,0,0,1-6.86-.07c-4.48-.65-6.81-2.4-7.08-5.3s1.73-5.11,5.91-6.67c3.19-1.19,6.6-1.21,9.9-1.83,1.52-.29,3.83.67,4.38-1.3.49-1.74-1.61-2.76-2.73-3.91A169.88,169.88,0,0,0,1187,157c-14.48-11.08-29.57-21.21-45.9-29.4-3.83-1.91-7.54-4.06-11.24-6.21-1.82-1.06-3.16-2.62-2.36-4.92s2.7-2.78,4.85-2.48c2,.28,3.93.61,5.85,1.08a88.48,88.48,0,0,1,19.16,7.54,246.18,246.18,0,0,1,58.6,42.2C1217,165.82,1217.85,167.17,1219.94,167.85Z"/><path class="cls-3" d="M149.7,277.34a28,28,0,0,1-11.45,10.25,83.51,83.51,0,0,1-17.15,6.28c-3.24.84-6.55,1.53-9.68,2.67-5.23,1.9-10.7,2.31-16.11,3.08A162.06,162.06,0,0,1,73,300.75a69.67,69.67,0,0,1-29.31-5.95,46.66,46.66,0,0,1-9.36-5.68,4.72,4.72,0,0,1-2.2-3.82c-3-1.22-4.26-4.14-5.11-6.74-2.4-7.28-3.81-14.81-2.14-22.51a27,27,0,0,1,9.29-15A17.94,17.94,0,0,1,49,236.76a55.13,55.13,0,0,1,10.23,2.49c1.38.5,3,.83,2.74,3-.13,1.34,1.14,1.39,2,1,2.66-1.18,4.63.13,6.78,1.42,5.37,3.22,10.74,6.44,15.84,10.08,1,.73,2,2,3.62,1.31.53-1.38-.59-2-1.27-2.68a57.07,57.07,0,0,0-12.12-9.72c-.9-.53-1.55-.94-1.26-2s1.2-.84,1.9-.85c9.93-.18,19.87-1.91,29.78-.89,11.6,1.19,22.94,3.71,33,10.15,1.41.91,3,1.57,3.49,3.42C151.1,258.09,154.16,270.16,149.7,277.34Z"/><path class="cls-4" d="M33.08,286.3a5.94,5.94,0,0,1,3.59,0c10,2.11,20.1,3.1,30.38,1.75,5.27-.69,10.63-.44,16-1a198.64,198.64,0,0,0,35.4-6.61,74,74,0,0,0,12-4.36c7.14-3.47,11.24-9.13,13.05-16.68.39-1.63.83-3.24,1.25-4.87,7.38,4.55,10.44,16.62,6,23.8a28.14,28.14,0,0,1-11.45,10.26,84.5,84.5,0,0,1-17.15,6.27c-3.24.84-6.55,1.53-9.69,2.67-5.22,1.9-10.69,2.32-16.1,3.08A163.65,163.65,0,0,1,74,301.76a69.91,69.91,0,0,1-29.32-6,46.4,46.4,0,0,1-9.35-5.68A4.72,4.72,0,0,1,33.08,286.3Z"/><path class="cls-5" d="M71.56,307.35a71.44,71.44,0,0,1-32.25-7.85c-11.59-6.16-18.76-15.17-20-28.65-.65-7.06-1.51-14.07,1.2-20.81,4.31-10.73,11.3-18.59,23.61-19.62a30.21,30.21,0,0,1,17.23,3.88,23.08,23.08,0,0,0,17.36,2.48,101.86,101.86,0,0,1,21.86-2c15.5,0,30.3,3.39,43.87,11.24,8.17,4.73,12.12,12.26,13.74,21.18A17.93,17.93,0,0,1,155,281.11a38.2,38.2,0,0,1-15.12,13C123.26,301.82,95.38,307.73,71.56,307.35Zm-40-21.63A33,33,0,0,0,44,295.41c5.85,2.6,12.23,3.78,18.6,4.5,20.25,2.3,39-1,58.48-6a84.5,84.5,0,0,0,17.15-6.27,28.14,28.14,0,0,0,11.45-10.26c3.83-6.17,2.1-14.78-2.17-20.26a41,41,0,0,0-4.17-4.37c-9.26-8.78-23.9-11.48-36.14-12.74-9.9-1-19.84.71-29.77.89-.71,0-1.65-.1-1.91.85s.37,1.47,1.27,2a57.63,57.63,0,0,1,12.12,9.72c.68.7,1.79,1.3,1.27,2.68-1.6.66-2.6-.58-3.62-1.31-5.08-3.62-10.7-7.91-16.35-10.56a10.75,10.75,0,0,0-6.48-1,1.76,1.76,0,0,1-1.34-.08c-.4-.3-.4-.89-.49-1.38a4.43,4.43,0,0,0-3.18-3,60.46,60.46,0,0,0-9.7-2,17.85,17.85,0,0,0-14.92,4.34,27,27,0,0,0-9.29,14.94A35.73,35.73,0,0,0,31.54,285.72Z"/><path class="cls-3" d="M6.8,425.58C7,433.42,9,440.92,11.41,448.33a3.77,3.77,0,0,1-.09,1.32C6.83,441.55,3,433.21,1.54,424c2,1.35,1.74,4,3.36,5.76.78-1.23,0-2.47.4-3.56Z"/><path class="cls-3" d="M218.17,381.64c-1.75,10.65-6,20.57-13.82,28.37a174.85,174.85,0,0,1-34.71,26.6A67.68,67.68,0,0,1,154,442.93c-7,2-13.94,4.36-21.14,5.67-4,.73-8.09,1.52-12.18.32a6.48,6.48,0,0,1-3.6.2,174.74,174.74,0,0,1-20.17-6c-2.86-1-2.84-1.26-1.18-3.87,1.82-2.82,3.69-5.6,5.52-8.42A53.34,53.34,0,0,0,109.56,405c.37-5.47.43-11,.38-16.47,0-2.35.55-3.42,3-4.07,19-5.07,35.58-14.26,49.47-28.21.75-.76,1.54-1.5,2.24-2.31a2.25,2.25,0,0,1,3.24-.42,9.55,9.55,0,0,1,2.51,2,13.12,13.12,0,0,0,9.35,5.06c2.55-1.06,5.14-.59,7.67,0,6.4,1.38,12.78,2.87,19.16,4.34a15.42,15.42,0,0,1,2.15.79C217.39,369.09,219.49,373.6,218.17,381.64Z"/><path class="cls-3" d="M66.16,340.47c-.53-.81,0-1.49.32-2.11,11-19,25.37-34.7,44.77-45.51a133.68,133.68,0,0,1,15.17-7.52c7-2.81,14.06-3.94,21.45-2,9.81.51,15.59,5.38,18.47,15.89a68.63,68.63,0,0,1,1.61,31.6c-.86,4.37-2.82,8.35-4.69,12.34a3.9,3.9,0,0,1-4.39,2.4c-3.91-.38-6.71,1.63-10.65,1.46-4.73,1.79-11.06,2-15.89,3.54-8,2.55-15,4.82-21.66,9.68-1.24.89-2.44,1.86-3.7,2.71-2.72,1.83-2.8,1.85-4.6-.93-7.86-12-19.27-18.38-33.15-20.82C68.2,341,67.07,341.21,66.16,340.47Z"/><path class="cls-3" d="M142.18,350.66c5.1-.56,9.58-.85,14.78.1a7,7,0,0,1-2.74,3.65c-5.94,5.19-12.07,10-19.23,13.6-4.2,2.06-8.52,7.69-13.18,8.77-1.36,3.3,1.83-.72,1.84-.79-.07.14-5.58,2.38-5.51,2.36-3.47,1.59-2.78-1.23-6.54-.36-1.72.4-2.45.07-2.85-1.73-1.74-7.68-1.74-7.6,4.65-12.34A78.94,78.94,0,0,1,142.18,350.66Z"/><path class="cls-3" d="M80.56,422.71c.67,6.31.72,10.94,4.65,16.09,1.4,1.81,1.29,3.39-.25,5.29a62.17,62.17,0,0,1-27.15,19.5c-5.29,2-11,2.53-16.64,2.72a3.3,3.3,0,0,1-2.56-.77c-6.08,1.07-10.43-2.51-14-6.3-10.54-11.18-14.8-24.64-12.57-40,1.42-9.65,5.4-18.39,9.89-26.94,1.57-3,3.18-5.91,4.71-8.9a11.09,11.09,0,0,0,1.73-4.9A4.57,4.57,0,0,0,25.08,381C16.72,393.25,8.81,405.75,7.14,421c-.17,1.51-.23,3-.34,4.55l-1.5.57c-.57-3.3-1.12-6.6-1.75-9.89-.44-2.32.72-4.43.86-6.7a49.57,49.57,0,0,1,4.32-17.24,122.73,122.73,0,0,1,11.92-21.63c8.37-11.67,19.71-18.9,33.7-22,.1,0,.23.14.72.43.71,8.07,2,13.4,6,19.22,5.45,7.78,12,14.23,21.33,17.28,1.9.62,6.48,1.46,5.48,3.5a74.79,74.79,0,0,0-7.5,28.22C81.29,418.37,80.43,421.52,80.56,422.71Z"/><path class="cls-3" d="M94.84,430.3c-1.27,1.71-2.3,3.59-3.57,5.3-.74,1-1.23,2.88-2.89,2.34a5.63,5.63,0,0,1-4-4.17,59.44,59.44,0,0,1-1.84-16.12,86.45,86.45,0,0,1,3-21.2c.76-2.86,3-4.84,3.9-7.67.37-1.22,2.12-1.59,3.56-1.65,2.88-.13,5.78-.14,8.65-.44,2.14-.23,3.31.43,3.25,2.61C104.48,403.68,104,418,94.84,430.3Z"/><path class="cls-3" d="M57.48,358.62c-1.55-2.64-2.1-7.12.53-8.93.12-2.54,4-2.71,6.32-2.56a43.41,43.41,0,0,1,23.33,8.18A47.28,47.28,0,0,1,98.76,366c1.3,1.84,1,2.93-.4,4.26-2.77,2.6-5.61,5.13-7.62,8.41a3,3,0,0,1-3.47,1.52c-1.89-.47-4-.24-5.68-1.42C71.47,374.25,63,368,57.48,358.62Z"/><path class="cls-3" d="M104.55,374.2a16.9,16.9,0,0,1,.1,4.09c0,1.12-.65,1.58-1.76,1.62-2.26.09-4.49.78-7.16.26,1.75-3,4.16-4.68,6.12-6.78C103,372.13,104.22,372.71,104.55,374.2Z"/><path class="cls-3" d="M454.27,138.26c10.82,10.57,14.15,23.39,10.92,38.13-1.8,8.21-3.44,16.44-6.94,24.15-.59,1.33-.66,3-2.27,3.79-1.64-.73-.86-2.14-.83-3.19.18-9.25-2.65-17.72-6.5-25.95a5,5,0,0,0-1-1.48c-.42-.37-1-.79-1.63-.29a1.14,1.14,0,0,0-.36,1.22c.78,3.41,1.6,6.81,2.29,10.24,2.2,11,2.48,21.83-2.65,32.23-4.08,8.25-10.23,14.75-17.37,20.38a162.53,162.53,0,0,1-37.66,22.24c-10.28,4.32-20.42,9-31.14,12.13-6,1.75-11.85,4-18.08,4.76-3.6.45-7.24,1.06-10.77-.45-6.31.58-11.5-2.45-16.77-5.21-1.75-.9-1.26-2.2-.42-3.45a50.06,50.06,0,0,0,4.75-9.9c5.31-13.62,4.73-27.38-.35-40.77-3.63-9.57-11.46-14.73-21.48-16.65-2-.39-4.81.53-5.83-1.58-.84-1.72,1-3.69,1.58-5.54,3-9.07,5.48-18.19,3.38-27.86a5.29,5.29,0,0,1,1.17-4.65c10.78-14.24,22.81-27.88,36.85-38.82,2.73-2.13,12.73-8.06,14.12-9,16.48-11.76,30.41-8.27,35.69-9.75s26.4,9.74,28.33,8.84c5.11-.31,10.18,4.65,14.52,6.74A107.21,107.21,0,0,1,454.27,138.26Z"/><path class="cls-3" d="M274.16,196.89c-.14,1.7-.39,3-2.57,2.82s-4.37,1.24-6.69.78c-7.14,2.69-14.21,5.57-21.07,8.93-1.34.66-2.65,3.5-4.27,2.77-.75-.34-6.14,1.47-6.83,1.83-7.59,3.94-11.38,2.58-18.77,7.07a144.63,144.63,0,0,0-25.12,19.08c-3.23,3.12-3.85,3.27-6.14-.57-5.87-9.88-11-20.1-11.72-31.93a45.59,45.59,0,0,1,2.62-17.57,14,14,0,0,1,5.07-6.89c4.42-3.28,8.72-6.72,13.18-9.93,7.33-5.28,13.61-11.82,20.9-17.16,9.24-6.75,19.15-12,30.41-14.43a36.33,36.33,0,0,1,21.62,1.49c5.8,2.32,12,3.86,16.66,8.37.43.42.78.92,1.17,1.37,1.73.89,2.51,2.65,3.42,4.14,1.82,2.95,2.31,5.52-.26,9A60.36,60.36,0,0,0,274.16,196.89Z"/><path class="cls-3" d="M303.79,268.86c.93,1,.45,1.95-.26,2.86A77.77,77.77,0,0,1,284,290.08a85.08,85.08,0,0,1-18.1,8.68c-7.57,2.6-15.15,5.33-23.41,5.56a56.23,56.23,0,0,1,7.44-4.39c8.56-4.57,15.77-10.87,22.94-17.2C278,278.19,283,273.49,288,268.85a14.09,14.09,0,0,0,2-1.9c.6-.82,1.47-1.85.56-2.84-.72-.8-1.68.1-2.53.25-.29.07-.6.12-.89.17-4.74,4.57-9.9,8.63-15,12.81-8.31,6.85-16.82,13.33-26.33,18.52-8.9,4.85-18.53,6.95-28.27,8.88-9.28,1.82-18.24.17-27-2.71-7.5-2.44-11.6-7.82-13.62-15.34-3.4-12.68-.61-23.83,7.46-33.93,1.45-1.79,5.65-6.53,7.91-8.83a129.14,129.14,0,0,1,24.91-19.2c5.1-3.13,10.62-5.33,16-7.88a7.28,7.28,0,0,1,2.58-.92c7.57-.25,16.55-19,23.24-21.85,4.79-1.44,16.09,6.58,21.14,6.18,1.39-.11-1,18.83,2.62,16.28,1.51,1.12,4.87,26.05,10.87,35.67a5.82,5.82,0,0,1,.42,1.3C298,258.14,299.54,264.37,303.79,268.86Z"/><path class="cls-3" d="M315,231.06c-.75-5.9-1.94-11.68-5.7-16.56-5.1-7.53-13-9-21.22-9.76a2.18,2.18,0,0,0-1.28.4c-1.91,1.28-4,7.08-3.28,9.36a180.42,180.42,0,0,0,13.22,32.15l.08-.07s-.07.09-.08.07c2.11,5.73,5.95,10.62,8,16.38a4.09,4.09,0,0,0,.7,1.17c1.52,2,2.27,1.93,3.62-.16C315.54,253.87,316.44,242.67,315,231.06Zm-6.29-16.32a3.48,3.48,0,0,0-1.61,2.53A2.77,2.77,0,0,1,308.66,214.74Zm-1.81,8.61c.21-1.56-.18-4,.19-6a20.45,20.45,0,0,0,0,2.07c.07,2.75.19,5.49-.91,8.11-.23.55-.46,1.12-.68,1.68A32.94,32.94,0,0,0,306.85,223.35Zm-10.06,23.22c.54-.67,3.14-5,3.38-5.49.35-.77.73-1.52,1.11-2.27C300,241.52,299.21,244.53,296.79,246.57Zm4.88-8.53c.63-1.22,1.26-2.44,1.82-3.71a31.1,31.1,0,0,1-1.61,3.34Z"/><path class="cls-3" d="M288.61,172.19l.34.13a7.82,7.82,0,0,1,.55,4.44c-.83,6.55-3,12.74-5,19a12.49,12.49,0,0,1-.72,1.68c-.59,1.21-1.54,2-2.91,1.61s-1-1.69-1-2.73a22.11,22.11,0,0,1,1.3-7.17C283,183.2,284.31,177,288.61,172.19Z"/><path class="cls-3" d="M300.17,241.08c.35-.77.73-1.52,1.11-2.27-1.28,2.71-2.07,5.72-4.49,7.76C297.33,245.9,299.93,241.6,300.17,241.08Z"/><path class="cls-3" d="M301.67,238c.63-1.22,1.26-2.44,1.82-3.71a31.1,31.1,0,0,1-1.61,3.34Z"/><path class="cls-3" d="M306.85,223.35c.21-1.56-.18-4,.19-6a20.45,20.45,0,0,0,0,2.07c.07,2.75.19,5.49-.91,8.11-.23.55-.46,1.12-.68,1.68A32.94,32.94,0,0,0,306.85,223.35Z"/><path class="cls-3" d="M212.41,312.07c-4.42,13.68-24.23,31-39.75,29.05,1.57-3.84,2.13-7.9,3.28-11.8a94.16,94.16,0,0,0-1.88-29.71c-.23-1-.53-2.05-.8-3.07l.86-.45c4,7.49,10.89,11,18.66,13.14,1.53.43,3.42.15,4.28,2a2.45,2.45,0,0,1,2.15-.49C203.55,311.65,208,311.68,212.41,312.07Z"/><path class="cls-3" d="M148.19,276.22a49.82,49.82,0,0,1,23.43-11.5c-2.53,8.71-1.79,16.94.36,25.11l-1.21.71C166.27,281.7,158.42,277.92,148.19,276.22Z"/><path class="cls-3" d="M300.17,241.08c.35-.77.73-1.52,1.11-2.27-1.28,2.71-2.07,5.72-4.49,7.76C297.33,245.9,299.93,241.6,300.17,241.08Z"/><path class="cls-3" d="M301.67,238c.63-1.22,1.26-2.44,1.82-3.71a31.1,31.1,0,0,1-1.61,3.34Z"/><path class="cls-3" d="M306.85,223.35c.21-1.56-.18-4,.19-6a20.45,20.45,0,0,0,0,2.07c.07,2.75.19,5.49-.91,8.11-.23.55-.46,1.12-.68,1.68A32.94,32.94,0,0,0,306.85,223.35Z"/><path class="cls-3" d="M122.27,373.65a.79.79,0,0,0,0,.22C122.19,373.89,122.2,373.79,122.27,373.65Z"/><path class="cls-3" d="M122.27,373.65a.79.79,0,0,0,0,.22C122.19,373.89,122.2,373.79,122.27,373.65Z"/><path class="cls-3" d="M172,289.83q1.07,3.14,2.14,6.26l-.86.45c-.83-2-1.67-4-2.49-6Z"/><path class="cls-6" d="M216.91,314.05c-.27-1-2.26-2.31.44-2.87C217.23,312.14,217.54,313.17,216.91,314.05Z"/><path class="cls-6" d="M288.61,172.19l.4-.53-.06.67Z"/><path class="cls-4" d="M8.12,426.11c.23,7.84,2.18,15.34,4.6,22.74a3.54,3.54,0,0,1-.09,1.32c-4.49-8.1-8.33-16.44-9.79-25.69,2,1.35,1.75,4,3.38,5.76.77-1.23,0-2.47.4-3.56Z"/><path class="cls-4" d="M328.74,277.77c1-2.13,3.21-2.26,5.07-2.74a116.66,116.66,0,0,0,15.35-5,124,124,0,0,0,25.55-14.76c13.05-9.48,25.19-19.9,35.2-32.63a123.53,123.53,0,0,0,17.33-28.91c3.6-8.69,7.43-17.31,9.37-26.63a36.39,36.39,0,0,0-5.05-27.86c-5.43-8.69-12.08-16.35-19.09-23.75a10.18,10.18,0,0,1-1-1.54c5.18-.31,9.67,2,14.06,4.15a108.4,108.4,0,0,1,28.87,20c11,10.7,14.33,23.7,11.05,38.63-1.82,8.32-3.48,16.65-7,24.46-.61,1.35-.68,3.07-2.31,3.84-1.65-.74-.87-2.16-.84-3.23.19-9.37-2.67-18-6.58-26.28a4.7,4.7,0,0,0-1.06-1.5c-.43-.38-1-.81-1.65-.3a1.14,1.14,0,0,0-.36,1.23c.77,3.46,1.61,6.91,2.31,10.38,2.23,11.13,2.52,22.12-2.68,32.64-4.14,8.36-10.36,14.95-17.6,20.66a164.88,164.88,0,0,1-38.15,22.52c-10.41,4.38-20.68,9.11-31.54,12.29-6.06,1.77-12,4-18.32,4.82C336,278.69,332.31,279.31,328.74,277.77Z"/><path class="cls-4" d="M120.55,449.71a2,2,0,0,1,1.39-1.68c8-3.35,15.14-8.18,22.86-12,8.44-4.2,15.66-10.32,22.5-16.77,7.74-7.3,15-15,20.34-24.38,3.11-5.55,5.83-11.09,6.32-17.62.53-7.11-3-12.42-9.2-14.1-1.68-.45-3.79-.61-4.4-2.87,2.58-1.06,5.19-.59,7.75,0,6.48,1.4,12.93,2.91,19.39,4.4a15.84,15.84,0,0,1,2.18.8c8.74,3.51,10.87,8.07,9.53,16.21-1.76,10.77-6,20.81-14,28.71a176.55,176.55,0,0,1-35.13,26.91,68.89,68.89,0,0,1-15.85,6.4c-7.1,2.06-14.11,4.41-21.39,5.74C128.8,450.14,124.69,450.94,120.55,449.71Z"/><path class="cls-4" d="M147.36,345.6c-.22-2.7,1.3-4.81,2.08-7.16a90.14,90.14,0,0,0,4.92-24.52,48.47,48.47,0,0,0-4.29-23.34c-1.4-3-3.56-5.84-3-9.46,9.95.71,15.89,5.89,19,16.94,3,10.87,4.1,22,2.16,33.07-.79,4.55-2.71,8.68-4.53,12.82a3.79,3.79,0,0,1-4.41,2.43C155.33,345.91,151.34,345.84,147.36,345.6Z"/><path class="cls-4" d="M84.48,434a62.24,62.24,0,0,1-1.9-16.62,89.75,89.75,0,0,1,3-21.85c.8-2.95,3.16-5,4-7.91.38-1.27,2.18-1.65,3.67-1.71,3-.12,6-.14,8.92-.45,2.2-.24,3.41.45,3.35,2.69-.41,14.83-.93,29.63-10.33,42.27-1.31,1.76-2.39,3.7-3.69,5.46-.77,1.06-1.27,3-3,2.41A5.78,5.78,0,0,1,84.48,434Z"/><path class="cls-4" d="M209.07,250.24a5.38,5.38,0,0,1,2.26-2.39,219.38,219.38,0,0,0,44.2-35.79,3.82,3.82,0,0,0,.84-3.8A75.53,75.53,0,0,1,271.75,205c1.45-.13,3.77-1.17,4.1.94s2.59,4.55,0,7c-4,3.92-8,7.8-13.39,9.91a17.15,17.15,0,0,0-1.76.78c-.94.49-2,.28-1.37,1.76.53,1.26,2.08-.24,3.15-.26,1.73,0,4-2.15,5.91-1.44-1.51,2.34-5.39,7.74-7.75,9.84-.67-1.35,0-1.88-1.06-1.35-4.72,2.31-9.6,4.27-14.27,6.75A97.08,97.08,0,0,1,225,247.4c-3.52.95-6.9,2.54-10.54,3C212.71,250.7,210.78,251.84,209.07,250.24Z"/><path class="cls-4" d="M39.93,466.07c.48-.38.9-.95,1.43-1.1,5.63-1.6,9-5.6,12.21-10.25,8-11.47,16.79-22.44,23.91-34.55a4.85,4.85,0,0,1,2-1.78c.86,1.05.6,2.35.72,3.53.68,6.32,2.36,12.26,6.29,17.4,1.4,1.82,1.29,3.4-.24,5.29a62.23,62.23,0,0,1-27.16,19.51c-5.29,2-11,2.53-16.63,2.72A3.28,3.28,0,0,1,39.93,466.07Z"/><path class="cls-4" d="M287.53,265.45c1.28-4.31,5.41-9.9,8.34-13.18,4,4.63,5.59,10.88,9.84,15.37.92,1-1.08,4.09-1.78,5A77.64,77.64,0,0,1,284.37,291a84.63,84.63,0,0,1-18.1,8.68c-7.56,2.6-19.95,5.37-28.21,5.6,2.34-1.74,51.22-40.15,50.37-40Z"/><path class="cls-4" d="M197.71,310.7a2.83,2.83,0,0,1,2.37-.56c4.75.88,9.61.84,14.46,1.18C209.47,326,187.43,344.78,170.43,343c1.79-4.13,2.48-8.46,3.79-12.65A80.68,80.68,0,0,0,197.71,310.7Z"/><path class="cls-4" d="M296.53,248.72c.06.19,4.69-6.54,5-7.11,1.07-2.34,2.36-4.57,3.4-6.93a40.21,40.21,0,0,0,3.28-10.81c.34-2.62-1-7.79,2.4-8.84,3.77,4.88,4.95,10.66,5.71,16.56,1.49,11.61.58,22.8-5.95,33-1.34,2.1-1.78,5.59-3.3,3.6-.28-.36-3.26-2.47-3.41-2.89C301.56,259.51,298.63,254.46,296.53,248.72Z"/><path class="cls-4" d="M60.1,349.48c.12-2.71,1.71-3.53,4.19-3.38a46.42,46.42,0,0,1,24.89,8.74A50.1,50.1,0,0,1,101,366.29c1.39,2,1.08,3.13-.42,4.54-3,2.78-6,5.48-8.14,9a3.16,3.16,0,0,1-3.7,1.64c-1.93-.48-4.26-.13-5.88-1.5.91-1.4.64-3.27,0-4.82-3.07-7.59-7.23-14.68-10.68-22.1a11.26,11.26,0,0,0-1.4-2.46c-1.26-1.52-3.42-1.83-5.28-1.81C65.07,348.76,60.12,349.12,60.1,349.48Z"/><path class="cls-4" d="M266.22,201c-.12-1.54,1.07-2.45,1.74-3.6a143.3,143.3,0,0,0,15.09-37.33c.56-2.24,0-4.5.87-6.64,1.73.89,2.51,2.64,3.43,4.14,1.81,2.95,2.3,5.51-.27,9a60.25,60.25,0,0,0-11.6,30.81c-.15,1.7-.4,3-2.58,2.82S268.53,201.48,266.22,201Z"/><path class="cls-4" d="M119.72,376.25c3.7-4.54,8.79-7.71,13.35-11.41s9-8.56,9.92-14.49a57.6,57.6,0,0,1,16.89-.33c.63.08-2.83,3.71-3,3.82-1.57,1.39-3.18,2.73-4.82,4a124,124,0,0,1-32.61,18.65Z"/><path class="cls-4" d="M290.65,168.92a8.9,8.9,0,0,1,.58,5.44c-1.28,8.09-4.28,15.76-7,23.5a15.31,15.31,0,0,1-1,2.1c-.8,1.51-2,2.52-3.8,2.06s-1.19-2.05-1.21-3.32c-.07-3.06.94-6,1.9-8.86,2.47-7.36,4.36-15,10-21.08Z"/><path class="cls-4" d="M93.27,381.25c2.37-4,5.62-6.33,8.27-9.16,1.6-1.7,3.19-.91,3.64,1.1a24.15,24.15,0,0,1,.15,5.52c0,1.51-.89,2.14-2.38,2.19C99.9,381,96.87,382,93.27,381.25Z"/><path class="cls-4" d="M172.08,291.07l1.21-.71c.71,2.09,1.43,4.17,2.15,6.26l-.87.45Z"/><path class="cls-4" d="M289.92,172.72l.4-.53-.06.66Z"/><path class="cls-5" d="M457,132.32c-11.35-10.38-24.83-18.07-39-24-6.06-2.54-12.72-2.7-19.12-3.76-6.75-1.12-13-4.09-19.79-5.09-8-1.18-16.47.76-23.84,3.88-12.1,5.14-22.25,13.72-32,22.33s-19.62,17.77-28,28c-.73.89-1.22,2.13-3,2.26-4.9-10.81-15-14.86-25.31-18.53-1.15-.41-2.33-.75-3.5-1.11A38.92,38.92,0,0,0,247.11,135a69,69,0,0,0-30.56,11.69c-15.08,10.2-28.71,22.29-42.68,33.92a16.41,16.41,0,0,0-4.44,6.86,44.86,44.86,0,0,0-2.37,27,78.42,78.42,0,0,0,13.63,30.28c1.48,1.95,1.21,3.1-.12,4.73a50.91,50.91,0,0,0-4.28,6c-.92,1.51-1.8,2.17-3.66,1.64a13.38,13.38,0,0,0-7.26.27c-10,2.76-18.67,7.58-24.61,16.42-.81,1.2-1.54,2.08-3.14,2.24-10.6,1-20,5.57-29,10.73A118,118,0,0,0,60.26,338a7.57,7.57,0,0,1-5.52,4.65c-18.7,4.67-33.17,15.12-42.61,32.16a142.32,142.32,0,0,0-9.13,19c-3.1,8.3-3.47,16.09-2.58,24.79.06.57.12,1.15.2,1.72a14.18,14.18,0,0,0,.33,1.6c.65,2.3,2,5.05,4.19,6.26,1.05-2.05.75-4.52.19-6.75-2.79-11,0-21.53,4.46-31.76,4.28-9.72,9.83-19,17.41-26.46s17.3-13,27.83-14.32c-2.4,6,1.13,12.68,4.89,17.95,5.58,7.82,12.41,15.38,21.53,18.42a5.1,5.1,0,0,1,2.65,1.46c1.07,1.43.24,3.43-.54,5a52.39,52.39,0,0,0,1.24,47.18,6.47,6.47,0,0,1,1,2.64c.11,1.6-1,3-2.06,4.17a67.35,67.35,0,0,1-19.5,15c-11.21,5.63-25.53,8.4-36.49.81-9-6.25-14.35-17.26-15.89-27.93-2.17-15,3.83-30.05,11.2-43.34,2.11-3.81,4.38-7.63,5.35-11.88a15.27,15.27,0,0,0-3.88,3.73A84,84,0,0,0,8.87,413c-1.51,5.62-2.39,10.87-1.8,16.65,1.64,16.15,9.42,41.59,29.48,42.48,11.23.5,22.18-1.61,32.13-7.48,7.83-4.62,15.06-9.88,20.74-17.07.93-1.17,1.75-2.54,3.71-1.46,5.42,3,11.51,4,17.33,5.85a47.41,47.41,0,0,0,24,1c7.65-1.56,15.09-3.85,22.53-6.14,21.61-6.66,39.81-18.33,53.62-36.48a63.87,63.87,0,0,0,12-25.51c2.26-10.53-1.62-19.3-10.59-23.45a68.52,68.52,0,0,0-29.71-6.68c-3.79,0-6.49-.9-8.56-3.92-.24-.28-.74-.65-.67-.84.2-.65.78-.56,1.31-.36,6.86-.69,13.5-2.1,19.42-5.91,8.44-5.42,15.45-12.21,20.35-21.07,1.47-2.68,2.73-5.38,2.77-8.51-.27-1-2.26-2.31.44-2.87,3.43-.8,6.87-1.52,10.26-2.43a17.28,17.28,0,0,1,9-.14,26.32,26.32,0,0,0,11.38.26c11.77-2.22,23.19-5.54,33.75-11.38,9-5,17-11.38,24.81-18,3.08-2.61,5.54-3.35,9.35-1.55,11.52,5.44,23.46,6.13,35.75,2.52q10.79-3.18,21.35-7c18.2-6.59,35.48-15,51.28-26.23,4.6-3.29,8.78-7.33,13.73-9.92,8.83-4.61,15-11.56,19.44-20.08A143.42,143.42,0,0,0,472.18,173a46.67,46.67,0,0,0,.4-9.6C471.92,150.77,466.09,140.7,457,132.32ZM171,207.67a45.29,45.29,0,0,1,2.61-17.56,14,14,0,0,1,5.08-6.9c4.41-3.28,8.71-6.72,13.17-9.93,7.33-5.28,13.61-11.82,20.9-17.15,9.24-6.76,19.14-12,30.41-14.44,11.6-2.51,23.89.81,34,6.77,5.67,3.34,13.65,10.75,8.61,17.63a60.23,60.23,0,0,0-11.61,30.8c-.24,2.91-2.9,2.81-5.12,3a21.68,21.68,0,0,0-4.06.88c-1.76.54-3.51,1.23-5.24,1.82q-10,3.45-19.83,7.28c-8.63,3.35-18,6.37-25.95,11.19a144.19,144.19,0,0,0-25.12,19.09c-3.23,3.11-3.85,3.27-6.14-.58C176.83,229.71,171.73,219.5,171,207.67Zm118.51-30.9c-.83,6.54-3,12.72-5,19a11.28,11.28,0,0,1-.71,1.68c-.59,1.22-1.54,2-2.91,1.61s-1-1.69-1-2.72a21.5,21.5,0,0,1,1.3-7.17c1.78-5.94,3.1-12.11,7.4-16.95l.4-.53-.06.66A7.67,7.67,0,0,1,289.5,176.77ZM81.67,378.66c-4-1.85-7.63-4.93-11-7.6-4.93-3.9-9.28-8.54-11.81-14.38a6.5,6.5,0,0,1-.69-2.89c.17-2.78,3.2-6.84,6.17-6.66a43.42,43.42,0,0,1,23.33,8.19,46.93,46.93,0,0,1,10.86,10.42,4.84,4.84,0,0,1,.93,1.8c.3,1.36-.81,2.41-1.69,3.27a51.21,51.21,0,0,0-5.91,6.49c-1.47,2.07-2.54,3.25-5.16,2.88A17.66,17.66,0,0,1,81.67,378.66Zm20.18-5.28c1.18-1.25,2.36-.67,2.7.82a18,18,0,0,1,.11,4.09c0,1.12-.66,1.58-1.76,1.62-2.27.09-4.51.78-7.17.26C97.48,377.2,99.89,375.48,101.85,373.38ZM88.38,437.94a5.61,5.61,0,0,1-4-4.17,60.27,60.27,0,0,1-1.85-16.12,87.27,87.27,0,0,1,3-21.19c.78-2.87,3.06-4.85,3.91-7.68.37-1.23,2.12-1.59,3.56-1.65,2.89-.12,5.79-.14,8.66-.45,2.13-.22,3.3.44,3.24,2.62-.39,14.38-.9,28.74-10,41-1.27,1.71-2.31,3.59-3.57,5.3C90.52,436.63,90,438.47,88.38,437.94Zm91.39-77.42c2.54-1,5.13-.58,7.65,0,6.41,1.38,12.79,2.87,19.17,4.34a15.42,15.42,0,0,1,2.15.79c8.65,3.47,10.74,8,9.43,16-1.75,10.64-6,20.57-13.82,28.37a172.57,172.57,0,0,1-27.83,22.35c-10.09,6.54-21.58,10.79-33.25,13.86a78.65,78.65,0,0,1-23.88,2.85c-7.75-.39-15.23-3.38-22.5-5.92-2.86-1-2.84-1.26-1.18-3.86,1.81-2.83,3.7-5.61,5.52-8.43A53.34,53.34,0,0,0,109.56,405c.36-5.47.43-11,.38-16.46,0-2.35.55-3.42,3-4.08,18.93-5.07,35.57-14.26,49.46-28.22.76-.75,1.53-1.49,2.23-2.3a2.25,2.25,0,0,1,3.25-.42,9.76,9.76,0,0,1,2.52,2A13,13,0,0,0,179.77,360.52Zm-71,15.74c-1.74-7.68-1.74-7.6,4.65-12.34a78.94,78.94,0,0,1,28.78-13.26,48.28,48.28,0,0,1,14.79.1,7.22,7.22,0,0,1-2.75,3.66q-3.94,3.43-8.2,6.51C142.07,363.79,110.28,383,108.75,376.26ZM168,330.78c-.86,4.37-2.83,8.35-4.69,12.34a3.9,3.9,0,0,1-4.39,2.4c-17.05-1.67-34.52,4.78-48.21,14.68-1.23.9-2.43,1.86-3.69,2.71-2.71,1.83-2.8,1.84-4.6-.92-7.86-12-19.27-18.39-33.15-20.83-1-.18-2.15,0-3-.69-.53-.8,0-1.49.31-2.11,11-19,25.37-34.7,44.76-45.51a135.5,135.5,0,0,1,15.18-7.52c7-2.81,14.06-3.94,21.45-2,9.81.52,15.59,5.38,18.47,15.9A68.72,68.72,0,0,1,168,330.78Zm4.71,10.34c1.57-3.84,2.14-7.89,3.27-11.81a93.82,93.82,0,0,0-1.87-29.7c-.24-1-.53-2.05-.8-3.07q-1.24-3-2.5-6c-4.49-8.83-12.35-12.63-22.57-14.32a49.91,49.91,0,0,1,23.43-11.5c-2.53,8.71-1.79,16.94.35,25.12q1.08,3.12,2.15,6.25a24.42,24.42,0,0,0,10.36,10c3.51,1.84,7.4,3,11.12,4.29,1.5.54,16.42,2.9,16.81,1.72C208,325.75,188.17,343.07,172.66,341.12Zm130.87-69.4A77.47,77.47,0,0,1,284,290.08a84.32,84.32,0,0,1-18.09,8.68c-7.57,2.6-15.15,5.33-23.41,5.56a56.88,56.88,0,0,1,7.44-4.39c8.56-4.57,15.76-10.86,23-17.21C278,278.19,283,273.49,288,268.85a13.56,13.56,0,0,0,2-1.9c.6-.82,1.47-1.85.56-2.84-.73-.79-1.68.1-2.53.26l-.9.16c-4.72,4.57-9.88,8.63-14.95,12.8-8.31,6.85-16.82,13.34-26.33,18.53-8.9,4.85-18.53,6.95-28.28,8.87-9.27,1.83-18.22.19-27-2.69-7.5-2.46-11.6-7.83-13.62-15.35-3.4-12.68-.62-23.83,7.47-33.93,1.43-1.79,2.67-2.46,5-1.31,10.18,5.05,20.77,4.1,31.36,1.63,14.33-3.38,27.78-11.69,40.14-19.43.68-.43,1.47-1.19,1.08-1.9s-1.43-.49-2.16-.17c-9.58,4.23-18.72,9.44-28.44,13.31-12,4.75-26.15,7.87-38.52,2.79-2.77-1.14-2.81-1.45-.56-3.75a111.24,111.24,0,0,1,26.79-20c9.79-5.22,20.56-8.43,31-12.18,2.14-.77,4.3-1.63,6.47-2.46,5-1.91,10-3.71,15.21-4.12a4.4,4.4,0,0,1,2.52.33c2.05,1.11,2.29,6.09.74,7.63a58.25,58.25,0,0,1-14.38,10.26c-1.11.59-3.12,2.11-.78,3a3.89,3.89,0,0,0,2.06,0c4-.74,6.76-2.58,9.95-5,.6-.45,5-4.33,5.72-3.77,1.5,1.11,1.78,2.51,2.18,3.79a135.23,135.23,0,0,0,13.88,30.71,5.2,5.2,0,0,1,.42,1.3c4,4.64,5.51,10.86,9.75,15.35C304.72,269.84,304.24,270.81,303.53,271.72ZM309,264c-1.34,2.1-2.1,2.16-3.62.17a4.28,4.28,0,0,1-.7-1.18c-2.05-5.76-5.89-10.65-8-16.39a178.59,178.59,0,0,1-13.23-32.14c-.72-2.29,1.38-8.08,3.29-9.36a2.18,2.18,0,0,1,1.27-.41c8.23.72,16.12,2.24,21.22,9.77,3.77,4.88,4.95,10.66,5.71,16.56C316.44,242.67,315.54,253.86,309,264Zm156.18-87.65c-1.8,8.21-3.44,16.44-6.93,24.15-.61,1.33-.68,3-2.28,3.79-1.64-.73-.86-2.13-.84-3.19.19-9.25-2.64-17.72-6.49-25.95a4.54,4.54,0,0,0-1-1.47c-.42-.38-1-.8-1.63-.3a1.13,1.13,0,0,0-.35,1.22c.76,3.41,1.59,6.81,2.28,10.24,2.2,11,2.48,21.83-2.65,32.22-4.08,8.26-10.23,14.76-17.37,20.4a163.05,163.05,0,0,1-37.66,22.23c-10.31,4.34-20.59,9.22-31.3,12.61-15.29,4.83-30.85,6.28-45.46-1.37-1.75-.92-1.25-2.21-.42-3.45a50.9,50.9,0,0,0,4.75-9.9c5.31-13.63,4.73-27.39-.35-40.78-3.63-9.57-11.46-14.73-21.48-16.65-2-.39-4.81.53-5.84-1.58-.83-1.72,1-3.69,1.6-5.55,3-9.06,5.47-18.18,3.36-27.85a5.29,5.29,0,0,1,1.18-4.65c9.84-13,21.23-25.43,34.21-35.6,11.76-9.21,28.68-21,44.25-20.61,5.46.13,9.56,2.52,14.5,4.27,11.54,4.08,24.17,4.22,35.45,9.13,11.05,4.81,21,12.12,29.6,20.51C465.09,148.82,468.43,161.65,465.19,176.39Z"/><path class="cls-3" d="M607.05,314.94a21.77,21.77,0,0,1-7.43,12.34c-7.61,6.71-17,9.34-26.59,11.44-7.5,1.65-15.17,1.07-23.11,1,.88-1.46,2.23-1.29,3.21-1.53a133.56,133.56,0,0,0,20.68-7.29c1.52-.65,3.05-1.36,3.68-3-.66-1.44-1.57-.9-2.4-.63-3.92,1.26-7.77,2.72-11.79,3.64a7.76,7.76,0,0,1-4,.26,66.66,66.66,0,0,1-28.65,4,99.28,99.28,0,0,1-34.84-8.94,41.18,41.18,0,0,1-8.34-5.58c-3.09-2.49-3.69-6.13-5.18-9.38-.1-.89-.79-1.4-1.31-2,11.47-12.81,23.73-24.62,39.84-31.59A62.92,62.92,0,0,1,538,273c11.43-1.42,22.85-1.35,34.14,1.28a21.62,21.62,0,0,1,9.11,4.09,58.14,58.14,0,0,1,20,15.55C606.17,299.93,608.46,307.15,607.05,314.94Z"/><path class="cls-4" d="M560.25,332.18c2.18-3.64,6.3-4.58,9.54-6.73,5.5-3.64,10.83-7.36,14.61-12.94,4.08-6,5.12-12.68,4.34-19.69-.32-2.91-2.1-5.35-3.61-7.84-1.09-1.8-2.86-3.25-2.92-5.59a58.23,58.23,0,0,1,20,15.55c4.91,6,7.2,13.21,5.79,21a21.73,21.73,0,0,1-7.44,12.34c-7.6,6.71-17,9.34-26.59,11.44-7.49,1.65-15.16,1.08-23.1,1,.88-1.46,2.23-1.29,3.21-1.53a132.52,132.52,0,0,0,20.68-7.29c1.52-.64,3.05-1.35,3.68-3-.66-1.45-1.57-.9-2.4-.64-3.92,1.26-7.77,2.72-11.8,3.64A7.72,7.72,0,0,1,560.25,332.18Z"/><path class="cls-5" d="M478.32,308.08c10.22-17,25-28.6,43.05-36.2a67.24,67.24,0,0,1,17.32-4.19,97.69,97.69,0,0,1,31.92.84c13.91,2.71,24.79,10.79,34.24,20.87,3.9,4.17,6.13,9.49,7.53,15,2.47,9.82-.77,18.06-7.53,25.13a41.14,41.14,0,0,1-15.69,10,83.49,83.49,0,0,1-28.64,5.51c-6.71,0-13.61.73-20.06-1.17-12.16-3.6-24.81-5.1-36.85-9.08a61.34,61.34,0,0,1-11.38-4.78,27.67,27.67,0,0,1-10.39-9.44c-.7-2.64-2.13-5.08-2.12-7.91.64-.84,1.32-1.6,2.52-1.46,1.49,3.25,2.09,6.89,5.18,9.39a41.55,41.55,0,0,0,8.34,5.57,99.45,99.45,0,0,0,34.84,8.95,66.66,66.66,0,0,0,28.65-4,7.72,7.72,0,0,0,4-.26c4-.92,7.88-2.38,11.8-3.64.83-.26,1.74-.81,2.4.64-.63,1.61-2.16,2.32-3.68,3a132.52,132.52,0,0,1-20.68,7.29c-1,.24-2.33.07-3.21,1.53,7.94.1,15.61.67,23.1-1,9.56-2.1,19-4.73,26.59-11.44a21.73,21.73,0,0,0,7.44-12.34c1.41-7.79-.88-15-5.79-21a58.23,58.23,0,0,0-20-15.55,21.62,21.62,0,0,0-9.11-4.09c-11.29-2.63-22.71-2.7-34.14-1.27a62.54,62.54,0,0,0-17.19,4.62c-16.11,7-28.37,18.78-39.84,31.59C479.67,309.72,478.48,310.05,478.32,308.08Z"/><path class="cls-3" d="M212.82,551.76c-.06.12-.11.25-.17.37a25.5,25.5,0,0,0,.92-3.09c.34-1.49.25-3.38.54-5.06a10.14,10.14,0,0,0,0,1.56A13.37,13.37,0,0,1,212.82,551.76Z"/><path class="cls-3" d="M215.59,540.92a6.78,6.78,0,0,0-2.72-3c-11.36-8-23.64-13.25-37.88-12.59-2.59.13-5.19.08-7.77.25-7.94.53-24.3,2.12-34.75,8.46-11.72,7.11-18,16-16,22a23.82,23.82,0,0,1,1.16,2.63c1.76,7.93,4.68,15.09,12.59,18.92a5.07,5.07,0,0,0,2.16,2.26c8.86,6.35,18.82,7.33,29.23,6,5.26-.69,10.49-1.69,15.76-2.31,13.72-1.62,27-4.41,38.45-12.85,2.23-1.64,4.45-3.24,5.58-5.87C225.2,556,222.59,547,215.59,540.92Zm-2.77,10.84c-.06.12-.11.25-.17.37a25.5,25.5,0,0,0,.92-3.09c.34-1.49.25-3.38.54-5.06a10.14,10.14,0,0,0,0,1.56A13.37,13.37,0,0,1,212.82,551.76Z"/><path class="cls-3" d="M212.82,551.76c-.06.12-.11.25-.17.37a25.5,25.5,0,0,0,.92-3.09c.34-1.49.25-3.38.54-5.06a10.14,10.14,0,0,0,0,1.56A13.37,13.37,0,0,1,212.82,551.76Z"/><path class="cls-4" d="M131.22,578.61c1.89-.91,3.67.11,5.28.65,9.07,3,18.23,2.67,27.56,1.73,11.86-1.2,24.91-4.44,35.09-10.82a36.86,36.86,0,0,0,12.13-12.11,27.81,27.81,0,0,0,3.29-8c.59-2.54-.13-6.26,2-8.11,7,6,9.61,15,5.81,23.86-1.13,2.63-3.35,4.23-5.58,5.87-11.44,8.44-24.73,11.23-38.45,12.85-5.27.63-10.5,1.62-15.76,2.31-10.41,1.37-20.37.39-29.23-6A5,5,0,0,1,131.22,578.61Z"/><path class="cls-4" d="M127.28,543.5a6,6,0,0,1,1.9-.81,32.58,32.58,0,0,0,6.87-3.35,19.8,19.8,0,0,1,4-1.75c.62-.18,3.86-1.1,3.28.29a1.86,1.86,0,0,1-.5.65,43.38,43.38,0,0,1-6.76,4.81q-3.81,2.48-7.54,5.06c-1,.7-2.22.92-2.79-.46a3,3,0,0,1,0-1.93A4.14,4.14,0,0,1,127.28,543.5Z"/><path class="cls-5" d="M112.35,550.26c3.4-5.59,8.31-10.16,13.29-14.35a53.26,53.26,0,0,1,16.3-9.72c10.28-3.67,20.57-6.75,31.71-6.12,14.4.82,27.65,4.89,39.56,13,7.07,4.83,12,11.23,13.9,19.76a27,27,0,0,1-.84,14c-1.08,3.55-3.53,5.92-6.42,8.09-10.95,8.2-23.37,12.53-36.83,14-9.72,1.08-19.33,3.08-29.17,3.07-14.91,0-26.29-7-35.46-18.1a21.92,21.92,0,0,1-4.4-8.89,27.13,27.13,0,0,1-.7-5.08,13.47,13.47,0,0,1,0-2.29c.09-.7.69-1.52.25-2.21a1.43,1.43,0,0,0-1.07-.53c-.4,0-.82,0-1.22-.08a1,1,0,0,1-.67-.41,1.25,1.25,0,0,1,.13-1.1A31,31,0,0,1,112.35,550.26ZM129.89,578c9.65,6.16,22.47,9,31.72,7.8,5.26-.69,10.49-1.68,15.76-2.31,13.72-1.62,27-4.41,38.45-12.85,2.23-1.64,4.45-3.24,5.58-5.87,4.69-10.91-1.89-22.55-11.13-28.63-10.52-6.93-22.54-11.41-35.28-10.81-2.59.12-5.19.07-7.78.24-15.57,1-31.65,6.72-43.06,17.68-.53.5-1,1-1.54,1.56-2,2.1-4.88,3.34-5.63,6.31C114.05,562.8,120.45,572,129.89,578Z"/><path class="cls-3" d="M408.93,532.26A30.7,30.7,0,0,1,400.4,541c-10.27,7-21.11,12.8-33.3,15.56-8.44,1.91-17,3.56-25.69,1.24-7.65,1.07-14.14-1.82-20.2-6-4-2.75-4.89-5.86-3-10.32a20.73,20.73,0,0,1,7.67-9.46c5-3.2,9.93-6.49,15.15-9.36,10.25-5.62,21.42-6.65,32.74-6.9,3.58-.08,7.32-.89,10.77.93,7.84-.53,15.08,1.57,21.85,5.3C411.07,524.56,411.81,527.83,408.93,532.26Z"/><path class="cls-4" d="M336.47,559.87a1.93,1.93,0,0,1,2.08-1.67c8.3-.4,16-2.8,23.65-5.76a61.22,61.22,0,0,0,21.74-14.2c6.74-6.85,6.62-11.81,1.21-17.65-.95-1-2.87-5.18-2.68-6.54,8.61-.54,17.94,4.72,25.38,8.6,5.1,2.66,5.91,6.05,2.75,10.65a32.69,32.69,0,0,1-9.36,9.12c-11.28,7.26-23.18,13.3-36.56,16.16C355.4,560.57,346,562.28,336.47,559.87Z"/><path class="cls-5" d="M351,563.65c-9.74,0-19.22-1.21-27.84-6.24-1.05-.61-2.14-1.17-3.17-1.82-8.09-5.06-8.08-13-3.36-18.92,10.58-13.25,23.9-22.64,41.07-25.41a109.48,109.48,0,0,1,38.29,1,40.68,40.68,0,0,1,14,5.57c7.28,4.56,8.63,11.41,3.67,18.36a40.14,40.14,0,0,1-10.93,10.28c-10.69,7-22,12.54-34.45,15.55A63.14,63.14,0,0,1,351,563.65Zm-9.69-4.86c12.82,1.18,25.77-1.27,37.66-6.07,10.95-4.42,25.56-11.16,30.87-22.41a6.29,6.29,0,0,0,.79-3.77c-.34-1.75-1.9-3-3.43-3.89a42,42,0,0,0-8.85-3.8,79.63,79.63,0,0,0-73.88,14.59,23.74,23.74,0,0,0-5.38,5.85,10,10,0,0,0-1.34,7.65c.79,2.86,3.16,5,5.67,6.57,4.87,3,10.59,4.45,16.28,5.11Z"/><path class="cls-3" d="M1374.48,404.48a28,28,0,0,1-6.66-13.85,83,83,0,0,1-1.27-18.22c.1-3.35.35-6.72.13-10-.37-5.55.75-10.92,1.52-16.33a161.46,161.46,0,0,1,5.13-21.79,69.65,69.65,0,0,1,13.86-26.5,47.19,47.19,0,0,1,8.06-7.42,4.73,4.73,0,0,1,4.28-1.05c2-2.58,5.17-2.94,7.9-3,7.66-.28,15.28.46,22.22,4.2a27,27,0,0,1,11.77,13.08,17.94,17.94,0,0,1,0,15.54,55.37,55.37,0,0,1-5.24,9.13c-.86,1.19-1.62,2.63-3.66,1.8-1.25-.5-1.66.7-1.54,1.58.4,2.89-1.41,4.41-3.24,6.12-4.59,4.26-9.18,8.53-14.09,12.41-1,.78-2.45,1.4-2.27,3.12,1.18.89,2.07,0,2.93-.48a56.93,56.93,0,0,0,12.71-8.94c.76-.72,1.33-1.23,2.27-.65s.47,1.38.29,2.06c-2.59,9.59-3.69,19.62-7.43,28.85-4.36,10.81-9.94,21-18.92,28.88-1.27,1.1-2.35,2.46-4.26,2.4C1392.58,411.17,1380.14,410.76,1374.48,404.48Z"/><path class="cls-4" d="M1398.3,290a6,6,0,0,1-1,3.44c-4.82,9.06-8.57,18.45-10.13,28.71-.8,5.24-2.53,10.32-3.49,15.59a198.14,198.14,0,0,0-3.49,35.85,74.73,74.73,0,0,0,.85,12.75c1.35,7.82,5.65,13.33,12.39,17.17,1.46.83,2.89,1.7,4.33,2.55-6.41,5.83-18.86,5.41-24.52-.87a27.91,27.91,0,0,1-6.66-13.85,83.62,83.62,0,0,1-1.27-18.22c.1-3.34.36-6.71.13-10-.37-5.55.75-10.92,1.52-16.33a162.17,162.17,0,0,1,5.13-21.79A69.84,69.84,0,0,1,1386,298.42,46.4,46.4,0,0,1,1394,291,4.69,4.69,0,0,1,1398.3,290Z"/><path class="cls-5" d="M1367.38,321.08a71.22,71.22,0,0,1,16.51-28.8c9.14-9.42,19.79-13.8,33.08-11.26,7,1.33,13.93,2.46,19.66,6.93,9.11,7.13,14.71,16,12.28,28.14a30.16,30.16,0,0,1-8.52,15.47,23,23,0,0,0-7.2,16,102.76,102.76,0,0,1-4.14,21.57c-4.35,14.88-11.69,28.16-23,39-6.81,6.54-15.14,8.23-24.16,7.31a17.88,17.88,0,0,1-12.49-7,38.24,38.24,0,0,1-8.29-18.13C1358.32,372.27,1360.39,343.86,1367.38,321.08Zm31.9-32.43a32.94,32.94,0,0,0-12.77,9.29c-4.13,4.9-7,10.7-9.5,16.62-7.84,18.81-9.86,37.71-10.46,57.85a84.24,84.24,0,0,0,1.26,18.22,28.1,28.1,0,0,0,6.67,13.85c4.86,5.4,13.61,6.13,20.06,3.55a40.69,40.69,0,0,0,5.36-2.79c11-6.46,17.68-19.77,22.29-31.17,3.73-9.23,4.83-19.26,7.42-28.85.18-.68.56-1.55-.29-2.07s-1.51,0-2.27.67a57.54,57.54,0,0,1-12.71,8.93c-.86.46-1.74,1.37-2.92.48-.19-1.72,1.28-2.34,2.26-3.12,4.89-3.87,10.57-8.07,14.69-12.76a10.86,10.86,0,0,0,2.81-5.94c0-.46.07-1,.44-1.26s1-.14,1.46-.1a4.43,4.43,0,0,0,3.76-2.21,60.51,60.51,0,0,0,4.6-8.77,17.9,17.9,0,0,0,0-15.54,27.07,27.07,0,0,0-11.77-13.08A35.76,35.76,0,0,0,1399.28,288.65Z"/><path class="cls-3" d="M1348.1,174c-6.07-5-13-8.43-20.17-11.48-.38-.16-.62-.61-.94-.93,9,1.94,17.87,4.52,25.79,9.51-2.3.59-4.17-1.33-6.55-1.25.42,1.4,1.86,1.63,2.42,2.64C1348.47,173,1348.28,173.46,1348.1,174Z"/><path class="cls-3" d="M1242.3,362.14c-6.88-8.31-11.57-18-12.3-29.06a174.46,174.46,0,0,1,2.77-43.64,67.32,67.32,0,0,1,5.53-16c3.07-6.62,5.87-13.37,9.61-19.66,2.1-3.52,4.17-7.09,7.77-9.39a6.35,6.35,0,0,1,2.21-2.84,175.78,175.78,0,0,1,17.76-11.29c2.63-1.49,2.82-1.3,3.69,1.66.93,3.22,1.79,6.47,2.72,9.7a53.27,53.27,0,0,0,14,23.27c3.89,3.87,8,7.53,12.16,11.11,1.79,1.53,2.22,2.66,1.09,4.95-8.62,17.61-12.63,36.19-11.24,55.83.07,1.06.11,2.14.27,3.19a2.27,2.27,0,0,1-1.82,2.73,9.87,9.87,0,0,1-3.12.61,13.16,13.16,0,0,0-10,3.72c-.88,2.62-2.93,4.26-5,5.8-5.25,3.92-10.55,7.75-15.86,11.59a16.32,16.32,0,0,1-2,1.11C1252.27,369.8,1247.49,368.42,1242.3,362.14Z"/><path class="cls-3" d="M1373.23,274.64c1,.13,1.14.95,1.39,1.62,7.06,20.8,9.47,41.93,4.88,63.65a138,138,0,0,1-4.31,16.38c-2.46,7.09-6.27,13.18-12.56,17.51-6.84,7.06-14.3,8.21-24.12,3.47a68.64,68.64,0,0,1-24.87-19.55c-2.73-3.52-4.44-7.62-6.22-11.65a3.88,3.88,0,0,1,1.08-4.88c2.86-2.7,3.18-6.13,5.89-9,1.76-4.74,5.77-9.65,7.78-14.3,3.33-7.7,6.19-14.43,6.94-22.69.14-1.52.2-3.06.39-4.56.4-3.26.45-3.33,3.72-2.87,14.23,2,26.52-2.43,37.48-11.29C1371.51,275.84,1372.07,274.83,1373.23,274.64Z"/><path class="cls-3" d="M1315.59,325.23a48.59,48.59,0,0,1-9.79,11.08,7.1,7.1,0,0,1-1-4.47c0-7.89.36-15.7,2.39-23.43,1.2-4.52-.19-11.48,2-15.69-1.59-3.2-.66,1.84-.61,1.9-.06-.14,1.88-5.77,1.84-5.71,1.08-3.65,2.75-1.28,4.57-4.69.83-1.56,1.56-1.89,3.18-1,6.93,3.73,6.87,3.68,6.24,11.61A79,79,0,0,1,1315.59,325.23Z"/><path class="cls-3" d="M1301.79,231.43c-5.2-3.64-8.72-6.64-15.18-7.06-2.29-.14-3.41-1.26-3.83-3.67a62.17,62.17,0,0,1,3.15-33.28c2-5.27,5.3-9.93,8.88-14.32a3.29,3.29,0,0,1,2.26-1.43c3.19-5.28,8.75-6.22,14-6.42,15.36-.59,28.31,5.05,38.39,16.8,6.34,7.41,10.32,16.16,13.8,25.16,1.21,3.14,2.37,6.28,3.62,9.4a11.12,11.12,0,0,0,2.56,4.53,4.6,4.6,0,0,0,.32-4.08c-3.77-14.38-8-28.55-18.4-39.86-1-1.12-2.14-2.16-3.21-3.24.18-.5.37-1,.55-1.51,2.87,1.74,5.72,3.49,8.61,5.18,2,1.2,2.87,3.45,4.48,5.05a49.47,49.47,0,0,1,10.16,14.59,123,123,0,0,1,8.47,23.2c3.3,14,1.29,27.27-5.55,39.87,0,.09-.26.09-.8.26-6.55-4.77-11.41-7.31-18.47-8.07-9.44-1-18.62-.3-27,4.72-1.72,1-5.36,3.92-6.24,1.83a74.79,74.79,0,0,0-16.34-24.2C1304.58,234.84,1302.77,232.12,1301.79,231.43Z"/><path class="cls-3" d="M1286.68,237.21c-.45-2.08-1.19-4.09-1.65-6.17-.29-1.24-1.36-2.82.14-3.72a5.6,5.6,0,0,1,5.76-.27,60,60,0,0,1,13.37,9.21,86.83,86.83,0,0,1,14,16.16c1.66,2.46,1.65,5.48,3.22,8,.68,1.08-.19,2.64-1.09,3.77-1.8,2.25-3.7,4.44-5.36,6.81-1.23,1.75-2.5,2.21-4.1.73C1300.4,262,1289.92,252.15,1286.68,237.21Z"/><path class="cls-3" d="M1365.26,256.17c3,.56,6.74,3.09,6.38,6.26,1.84,1.76-.58,4.79-2.22,6.44a43.38,43.38,0,0,1-21.5,12.21,47.22,47.22,0,0,1-15.38,1.32c-2.24-.23-2.87-1.17-3-3.1-.14-3.79-.18-7.6-1.33-11.27a3,3,0,0,1,1.13-3.62c1.6-1.11,2.79-2.83,4.8-3.35C1344.29,256.44,1354.61,254.15,1365.26,256.17Z"/><path class="cls-3" d="M1322.58,281.4a17.62,17.62,0,0,1-3.15-2.61,1.52,1.52,0,0,1-.06-2.39c1.42-1.76,2.36-3.91,4.51-5.58,1.08,3.28.79,6.22,1.09,9.08C1325.14,281.62,1323.92,282.13,1322.58,281.4Z"/><path class="cls-3" d="M1344.74,525.77c-1.19-1.23-2-2.28-.43-3.8s1.94-4.1,3.8-5.55c2.67-7.15,5.15-14.37,7.12-21.75.38-1.45-.89-4.3.73-5,.75-.35,2.92-5.61,3.1-6.36,2-8.31,5.54-10.27,7-18.79a143.91,143.91,0,0,0,2.12-31.48c-.22-4.48.07-5.05,4.47-4.25,11.31,2.07,22.36,4.94,31.77,12.16A45.56,45.56,0,0,1,1416,454.43a14,14,0,0,1,1.86,8.36c-.43,5.48-.66,11-1.17,16.46-.84,9,0,18-.81,27-1,11.4-3.54,22.31-9.1,32.4A36.42,36.42,0,0,1,1391.39,554c-5.56,2.85-10.78,6.49-17.26,7-.6.06-1.2,0-1.8,0-1.81.72-3.65.16-5.37-.14-3.42-.57-5.67-1.89-6.63-6.13A60.23,60.23,0,0,0,1344.74,525.77Z"/><path class="cls-3" d="M1271,500.8c-1.36.06-1.77-.95-2-2.08a77.93,77.93,0,0,1-1-26.81,84.49,84.49,0,0,1,5.36-19.34c3-7.41,5.94-14.92,11.19-21.3a56.43,56.43,0,0,1-1.58,8.5c-2.18,9.46-2.17,19-2.11,28.6,0,6.85.3,13.71.47,20.56a13.77,13.77,0,0,0,.15,2.73c.23,1,.43,2.32,1.77,2.29,1.08,0,1-1.33,1.47-2.07.15-.27.31-.53.46-.79-.33-6.57,0-13.13.18-19.69.3-10.76,1-21.44,3.35-32,2.19-9.9,6.94-18.54,11.89-27.15,4.72-8.2,11.85-13.86,19.81-18.6,6.77-4.05,13.52-3.6,20.51-.18,11.79,5.77,18.36,15.19,20.67,27.92.4,2.27,1.21,8.55,1.46,11.76a129.21,129.21,0,0,1-1.91,31.4c-1,5.9-3,11.51-4.56,17.22a7.16,7.16,0,0,1-1,2.55c-4.79,5.87,3.42,24.94,1.19,31.88-2.06,4.56-15.53,7.8-18.55,11.87-.83,1.12-16.56,10-17,14.37-1.84.4-10.59-.74-21.79-2.54-.43-.07-16-28.73-16.41-28.91C1277,511,1277.2,500.55,1271,500.8Z"/><path class="cls-3" d="M1353.87,552.89l-.33.17a7.8,7.8,0,0,1-3.71-2.5c-4.39-4.93-7.62-10.64-11-16.22a13.81,13.81,0,0,1-.8-1.64c-.52-1.24-.5-2.49.71-3.25s1.9.39,2.71,1a22.11,22.11,0,0,1,4.55,5.7C1349.25,541.42,1353,546.46,1353.87,552.89Z"/><path class="cls-3" d="M1298.52,403.53c-7.41-12.33-7.44-38.65,4.23-49.06,1.86,3.71,4.55,6.8,6.74,10.23a94,94,0,0,0,23.62,18.11c.93.5,1.89.95,2.85,1.41l-.24.95c-8.29-1.88-15.4,1-22.16,5.43-1.32.87-2.36,2.48-4.34,1.9a2.43,2.43,0,0,1-1,1.94C1304.66,397.13,1301.72,400.45,1298.52,403.53Z"/><path class="cls-3" d="M1367.74,378.69A49.87,49.87,0,0,1,1361,403.9c-4.91-7.63-11.59-12.48-19.17-16.23.09-.47.17-.93.27-1.38C1351.73,388.71,1359.75,385.28,1367.74,378.69Z"/><path class="cls-3" d="M1311.34,295.12a.46.46,0,0,0-.15-.16C1311.23,294.9,1311.29,295,1311.34,295.12Z"/><path class="cls-3" d="M1311.34,295.12a.46.46,0,0,0-.15-.16C1311.23,294.9,1311.29,295,1311.34,295.12Z"/><path class="cls-3" d="M1341.85,387.67l-6.13-2.5.24-.95,6.16,2.07C1342,386.74,1341.94,387.2,1341.85,387.67Z"/><path class="cls-6" d="M1294.07,405.61c1,.47,3.22-.18,1.87,2.23C1295.3,407.11,1294.32,406.67,1294.07,405.61Z"/><path class="cls-6" d="M1353.87,552.89l.13.65-.46-.48Z"/><path class="cls-4" d="M1346.84,174.6c-6.07-5-13-8.43-20.17-11.48-.38-.15-.63-.61-.94-.93,9.06,1.94,17.87,4.52,25.8,9.51-2.31.59-4.18-1.33-6.56-1.25.42,1.4,1.86,1.63,2.42,2.65Z"/><path class="cls-4" d="M1255.15,243.83a2,2,0,0,1,.35,2.15c-2.7,8.21-3.78,16.79-6,25.13-2.38,9.12-2.52,18.58-2.15,28,.42,10.63,1.4,21.19,5,31.35,2.14,6,4.53,11.69,9.13,16.35,5,5.07,11.3,5.93,16.67,2.33,1.44-1,3-2.46,5-1.43-.89,2.64-3,4.3-5.06,5.86-5.31,4-10.69,7.84-16.06,11.73a14.78,14.78,0,0,1-2,1.12c-8.4,4.28-13.23,2.89-18.49-3.47-7-8.41-11.71-18.24-12.45-29.4a176.77,176.77,0,0,1,2.8-44.17,68.71,68.71,0,0,1,5.6-16.14c3.11-6.71,6-13.54,9.73-19.9C1249.41,249.77,1251.5,246.14,1255.15,243.83Z"/><path class="cls-4" d="M1316,332.46c2.18,1.61,2.77,4.14,4,6.28a89.87,89.87,0,0,0,15.25,19.82,48.46,48.46,0,0,0,20.41,12.1c3.15.9,6.74,1.16,9.08,4-7.07,7-14.88,8.1-25.24,3.17-10.19-4.85-19.25-11.34-26.35-20.1-2.91-3.58-4.75-7.75-6.68-11.84a3.78,3.78,0,0,1,1.06-4.92C1310.52,338.27,1313.2,335.3,1316,332.46Z"/><path class="cls-4" d="M1290.71,227a61.7,61.7,0,0,1,13.77,9.49,89.41,89.41,0,0,1,14.46,16.66c1.71,2.54,1.69,5.66,3.32,8.24.7,1.12-.19,2.72-1.12,3.88-1.87,2.32-3.82,4.59-5.53,7-1.27,1.81-2.58,2.26-4.23.74-10.9-10-21.71-20.17-25.06-35.56-.47-2.15-1.22-4.23-1.7-6.37-.29-1.28-1.4-2.9.15-3.84A5.81,5.81,0,0,1,1290.71,227Z"/><path class="cls-4" d="M1347.31,441.65a5.43,5.43,0,0,1,.33,3.27,219.1,219.1,0,0,0-2.08,56.83,3.79,3.79,0,0,0,2.31,3.14,76,76,0,0,1-7.68,13.71c-.86,1.18-1.6,3.61-3.4,2.47s-5.13-1-5.34-4.59c-.32-5.6-.61-11.17,1.33-16.6a14.52,14.52,0,0,0,.57-1.84c.25-1,1.1-1.69-.42-2.19-1.3-.43-1.19,1.72-1.88,2.55-1.11,1.33-1,4.44-2.8,5.4-.77-2.68-2.29-9.15-2.32-12.32,1.45.39,1.39,1.26,1.71.09,1.36-5.07,3.09-10,4.29-15.19a98,98,0,0,1,7-20.84c1.61-3.28,2.62-6.87,4.63-10C1344.57,444.08,1345,441.88,1347.31,441.65Z"/><path class="cls-4" d="M1295.81,172.32a5.32,5.32,0,0,1-.11,1.8c-2.5,5.29-1.66,10.42-.3,15.94,3.35,13.6,5.88,27.4,10.33,40.72a5,5,0,0,1,0,2.7c-1.35,0-2.16-1.09-3.13-1.77-5.21-3.65-10.79-6.28-17.25-6.69-2.29-.15-3.41-1.27-3.83-3.67a62.3,62.3,0,0,1,3.14-33.29c2-5.27,5.31-9.93,8.89-14.32A3.27,3.27,0,0,1,1295.81,172.32Z"/><path class="cls-4" d="M1284.28,490.78c2.41,3.8,3.91,10.59,4.46,15-6.12,0-11.88-2.93-18-2.68-1.35.05-2.38-3.51-2.6-4.64a77.18,77.18,0,0,1-1-26.81,83.75,83.75,0,0,1,5.35-19.33c3-7.41,9.06-18.58,14.32-24.95-.23,2.9-3.4,65-3,64.25C1284,491.3,1284.13,491,1284.28,490.78Z"/><path class="cls-4" d="M1309.21,393.34a2.83,2.83,0,0,1-1.13,2.16c-3.79,3-6.95,6.7-10.4,10.12-7.72-13.46-7.4-42.42,5.15-54,1.93,4.05,4.74,7.42,7,11.16A80.77,80.77,0,0,0,1309.21,393.34Z"/><path class="cls-4" d="M1288.9,505.42c-.18-.07,3.92,11,4.18,11.55,1.06,2.34,1.9,4.78,3,7.11a40.2,40.2,0,0,0,6,9.57c1.75,2,6.52,4.39,5.09,7.63-6.15-.37-11.29-3.27-16.23-6.58-9.73-6.51-17.57-14.55-21-26.16-.7-2.39-5.74-8-3.24-7.86.45,0,5-2.93,5.42-2.77C1277.84,500.16,1283.2,503.23,1288.9,505.42Z"/><path class="cls-4" d="M1370.43,264.15c2,1.87,1.53,3.6-.21,5.37a46.41,46.41,0,0,1-23,13,50.17,50.17,0,0,1-16.41,1.41c-2.39-.25-3.07-1.25-3.15-3.31-.16-4.05-.2-8.11-1.41-12a3.15,3.15,0,0,1,1.19-3.86c1.64-1.14,2.9-3.13,5-3.45.46,1.61,2,2.63,3.62,3.18,7.73,2.68,15.81,4.2,23.67,6.48a10.64,10.64,0,0,0,2.78.56c2,.05,3.63-1.37,4.83-2.79C1367.7,268.36,1370.69,264.4,1370.43,264.15Z"/><path class="cls-4" d="M1346.85,517.07c1.24.91,1.15,2.41,1.57,3.67a142.73,142.73,0,0,0,18.22,35.91c1.31,1.89,3.36,3,4.43,5-1.81.72-3.64.16-5.37-.13-3.42-.58-5.67-1.89-6.63-6.14a60.15,60.15,0,0,0-15.59-29c-1.19-1.23-2-2.28-.43-3.79S1345,518.51,1346.85,517.07Z"/><path class="cls-4" d="M1311.07,291.48c1,5.78,0,11.7-.18,17.57s.52,12.43,4.4,17A57.34,57.34,0,0,1,1304.44,339c-.48.43-.93-4.56-.94-4.74,0-2.09,0-4.19.13-6.28a121.74,121.74,0,0,1,1.21-12.51,123.24,123.24,0,0,1,6.17-24.34Z"/><path class="cls-4" d="M1362.16,562.76a10.9,10.9,0,0,1-5.53-4c-6.45-8-15.18-13.55-20.12-22.66-.46-.84-.83-5.68-1.16-6.6-.74-2,3.46-3.93,5.34-5.26s2.89.55,4.09,1.57c2.9,2.49,4.79,5.92,6.65,9.25,4.79,8.54,10.3,16.74,11.25,27.38Z"/><path class="cls-4" d="M1324.68,268.27c1.47,4.42,1.08,8.39,1.47,12.25.23,2.32-1.41,3-3.22,2a23.93,23.93,0,0,1-4.26-3.52c-1.13-1-1-2.08-.09-3.23C1320.5,273.41,1321.78,270.51,1324.68,268.27Z"/><path class="cls-4" d="M1340.86,386.93l-.27,1.38-6.12-2.49c.07-.32.15-.64.22-.95Z"/><path class="cls-4" d="M1352.61,553.53l.13.65-.46-.48Z"/><path class="cls-5" d="M1409.2,546.08a68.94,68.94,0,0,0,11.27-30.72c2.23-18.07,2.07-36.28,2.49-54.45a16.36,16.36,0,0,0-2.26-7.86,44.8,44.8,0,0,0-18.79-19.54,78.66,78.66,0,0,0-31.79-9.63c-2.44-.16-3.12-1.12-3.48-3.2a51.24,51.24,0,0,0-1.67-7.13c-.54-1.69-.46-2.79,1.17-3.84a13.37,13.37,0,0,0,4.57-5.65c4.49-9.34,6.55-19.05,3.8-29.34-.38-1.4-.56-2.53.37-3.84,6.17-8.68,8.95-18.73,11-28.93a117.92,117.92,0,0,0-6.88-70.11,7.61,7.61,0,0,1,.12-7.22c8.78-17.16,10.41-34.93,3.77-53.25a141.57,141.57,0,0,0-8.32-19.37c-4.21-7.79-9.85-13.19-17-18.23-.48-.34-.95-.67-1.44-1a13.23,13.23,0,0,0-1.42-.8c-2.16-1-5.14-1.79-7.47-.95.86,2.13,2.91,3.53,5,4.57,10.14,5.15,16.25,14.13,21,24.24,4.51,9.62,7.87,19.91,8.5,30.51s-1.6,21.56-7.5,30.39c-3-5.77-10.29-7.48-16.74-8.12-9.56-.93-19.75-.75-28,4.12a5.05,5.05,0,0,1-2.85,1c-1.77-.13-2.73-2.07-3.43-3.7A52.37,52.37,0,0,0,1286.8,224a6.77,6.77,0,0,1-2.65-1c-1.28-1-1.6-2.72-1.79-4.31a67.27,67.27,0,0,1,1.5-24.56c3.12-12.15,10.44-24.76,23.37-28,10.65-2.71,22.44.53,31.49,6.38,12.76,8.25,20.14,22.63,25.31,36.92,1.48,4.1,2.87,8.32,5.43,11.84a15.42,15.42,0,0,0-.25-5.37,84.07,84.07,0,0,0-13-32.09c-3.24-4.83-6.62-8.94-11.37-12.3-13.24-9.38-37.54-20.23-51.38-5.7-7.76,8.14-13.37,17.77-15.48,29.14-1.67,8.93-2.45,17.84-.78,26.85.28,1.46.77,3-1.33,3.75-5.81,2.12-10.6,6-15.8,9.22a47.48,47.48,0,0,0-16.52,17.43c-3.85,6.79-7,13.9-10.18,21-9.18,20.67-12.34,42-7.75,64.39a64.09,64.09,0,0,0,11.36,25.8c6.45,8.62,15.61,11.46,24.63,7.43a68.63,68.63,0,0,0,24.56-18c2.46-2.89,5-4.29,8.58-3.88.38,0,1-.12,1.08.05.35.58-.09,1-.59,1.23-4,5.63-7.29,11.56-8.31,18.52-1.46,9.93-1,19.67,2.51,29.18,1,2.88,2.26,5.6,4.59,7.68,1,.47,3.22-.18,1.87,2.23-1.65,3.1-3.37,6.17-4.91,9.33a17.4,17.4,0,0,1-5.82,6.89,26.3,26.3,0,0,0-7.68,8.41c-6.07,10.33-11.07,21.12-13.61,32.91a130.51,130.51,0,0,0-2.39,20.95c-.25,4.92-.9,9.9-.12,14.81.48,3,1.08,4.14,3.14,6.08s3,5.06,4,7.67c5.47,13.84,18.21,25.32,32.23,30.19,9.58,3.32,19.24,1.11,27.11-5.05,1.61-1.26,2.77-4,5-3.36,1.84.5,2.14,3.15,3.13,4.84a68.76,68.76,0,0,0,23.41,24,12.87,12.87,0,0,0,2.55,1.26,14.17,14.17,0,0,0,4.06.49c10.43.23,19.63-1.48,28.21-7.83,1.07-.6,2.1-1.26,3.13-1.91A38.71,38.71,0,0,0,1409.2,546.08Zm-74.94-284.86c4-1.81,8.73-2.51,13-3.3,6.19-1.16,12.55-1.38,18.61.55a6.4,6.4,0,0,1,2.63,1.38c2,2,3.06,6.91,1,9a43.44,43.44,0,0,1-21.5,12.2,47.11,47.11,0,0,1-15,1.34,5.28,5.28,0,0,1-2-.48c-1.22-.68-1.28-2.2-1.36-3.43a50,50,0,0,0-1-8.71c-.59-2.48-.78-4.06,1.22-5.8A18.28,18.28,0,0,1,1334.26,261.22Zm-11.68,20.18a17.62,17.62,0,0,1-3.15-2.61,1.53,1.53,0,0,1-.07-2.39c1.43-1.76,2.37-3.91,4.52-5.57,1.09,3.27.8,6.21,1.09,9.07C1325.14,281.62,1323.92,282.12,1322.58,281.4Zm-31.65-54.35a60.1,60.1,0,0,1,13.37,9.21,86.83,86.83,0,0,1,14,16.16c1.65,2.46,1.64,5.49,3.22,8,.68,1.08-.19,2.64-1.09,3.76-1.81,2.26-3.7,4.46-5.36,6.82-1.23,1.76-2.5,2.2-4.1.73-10.58-9.75-21.07-19.57-24.32-34.5-.45-2.08-1.18-4.1-1.64-6.18-.28-1.24-1.36-2.82.14-3.72A5.6,5.6,0,0,1,1290.93,227.05Zm5.6,115.69a9.82,9.82,0,0,1-3.12.61,13.09,13.09,0,0,0-10,3.73c-.88,2.61-2.93,4.25-5,5.79-5.25,3.92-10.57,7.75-15.88,11.59a14.39,14.39,0,0,1-2,1.11c-8.3,4.23-13.07,2.85-18.27-3.43-6.88-8.31-11.57-18-12.3-29.06a171.56,171.56,0,0,1,1.45-35.66c1.7-11.9,6-23.36,11.4-34.17a78.65,78.65,0,0,1,13.55-19.87c5.38-5.59,12.56-9.26,19.25-13.07,2.63-1.5,2.82-1.31,3.68,1.65,1,3.22,1.8,6.47,2.73,9.69a53.25,53.25,0,0,0,14,23.28c3.89,3.87,8,7.54,12.16,11.11,1.79,1.53,2.22,2.66,1.1,4.95-8.63,17.61-12.64,36.19-11.25,55.83.07,1.06.12,2.13.26,3.19A2.25,2.25,0,0,1,1296.53,342.74Zm8.31-10.9c0-3.49.17-7,.49-10.46.44-4.86,6.82-41.47,12.94-38.17,6.93,3.74,6.87,3.68,6.24,11.62a78.86,78.86,0,0,1-8.92,30.4,47.93,47.93,0,0,1-9.8,11.08A7.22,7.22,0,0,1,1304.84,331.84Zm3.66,9.35c12.46-11.75,19.08-29.17,20.61-46,.14-1.53.2-3.06.39-4.57.4-3.25.45-3.32,3.72-2.86,14.24,2,26.52-2.44,37.48-11.29.81-.65,1.37-1.66,2.53-1.85,1,.13,1.15.94,1.38,1.63,7.07,20.79,9.48,41.92,4.88,63.64a136.19,136.19,0,0,1-4.3,16.39c-2.46,7.09-6.27,13.17-12.56,17.5-6.84,7.05-14.3,8.22-24.12,3.47a68.72,68.72,0,0,1-24.87-19.55c-2.73-3.52-4.44-7.62-6.22-11.65A3.9,3.9,0,0,1,1308.5,341.19Zm12.9,45.23c-3.69,1.44-7.09,3.64-10.54,5.57-1.39.77-13,10.47-12.34,11.54-7.41-12.33-7.44-38.65,4.23-49.06,1.86,3.71,4.54,6.8,6.74,10.23a94,94,0,0,0,23.62,18.11c.94.5,1.9.94,2.84,1.41l6.17,2.07c9.61,2.41,17.63-1,25.62-7.6A49.87,49.87,0,0,1,1361,403.9c-4.91-7.63-11.6-12.48-19.17-16.24l-6.13-2.49A24.38,24.38,0,0,0,1321.4,386.42Zm-13,154.22c-6.15-.37-11.29-3.28-16.23-6.59-5.94-4-12.78-9.15-16-15.65a83.06,83.06,0,0,1-8.64-30.88,72.14,72.14,0,0,1,.56-15.61,84,84,0,0,1,5.35-19.34c3-7.41,5.94-14.92,11.19-21.29a56.53,56.53,0,0,1-1.58,8.49c-2.18,9.46-2.17,19-2.11,28.6,0,6.85.3,13.71.47,20.56a14.57,14.57,0,0,0,.15,2.73c.06.26.12.55.2.83a8.84,8.84,0,0,1,2.61.52,7.69,7.69,0,0,1,.43-1.14c.15-.26.31-.52.47-.78-.34-6.57,0-13.12.18-19.69.29-10.76,1-21.44,3.34-32,2.19-9.89,6.94-18.53,11.89-27.14,4.72-8.19,11.85-13.86,19.8-18.6,6.78-4.05,13.53-3.6,20.52-.18,11.79,5.77,18.37,15.19,20.66,27.92.41,2.26.1,3.64-2.29,4.63-10.49,4.36-16.74,13-21.84,22.56-6.86,13-9.44,28.63-11.73,43-.13.79-.07,1.88.72,2.06s1.31-.76,1.54-1.52c3.11-10,5.19-20.31,8.67-30.18,4.27-12.13,11.26-24.88,23.21-30.86,2.68-1.34,2.94-1.17,3.19,2a110.62,110.62,0,0,1-2.51,33.35c-2.49,10.82-7.15,21-11.18,31.36-.83,2.12-1.6,4.3-2.39,6.49-1.82,5-3.78,10-6.9,14.18a4.59,4.59,0,0,1-1.9,1.68c-2.19.81-6.1-2.28-6.24-4.46-.41-6.3.74-12.26,1.77-18.44a1.91,1.91,0,0,0-.31-1.77c-.74-.65-1.84.16-2.41,1-3.72,5.29-3.86,13.67-4.22,19.91a16,16,0,0,0,.93,7c.87,2.13,2.82,4,2.51,6.49a2.19,2.19,0,0,1-.53,1.22C1323.76,536.8,1317.44,541.74,1308.41,540.64Zm70.86,19.22c-9.45,3.13-19-.81-26.33-6.92-5.71-4.8-11.7-12.35-14.55-19.27a4,4,0,0,1-.41-2.07,4.34,4.34,0,0,1,.63-1.43c2.31-3.86,5.14-7.37,7.42-11.21a68.85,68.85,0,0,0,4.61-9.65q3.55-8.9,6.81-17.9c3.14-8.72,7-17.78,8.62-26.93a143.77,143.77,0,0,0,2.12-31.47c-.22-4.48.07-5.05,4.47-4.25,11.32,2.08,22.37,4.94,31.77,12.16A45.54,45.54,0,0,1,1416,454.43a13.94,13.94,0,0,1,1.86,8.36c-.43,5.49-.67,11-1.18,16.46-.84,9,0,18-.8,27-1,11.41-3.54,22.32-9.1,32.41C1401,549.07,1390.41,556.16,1379.27,559.86Z"/><path class="cls-3" d="M985.39,102.29a21.7,21.7,0,0,1-1.78,14.29C979.38,125.8,971.83,132,964,137.83c-6.18,4.56-13.43,7.14-20.72,10.28.21-1.69,1.51-2.08,2.31-2.7a133.54,133.54,0,0,0,15.94-15.06c1.12-1.21,2.23-2.48,2.16-4.21-1.19-1-1.8-.18-2.45.4-3.07,2.74-6,5.64-9.3,8.12a7.88,7.88,0,0,1-3.59,1.88,66.78,66.78,0,0,1-24.57,15.27,99.4,99.4,0,0,1-35.47,6,41,41,0,0,1-9.89-1.71c-3.83-1-5.86-4.1-8.54-6.47-.45-.77-1.29-1-2-1.31,5.28-16.37,11.69-32.14,23.58-45A63.13,63.13,0,0,1,905.23,92c9.87-5.94,20.34-10.51,31.72-12.69a21.62,21.62,0,0,1,10,0,58.1,58.1,0,0,1,24.64,6.07C978.49,88.93,983.52,94.6,985.39,102.29Z"/><path class="cls-4" d="M949.63,137c.51-4.21,3.9-6.74,6-10,3.54-5.56,6.91-11.12,8.1-17.76,1.28-7.15-.47-13.66-4-19.75-1.48-2.54-4.09-4-6.48-5.7-1.72-1.2-3.93-1.82-4.94-3.93A58,58,0,0,1,972.89,86c6.93,3.48,12,9.14,13.82,16.84a21.71,21.71,0,0,1-1.78,14.29c-4.23,9.22-11.77,15.45-19.65,21.25-6.18,4.55-13.42,7.14-20.72,10.28.21-1.7,1.51-2.09,2.31-2.7a132.78,132.78,0,0,0,15.94-15.06c1.13-1.21,2.24-2.48,2.16-4.21-1.19-1.05-1.8-.18-2.45.4-3.07,2.74-6,5.64-9.3,8.11A7.65,7.65,0,0,1,949.63,137Z"/><path class="cls-5" d="M865,148.29c2.45-19.66,11.21-36.28,24.64-50.56a67.67,67.67,0,0,1,14.13-10.87,97.74,97.74,0,0,1,29.51-12.19c13.81-3.17,27-.21,39.76,5.17,5.26,2.22,9.46,6.18,13,10.67,6.25,8,6.63,16.81,3.33,26a41.15,41.15,0,0,1-10.26,15.55,83.74,83.74,0,0,1-23.94,16.66c-6.12,2.77-12.14,6.2-18.81,7.07-12.57,1.66-24.74,5.42-37.36,6.68a62,62,0,0,1-12.34.25,27.86,27.86,0,0,1-13.33-4.41c-1.71-2.13-4-3.78-5.15-6.38.24-1,.56-2,1.72-2.35,2.67,2.37,4.7,5.45,8.54,6.47a40.94,40.94,0,0,0,9.88,1.71,99.4,99.4,0,0,0,35.47-6,66.54,66.54,0,0,0,24.57-15.28,7.72,7.72,0,0,0,3.59-1.87c3.3-2.48,6.23-5.38,9.3-8.12.65-.58,1.26-1.44,2.45-.39.08,1.72-1,3-2.16,4.2a132.78,132.78,0,0,1-15.94,15.06c-.8.61-2.1,1-2.31,2.7,7.3-3.14,14.54-5.73,20.72-10.28,7.88-5.79,15.42-12,19.65-21.25a21.71,21.71,0,0,0,1.78-14.29c-1.87-7.69-6.89-13.36-13.82-16.84a58.17,58.17,0,0,0-24.63-6.07,21.48,21.48,0,0,0-10,0C925.57,81.52,915.1,86.09,905.24,92a62.94,62.94,0,0,0-13.84,11.22c-11.88,12.91-18.3,28.68-23.58,45C866.87,149.24,865.92,150,865,148.29Z"/><path class="cls-3" d="M1364.93,22.26A30.7,30.7,0,0,1,1356.4,31c-10.27,7-21.11,12.8-33.3,15.56-8.44,1.91-17,3.56-25.69,1.24-7.65,1.07-14.14-1.82-20.2-6-4-2.75-4.89-5.86-3-10.32a20.73,20.73,0,0,1,7.67-9.46c5-3.2,9.93-6.49,15.15-9.36,10.25-5.62,21.42-6.65,32.74-6.9,3.58-.08,7.32-.89,10.77.93,7.84-.53,15.08,1.57,21.85,5.3C1367.07,14.56,1367.81,17.83,1364.93,22.26Z"/><path class="cls-4" d="M1292.47,49.87a1.93,1.93,0,0,1,2.08-1.67c8.3-.4,16-2.8,23.65-5.76a61.22,61.22,0,0,0,21.74-14.2c6.74-6.85,6.62-11.81,1.21-17.65-1-1-2.87-5.18-2.68-6.54,8.61-.54,17.94,4.72,25.38,8.6,5.1,2.66,5.91,6,2.75,10.65a32.69,32.69,0,0,1-9.36,9.12c-11.28,7.26-23.18,13.3-36.56,16.16C1311.4,50.57,1302,52.28,1292.47,49.87Z"/><path class="cls-5" d="M1307,53.65c-9.74,0-19.22-1.21-27.84-6.24-1-.61-2.14-1.17-3.17-1.82-8.09-5.06-8.08-13-3.36-18.92,10.58-13.25,23.9-22.64,41.07-25.41a109.48,109.48,0,0,1,38.29,1,40.68,40.68,0,0,1,14,5.57c7.28,4.56,8.63,11.41,3.67,18.36a40.14,40.14,0,0,1-10.93,10.28c-10.69,7-22,12.54-34.45,15.55A63.14,63.14,0,0,1,1307,53.65Zm-9.69-4.86c12.82,1.18,25.77-1.27,37.66-6.07,11-4.42,25.56-11.16,30.87-22.41a6.29,6.29,0,0,0,.79-3.77c-.34-1.75-1.9-3-3.43-3.89a42,42,0,0,0-8.85-3.8,79.63,79.63,0,0,0-73.88,14.59,23.74,23.74,0,0,0-5.38,5.85,10,10,0,0,0-1.34,7.65c.79,2.86,3.16,5,5.67,6.57,4.87,3,10.59,4.45,16.28,5.11Z"/><path class="cls-3" d="M1027.77,538a30.73,30.73,0,0,1-12,2.37c-12.42-.07-24.65-1.44-36.25-6.09-8-3.22-16-6.72-21.85-13.57-6.91-3.46-10.61-9.52-13.21-16.42-1.71-4.52-.7-7.6,3.41-10.18a20.75,20.75,0,0,1,11.69-3.44c5.92.2,11.86.3,17.78.9,11.63,1.19,21.41,6.69,30.87,12.91,3,2,6.53,3.42,8.34,6.88,6.76,4,11.52,9.85,15,16.77C1033.9,532.87,1032.66,536,1027.77,538Z"/><path class="cls-4" d="M952.45,519.59a1.93,1.93,0,0,1,2.66-.2c7,4.39,14.77,6.79,22.74,8.69a61.26,61.26,0,0,0,26,.65c9.43-1.81,12.15-6,11-13.84-.2-1.38.58-5.89,1.51-6.9,7.39,4.43,12.09,14.06,16,21.48,2.69,5.09,1.43,8.34-3.79,10.34a32.84,32.84,0,0,1-12.88,2.19c-13.4-.43-26.63-2.22-39.27-7.46C967.64,530.91,958.93,527,952.45,519.59Z"/><path class="cls-5" d="M962.28,531c-8-5.54-15.14-11.91-19.37-20.94-.52-1.1-1.1-2.18-1.58-3.3-3.79-8.76.73-15.29,8-17.48,16.23-4.9,32.52-5.07,48.23,2.4a109.25,109.25,0,0,1,31,22.52,40.67,40.67,0,0,1,8.35,12.52c3.4,7.88.62,14.29-7.41,17.19a40.16,40.16,0,0,1-14.83,2.27c-12.78-.3-25.21-2.16-37.19-6.76A63.5,63.5,0,0,1,962.28,531Zm-5.22-9.51c9.88,8.26,21.93,13.6,34.45,16.39,11.52,2.58,27.37,5.33,38.13-.92a6.28,6.28,0,0,0,2.79-2.65c.72-1.63.13-3.53-.61-5.15a41.39,41.39,0,0,0-5.13-8.15A79.6,79.6,0,0,0,957.59,491a23.57,23.57,0,0,0-7.75,1.75,10.09,10.09,0,0,0-5.45,5.55c-1,2.8-.24,5.91.94,8.63,2.29,5.26,6.19,9.66,10.51,13.44C956.24,520.76,956.65,521.11,957.06,521.45Z"/><path class="cls-1" d="M466.39,415.92a3.13,3.13,0,0,1,1.68-1c2.29-.63,5.24,1.84,7.07,2.85a195.12,195.12,0,0,0,19,9.09,306.58,306.58,0,0,0,40.54,13.23,322.9,322.9,0,0,0,50.86,9.14c48.3,4.62,97.23,2.47,145.18-4.77,14.67-2.22,29.2-4.83,43.69-8.1,22.92-5.2,45.39-12.39,67.48-20.37.94-.34,6.29-1.55,6.29-2.83.46-1.4-2.51-1.26-3.51-1.35a102.87,102.87,0,0,1-16.43-2.85c-2.15-.56-4.94-1.63-4.52-4.37.31-2,1.92-2.86,5.2-2.51s6.23,1,9.36,1.31c10.38,1.12,20.74,3,31.22.78a6.56,6.56,0,0,1,3.93.32c5.31,2.25,1.58,7.73.46,11.51-2.32,7.9-4,15.85-7.37,23.38a96.67,96.67,0,0,1-5.91,11.1c-2,3.15-4.14,7.5-7,9.92a2,2,0,0,1-1.69.52c-2.43-.56-1.09-4.11-.46-5.48,1.59-2.38,2.55-5.55,3.74-8.16s2.6-5.41,3.73-8.18a99.06,99.06,0,0,0,3.23-9.54c.82-2.85,2.21-6.15,2.48-9.1.24-2.69-1.67-2.33-3.43-1.57a443.3,443.3,0,0,1-48.84,17.44c-46,13.93-93.22,21.47-141.16,23.78-16.46.8-32.86.81-49.33.29C576,459,530.49,451.43,488.62,432c-3.34-1.56-6.52-3.32-9.79-5-3.74-1.92-9.63-4.92-12.25-8.29A2.14,2.14,0,0,1,466.39,415.92Z"/><path class="cls-2" d="M1114.42,415.1c-14.88-.35-30.22-4.74-43.77-8.47-8.62-2.38-16-6.48-21.06-14.17-12.27-18.77-.77-41.16,16.45-52a39,39,0,0,1,17.31-5.42c4.89-.45,9.26,1.39,13.35,3.91a7.5,7.5,0,0,1,2.92,3.27c1.2,2.66,3.2,3.51,6,3.72a117.39,117.39,0,0,1,22.59,4.12c12.32,3.35,24,11.6,27.32,24.48,3.09,12.09-2,27.13-12.57,34C1134.77,413.93,1124,415.33,1114.42,415.1Zm-3.55-7c3.71-.18,7.42-.06,11.15-.42a60.11,60.11,0,0,0,14-3.24,18.57,18.57,0,0,0,7-4.22,27.5,27.5,0,0,0,8.13-15.95c.5-3.25,1-6.59.1-9.88-.56-2-.81-4.17-2.14-5.76a44.16,44.16,0,0,0-6.72-6.6c-5.29-4.09-11.56-5.68-17.91-7.05-3.34-.73-6.75-1-10.15-1.45-4.85-.59-9.69-1.24-14.57-1.5-2.85-.15-5.71,0-8.56-.05a24.72,24.72,0,0,0-7.55,1,59,59,0,0,1-6.6,1.37c-1,.16-2.07.13-2.42-1.12a1.84,1.84,0,0,1,1.24-2.12c3.15-1.6,6.16-3.52,9.65-4.37a39.25,39.25,0,0,1,11.06-1.22c.47,0,1,.06,1.23-.53a1.08,1.08,0,0,0-.62-1.22c-1.71-1-3.45-1.87-5.2-2.78-3.88-2-8.1-1.9-12.08-1a37.25,37.25,0,0,0-13.15,6.44,44.49,44.49,0,0,0-8.53,8.48c-3.35,4.19-6,8.66-7.06,14-.38,1.87.07,3.78-.46,5.55-.83,2.73,0,5.23.79,7.72,1.69,5.51,5.14,9.88,9.31,13.73a19.7,19.7,0,0,0,10.62,5.21,130.54,130.54,0,0,1,15.48,3.35C1094.7,406.7,1102.58,408.81,1110.87,408.08Z"/><path class="cls-1" d="M1110.87,408.08c-8.29.73-16.17-1.38-24-3.61a130.54,130.54,0,0,0-15.48-3.35,19.7,19.7,0,0,1-10.62-5.21c-4.17-3.85-7.62-8.22-9.31-13.73-.76-2.49-1.62-5-.79-7.72.53-1.77.08-3.68.46-5.55,1.07-5.36,3.71-9.83,7.06-14a44.49,44.49,0,0,1,8.53-8.48,37.25,37.25,0,0,1,13.15-6.44c4-.92,8.2-1,12.08,1,1.75.91,3.49,1.82,5.2,2.78a1.08,1.08,0,0,1,.62,1.22c-.18.59-.76.55-1.23.53a39.25,39.25,0,0,0-11.06,1.22c-3.49.85-6.5,2.77-9.65,4.37a1.84,1.84,0,0,0-1.24,2.12c.35,1.25,1.46,1.28,2.42,1.12a59,59,0,0,0,6.6-1.37,24.72,24.72,0,0,1,7.55-1c2.85.08,5.71-.1,8.56.05,4.88.26,9.72.91,14.57,1.5,3.4.42,6.81.72,10.15,1.45,6.35,1.37,12.62,3,17.91,7.05a44.16,44.16,0,0,1,6.72,6.6c1.33,1.59,1.58,3.78,2.14,5.76.92,3.29.4,6.63-.1,9.88A27.5,27.5,0,0,1,1143,400.2a18.57,18.57,0,0,1-7,4.22,60.11,60.11,0,0,1-14,3.24C1118.29,408,1114.58,407.9,1110.87,408.08Z"/><path class="cls-5" d="M1292.52,635.27c.11-1.51-.92-2-1.68-2.53-9-6.69-17.66-13.8-27.9-18.59-1.39-.66-3.36-1.35-2.53-3.39.76-1.86,2.72-1.33,4.26-1,4.78,1,9,3.24,13.08,5.81,11.08,7,21.34,15.13,31.56,23.31a14.92,14.92,0,0,1,1.56,1.52c2.72,2.89,2.84,5,0,7.9-2.67,2.66-5.6,5.08-8.51,7.48-4.4,3.62-9.36,6.38-14.25,9.26-4.11,2.43-8.68,3.23-13.24,4.18-1.51.31-3.12.37-3.77-1.25s.63-2.69,1.88-3.52c6.4-4.28,12.8-8.57,19.25-12.78a92.34,92.34,0,0,0,8.71-6.24c-1.94-1.38-3.72-.95-5.33-1-32.86-.92-192.73-.95-225.6-.58q-47.34.52-94.67,1c-22.54.25-45.09.46-67.63.85-29.08.49-58.16,1-87.23,1.76q-42.09,1.1-84.19,1.73-48.19.75-96.4,1.74c-28.93.54-57.87,1-86.8,1.72-32.85.77-65.7,1.72-98.56,2.64q-28.12.78-56.25,1.68c-33.71,1.15-67.43,2.26-101.14,3.62-37.19,1.5-74.35,3.8-111.56,5-15.84.49-31.7.58-47.54,1.09-26.89.87-53.77,2-80.65,2.88-13.43.45-26.87.94-40.3.12a36.89,36.89,0,0,1-7.54-1.18c-1.17-.33-2.24-.94-2-2.49.28-1.93,2.23-1.47,3.61-1.45,10.48.15,20.93-.4,31.39-1,22-1.34,44.11-2.75,66.18-4,11.76-.64,23.53-1,35.31-1.33q56.25-1.56,112.43-5c27.58-1.67,55.17-3,82.79-3.86,25.14-.75,50.28-1.73,75.42-2.57,26.89-.89,53.78-1.71,80.67-2.63,23-.78,45.93-1.29,68.9-1.77q55-1.17,109.93-1.75,27.93-.34,55.84-.86c26.61-.53,53.21-1.07,79.82-1.79,32.13-.87,64.26-1.58,96.4-1.73,74.32-.34,275.64-1,350-.85,10.76,0,21.52.21,32.28.3C1289.81,635.64,1291.27,636,1292.52,635.27Z"/><path class="cls-5" d="M1257.52,709.09c0-.94.07-1.88.16-2.81.15-1.56.84-4-.77-5-3-2-13.58,7-15.38,3.62a1.81,1.81,0,0,1,.41-2,8.12,8.12,0,0,1,2.77-2.08,33.81,33.81,0,0,1,9.66-3.93c4.62-.9,3.91-5.49,4.56-9.06a17.73,17.73,0,0,1,.9-3.36,2.74,2.74,0,0,1,3.1-1.88,2.61,2.61,0,0,1,2.06,2.53,30,30,0,0,1,0,3.91c-.19,5.49-.21,5.45,5,4.82a51.37,51.37,0,0,1,6.08-.31c.94,0,2.31-.18,2.35,1.25,0,1-1.11,1.2-2,1.38-2.84.59-5.7,1.12-8.54,1.72-3.48.74-3.51.76-3.62,4.23a74.2,74.2,0,0,0,.54,13.49,17,17,0,0,0,.73,3.4c1,2.68,2.32,3.35,5.07,2.45,3.88-1.27,7.38-3.37,11-5.27,2.31-1.22,4.6-2.49,7-3.57,1.12-.51,2.74-1.42,3.54,0s-.58,2.62-1.77,3.5-2.62,1.83-3.91,2.77c-2.94,2.12-5.87,4.27-8.82,6.39-1.06.76-2.13,1.52-3.26,2.17-4.24,2.43-9.54,2.9-13-1.12-3-3.52-3.76-8.52-3.92-13C1257.52,711.92,1257.49,710.5,1257.52,709.09Z"/><path class="cls-7" d="M988.81,253.36c8.65-14.43,21.84-19,40.16-13.73a27.94,27.94,0,0,1,7.61,2.92c7.16,5.15,13.76,11.12,17.51,19.09,3.11,6.6,7.76,9.23,14.49,9.53a95.7,95.7,0,0,0,14.76-.1,41,41,0,0,1,11,1.21,1.76,1.76,0,0,0,2,.54l1.29.29c2.1,2,5.27,2,7.33,4.3a39.85,39.85,0,0,1,10.17,21c1.55,9.92-1.79,17.5-9.27,23.39-7,5.51-14.36,3.37-21.66.19-8.06-3.52-15.16-8.59-22.45-13.4-2.74-1.81-5.75-3.94-9.5-2.44-.81.49-1.61,1-2.41,1.49-1.45,6.08.29,11.38,4.13,16.07,1.64,2,3.83,3.58,5.33,5.66,3.82,5.29,9,8.67,14.89,11,9.59,3.8,18.68,8.4,26.5,15.28,13.76,12.11,2.25,38-13.77,41.72a13.33,13.33,0,0,1-2.74.33c-3.14,0-6.25-.93-9.39-.68-9.23.74-15.46-3.55-20.8-10.12-2.06-2.53-4.11-5-6.94-6.76a16.2,16.2,0,0,1-3-5c-.38-1-.74-2-1.15-3.05-3-7.56-9-12.92-13.87-19.17-7.1-9.16-16.16-14.39-27.4-16.5-7.23-1.35-14.64-2.16-21.51-5-7.52-3.08-14.37-7.14-15.79-16.23-.79-5.09.27-10,1.35-15,2.75-12.72,7.18-24.62,15.14-35.09C983.64,261.33,987.41,258.14,988.81,253.36Zm73.42,22.34c1.27,6.75,5.24,9.89,9.78,12.52,1.37.79,2.75,1.49,2.37,3.37-.44,2.25-2.29,2-3.92,2-7.26-.21-13.24-3.09-16.34-9.79-3.52-7.6-8.13-14.49-12.62-21.49-2.6-4.06-5.62-7.86-10.33-9.62a63,63,0,0,0-11-3.32c-7.9-1.4-15.05.06-20.07,7.06-3.66,5.1-7.09,10.37-10.82,15.42-7.93,10.74-11.26,23.21-13.91,36-1,5.09.7,9.15,5.1,11.73,5.25,3.08,11.14,3.5,16.9,4.52,13,2.29,24.77,7.13,33.59,17.26a238.6,238.6,0,0,1,23.88,33.23c2.81,4.62,4.82,9.79,9.72,13,13.3,8.76,32.6-3.18,33.81-18.88.28-3.61-.42-7-3.19-9.36-3.41-2.93-6.91-5.84-11.32-7.26-12.16-3.92-23.43-9.28-31.78-19.45-4.8-5.85-9.37-11.86-11-19.42-2.11-9.76,2.05-16.89,12.67-16.46a29.66,29.66,0,0,1,16.92,6.16,117.36,117.36,0,0,0,20.66,12.28c3.85,1.83,7.28,1.48,10.49-1.54,5.6-5.25,5.29-11.79,3.47-18.17s-5.6-10.88-13.25-12.08C1082.17,281.85,1071.5,283.11,1062.23,275.7Z"/><path class="cls-7" d="M988.81,253.36c-1.4,4.78-5.17,8-8,11.74-8,10.47-12.39,22.37-15.14,35.09-1.08,5-2.14,9.92-1.35,15,1.42,9.09,8.27,13.15,15.79,16.23,6.87,2.81,14.28,3.62,21.51,5,11.24,2.11,20.3,7.34,27.4,16.5,4.84,6.25,10.85,11.61,13.87,19.17.41,1,.77,2,1.15,3.05-3-4.11-6-8.17-8.83-12.34a84.74,84.74,0,0,0-18.59-19.62c-4.43-3.38-10-4.38-15.28-5.67-5-1.23-10.24-1.84-15.34-2.89a38.5,38.5,0,0,1-15.24-6.9,19.22,19.22,0,0,1-7.93-19.14C965.8,287.53,974,268.89,988.81,253.36Z"/><path class="cls-7" d="M1105.75,375c1.88-7.39,1-14-5.07-19.38-7.82-6.88-16.91-11.48-26.5-15.28-5.91-2.33-11.07-5.71-14.89-11-1.5-2.08-3.69-3.66-5.33-5.66-3.84-4.69-5.58-10-4.13-16.07a16.13,16.13,0,0,0,2.07,8.26c6.59,12.17,16,21.07,29.43,25.29,7.69,2.41,14.68,6,20.27,12C1107.68,359.62,1109.24,368,1105.75,375Z"/><path class="cls-7" d="M1052.24,306.12c3.75-1.5,6.76.63,9.5,2.44,7.29,4.81,14.39,9.88,22.45,13.4,7.3,3.18,14.68,5.32,21.66-.19,7.48-5.89,10.82-13.47,9.27-23.39a39.85,39.85,0,0,0-10.17-21c-2.06-2.31-5.23-2.31-7.33-4.3a16,16,0,0,1,11.49,7.05c5.36,7.65,8.31,16,7.49,25.48-.8,9.27-6,15.34-13.76,19.64-3,1.67-6.33,1.53-9.64.87-10.08-2-18.49-7.46-26.74-13.16C1062.06,310,1057.83,306.65,1052.24,306.12Z"/><path class="cls-7" d="M1047,380.11c2.83,1.72,4.88,4.23,6.94,6.76,5.34,6.57,11.57,10.86,20.8,10.12a52.64,52.64,0,0,1,10.92.61C1069.9,404.22,1054.17,397.1,1047,380.11Z"/><path class="cls-7" d="M1083.34,271.07a95.7,95.7,0,0,1-14.76.1c-6.73-.3-11.38-2.93-14.49-9.53-3.75-8-10.35-13.94-17.51-19.09,5.84,1.39,9.29,6,13.06,10a16.26,16.26,0,0,1,3.12,4.8c4.22,10.45,13,12.58,22.91,12.92C1078.24,270.39,1080.87,270,1083.34,271.07Z"/><path class="cls-7" d="M1096.73,391.19a5.8,5.8,0,0,1,3.62-3.66A6.93,6.93,0,0,1,1096.73,391.19Z"/><path class="cls-7" d="M1096.33,272.82a1.76,1.76,0,0,1-2-.54A1.64,1.64,0,0,1,1096.33,272.82Z"/><path class="cls-7" d="M1093.43,393.58a1.37,1.37,0,0,1,1.6-1.1A1.63,1.63,0,0,1,1093.43,393.58Z"/><path class="cls-7" d="M1091,395.14a1.38,1.38,0,0,1,1.61-1A1.55,1.55,0,0,1,1091,395.14Z"/><path class="cls-8" d="M1062.23,275.7c9.27,7.41,19.94,6.15,29.83,7.7,7.65,1.2,11.42,5.64,13.25,12.08s2.13,12.92-3.47,18.17c-3.21,3-6.64,3.37-10.49,1.54a117.36,117.36,0,0,1-20.66-12.28,29.66,29.66,0,0,0-16.92-6.16c-10.62-.43-14.78,6.7-12.67,16.46,1.63,7.56,6.2,13.57,11,19.42,8.35,10.17,19.62,15.53,31.78,19.45,4.41,1.42,7.91,4.33,11.32,7.26,2.77,2.38,3.47,5.75,3.19,9.36-1.21,15.7-20.51,27.64-33.81,18.88-4.9-3.22-6.91-8.39-9.72-13A238.6,238.6,0,0,0,1031,341.34c-8.82-10.13-20.6-15-33.59-17.26-5.76-1-11.65-1.44-16.9-4.52-4.4-2.58-6.15-6.64-5.1-11.73,2.65-12.78,6-25.25,13.91-36,3.73-5,7.16-10.32,10.82-15.42,5-7,12.17-8.46,20.07-7.06a63,63,0,0,1,11,3.32c4.71,1.76,7.73,5.56,10.33,9.62,4.49,7,9.1,13.89,12.62,21.49,3.1,6.7,9.08,9.58,16.34,9.79,1.63.05,3.48.26,3.92-2,.38-1.88-1-2.58-2.37-3.37C1067.47,285.59,1063.5,282.45,1062.23,275.7Z"/></g></g></svg>