<?xml version="1.0" encoding="UTF-8" standalone="no"?>
<svg
   xmlns:dc="http://purl.org/dc/elements/1.1/"
   xmlns:cc="http://creativecommons.org/ns#"
   xmlns:rdf="http://www.w3.org/1999/02/22-rdf-syntax-ns#"
   xmlns:svg="http://www.w3.org/2000/svg"
   xmlns="http://www.w3.org/2000/svg"
   height="316.69"
   width="1588.87"
   id="svg108"
   version="1.1"
   viewBox="0 0 1588.87 316.69">
  <metadata
     id="metadata112">
    <rdf:RDF>
      <cc:Work
         rdf:about="">
        <dc:format>image/svg+xml</dc:format>
        <dc:type
           rdf:resource="http://purl.org/dc/dcmitype/StillImage" />
        <dc:title>slide_18</dc:title>
      </cc:Work>
    </rdf:RDF>
  </metadata>
  <defs
     id="defs4">
    <style
       id="style2">.cls-1{fill:#e74c8a;}.cls-2{fill:#b13e6d;}.cls-3{fill:#a43664;}.cls-4{fill:#f3edef;}.cls-5{fill:#39262f;}</style>
  </defs>
  <title
     id="title6">slide_18</title>
  <g
     transform="translate(436.83902)"
     data-name="Layer 2"
     id="Layer_2">
    <g
       data-name="Layer 1"
       id="Layer_1-2">
      <path
         style="fill:#e74c8a"
         id="path8"
         d="m 21.92,316.69 c -1.55,-2.59 -4.55,-3.67 -6.29,-6.05 -0.75,-1 -1.72,-2 -1.91,-3.35 1.16,-0.39 1.78,0.44 2.51,1.08 2.26,2 4.55,4 6.8,6.07 1.13,1 2.39,2.17 3.81,1 1.77,-1.44 -0.39,-2.22 -0.94,-3.22 a 12.25,12.25 0 0 0 -1.73,-2.33 C 11.86,296.52 7.33,280.09 5.85,262.57 c -1,-11.8 2.3,-23.13 4.37,-34.58 4.35,-24.14 22.49,-42.18 46.72,-46.67 9.89,-1.83 20,-2.83 29.59,-6 13.72,-4.49 26.31,-11.42 38.94,-18.24 a 55.8,55.8 0 0 0 10.35,-6.79 c 0.75,-0.65 2.14,-1.46 1.24,-2.63 -0.74,-1 -1.77,0.19 -2.56,0.57 -9.88,4.75 -19.73,9.57 -29.6,14.33 a 21.39,21.39 0 0 1 -7,2.46 c 1.1,-2.87 2.3,-5.24 3,-7.83 1.9,-6.78 0.8,-13.73 1.25,-20.58 0.6,-9.08 2.07,-17.47 8.44,-24.57 5,-5.55 9.26,-11.72 17.28,-13.18 a 133.56,133.56 0 0 1 20.95,-2.47 C 159.16,96.13 169,94.11 177.12,86.7 A 95.82,95.82 0 0 0 194,66.7 c 11,-17.65 25.83,-31.6 42.6,-43.5 17,-12 37,-15 56.94,-17.21 16,-1.77 30.93,3.93 45.69,9.33 9.13,3.34 17,8.81 24.71,14.65 7.09,5.38 12.81,12.28 19.92,17.63 4.41,4.6 9.79,7.84 15.3,10.89 0.63,1.15 1.83,1.56 2.87,2.16 5,2.85 10.11,5.31 15.31,7.7 18,8.26 36.29,15.17 56.16,17 3.36,0.31 6.8,0.62 10.15,-0.4 0.66,-0.2 1.63,-0.24 1.59,-1.19 -0.06,-1.25 -1.16,-1 -2,-1 a 104.69,104.69 0 0 1 -31.91,-6.34 c -3,-1.15 -6.67,-1 -9.64,-4.16 6.72,0 12.85,0.54 18.85,-0.11 12.59,-1.38 24.62,-5.37 36.75,-8.89 23.31,-6.75 46.88,-10.4 71.15,-5.51 17.1,3.44 32.36,10.25 44.75,22.84 15.24,15.48 25,34 30.31,54.9 1.14,4.47 2.38,9 1.95,13.62 -0.49,5.31 -1.17,10.6 -1.26,15.95 -0.07,3.64 -0.16,7.26 -0.49,10.91 -0.53,5.91 -1,12 0.23,17.84 2.44,11.09 9.65,19.25 17.84,26.47 6.27,5.54 13.32,10.19 19.6,15.71 6.48,5.69 12.88,11.65 16.5,19.75 a 138.2,138.2 0 0 1 9.95,34.16 c 0.75,4.64 1.42,9.3 2,14 0.09,0.79 -0.54,1.78 0.55,2.15 1.29,0.44 1.53,-0.81 2.07,-1.57 2.24,-3.14 0.56,-6.37 0.11,-9.51 -0.92,-6.46 -2.74,-12.77 -3.16,-19.32 5.5,12.14 7.35,24.73 4.63,37.88 -0.21,1.05 -0.73,2.07 -0.33,3.19 z m 256,-60 0.65,-0.75 c 3.54,-6.4 6.44,-13 6.7,-20.46 2,-9.7 0.15,-18.64 -6.22,-26.17 a 46.29,46.29 0 0 0 -19.31,-13.73 c -12.09,-4.54 -23.9,-5.22 -35.61,0.65 -7.53,3.78 -12.61,9.95 -16.58,17.37 -8.12,15.18 -7.25,35.32 6.14,48.57 2.2,2.18 2.32,2.93 -0.86,4.26 -7.06,3 -14,6.22 -19.87,11.36 -1.23,1.09 -2.83,2.61 -1.54,4.36 1.29,1.75 2.84,0.2 4.12,-0.58 16.4,-10 34.42,-14.27 53.38,-15.38 14.87,-0.88 29.31,1.48 43.56,5.43 1.55,0.43 3.35,1 4.17,-0.89 0.82,-1.89 -0.64,-3.09 -2.23,-4 -4.27,-2.4 -8.73,-4.61 -13.52,-5.35 -3.56,-0.55 -3.78,-2 -3,-4.72 z m 139.24,-67.5 a 72.66,72.66 0 0 0 -25.55,8.36 30.79,30.79 0 0 0 -9.45,7.37 c -12.51,15.51 -13.49,41.45 1.07,57.13 1.52,1.63 1.79,2.32 -0.82,2.89 a 63.77,63.77 0 0 0 -17.31,6.68 6.52,6.52 0 0 0 -3.64,4.29 c -0.18,0.82 -0.33,1.81 0.5,2.35 a 1.9,1.9 0 0 0 2.35,-0.32 c 5.43,-4.2 11.93,-5.82 18.41,-7.3 a 187.75,187.75 0 0 1 29.91,-4 233.62,233.62 0 0 1 31,0 c 6.81,0.46 13.42,2.11 20.13,3.08 1.74,0.25 4.13,0.65 4.73,-1.53 0.6,-2.18 -1.7,-2.7 -3.19,-3.37 a 47.3,47.3 0 0 0 -14.78,-3.75 c -2,-0.2 -2.79,-0.69 -1.38,-2.65 a 59.9,59.9 0 0 0 4.4,-6.7 c 5.62,-10.54 9.12,-21.43 5,-33.47 -2.35,-7 -7.43,-11.85 -12.43,-16.88 -7.94,-7.94 -17.97,-10.67 -28.98,-12.14 z M 75.31,266.07 c 0,1.78 0,2.63 0,3.48 0.13,5.41 3.13,10.36 7.14,11.81 4.01,1.45 9.5,-0.53 12.81,-4.93 7.91,-10.49 10.59,-22.72 11.52,-35.49 0.11,-1.59 -0.31,-3.26 -1.9,-3.55 -1.82,-0.32 -2.7,1.34 -3.16,2.91 -0.82,2.79 -1.43,5.65 -2.3,8.43 -2.44,7.78 -4.87,15.59 -10.11,22.07 -1.06,1.31 -2.23,3.73 -4.12,3 -2.15,-0.86 -2.24,-3.56 -2.48,-5.73 a 18.53,18.53 0 0 1 0.33,-2.14 c 0.08,-4.42 2.91,-8.28 2.57,-12.8 -0.28,-3.8 -3.08,-5.39 -6.34,-3.44 A 15.75,15.75 0 0 0 74.42,254 c -4.89,6.8 -9.84,13.58 -15,20.2 -1.64,2.12 -3.56,5.25 -6.65,4.2 -3.09,-1.05 -3.48,-4.55 -3.75,-7.4 a 49.18,49.18 0 0 1 2,-18 c 3.51,-12.41 9.84,-23.53 15.48,-35 1,-2 3.07,-4.53 0.39,-6.1 -2.39,-1.4 -3.84,1.62 -5,3.21 -10.12,14.34 -18.16,29.68 -20.74,47.3 -1.05,7.21 -0.5,14.35 4.1,20.58 a 9,9 0 0 0 7.12,3.79 c 6.57,0.38 10.57,-3.68 14.13,-8.3 2.92,-3.74 5.5,-7.7 8.81,-12.41 z M 546.22,108.91 c -5.58,0.09 -11.18,-0.15 -16.73,0.82 -8.17,1.44 -16.2,3.24 -23.26,7.94 a 12.72,12.72 0 0 0 -4.82,5.79 c -0.66,1.57 -0.2,2.83 1.19,3.32 1.6,0.57 1,-1.15 1.38,-1.84 a 7.79,7.79 0 0 1 3.13,-3 44.51,44.51 0 0 1 10.47,-4.19 c 15.43,-4 31,-3.86 46.63,-1.56 26.43,3.9 47,17.39 63,38.43 0.93,1.22 1.57,3.27 3.53,2.18 1.96,-1.09 0.53,-2.8 -0.1,-4.11 -7,-14.51 -18.55,-24.48 -32.43,-32 C 582,112 564.53,108.6 546.22,108.91 Z m 7.22,33.09 a 17.69,17.69 0 0 0 -8.53,1.44 c -0.8,0.35 -1.57,0.93 -1.32,1.93 0.34,1.27 1.29,0.79 2.06,0.45 4.16,-1.83 8.5,-0.74 12.54,-0.1 17,2.68 33.8,6.23 50.11,11.79 0.71,0.24 1.42,0.72 2,0 0.58,-0.72 0.09,-1.69 -0.62,-2.19 a 11.83,11.83 0 0 0 -3.13,-1.8 c -5,-1.6 -9.92,-3.21 -15,-4.58 -12.49,-3.44 -25.14,-6.15 -38.11,-6.94 z"
         class="cls-1" />
      <path
         style="fill:#b13e6d"
         id="path10"
         d="M 383.92,47.64 C 376.81,42.29 371.09,35.39 364,30 356.31,24.16 348.42,18.69 339.29,15.35 324.53,10 309.6,4.26 293.6,6 c -19.94,2.2 -40,5.17 -56.94,17.21 -16.77,11.9 -31.58,25.85 -42.6,43.5 a 95.82,95.82 0 0 1 -16.88,20 c -8.12,7.41 -18,9.43 -28.3,9.69 a 133.56,133.56 0 0 0 -20.95,2.47 c -8,1.46 -12.31,7.63 -17.28,13.18 -6.37,7.1 -7.84,15.49 -8.44,24.57 -0.45,6.85 0.65,13.8 -1.25,20.58 -0.72,2.59 -1.92,5 -3,7.83 a 21.39,21.39 0 0 0 7,-2.46 c 9.87,-4.76 19.72,-9.58 29.6,-14.33 0.79,-0.38 1.82,-1.53 2.56,-0.57 0.9,1.17 -0.49,2 -1.24,2.63 a 55.8,55.8 0 0 1 -10.35,6.79 c -12.63,6.82 -25.22,13.75 -38.94,18.24 -9.63,3.15 -19.7,4.15 -29.59,6 -24.29,4.48 -42.43,22.52 -46.78,46.67 -2.07,11.45 -5.36,22.78 -4.37,34.58 1.48,17.52 6,33.95 18.32,47.33 a 12.25,12.25 0 0 1 1.73,2.33 c 0.55,1 2.71,1.78 0.94,3.22 -1.42,1.16 -2.68,0 -3.81,-1 -2.25,-2.05 -4.54,-4 -6.8,-6.07 -0.73,-0.64 -1.35,-1.47 -2.51,-1.08 h 0.09 C 14,306 14,305 12.35,305 v 0 c 0.19,-1.38 0.05,-2.56 -1.63,-2.87 v 0 c 0.2,-0.75 0.12,-1.36 -0.8,-1.51 l 0.06,0.05 c 0.21,-0.74 0.12,-1.34 -0.77,-1.54 l 0.06,0.07 c 0.19,-0.72 0.09,-1.32 -0.72,-1.58 l 0.05,0.08 a 1.28,1.28 0 0 0 -0.77,-1.63 c -6.3,-16.86 -9.8,-34 -6.82,-52.18 1.31,-8 0.87,-16.37 3.7,-24.11 8.76,-24 25.76,-38.74 50.66,-44.25 8.67,-1.92 17.41,-3.62 26.18,-5 6,-1 9,-4.94 11.26,-9.8 A 22.7,22.7 0 0 0 95,150.85 c -0.08,-6.58 0.64,-13.16 0.6,-19.71 -0.08,-14.45 14.79,-37.1 33,-39.39 6.51,-0.82 13,-2.43 19.55,-2.34 13.25,0.16 24,-4.46 31.66,-15.5 l 0.7,-0.91 -0.09,0.12 a 1.3,1.3 0 0 0 0.91,-1.46 v 0 c 1.06,-0.09 1.6,-0.57 1.23,-1.7 l 0.22,0.14 -0.23,-0.11 c 3.41,-1.41 4.76,-4.71 6.52,-7.48 8.6,-13.59 19.51,-25 32,-35 3.84,-3.06 8.24,-5.5 11.34,-9.47 l -0.09,0.1 0.93,-0.65 h -0.06 a 1.39,1.39 0 0 0 1.52,-0.88 C 254.35,4.87 275.78,0.07 298.48,0.14 c 4.81,1.08 9.77,0.64 14.63,1.62 8.66,1.76 16.92,4.82 25.42,7.1 a 49.37,49.37 0 0 1 9.54,4.47 c 0.07,1.11 0.81,1.64 1.68,2.15 5.57,3.22 11.25,6.31 16.25,10.32 1.18,0.95 2.17,2.37 4,2 v 0 c 1.33,2.91 3.08,5.35 6.56,5.87 a 13.08,13.08 0 0 1 3.69,3.61 c 1,3.42 4.35,4.93 6.38,7.52 0.64,0.81 2,1.48 1.44,2.63 -0.78,1.58 -1.79,0 -2.68,-0.23 -0.64,-0.2 -1.1,-0.2 -1.47,0.44 z"
         class="cls-2" />
      <path
         style="fill:#b13e6d"
         id="path12"
         d="m 709.46,275.62 c 0.42,6.55 2.24,12.86 3.16,19.32 0.45,3.14 2.13,6.37 -0.11,9.51 -0.54,0.76 -0.78,2 -2.07,1.57 -1.09,-0.37 -0.46,-1.36 -0.55,-2.15 -0.55,-4.67 -1.22,-9.33 -2,-14 A 138.2,138.2 0 0 0 698,255.74 c -3.62,-8.1 -10,-14.06 -16.5,-19.75 -6.28,-5.52 -13.33,-10.17 -19.6,-15.71 -8.19,-7.22 -15.4,-15.38 -17.84,-26.47 -1.28,-5.86 -0.76,-11.93 -0.23,-17.84 0.33,-3.65 0.42,-7.27 0.49,-10.91 0.09,-5.35 0.77,-10.64 1.26,-15.95 0.43,-4.64 -0.81,-9.15 -1.95,-13.62 C 638.28,114.57 628.56,96.07 613.32,80.59 600.9,68 585.64,61.19 568.54,57.75 c -24.27,-4.89 -47.84,-1.24 -71.15,5.51 -12.13,3.52 -24.16,7.51 -36.75,8.89 -6,0.65 -12.13,0.11 -18.85,0.11 3,3.14 6.61,3 9.64,4.16 a 104.69,104.69 0 0 0 31.91,6.34 c 0.8,0 1.9,-0.22 2,1 0,0.95 -0.93,1 -1.59,1.19 -3.35,1 -6.79,0.71 -10.15,0.4 -19.87,-1.82 -38.21,-8.73 -56.16,-17 -5.2,-2.39 -10.35,-4.85 -15.31,-7.7 -1,-0.6 -2.24,-1 -2.87,-2.16 2.82,-0.29 5.11,1.3 7.53,2.28 7,2.84 13.91,6 21.52,7 2.19,2.09 5.09,1.24 7.63,1.85 0.2,0.36 0.42,0.38 0.65,0 l 3,0.06 c 8.67,2.13 17.27,1.06 25.78,-0.78 C 477,66.48 488,62 499.51,59.25 c 9.86,-2.34 19.47,-5.62 29.61,-6.84 2.22,-0.27 5.19,0.9 7,-1.74 l 1.47,-0.06 c 1.53,1.17 3.31,0.63 4.93,0.56 A 102.73,102.73 0 0 1 573,54.73 c 10.07,2.62 19.44,7 28.65,11.92 9.21,4.92 15.93,12.09 22.68,19.57 1.88,2.08 2.78,5.28 6.06,6 v 0 a 5.67,5.67 0 0 0 0.47,2.08 102.58,102.58 0 0 1 11.32,21.86 c 4,10.46 7.72,21 7.34,32.57 -0.13,4 -0.88,8.2 0.6,12.19 l -0.06,3.69 c -1.32,5.28 -0.44,10.65 -0.63,16 0.07,2.9 0.16,5.81 0.23,8.71 0.2,9.81 5.65,16.94 12.06,23.58 a 1.45,1.45 0 0 0 1.63,0.71 v 0 c 0.39,2.59 2.56,3.71 4.33,5.08 10,7.73 19.94,15.46 28,25.35 2.36,2.91 3.66,6.54 6.48,9.11 v -0.06 c -0.06,0.87 -0.12,1.74 0.84,2.23 v -0.09 a 1.45,1.45 0 0 0 0.66,1.6 c 2.42,4.55 2.57,9.77 4.3,14.53 0.1,0.83 -0.12,1.79 0.92,2.24 v -0.06 c -0.1,0.88 -0.29,1.78 0.78,2.25 z"
         class="cls-2" />
      <path
         style="fill:#a43664"
         id="path14"
         d="m 536.07,50.67 c -1.76,2.64 -4.73,1.47 -7,1.74 -10.14,1.22 -19.75,4.5 -29.61,6.84 C 488,62 477,66.48 465.37,69 c -8.51,1.84 -17.11,2.91 -25.78,0.78 2.9,-1.21 6,-0.94 9,-1 14.4,-0.46 28,-4.62 41.54,-8.94 a 221.2,221.2 0 0 1 42.33,-9 c 1.18,-0.24 2.4,-0.15 3.61,-0.17 z"
         class="cls-3" />
      <path
         style="fill:#a43664"
         id="path16"
         d="m 630.36,92.19 c -3.28,-0.69 -4.18,-3.89 -6.06,-6 C 617.55,78.71 610.77,71.48 601.62,66.62 592.47,61.76 583,57.35 573,54.73 a 102.73,102.73 0 0 0 -30.5,-3.56 c -1.62,0.07 -3.4,0.61 -4.93,-0.56 12.65,-1.82 25,0.21 37.26,2.93 23.42,5.19 41.17,18.63 55.17,37.65 a 4.46,4.46 0 0 1 0.36,1 z"
         class="cls-3" />
      <path
         style="fill:#a43664"
         id="path18"
         d="m 428.27,67.81 c -7.61,-1 -14.5,-4.16 -21.52,-7 -2.42,-1 -4.71,-2.57 -7.53,-2.28 -5.51,-3.05 -10.89,-6.29 -15.3,-10.89 0.37,-0.6 0.83,-0.6 1.51,-0.44 0.89,0.21 1.9,1.81 2.68,0.23 0.58,-1.15 -0.8,-1.82 -1.44,-2.63 -2,-2.59 -5.33,-4.1 -6.38,-7.52 6,5.16 11.65,10.62 18.35,14.91 a 206.75,206.75 0 0 0 25.81,13.58 c 1.31,0.6 2.55,1.36 3.82,2.04 z M 391.7,49.56 a 1.62,1.62 0 0 0 -1.62,-1.17 c -0.61,0.08 -0.87,0.46 -0.71,1 a 1.4,1.4 0 0 0 1.38,1 c 0.51,0.01 0.95,-0.2 0.95,-0.83 z"
         class="cls-3" />
      <path
         style="fill:#e74c8a"
         id="path20"
         d="m 232.45,18.09 c -3.1,4 -7.5,6.41 -11.34,9.47 -12.53,10 -23.44,21.41 -32,35 -1.76,2.77 -3.11,6.07 -6.52,7.48 12,-21.14 26.38,-40 48.51,-51.54 a 7,7 0 0 1 1.35,-0.41 z"
         class="cls-1" />
      <path
         style="fill:#a43664"
         id="path22"
         d="m 650.1,160.9 c -1.48,-4 -0.73,-8.15 -0.6,-12.19 0.38,-11.53 -3.33,-22.11 -7.34,-32.57 A 102.58,102.58 0 0 0 630.84,94.28 5.67,5.67 0 0 1 630.37,92.2 c 5.37,6.28 8.65,13.76 11.93,21.21 a 108.55,108.55 0 0 1 8.83,30.42 c 0.7,5.76 -0.74,11.38 -1.03,17.07 z"
         class="cls-3" />
      <path
         style="fill:#e74c8a"
         id="path24"
         d="m 702.09,253.08 c -2.82,-2.57 -4.12,-6.2 -6.48,-9.11 -8.05,-9.89 -18,-17.62 -28,-25.35 -1.77,-1.37 -3.94,-2.49 -4.33,-5.08 14.14,8.24 26.3,18.65 35.38,32.39 1.47,2.2 2.95,4.45 3.43,7.15 z"
         class="cls-1" />
      <path
         style="fill:#e74c8a"
         id="path26"
         d="m 338.53,8.86 c -8.5,-2.28 -16.76,-5.34 -25.42,-7.1 -4.86,-1 -9.82,-0.54 -14.63,-1.62 12.68,-0.67 24.94,1 36.52,6.48 1.24,0.59 2.81,0.78 3.53,2.24 z"
         class="cls-1" />
      <path
         style="fill:#a43664"
         id="path28"
         d="m 370.05,27.8 c -1.85,0.37 -2.84,-1.05 -4,-2 -5.07,-4 -10.71,-7.1 -16.28,-10.32 -0.87,-0.51 -1.61,-1 -1.68,-2.15 a 76.92,76.92 0 0 1 21.96,14.47 z"
         class="cls-3" />
      <path
         style="fill:#a43664"
         id="path30"
         d="m 376.6,33.67 c -3.48,-0.52 -5.23,-3 -6.56,-5.87 a 22.87,22.87 0 0 1 6.56,5.87 z"
         class="cls-3" />
      <path
         style="fill:#a43664"
         id="path32"
         d="m 649.41,180.57 c 0.19,-5.33 -0.69,-10.7 0.63,-16 a 83.74,83.74 0 0 1 -0.63,16 z"
         class="cls-3" />
      <path
         style="fill:#e74c8a"
         id="path34"
         d="m 10.74,302.17 c 1.68,0.31 1.82,1.49 1.63,2.87 a 3.43,3.43 0 0 1 -1.63,-2.87 z"
         class="cls-1" />
      <path
         style="fill:#e74c8a"
         id="path36"
         d="m 12.35,305 c 1.66,0 1.69,1 1.46,2.24 A 2.29,2.29 0 0 1 12.35,305 Z"
         class="cls-1" />
      <path
         style="fill:#e74c8a"
         id="path38"
         d="m 182.56,70 c 0.37,1.13 -0.17,1.61 -1.23,1.7 a 2,2 0 0 1 1.23,-1.7 z"
         class="cls-1" />
      <path
         style="fill:#e74c8a"
         id="path40"
         d="m 702.9,255.25 c -1,-0.49 -0.9,-1.36 -0.84,-2.23 a 2.51,2.51 0 0 1 0.84,2.23 z"
         class="cls-1" />
      <path
         style="fill:#e74c8a"
         id="path42"
         d="m 708.73,273.53 c -1,-0.45 -0.82,-1.41 -0.92,-2.24 1.19,0.39 0.89,1.38 0.92,2.24 z"
         class="cls-1" />
      <path
         style="fill:#e74c8a"
         id="path44"
         d="m 709.47,275.72 c -1.07,-0.47 -0.88,-1.37 -0.78,-2.25 0.9,0.53 0.83,1.39 0.78,2.25 z"
         class="cls-1" />
      <path
         style="fill:#e74c8a"
         id="path46"
         d="m 181.37,71.66 a 1.3,1.3 0 0 1 -0.91,1.46 1.65,1.65 0 0 1 0.91,-1.46 z"
         class="cls-1" />
      <path
         style="fill:#e74c8a"
         id="path48"
         d="m 663.33,213.57 a 1.45,1.45 0 0 1 -1.63,-0.71 c 0.79,-0.35 1.3,0.05 1.63,0.71 z"
         class="cls-1" />
      <path
         style="fill:#e74c8a"
         id="path50"
         d="m 234.75,16.7 a 1.39,1.39 0 0 1 -1.52,0.88 1.81,1.81 0 0 1 1.52,-0.88 z"
         class="cls-1" />
      <path
         style="fill:#e74c8a"
         id="path52"
         d="m 703.51,256.76 a 1.45,1.45 0 0 1 -0.66,-1.6 c 0.69,0.34 0.67,0.97 0.66,1.6 z"
         class="cls-1" />
      <path
         style="fill:#e74c8a"
         id="path54"
         d="m 7.9,296.15 a 1.28,1.28 0 0 1 0.77,1.63 C 7.9,297.48 8,296.78 7.9,296.15 Z"
         class="cls-1" />
      <path
         style="fill:#e74c8a"
         id="path56"
         d="m 8.62,297.7 c 0.81,0.26 0.91,0.86 0.72,1.58 C 8.61,299 8.57,298.36 8.62,297.7 Z"
         class="cls-1" />
      <path
         style="fill:#e74c8a"
         id="path58"
         d="m 9.28,299.21 c 0.89,0.2 1,0.8 0.77,1.54 -0.72,-0.28 -0.81,-0.87 -0.77,-1.54 z"
         class="cls-1" />
      <path
         style="fill:#e74c8a"
         id="path60"
         d="m 10,300.7 c 0.92,0.15 1,0.76 0.8,1.51 A 1.28,1.28 0 0 1 10,300.7 Z"
         class="cls-1" />
      <path
         style="fill:#e74c8a"
         id="path62"
         d="m 180.55,73 -0.7,0.91 z"
         class="cls-1" />
      <path
         style="fill:#a43664"
         id="path64"
         d="m 436.55,69.69 c -0.23,0.35 -0.45,0.33 -0.65,0 a 0.56,0.56 0 0 1 0.65,0 z"
         class="cls-3" />
      <path
         style="fill:#e74c8a"
         id="path66"
         d="m 233.29,17.54 -0.93,0.65 c 0.09,-0.54 0.48,-0.63 0.93,-0.65 z"
         class="cls-1" />
      <path
         style="fill:#b13e6d"
         id="path68"
         d="m 417.13,189.23 c 11,1.47 21,4.2 29,12.18 5,5 10.08,9.92 12.43,16.88 4.07,12 0.57,22.93 -5,33.47 a 59.9,59.9 0 0 1 -4.4,6.7 c -1.41,2 -0.62,2.45 1.38,2.65 a 47.3,47.3 0 0 1 14.78,3.75 c 1.49,0.67 3.75,1.32 3.19,3.37 -0.56,2.05 -3,1.78 -4.73,1.53 -6.71,-1 -13.32,-2.62 -20.13,-3.08 a 233.62,233.62 0 0 0 -31,0 187.75,187.75 0 0 0 -29.91,4 c -6.48,1.48 -13,3.1 -18.41,7.3 a 1.9,1.9 0 0 1 -2.35,0.32 c -0.83,-0.54 -0.68,-1.53 -0.5,-2.35 a 6.52,6.52 0 0 1 3.64,-4.29 63.77,63.77 0 0 1 17.26,-6.66 c 2.61,-0.57 2.34,-1.26 0.82,-2.89 -14.56,-15.68 -13.58,-41.62 -1.07,-57.13 a 30.79,30.79 0 0 1 9.45,-7.37 72.66,72.66 0 0 1 25.55,-8.38 z m -10.56,25 c 3.4,1.36 8.37,0.36 10.26,-2.06 a 87.21,87.21 0 0 0 17.26,-7.34 c 1,-0.53 2.75,-0.58 2.67,-2 -0.07,-1.25 -1.64,-1.64 -2.7,-2.22 -11.06,-6 -22.11,-5.26 -33.13,0.09 -5.37,2.6 -10.64,5.34 -14.31,10.33 -1.2,1.63 -1.23,2.33 1,2.74 6.38,1.14 12.65,0.29 18.95,0.46 z m -23.32,3.12 c -4.12,10.45 -4.36,20.87 0.46,31.18 1.54,3.3 3.42,6.45 4.89,9.79 1.65,3.76 4,4.86 8.24,4.21 a 200.08,200.08 0 0 1 42.56,-2.31 c 2.19,0.14 3.64,-0.34 4.73,-2.41 1.64,-3.12 3.68,-6 5.41,-9.1 5.2,-9.22 7.1,-18.78 3.16,-29.05 -2.23,-5.8 -6.36,-10 -10.95,-13.85 -3.23,-2.7 -5.56,0.67 -7.05,2 -8,7 -17.58,9.23 -27.74,10.25 -3.64,0.37 -6.92,-1.68 -10.32,-1.3 -3.4,0.38 -6.7,0.74 -10.09,-0.09 -1.07,-0.31 -2.45,-0.67 -3.3,0.68 z"
         class="cls-2" />
      <path
         style="fill:#b13e6d"
         id="path70"
         d="m 277.9,256.72 c -0.81,2.71 -0.59,4.17 3,4.72 4.79,0.74 9.25,2.95 13.52,5.35 1.59,0.89 3.1,2 2.23,4 -0.87,2 -2.62,1.32 -4.17,0.89 -14.25,-4 -28.69,-6.31 -43.56,-5.43 -19,1.11 -37,5.42 -53.38,15.38 -1.28,0.78 -2.8,2.38 -4.12,0.58 -1.32,-1.8 0.31,-3.27 1.54,-4.36 5.83,-5.14 12.81,-8.4 19.87,-11.36 3.18,-1.33 3.06,-2.08 0.86,-4.26 -13.39,-13.25 -14.26,-33.39 -6.14,-48.57 4,-7.42 9,-13.59 16.58,-17.37 11.71,-5.87 23.52,-5.19 35.61,-0.65 A 46.29,46.29 0 0 1 279,209.35 c 6.37,7.53 8.25,16.47 6.22,26.17 0,-2.29 0,-4.57 -0.05,-6.86 a 16.43,16.43 0 0 0 -8,-14.38 v 0 c 0,-1.61 -0.38,-2.86 -2.34,-2.82 l -0.66,-0.67 c 0,-1.16 -0.56,-1.61 -1.68,-1.46 -1.25,-0.35 -2,-1.74 -3.43,-1.71 a 4.83,4.83 0 0 0 -2.11,-2 c -5.76,-3.13 -11.69,-5.93 -18.23,-6.88 -9.82,-1.43 -19,0 -26.8,6.81 -1.1,1 -2.24,2 -1.8,3.68 -0.22,2 -2.54,0.09 -3,1.65 a 10.33,10.33 0 0 0 -3,4 c -10.18,19.35 -5.5,32.89 5.61,47.28 1.15,1.49 2.38,1.31 3.87,0.93 a 132.46,132.46 0 0 1 49.92,-3.15 c 2.83,0.78 2.48,-2.72 4.38,-3.22 z"
         class="cls-2" />
      <path
         style="fill:#b13e6d"
         id="path72"
         d="m 75.31,266.07 c -3.3,4.71 -5.89,8.67 -8.76,12.41 -3.56,4.62 -7.56,8.68 -14.13,8.3 A 9,9 0 0 1 45.3,283 c -4.6,-6.23 -5.15,-13.37 -4.1,-20.58 2.58,-17.62 10.62,-33 20.74,-47.3 1.12,-1.59 2.57,-4.61 5,-3.21 2.68,1.57 0.58,4.14 -0.39,6.1 -5.64,11.45 -12,22.57 -15.48,35 a 49.18,49.18 0 0 0 -2,18 c 0.27,2.85 0.78,6.39 3.75,7.4 2.97,1.01 5,-2.08 6.65,-4.2 5.13,-6.62 10.08,-13.4 15,-20.2 a 15.75,15.75 0 0 1 4.86,-4.32 c 3.26,-1.95 6.06,-0.36 6.34,3.44 0.34,4.52 -2.49,8.38 -2.57,12.8 a 18.53,18.53 0 0 0 -0.33,2.14 c 0.24,2.17 0.33,4.87 2.48,5.73 1.89,0.75 3.06,-1.67 4.12,-3 5.24,-6.48 7.67,-14.29 10.11,-22.07 0.87,-2.78 1.48,-5.64 2.3,-8.43 0.46,-1.57 1.34,-3.23 3.16,-2.91 1.59,0.29 2,2 1.9,3.55 -0.93,12.77 -3.61,25 -11.52,35.49 -3.31,4.4 -8.83,6.37 -12.81,4.93 -3.98,-1.44 -7,-6.4 -7.14,-11.81 -0.08,-0.85 -0.06,-1.7 -0.06,-3.48 z"
         class="cls-2" />
      <path
         style="fill:#b13e6d"
         id="path74"
         d="m 546.23,108.92 c 18.3,-0.32 35.78,3.09 52,11.83 13.88,7.49 25.42,17.46 32.43,32 0.63,1.31 2.16,3 0.1,4.11 -2.06,1.11 -2.6,-1 -3.53,-2.18 -16,-21 -36.58,-34.53 -63,-38.43 -15.63,-2.3 -31.2,-2.47 -46.63,1.56 a 44.51,44.51 0 0 0 -10.49,4.19 7.79,7.79 0 0 0 -3.13,3 c -0.4,0.69 0.22,2.41 -1.38,1.84 -1.39,-0.49 -1.85,-1.75 -1.19,-3.32 a 12.72,12.72 0 0 1 4.82,-5.79 c 7.06,-4.7 15.09,-6.5 23.26,-7.94 5.51,-1.03 11.15,-0.79 16.74,-0.87 z"
         class="cls-2" />
      <path
         style="fill:#b13e6d"
         id="path76"
         d="m 553.44,142 c 13,0.81 25.62,3.52 38.12,6.92 5,1.37 10,3 15,4.58 a 11.83,11.83 0 0 1 3.13,1.8 c 0.71,0.5 1.25,1.32 0.62,2.19 -0.63,0.87 -1.25,0.26 -2,0 -16.31,-5.56 -33.13,-9.11 -50.11,-11.79 -4,-0.64 -8.38,-1.73 -12.54,0.1 -0.77,0.34 -1.72,0.82 -2.06,-0.45 -0.25,-1 0.52,-1.58 1.32,-1.93 a 17.69,17.69 0 0 1 8.52,-1.42 z"
         class="cls-2" />
      <path
         style="fill:#a43664"
         id="path78"
         d="m 277.9,256.72 c -1.87,0.5 -1.55,4 -4.38,3.19 a 28.59,28.59 0 0 0 3.46,-8 c 3.7,-12.52 8.37,-25.07 0.22,-37.67 a 16.43,16.43 0 0 1 8,14.38 c 0,2.29 0,4.57 0.05,6.86 -0.26,7.46 -3.16,14.06 -6.7,20.46 l -0.65,0.75 z"
         class="cls-3" />
      <path
         style="fill:#b13e6d"
         id="path80"
         d="m 277.89,256.73 0.65,-0.75 z"
         class="cls-2" />
      <path
         style="fill:#b13e6d"
         id="path82"
         d="m 391.7,49.56 c 0,0.63 -0.44,0.84 -0.95,0.82 a 1.4,1.4 0 0 1 -1.38,-1 c -0.16,-0.53 0.1,-0.91 0.71,-1 a 1.62,1.62 0 0 1 1.62,1.18 z"
         class="cls-2" />
      <path
         style="fill:#f3edef"
         id="path84"
         d="m 441.75,205.81 c 4.59,3.87 8.72,8.05 10.95,13.85 3.94,10.27 2,19.83 -3.16,29.05 -1.73,3.07 -3.77,6 -5.41,9.1 -1.09,2.07 -2.54,2.55 -4.73,2.41 a 200.08,200.08 0 0 0 -42.56,2.31 c -4.25,0.65 -6.59,-0.45 -8.24,-4.21 -1.47,-3.34 -3.35,-6.49 -4.89,-9.79 -4.82,-10.31 -4.58,-20.73 -0.46,-31.18 1.78,0.36 3.56,0.77 5.35,1.07 18.15,3.1 35.08,0.61 50,-11 0.93,-0.79 1.78,-1.72 3.15,-1.61 z m -29.33,28.77 c -4.76,0.06 -8.65,3.72 -8.61,8.12 0.04,4.4 4.08,8.09 8.7,8.11 4.84,0 8.85,-3.82 8.73,-8.39 -0.12,-4.57 -4,-7.89 -8.82,-7.84 z"
         class="cls-4" />
      <path
         style="fill:#e74c8a"
         id="path86"
         d="m 406.57,214.23 c -6.3,-0.17 -12.62,0.68 -18.91,-0.46 -2.27,-0.41 -2.24,-1.11 -1,-2.74 3.67,-5 8.94,-7.73 14.31,-10.33 11,-5.35 22.07,-6 33.13,-0.09 1.06,0.58 2.63,1 2.7,2.22 0.08,1.42 -1.67,1.47 -2.67,2 a 87.21,87.21 0 0 1 -17.26,7.34 z"
         class="cls-1" />
      <path
         style="fill:#a43664"
         id="path88"
         d="m 441.75,205.81 c -1.37,-0.11 -2.22,0.82 -3.17,1.57 -14.9,11.65 -31.83,14.14 -50,11 -1.79,-0.3 -3.57,-0.71 -5.35,-1.07 0.85,-1.35 2.23,-1 3.3,-0.72 3.39,0.83 6.67,0.46 10.09,0.09 3.42,-0.37 6.68,1.67 10.32,1.3 10.16,-1 19.7,-3.24 27.74,-10.25 1.51,-1.25 3.84,-4.62 7.07,-1.92 z"
         class="cls-3" />
      <path
         style="fill:#a43664"
         id="path90"
         d="m 406.57,214.23 10.26,-2.06 c -1.89,2.42 -6.83,3.42 -10.26,2.06 z"
         class="cls-3" />
      <path
         style="fill:#f3edef"
         id="path92"
         d="m 277.2,214.28 c 8.15,12.6 3.48,25.15 -0.22,37.67 a 28.59,28.59 0 0 1 -3.46,8 132.46,132.46 0 0 0 -49.92,3.15 c -1.49,0.38 -2.72,0.56 -3.87,-0.93 -11.11,-14.39 -15.79,-27.93 -5.61,-47.28 a 10.33,10.33 0 0 1 3,-4 c 2.1,0.91 4.19,1.85 6.32,2.72 10.34,4.25 21,6.07 31.9,2.86 5.33,-1.57 10.65,-3.5 13.69,-8.8 1.44,0 2.18,1.36 3.43,1.71 a 2.38,2.38 0 0 0 1.68,1.46 l 0.66,0.67 a 5.78,5.78 0 0 0 2.34,2.82 z m -30.1,25.78 a 8.64,8.64 0 0 0 8.59,8.57 8.88,8.88 0 0 0 8.89,-8.72 8.74,8.74 0 0 0 -8.87,-8.33 8.51,8.51 0 0 0 -8.61,8.48 z"
         class="cls-4" />
      <path
         style="fill:#e74c8a"
         id="path94"
         d="m 220.13,209.16 c -0.44,-1.73 0.7,-2.72 1.8,-3.68 7.78,-6.77 17,-8.24 26.8,-6.81 6.54,1 12.47,3.75 18.23,6.88 a 1.73,1.73 0 0 1 -0.86,1.49 47.4,47.4 0 0 1 -30.88,6.13 C 230,212.42 225.3,210 220.13,209.16 Z"
         class="cls-1" />
      <path
         style="fill:#a43664"
         id="path96"
         d="m 220.13,209.16 c 5.17,0.81 9.88,3.26 15.09,4 a 47.4,47.4 0 0 0 30.88,-6.16 1.73,1.73 0 0 0 0.86,-1.49 4.83,4.83 0 0 1 2.11,2 c -3,5.3 -8.36,7.23 -13.69,8.8 -10.94,3.21 -21.56,1.39 -31.9,-2.86 -2.13,-0.87 -4.22,-1.81 -6.32,-2.72 0.43,-1.48 2.75,0.38 2.97,-1.57 z"
         class="cls-3" />
      <path
         style="fill:#a43664"
         id="path98"
         d="m 277.18,214.25 a 5.78,5.78 0 0 1 -2.34,-2.82 c 1.96,-0.04 2.38,1.21 2.34,2.82 z"
         class="cls-3" />
      <path
         style="fill:#a43664"
         id="path100"
         d="m 274.18,210.76 a 2.38,2.38 0 0 1 -1.68,-1.46 c 1.12,-0.15 1.71,0.3 1.68,1.46 z"
         class="cls-3" />
      <path
         style="fill:#39262f"
         id="path102"
         d="m 412.42,234.58 c 4.82,-0.05 8.7,3.4 8.82,7.84 0.12,4.44 -3.89,8.42 -8.73,8.39 -4.62,0 -8.66,-3.79 -8.7,-8.11 -0.04,-4.32 3.85,-8.06 8.61,-8.12 z"
         class="cls-5" />
      <path
         style="fill:#39262f"
         id="path104"
         d="m 247.1,240.06 a 8.51,8.51 0 0 1 8.61,-8.48 8.74,8.74 0 0 1 8.87,8.33 8.88,8.88 0 0 1 -8.89,8.72 8.64,8.64 0 0 1 -8.59,-8.57 z"
         class="cls-5" />
    </g>
  </g>
</svg>
