<svg xmlns="http://www.w3.org/2000/svg" viewBox="0 0 1640.14 613.43"><defs><style>.cls-1{fill:#00b3ea;}.cls-2{fill:#009ddb;}</style></defs><title>slide_2</title><g id="Layer_2" data-name="Layer 2"><g id="Layer_1-2" data-name="Layer 1"><path class="cls-1" d="M1640.14,613.43V138.29C1563.81,91.17,1444.81,30.42,1387,33c-88,4-175,97-313,109S885,112,447,24C236.34-18.29,92.53,18.52,0,68.12V613.43Z"/><path class="cls-2" d="M994.7,140c34.88-1.25,69.84-1.23,104.49-6.07,19.75-2.75,39.45-5.86,58.57-11.82,4.9-.2,9.38-2.13,14-3.5,22.26-6.65,43.23-16.42,63.93-26.8,28.79-14.43,58.75-26.44,87.11-41.76,13.67-7.38,26.5-13.5,41.81-16.59,29-5.86,58.67-2.63,86.89,5.46s55,20.56,81.7,32.85c12.71,5.86,25.08,12.41,37.25,19.31,11.8,6.7,23.19,14,35.32,20.09,4.46,2.22,8.85,4.59,13.28,6.89,1.32.85.49,6.62-1.28,6.68a2,2,0,0,1-.83-.21c-6.4-2.64-12.28-6.05-18.52-9-14.17-6.58-28.2-13.46-42-20.8s-27.09-15.35-41.27-21.89l-1.72-.79c-13.35-6-26.67-12.17-40.14-17.94-12.93-5.55-26.63-8.52-40.45-10.71-23.63-3.75-48.54-5.17-72.25.33a116.22,116.22,0,0,0-34.29,13.88c-11.66,7.09-24.7,12.08-37,18-16.8,8.11-33.87,15.64-50.56,24a470.74,470.74,0,0,1-52.68,22.86c-20.91,7.43-42.42,12.57-64.24,16.49-13.27,2.39-26.6,4.46-40,5.8-14.09,1.41-28.24,2-42.4,2.24-14.82.28-29.64.78-44.46,1.22-1.26,0-2.72-.37-3.83,1.45,48.21,13.31,96.64,25,145.57,34.7s98.23,16.53,147.49,24l0,1.13c-1.89.16-3.78.39-5.68.47-10.87.48-21.61-1.11-32.33-2.5-18.15-2.34-36.26-5-54.37-7.59-32.28-4.69-64.47-9.85-96.46-16.24-49.17-9.81-97.49-23.1-146.09-35.23-34.4-8.58-69-16.17-103.49-24.45-47.42-11.39-95.13-21.56-142.28-34-30.75-8.12-62-14.1-92.79-22-24.51-6.29-48.82-13.32-73.23-20-34.05-9.29-68.24-18-102.93-24.57-17.49-3.29-35.18-5.53-52.74-8.47-19.59-3.28-39.33-4.45-59.14-5.33-14.83-.67-29.65-.7-44.46-.42C189.27,10.81,101.46,27.7,19.44,62.48,17.22,56.81,24,52,29.6,49.64,116.05,14.2,209.93-1.16,303.15.07c59,.77,117.17,8.56,174.46,22.29,38.74,9.28,77.18,19.76,115.68,30C630.52,62.19,668.22,70,705.39,80c30.83,8.3,62,15.11,93,22.73q69,17,138.28,32.85C955.86,140,975.2,140.64,994.7,140Z"/><path class="cls-2" d="M262.92,70.11c3.66,0,7.33-.13,11,0,2.1.1,4.77.15,5,3,.19,2.68-2.1,3.62-4.31,4-5.56,1-11.12,2.09-16.73,2.68-19.18,2-38.42,3.45-57.52,6.18a415.54,415.54,0,0,0-84.09,20.83c-5.15,1.88-10.37,3.6-15.55,5.42a8.93,8.93,0,0,1-3.39.73,2.81,2.81,0,0,1-2.74-1.78,2.73,2.73,0,0,1,.62-2.78,12.51,12.51,0,0,1,4.89-3.36,285.28,285.28,0,0,1,35.8-13.9,434.73,434.73,0,0,1,77.9-16.81C230.07,72.32,246.41,70.16,262.92,70.11Z"/></g></g></svg>