<svg xmlns="http://www.w3.org/2000/svg" viewBox="0 0 697.69 324.04"><defs><style>.cls-1{fill:#e74c8a;}.cls-2{fill:#d3467f;}.cls-3{fill:#b13e6d;}.cls-4{fill:#fefdfe;}.cls-5{fill:#af3b6a;}</style></defs><title>slide_16</title><g id="Layer_2" data-name="Layer 2"><g id="Layer_1-2" data-name="Layer 1"><path class="cls-1" d="M682.69,255.77c-3.33-3.72-6.91-7.2-10.11-11.06-4.19-5-9.11-9.21-15.35-11.66-2.8-1.1-5.49-2.52-8.18-3.89l-.39-.2a101.65,101.65,0,0,0-30.21-10c-6.74-1.07-13.45-2.3-20.18-3.3a186.09,186.09,0,0,1-42.63-12.1c-13.58-5.5-27.1-11.14-40.51-17a175.46,175.46,0,0,1-35.29-20.61,380.41,380.41,0,0,1-30.3-25.24C435.89,128,420.46,117.39,407,104.43,396,93.82,384.14,84,373.21,73.29A118.73,118.73,0,0,0,360,61.87c-9-6.57-18-13.22-28.64-17.09-15.17-5.53-30.4-10.93-45.75-16a94.26,94.26,0,0,0-19.43-4.45c-6.12-.64-12.23-1.42-18.3-2.39-18.89-3-37.57-7.16-56.3-11C183,9.17,174.41,6.67,165.43,7.61A108,108,0,0,0,151.12,9.7C144.31,11.36,138.7,20,140,25c1.35,5.33,2.47,10.76,5,15.65,3.87,7.37,8,14.59,12,21.9,1.91,3.51,3.77,7,5.54,10.64a8.53,8.53,0,0,1-.06,8.16c-1.55,2.86-5,4.42-7.06,2.64-2.5-2.09-5.39-2.44-8.2-3.26a48.11,48.11,0,0,1-16.45-8.19c-5.64-4.42-11.62-8.36-17.38-12.61C98.27,48.76,81.56,42.09,62.74,40.82a53,53,0,0,0-24,3.43C31,47.43,24,51.85,17.11,56.59s-11.44,18-8.74,26c2.32,6.81,5.52,13.23,11.07,18.14,3.86,3.42,7.58,7,11.67,10.16a409.38,409.38,0,0,0,62.3,39.61c9.64,4.93,19.16,10.08,27.86,16.61s17.79,12.18,23.84,21.51a183.64,183.64,0,0,1,14.61,26.68,14.48,14.48,0,0,1,1.25,7.32c-.07.64-.13,1.36-.92,1.6a1.69,1.69,0,0,1-1.8-.54,25.83,25.83,0,0,1-4.18-6.75,109.22,109.22,0,0,0-9.86-17.06,3.57,3.57,0,0,0-2.41,2.87c-1.11,6.1-5.15,9.88-10.06,13-1.69,1.07-3.4,2.1-5.1,3.15l-1.6.92a2.63,2.63,0,0,1-3,2c-2.57,4-6.6,5.76-11,7-.4,1.57-1.83,1.53-3,1.89-6.86,3.73-13.72,7.5-20.61,11.19-.59.32-1.17.64-1.74,1a34.69,34.69,0,0,0-8.81,7.29c-2.92,3.43-3.81,7-1.47,11.45,5.63,10.67,13.17,19.34,23.64,25.6,7.6,4.54,15.25,9,23.43,12.28a269.08,269.08,0,0,0,98.82,19.51c13,.14,26,.08,38.95-.91a254.78,254.78,0,0,0,35.56-4.84c31.35-6.91,60.52-20.46,92.23-26.45,32.37-6.11,55.13-4.88,88-3,13.42.77,36.81,0,49.39,4.61,13,4.73,26,9.25,39,14,11.77,4.33,23.84,6,36.21,6.32,18.2.47,36.28-.21,54.05-4.77a57.27,57.27,0,0,0,21.34-10.52c5.13-4.05,9.23-9,11.38-15.46C690.28,269.47,688.42,262.2,682.69,255.77Zm-637-149.25C39,100.68,34.76,93.23,31.38,85.2a36.76,36.76,0,0,1-3-10c-.77-6.67,1.13-9.47,8-11.81.49,2-.7,2.93-1.5,3.87A8.92,8.92,0,0,0,33,75.24c2.35,10.87,6.69,20.78,14.46,29,2.41,2.55,5.66,3.79,9.29,5.88C51.71,111,48.55,109.05,45.66,106.52ZM177.83,283.69c-15.87.62-31.1-2.59-45.94-7.85a28.8,28.8,0,0,1-12.68-8.59,7.17,7.17,0,0,1-2.13-4.39c-.09-2.52,1.5-3.68,3.88-2.76a4.62,4.62,0,0,1,1.27.78c7.9,6.53,17.36,9.59,27,12.38,10,2.87,20.16,4.2,30.37,5.54a28.12,28.12,0,0,1,3.41.66,2,2,0,0,1,1.63,1.62C182.8,283.25,180.35,283.6,177.83,283.69Zm183-33c-5.44,3.28-11.12,3.84-16.05,1.57a15.74,15.74,0,0,1-3.14-1.9,35.13,35.13,0,0,1-9.86-11.79c-7.26-14-12.47-28.67-13.63-44.57-.2-2.65-.68-5.27-.94-7.92a1.73,1.73,0,0,1,1-2.05,2,2,0,0,1,2.57.91,17.32,17.32,0,0,1,2.06,6.12c.86,4.58,1.6,9.18,2.54,13.73,2.15,10.35,6.31,20,10.84,29.46a28.84,28.84,0,0,0,7.86,10.22c2.95,2.36,6.16,3.8,10.16,2.56,7.1-2.19,9.78-6.68,7.36-13.71-2.16-6.29-4.82-12.41-7.33-18.57a72.83,72.83,0,0,1-3.69-14,9.48,9.48,0,0,1-.14-2,4.82,4.82,0,0,1,2.92-4.33c2-.95,3.68.1,4.85,1.53a37.74,37.74,0,0,1,3.45,5.48,19.26,19.26,0,0,0,3,4.6c1.27,1.23,2.65,2,4.47,1.34a4.43,4.43,0,0,0,3.19-4.06,17.34,17.34,0,0,0-.79-6.39A50.2,50.2,0,0,0,363,181.83a26.2,26.2,0,0,1-2.5-3.71,2.53,2.53,0,0,1,.43-3.22c1.16-1.07,2.17-.31,3.11.4a37.42,37.42,0,0,1,12.82,16.85A34,34,0,0,1,379,202.34c.4,7.46-8.51,15.16-16.94,9.65-.79-.52-1.45-1.43-2.64-1.09-1,1.33-.14,2.52.36,3.71,1.79,4.3,3.56,8.61,5.46,12.87a33,33,0,0,1,2.49,7.05c.9,4.71.27,8.56-1.92,11.69A16.26,16.26,0,0,1,360.79,250.73ZM125,219.79h0l0-.12Zm-3,2h0l0-.07Zm-11,7,.08,0s0,0,0-.05Z"/><path class="cls-2" d="M687.45,277.93c-2.15,6.48-6.25,11.41-11.38,15.46a57.27,57.27,0,0,1-21.34,10.52c-17.77,4.56-35.85,5.24-54.05,4.77-12.37-.32-24.44-2-36.21-6.32-13-4.76-26-9.28-39-14-12.58-4.57-36-3.84-49.39-4.61-32.87-1.88-55.63-3.11-88,3-31.71,6-60.88,19.54-92.23,26.45A254.78,254.78,0,0,1,260.28,318c-13,1-26,1.05-38.95.91a269.08,269.08,0,0,1-98.82-19.51c-8.18-3.32-15.83-7.74-23.43-12.28-10.47-6.26-18-14.93-23.64-25.6-2.34-4.42-1.45-8,1.47-11.45a34.69,34.69,0,0,1,8.81-7.29c1-.62,11.68,6,13.21,6.7q7.92,3.77,16.06,7.07a288.07,288.07,0,0,0,38.51,12.55A262.69,262.69,0,0,0,251.39,275c16.56-2.2,32.05-7.53,48.9-6.72,15.2.73,32.12,4.81,46.76-1.07,6.86-2.76,12.94-7.12,19.88-9.72,7.49-2.8,15.36-4.72,22.94-7.29,13.33-4.52,26.42-9.69,39.59-14.63,16.53-6.21,35.09-13.43,52.61-6.8,36.93,14,164.54,77.77,167,.42,2.69,1.37,5.38,2.79,8.18,3.89,6.24,2.45,11.16,6.62,15.35,11.66,3.2,3.86,6.78,7.34,10.11,11.06C688.42,262.2,690.28,269.47,687.45,277.93Z"/><path class="cls-3" d="M676.92,236.7c14.7,11.24,25.22,26.51,18.89,44.76-3.51,10.13-10.47,17.28-19.22,22.9a60.68,60.68,0,0,1-21.06,8.89c-12.73,2.51-25.35,5.87-38.35,6.67-16.48,1-32.48-2.08-48.26-6.68-15.21-4.43-29.84-10.45-44.54-16.25a106.43,106.43,0,0,0-35.48-7.79c-26.32-.92-52.67-.85-78.9,1.68-29.2,2.82-57.66,10.63-85.65,19.11C297,318.26,270.63,323.4,242,324c-24.09.45-48-.57-71.65-5.29-22.44-4.48-44.35-10.75-64.66-21.74A114.81,114.81,0,0,1,78.9,277c-5-5-7.61-11.73-9.23-18.57-1-4.17,1.2-7.8,3.88-10.92a36.81,36.81,0,0,1,11.84-9.06c15.31-7.51,28.8-18,43.52-26.47,6.22-3.58,8.55-9.48,9.3-16.23a10.26,10.26,0,0,0-2.56-7.85,63.39,63.39,0,0,0-10.39-10.06,191,191,0,0,0-33.45-20.87,467.49,467.49,0,0,1-55.76-32.25,188.54,188.54,0,0,1-22.19-17.84A41.91,41.91,0,0,1,.57,82.71c-2-11.93,1.08-23,11.34-30.67A106.76,106.76,0,0,1,31.1,40.39c15.13-7,30.77-6.58,46.52-3.07A104.93,104.93,0,0,1,116,54.85c6.1,4.37,12.32,8.55,18.51,12.78,5.69,3.89,12,6.46,18.46,8.77a3.05,3.05,0,0,0,2.66,0c.11-2-1.09-3.65-2-5.31-3.9-7.35-7.78-14.73-11.92-22A74,74,0,0,1,134,28.66c.35-2.52-1.28-4.89-.59-7.41,2.1-7.74,6.3-13.85,13.72-17.39,1.64-.78,3.57-.85,5-2,3-2.41,14.9-1.77,18.75-1.71,6.39.09,12.54,1.67,18.76,2.94,24.49,5,50,8.86,74.71,14.35,12.77,2.84,25.47,6,38,9.79,19.44,5.86,39.27,13.27,55.91,25,22.7,16,40.26,37.59,61,55.79,25.61,22.44,50.88,46.69,81,63.12a387.07,387.07,0,0,0,61.88,27.08c26.78,9,55.28,11.63,81.94,21.09A124.56,124.56,0,0,1,676.92,236.7ZM125,219.79l.08-.13c-1.24.38-2.53.69-3.09,2.09l.08-.07A26.91,26.91,0,0,0,111,228.76l.09-.07a4.2,4.2,0,0,0-3,1.94c-6.87,3.73-13.72,7.5-20.61,11.19a35.93,35.93,0,0,0-10.55,8.28c-2.93,3.43-3.81,7-1.47,11.45,5.63,10.67,13.17,19.34,23.64,25.6,7.59,4.54,15.25,9,23.42,12.27a268.94,268.94,0,0,0,98.83,19.52c13,.14,26,.08,38.95-.91a254.3,254.3,0,0,0,35.54-4.84,367.39,367.39,0,0,0,41.34-12.06c33.88-11.75,69.36-19.61,105.34-20,14.63-.15,29.24-1.35,43.92-.51a136.37,136.37,0,0,1,39,7.69c13,4.73,26,9.25,39,14,11.76,4.33,23.84,6,36.21,6.32,18.2.47,36.28-.21,54.05-4.77a57.3,57.3,0,0,0,21.33-10.52c5.14-4.05,9.23-9,11.39-15.46,2.82-8.46,1-15.73-4.76-22.16-16.7-18.71-39.2-32.88-64.24-36.83-6.74-1.07-13.45-2.3-20.19-3.3a186,186,0,0,1-42.62-12.1c-13.58-5.5-27.1-11.14-40.51-17a175.46,175.46,0,0,1-35.29-20.61,380.77,380.77,0,0,1-30.3-25.24C435.89,128,420.46,117.39,407,104.43,396,93.82,384.14,84,373.21,73.29A118.73,118.73,0,0,0,360,61.87c-9-6.57-18-13.22-28.64-17.09-10.89-4-21.86-7.69-32.76-11.61S276.53,27.23,265,25l-51.9-9.87c-15-2.85-32.34-9.14-47.64-7.54a106.22,106.22,0,0,0-14.3,2.09C144.31,11.36,138.69,20,140,25c1.35,5.33,2.47,10.75,5,15.65,3.87,7.37,8,14.59,12,21.9,1.92,3.51,3.78,7,5.54,10.64a8.49,8.49,0,0,1,0,8.15c-1.56,2.87-5,4.42-7.07,2.65-2.49-2.09-5.38-2.44-8.19-3.26a48.29,48.29,0,0,1-16.45-8.19c-5.65-4.42-11.62-8.37-17.38-12.61C98.27,48.76,81.56,42.09,62.73,40.82a53,53,0,0,0-24,3.43C31,47.43,24,51.85,17.11,56.59s-11.44,18-8.74,26c2.32,6.82,5.52,13.24,11.06,18.15,3.87,3.42,7.59,7,11.68,10.16a408.89,408.89,0,0,0,62.3,39.61c9.64,4.93,19.16,10.08,27.85,16.6s17.8,12.19,23.84,21.52a183.64,183.64,0,0,1,14.61,26.68,14.49,14.49,0,0,1,1.26,7.32c-.07.64-.13,1.36-.93,1.6a1.68,1.68,0,0,1-1.79-.54,25.73,25.73,0,0,1-4.18-6.75,109.55,109.55,0,0,0-9.86-17.06,3.57,3.57,0,0,0-2.41,2.87c-1.11,6.1-5.16,9.88-10.07,13-1.68,1.07-3.39,2.1-5.09,3.15C126,219.05,125.35,219.12,125,219.79Z"/><path class="cls-3" d="M122.08,221.68c-2.58,4.09-6.66,5.84-11.07,7.08A26.91,26.91,0,0,1,122.08,221.68Z"/><path class="cls-3" d="M111.1,228.69c-.39,1.62-1.84,1.58-3,1.94A4.2,4.2,0,0,1,111.1,228.69Z"/><path class="cls-3" d="M125.09,219.66c-.53,1.44-1.43,2.32-3.09,2.09C122.56,220.35,123.85,220,125.09,219.66Z"/><path class="cls-3" d="M126.64,218.86l-1.63.93C125.35,219.12,126,219.05,126.64,218.86Z"/><path class="cls-3" d="M359.44,210.9c-1,1.33-.14,2.52.35,3.71,1.8,4.3,3.57,8.61,5.46,12.87a32.45,32.45,0,0,1,2.5,7c1.4,7.31-.88,12.54-7,16.21-6.64,4-13.63,4-19.19-.33a35.21,35.21,0,0,1-9.86-11.79c-7.26-14-12.47-28.67-13.64-44.57-.19-2.65-.67-5.27-.94-7.92a1.74,1.74,0,0,1,1-2.05,2,2,0,0,1,2.57.91,17.73,17.73,0,0,1,2.06,6.12c.86,4.57,1.6,9.18,2.54,13.73,2.15,10.35,6.31,20,10.84,29.45a28.78,28.78,0,0,0,7.86,10.23c2.95,2.36,6.16,3.8,10.16,2.56,7.1-2.19,9.78-6.68,7.36-13.71-2.16-6.29-4.82-12.41-7.33-18.57a72.83,72.83,0,0,1-3.69-14,9.48,9.48,0,0,1-.14-2,4.82,4.82,0,0,1,2.92-4.33c2-.95,3.68.1,4.85,1.53a38.61,38.61,0,0,1,3.45,5.48,19.22,19.22,0,0,0,3,4.6c1.27,1.23,2.65,2,4.48,1.34a4.43,4.43,0,0,0,3.19-4.06,17.34,17.34,0,0,0-.79-6.39A50.23,50.23,0,0,0,363,181.83a28,28,0,0,1-2.5-3.71,2.53,2.53,0,0,1,.44-3.22c1.15-1.07,2.17-.31,3.1.39a37.53,37.53,0,0,1,12.83,16.86A33.71,33.71,0,0,1,379,202.34c.41,7.46-8.5,15.16-16.93,9.65C361.28,211.47,360.63,210.56,359.44,210.9Zm-.84-1.84-.19.31.28,0Z"/><path class="cls-3" d="M184.64,281.08c-1.84,2.17-4.3,2.52-6.82,2.61-15.86.62-31.09-2.59-45.93-7.85a28.88,28.88,0,0,1-12.68-8.59,7.15,7.15,0,0,1-2.13-4.39c-.09-2.53,1.5-3.68,3.88-2.76a4.78,4.78,0,0,1,1.27.78c7.9,6.53,17.36,9.59,27,12.38,10,2.87,20.15,4.2,30.37,5.53a28.15,28.15,0,0,1,3.41.67A2,2,0,0,1,184.64,281.08Z"/><path class="cls-3" d="M36.42,63.42c.49,2-.71,2.92-1.5,3.87A8.89,8.89,0,0,0,33,75.24c2.35,10.87,6.68,20.78,14.45,29,2.42,2.55,5.67,3.79,9.3,5.88-5.08.9-8.23-1.07-11.12-3.61C39,100.68,34.76,93.23,31.38,85.2a36.76,36.76,0,0,1-3-10C27.62,68.56,29.52,65.76,36.42,63.42Z"/><path class="cls-4" d="M275,122.73c.38,4.43-1.57,8-4.16,11.32a43.23,43.23,0,0,0-20.51,1.67c-1.51.47-2.12-.25-2.7-1.19a25.28,25.28,0,0,1-3.07-20.9c.33-1.23.89-1.86,2.41-1.51a29.11,29.11,0,0,0,19.88-2.57c2.42-1.2,3.3-.45,4.41,1.46C273.4,114.65,273.76,118.82,275,122.73ZM251,121.87c.23,2.33,1.42,3.87,3.78,3.93a3.86,3.86,0,1,0,.14-7.72C252.57,118.09,251.27,119.59,251,121.87Z"/><path class="cls-4" d="M213.16,119.33c-.08,5.89-2.95,10.26-7.48,13.73-1.73,0-3.22-.87-4.78-1.44a45.59,45.59,0,0,0-12.7-2.85c-5.93-.36-5.95-.28-6.57-6.08-.18-1.66-.16-3.34-.27-5-.28-4.08,1.52-7.3,4.09-10.28,1.26-1.45,2.38-1.68,4-.65,5.46,3.49,11.45,3.26,17.5,2.25,3.85-.63,4.91.1,5.43,4,.13,1,.22,2,.33,3A3.7,3.7,0,0,0,213.16,119.33Zm-25,2c-.08,2.81,1.18,4.3,3.48,4.44a3.85,3.85,0,1,0,.43-7.69A3.5,3.5,0,0,0,188.14,121.34Z"/><path class="cls-3" d="M238.59,123.37c0-3.82-.08-7.78,1.11-11.46a19.18,19.18,0,0,1,20.17-13.28,16.31,16.31,0,0,1,8.81,3.5,19.52,19.52,0,0,1,5.5,8.2,32.3,32.3,0,0,1,2.09,10,3.58,3.58,0,0,1-.18,1.57,1.28,1.28,0,0,1-1.24.82,53.87,53.87,0,0,0-2-8.12,19,19,0,0,0-4.31-7.11,14.37,14.37,0,0,0-8.35-4,14,14,0,0,0-7.59,1.15c-7,3.29-9.64,11.5-8.89,18.74a26.21,26.21,0,0,0,3.95,11.15c.58.94,1.19,1.66,2.7,1.19a43.23,43.23,0,0,1,20.51-1.67c3.42,1,7.06,1.2,10.29,2.84,1,.53,2.79.87,2.34,2.39s-2,.79-3.17.52a61.85,61.85,0,0,0-34,1.53c-.64.21-1.27.44-1.92.6-1,.25-2.16.71-2.77-.28-.73-1.17.39-1.78,1.28-2.28,1.54-.88,1.55-1.61.35-3.06A20,20,0,0,1,238.59,123.37Z"/><path class="cls-3" d="M176.19,130.66c2.82-.68,3.56-1.95,2.65-5-1.84-6.15-2.63-12.35.91-18.46,4.94-8.52,17.45-13.64,26.75-10.57,4.88,1.61,8.36,7.09,8.59,13.61.07,1.91,0,3.81,0,5.72h-2.37c.22,0-1.07-5.82-1.25-6.41-1.2-4-3.2-7.59-7.52-8.7-7.95-2-16.54,3.16-20.77,9.71a11.85,11.85,0,0,0-1.82,7.12c.11,1.68.09,3.36.27,5,.62,5.8.64,5.72,6.57,6.08a45.59,45.59,0,0,1,12.7,2.85c1.56.57,3,1.41,4.78,1.44,1.94,1.07,3.93,2.05,5.8,3.23.79.5,1.88,1.29,1.4,2.42-.59,1.38-1.91.84-2.93.51-5.92-2-11.77-4.2-18-5.31-5-.89-9.88-1.49-14.85,0-1.17.34-2.79.74-3.28-.66C173.28,131.54,174.87,131,176.19,130.66Z"/><path class="cls-2" d="M212.72,116h2.37c-.05,1.47-.1,2.93-1.93,3.38A3.7,3.7,0,0,1,212.72,116Z"/><path class="cls-5" d="M251,121.87c.32-2.28,1.62-3.78,3.92-3.79a3.86,3.86,0,1,1-.14,7.72C252.37,125.74,251.18,124.2,251,121.87Z"/><path class="cls-5" d="M188.14,121.34a3.5,3.5,0,0,1,3.91-3.25,3.85,3.85,0,1,1-.43,7.69C189.32,125.64,188.06,124.15,188.14,121.34Z"/></g></g></svg>