<svg xmlns="http://www.w3.org/2000/svg" viewBox="0 0 920.76 387.62"><defs><style>.cls-1{fill:#f2912c;}.cls-2{fill:#0b2b37;}.cls-3{fill:#0e2c38;}.cls-4{fill:#aaa9a9;}.cls-5{fill:#fcb126;}.cls-6{fill:#e4e4e4;}.cls-7{fill:#033c52;}.cls-8{fill:#00b3ea;}.cls-9{fill:#f49223;}.cls-10{fill:#009ddb;}</style></defs><title>slide_22</title><g id="Layer_2" data-name="Layer 2"><g id="Layer_1-2" data-name="Layer 1"><path class="cls-1" d="M501.42,91.24c-2.29,35.78-.7,71.54.93,107.28.62,13.71,1.66,27.41,2.32,41.13a287.1,287.1,0,0,1-2.31,55.45c-2.62,17.84-1.94,35.68-.86,53.55.66,11-4,15.5-14.88,13.93a104.47,104.47,0,0,1-27.88-8.45c-2.51-1.12-4-2.73-4.27-5.74-2.62-34.2-1-68.33,2.08-102.39,1-10.83,4-21.36,7.4-31.69,4.71-14.2,6.37-28.7,4.09-43.48-3.3-21.33-2.45-42.65-.58-64A116.26,116.26,0,0,0,468,87.69l.15-.47,9.35,1.35c-.66,6.31-1.25,12.63-2,18.93-.94,8.2-1.35,16.47-2.23,24.65a133.1,133.1,0,0,0,.9,32.79c1.58,11.44,2.55,23,.95,34.3-2.37,16.76-7.76,33.07-8.88,50.07a192.26,192.26,0,0,0,.08,27.26,241.82,241.82,0,0,1,.18,36.8c-.73,9.84.54,19.76-1.47,29.52-.32,1.55-.16,3.21,2.22,3.41,7.16.58,14.05,2.49,20.94,4.4,1.9.52,4.2.56,3.39-2-1.15-3.64.36-6.95.17-10.36-1.16-21.27,3.54-42.08,5.1-63.13a297,297,0,0,0-.51-52c-2-19.6-3.89-39.23-4.24-58.87-.45-24.85-1.59-49.78.86-74.63C495.83,90,498.75,89.9,501.42,91.24Z"/><path class="cls-2" d="M477.49,88.57l-9.36-1.35c-5.24-2.65-10.51-5.25-15.71-8-4.28-2.24-8.6-3-13.31-1.41a53,53,0,0,1-16.29,2.79,7.7,7.7,0,0,1-3.05-3.77L415.2,63.38c-1-10.32,2.5-19.41,7.49-28.14,1.52-2.67,3.32-3.46,6.23-1.93,15.21,8,31.68,9,48.4,8.46,13.42-.43,27-.9,39.81,3.53,18.53,6.4,30.55,19.17,33.83,39,.62,3.76,1.75,8.2-2,11.19-4,3.24-7.46,0-11-1.65-6.16-6-11.93-12.58-20.49-15.41,5.67,6.6,14.2,10.09,18.7,17.87.33,1.44,1.56,3-.69,4-3.69,1.76-7.2,4.24-11.54,1.56-3.37-2.07-6.83-4-10.3-5.94-3.87-2.15-7.69-4.47-12.3-4.72-2.67-1.34-5.59-1.27-8.45-1.55A54.77,54.77,0,0,0,477.49,88.57Zm50.72,7.32a30.84,30.84,0,0,0-8.58-8,58.28,58.28,0,0,1-11-9.15c-2.06-2.19-2-4.81-1-7.14.85-2,3.06-2.69,5.31-2.3,7,1.21,13.42,3.77,18.85,8.58,3.21,2.84,6.61,5.46,9.95,8.15.59.47,1.2,1.26,2.07.79,1-.56.82-1.68.67-2.56-1.17-6.84-3.42-13.21-8.37-18.33-11.1-11.52-24.83-16.82-40.66-17-11.5-.09-23-.1-34.5,0a51.61,51.61,0,0,1-19.63-3.29c-4-1.58-7.86-3.49-11.74-5.34-1.46-.7-2.8-1.19-3.39.84-.75,2.58,1,1.28,2.1,1.36,1.88.15,2.3,1.47,1.77,3.11s-1.84,2.93-3,4.27c-5.78,6.74-6.73,14.33-3.08,21.77,1.8,3.66,4,5.23,7.91,2.91,10.38-6.15,20.18-5.58,29.37,2.57a4.85,4.85,0,0,0,3.46,1.36c6.71-1.35,13.22.39,19.77,1.13,12.71,1.43,25,4.3,35.47,12.26C522.2,93.58,524.31,95.7,528.21,95.89Z"/><path class="cls-3" d="M79.75,240.17a10.05,10.05,0,0,1,8.61,1.88c2.64,3.64,5.26,7.29,9.19,9.71a4.93,4.93,0,0,0,3,2.43c4.25,7.44,4.24,9.41-2.64,15C75.05,287.61,57,310.68,37.21,332c-2.33,2.51-3.86,5.76-5.77,8.66-2.81.46-5.39-.69-8.07-1.15L17,330.91a27.88,27.88,0,0,0-3.46-7.64,13.44,13.44,0,0,1,1.88-7.58c8.42-15.31,20.71-27.38,32.66-39.75Q64.72,258.75,79.75,240.17Zm15.9,20.92c-.59-.55-1-1-1.45-1.36-3.29-3-6.59-6-9.13-9.73-1.15-1.7-2.37-1.54-3.74.22-11.19,14.32-23.88,27.28-36.68,40.12-8,8-13.91,17.63-21.07,26.28-2.94,3.55-2,6.06.8,8.75.81.77,1.58,1.58,2.37,2.37,1.79,1.77,3.07,1.43,4.65-.55,10.77-13.41,23.24-25.28,34.71-38.05C74.31,280,83.8,272.19,93,264.08A38.13,38.13,0,0,0,95.65,261.09Z"/><path class="cls-4" d="M23.37,339.52c2.68.46,5.26,1.61,8.07,1.15-6,7.94-14,11.92-23.92,11.11-6.43-.52-9.12-5.43-6.56-11.34a48.55,48.55,0,0,1,12.62-17.17A27.88,27.88,0,0,1,17,330.91c-2.92,2.75-4.83,6.2-6.75,9.63-1.07,1.92-.67,2.71,1.69,2.95C16.47,344,19.78,341.43,23.37,339.52Z"/><path class="cls-2" d="M422.82,80.62a53,53,0,0,0,16.29-2.79c4.71-1.62,9-.83,13.31,1.41,5.2,2.73,10.47,5.33,15.71,8,0,.16-.09.31-.14.47a30.94,30.94,0,0,1-12.74-5.22C448.64,77.62,442,77.86,435,81.16c-2.15,1-4.38,2-6.84,1.93C426.11,83,424,82.69,422.82,80.62Z"/><path class="cls-2" d="M415.2,63.38l4.57,13.47A17.72,17.72,0,0,1,415.2,63.38Z"/><path class="cls-5" d="M477.49,88.57A54.77,54.77,0,0,1,493,89.69c-2.45,24.85-1.31,49.78-.86,74.63.35,19.64,2.24,39.27,4.24,58.87a297,297,0,0,1,.51,52c-1.56,21.05-6.26,41.86-5.1,63.13.19,3.41-1.32,6.72-.17,10.36.81,2.58-1.49,2.54-3.39,2-6.89-1.91-13.78-3.82-20.94-4.4-2.38-.2-2.54-1.86-2.22-3.41,2-9.76.74-19.68,1.47-29.52a241.82,241.82,0,0,0-.18-36.8,192.26,192.26,0,0,1-.08-27.26c1.12-17,6.51-33.31,8.88-50.07,1.6-11.26.63-22.86-.95-34.3a133.1,133.1,0,0,1-.9-32.79c.88-8.18,1.29-16.45,2.23-24.65C476.24,101.2,476.83,94.88,477.49,88.57Zm3.79,188.67c0-1.12,0-2.24,0-3.36.12-2.27-.41-4.45-2.77-5-2.86-.62-3.88,1.93-4.52,4a38.63,38.63,0,0,0-1.44,7.94c-1,10.92,2.59,21.52,2,32.37-.22,4.13-.68,8.23-.91,12.36-.08,1.52-.42,3.68,1.67,3.92s2.74-1.64,3.13-3.49c1.44-6.85,2.78-13.65,2.94-20.72C481.6,295.94,478.58,286.59,481.28,277.24Zm4.33-153.59c.47-1.47.41-3.1-1.36-3.43-2.24-.42-2.42,1.59-2.88,3-4.21,13.38-1.83,27.07-1.74,40.64,0,1.37.17,4.6,1.84,4.27,2.58-.52,2.55-3.67,2.65-6C484.68,149.35,485.12,136.5,485.61,123.65Zm-1.45,118.19c0-1,0-1.66,0-2.29,0-1.73.32-3.84-2-4.26s-3.08,1.69-3.38,3.28c-.67,3.58-2.68,6.85-2.29,10.68.19,1.83.18,3.68,2.54,3.9a3.47,3.47,0,0,0,4-3.21C483.38,247.11,484.73,244.4,484.16,241.84Z"/><path class="cls-6" d="M97.55,251.76c-3.93-2.42-6.55-6.07-9.19-9.71q18.44-21.95,36.86-43.88c24.7-29.45,46.75-60.88,68.51-92.48,11.37-16.52,22.94-32.78,36.2-47.82a8.9,8.9,0,0,0,1-2.09,2.06,2.06,0,0,0,1.91-2,27,27,0,0,0,6.59-7,2.73,2.73,0,0,0,2-2.63,14.49,14.49,0,0,0,4.68-5c1.91-1,3.45-2.35,3.91-4.6a10.11,10.11,0,0,0,3.81-3.92c5-4.49,10-8.88,14.82-13.49a59.13,59.13,0,0,1,8.72-6.68c9.85-6.4,21.09-1.14,22.68,10.59,2.79,20.64-4.38,37.75-18.45,52.51-12.81,13.43-27.43,24.76-41.63,36.6-12.48,10.4-25,20.76-37.05,31.67-16.29,14.8-32.67,29.58-48,45.36-17.78,18.32-36.5,35.75-52.85,55.42C100,245.25,97.34,247.83,97.55,251.76ZM219.06,94c2.33-1,3.65-2.78,5-4.56,11.39-15.37,23-30.57,36.73-43.95,5.35-5.22,11.63-9.41,16.57-15.1,1.41-1.62,3.45-2.85,1.82-5.13s-3.94-1-5.64-.07C267.68,28.45,262,32,257.19,36.68c-11.67,11.41-21.67,24.2-30.89,37.61-3.24,4.71-6.15,9.68-9,14.63C216,91.12,216.09,93.18,219.06,94Zm-7.42,12.73c-.09-1.32-.41-2.2-1.37-2.65a2.34,2.34,0,0,0-3,.85c-3.93,4.75-7.89,9.49-10.78,15-.4.76-1.28,1.78-.14,2.48.92.56,1.82-.18,2.48-.89,4-4.3,8-8.59,11.89-12.93A6.22,6.22,0,0,0,211.64,106.74Z"/><path class="cls-7" d="M528.21,95.89c-3.9-.19-6-2.31-8.2-4-10.51-8-22.76-10.83-35.47-12.26-6.55-.74-13.06-2.48-19.77-1.13a4.85,4.85,0,0,1-3.46-1.36c-9.19-8.15-19-8.72-29.37-2.57-3.91,2.32-6.11.75-7.91-2.91-3.65-7.44-2.7-15,3.08-21.77,1.15-1.34,2.44-2.55,3-4.27s.11-3-1.77-3.11c-1.09-.08-2.85,1.22-2.1-1.36.59-2,1.93-1.54,3.39-.84,3.88,1.85,7.75,3.76,11.74,5.34A51.61,51.61,0,0,0,461,49c11.5-.13,23-.12,34.5,0,15.83.13,29.56,5.43,40.66,17,5,5.12,7.2,11.49,8.37,18.33.15.88.38,2-.67,2.56-.87.47-1.48-.32-2.07-.79-3.34-2.69-6.74-5.31-9.95-8.15C526.4,73,520,70.48,513,69.27c-2.25-.39-4.46.28-5.31,2.3-1,2.33-1.07,5,1,7.14a58.28,58.28,0,0,0,11,9.15A30.84,30.84,0,0,1,528.21,95.89ZM487.66,58.54c7.56,0,13.47.15,19.36-.08,2.25-.09,6.19,1.59,6.28-2,.08-3-3.88-3.12-6.48-3.63-11-2.19-22.13-2-33.26-2a35.57,35.57,0,0,0-11.19,2.06c-2.12.69-4.59,1.42-3.92,4.45.64,2.87,3.26,2.46,5.12,2.08C472.12,57.63,480.75,59.07,487.66,58.54Zm-52.48,1.6a19.06,19.06,0,0,0,0-3.78c-.58-2.84-2.19-3.31-4.36-1.44-3.34,2.88-4.18,9.47-1.68,13.09.72,1,1.59,2.07,3.07,1.85s1.88-1.41,2.15-2.73C434.81,64.82,435.57,62.55,435.18,60.14Z"/><path class="cls-4" d="M308.57,22.54c-1.16-12.78-13.71-25.26-27.2-21.49-16,4.48-27.82,17.46-38.55,29.42-31,34.61-58.78,72.14-86.1,109.7q-8,10.46-16.07,20.79c-17.8,22.67-36.06,45-53.95,67.58-2.78,3.51-6.44,6.68-7,11.63a10.05,10.05,0,0,1,8.61,1.88q18.44-21.95,36.86-43.88c24.7-29.45,46.75-60.88,68.51-92.48A558.05,558.05,0,0,1,241.59,45c8.8-9.6,18-18.84,27.63-27.62C276.18,11,285.81,3,295,11a16.1,16.1,0,0,1,5.14,10.08c2.79,20.64-4.38,37.75-18.45,52.51-12.81,13.43-27.43,24.76-41.63,36.6-12.48,10.41-25,20.76-37.05,31.67-16.29,14.8-32.67,29.58-48,45.36-17.78,18.32-36.5,35.75-52.85,55.42-2.19,2.64-4.83,5.22-4.62,9.15a4.93,4.93,0,0,0,3,2.43c1.76-.24,2.69-1.66,3.74-2.8q15.42-16.74,32.07-32.25c15.27-14.29,30.08-29.09,44.95-43.81,18.84-18.65,37.44-37.54,58.2-54.12,16.71-13.36,33.3-26.83,48.19-42.3C302.92,63.08,310.61,44.82,308.57,22.54Z"/><path class="cls-7" d="M95.65,261.09a38.13,38.13,0,0,1-2.68,3C83.8,272.19,74.31,280,66.11,289.14c-11.47,12.77-23.94,24.64-34.71,38.05-1.58,2-2.86,2.32-4.65.55-.79-.79-1.56-1.6-2.37-2.37-2.83-2.69-3.74-5.2-.8-8.75,7.16-8.65,13.08-18.27,21.07-26.28,12.8-12.84,25.49-25.8,36.68-40.12,1.37-1.76,2.59-1.92,3.74-.22,2.54,3.74,5.84,6.72,9.13,9.73C94.64,260.13,95.06,260.54,95.65,261.09Z"/><path class="cls-6" d="M23.37,339.52c-3.59,1.91-6.9,4.43-11.39,4-2.36-.24-2.76-1-1.69-2.95,1.92-3.43,3.83-6.88,6.75-9.63Z"/><path class="cls-8" d="M785.18,283a.72.72,0,0,0-.15.53c-4.85,8.37-10.75,16.13-14.41,25.18-.65,1.61-1.66,3.1-1.64,4.93l-8.43,19.26a1.74,1.74,0,0,0-.94,1.9,344.58,344.58,0,0,1-19.13,32.48,38.78,38.78,0,0,1-10,10.22c-2.34,1.68-4.64,1.89-6.93-.25-4.45-4.15-6.28-9.62-7.31-15.28-.56-3.07,2.42-5,4.22-7.14,7.69-9.16,15.65-18.1,22.63-27.83a3.22,3.22,0,0,0,2.08-2.72c.58-.71,1.16-1.41,1.75-2.11a3.06,3.06,0,0,0,2-2.72c2.57-2.08,4.15-4.9,5.69-7.74,5.52-6.05,9.69-13,13.47-20.2,10.1-19.21,18.31-39.38,29.76-57.91,11.91-19.3,24.19-38.33,37.4-56.78a296.92,296.92,0,0,0,28.5-48.7c8.58-18.61,19.21-36.06,29.77-53.56C898,67.3,902,59.87,904.63,51.8c3.21-9.62,1.36-18.82-2.78-27.74a3.14,3.14,0,0,0-2.38-2.14.89.89,0,0,0-.81,0h0c-.61-2.51-2.7-1.74-4.29-1.84-6.31-.41-11.6,3-17.27,4.86-13,4.36-23.87,12.07-33.26,22h0a2.16,2.16,0,0,0-2.1.95c-7.73,4.64-15.57,9.08-23.69,13-1.54.75-3,1.81-4.9,1.48,2.32-3.22,4.75-6.37,6.92-9.68,1.22-1.87,2.13-4,.44-6.2a5.84,5.84,0,0,0-6-2.12c-3.07.57-6.09,1.17-10.33.17,6.46-3.69,12.14-6.74,17.62-10.1,9.77-6,20.46-10.19,30.46-15.72a22.59,22.59,0,0,0,6.21-4.37c10.53-6.28,22-8.49,34.15-8.57,7.8,0,13.7,3.22,18.05,9.56,2.16,6.14,4.3,12.19,3.63,19-1.21,12.16-5.84,23.15-11.05,33.9-9.4,19.38-17.27,39.09-26.87,58.37-.84,1.7-3.91,2.77-3.8,4.81l0-.05a1.83,1.83,0,0,0-1,2l0-.06a1.74,1.74,0,0,0-1,2l.06-.06-1.07,1.05c-8.11,12.74-16.82,25.11-22.52,39.25-1.35,3.36-3.38,6.44-5.1,9.66l-.07,0a2,2,0,0,0-1,1.95l0,0a1.66,1.66,0,0,0-1,1.94l0,0c-1,.37-.76.88-.18,1.44a.68.68,0,0,0-.62.36,1.16,1.16,0,0,0-1.11,1.11v0c-3.28,1.68-4.48,4.86-5.77,8-2,1.81-.55,3.58-1.91,5.84-2.54,1.79-5.28,4.89-4.94,7.57-.15.43-.3.87-.46,1.3-2.6,3.13-3.64,3.75-4.6,5.13-7.27,14.15-15.61,22.79-24.4,35.23A57.7,57.7,0,0,0,785.18,283Zm-40.37,57.41c.23-1.47.07-2.18-.58-2.38-1.77-.55-2.68.87-3.53,1.92q-9.5,11.7-18.82,23.55c-.91,1.15-2.42,2.7-.65,4.15,1.41,1.16,2.66-.3,3.79-1.08.91-.63,1.67-1.49,2.53-2.2,7.47-6.08,11-15.07,16.68-22.5A3.79,3.79,0,0,0,744.81,340.43Zm86-300.26a5.59,5.59,0,0,0,.94-.16c9.17-2.95,16.33-9.09,23.7-14.89A1.69,1.69,0,0,0,856,23a1.76,1.76,0,0,0-2.52-.59q-12.06,7.24-24,14.68a1.75,1.75,0,0,0-.66,2.12C829.19,40.12,830,40.12,830.81,40.17Z"/><path class="cls-9" d="M481.28,277.24c-2.7,9.35.32,18.7.11,28.06-.16,7.07-1.5,13.87-2.94,20.72-.39,1.85-1,3.74-3.13,3.49s-1.75-2.4-1.67-3.92c.23-4.13.69-8.23.91-12.36.6-10.85-3-21.45-2-32.37a38.63,38.63,0,0,1,1.44-7.94c.64-2.07,1.66-4.62,4.52-4,2.36.51,2.89,2.69,2.77,5C481.23,275,481.28,276.12,481.28,277.24Z"/><path class="cls-9" d="M485.61,123.65c-.49,12.85-.93,25.7-1.49,38.54-.1,2.31-.07,5.46-2.65,6-1.67.33-1.83-2.9-1.84-4.27-.09-13.57-2.47-27.26,1.74-40.64.46-1.45.64-3.46,2.88-3C486,120.55,486.08,122.18,485.61,123.65Z"/><path class="cls-9" d="M484.16,241.84c.57,2.56-.78,5.27-1.12,8.1a3.47,3.47,0,0,1-4,3.21c-2.36-.22-2.35-2.07-2.54-3.9-.39-3.83,1.62-7.1,2.29-10.68.3-1.59,1-3.71,3.38-3.28s2,2.53,2,4.26C484.17,240.18,484.16,240.82,484.16,241.84Z"/><path class="cls-4" d="M219.06,94c-3-.83-3.08-2.89-1.8-5.09,2.89-5,5.8-9.92,9-14.63,9.22-13.41,19.22-26.2,30.89-37.61C262,32,267.68,28.45,273.51,25.2c1.7-.95,4-2.18,5.64.07s-.41,3.51-1.82,5.13c-4.94,5.69-11.22,9.88-16.57,15.1C247,58.88,235.42,74.08,224,89.45,222.71,91.23,221.39,93,219.06,94Z"/><path class="cls-4" d="M211.64,106.74a6.22,6.22,0,0,1-.87,1.85c-3.92,4.34-7.91,8.63-11.89,12.93-.66.71-1.56,1.45-2.48.89-1.14-.7-.26-1.72.14-2.48,2.89-5.5,6.85-10.24,10.78-15a2.34,2.34,0,0,1,3-.85C211.23,104.54,211.55,105.42,211.64,106.74Z"/><path class="cls-2" d="M487.66,58.54c-6.91.53-15.54-.91-24.09.85-1.86.38-4.48.79-5.12-2.08-.67-3,1.8-3.76,3.92-4.45a35.57,35.57,0,0,1,11.19-2.06c11.13,0,22.27-.18,33.26,2,2.6.51,6.56.64,6.48,3.63-.09,3.61-4,1.93-6.28,2C501.13,58.69,495.22,58.54,487.66,58.54Z"/><path class="cls-2" d="M435.18,60.13c.39,2.42-.37,4.69-.86,7-.27,1.32-.64,2.49-2.15,2.73s-2.35-.81-3.07-1.85c-2.5-3.62-1.66-10.21,1.68-13.09,2.17-1.87,3.78-1.4,4.36,1.44A19,19,0,0,1,435.18,60.13Z"/><path class="cls-10" d="M913.11,8.87c-3.44-4.82-8-7.84-13.94-8.37-12.74-1.14-25.55-.73-37,5.4-8.4,4.51-16.5,9.56-24.86,14.14-12.66,7-26.91,12-38.54,20.61-1.84,1.37-5.35,2.77-2.89,6.41,2.79,5,7.6,4,12.06,4.12,1.88.07,3.95-1.7,5.65.5l-5.38,7.53c-1.58.95-2.38,2.55-3.3,4-1,1.68-1.74,3.52-.39,5.34s3.37,1.74,5.24,1.2a46.92,46.92,0,0,0,6.72-2.45c14.66-6.75,28.58-14.66,40.9-25.28,10-8.64,22.84-13.49,35.88-15.17a4.13,4.13,0,0,1,2.21.14c2.88,1.3,3.24,9.3,3.5,11.92a36.14,36.14,0,0,1-1.41,14.62c-2.39,7.47-6.67,14.15-10.66,20.84-6,10.15-12.63,20-18.25,30.38q-5.11,9.47-9.89,19.12c-2.9,5.88-7,11.49-9.44,17.57q-6.2,11.26-12.7,22.38c-4.19,7.17-9.27,13.66-14,20.52-16.57,24.09-32.55,48.95-45.32,75.28-1.33,2.75-2.77,5.5-3.91,8.33-6.35,14-13.59,27.52-23.23,39.56s-19.41,23.74-29.37,35.39c-3.45,4-5.81,9.18-11,11.64-.76.36-1.33,1.89-1.36,2.9-.36,10.29,1.91,19.78,9.82,27,5.1,4.63,12,4.1,17.2-.72,7.76-5.42,12.75-14.14,17.34-22.2a361.17,361.17,0,0,0,21.89-45.68c1-2.54,2-5.08,3.11-7.57,2.74-6.13,6.5-11.33,10.1-16.93,4.4-6.86,3.73-15.94,7.3-23.31,3-6.23,7.16-11.8,10.56-17.8,3.59-6.33,7.34-12.57,11.16-18.77,7.9-12.83,16.14-25.45,24.59-37.92l5.09-7.47c3.3-4,5.59-8.63,7.91-13.23,4.23-9.06,9.81-17.32,15.25-25.69,7.94-12.21,14.56-25.21,20.87-38.32S904,83,910,69.79c5.22-11.34,9.52-22.71,10.58-35.27C921.42,25,918.6,16.55,913.11,8.87Zm1.21,25.48c-1.2,12.16-5.83,23.15-11,33.9C892.94,89.57,882,110.56,871.87,132c-2.67,5.66-6.67,11.12-10.06,16.43-2.75,4.3-5.44,8.65-7.92,13.11a133.92,133.92,0,0,0-6.53,13.62c-2.6,6.27-6.73,11.13-10.7,16.51A103.5,103.5,0,0,0,825.42,211a11.6,11.6,0,0,1-2,3.47,23.9,23.9,0,0,1-2,1.62c-4.41,3.64-7.33,10.75-10.34,15.61-4.86,7.84-9.74,15.67-15.07,23.2A57.66,57.66,0,0,0,785.18,283a.63.63,0,0,0-.15.53c-4.85,8.37-10.75,16.13-14.41,25.18-.66,1.61-1.66,3.1-1.65,4.93l-8.43,19.26a1.73,1.73,0,0,0-.93,1.9,346.75,346.75,0,0,1-19.13,32.48,38.78,38.78,0,0,1-10,10.22c-2.34,1.68-4.64,1.88-6.93-.25-4.45-4.15-6.28-9.62-7.32-15.29-.56-3.06,2.43-5,4.22-7.13,7.69-9.16,15.66-18.1,22.64-27.84a3.2,3.2,0,0,0,2.07-2.72l1.75-2.1a3.06,3.06,0,0,0,2-2.72c2.58-2.08,4.15-4.9,5.7-7.74a76.28,76.28,0,0,0,7.38-9.67c2.21-3.4,4.19-6.94,6.09-10.53,10.1-19.21,18.31-39.38,29.75-57.92,11.92-19.29,24.2-38.32,37.41-56.77a298,298,0,0,0,28.5-48.7c8.57-18.61,19.21-36.07,29.77-53.57A114.09,114.09,0,0,0,904.63,51.8,32.11,32.11,0,0,0,905.91,37c-.74-5.13-1.64-11.39-5.89-14.91-6.11-5.05-14.09-.84-20.28,1.71-4.46,1.84-9,3.44-13.29,5.68a74,74,0,0,0-19.23,14.22,24.81,24.81,0,0,1-2.2,2.15,20.55,20.55,0,0,1-2.9,1.88c-7.94,4.54-15.81,9.16-24,13.15-1.55.75-3,1.81-4.9,1.48l.05-.06c2.3-3.2,4.71-6.33,6.87-9.62,1.22-1.87,2.12-4,.44-6.2a5.84,5.84,0,0,0-6-2.12c-3.07.57-6.09,1.16-10.33.17,6.46-3.69,12.14-6.74,17.62-10.11,9.77-6,20.45-10.19,30.45-15.72a22.23,22.23,0,0,0,6.21-4.37c10.53-6.27,22-8.48,34.16-8.56,7.8,0,13.7,3.22,18,9.56,1.89,5.35,3.76,10.62,3.76,16.39A25.38,25.38,0,0,1,914.32,34.35Z"/><path class="cls-10" d="M839.2,190.73l-1.12,1.11v0A1.15,1.15,0,0,1,839.2,190.73Z"/><path class="cls-10" d="M744.23,338.05c-1.77-.55-2.68.87-3.53,1.92q-9.5,11.7-18.82,23.55c-.91,1.15-2.42,2.7-.65,4.15,1.41,1.16,2.66-.3,3.79-1.08.91-.63,1.67-1.49,2.53-2.2,7.47-6.08,11-15.07,16.68-22.5a3.79,3.79,0,0,0,.58-1.46C745,339,744.88,338.25,744.23,338.05Z"/><path class="cls-10" d="M853.51,22.39q-12.06,7.24-24,14.68a1.75,1.75,0,0,0-.66,2.12c.35.93,1.18.93,2,1a5.59,5.59,0,0,0,.94-.16c9.17-2.95,16.33-9.09,23.7-14.89A1.69,1.69,0,0,0,856,23,1.76,1.76,0,0,0,853.51,22.39Z"/></g></g></svg>