<?xml version="1.0" encoding="UTF-8" standalone="no"?>
<svg
   xmlns:dc="http://purl.org/dc/elements/1.1/"
   xmlns:cc="http://creativecommons.org/ns#"
   xmlns:rdf="http://www.w3.org/1999/02/22-rdf-syntax-ns#"
   xmlns:svg="http://www.w3.org/2000/svg"
   xmlns="http://www.w3.org/2000/svg"
   id="svg168"
   version="1.1"
   viewBox="0 0 1149.37 523.88">
  <metadata
     id="metadata172">
    <rdf:RDF>
      <cc:Work
         rdf:about="">
        <dc:format>image/svg+xml</dc:format>
        <dc:type
           rdf:resource="http://purl.org/dc/dcmitype/StillImage" />
        <dc:title>slide_7_8</dc:title>
      </cc:Work>
    </rdf:RDF>
  </metadata>
  <defs
     id="defs4">
    <style
       id="style2">.cls-1{fill:#023d53;}.cls-2{fill:#032c3b;}.cls-3{fill:#e4e4e4;}.cls-4{fill:#7f7f7f;}.cls-5{fill:#ccc;}.cls-6{fill:#aaa9a9;}</style>
  </defs>
  <title
     id="title6">slide_7_8</title>
  <g
     data-name="Layer 2"
     id="Layer_2">
    <path
       class="cls-1"
       d="m 664.88,365.59 c 11.21,-14.18 30.64,-22.54 48,-17.55 6,1.74 11.54,4.91 17,8.06 l 27.69,16 c 8.3,4.81 16.77,9.75 23,17.05 a 42.34,42.34 0 0 1 -26.62,69.43 c -13.89,1.85 -27.73,-3.23 -41.73,-3.75 -10.23,-0.38 -20.53,1.67 -30.65,0.19 C 638.71,448.81 644,392 664.88,365.59 Z"
       id="path8"
       style="fill:#023d53" />
    <path
       class="cls-2"
       d="m 796.74,410.82 c 0.06,6.21 -0.43,10.69 -2.32,14.68 -9.51,20.12 -24.11,34.14 -47,37.51 -12.57,1.85 -24,-2.91 -35,-7.91 -3.55,-1.61 -6.42,-2.16 -10.08,-1.29 -13.57,3.25 -26.57,1.93 -39.56,-3.67 -14.5,-6.26 -21,-22.59 -20.15,-34.23 1.46,-21.29 6.6,-41.37 21.88,-57.5 12.41,-13.11 26.89,-19.86 45.25,-14.89 9.24,2.48 17.5,6.84 25.62,11.48 15.06,8.66 30.37,16.86 45.43,25.52 8.71,5 13.84,11.41 14.76,21.33 0.33,3.6 0.92,7.15 1.17,8.97 z m -71.57,37.69 v 1.85 a 49.06,49.06 0 0 0 29.46,0.9 c 11.45,-3.06 19.4,-11.15 25.5,-21.05 5.32,-8.63 6.24,-17.64 4.17,-27.74 -1.21,-5.92 -3.66,-9.3 -8.51,-12 -8.16,-4.58 -16.07,-9.62 -24.27,-14.11 -12.81,-7 -25.64,-14 -38.73,-20.49 -8.3,-4.09 -19.55,-5.87 -27.92,-1 -11.33,6.65 -20.52,17.4 -26,29 -4.85,10.27 -6,18.81 -7,30 -0.63,6.94 5.21,17.1 10.68,21.84 8.19,7.09 18.68,8.86 28.7,8.19 16.65,-1.11 33.12,-4.47 49.33,-8.69 a 22.65,22.65 0 0 1 7.34,-0.76 c 1.76,0.13 3.31,0.85 3.79,2.64 0.48,1.79 -1,3 -2.19,4.11 -1.19,1.11 -3,1.14 -4.61,1.58 -6.62,1.83 -13.17,3.81 -19.74,5.73 z"
       id="path10"
       style="fill:#032c3b" />
    <path
       class="cls-3"
       d="m 277.9,229.51 c -2.87,7.3 -4,15 -4.71,22.72 a 3.77,3.77 0 0 1 -0.6,1.18 c -0.94,-9.21 -1.2,-18.39 1.11,-27.47 1.27,2 0,4.38 0.83,6.62 1.2,-0.83 1,-2.27 1.77,-3.12 z"
       id="path14"
       style="fill:#e4e4e4" />
    <path
       class="cls-3"
       d="m 842.83,47.88 1.59,-1.14 q -0.78,0.59 -1.59,1.14 z"
       id="path16"
       style="fill:#e4e4e4" />
    <path
       class="cls-3"
       d="m 857.39,21.93 c 0,0.13 -0.07,0.25 -0.1,0.38 0,-0.26 0.03,-0.42 0.1,-0.38 z"
       id="path18"
       style="fill:#e4e4e4" />
    <path
       class="cls-3"
       d="m 857.68,29.56 c -0.2,0.53 -0.41,1.05 -0.63,1.57 a 15,15 0 0 0 0.55,-2.81 12.61,12.61 0 0 0 0,-1.94 4.82,4.82 0 0 1 0.08,3.18 z"
       id="path20"
       style="fill:#e4e4e4" />
    <path
       class="cls-3"
       d="m 489.51,272.26 c -5.79,9.1 -13.59,16.55 -23.86,20.64 a 174.43,174.43 0 0 1 -42.38,10.8 67.31,67.31 0 0 1 -16.88,-0.35 c -7.25,-0.89 -14.53,-1.47 -21.67,-3.1 -4,-0.91 -8,-1.78 -11.32,-4.5 a 6.36,6.36 0 0 1 -3.39,-1.23 174.72,174.72 0 0 1 -16.2,-13.42 c -2.23,-2 -2.11,-2.28 0.44,-4 2.78,-1.88 5.6,-3.7 8.39,-5.57 A 53.3,53.3 0 0 0 380.47,251 c 2.49,-4.89 4.71,-9.92 6.83,-15 0.9,-2.17 1.85,-2.93 4.37,-2.56 19.41,2.79 38.32,0.88 56.58,-6.48 1,-0.4 2,-0.77 3,-1.24 a 2.25,2.25 0 0 1 3.15,0.89 9.66,9.66 0 0 1 1.54,2.78 13.13,13.13 0 0 0 6.61,8.33 c 2.76,0 4.95,1.48 7.06,3 5.34,3.79 10.62,7.66 15.91,11.53 a 15.45,15.45 0 0 1 1.67,1.57 c 6.54,6.59 6.7,11.56 2.32,18.44 z"
       id="path22"
       style="fill:#e4e4e4" />
    <path
       class="cls-3"
       d="m 366,174.61 c -0.17,-1 0.55,-1.38 1.12,-1.82 17.61,-13.12 37,-21.92 59.06,-24.23 a 134.58,134.58 0 0 1 16.91,-0.94 c 7.5,0.15 14.47,1.91 20.52,6.56 8.82,4.33 12.22,11.08 10.73,21.88 a 68.62,68.62 0 0 1 -10.95,29.68 c -2.51,3.68 -5.88,6.57 -9.17,9.5 a 3.89,3.89 0 0 1 -5,0.48 c -3.44,-1.89 -6.81,-1.14 -10.36,-2.84 -5,-0.22 -11,-2.52 -16,-3 -8.35,-0.8 -15.64,-1.45 -23.73,0.38 -1.49,0.33 -3,0.75 -4.46,1 -3.22,0.62 -3.3,0.6 -3.87,-2.66 -2.49,-14.15 -10.48,-24.48 -22.28,-32.18 -0.89,-0.54 -2.02,-0.77 -2.52,-1.81 z"
       id="path24"
       style="fill:#e4e4e4" />
    <path
       class="cls-3"
       d="m 431.84,213.88 a 48.5,48.5 0 0 1 13.55,5.91 7.11,7.11 0 0 1 -4,2.28 c -7.5,2.43 -15.05,4.49 -23,4.93 -4.67,0.25 -10.86,3.72 -15.56,2.88 -2.55,2.5 2,0.06 2,0 -0.12,0.1 -6.07,0 -6,0 -3.81,0.1 -2.07,-2.22 -5.87,-2.9 -1.74,-0.31 -2.28,-0.9 -1.94,-2.71 1.42,-7.75 1.39,-7.68 9.13,-9.52 a 79,79 0 0 1 31.69,-0.87 z"
       id="path26"
       style="fill:#e4e4e4" />
    <path
       class="cls-3"
       d="m 346.84,255.88 c -1.87,6.07 -3.64,10.34 -2,16.62 0.57,2.22 -0.15,3.63 -2.31,4.77 a 62.24,62.24 0 0 1 -32.64,7.25 c -5.63,-0.28 -11.08,-2 -16.36,-4 a 3.26,3.26 0 0 1 -2.05,-1.71 c -6,-1.41 -8.61,-6.41 -10.4,-11.3 -5.29,-14.43 -3.91,-28.48 4.17,-41.69 5.1,-8.32 12.2,-14.79 19.69,-20.88 2.61,-2.11 5.25,-4.18 7.83,-6.33 a 11.11,11.11 0 0 0 3.52,-3.83 4.6,4.6 0 0 0 -4,1 c -12.52,8 -24.71,16.38 -32.26,29.77 -0.75,1.33 -1.4,2.7 -2.1,4.06 l -1.6,-0.07 c 0.77,-3.26 1.56,-6.51 2.28,-9.78 0.51,-2.31 2.4,-3.79 3.42,-5.82 a 49.44,49.44 0 0 1 10.76,-14.15 122.23,122.23 0 0 1 19.47,-15.2 c 12.28,-7.44 25.55,-9.62 39.64,-7 0.1,0 0.16,0.22 0.49,0.68 -2.52,7.7 -3.44,13.1 -2,20 1.95,9.3 5.44,17.81 12.81,24.28 1.5,1.32 5.38,3.89 3.66,5.37 a 74.86,74.86 0 0 0 -18,23 c 0.36,1.26 -1.67,3.82 -2.02,4.96 z"
       id="path28"
       style="fill:#e4e4e4" />
    <path
       class="cls-3"
       d="m 357,268.48 c -1.84,1.07 -3.53,2.39 -5.37,3.47 -1.09,0.65 -2.26,2.16 -3.58,1 a 5.62,5.62 0 0 1 -2,-5.4 59.9,59.9 0 0 1 4.61,-15.55 86.75,86.75 0 0 1 11.06,-18.32 c 1.83,-2.33 4.71,-3.25 6.61,-5.52 0.82,-1 2.57,-0.63 3.92,-0.12 2.7,1 5.37,2.15 8.13,3 2.05,0.63 2.87,1.7 2,3.68 -6.06,13.08 -12.18,26.08 -25.38,33.76 z"
       id="path30"
       style="fill:#e4e4e4" />
    <path
       class="cls-3"
       d="m 350.84,187.88 c -0.39,-3 0.87,-7.37 4,-8 1.1,-2.29 4.73,-0.92 6.81,0.13 a 43.38,43.38 0 0 1 18.23,16.7 47.13,47.13 0 0 1 6,14.23 c 0.47,2.2 -0.23,3.09 -2,3.76 -3.57,1.3 -7.18,2.51 -10.32,4.73 a 3,3 0 0 1 -3.79,0 c -1.55,-1.18 -3.55,-1.78 -4.66,-3.54 -7.56,-8.14 -12.91,-17.26 -14.27,-28.01 z"
       id="path32"
       style="fill:#e4e4e4" />
    <path
       class="cls-3"
       d="m 388,220.72 a 17.3,17.3 0 0 1 -1.51,3.8 c -0.45,1 -1.23,1.2 -2.26,0.8 -2.11,-0.81 -4.44,-1 -6.69,-2.58 2.78,-2 5.67,-2.67 8.3,-3.83 1.56,-0.69 2.42,0.31 2.16,1.81 z"
       id="path34"
       style="fill:#e4e4e4" />
    <path
       class="cls-3"
       d="m 802.32,141.38 c 5.79,14 3.81,27.07 -5,39.35 -4.89,6.84 -9.63,13.76 -15.88,19.47 -1.07,1 -1.8,2.52 -3.58,2.59 -1.22,-1.31 0.05,-2.3 0.49,-3.26 3.81,-8.43 4.54,-17.33 4.23,-26.41 a 4.69,4.69 0 0 0 -0.38,-1.77 c -0.24,-0.51 -0.6,-1.12 -1.38,-0.91 a 1.13,1.13 0 0 0 -0.81,1 c -0.63,3.44 -1.21,6.89 -1.93,10.31 -2.3,11 -6.3,21.05 -15.11,28.59 -7,6 -15.21,9.54 -24,11.91 a 162.83,162.83 0 0 1 -43.37,5.63 c -11.15,-0.07 -22.31,0.24 -33.4,-1.1 -6.18,-0.74 -12.46,-1 -18.5,-2.74 -3.48,-1 -7.07,-1.87 -9.72,-4.65 -6,-2 -9.61,-6.77 -13.37,-11.38 -1.25,-1.52 -0.29,-2.52 1,-3.34 a 49.92,49.92 0 0 0 8.26,-7.23 C 640.13,187 645,174.1 645.61,159.8 c 0.43,-10.23 -4.74,-18.05 -13.2,-23.76 -1.69,-1.15 -4.63,-1.41 -4.74,-3.75 -0.09,-1.91 2.34,-3 3.64,-4.47 6.34,-7.15 12.19,-14.57 14.06,-24.29 a 5.3,5.3 0 0 1 2.91,-3.81 c 15.51,-8.85 32.07,-15 49.28,-19.57 3.34,-0.88 3.52,-0.67 3.7,3 a 22,22 0 0 0 0.68,5 c 0.22,0.74 0.47,1.57 1.41,1.49 0.94,-0.08 1,-1 1.18,-1.73 0.1,-0.45 0.16,-0.91 0.23,-1.36 l 1.87,-0.23 c 7,8.44 16.37,12.38 27,13.75 5.45,0.7 10.84,1.76 16.28,2.47 5.44,0.71 10.89,1.34 16.41,0.56 a 59.06,59.06 0 0 1 6.39,-0.24 c 4.82,1.73 8,5.59 11.14,9.22 a 107,107 0 0 1 18.47,29.3 z"
       id="path36"
       style="fill:#e4e4e4" />
    <path
       class="cls-3"
       d="m 613.67,124.43 c -0.8,1.51 -1.55,2.62 -3.48,1.58 -1.93,-1.04 -4.5,-0.58 -6.45,-1.91 -7.63,-0.34 -15.26,-0.48 -22.89,-0.08 -1.49,0.08 -3.81,2.17 -5,0.86 -0.56,-0.61 -6.23,-1.06 -7,-1 -8.53,0.64 -11.48,-2.11 -20,-0.88 a 144.23,144.23 0 0 0 -30.6,7.66 c -4.2,1.59 -4.83,1.49 -5.42,-2.94 -1.51,-11.4 -2.18,-22.8 1.79,-34 a 45.49,45.49 0 0 1 9.31,-15.12 14,14 0 0 1 7.38,-4.34 c 5.35,-1.28 10.66,-2.75 16,-4 8.82,-2 17.16,-5.51 26,-7.55 11.15,-2.57 22.32,-3.5 33.63,-1.31 a 36.33,36.33 0 0 1 19.29,9.88 c 4.42,4.41 9.49,8.26 12,14.25 a 17.14,17.14 0 0 1 0.54,1.72 c 1.24,1.5 1.27,3.42 1.52,5.15 0.51,3.43 0,6 -3.79,8.19 a 60.29,60.29 0 0 0 -22.83,23.84 z"
       id="path38"
       style="fill:#e4e4e4" />
    <path
       class="cls-3"
       d="m 612.6,202.25 c 0.47,1.27 -0.36,2 -1.37,2.53 A 77.79,77.79 0 0 1 586,214 a 84.74,84.74 0 0 1 -20,0.86 c -8,-0.59 -16,-1.06 -23.71,-4.1 a 57.46,57.46 0 0 1 8.57,-1.11 c 9.67,-0.83 18.77,-3.79 27.86,-6.79 6.51,-2.15 12.95,-4.51 19.42,-6.78 a 14,14 0 0 0 2.55,-1 c 0.87,-0.52 2.08,-1.12 1.63,-2.39 -0.35,-1 -1.58,-0.57 -2.42,-0.76 l -0.89,-0.2 c -6.15,2.34 -12.49,4 -18.79,5.89 -10.33,3 -20.71,5.64 -31.49,6.67 -10.09,1 -19.77,-0.9 -29.49,-3 -9.25,-2 -16.83,-7 -23.79,-13.12 -5.94,-5.2 -7.59,-11.76 -6.49,-19.46 1.86,-13 8.81,-22.15 20.21,-28.26 2,-1.08 7.76,-3.79 10.74,-5 a 128.88,128.88 0 0 1 30.46,-7.85 c 5.92,-0.87 11.86,-0.72 17.79,-1 a 7.08,7.08 0 0 1 2.73,0.17 c 7.06,2.75 22.68,-10.93 30,-11 5,0.56 12.2,12.38 17,14 1.32,0.45 -8.3,16.93 -4,16 0.95,1.62 -5.77,25.86 -4,37.07 a 5.83,5.83 0 0 1 -0.12,1.36 c 1.76,5.94 0.69,12.25 2.83,18.05 z"
       id="path40"
       style="fill:#e4e4e4" />
    <path
       class="cls-3"
       d="m 703.65,81.36 c -1.65,-1.54 -0.87,-3.59 1.77,-4.22 a 50.12,50.12 0 0 1 11.37,-1.73 141.78,141.78 0 0 1 18.55,-0.19 c 3.62,0.24 7.39,0.56 9.78,4 a 2.84,2.84 0 0 1 2.26,0.91 c 6.65,6.32 12.44,13.59 21.46,18.25 a 9.25,9.25 0 0 1 -6.22,1 c -8.17,-0.85 -16.33,-1.81 -24.43,-3.25 -4.63,-0.82 -9.29,-1.45 -13.84,-2.68 -8.01,-2.14 -14.7,-6.53 -20.7,-12.09 z"
       id="path42"
       style="fill:#e4e4e4" />
    <path
       class="cls-3"
       d="m 637.73,171.89 c 1.63,-5.72 2.81,-11.5 1.27,-17.47 -1.73,-8.93 -8.38,-13.42 -15.67,-17.32 A 2.14,2.14 0 0 0 622,137 c -2.26,0.42 -6.46,4.93 -6.7,7.31 a 180.23,180.23 0 0 0 -0.49,34.76 h 0.1 c -0.06,0 -0.1,0.05 -0.1,0 -0.32,6.1 1.29,12.1 0.91,18.21 a 4.15,4.15 0 0 0 0.18,1.35 c 0.61,2.43 1.33,2.67 3.39,1.27 10.01,-6.81 15.24,-16.75 18.44,-28.01 z m 0.63,-17.48 a 3.47,3.47 0 0 0 -2.47,1.69 2.77,2.77 0 0 1 2.47,-1.69 z m -5.05,7.2 c 0.81,-1.35 1.42,-3.77 2.53,-5.43 -0.31,0.6 -0.54,1.28 -0.79,1.91 -1,2.56 -2,5.12 -4,7.1 l -1.29,1.28 a 32,32 0 0 0 3.55,-4.86 z M 614.93,179 c 0.76,-0.4 4.84,-3.33 5.27,-3.71 0.62,-0.57 1.26,-1.11 1.91,-1.65 -2.24,1.99 -4.11,4.44 -7.18,5.36 z m 7.84,-5.92 c 1.06,-0.87 2.12,-1.75 3.13,-2.69 a 30.53,30.53 0 0 1 -2.79,2.43 z"
       id="path44"
       style="fill:#e4e4e4" />
    <path
       class="cls-3"
       d="m 636.67,107.4 0.26,0.26 a 7.76,7.76 0 0 1 -1.24,4.3 c -3.34,5.69 -7.78,10.52 -12,15.49 a 13.2,13.2 0 0 1 -1.32,1.27 c -1,0.88 -2.21,1.24 -3.31,0.33 -1.1,-0.91 -0.21,-1.93 0.15,-2.9 a 22,22 0 0 1 4,-6.08 c 3.96,-4.75 7.6,-9.9 13.46,-12.67 z"
       id="path46"
       style="fill:#e4e4e4" />
    <path
       class="cls-3"
       d="m 863.88,36.8 c -0.93,8.73 -5.59,15.89 -10.69,22.85 -6,8.2 -14.14,13.7 -22.59,18.92 -15.67,9.69 -33,14.56 -51,17.83 a 7.48,7.48 0 0 1 -5.31,-0.72 c -7,-4.1 -12.18,-5.58 -17.5,-11.8 -0.28,-0.33 -3.82,-1.58 -4,-2 -1,-0.38 0.1,-2.89 -0.73,-3.78 -4.76,-5.11 -10.82,-7.13 -17.7,-7.28 a 166.39,166.39 0 0 0 -24.24,1.41 c -2.77,0.34 -3,0.15 -2.41,-2.55 Q 710,59.6 712.31,49.56 a 26.63,26.63 0 0 1 4,-8.69 c 9,-13.48 21.47,-22.38 36.63,-27.74 22.77,-8 46.15,-9 69.64,-4.72 a 102.36,102.36 0 0 1 31,11 12.37,12.37 0 0 1 3.79,2.52 c -0.07,0 -0.1,0.12 -0.1,0.38 a 6.08,6.08 0 0 0 0.2,3.65 c 0,0.14 0.1,0.28 0.14,0.42 a 12.61,12.61 0 0 1 0,1.94 15,15 0 0 1 -0.55,2.81 42.48,42.48 0 0 1 -3.3,6.57 26.47,26.47 0 0 0 1.78,-2.86 18.43,18.43 0 0 0 1.52,-3.71 c 0.22,-0.52 0.43,-1 0.63,-1.57 a 4.82,4.82 0 0 0 0,-3.18 c 0,-0.57 -0.1,-1.14 -0.18,-1.72 a 21.14,21.14 0 0 1 -0.16,-2.35 c 0,-0.13 0.06,-0.25 0.1,-0.38 5.91,3.29 7.06,8.93 6.43,14.87 z"
       id="path48"
       style="fill:#e4e4e4" />
    <path
       class="cls-3"
       d="m 842.83,47.88 1.59,-1.14 q -0.78,0.59 -1.59,1.14 z"
       id="path50"
       style="fill:#e4e4e4" />
    <path
       class="cls-3"
       d="m 857.39,21.93 c 0,0.13 -0.07,0.25 -0.1,0.38 0,-0.26 0.03,-0.42 0.1,-0.38 z"
       id="path52"
       style="fill:#e4e4e4" />
    <path
       class="cls-3"
       d="m 857.68,29.56 c -0.2,0.53 -0.41,1.05 -0.63,1.57 a 15,15 0 0 0 0.55,-2.81 12.61,12.61 0 0 0 0,-1.94 4.82,4.82 0 0 1 0.08,3.18 z"
       id="path54"
       style="fill:#e4e4e4" />
    <path
       class="cls-3"
       d="m 620.2,175.29 c 0.62,-0.57 1.26,-1.11 1.91,-1.65 -2.24,2 -4.15,4.44 -7.18,5.36 0.76,-0.4 4.84,-3.33 5.27,-3.71 z"
       id="path56"
       style="fill:#e4e4e4" />
    <path
       class="cls-3"
       d="m 622.77,173.08 c 1.06,-0.87 2.12,-1.75 3.13,-2.69 a 30.53,30.53 0 0 1 -2.79,2.43 z"
       id="path58"
       style="fill:#e4e4e4" />
    <path
       class="cls-3"
       d="m 633.31,161.61 c 0.81,-1.35 1.42,-3.77 2.53,-5.43 -0.31,0.6 -0.54,1.28 -0.79,1.91 -1,2.56 -2,5.12 -4,7.1 l -1.29,1.28 a 32,32 0 0 0 3.55,-4.86 z"
       id="path60"
       style="fill:#e4e4e4" />
    <path
       class="cls-3"
       d="m 511.59,206 c -9.45,10.84 -34.48,19 -48,11.07 3,-2.91 5.07,-6.42 7.66,-9.56 a 94.07,94.07 0 0 0 10,-28 c 0.19,-1 0.32,-2.09 0.47,-3.14 l 1,-0.07 c 0.76,8.47 5.7,14.35 12,19.42 1.23,1 3.08,1.48 3.14,3.54 a 2.46,2.46 0 0 1 2.17,0.39 c 3.58,2.51 7.64,4.28 11.56,6.35 z"
       id="path62"
       style="fill:#e4e4e4" />
    <path
       class="cls-3"
       d="m 466.65,147.81 a 49.82,49.82 0 0 1 26.06,-1.36 c -5.75,7 -8.31,14.87 -9.55,23.23 l -1.39,0.17 c -0.66,-9.85 -6.39,-16.46 -15.12,-22.04 z"
       id="path64"
       style="fill:#e4e4e4" />
    <path
       class="cls-3"
       d="m 620.2,175.29 c 0.62,-0.57 1.26,-1.11 1.91,-1.65 -2.24,2 -4.15,4.44 -7.18,5.36 0.76,-0.4 4.84,-3.33 5.27,-3.71 z"
       id="path66"
       style="fill:#e4e4e4" />
    <path
       class="cls-3"
       d="m 622.77,173.08 c 1.06,-0.87 2.12,-1.75 3.13,-2.69 a 30.53,30.53 0 0 1 -2.79,2.43 z"
       id="path68"
       style="fill:#e4e4e4" />
    <path
       class="cls-3"
       d="m 633.31,161.61 c 0.81,-1.35 1.42,-3.77 2.53,-5.43 -0.31,0.6 -0.54,1.28 -0.79,1.91 -1,2.56 -2,5.12 -4,7.1 l -1.29,1.28 a 32,32 0 0 0 3.55,-4.86 z"
       id="path70"
       style="fill:#e4e4e4" />
    <path
       class="cls-3"
       d="m 404.49,227.19 a 0.69,0.69 0 0 0 -0.1,0.19 c -0.07,-0.01 -0.02,-0.09 0.1,-0.19 z"
       id="path72"
       style="fill:#e4e4e4" />
    <path
       class="cls-3"
       d="m 404.49,227.19 a 0.69,0.69 0 0 0 -0.1,0.19 c -0.07,-0.01 -0.02,-0.09 0.1,-0.19 z"
       id="path74"
       style="fill:#e4e4e4" />
    <path
       class="cls-3"
       d="m 483.16,169.68 c -0.16,2.2 -0.33,4.4 -0.49,6.6 l -1,0.07 q 0,-3.24 0.07,-6.5 z"
       id="path76"
       style="fill:#e4e4e4" />
    <path
       class="cls-3"
       d="m 706.63,86.26 -1.87,0.23 c -0.09,-0.61 0,-1.32 0.55,-1.5 0.97,-0.29 1.16,0.55 1.32,1.27 z"
       id="path78"
       style="fill:#e4e4e4" />
    <path
       class="cls-3"
       d="m 1135.42,346.57 a 19.15,19.15 0 0 1 -7,6.47 54.33,54.33 0 0 1 -27.27,8 c -11.6,0.19 -22.41,-1.95 -32.49,-7.67 a 107,107 0 0 1 -13,-9.21 c -3.7,-2.92 -7,-6.3 -10.56,-9.44 -4.33,-3.86 -6.7,-9 -9.19,-14.06 a 21.81,21.81 0 0 1 -1.17,-4.39 c -3.07,-5.13 -2.37,-10.73 -1.34,-16.07 1.59,-8.25 3.52,-16.38 3.66,-24.87 0.08,-4.85 2.91,-8.72 7.06,-11.21 a 62.1,62.1 0 0 1 20.26,-8.25 29.42,29.42 0 0 1 15.36,1.2 55.55,55.55 0 0 1 21.73,13.24 128,128 0 0 1 11.94,13.4 21.83,21.83 0 0 1 -7.57,-0.24 79.57,79.57 0 0 0 -16.47,-0.26 c -1.5,0.09 -4,-0.16 -4.11,1.8 0,1.7 2.39,1.46 3.82,1.67 5.88,0.88 11.79,1.61 17.68,2.45 8.55,1.23 16.22,4.18 21.75,11.26 3.51,2.22 5.22,5.9 7,9.29 6.63,12.24 7.29,24.6 -0.09,36.89 z"
       id="path80"
       style="fill:#e4e4e4" />
    <path
       class="cls-3"
       d="m 478.82,493.53 c -0.51,9.85 -4.68,17.94 -14.26,22.27 a 29.74,29.74 0 0 1 -7.49,2 49.11,49.11 0 0 1 -22.49,-1.88 c -9.94,-3 -19.91,-6 -28.37,-12.38 a 43.43,43.43 0 0 1 -9.65,-10.75 c -10.3,-9.32 -14.18,-21.41 -14.95,-34.81 a 40.06,40.06 0 0 1 0.93,-12.29 c 2,-7.74 7.52,-12.21 15.48,-12.45 a 32.92,32.92 0 0 1 19.48,5.68 92.52,92.52 0 0 1 38.32,50.38 23.6,23.6 0 0 1 0.6,3.59 c 2.72,0 3.51,-1.6 3.06,-3.9 a 66.85,66.85 0 0 0 -2.1,-8.42 115.14,115.14 0 0 0 -8.37,-19.8 25.15,25.15 0 0 0 -3.67,-4.65 c -0.5,-0.54 -1.21,-1.08 -0.75,-2 0.46,-0.92 1.29,-0.69 2,-0.69 a 24,24 0 0 1 16.78,6.31 c 9.71,9.04 16.18,20.04 15.45,33.79 z"
       id="path82"
       style="fill:#e4e4e4" />
    <path
       class="cls-3"
       d="m 131.07,141.17 a 28,28 0 0 1 -11.45,10.25 83.51,83.51 0 0 1 -17.15,6.28 c -3.24,0.84 -6.55,1.53 -9.68,2.67 -5.23,1.9 -10.7,2.31 -16.11,3.08 a 162.06,162.06 0 0 1 -22.36,1.13 69.67,69.67 0 0 1 -29.31,-6 46.66,46.66 0 0 1 -9.36,-5.58 4.72,4.72 0 0 1 -2.2,-3.82 c -3,-1.22 -4.26,-4.14 -5.11,-6.74 -2.4,-7.28 -3.81,-14.81 -2.14,-22.51 a 27,27 0 0 1 9.29,-14.95 17.94,17.94 0 0 1 14.92,-4.34 55.13,55.13 0 0 1 10.23,2.49 c 1.38,0.5 3,0.83 2.74,3 -0.13,1.34 1.14,1.39 1.95,1 2.66,-1.18 4.63,0.13 6.78,1.42 5.37,3.22 10.74,6.45 15.89,10.08 1,0.73 2,2 3.62,1.31 0.53,-1.38 -0.59,-2 -1.27,-2.68 a 57.07,57.07 0 0 0 -12.12,-9.72 c -0.9,-0.53 -1.55,-0.94 -1.26,-2 0.29,-1.06 1.2,-0.84 1.9,-0.85 9.93,-0.18 19.87,-1.91 29.78,-0.89 11.6,1.19 22.94,3.71 33,10.15 1.41,0.91 3,1.57 3.49,3.42 7.33,4.55 10.39,16.63 5.93,23.8 z"
       id="path84"
       style="fill:#e4e4e4" />
    <path
       class="cls-3"
       d="m 1074.42,105.77 a 21.77,21.77 0 0 1 -7.43,12.34 c -7.61,6.71 -17,9.34 -26.59,11.44 -7.5,1.65 -15.17,1.07 -23.11,1 0.88,-1.46 2.23,-1.29 3.21,-1.53 a 133.56,133.56 0 0 0 20.68,-7.29 c 1.52,-0.65 3,-1.36 3.68,-3 -0.66,-1.44 -1.57,-0.9 -2.4,-0.63 -3.92,1.26 -7.77,2.72 -11.79,3.64 a 7.76,7.76 0 0 1 -4.05,0.26 66.66,66.66 0 0 1 -28.62,4 99.28,99.28 0 0 1 -34.84,-8.94 41.18,41.18 0 0 1 -8.34,-5.58 c -3.09,-2.49 -3.69,-6.13 -5.18,-9.38 -0.1,-0.89 -0.79,-1.4 -1.31,-2 C 959.77,87.26 972,75.45 988.14,68.48 a 62.92,62.92 0 0 1 17.19,-4.63 c 11.43,-1.42 22.85,-1.35 34.14,1.28 a 21.62,21.62 0 0 1 9.11,4.09 58.14,58.14 0 0 1 20.05,15.55 c 4.91,5.99 7.2,13.23 5.79,21 z"
       id="path86"
       style="fill:#e4e4e4" />
    <path
       class="cls-3"
       d="m 316.19,34.59 c -0.06,0.12 -0.11,0.25 -0.17,0.37 a 25.5,25.5 0 0 0 0.92,-3.09 c 0.34,-1.49 0.25,-3.38 0.54,-5.06 a 10.14,10.14 0 0 0 0,1.56 13.37,13.37 0 0 1 -1.29,6.22 z"
       id="path88"
       style="fill:#e4e4e4" />
    <path
       class="cls-3"
       d="m 319,23.75 a 6.78,6.78 0 0 0 -2.72,-3 C 304.92,12.75 292.64,7.5 278.4,8.16 c -2.59,0.13 -5.19,0.08 -7.77,0.25 -7.94,0.53 -24.3,2.12 -34.75,8.46 -11.72,7.11 -18,16 -16,22 a 23.82,23.82 0 0 1 1.12,2.64 c 1.76,7.93 4.68,15.09 12.59,18.92 a 5.07,5.07 0 0 0 2.16,2.26 c 8.86,6.35 18.82,7.33 29.23,6 5.26,-0.69 10.49,-1.69 15.76,-2.31 13.72,-1.62 27,-4.41 38.45,-12.85 2.23,-1.64 4.45,-3.24 5.58,-5.87 3.8,-8.87 1.23,-17.88 -5.77,-23.91 z m -2.77,10.84 c -0.06,0.12 -0.11,0.25 -0.17,0.37 a 25.5,25.5 0 0 0 0.92,-3.09 c 0.34,-1.49 0.25,-3.38 0.54,-5.06 a 10.14,10.14 0 0 0 0,1.56 13.37,13.37 0 0 1 -1.33,6.22 z"
       id="path90"
       style="fill:#e4e4e4" />
    <path
       class="cls-3"
       d="m 316.19,34.59 c -0.06,0.12 -0.11,0.25 -0.17,0.37 a 25.5,25.5 0 0 0 0.92,-3.09 c 0.34,-1.49 0.25,-3.38 0.54,-5.06 a 10.14,10.14 0 0 0 0,1.56 13.37,13.37 0 0 1 -1.29,6.22 z"
       id="path92"
       style="fill:#e4e4e4" />
    <path
       class="cls-3"
       d="m 168.3,235.09 a 30.7,30.7 0 0 1 -8.53,8.77 c -10.27,7 -21.11,12.8 -33.3,15.56 -8.44,1.91 -17,3.56 -25.69,1.24 -7.65,1.07 -14.14,-1.82 -20.2,-6 -4,-2.75 -4.89,-5.86 -3,-10.32 a 20.73,20.73 0 0 1 7.67,-9.46 c 5,-3.2 9.93,-6.49 15.15,-9.36 10.25,-5.62 21.42,-6.65 32.74,-6.9 3.58,-0.08 7.32,-0.89 10.77,0.93 7.84,-0.53 15.08,1.57 21.85,5.3 4.68,2.54 5.42,5.81 2.54,10.24 z"
       id="path94"
       style="fill:#e4e4e4" />
    <path
       class="cls-4"
       d="m 514.94,209.62 c 0.16,-1 -1.16,-3 1.54,-2.46 -0.48,0.84 -0.61,1.9 -1.54,2.46 z"
       id="path96"
       style="fill:#7f7f7f" />
    <path
       class="cls-4"
       d="m 636.67,107.41 0.58,-0.33 c -0.11,0.19 -0.22,0.39 -0.32,0.59 z"
       id="path98"
       style="fill:#7f7f7f" />
    <path
       class="cls-5"
       d="m 278.9,230.51 c -2.87,7.31 -4,15 -4.71,22.72 a 3.66,3.66 0 0 1 -0.6,1.18 c -0.94,-9.21 -1.2,-18.39 1.11,-27.47 1.27,2 0,4.38 0.83,6.62 1.2,-0.82 1,-2.26 1.77,-3.11 z"
       id="path100"
       style="fill:#cccccc" />
    <path
       class="cls-5"
       d="m 632,220.26 c 1.78,-1.56 3.84,-0.81 5.74,-0.52 a 117.7,117.7 0 0 0 16.09,1.42 123.85,123.85 0 0 0 29.29,-3.52 c 15.73,-3.58 31,-8.38 45.2,-16.15 a 123.62,123.62 0 0 0 27.31,-19.76 c 6.73,-6.58 13.64,-13 19.09,-20.8 a 36.41,36.41 0 0 0 6.31,-27.6 c -1.57,-10.12 -4.67,-19.79 -8.2,-29.35 a 9.68,9.68 0 0 1 -0.32,-1.8 c 4.89,1.74 8.09,5.66 11.29,9.34 a 108.25,108.25 0 0 1 18.68,29.74 c 5.86,14.15 3.86,27.42 -5,39.86 -5,6.93 -9.75,13.94 -16.08,19.72 -1.09,1 -1.83,2.56 -3.63,2.63 -1.23,-1.33 0.05,-2.33 0.49,-3.31 3.87,-8.53 4.61,-17.55 4.3,-26.75 a 4.75,4.75 0 0 0 -0.39,-1.79 c -0.25,-0.52 -0.61,-1.14 -1.4,-0.92 a 1.13,1.13 0 0 0 -0.82,1 c -0.64,3.48 -1.23,7 -2,10.45 -2.32,11.11 -6.38,21.32 -15.3,29 -7.09,6.06 -15.41,9.67 -24.31,12.07 a 164.88,164.88 0 0 1 -43.93,5.7 c -11.29,-0.06 -22.6,0.24 -33.83,-1.11 -6.27,-0.75 -12.63,-1 -18.74,-2.78 -3.49,-1.03 -7.13,-1.95 -9.84,-4.77 z"
       id="path102"
       style="fill:#cccccc" />
    <path
       class="cls-5"
       d="m 373,296.44 a 2.06,2.06 0 0 1 1.94,-1 c 8.63,0.05 17.14,-1.56 25.74,-2.06 9.41,-0.54 18.46,-3.32 27.28,-6.56 10,-3.67 19.74,-7.85 28.29,-14.42 5.05,-3.87 9.73,-7.9 12.75,-13.71 3.28,-6.33 2.17,-12.58 -2.92,-16.58 -1.36,-1.07 -3.24,-2.06 -2.91,-4.37 2.78,0 5,1.5 7.13,3 5.41,3.84 10.76,7.77 16.11,11.68 a 15.73,15.73 0 0 1 1.69,1.58 c 6.66,6.67 6.81,11.7 2.39,18.66 -5.86,9.21 -13.75,16.76 -24.15,20.9 a 176.54,176.54 0 0 1 -42.89,10.92 68.44,68.44 0 0 1 -17.08,-0.35 c -7.33,-0.9 -14.7,-1.5 -21.92,-3.14 -4.05,-0.91 -8.14,-1.79 -11.45,-4.55 z"
       id="path104"
       style="fill:#cccccc" />
    <path
       class="cls-5"
       d="m 752.84,80.75 c 6.81,-1.79 13.89,-1.76 20.77,-3.17 A 196.85,196.85 0 0 0 827.32,58.7 168.8,168.8 0 0 0 843.25,49 c 5.23,-3.61 10,-7.46 13,-13.1 a 17.31,17.31 0 0 0 2.13,-6.54 14.18,14.18 0 0 0 -0.15,-3.68 c 0,-0.24 -0.34,-2.89 -0.06,-2.74 6.13,3.3 7.32,9 6.67,14.93 -1,8.77 -5.75,16 -11,22.94 -6.18,8.24 -14.55,13.76 -23.23,19 -16.1,9.73 -33.95,14.62 -52.36,17.9 a 7.78,7.78 0 0 1 -5.46,-0.73 c -7.2,-4.11 -14,-8.73 -19.44,-15 a 4.86,4.86 0 0 1 -0.51,-1.23 z"
       id="path106"
       style="fill:#cccccc" />
    <path
       class="cls-5"
       d="m 438.59,211.27 c 0.86,-2.56 3.09,-3.91 4.73,-5.76 a 89.77,89.77 0 0 0 14.17,-20.61 48.37,48.37 0 0 0 5.23,-23.15 c -0.12,-3.27 -1,-6.76 1,-9.87 8.87,4.57 12.29,11.67 10.79,23.05 -1.48,11.19 -4.87,21.8 -11,31.25 -2.52,3.87 -5.92,6.91 -9.22,10 a 3.81,3.81 0 0 1 -5,0.5 c -3.49,-1.98 -7.13,-3.62 -10.7,-5.41 z"
       id="path108"
       style="fill:#cccccc" />
    <path
       class="cls-5"
       d="m 346,267.8 a 62.53,62.53 0 0 1 4.79,-16 89.94,89.94 0 0 1 11.4,-18.89 c 1.9,-2.4 4.87,-3.35 6.82,-5.68 0.85,-1 2.65,-0.66 4,-0.13 2.79,1.06 5.54,2.22 8.39,3.09 2.11,0.65 2.95,1.76 2,3.79 -6.2,13.48 -12.51,26.88 -26.13,34.8 -1.89,1.1 -3.64,2.46 -5.53,3.58 -1.13,0.66 -2.34,2.22 -3.7,1 A 5.79,5.79 0 0 1 346,267.8 Z"
       id="path110"
       style="fill:#cccccc" />
    <path
       class="cls-5"
       d="m 532.84,147.88 a 5.4,5.4 0 0 1 3,-1.32 219.41,219.41 0 0 0 54.72,-15.51 3.8,3.8 0 0 0 2.27,-3.17 75.45,75.45 0 0 1 15.42,3.12 c 1.39,0.45 3.93,0.41 3.4,2.48 -0.53,2.07 0.59,5.2 -2.72,6.48 -5.24,2 -10.44,4 -16.21,3.85 a 17.54,17.54 0 0 0 -1.92,0 c -1.06,0.09 -1.95,-0.53 -2,1.08 0,1.37 2,0.6 3,1 1.61,0.65 4.55,-0.38 6,1 -2.31,1.56 -8,5 -11,6 -0.08,-1.5 0.77,-1.71 -0.44,-1.65 -5.25,0.26 -10.5,0.14 -15.77,0.59 a 97.56,97.56 0 0 1 -22,-0.28 c -3.61,-0.51 -7.34,-0.38 -10.89,-1.34 -1.7,-0.48 -3.92,-0.21 -4.86,-2.33 z"
       id="path112"
       style="fill:#cccccc" />
    <path
       class="cls-5"
       d="m 292.44,279.77 a 5,5 0 0 1 1.74,-0.45 c 5.8,0.74 10.43,-1.63 15.26,-4.62 11.91,-7.38 24.26,-14 35.57,-22.36 a 4.94,4.94 0 0 1 2.57,-0.84 c 0.38,1.3 -0.38,2.39 -0.73,3.53 -1.86,6.08 -2.65,12.2 -1.06,18.47 0.57,2.22 -0.15,3.63 -2.3,4.77 a 62.31,62.31 0 0 1 -32.65,7.26 c -5.63,-0.29 -11.08,-2 -16.36,-4 a 3.28,3.28 0 0 1 -2.04,-1.76 z"
       id="path114"
       style="fill:#cccccc" />
    <path
       class="cls-5"
       d="m 599,192.72 c 2.87,-3.46 8.87,-7 12.85,-8.84 1.86,5.84 0.86,12.21 3,18 0.47,1.27 -2.6,3.34 -3.61,3.91 A 77.45,77.45 0 0 1 586,215 a 84.74,84.74 0 0 1 -20,0.86 c -8,-0.59 -20.46,-2.91 -28.14,-6 2.83,-0.67 62.88,-16.77 62,-16.95 z"
       id="path116"
       style="fill:#cccccc" />
    <path
       class="cls-5"
       d="m 745.77,79.76 a 2.73,2.73 0 0 1 2.19,0.92 c 6.43,6.41 12,13.79 20.74,18.53 a 8.52,8.52 0 0 1 -6,1 c -7.9,-0.87 -15.8,-1.83 -23.63,-3.3 -4.47,-0.83 -9,-1.47 -13.37,-2.71 -7.74,-2.19 -14.21,-6.64 -20,-12.28 -1.61,-1.57 -0.86,-3.65 1.7,-4.29 a 46.08,46.08 0 0 1 11,-1.76 c 0.05,1.3 0.83,1.66 1.92,1.76 8.47,0.8 16.9,2.2 25.45,2.13 z"
       id="path118"
       style="fill:#cccccc" />
    <path
       class="cls-5"
       d="m 498.61,199 a 2.82,2.82 0 0 1 2.4,0.42 c 4,2.68 8.51,4.55 12.83,6.78 -10.43,11.48 -38.09,20.09 -53,11.73 3.27,-3.09 5.61,-6.8 8.46,-10.14 A 80.74,80.74 0 0 0 498.61,199 Z"
       id="path120"
       style="fill:#cccccc" />
    <path
       class="cls-5"
       d="m 613.84,180.88 c 0,0.2 6.89,-4.16 7.36,-4.59 1.9,-1.73 4,-3.27 5.85,-5 a 40.11,40.11 0 0 0 7.26,-8.65 c 1.35,-2.27 2.16,-7.55 5.69,-7.18 1.54,6 0.36,11.75 -1.27,17.47 -3.2,11.25 -8.43,21.19 -18.44,28 -2.06,1.39 -3.84,4.43 -4.45,2 -0.11,-0.44 -2,-3.55 -2,-4 0.38,-6.15 -0.32,-11.93 0,-18.05 z"
       id="path122"
       style="fill:#cccccc" />
    <path
       class="cls-5"
       d="m 356.84,180.51 c 1.18,-2.44 3,-2.57 5.18,-1.45 a 46.31,46.31 0 0 1 19.45,17.82 50.43,50.43 0 0 1 6.39,15.18 c 0.5,2.35 -0.24,3.31 -2.18,4 -3.8,1.39 -7.65,2.68 -11,5 a 3.16,3.16 0 0 1 -4,0 c -1.59,-1.2 -3.87,-1.79 -4.82,-3.69 a 5.3,5.3 0 0 0 1.91,-4.42 c 0.17,-8.18 -0.87,-16.34 -1.12,-24.52 a 11.1,11.1 0 0 0 -0.32,-2.82 c -0.56,-1.89 -2.42,-3 -4.14,-3.73 -0.5,-0.08 -5.19,-1.7 -5.35,-1.37 z"
       id="path124"
       style="fill:#cccccc" />
    <path
       class="cls-5"
       d="m 604.74,125.1 c 0.49,-1.46 2,-1.83 3,-2.62 A 143.33,143.33 0 0 0 636.3,94.09 c 1.39,-1.83 1.81,-4.12 3.41,-5.75 1.24,1.49 1.27,3.41 1.53,5.14 0.5,3.44 -0.06,6 -3.8,8.2 a 60.23,60.23 0 0 0 -22.79,23.76 c -0.8,1.5 -1.55,2.61 -3.47,1.58 -1.92,-1.03 -4.49,-0.58 -6.44,-1.92 z"
       id="path126"
       style="fill:#cccccc" />
    <path
       class="cls-5"
       d="m 401.12,228.57 c 5.19,-2.71 11.12,-3.63 16.77,-5.23 5.65,-1.6 11.66,-4.32 14.81,-9.42 a 57.18,57.18 0 0 1 15.66,6.34 c 0.55,0.33 -4.05,2.29 -4.22,2.35 -2,0.65 -4,1.26 -6,1.81 a 124,124 0 0 1 -37.32,4.32 z"
       id="path128"
       style="fill:#cccccc" />
    <path
       class="cls-5"
       d="m 639.84,105.2 a 9,9 0 0 1 -1.62,5.24 c -4.35,6.92 -10.13,12.8 -15.67,18.85 a 15.83,15.83 0 0 1 -1.71,1.55 c -1.33,1.07 -2.87,1.51 -4.31,0.39 -1.44,-1.12 -0.28,-2.35 0.19,-3.52 1.14,-2.84 3.23,-5.15 5.24,-7.4 5.16,-5.79 9.9,-12.06 17.53,-15.43 z"
       id="path130"
       style="fill:#cccccc" />
    <path
       class="cls-5"
       d="m 374.84,222.77 c 3.76,-2.76 7.65,-3.61 11.21,-5.17 2.13,-0.94 3.29,0.42 2.91,2.44 a 23.32,23.32 0 0 1 -2,5.13 c -0.62,1.39 -1.67,1.62 -3.05,1.09 -2.91,-1.1 -6.04,-1.43 -9.07,-3.49 z"
       id="path132"
       style="fill:#cccccc" />
    <path
       class="cls-5"
       d="m 482.77,170.86 1.39,-0.17 -0.48,6.59 -1,0.08 z"
       id="path134"
       style="fill:#cccccc" />
    <path
       class="cls-5"
       d="m 637.67,108.41 0.58,-0.33 c -0.11,0.19 -0.22,0.39 -0.32,0.59 z"
       id="path136"
       style="fill:#cccccc" />
    <path
       class="cls-5"
       d="m 1035.71,317.25 c 3,0.89 5.16,3.19 7.21,5.28 a 72.7,72.7 0 0 0 26.73,17.11 85.87,85.87 0 0 0 35.36,5.6 20.05,20.05 0 0 0 5.36,-1.05 54.55,54.55 0 0 0 19.56,-11.47 c 3,-2.76 4.16,-6.27 4.36,-10.23 a 33.4,33.4 0 0 0 -3.73,-17.66 7,7 0 0 1 -1.08,-3.46 c 3.51,2.22 5.22,5.9 7,9.3 6.62,12.25 7.28,24.61 -0.11,36.9 a 19,19 0 0 1 -7,6.47 54.29,54.29 0 0 1 -27.28,8 c -11.6,0.19 -22.41,-1.95 -32.48,-7.67 a 106.21,106.21 0 0 1 -13.06,-9.2 c -3.7,-2.92 -7,-6.31 -10.56,-9.45 -4.33,-3.86 -6.69,-9 -9.19,-14.05 a 22.09,22.09 0 0 1 -1.09,-4.42 z"
       id="path138"
       style="fill:#cccccc" />
    <path
       class="cls-5"
       d="m 397.56,493.74 c 3,0.16 6.05,-0.1 8,3.11 0.53,0.87 2.08,1.17 3.2,1.64 7.27,3.09 15,4.16 22.77,4.39 a 64.29,64.29 0 0 0 20.68,-3.23 5.07,5.07 0 0 0 3.33,-2.84 c 0.49,-1.06 0.46,-2.5 1.89,-3 2.73,0 3.51,-1.59 3.06,-3.9 a 66.85,66.85 0 0 0 -2.1,-8.42 114.36,114.36 0 0 0 -8.37,-19.8 25.48,25.48 0 0 0 -3.67,-4.65 c -0.5,-0.54 -1.21,-1.08 -0.75,-1.95 0.46,-0.87 1.29,-0.7 2,-0.7 a 24.06,24.06 0 0 1 16.78,6.31 c 9.69,9.06 16.16,20 15.44,33.81 -0.52,9.84 -4.69,17.93 -14.27,22.26 a 29.21,29.21 0 0 1 -7.49,2 48.79,48.79 0 0 1 -22.48,-1.88 c -9.95,-3 -19.92,-6 -28.38,-12.38 a 43.25,43.25 0 0 1 -9.64,-10.77 z"
       id="path140"
       style="fill:#cccccc" />
    <path
       class="cls-5"
       d="m 14.45,150.13 a 5.94,5.94 0 0 1 3.59,0 c 10,2.11 20.1,3.1 30.39,1.75 5.26,-0.69 10.62,-0.44 15.95,-1 a 199.37,199.37 0 0 0 35.4,-6.61 74.18,74.18 0 0 0 12,-4.37 c 7.13,-3.47 11.23,-9.13 13,-16.68 0.39,-1.63 0.83,-3.24 1.25,-4.87 7.38,4.55 10.44,16.62 6,23.81 a 28.12,28.12 0 0 1 -11.45,10.25 83.48,83.48 0 0 1 -17.15,6.27 c -3.24,0.84 -6.55,1.53 -9.68,2.67 -5.23,1.9 -10.7,2.32 -16.11,3.08 a 160.52,160.52 0 0 1 -22.36,1.14 69.82,69.82 0 0 1 -29.31,-6 46.7,46.7 0 0 1 -9.32,-5.57 4.72,4.72 0 0 1 -2.2,-3.87 z"
       id="path142"
       style="fill:#cccccc" />
    <path
       class="cls-5"
       d="m 1027.62,123 c 2.19,-3.64 6.31,-4.58 9.54,-6.72 5.5,-3.65 10.83,-7.37 14.61,-13 4.08,-6 5.12,-12.68 4.34,-19.68 -0.32,-2.92 -2.1,-5.36 -3.6,-7.85 -1.09,-1.79 -2.86,-3.25 -2.92,-5.59 a 58.1,58.1 0 0 1 20,15.56 c 4.91,6 7.2,13.21 5.79,21 a 21.72,21.72 0 0 1 -7.43,12.33 c -7.61,6.71 -17,9.35 -26.59,11.44 -7.5,1.65 -15.16,1.08 -23.11,1 0.88,-1.46 2.23,-1.29 3.21,-1.53 a 132.63,132.63 0 0 0 20.69,-7.29 c 1.52,-0.64 3,-1.35 3.67,-3 -0.66,-1.45 -1.57,-0.9 -2.4,-0.64 -3.91,1.26 -7.77,2.72 -11.79,3.64 a 7.76,7.76 0 0 1 -4.01,0.33 z"
       id="path144"
       style="fill:#cccccc" />
    <path
       class="cls-5"
       d="m 234.59,61.44 c 1.89,-0.91 3.67,0.12 5.28,0.65 9.07,3 18.23,2.67 27.56,1.73 11.86,-1.2 24.91,-4.44 35.09,-10.81 a 37,37 0 0 0 12.13,-12.12 27.48,27.48 0 0 0 3.29,-8 c 0.59,-2.55 -0.12,-6.27 2,-8.12 7,6 9.61,15 5.81,23.86 -1.13,2.63 -3.35,4.23 -5.57,5.87 -11.44,8.44 -24.74,11.23 -38.46,12.85 -5.25,0.65 -10.47,1.65 -15.72,2.3 -10.41,1.37 -20.37,0.39 -29.23,-6 a 5,5 0 0 1 -2.18,-2.21 z"
       id="path146"
       style="fill:#cccccc" />
    <path
       class="cls-5"
       d="m 230.65,26.33 a 6.21,6.21 0 0 1 1.9,-0.81 32.58,32.58 0 0 0 6.87,-3.35 20,20 0 0 1 4,-1.74 c 0.63,-0.19 3.86,-1.11 3.29,0.29 a 2.26,2.26 0 0 1 -0.51,0.65 43.58,43.58 0 0 1 -6.76,4.81 q -3.81,2.46 -7.53,5.05 c -1,0.7 -2.23,0.92 -2.79,-0.45 a 3,3 0 0 1 0,-1.94 4.14,4.14 0 0 1 1.53,-2.51 z"
       id="path148"
       style="fill:#cccccc" />
    <path
       class="cls-5"
       d="m 95.84,262.7 a 1.93,1.93 0 0 1 2.08,-1.7 c 8.3,-0.4 16,-2.8 23.65,-5.76 a 61.22,61.22 0 0 0 21.74,-14.2 c 6.74,-6.85 6.62,-11.81 1.21,-17.65 -1,-1 -2.87,-5.18 -2.68,-6.54 8.61,-0.54 17.94,4.72 25.39,8.6 5.09,2.66 5.91,6.06 2.74,10.66 a 32.79,32.79 0 0 1 -9.36,9.11 c -11.28,7.26 -23.18,13.3 -36.56,16.16 -9.27,2.02 -18.66,3.74 -28.21,1.32 z"
       id="path150"
       style="fill:#cccccc" />
    <path
       class="cls-6"
       d="m 274.31,222.21 c 0.14,-0.56 0.32,-1.12 0.49,-1.67 2.6,-8.34 6,-15.37 12.12,-21.77 a 142.48,142.48 0 0 1 15.87,-13.88 c 15.39,-11.95 32.8,-15.86 51.83,-12.8 a 7.56,7.56 0 0 0 6.9,-2.1 117.94,117.94 0 0 1 64.59,-28.13 c 10.34,-1.19 20.76,-1.64 30.92,1.56 1.53,0.49 2.54,0 3.77,-0.83 8.94,-5.78 18.81,-6.8 29.08,-5.41 a 13.41,13.41 0 0 1 6.78,2.61 c 1.5,1.22 2.57,1 4,-0.07 a 51.83,51.83 0 0 1 6.28,-3.79 c 1.86,-1 2.56,-1.92 2,-4.29 a 78.47,78.47 0 0 1 -0.62,-33.21 44.82,44.82 0 0 1 12.8,-23.89 16.34,16.34 0 0 1 6.77,-4.54 c 17.41,-5.21 34.7,-11 52.58,-14.4 a 68.93,68.93 0 0 1 32.69,1.28 38.65,38.65 0 0 1 14.46,7.66 c 0.94,0.79 1.89,1.56 2.78,2.39 8.07,7.45 15.73,15.14 16,27 1.69,0.59 2.63,-0.37 3.65,-0.9 A 223.38,223.38 0 0 1 698.3,74.52 c 3.09,-0.79 4.09,-2.23 4.56,-5.19 1.1,-6.94 2.56,-13.82 4,-20.71 A 31.9,31.9 0 0 1 712.13,37 c 9.77,-14.29 23,-23.88 39.36,-29.32 16.69,-5.53 33.81,-8.51 51.42,-7.48 a 131.1,131.1 0 0 1 53.49,14.88 c 6,3.15 10.84,7.4 12.51,14.39 a 25.92,25.92 0 0 1 -0.24,12.26 C 866.46,51 861.76,59 855.55,66.1 845.76,77.32 833.13,84.4 819.7,90.2 a 151.58,151.58 0 0 1 -33.29,10 c -1.31,0.24 -2.72,0.22 -3.85,1.18 0.13,1.61 1.56,2.19 2.46,3.14 a 116.42,116.42 0 0 1 22.1,32.48 c 5.11,11.29 6.51,22.84 2.13,34.74 a 46,46 0 0 1 -4.14,8.67 143.44,143.44 0 0 1 -30.9,34.86 c -7.44,6.09 -15.85,10.06 -25.78,10.82 -5.57,0.43 -11,2.51 -16.52,3.71 -19,4.15 -38.15,5.05 -57.47,3.95 q -11.22,-0.64 -22.38,-2 c -12.71,-1.5 -23.42,-6.84 -31.87,-16.37 -2.8,-3.16 -5.35,-3.44 -9.21,-2.25 -9.77,3 -19.65,5.75 -29.89,6.78 -12,1.22 -23.81,-0.22 -35.5,-2.81 a 26.38,26.38 0 0 1 -10.37,-4.72 17.37,17.37 0 0 0 -8.35,-3.42 c -3.48,-0.5 -6.93,-1.19 -10.39,-1.8 -2.7,-0.55 -1.38,1.42 -1.54,2.46 -1.26,2.86 -3.48,4.86 -5.89,6.73 -8,6.22 -17.1,9.71 -27,11.38 -6.94,1.16 -13.59,-0.15 -20.17,-2.21 -0.42,-0.4 -0.91,-0.7 -1.36,-0.19 -0.13,0.15 0.18,0.68 0.29,1 0.72,3.59 2.82,5.53 6.33,7 a 68.35,68.35 0 0 1 24.69,17.82 c 6.61,7.34 6.73,16.94 0.51,25.73 a 64.09,64.09 0 0 1 -21,18.74 c -19.84,11.25 -41.16,14.82 -63.65,12.44 -7.74,-0.82 -15.49,-1.64 -23.13,-3.22 a 47.44,47.44 0 0 1 -21.67,-10.35 c -4.64,-4 -9.83,-7.32 -13.63,-12.19 -1.39,-1.77 -2.67,-0.83 -4,-0.12 -8.05,4.37 -16.77,6.37 -25.78,7.53 -11.48,1.5 -22.39,-0.86 -32.48,-5.71 -18.08,-8.7 -15.23,-35.16 -10.39,-50.65 1.74,-5.54 4.61,-10 8.21,-14.6 a 84,84 0 0 1 26.54,-22.2 15.45,15.45 0 0 1 5,-1.9 c -2.56,3.53 -6.15,6.15 -9.59,8.82 -12,9.31 -23.42,20.76 -27.34,35.44 -2.78,10.41 -2.23,22.62 3.62,31.93 7.09,11.28 21.34,14.37 33.87,13.61 a 67.36,67.36 0 0 0 23.83,-6.14 c 1.45,-0.67 3,-1.51 3.54,-3 a 6.73,6.73 0 0 0 0.11,-2.83 52.36,52.36 0 0 1 17.42,-43.86 c 1.34,-1.17 2.9,-2.68 2.47,-4.41 a 5.09,5.09 0 0 0 -1.86,-2.39 c -7.19,-6.38 -10.5,-16 -12.55,-25.4 -1.38,-6.33 -2,-13.84 2.57,-18.43 -10.22,-2.9 -21.33,-1.65 -31.23,2.21 -9.9,3.86 -18.64,10.23 -26.4,17.48 -8.17,7.64 -14.83,16.22 -16.6,27.45 -0.36,2.27 -1.06,4.66 -2.83,6.13 -1.51,-2 -1.7,-5 -1.39,-7.4 a 12.62,12.62 0 0 1 0.31,-1.65 z m 362.36,-114.8 c -5.86,2.76 -9.5,7.91 -13.47,12.67 a 21.73,21.73 0 0 0 -4,6.08 c -0.36,1 -1.24,2 -0.15,2.89 1.09,0.89 2.29,0.56 3.31,-0.33 a 12.17,12.17 0 0 0 1.32,-1.27 c 4.25,-5 8.69,-9.79 12,-15.48 a 7.71,7.71 0 0 0 1.24,-4.31 l 0.32,-0.58 z m -153.51,62.28 c 1.24,-8.36 3.8,-16.22 9.55,-23.24 a 49.92,49.92 0 0 0 -26.06,1.36 c 8.73,5.58 14.46,12.16 15.12,22.05 l -0.07,6.5 c -0.15,1 -0.28,2.09 -0.47,3.13 a 94,94 0 0 1 -10,28 c -2.59,3.15 -4.7,6.65 -7.66,9.56 13.5,7.9 38.53,-0.23 48,-11.07 -0.82,0.93 -13.62,-7.11 -14.78,-8.19 -2.9,-2.69 -6,-5.25 -8.54,-8.32 a 24.32,24.32 0 0 1 -5.59,-13.24 z m -51.32,44.19 a 79,79 0 0 0 -31.68,0.87 c -7.74,1.84 -7.71,1.78 -9.13,9.52 -1.26,6.84 35.55,1.64 40.3,0.57 q 5.12,-1.16 10.1,-2.76 a 7.26,7.26 0 0 0 4,-2.28 48.43,48.43 0 0 0 -13.59,-5.92 z m -66.65,1.94 a 18.05,18.05 0 0 0 4,3.38 c 2.27,1.37 3.71,0.7 5.88,-0.62 a 49.91,49.91 0 0 1 8,-3.64 c 1.15,-0.45 2.59,-1 2.85,-2.34 a 5,5 0 0 0 -0.15,-2 47.09,47.09 0 0 0 -5.89,-13.85 A 43.42,43.42 0 0 0 361.66,180 c -2.66,-1.34 -7.05,1.2 -8.29,3.69 a 6.5,6.5 0 0 0 -0.52,2.93 c 0,6.36 2.21,12.34 5.21,17.87 2.05,3.8 4.17,8.05 7.13,11.33 z M 639,154.43 C 637.26,145.5 630.61,141 623.32,137.1 A 2.14,2.14 0 0 0 622,137 c -2.25,0.43 -6.46,4.93 -6.7,7.31 a 179.44,179.44 0 0 0 -0.48,34.76 c -0.33,6.1 1.28,12.11 0.9,18.21 a 4.5,4.5 0 0 0 0.18,1.36 c 0.61,2.42 1.33,2.66 3.39,1.27 10,-6.79 15.24,-16.73 18.44,-28 1.63,-5.73 2.81,-11.52 1.27,-17.48 z m 79.6,-77.89 a 44.18,44.18 0 0 0 -10.3,1.57 c -2.39,0.56 -3.1,2.42 -1.59,3.82 5.42,5 11.47,9 18.72,10.95 4.12,1.11 8.33,1.67 12.52,2.41 7.33,1.31 14.72,2.17 22.12,2.95 a 8.38,8.38 0 0 0 5.62,-0.9 c -1.7,0.93 -9.79,-7.06 -11.06,-8.22 -3.29,-3 -6.07,-6.6 -9.74,-9.25 -8.17,-5.87 -16.98,-3.34 -26.28,-3.33 z m -126,52.32 c -2.32,-0.08 -4.64,-0.14 -6.91,-0.28 -11.06,-0.65 -22.22,-1.94 -33.27,-1 a 110.71,110.71 0 0 0 -32.51,7.87 c -3,1.22 -3.06,1.53 -1,3.66 9.37,9.54 23.65,12.27 36.51,12.59 10.46,0.27 20.91,-0.92 31.38,-1 0.8,0 1.85,0.2 1.92,1 0.07,0.8 -1,1.2 -1.74,1.32 -14.41,2.25 -30,4.6 -44.55,2.08 -10.7,-1.9 -20.81,-5.19 -28.19,-13.84 -1.68,-2 -3.08,-1.84 -5.11,-0.75 -11.4,6.1 -18.34,15.25 -20.21,28.25 -1.1,7.7 0.55,14.26 6.49,19.47 7,6.11 14.54,11.14 23.79,13.11 9.72,2.07 19.4,3.92 29.49,3 10.78,-1 21.16,-3.64 31.49,-6.67 6.3,-1.85 12.64,-3.55 18.79,-5.89 l 0.89,0.21 c 0.84,0.18 2.07,-0.26 2.43,0.76 0.44,1.27 -0.76,1.87 -1.64,2.39 a 14.74,14.74 0 0 1 -2.55,1 c -6.47,2.27 -12.91,4.63 -19.41,6.78 -9.1,3 -18.2,6 -27.87,6.79 a 57.46,57.46 0 0 0 -8.57,1.11 c 7.68,3 15.73,3.51 23.71,4.1 a 84.74,84.74 0 0 0 20,-0.86 77.45,77.45 0 0 0 25.2,-9.18 c 1,-0.57 1.84,-1.27 1.37,-2.54 -2.14,-5.79 -1.07,-12.1 -2.92,-17.94 a 5.74,5.74 0 0 0 0.12,-1.36 134.8,134.8 0 0 1 -0.68,-33.7 c 0.13,-1.33 0.43,-2.73 -0.52,-4.34 -0.49,-0.81 -6,1 -6.74,1.21 -3.86,0.93 -7.11,1.55 -11.09,0.64 A 3.77,3.77 0 0 1 588.82,146 c -1.79,-1.76 0.65,-2.37 1.91,-2.48 a 58,58 0 0 0 17.26,-3.77 c 2,-0.8 3.76,-5.47 2.32,-7.31 a 4.55,4.55 0 0 0 -2.19,-1.29 c -4.88,-1.76 -10.23,-2.09 -15.54,-2.29 z m -129,25.32 c -6.05,-4.65 -13,-6.4 -20.52,-6.56 a 134.7,134.7 0 0 0 -16.91,0.95 c -22.08,2.3 -41.45,11.1 -59.05,24.23 -0.58,0.43 -1.3,0.87 -1.13,1.81 0.54,1 1.67,1.27 2.54,1.84 11.8,7.7 19.8,18 22.28,32.19 0.57,3.25 0.65,3.27 3.87,2.66 1.5,-0.29 3,-0.7 4.46,-1 16.47,-3.72 35.08,-2.78 50.09,5.46 a 3.89,3.89 0 0 0 5,-0.47 c 3.29,-2.94 6.66,-5.83 9.17,-9.51 a 68.62,68.62 0 0 0 10.95,-29.68 c 1.44,-10.84 -1.96,-17.58 -10.78,-21.92 z m -1.05,83.56 a 13,13 0 0 1 -6.61,-8.32 9.82,9.82 0 0 0 -1.54,-2.79 2.26,2.26 0 0 0 -3.16,-0.88 c -1,0.46 -2,0.83 -3,1.23 -18.26,7.36 -37.17,9.27 -56.57,6.48 -2.53,-0.36 -3.48,0.4 -4.38,2.56 -2.12,5.07 -4.34,10.1 -6.83,15 a 53.3,53.3 0 0 1 -17.83,20.5 c -2.78,1.88 -5.61,3.69 -8.39,5.58 -2.55,1.73 -2.67,2 -0.44,4 5.69,5.2 11.39,10.89 18.36,14.29 a 78.43,78.43 0 0 0 23.08,6.78 c 11.93,1.77 24.17,2.38 36,0.33 a 171.55,171.55 0 0 0 34.38,-9.59 c 10.27,-4.09 18.07,-11.55 23.86,-20.65 4.38,-6.88 4.22,-11.85 -2.36,-18.44 a 14.43,14.43 0 0 0 -1.67,-1.56 c -5.29,-3.87 -10.57,-7.75 -15.91,-11.54 -2.08,-1.5 -4.27,-2.94 -7.02,-2.98 z M 603.69,124.41 a 22,22 0 0 1 4.08,0.79 c 2.13,0.67 4.53,1.82 5.9,-0.76 a 60.23,60.23 0 0 1 22.79,-23.76 c 7.34,-4.34 2.91,-14.29 -1,-19.6 -7,-9.45 -16.94,-17.34 -28.6,-19.6 -11.31,-2.19 -22.48,-1.26 -33.63,1.32 -8.8,2 -17.15,5.58 -26,7.55 -5.37,1.2 -10.68,2.66 -16,3.94 a 14,14 0 0 0 -7.38,4.35 45.34,45.34 0 0 0 -9.31,15.11 c -4,11.17 -3.3,22.57 -1.79,34 0.59,4.44 1.23,4.53 5.42,2.95 A 143.65,143.65 0 0 1 548.8,123 c 9.19,-1.32 19,-0.39 28.27,-0.08 q 10.54,0.35 21.08,1.11 c 1.85,0.13 3.71,0.19 5.54,0.38 z M 754.4,80 c 1.33,1.32 2.63,2.68 4,4 a 77.3,77.3 0 0 0 16,11.7 7.42,7.42 0 0 0 5.31,0.72 c 17.92,-3.27 35.28,-8.13 51,-17.82 8.45,-5.22 16.58,-10.73 22.6,-18.93 5.09,-6.95 9.75,-14.11 10.68,-22.85 0.64,-5.94 -0.52,-11.58 -6.48,-14.87 a 12.5,12.5 0 0 0 -3.8,-2.51 101.73,101.73 0 0 0 -31,-11 C 799.1,4.18 775.73,5.08 753,13.13 737.84,18.49 725.39,27.39 716.37,40.88 a 26.44,26.44 0 0 0 -4,8.69 q -2.35,10 -4.55,20.11 c -0.58,2.7 -0.36,2.9 2.41,2.56 a 165.09,165.09 0 0 1 24.24,-1.42 27.32,27.32 0 0 1 10.61,2.18 32.52,32.52 0 0 1 9.32,7 z m 18.34,22.81 a 61.72,61.72 0 0 0 -6.39,0.24 c -5.52,0.79 -11,0.15 -16.41,-0.56 -5.41,-0.71 -10.83,-1.77 -16.27,-2.47 -10.67,-1.37 -20,-5.31 -27,-13.74 -0.16,-0.73 -0.34,-1.56 -1.32,-1.27 -0.6,0.18 -0.64,0.89 -0.54,1.49 -0.08,0.46 -0.14,0.91 -0.24,1.36 -0.16,0.73 -0.22,1.65 -1.18,1.73 -0.96,0.08 -1.19,-0.74 -1.4,-1.48 a 21.51,21.51 0 0 1 -0.69,-5 c -0.18,-3.63 -0.36,-3.83 -3.7,-3 -17.21,4.53 -33.77,10.72 -49.28,19.56 a 5.3,5.3 0 0 0 -2.91,3.82 c -1.87,9.72 -7.71,17.14 -14.06,24.28 -1.3,1.46 -3.73,2.56 -3.64,4.47 0.11,2.34 3.05,2.61 4.74,3.75 8.46,5.71 13.63,13.53 13.2,23.76 -0.59,14.31 -5.48,27.18 -15.71,37.63 a 50.87,50.87 0 0 1 -8.27,7.23 c -1.25,0.81 -2.22,1.81 -1,3.34 10.42,12.78 25.29,17.56 41.25,19.14 11.19,1.1 22.55,0.66 33.74,0.72 A 162.37,162.37 0 0 0 739,222.23 c 8.78,-2.36 17,-5.93 24,-11.91 8.81,-7.53 12.81,-17.61 15.11,-28.58 0.72,-3.43 1.3,-6.88 1.94,-10.32 a 1.09,1.09 0 0 1 0.8,-1 c 0.78,-0.22 1.14,0.4 1.38,0.91 a 4.6,4.6 0 0 1 0.38,1.77 c 0.31,9.07 -0.42,18 -4.23,26.4 -0.44,1 -1.71,1.95 -0.49,3.27 1.78,-0.07 2.51,-1.61 3.59,-2.6 6.24,-5.71 11,-12.63 15.87,-19.46 8.77,-12.29 10.75,-25.39 5,-39.36 A 107,107 0 0 0 783.88,112 c -3.16,-3.6 -6.32,-7.47 -11.14,-9.2 z M 346,267.56 a 5.61,5.61 0 0 0 2,5.4 c 1.32,1.15 2.49,-0.36 3.58,-1 1.84,-1.08 3.53,-2.39 5.37,-3.47 13.21,-7.68 19.33,-20.68 25.35,-33.75 0.91,-2 0.09,-3 -2,-3.68 -2.75,-0.85 -5.43,-2 -8.13,-3 -1.35,-0.51 -3.1,-0.86 -3.92,0.13 -1.89,2.27 -4.77,3.19 -6.61,5.51 A 87.26,87.26 0 0 0 350.66,252 60.29,60.29 0 0 0 346,267.56 Z m 31.51,-44.82 c 2.25,1.53 4.58,1.77 6.69,2.59 1,0.39 1.81,0.22 2.26,-0.81 a 17.11,17.11 0 0 0 1.51,-3.8 c 0.28,-1.49 -0.58,-2.5 -2.16,-1.81 -2.62,1.16 -5.5,1.79 -8.29,3.83 z"
       id="path152"
       style="fill:#aaa9a9" />
    <path
       class="cls-6"
       d="m 1103.62,369.55 a 75.09,75.09 0 0 1 -40.93,-12.38 183.69,183.69 0 0 1 -19.25,-14.78 c -8.84,-7.62 -14.47,-17.26 -17.7,-28.35 -1.31,-4.48 -1,-9.08 -0.31,-13.64 0.89,-5.88 3.14,-11.5 3.5,-17.5 0.15,-2.43 0.38,-4.87 0.52,-7.3 0.41,-7 3.18,-13 9.09,-16.66 9.56,-6 19.89,-10.57 31.43,-9.93 15.64,0.88 29,6.82 38.3,20.11 2.54,3.63 5.81,7.13 7,11.19 1.27,4.29 3.77,5.44 7.34,6.6 A 33.63,33.63 0 0 1 1139,299 c 9.57,12.46 12.64,26.18 8.83,41.46 A 32.64,32.64 0 0 1 1132.84,361 c -9.31,5.82 -17.53,8.3 -29.22,8.55 z m -68.91,-53.3 a 22.09,22.09 0 0 0 1.17,4.4 c 2.5,5 4.86,10.19 9.19,14.05 3.53,3.14 6.86,6.53 10.56,9.45 a 106.21,106.21 0 0 0 13.06,9.2 c 10.07,5.72 20.88,7.86 32.48,7.67 a 54.29,54.29 0 0 0 27.28,-8 19,19 0 0 0 7,-6.47 c 7.39,-12.29 6.73,-24.65 0.11,-36.9 -1.83,-3.4 -3.54,-7.08 -7,-9.29 -5.53,-7.08 -13.2,-10 -21.75,-11.27 -5.89,-0.84 -11.8,-1.56 -17.68,-2.45 -1.43,-0.21 -3.87,0 -3.82,-1.67 0.07,-2 2.61,-1.71 4.11,-1.8 a 80.25,80.25 0 0 1 16.47,0.26 21.59,21.59 0 0 0 7.57,0.24 128,128 0 0 0 -11.94,-13.4 55.55,55.55 0 0 0 -21.73,-13.24 29.42,29.42 0 0 0 -15.36,-1.2 62.32,62.32 0 0 0 -20.26,8.25 c -4.15,2.5 -7,6.36 -7.06,11.21 -0.14,8.49 -2.07,16.62 -3.66,24.87 -1.11,5.37 -1.81,10.96 1.26,16.09 z"
       id="path154"
       style="fill:#aaa9a9" />
    <path
       class="cls-6"
       d="m 374.86,461.29 a 96,96 0 0 1 1.31,-14.58 c 2.38,-13 11.49,-20.14 24.74,-19.37 a 41.49,41.49 0 0 1 18.24,5.56 87.58,87.58 0 0 1 18.72,14.67 c 1.76,1.77 3.12,2.34 5.47,1 2.7,-1.59 5.87,-1.66 8.94,-1.25 A 28.31,28.31 0 0 1 464,451.1 c 15.08,9.66 25.63,29 20.75,48.13 -3.46,13.54 -13.67,22.07 -27.42,24.1 -11.78,1.74 -22.77,-0.9 -33.78,-4.26 a 128.29,128.29 0 0 1 -12.37,-4.84 41.51,41.51 0 0 1 -15.07,-11 c -2.12,-2.41 -4.26,-4.82 -6.56,-7 a 46.69,46.69 0 0 1 -14.69,-34.94 z m 81.56,31.55 a 23.6,23.6 0 0 0 -0.6,-3.59 92.41,92.41 0 0 0 -38.32,-50.37 32.92,32.92 0 0 0 -19.5,-5.69 c -8,0.25 -13.49,4.72 -15.48,12.46 a 39.68,39.68 0 0 0 -0.92,12.28 c 0.76,13.4 4.64,25.49 14.94,34.81 a 43.25,43.25 0 0 0 9.65,10.75 c 8.46,6.37 18.43,9.38 28.38,12.38 a 48.79,48.79 0 0 0 22.48,1.88 29.21,29.21 0 0 0 7.49,-2 c 9.58,-4.33 13.75,-12.42 14.27,-22.26 0.72,-13.76 -5.75,-24.75 -15.44,-33.81 a 24.06,24.06 0 0 0 -16.78,-6.31 c -0.73,0 -1.6,-0.11 -2,0.7 -0.4,0.81 0.25,1.41 0.75,1.95 a 25.48,25.48 0 0 1 3.67,4.65 114.36,114.36 0 0 1 8.37,19.8 66.85,66.85 0 0 1 2.1,8.42 c 0.45,2.36 -0.33,3.99 -3.06,3.95 z"
       id="path156"
       style="fill:#aaa9a9" />
    <path
       class="cls-6"
       d="M 52.93,171.18 A 71.44,71.44 0 0 1 20.68,163.33 C 9.09,157.17 1.92,148.16 0.68,134.68 0,127.62 -0.85,120.61 1.86,113.87 6.17,103.14 13.17,95.29 25.48,94.25 a 30.17,30.17 0 0 1 17.23,3.89 23.06,23.06 0 0 0 17.35,2.47 102,102 0 0 1 21.87,-2 c 15.5,0 30.3,3.4 43.87,11.25 8.16,4.72 12.11,12.25 13.73,21.17 A 17.92,17.92 0 0 1 136.32,145 38.26,38.26 0 0 1 121.2,158 c -16.57,7.65 -44.44,13.56 -68.27,13.18 z m -40,-21.63 a 32.94,32.94 0 0 0 12.48,9.69 c 5.85,2.6 12.24,3.78 18.6,4.5 20.25,2.3 39,-1 58.48,-6 a 83.48,83.48 0 0 0 17.15,-6.27 28.12,28.12 0 0 0 11.45,-10.25 c 3.84,-6.18 2.11,-14.78 -2.16,-20.26 a 39.3,39.3 0 0 0 -4.18,-4.38 c -9.26,-8.78 -23.9,-11.48 -36.13,-12.74 -9.91,-1 -19.84,0.71 -29.78,0.89 -0.7,0 -1.64,-0.1 -1.9,0.85 -0.26,0.95 0.36,1.47 1.26,2 a 57.7,57.7 0 0 1 12.12,9.72 c 0.68,0.71 1.8,1.3 1.27,2.68 -1.59,0.66 -2.6,-0.58 -3.62,-1.31 -5.08,-3.62 -10.69,-7.91 -16.35,-10.56 a 10.73,10.73 0 0 0 -6.48,-1 1.72,1.72 0 0 1 -1.34,-0.08 c -0.4,-0.3 -0.4,-0.88 -0.49,-1.38 a 4.44,4.44 0 0 0 -3.17,-3 60.35,60.35 0 0 0 -9.71,-2 17.87,17.87 0 0 0 -14.92,4.34 27.08,27.08 0 0 0 -9.31,14.89 35.72,35.72 0 0 0 6.71,29.67 z"
       id="path158"
       style="fill:#aaa9a9" />
    <path
       class="cls-6"
       d="m 945.69,98.91 c 10.23,-17 25,-28.59 43,-36.2 5.51,-2.32 11.42,-3.39 17.32,-4.19 a 98,98 0 0 1 31.93,0.84 c 13.9,2.71 24.78,10.79 34.23,20.87 3.91,4.17 6.14,9.49 7.53,15 2.48,9.83 -0.77,18.06 -7.52,25.13 a 41,41 0 0 1 -15.69,10 83.58,83.58 0 0 1 -28.64,5.51 c -6.72,0 -13.62,0.74 -20.07,-1.17 -12.16,-3.6 -24.81,-5.1 -36.85,-9.07 a 62.73,62.73 0 0 1 -11.38,-4.78 27.91,27.91 0 0 1 -10.39,-9.44 c -0.69,-2.65 -2.13,-5.09 -2.11,-7.92 a 2.71,2.71 0 0 1 2.52,-1.46 c 1.48,3.25 2.09,6.89 5.17,9.39 a 41.55,41.55 0 0 0 8.34,5.57 99.51,99.51 0 0 0 34.92,9.01 66.51,66.51 0 0 0 28.65,-4 7.76,7.76 0 0 0 4.05,-0.26 c 4,-0.92 7.88,-2.38 11.79,-3.64 0.83,-0.26 1.74,-0.81 2.4,0.64 -0.63,1.61 -2.15,2.32 -3.67,3 A 132.63,132.63 0 0 1 1020.5,129 c -1,0.24 -2.33,0.07 -3.21,1.53 8,0.1 15.61,0.67 23.11,-1 9.55,-2.09 19,-4.73 26.59,-11.44 a 21.72,21.72 0 0 0 7.43,-12.33 c 1.41,-7.79 -0.88,-15 -5.79,-21 a 58,58 0 0 0 -20.05,-15.56 21.62,21.62 0 0 0 -9.11,-4.09 c -11.29,-2.63 -22.71,-2.7 -34.14,-1.27 a 62.31,62.31 0 0 0 -17.19,4.63 c -16.11,7 -28.37,18.77 -39.84,31.58 -1.3,0.5 -2.44,0.83 -2.61,-1.14 z"
       id="path160"
       style="fill:#aaa9a9" />
    <path
       class="cls-6"
       d="M 215.73,33.09 C 219.12,27.5 224,22.93 229,18.74 A 53.31,53.31 0 0 1 245.32,9 C 255.6,5.36 265.89,2.27 277,2.91 c 14.39,0.81 27.64,4.88 39.56,13 7.06,4.82 12,11.22 13.89,19.75 a 26.92,26.92 0 0 1 -0.84,14 c -1.08,3.56 -3.53,5.92 -6.42,8.09 -11,8.2 -23.37,12.54 -36.83,14 -9.71,1.08 -19.33,3.08 -29.17,3.08 -14.91,0 -26.29,-7 -35.46,-18.11 a 22,22 0 0 1 -4.4,-8.88 26.42,26.42 0 0 1 -0.69,-5.08 13.61,13.61 0 0 1 0,-2.3 c 0.09,-0.69 0.69,-1.52 0.25,-2.2 a 1.37,1.37 0 0 0 -1.06,-0.54 c -0.41,0 -0.83,0 -1.23,-0.08 a 0.92,0.92 0 0 1 -0.66,-0.41 1.21,1.21 0 0 1 0.12,-1.1 33.25,33.25 0 0 1 1.67,-3.04 z m 17.54,27.77 c 9.65,6.16 22.47,9 31.71,7.79 5.27,-0.69 10.49,-1.68 15.76,-2.31 13.72,-1.62 27,-4.41 38.46,-12.85 2.22,-1.64 4.44,-3.24 5.57,-5.87 4.7,-10.91 -1.88,-22.55 -11.12,-28.63 C 303.12,12.06 291.11,7.58 278.36,8.18 275.77,8.3 273.17,8.25 270.59,8.42 255,9.47 238.93,15.14 227.52,26.1 c -0.52,0.51 -1,1 -1.54,1.56 -2,2.1 -4.87,3.35 -5.62,6.31 -2.94,11.66 3.47,20.86 12.91,26.89 z"
       id="path162"
       style="fill:#aaa9a9" />
    <path
       class="cls-6"
       d="m 110.4,266.48 c -9.75,0 -19.23,-1.21 -27.84,-6.23 -1.06,-0.62 -2.14,-1.18 -3.18,-1.83 -8.08,-5.06 -8.08,-13 -3.35,-18.92 10.58,-13.25 23.89,-22.64 41.06,-25.41 a 109.72,109.72 0 0 1 38.29,0.95 40.85,40.85 0 0 1 14,5.57 C 176.64,225.17 178,232 173,239 a 40.24,40.24 0 0 1 -10.92,10.28 c -10.69,7 -22,12.54 -34.46,15.56 a 63.49,63.49 0 0 1 -17.22,1.64 z m -9.7,-4.86 c 12.82,1.18 25.77,-1.27 37.67,-6.07 10.94,-4.42 25.55,-11.16 30.86,-22.41 a 6.27,6.27 0 0 0 0.79,-3.76 c -0.33,-1.76 -1.89,-3 -3.42,-3.9 a 42.34,42.34 0 0 0 -8.86,-3.8 79.63,79.63 0 0 0 -73.88,14.59 23.74,23.74 0 0 0 -5.38,5.85 10,10 0 0 0 -1.33,7.65 c 0.79,2.86 3.15,5 5.66,6.57 4.87,3 10.59,4.45 16.29,5.11 z"
       id="path164"
       style="fill:#aaa9a9" />
  </g>
  <text
     id="text981"
     y="315.45963"
     x="17.744553"
     style="font-style:normal;font-weight:normal;font-size:24.90686989px;line-height:1.25;font-family:sans-serif;letter-spacing:0px;word-spacing:0px;fill:#023d53;fill-opacity:1;stroke:none;stroke-width:0.62267172"
     xml:space="preserve"><tspan
       style="fill:#023d53;fill-opacity:1;stroke-width:0.62267172"
       y="315.45963"
       x="17.744553"
       id="tspan979">The expectations from</tspan><tspan
       style="fill:#023d53;fill-opacity:1;stroke-width:0.62267172"
       id="tspan985"
       y="346.5932"
       x="17.744553"> stakeholders about your </tspan><tspan
       style="fill:#023d53;fill-opacity:1;stroke-width:0.62267172"
       id="tspan987"
       y="377.72681"
       x="17.744553">software’s domain</tspan><tspan
       style="fill:#023d53;fill-opacity:1;stroke-width:0.62267172"
       id="tspan983"
       y="408.86038"
       x="17.744553" /></text>
  <text
     id="text991"
     y="470.6691"
     x="820.09125"
     style="font-style:normal;font-weight:normal;font-size:63.37783813px;line-height:1.25;font-family:sans-serif;letter-spacing:0px;word-spacing:0px;fill:#023d53;fill-opacity:1;stroke:none;stroke-width:1.58444595;"
     xml:space="preserve"><tspan
       style="font-style:normal;font-variant:normal;font-weight:normal;font-stretch:normal;font-family:'Permanent Marker';-inkscape-font-specification:'Permanent Marker';stroke-width:1.58444595;fill:#023d53;fill-opacity:1;"
       y="470.6691"
       x="820.09125"
       id="tspan989">The App</tspan></text>
</svg>
