<?xml version="1.0" encoding="UTF-8" standalone="no"?>
<svg
   xmlns:dc="http://purl.org/dc/elements/1.1/"
   xmlns:cc="http://creativecommons.org/ns#"
   xmlns:rdf="http://www.w3.org/1999/02/22-rdf-syntax-ns#"
   xmlns:svg="http://www.w3.org/2000/svg"
   xmlns="http://www.w3.org/2000/svg"
   height="283.56689"
   width="552.46222"
   id="svg24"
   version="1.1"
   viewBox="0 0 552.46221 283.5669">
  <metadata
     id="metadata28">
    <rdf:RDF>
      <cc:Work
         rdf:about="">
        <dc:format>image/svg+xml</dc:format>
        <dc:type
           rdf:resource="http://purl.org/dc/dcmitype/StillImage" />
        <dc:title>slide_4_5</dc:title>
        <dc:title>slide_4_5</dc:title>
      </cc:Work>
    </rdf:RDF>
  </metadata>
  <defs
     id="defs4">
    <style
       id="style2">.cls-1{fill:#00b3ea;}.cls-2{fill:#009ddb;}.cls-3{fill:#023d53;}.cls-4{fill:#032c3b;}</style>
  </defs>
  <title
     id="title6">slide_4_5</title>
  <path
     id="path8"
     d="m 224.01533,176.31224 c -7.91342,-5.59284 -19.79295,-15.27836 -19.42259,-25.43735 0.41724,-11.33571 15.05332,-20.43991 23.02302,-26.57189 5.96788,-4.59898 13.82037,-9.18857 17.55675,-15.98156 3.47853,-6.32886 5.22717,-12.803064 9.87303,-18.667814 9.34797,-11.818575 23.20116,-20.191434 38.17479,-22.286992 15.14709,-2.11431 25.15608,4.964645 34.55093,16.0847 9.70427,11.485722 18.56938,24.007506 23.44026,38.240436 2.08618,6.09446 3.33789,13.07497 0.42192,18.8319 -2.34402,4.62241 -6.96176,7.61807 -11.58885,9.94334 -19.92891,10.02775 -43.28477,11.62169 -63.17618,21.72445 -9.21201,4.65522 -17.94116,11.2185 -28.21268,12.1561 -8.30723,0.73602 -16.58165,-2.43309 -23.44026,-7.1774 -0.38912,-0.28597 -0.78759,-0.56725 -1.20014,-0.85792 z"
     class="cls-1"
     style="fill:#00b3ea;stroke-width:0.46880504" />
  <path
     id="path10"
     d="m 353.66805,133.12124 a 7.5430732,7.5430732 0 0 0 -0.0985,-2.7894 c -0.84853,-5.09122 -2.05804,-10.05586 -4.40207,-14.72047 A 173.88917,173.88917 0 0 0 335.50654,92.569593 c -2.64405,-3.712936 -5.40063,-7.350864 -8.32597,-10.843461 -4.73025,-5.672541 -10.72157,-9.755833 -17.56613,-12.545223 a 27.190694,27.190694 0 0 0 -6.56327,-1.687697 c -5.41469,-0.745401 -10.78252,-0.229715 -16.05188,0.937608 -4.84276,1.073566 -9.63863,2.508108 -14.08759,4.734932 -5.07247,2.540923 -9.51675,6.267923 -13.59534,10.159006 -3.90046,3.717624 -7.39775,7.904052 -9.91055,12.690548 a 37.43877,37.43877 0 0 0 -1.66426,3.60512 c -1.12982,2.812824 -2.34402,5.625654 -3.08942,8.583814 a 10.41216,10.41216 0 0 1 -3.61918,5.56941 c -0.661,0.55319 -1.29389,1.13451 -1.97835,1.65019 -5.62566,4.21925 -11.33571,8.31191 -16.53475,13.06561 -1.14858,1.05011 -2.46124,1.92678 -3.66138,2.92534 -1.56581,1.29389 -3.12692,2.59248 -4.64116,3.94264 a 35.554175,35.554175 0 0 0 -9.29172,12.77963 c -1.40642,3.32383 -1.37829,6.52108 0.29065,9.69488 a 21.171236,21.171236 0 0 0 1.68771,2.81283 105.57021,105.57021 0 0 0 10.91378,12.53585 20.899328,20.899328 0 0 0 3.0988,2.49874 129.56834,129.56834 0 0 0 11.5326,6.7086 14.087591,14.087591 0 0 0 5.56003,1.7252 c 3.97078,0.26253 7.94156,0.65164 11.93109,0.30472 a 22.938632,22.938632 0 0 0 5.73818,-1.07825 c 5.4522,-1.92678 10.87627,-3.93328 15.98624,-6.65235 7.31336,-3.8817 14.70643,-7.55713 22.46983,-10.50123 3.60042,-1.35953 7.29461,-2.27371 10.97472,-3.28163 6.61485,-1.84241 13.20156,-3.81138 19.92892,-5.24124 3.66604,-0.77823 7.36023,-1.46736 10.8247,-2.95348 5.44282,-2.34402 10.44028,-5.335 14.2001,-10.03711 2.68158,-3.38009 4.13018,-7.17271 3.60511,-11.55135 z m -5.8835,10.60437 a 35.929218,35.929218 0 0 1 -18.7522,10.40278 c -8.63539,1.81897 -17.12077,4.16767 -25.63426,6.4367 -10.93254,2.91597 -21.16655,7.44931 -31.07239,12.83118 -8.66352,4.68805 -18.08651,8.4385 -28.03925,8.14314 -3.80669,-0.11255 -7.79621,-0.39379 -11.30288,-2.02523 -3.78326,-1.76271 -7.60401,-4.30363 -11.00754,-6.72267 -3.33321,-2.36746 -5.90695,-5.56003 -8.68695,-8.50412 a 63.687165,63.687165 0 0 1 -4.53804,-5.65378 c -2.46592,-3.31446 -2.72376,-6.75549 -0.81572,-10.52468 2.20806,-4.35051 5.3725,-7.86654 8.99636,-10.97473 q 5.68661,-4.88494 11.14819,-10.00898 c 3.20663,-3.01443 6.98987,-5.24124 10.31372,-8.07752 0.87665,-0.75008 1.95491,-1.30327 2.43308,-2.45185 l 0.46882,-0.55787 c -0.13127,0.17814 -0.28598,0.35629 -0.42662,0.52506 l 1.14388,0.0704 c -0.60006,-0.0375 -2.25025,6.29605 -2.41435,6.92895 -0.2672,1.04543 -0.52505,2.09555 -0.75476,3.15036 a 7.4118079,7.4118079 0 0 0 0.0937,2.48935 c -0.0797,-0.64694 1.172,-2.34402 1.46267,-2.9816 0.55788,-1.18607 1.08763,-2.38153 1.59863,-3.58635 0.99387,-2.34402 1.91272,-4.68805 2.81283,-7.03208 1.81427,-4.68805 3.55354,-9.43236 5.62566,-14.02665 1.94554,-4.298944 4.04109,-8.691646 7.3321,-12.076418 6.7461,-6.94769 13.20155,-13.178109 22.78394,-15.89249 6.72265,-1.90335 14.82829,-3.22538 21.79473,-2.273705 6.52576,0.895417 12.5546,3.75044 17.81461,7.650898 4.09266,3.028481 6.91018,7.163341 9.97147,11.101304 a 152.73668,152.73668 0 0 1 10.65126,16.005001 c 2.23151,3.75045 4.82868,7.34149 6.73672,11.25132 2.54093,5.24125 3.727,10.81534 3.99423,16.60509 a 12.657737,12.657737 0 0 1 -3.73169,9.77927 z"
     class="cls-2"
     style="fill:#009ddb;stroke-width:0.46880504" />
  <path
     id="path12"
     d="m 349.86605,122.23557 c -0.28129,0.56727 -0.30472,1.08763 0.25784,1.51425 0.56725,-0.61882 0.34224,-1.09701 -0.25784,-1.51425 z"
     class="cls-2"
     style="fill:#009ddb;stroke-width:0.46880504" />
  <path
     id="path14"
     d="m 325.29597,181.30033 c -0.9751,0.99855 -0.9001,2.0768 -1.11575,3.05191 a 11.691998,11.691998 0 0 1 -1.05013,3.141 1.1626365,1.1626365 0 0 1 -1.2564,0.68446 1.2329573,1.2329573 0 0 1 -1.03136,-0.99856 6.8961222,6.8961222 0 0 1 -0.061,-3.04722 c 0.52976,-2.76127 1.05481,-5.52722 1.67364,-8.26973 0.37036,-1.65957 1.35485,-2.38621 3.00974,-1.94554 2.97222,0.79697 5.90694,0.60008 8.88385,0.22504 a 9.6667601,9.6667601 0 0 1 3.81138,0.14063 c 0.6282,0.16876 1.43454,0.29065 1.3736,1.21889 -0.0468,0.72665 -0.68445,0.93761 -1.26109,1.08763 a 29.244059,29.244059 0 0 1 -6.56326,0.99855 c -0.64695,0.0329 -1.35486,-0.22502 -1.93618,0.28129 -0.0421,0.67975 0.39381,1.13919 0.76416,1.57987 9.53081,11.25133 20.02735,21.41501 32.98512,28.73775 1.87522,1.04544 3.78326,1.95961 5.68193,2.93003 0.46879,0.23441 0.93759,0.43598 1.3689,0.69383 0.63758,0.37036 1.05481,0.93761 0.85323,1.68301 -0.22972,0.89543 -0.93761,1.1392 -1.78615,1.09232 a 14.889248,14.889248 0 0 1 -3.50666,-0.68445 c -4.46302,-1.34079 -8.47131,-3.6145 -12.29674,-6.18824 a 121.11579,121.11579 0 0 1 -27.72515,-25.5405 c -0.1969,-0.25783 -0.44067,-0.47817 -0.81571,-0.87197 z"
     class="cls-1"
     style="fill:#00b3ea;stroke-width:0.46880504" />
  <text
     id="text837"
     y="232.18585"
     x="325.87677"
     style="font-style:normal;font-weight:normal;font-size:18.75220108px;line-height:1.25;font-family:sans-serif;letter-spacing:0px;word-spacing:0px;fill:#023d53;fill-opacity:1;stroke:none;stroke-width:0.46880504"
     xml:space="preserve"><tspan
       style="stroke-width:0.46880504"
       y="232.18585"
       x="325.87677"
       id="tspan835">Business domain </tspan><tspan
       style="stroke-width:0.46880504"
       id="tspan839"
       y="255.6261"
       x="325.87677">the company/department</tspan><tspan
       style="stroke-width:0.46880504"
       id="tspan843"
       y="279.06635"
       x="325.87677">is operating in</tspan><tspan
       style="stroke-width:0.46880504"
       id="tspan841"
       y="302.50659"
       x="325.87677" /></text>
</svg>
