<svg xmlns="http://www.w3.org/2000/svg" viewBox="0 0 1489.02 638.54"><defs><style>.cls-1{fill:#00b3ea;}.cls-2{fill:#009ddb;}.cls-3{fill:#023d53;}.cls-4{fill:#032c3b;}.cls-5{fill:#e4e4e4;}.cls-6{fill:#ccc;}.cls-7{fill:#aaa9a9;}.cls-8{fill:#7f7f7f;}</style></defs><title>slide_9</title><g id="Layer_2" data-name="Layer 2"><g id="Layer_1-2" data-name="Layer 1"><path class="cls-1" d="M963.1,163.11c10.48-7.37,25.36-9.13,36.16-2.23,3.75,2.4,6.85,5.67,9.9,8.9l15.58,16.49c4.67,4.94,9.42,10,12.17,16.22a30,30,0,0,1-32.09,41.8c-9.81-1.55-18.19-7.79-27.59-11-6.87-2.32-14.28-3-20.86-6.06C928.53,214.37,943.61,176.83,963.1,163.11Z"/><path class="cls-2" d="M1043.56,220.44c-1.22,4.24-2.45,7.18-4.54,9.51-10.52,11.75-23.27,18.33-39.47,16-8.92-1.28-15.69-6.81-22.18-12.43a10.14,10.14,0,0,0-6.58-2.91,43.23,43.23,0,0,1-26.13-10.48c-8.6-7.18-9.68-19.57-6.79-27.32,5.28-14.17,12.83-26.77,26.47-34.65,11.07-6.4,22.27-8.06,33.74-1,5.72,3.52,10.47,8.17,15,13,8.48,8.93,17.23,17.59,25.71,26.5,4.91,5.16,7.1,10.55,5.72,17.47C1044.07,216.63,1043.76,219.15,1043.56,220.44Zm-56.23,11.17-.39,1.25a34.77,34.77,0,0,0,19.83,6.56c8.4.23,15.43-3.66,21.57-9.16,5.35-4.79,7.8-10.72,8.43-18,.37-4.27-.61-7.06-3.36-9.89-4.62-4.75-9-9.77-13.64-14.48-7.28-7.35-14.58-14.7-22.18-21.73-4.81-4.45-12.09-7.94-18.77-6.29a47.81,47.81,0,0,0-23.51,14.46c-5.37,6-7.86,11.57-10.81,19-1.82,4.59.09,12.67,2.85,17,4.13,6.47,10.9,9.79,17.84,11.36a189.48,189.48,0,0,0,35.27,4.05,15.83,15.83,0,0,1,5.14,1,2.68,2.68,0,0,1,2,2.56c0,1.39-1.26,1.84-2.31,2.35s-2.29.16-3.45.14C997,231.61,992.18,231.63,987.33,231.61Z"/><path class="cls-3" d="M323.1,258.11c10.48-7.37,25.36-9.13,36.16-2.23,3.75,2.4,6.85,5.67,9.9,8.9l15.58,16.49c4.67,4.94,9.42,10,12.17,16.22a30,30,0,0,1-32.09,41.8c-9.81-1.55-18.19-7.79-27.59-11-6.87-2.32-14.28-3-20.86-6.06C288.53,309.37,303.61,271.83,323.1,258.11Z"/><path class="cls-4" d="M403.56,315.44c-1.22,4.24-2.45,7.18-4.54,9.51-10.52,11.75-23.27,18.33-39.47,16-8.92-1.28-15.69-6.81-22.18-12.43a10.14,10.14,0,0,0-6.58-2.91,43.23,43.23,0,0,1-26.13-10.48c-8.6-7.18-9.68-19.57-6.79-27.32,5.28-14.17,12.83-26.77,26.47-34.65,11.07-6.4,22.27-8.06,33.74-1,5.72,3.52,10.47,8.17,15.05,13,8.48,8.93,17.23,17.59,25.71,26.5,4.91,5.16,7.1,10.55,5.72,17.47C404.07,311.63,403.76,314.15,403.56,315.44Zm-56.23,11.17-.39,1.25a34.77,34.77,0,0,0,19.83,6.56c8.4.23,15.43-3.66,21.57-9.16,5.35-4.79,7.8-10.72,8.43-18,.37-4.27-.61-7.06-3.36-9.89-4.62-4.75-9-9.77-13.64-14.48-7.28-7.35-14.58-14.7-22.18-21.73-4.81-4.45-12.09-7.94-18.77-6.29a47.81,47.81,0,0,0-23.51,14.46c-5.37,6-7.86,11.57-10.81,19-1.82,4.59.09,12.67,2.85,17,4.13,6.47,10.9,9.79,17.84,11.36a189.48,189.48,0,0,0,35.27,4.05,15.83,15.83,0,0,1,5.14,1,2.68,2.68,0,0,1,2,2.56c0,1.39-1.26,1.84-2.31,2.35s-2.29.16-3.45.14C357,326.61,352.18,326.63,347.33,326.61Z"/><path class="cls-5" d="M1093.39,119.77c-1.74-6.31-3.87-12-6-17.7a57.87,57.87,0,0,1-1.93-6.12,2.76,2.76,0,0,1,1.42-3.5c1.52-.72,2.65.07,3.62,1.15a29.57,29.57,0,0,1,4.42,7,170.5,170.5,0,0,1,11,28.15c2.39,8.57,2.61,11.59-7.32,14.75-4.54,1.44-8.67,3.81-12.93,5.88a29.42,29.42,0,0,1-6.44,2.36c-4.41,1-7.22.16-8.5-2.47s-.17-5.39,3.18-8.32c2.57-2.24,5.75-3.47,8.62-5.21,1.32-.8,3.82-.72,3.65-2.75-.16-1.81-2.48-2-3.94-2.71a170.8,170.8,0,0,0-23.53-9c-17.46-5.26-35.15-9.41-53.32-11.32-4.25-.44-8.48-1.15-12.7-1.85-2.09-.35-3.89-1.34-3.95-3.77s1.55-3.55,3.67-4a57.78,57.78,0,0,1,5.85-1,88.09,88.09,0,0,1,20.59.3,246.26,246.26,0,0,1,69.71,18.82C1089.92,118.91,1091.19,119.87,1093.39,119.77Z"/><path class="cls-5" d="M149.7,186.57a28,28,0,0,1-11.45,10.25,83.51,83.51,0,0,1-17.15,6.28c-3.24.84-6.55,1.53-9.68,2.67-5.23,1.9-10.7,2.31-16.11,3.08A162.06,162.06,0,0,1,73,210,69.67,69.67,0,0,1,43.64,204a46.66,46.66,0,0,1-9.36-5.68,4.72,4.72,0,0,1-2.2-3.82c-3-1.21-4.26-4.14-5.11-6.74-2.4-7.28-3.81-14.81-2.14-22.51a27,27,0,0,1,9.29-14.95A17.94,17.94,0,0,1,49,146a55.13,55.13,0,0,1,10.23,2.49c1.38.5,3,.84,2.74,3-.13,1.34,1.14,1.39,2,1,2.66-1.18,4.63.13,6.78,1.42,5.37,3.22,10.74,6.44,15.84,10.08,1,.73,2,2,3.62,1.31.53-1.38-.59-2-1.27-2.68a57.07,57.07,0,0,0-12.12-9.72c-.9-.53-1.55-.94-1.26-2s1.2-.84,1.9-.85c9.93-.18,19.87-1.91,29.78-.89,11.6,1.19,22.94,3.71,33,10.15,1.41.91,3,1.57,3.49,3.43C151.1,167.32,154.16,179.39,149.7,186.57Z"/><path class="cls-6" d="M33.08,195.53a5.94,5.94,0,0,1,3.59,0c10,2.11,20.1,3.1,30.38,1.75,5.27-.69,10.63-.44,16-1a199.53,199.53,0,0,0,35.4-6.61,74.07,74.07,0,0,0,12-4.37c7.14-3.47,11.24-9.13,13.05-16.67.39-1.63.83-3.25,1.25-4.87,7.38,4.54,10.44,16.62,6,23.8a28.19,28.19,0,0,1-11.45,10.25,83.91,83.91,0,0,1-17.15,6.27c-3.24.84-6.55,1.53-9.69,2.67-5.22,1.91-10.69,2.32-16.1,3.08A160.52,160.52,0,0,1,74,211a69.9,69.9,0,0,1-29.32-6,46.91,46.91,0,0,1-9.35-5.69A4.71,4.71,0,0,1,33.08,195.53Z"/><path class="cls-7" d="M71.56,216.58a71.31,71.31,0,0,1-32.25-7.85c-11.59-6.16-18.76-15.17-20-28.65-.65-7.06-1.51-14.06,1.2-20.81,4.31-10.73,11.3-18.58,23.61-19.62a30.14,30.14,0,0,1,17.23,3.89A23.08,23.08,0,0,0,78.69,146a101.86,101.86,0,0,1,21.86-2c15.5,0,30.3,3.4,43.87,11.25,8.17,4.72,12.12,12.25,13.74,21.18A17.94,17.94,0,0,1,155,190.35a38.28,38.28,0,0,1-15.12,13C123.26,211.05,95.38,217,71.56,216.58ZM31.54,195A32.94,32.94,0,0,0,44,204.64c5.85,2.6,12.23,3.78,18.6,4.51,20.25,2.29,39-1,58.48-6.05a83.91,83.91,0,0,0,17.15-6.27,28.19,28.19,0,0,0,11.45-10.25c3.83-6.18,2.1-14.78-2.17-20.26a40,40,0,0,0-4.17-4.37c-9.26-8.78-23.9-11.49-36.14-12.75-9.9-1-19.84.71-29.77.89-.71,0-1.65-.1-1.91.86s.37,1.46,1.27,2a58,58,0,0,1,12.12,9.72c.68.71,1.79,1.3,1.27,2.68-1.6.66-2.6-.58-3.62-1.31-5.08-3.62-10.7-7.9-16.35-10.55a10.68,10.68,0,0,0-6.48-1,1.67,1.67,0,0,1-1.34-.08c-.4-.3-.4-.88-.49-1.37a4.45,4.45,0,0,0-3.18-3,60.46,60.46,0,0,0-9.7-2,17.85,17.85,0,0,0-14.92,4.34,27,27,0,0,0-9.29,14.94A35.75,35.75,0,0,0,31.54,195Z"/><path class="cls-5" d="M6.8,334.82C7,342.66,9,350.15,11.41,357.56a3.77,3.77,0,0,1-.09,1.32c-4.49-8.1-8.34-16.44-9.78-25.69,2,1.35,1.74,4,3.36,5.76.78-1.24,0-2.48.4-3.57Z"/><path class="cls-5" d="M218.17,290.88c-1.75,10.64-6,20.56-13.82,28.36a174.47,174.47,0,0,1-34.71,26.6A67.25,67.25,0,0,1,154,352.16c-7,2-13.94,4.36-21.14,5.67-4,.74-8.09,1.53-12.18.32a6.3,6.3,0,0,1-3.6.2,174.7,174.7,0,0,1-20.17-6c-2.86-1-2.84-1.27-1.18-3.87,1.82-2.82,3.69-5.61,5.52-8.42a53.41,53.41,0,0,0,8.33-25.87c.37-5.47.43-11,.38-16.46,0-2.35.55-3.42,3-4.08,19-5.07,35.58-14.26,49.47-28.21.75-.76,1.54-1.5,2.24-2.31a2.25,2.25,0,0,1,3.24-.42,10,10,0,0,1,2.51,1.95,13.12,13.12,0,0,0,9.35,5.06c2.55-1.06,5.14-.58,7.67,0,6.4,1.39,12.78,2.87,19.16,4.35a15.37,15.37,0,0,1,2.15.78C217.39,278.32,219.49,282.83,218.17,290.88Z"/><path class="cls-5" d="M66.16,249.7c-.53-.8,0-1.48.32-2.11,11-19,25.37-34.7,44.77-45.51a133.68,133.68,0,0,1,15.17-7.52c7-2.81,14.06-3.93,21.45-2,9.81.51,15.59,5.38,18.47,15.9A68.59,68.59,0,0,1,168,240c-.86,4.37-2.82,8.35-4.69,12.34a3.9,3.9,0,0,1-4.39,2.4c-3.91-.38-6.71,1.63-10.65,1.47-4.73,1.78-11.06,2-15.89,3.53-8,2.55-15,4.82-21.66,9.69-1.24.89-2.44,1.86-3.7,2.7-2.72,1.84-2.8,1.85-4.6-.92-7.86-12-19.27-18.39-33.15-20.82C68.2,250.21,67.07,250.45,66.16,249.7Z"/><path class="cls-5" d="M142.18,259.89c5.1-.56,9.58-.85,14.78.1a7.07,7.07,0,0,1-2.74,3.66c-5.94,5.18-12.07,10.05-19.23,13.59-4.2,2.07-8.52,7.69-13.18,8.77-1.36,3.3,1.83-.72,1.84-.79-.07.14-5.58,2.38-5.51,2.36-3.47,1.59-2.78-1.22-6.54-.35-1.72.39-2.45.06-2.85-1.73-1.74-7.69-1.74-7.61,4.65-12.35A79.11,79.11,0,0,1,142.18,259.89Z"/><path class="cls-5" d="M80.56,331.94c.67,6.32.72,10.94,4.65,16.09,1.4,1.82,1.29,3.39-.25,5.29a62.2,62.2,0,0,1-27.15,19.51c-5.29,1.95-11,2.53-16.64,2.71a3.26,3.26,0,0,1-2.56-.77c-6.08,1.07-10.43-2.5-14-6.29-10.54-11.19-14.8-24.65-12.57-40,1.42-9.66,5.4-18.4,9.89-26.94,1.57-3,3.18-5.91,4.71-8.9a11.18,11.18,0,0,0,1.73-4.91,4.62,4.62,0,0,0-3.29,2.44C16.72,302.49,8.81,315,7.14,330.26c-.17,1.52-.23,3-.34,4.56l-1.5.56c-.57-3.3-1.12-6.6-1.75-9.89-.44-2.32.72-4.42.86-6.69a49.46,49.46,0,0,1,4.32-17.24,122.46,122.46,0,0,1,11.92-21.64c8.37-11.67,19.71-18.89,33.7-22,.1,0,.23.14.72.43.71,8.08,2,13.4,6,19.22,5.45,7.78,12,14.24,21.33,17.28,1.9.63,6.48,1.46,5.48,3.5a74.79,74.79,0,0,0-7.5,28.23C81.29,327.6,80.43,330.76,80.56,331.94Z"/><path class="cls-5" d="M94.84,339.53c-1.27,1.71-2.3,3.59-3.57,5.31-.74,1-1.23,2.87-2.89,2.33a5.61,5.61,0,0,1-4-4.16,59.56,59.56,0,0,1-1.84-16.13,86.31,86.31,0,0,1,3-21.19c.76-2.86,3-4.84,3.9-7.68.37-1.22,2.12-1.59,3.56-1.65,2.88-.12,5.78-.14,8.65-.44,2.14-.23,3.31.43,3.25,2.61C104.48,312.92,104,327.28,94.84,339.53Z"/><path class="cls-5" d="M57.48,267.85c-1.55-2.64-2.1-7.12.53-8.93.12-2.54,4-2.7,6.32-2.56a43.42,43.42,0,0,1,23.33,8.19,47,47,0,0,1,11.1,10.72c1.3,1.84,1,2.93-.4,4.26-2.77,2.6-5.61,5.13-7.62,8.41a3,3,0,0,1-3.47,1.53c-1.89-.48-4-.24-5.68-1.42C71.47,283.48,63,277.2,57.48,267.85Z"/><path class="cls-5" d="M104.55,283.43a16.9,16.9,0,0,1,.1,4.09c0,1.12-.65,1.59-1.76,1.62-2.26.09-4.49.79-7.16.26,1.75-3,4.16-4.68,6.12-6.78C103,281.36,104.22,281.94,104.55,283.43Z"/><path class="cls-5" d="M454.27,47.5c10.82,10.56,14.15,23.38,10.92,38.12-1.8,8.22-3.44,16.44-6.94,24.15-.59,1.33-.66,3-2.27,3.79-1.64-.72-.86-2.13-.83-3.19.18-9.25-2.65-17.72-6.5-25.94a4.86,4.86,0,0,0-1-1.48c-.42-.38-1-.8-1.63-.3a1.14,1.14,0,0,0-.36,1.22c.78,3.41,1.6,6.81,2.29,10.24,2.2,11,2.48,21.83-2.65,32.23-4.08,8.25-10.23,14.76-17.37,20.39A162.49,162.49,0,0,1,390.22,169c-10.28,4.33-20.42,9-31.14,12.13-6,1.75-11.85,4-18.08,4.76-3.6.45-7.24,1.06-10.77-.45-6.31.58-11.5-2.44-16.77-5.2-1.75-.91-1.26-2.21-.42-3.46a50,50,0,0,0,4.75-9.89c5.31-13.63,4.73-27.39-.35-40.77C313.81,116.5,306,111.35,296,109.43c-2-.4-4.81.52-5.83-1.59-.84-1.72,1-3.69,1.58-5.54,3-9.07,5.48-18.19,3.38-27.86a5.29,5.29,0,0,1,1.17-4.65C307,55.55,319.07,41.91,333.11,31c2.73-2.12,12.73-8.06,14.12-9,16.48-11.76,30.41-8.27,35.69-9.76s26.4,9.74,28.33,8.84c5.11-.3,10.18,4.65,14.52,6.75A106.75,106.75,0,0,1,454.27,47.5Z"/><path class="cls-5" d="M274.16,106.12c-.14,1.71-.39,3-2.57,2.83s-4.37,1.23-6.69.78c-7.14,2.69-14.21,5.56-21.07,8.93-1.34.66-2.65,3.49-4.27,2.76-.75-.34-6.14,1.48-6.83,1.83-7.59,4-11.38,2.58-18.77,7.08a143.64,143.64,0,0,0-25.12,19.08c-3.23,3.11-3.85,3.27-6.14-.57-5.87-9.89-11-20.11-11.72-31.94a45.52,45.52,0,0,1,2.62-17.56,14,14,0,0,1,5.07-6.9c4.42-3.28,8.72-6.72,13.18-9.93,7.33-5.28,13.61-11.81,20.9-17.16,9.24-6.75,19.15-12,30.41-14.43a36.26,36.26,0,0,1,21.62,1.5c5.8,2.31,12,3.86,16.66,8.37a17.22,17.22,0,0,1,1.17,1.37c1.73.89,2.51,2.64,3.42,4.13,1.82,3,2.31,5.52-.26,9A60.39,60.39,0,0,0,274.16,106.12Z"/><path class="cls-5" d="M303.79,178.09c.93,1,.45,1.95-.26,2.87A78.13,78.13,0,0,1,284,199.32a85.57,85.57,0,0,1-18.1,8.68c-7.57,2.59-15.15,5.33-23.41,5.55a57.34,57.34,0,0,1,7.44-4.39c8.56-4.57,15.77-10.87,22.94-17.2C278,187.42,283,182.72,288,178.09a14.76,14.76,0,0,0,2-1.91c.6-.82,1.47-1.85.56-2.84-.72-.8-1.68.1-2.53.26l-.89.16c-4.74,4.57-9.9,8.63-15,12.81-8.31,6.85-16.82,13.33-26.33,18.52-8.9,4.85-18.53,6.95-28.27,8.88-9.28,1.83-18.24.18-27-2.7-7.5-2.45-11.6-7.83-13.62-15.34-3.4-12.69-.61-23.83,7.46-33.93,1.45-1.8,5.65-6.54,7.91-8.84A128.7,128.7,0,0,1,217.2,134c5.1-3.13,10.62-5.33,16-7.89a7.07,7.07,0,0,1,2.58-.91c7.57-.25,16.55-19,23.24-21.86,4.79-1.44,16.09,6.58,21.14,6.18,1.39-.1-1,18.83,2.62,16.29,1.51,1.11,4.87,26,10.87,35.67a5.82,5.82,0,0,1,.42,1.3C298,167.38,299.54,173.6,303.79,178.09Z"/><path class="cls-5" d="M315,140.29c-.75-5.9-1.94-11.68-5.7-16.56-5.1-7.53-13-9-21.22-9.76a2.12,2.12,0,0,0-1.28.41c-1.91,1.27-4,7.07-3.28,9.35a180.42,180.42,0,0,0,13.22,32.15l.08-.06c0,.05-.07.08-.08.06,2.11,5.74,5.95,10.62,8,16.39a4.38,4.38,0,0,0,.7,1.17c1.52,2,2.27,1.93,3.62-.17C315.54,163.1,316.44,151.9,315,140.29ZM308.66,124a3.48,3.48,0,0,0-1.61,2.53A2.78,2.78,0,0,1,308.66,124Zm-1.81,8.61c.21-1.56-.18-4,.19-6a20.42,20.42,0,0,0,0,2.07c.07,2.75.19,5.49-.91,8.11-.23.56-.46,1.12-.68,1.69A33,33,0,0,0,306.85,132.58ZM296.79,155.8c.54-.67,3.14-5,3.38-5.49.35-.76.73-1.51,1.11-2.26C300,150.76,299.21,153.76,296.79,155.8Zm4.88-8.53c.63-1.22,1.26-2.44,1.82-3.7a30.94,30.94,0,0,1-1.61,3.33Z"/><path class="cls-5" d="M288.61,81.42l.34.14A7.79,7.79,0,0,1,289.5,86c-.83,6.54-3,12.73-5,19a13.19,13.19,0,0,1-.72,1.69c-.59,1.21-1.54,2-2.91,1.6s-1-1.69-1-2.72a22,22,0,0,1,1.3-7.17C283,92.44,284.31,86.27,288.61,81.42Z"/><path class="cls-5" d="M300.17,150.31c.35-.76.73-1.51,1.11-2.26-1.28,2.71-2.07,5.71-4.49,7.75C297.33,155.13,299.93,150.83,300.17,150.31Z"/><path class="cls-5" d="M301.67,147.27c.63-1.22,1.26-2.44,1.82-3.7a30.94,30.94,0,0,1-1.61,3.33Z"/><path class="cls-5" d="M306.85,132.58c.21-1.56-.18-4,.19-6a20.42,20.42,0,0,0,0,2.07c.07,2.75.19,5.49-.91,8.11-.23.56-.46,1.12-.68,1.69A33,33,0,0,0,306.85,132.58Z"/><path class="cls-5" d="M212.41,221.3c-4.42,13.68-24.23,31-39.75,29,1.57-3.84,2.13-7.89,3.28-11.8a94.18,94.18,0,0,0-1.88-29.71c-.23-1-.53-2-.8-3.07l.86-.44c4,7.48,10.89,10.95,18.66,13.13,1.53.43,3.42.15,4.28,2a2.48,2.48,0,0,1,2.15-.49C203.55,220.88,208,220.91,212.41,221.3Z"/><path class="cls-5" d="M148.19,185.45A49.82,49.82,0,0,1,171.62,174c-2.53,8.72-1.79,16.94.36,25.12l-1.21.7C166.27,190.94,158.42,187.15,148.19,185.45Z"/><path class="cls-5" d="M300.17,150.31c.35-.76.73-1.51,1.11-2.26-1.28,2.71-2.07,5.71-4.49,7.75C297.33,155.13,299.93,150.83,300.17,150.31Z"/><path class="cls-5" d="M301.67,147.27c.63-1.22,1.26-2.44,1.82-3.7a30.94,30.94,0,0,1-1.61,3.33Z"/><path class="cls-5" d="M306.85,132.58c.21-1.56-.18-4,.19-6a20.42,20.42,0,0,0,0,2.07c.07,2.75.19,5.49-.91,8.11-.23.56-.46,1.12-.68,1.69A33,33,0,0,0,306.85,132.58Z"/><path class="cls-5" d="M122.27,282.89a.74.74,0,0,0,0,.21C122.19,283.12,122.2,283,122.27,282.89Z"/><path class="cls-5" d="M122.27,282.89a.74.74,0,0,0,0,.21C122.19,283.12,122.2,283,122.27,282.89Z"/><path class="cls-5" d="M172,199.07q1.07,3.12,2.14,6.26l-.86.44c-.83-2-1.67-4-2.49-6Z"/><path class="cls-8" d="M216.91,223.28c-.27-1-2.26-2.31.44-2.87C217.23,221.37,217.54,222.4,216.91,223.28Z"/><path class="cls-8" d="M288.61,81.42l.4-.53-.06.67Z"/><path class="cls-6" d="M8.12,335.34c.23,7.85,2.18,15.34,4.6,22.75a3.5,3.5,0,0,1-.09,1.31C8.14,351.31,4.3,343,2.84,333.71c2,1.36,1.75,4,3.38,5.76.77-1.23,0-2.46.4-3.56Z"/><path class="cls-6" d="M328.74,187c1-2.14,3.21-2.27,5.07-2.74a118.2,118.2,0,0,0,15.35-5,123.54,123.54,0,0,0,25.55-14.76c13.05-9.47,25.19-19.9,35.2-32.63a123.33,123.33,0,0,0,17.33-28.91c3.6-8.69,7.43-17.31,9.37-26.62a36.41,36.41,0,0,0-5.05-27.87c-5.43-8.68-12.08-16.35-19.09-23.75a10.6,10.6,0,0,1-1-1.53c5.18-.32,9.67,2,14.06,4.14a108.63,108.63,0,0,1,28.87,20c11,10.71,14.33,23.7,11.05,38.63-1.82,8.32-3.48,16.66-7,24.46-.61,1.35-.68,3.07-2.31,3.85-1.65-.75-.87-2.17-.84-3.24.19-9.37-2.67-18-6.58-26.28a4.7,4.7,0,0,0-1.06-1.5c-.43-.38-1-.81-1.65-.29a1.12,1.12,0,0,0-.36,1.22c.77,3.46,1.61,6.91,2.31,10.38,2.23,11.13,2.52,22.12-2.68,32.64-4.14,8.37-10.36,15-17.6,20.66a164.88,164.88,0,0,1-38.15,22.52c-10.41,4.39-20.68,9.12-31.54,12.29-6.06,1.78-12,4-18.32,4.82C336,187.92,332.31,188.54,328.74,187Z"/><path class="cls-6" d="M120.55,359a2,2,0,0,1,1.39-1.69c8-3.35,15.14-8.18,22.86-12,8.44-4.2,15.66-10.31,22.5-16.76,7.74-7.31,15-15,20.34-24.39,3.11-5.55,5.83-11.09,6.32-17.62.53-7.1-3-12.42-9.2-14.1-1.68-.45-3.79-.61-4.4-2.87,2.58-1.06,5.19-.58,7.75,0,6.48,1.4,12.93,2.9,19.39,4.4a14.59,14.59,0,0,1,2.18.79c8.74,3.51,10.87,8.07,9.53,16.21-1.76,10.77-6,20.82-14,28.71a177,177,0,0,1-35.13,26.92,68.86,68.86,0,0,1-15.85,6.39c-7.1,2.06-14.11,4.41-21.39,5.74C128.8,359.37,124.69,360.18,120.55,359Z"/><path class="cls-6" d="M147.36,254.83c-.22-2.69,1.3-4.81,2.08-7.16a90.06,90.06,0,0,0,4.92-24.52,48.43,48.43,0,0,0-4.29-23.33c-1.4-3-3.56-5.84-3-9.47,9.95.71,15.89,5.89,19,16.94,3,10.87,4.1,22,2.16,33.07-.79,4.55-2.71,8.68-4.53,12.83a3.81,3.81,0,0,1-4.41,2.43C155.33,255.15,151.34,255.07,147.36,254.83Z"/><path class="cls-6" d="M84.48,343.22a62.19,62.19,0,0,1-1.9-16.62,89.75,89.75,0,0,1,3-21.85c.8-2.95,3.16-5,4-7.91.38-1.27,2.18-1.64,3.67-1.7,3-.13,6-.15,8.92-.46,2.2-.23,3.41.45,3.35,2.69-.41,14.83-.93,29.63-10.33,42.27-1.31,1.76-2.39,3.7-3.69,5.47-.77,1.05-1.27,3-3,2.41A5.82,5.82,0,0,1,84.48,343.22Z"/><path class="cls-6" d="M209.07,159.47a5.38,5.38,0,0,1,2.26-2.39,219.38,219.38,0,0,0,44.2-35.79,3.81,3.81,0,0,0,.84-3.8,75.53,75.53,0,0,1,15.38-3.23c1.45-.12,3.77-1.16,4.1.94s2.59,4.55,0,7c-4,3.92-8,7.81-13.39,9.91a17.15,17.15,0,0,0-1.76.78c-.94.5-2,.28-1.37,1.76.53,1.26,2.08-.23,3.15-.26,1.73,0,4-2.14,5.91-1.44-1.51,2.35-5.39,7.74-7.75,9.84-.67-1.34,0-1.87-1.06-1.34-4.72,2.31-9.6,4.26-14.27,6.74a97.08,97.08,0,0,1-20.33,8.4c-3.52,1-6.9,2.54-10.54,3.06C212.71,159.94,210.78,161.07,209.07,159.47Z"/><path class="cls-6" d="M39.93,375.3c.48-.38.9-.94,1.43-1.1,5.63-1.6,9-5.6,12.21-10.25,8-11.46,16.79-22.44,23.91-34.55a4.76,4.76,0,0,1,2-1.77c.86,1,.6,2.34.72,3.52.68,6.32,2.36,12.26,6.29,17.4,1.4,1.82,1.29,3.4-.24,5.29a62.25,62.25,0,0,1-27.16,19.52c-5.29,1.95-11,2.52-16.63,2.71A3.28,3.28,0,0,1,39.93,375.3Z"/><path class="cls-6" d="M287.53,174.68c1.28-4.31,5.41-9.9,8.34-13.18,4,4.63,5.59,10.88,9.84,15.37.92,1-1.08,4.09-1.78,5a77.78,77.78,0,0,1-19.56,18.35,84.15,84.15,0,0,1-18.1,8.68c-7.56,2.6-19.95,5.38-28.21,5.6,2.34-1.73,51.22-40.15,50.37-40Z"/><path class="cls-6" d="M197.71,219.93a2.8,2.8,0,0,1,2.37-.55c4.75.87,9.61.83,14.46,1.18-5.07,14.66-27.11,33.46-44.11,31.63,1.79-4.12,2.48-8.45,3.79-12.64A80.87,80.87,0,0,0,197.71,219.93Z"/><path class="cls-6" d="M296.53,158c.06.18,4.69-6.55,5-7.12,1.07-2.34,2.36-4.57,3.4-6.93a40.14,40.14,0,0,0,3.28-10.8c.34-2.62-1-7.8,2.4-8.85,3.77,4.88,4.95,10.66,5.71,16.56,1.49,11.61.58,22.8-5.95,33-1.34,2.09-1.78,5.59-3.3,3.59-.28-.36-3.26-2.46-3.41-2.89C301.56,168.74,298.63,163.69,296.53,158Z"/><path class="cls-6" d="M60.1,258.71c.12-2.71,1.71-3.53,4.19-3.37a46.25,46.25,0,0,1,24.89,8.74A49.86,49.86,0,0,1,101,275.52c1.39,2,1.08,3.13-.42,4.55-3,2.77-6,5.47-8.14,9a3.18,3.18,0,0,1-3.7,1.64c-1.93-.49-4.26-.13-5.88-1.51.91-1.4.64-3.27,0-4.81-3.07-7.59-7.23-14.68-10.68-22.1a11.33,11.33,0,0,0-1.4-2.47c-1.26-1.52-3.42-1.83-5.28-1.81C65.07,258,60.12,258.35,60.1,258.71Z"/><path class="cls-6" d="M266.22,110.25c-.12-1.53,1.07-2.45,1.74-3.6a143.16,143.16,0,0,0,15.09-37.33c.56-2.23,0-4.5.87-6.63,1.73.88,2.51,2.63,3.43,4.13,1.81,3,2.3,5.52-.27,9a60.25,60.25,0,0,0-11.6,30.81c-.15,1.7-.4,3-2.58,2.82S268.53,110.71,266.22,110.25Z"/><path class="cls-6" d="M119.72,285.48c3.7-4.54,8.79-7.71,13.35-11.41s9-8.56,9.92-14.48a56.92,56.92,0,0,1,16.89-.33c.63.08-2.83,3.7-3,3.81q-2.35,2.08-4.82,4a122.44,122.44,0,0,1-10.22,7.31,123.92,123.92,0,0,1-22.39,11.35A3.25,3.25,0,0,1,119.72,285.48Z"/><path class="cls-6" d="M290.65,78.15a8.93,8.93,0,0,1,.58,5.45c-1.28,8.08-4.28,15.75-7,23.49a15.31,15.31,0,0,1-1,2.1c-.8,1.51-2,2.52-3.8,2.06s-1.19-2-1.21-3.31c-.07-3.07.94-6,1.9-8.87,2.47-7.35,4.36-15,10-21.08Z"/><path class="cls-6" d="M93.27,290.48c2.37-4,5.62-6.33,8.27-9.16,1.6-1.7,3.19-.91,3.64,1.1a24.15,24.15,0,0,1,.15,5.52c0,1.51-.89,2.14-2.38,2.2C99.9,290.25,96.87,291.19,93.27,290.48Z"/><path class="cls-6" d="M172.08,200.3l1.21-.7q1.07,3.12,2.15,6.25l-.87.45Z"/><path class="cls-6" d="M289.92,82l.4-.53-.06.66Z"/><path class="cls-7" d="M457,41.56c-11.35-10.39-24.83-18.08-39-24-6.06-2.55-12.72-2.71-19.12-3.77-6.75-1.12-13-4.09-19.79-5.09-8-1.18-16.47.76-23.84,3.89-12.1,5.13-22.25,13.71-32,22.32s-19.62,17.77-28,28c-.73.89-1.22,2.14-3,2.26-4.9-10.8-15-14.86-25.31-18.53-1.15-.41-2.33-.75-3.5-1.11a38.92,38.92,0,0,0-16.31-1.36,69,69,0,0,0-30.56,11.7c-15.08,10.19-28.71,22.28-42.68,33.91a16.45,16.45,0,0,0-4.44,6.87,44.83,44.83,0,0,0-2.37,27A78.53,78.53,0,0,0,180.69,154c1.48,1.95,1.21,3.09-.12,4.72a51.76,51.76,0,0,0-4.28,5.95c-.92,1.52-1.8,2.18-3.66,1.64a13.38,13.38,0,0,0-7.26.27c-10,2.76-18.67,7.59-24.61,16.42-.81,1.21-1.54,2.08-3.14,2.24-10.6,1.06-20,5.57-29,10.73A118,118,0,0,0,60.26,247.2a7.57,7.57,0,0,1-5.52,4.64C36,256.51,21.57,267,12.13,284A142.91,142.91,0,0,0,3,303C-.1,311.3-.47,319.1.42,327.79c.06.57.12,1.15.2,1.73a14.65,14.65,0,0,0,.33,1.6c.65,2.3,2,5,4.19,6.25,1.05-2.05.75-4.52.19-6.75-2.79-11,0-21.53,4.46-31.76,4.28-9.72,9.83-19,17.41-26.46s17.3-13,27.83-14.31c-2.4,6,1.13,12.67,4.89,17.94,5.58,7.82,12.41,15.39,21.53,18.42a5.12,5.12,0,0,1,2.65,1.47c1.07,1.42.24,3.42-.54,5a52.39,52.39,0,0,0,1.24,47.18,6.58,6.58,0,0,1,1,2.64c.11,1.6-1,3-2.06,4.18a67.31,67.31,0,0,1-19.5,15c-11.21,5.63-25.53,8.4-36.49.81-9-6.25-14.35-17.26-15.89-27.92-2.17-15,3.83-30.06,11.2-43.34,2.11-3.82,4.38-7.63,5.35-11.89a15.62,15.62,0,0,0-3.88,3.73A84,84,0,0,0,8.87,322.2c-1.51,5.61-2.39,10.86-1.8,16.65,1.64,16.14,9.42,41.59,29.48,42.47,11.23.5,22.18-1.61,32.13-7.48,7.83-4.62,15.06-9.88,20.74-17.06.93-1.18,1.75-2.54,3.71-1.46,5.42,3,11.51,4,17.33,5.85a47.52,47.52,0,0,0,24,1c7.65-1.55,15.09-3.85,22.53-6.14,21.61-6.66,39.81-18.33,53.62-36.47a64,64,0,0,0,12-25.52c2.26-10.53-1.62-19.3-10.59-23.45a68.36,68.36,0,0,0-29.71-6.67c-3.79,0-6.49-.91-8.56-3.92-.24-.29-.74-.66-.67-.85.2-.64.78-.56,1.31-.36,6.86-.69,13.5-2.1,19.42-5.9,8.44-5.43,15.45-12.22,20.35-21.08,1.47-2.68,2.73-5.38,2.77-8.51-.27-1-2.26-2.31.44-2.87,3.43-.8,6.87-1.52,10.26-2.43a17.39,17.39,0,0,1,9-.14,26.32,26.32,0,0,0,11.38.26c11.77-2.22,23.19-5.54,33.75-11.38,9-5,17-11.37,24.81-18,3.08-2.61,5.54-3.36,9.35-1.56,11.52,5.44,23.46,6.14,35.75,2.52q10.79-3.18,21.35-7c18.2-6.58,35.48-15,51.28-26.23,4.6-3.28,8.78-7.33,13.73-9.91,8.83-4.61,15-11.57,19.44-20.09a143.24,143.24,0,0,0,14.7-44.21,46.67,46.67,0,0,0,.4-9.6C471.92,60,466.09,49.93,457,41.56ZM171,116.9a45.35,45.35,0,0,1,2.61-17.56,14,14,0,0,1,5.08-6.9c4.41-3.28,8.71-6.71,13.17-9.93,7.33-5.28,13.61-11.82,20.9-17.15,9.24-6.76,19.14-12,30.41-14.44,11.6-2.51,23.89.81,34,6.77,5.67,3.35,13.65,10.75,8.61,17.63a60.23,60.23,0,0,0-11.61,30.81c-.24,2.91-2.9,2.8-5.12,3A21.68,21.68,0,0,0,265,110c-1.76.54-3.51,1.23-5.24,1.83q-10,3.44-19.83,7.27c-8.63,3.36-18,6.37-25.95,11.2a143.64,143.64,0,0,0-25.12,19.08c-3.23,3.11-3.85,3.27-6.14-.57C176.83,139,171.73,128.73,171,116.9ZM289.5,86c-.83,6.55-3,12.73-5,19a11.86,11.86,0,0,1-.71,1.69c-.59,1.21-1.54,2-2.91,1.6s-1-1.69-1-2.72a21.5,21.5,0,0,1,1.3-7.17c1.78-5.93,3.1-12.1,7.4-17l.4-.53-.06.67A7.63,7.63,0,0,1,289.5,86ZM81.67,287.89c-4-1.85-7.63-4.92-11-7.59-4.93-3.91-9.28-8.55-11.81-14.38a6.58,6.58,0,0,1-.69-2.9c.17-2.78,3.2-6.84,6.17-6.66a43.42,43.42,0,0,1,23.33,8.19A46.93,46.93,0,0,1,98.52,275a4.91,4.91,0,0,1,.93,1.8c.3,1.37-.81,2.41-1.69,3.28a50.45,50.45,0,0,0-5.91,6.48c-1.47,2.07-2.54,3.25-5.16,2.89A18,18,0,0,1,81.67,287.89Zm20.18-5.27c1.18-1.26,2.36-.67,2.7.81a18,18,0,0,1,.11,4.09c0,1.12-.66,1.59-1.76,1.63-2.27.08-4.51.78-7.17.25C97.48,286.43,99.89,284.72,101.85,282.62ZM88.38,347.17a5.61,5.61,0,0,1-4-4.16,60.4,60.4,0,0,1-1.85-16.13,87.27,87.27,0,0,1,3-21.19c.78-2.86,3.06-4.84,3.91-7.68.37-1.22,2.12-1.59,3.56-1.65,2.89-.12,5.79-.14,8.66-.44,2.13-.23,3.3.44,3.24,2.61-.39,14.39-.9,28.74-10,41-1.27,1.71-2.31,3.59-3.57,5.3C90.52,345.86,90,347.71,88.38,347.17Zm91.39-77.41c2.54-1.05,5.13-.58,7.65,0,6.41,1.38,12.79,2.87,19.17,4.35a15.37,15.37,0,0,1,2.15.78c8.65,3.47,10.74,8,9.43,16-1.75,10.65-6,20.57-13.82,28.37a171.49,171.49,0,0,1-27.83,22.35c-10.09,6.54-21.58,10.79-33.25,13.87a79,79,0,0,1-23.88,2.84c-7.75-.38-15.23-3.38-22.5-5.91-2.86-1-2.84-1.27-1.18-3.87,1.81-2.83,3.7-5.6,5.52-8.42a53.41,53.41,0,0,0,8.33-25.87c.36-5.47.43-11,.38-16.46,0-2.35.55-3.42,3-4.08,18.93-5.07,35.57-14.26,49.46-28.21.76-.76,1.53-1.5,2.23-2.3a2.25,2.25,0,0,1,3.25-.43,10,10,0,0,1,2.52,1.95A13.08,13.08,0,0,0,179.77,269.76Zm-71,15.73c-1.74-7.68-1.74-7.6,4.65-12.34a78.94,78.94,0,0,1,28.78-13.26c5.1-.56,9.58-.85,14.79.1a7.18,7.18,0,0,1-2.75,3.66c-2.63,2.3-5.37,4.46-8.2,6.51C142.07,273,110.28,292.27,108.75,285.49ZM168,240c-.86,4.37-2.83,8.35-4.69,12.35a3.9,3.9,0,0,1-4.39,2.39c-17.05-1.67-34.52,4.79-48.21,14.69-1.23.89-2.43,1.85-3.69,2.71-2.71,1.82-2.8,1.83-4.6-.93-7.86-12-19.27-18.39-33.15-20.83-1-.18-2.15.06-3-.69-.53-.8,0-1.48.31-2.11,11-19,25.37-34.7,44.76-45.51a137.24,137.24,0,0,1,15.18-7.52c7-2.81,14.06-3.93,21.45-2,9.81.52,15.59,5.38,18.47,15.9A68.72,68.72,0,0,1,168,240Zm4.71,10.34c1.57-3.84,2.14-7.89,3.27-11.8a93.89,93.89,0,0,0-1.87-29.71c-.24-1-.53-2-.8-3.06-.83-2-1.66-4-2.5-6-4.49-8.83-12.35-12.62-22.57-14.32A49.91,49.91,0,0,1,171.62,174c-2.53,8.72-1.79,16.94.35,25.12.72,2.08,1.44,4.17,2.15,6.25a24.39,24.39,0,0,0,10.36,10c3.51,1.83,7.4,2.95,11.12,4.28,1.5.54,16.42,2.9,16.81,1.72C208,235,188.17,252.3,172.66,250.35ZM303.53,181A77.61,77.61,0,0,1,284,199.31,83.39,83.39,0,0,1,265.88,208c-7.57,2.6-15.15,5.33-23.41,5.56a58,58,0,0,1,7.44-4.39c8.56-4.57,15.76-10.86,23-17.2C278,187.42,283,182.72,288,178.09a14.71,14.71,0,0,0,2-1.9c.6-.83,1.47-1.85.56-2.84-.73-.8-1.68.09-2.53.25l-.9.16c-4.72,4.57-9.88,8.63-14.95,12.81-8.31,6.85-16.82,13.33-26.33,18.52-8.9,4.85-18.53,6.95-28.28,8.87-9.27,1.83-18.22.19-27-2.69-7.5-2.45-11.6-7.83-13.62-15.35-3.4-12.68-.62-23.82,7.47-33.92,1.43-1.8,2.67-2.47,5-1.32,10.18,5,20.77,4.1,31.36,1.64,14.33-3.39,27.78-11.7,40.14-19.44.68-.43,1.47-1.19,1.08-1.9s-1.43-.49-2.16-.16c-9.58,4.22-18.72,9.43-28.44,13.3-12,4.76-26.15,7.87-38.52,2.79-2.77-1.14-2.81-1.45-.56-3.74a110.72,110.72,0,0,1,26.79-20c9.79-5.23,20.56-8.44,31-12.19,2.14-.77,4.3-1.62,6.47-2.46,5-1.91,10-3.71,15.21-4.12a4.57,4.57,0,0,1,2.52.33c2.05,1.12,2.29,6.09.74,7.63a58.25,58.25,0,0,1-14.38,10.26c-1.11.59-3.12,2.11-.78,3a3.89,3.89,0,0,0,2.06,0c4-.73,6.76-2.58,9.95-4.95.6-.44,5-4.32,5.72-3.77,1.5,1.11,1.78,2.52,2.18,3.79a135.11,135.11,0,0,0,13.88,30.72,5,5,0,0,1,.42,1.3c4,4.63,5.51,10.85,9.75,15.34C304.72,179.07,304.24,180,303.53,181Zm5.48-7.69c-1.34,2.1-2.1,2.16-3.62.17a4.38,4.38,0,0,1-.7-1.17c-2.05-5.77-5.89-10.66-8-16.39a179,179,0,0,1-13.23-32.15c-.72-2.28,1.38-8.08,3.29-9.36A2.11,2.11,0,0,1,288,114c8.23.72,16.12,2.24,21.22,9.76,3.77,4.88,4.95,10.67,5.71,16.57C316.44,151.9,315.54,163.1,309,173.27ZM465.19,85.63c-1.8,8.21-3.44,16.43-6.93,24.14-.61,1.33-.68,3-2.28,3.8-1.64-.74-.86-2.14-.84-3.2.19-9.25-2.64-17.72-6.49-25.94a4.59,4.59,0,0,0-1-1.48c-.42-.37-1-.8-1.63-.29a1.12,1.12,0,0,0-.35,1.21c.76,3.41,1.59,6.82,2.28,10.25,2.2,11,2.48,21.83-2.65,32.22-4.08,8.25-10.23,14.76-17.37,20.39A162.7,162.7,0,0,1,390.22,169c-10.31,4.34-20.59,9.22-31.3,12.61-15.29,4.83-30.85,6.28-45.46-1.37-1.75-.91-1.25-2.21-.42-3.45a50.63,50.63,0,0,0,4.75-9.9c5.31-13.63,4.73-27.39-.35-40.78C313.81,116.5,306,111.35,296,109.42c-2-.38-4.81.53-5.84-1.58-.83-1.72,1-3.69,1.6-5.54,3-9.06,5.47-18.19,3.36-27.86a5.29,5.29,0,0,1,1.18-4.65c9.84-13,21.23-25.43,34.21-35.59,11.76-9.22,28.68-21,44.25-20.61,5.46.12,9.56,2.51,14.5,4.26,11.54,4.08,24.17,4.22,35.45,9.13,11.05,4.81,21,12.12,29.6,20.51C465.09,58.06,468.43,70.88,465.19,85.63Z"/><path class="cls-5" d="M607.05,224.17a21.74,21.74,0,0,1-7.43,12.34c-7.61,6.71-17,9.34-26.59,11.44-7.5,1.65-15.17,1.08-23.11,1,.88-1.46,2.23-1.29,3.21-1.53a133.56,133.56,0,0,0,20.68-7.29c1.52-.65,3.05-1.36,3.68-3-.66-1.44-1.57-.9-2.4-.63-3.92,1.27-7.77,2.72-11.79,3.64a7.76,7.76,0,0,1-4,.26,66.66,66.66,0,0,1-28.65,4,99.28,99.28,0,0,1-34.84-8.94,41.18,41.18,0,0,1-8.34-5.58c-3.09-2.49-3.69-6.13-5.18-9.38-.1-.89-.79-1.4-1.31-2,11.47-12.81,23.73-24.62,39.84-31.59A62.92,62.92,0,0,1,538,182.25c11.43-1.42,22.85-1.35,34.14,1.28a21.62,21.62,0,0,1,9.11,4.09,58.14,58.14,0,0,1,20,15.55C606.17,209.16,608.46,216.38,607.05,224.17Z"/><path class="cls-6" d="M560.25,241.41c2.18-3.64,6.3-4.58,9.54-6.72,5.5-3.65,10.83-7.37,14.61-12.95,4.08-6,5.12-12.67,4.34-19.68-.32-2.92-2.1-5.36-3.61-7.85-1.09-1.79-2.86-3.25-2.92-5.59a58.14,58.14,0,0,1,20,15.56c4.91,6,7.2,13.21,5.79,21a21.8,21.8,0,0,1-7.44,12.34c-7.6,6.71-17,9.34-26.59,11.44-7.49,1.64-15.16,1.07-23.1,1,.88-1.46,2.23-1.29,3.21-1.53a132.48,132.48,0,0,0,20.68-7.28c1.52-.65,3.05-1.36,3.68-3-.66-1.44-1.57-.9-2.4-.64-3.92,1.26-7.77,2.72-11.8,3.64A7.62,7.62,0,0,1,560.25,241.41Z"/><path class="cls-7" d="M478.32,217.31c10.22-17,25-28.59,43.05-36.2a68.07,68.07,0,0,1,17.32-4.19,98,98,0,0,1,31.92.84c13.91,2.72,24.79,10.79,34.24,20.87,3.9,4.17,6.13,9.49,7.53,15,2.47,9.82-.77,18.05-7.53,25.12a41.16,41.16,0,0,1-15.69,10.05,83.48,83.48,0,0,1-28.64,5.5c-6.71,0-13.61.74-20.06-1.17-12.16-3.59-24.81-5.1-36.85-9.07a62.73,62.73,0,0,1-11.38-4.78,27.83,27.83,0,0,1-10.39-9.44c-.7-2.64-2.13-5.09-2.12-7.92.64-.84,1.32-1.6,2.52-1.46,1.49,3.26,2.09,6.9,5.18,9.39a41.6,41.6,0,0,0,8.34,5.58,99.66,99.66,0,0,0,34.84,8.94,66.51,66.51,0,0,0,28.65-4,7.62,7.62,0,0,0,4-.26c4-.92,7.88-2.38,11.8-3.64.83-.26,1.74-.8,2.4.64-.63,1.61-2.16,2.32-3.68,3a132.48,132.48,0,0,1-20.68,7.28c-1,.24-2.33.07-3.21,1.53,7.94.1,15.61.67,23.1-1,9.56-2.1,19-4.73,26.59-11.44a21.8,21.8,0,0,0,7.44-12.34c1.41-7.79-.88-15-5.79-21a58.14,58.14,0,0,0-20-15.56,21.48,21.48,0,0,0-9.11-4.08c-11.29-2.64-22.71-2.71-34.14-1.28a62.56,62.56,0,0,0-17.19,4.63c-16.11,7-28.37,18.78-39.84,31.59C479.67,219,478.48,219.28,478.32,217.31Z"/><path class="cls-5" d="M212.82,461c-.06.12-.11.25-.17.37a25.89,25.89,0,0,0,.92-3.08c.34-1.5.25-3.39.54-5.07a10.26,10.26,0,0,0,0,1.57A13.35,13.35,0,0,1,212.82,461Z"/><path class="cls-5" d="M215.59,450.15a6.78,6.78,0,0,0-2.72-3c-11.36-8-23.64-13.25-37.88-12.59-2.59.13-5.19.08-7.77.25-7.94.53-24.3,2.12-34.75,8.46-11.72,7.11-18,16-16,22a23.82,23.82,0,0,1,1.16,2.63c1.76,7.93,4.68,15.09,12.59,18.92a5.07,5.07,0,0,0,2.16,2.26c8.86,6.35,18.82,7.33,29.23,6,5.26-.69,10.49-1.69,15.76-2.31,13.72-1.62,27-4.41,38.45-12.85,2.23-1.64,4.45-3.24,5.58-5.86C225.2,465.19,222.59,456.18,215.59,450.15ZM212.82,461c-.06.12-.11.25-.17.37a25.89,25.89,0,0,0,.92-3.08c.34-1.5.25-3.39.54-5.07a10.26,10.26,0,0,0,0,1.57A13.35,13.35,0,0,1,212.82,461Z"/><path class="cls-5" d="M212.82,461c-.06.12-.11.25-.17.37a25.89,25.89,0,0,0,.92-3.08c.34-1.5.25-3.39.54-5.07a10.26,10.26,0,0,0,0,1.57A13.35,13.35,0,0,1,212.82,461Z"/><path class="cls-6" d="M131.22,487.84c1.89-.91,3.67.12,5.28.65,9.07,3,18.23,2.67,27.56,1.73,11.86-1.2,24.91-4.44,35.09-10.81a37,37,0,0,0,12.13-12.12,27.64,27.64,0,0,0,3.29-8c.59-2.55-.13-6.27,2-8.12,7,6,9.61,15,5.81,23.87-1.13,2.63-3.35,4.22-5.58,5.86-11.44,8.44-24.73,11.23-38.45,12.85-5.27.63-10.5,1.62-15.76,2.31-10.41,1.37-20.37.39-29.23-5.95A5.07,5.07,0,0,1,131.22,487.84Z"/><path class="cls-6" d="M127.28,452.73a6.24,6.24,0,0,1,1.9-.81c2.46-.67,4.63-2.11,6.87-3.34a19.25,19.25,0,0,1,4-1.75c.62-.18,3.86-1.1,3.28.29a2,2,0,0,1-.5.65,43.38,43.38,0,0,1-6.76,4.81q-3.81,2.46-7.54,5.05c-1,.7-2.22.92-2.79-.45a3.07,3.07,0,0,1,0-1.94A4.17,4.17,0,0,1,127.28,452.73Z"/><path class="cls-7" d="M112.35,459.49c3.4-5.59,8.31-10.16,13.29-14.35a53.46,53.46,0,0,1,16.3-9.72c10.28-3.66,20.57-6.74,31.71-6.11,14.4.81,27.65,4.88,39.56,13,7.07,4.82,12,11.22,13.9,19.76a27,27,0,0,1-.84,14c-1.08,3.56-3.53,5.92-6.42,8.09-10.95,8.21-23.37,12.54-36.83,14-9.72,1.08-19.33,3.08-29.17,3.08-14.91,0-26.29-7-35.46-18.11a21.88,21.88,0,0,1-4.4-8.88,27.24,27.24,0,0,1-.7-5.08,13.61,13.61,0,0,1,0-2.3c.09-.69.69-1.52.25-2.2a1.44,1.44,0,0,0-1.07-.54c-.4,0-.82,0-1.22-.08a1,1,0,0,1-.67-.41,1.25,1.25,0,0,1,.13-1.1A33.34,33.34,0,0,1,112.35,459.49Zm17.54,27.77c9.65,6.16,22.47,9,31.72,7.79,5.26-.69,10.49-1.68,15.76-2.31,13.72-1.62,27-4.41,38.45-12.85,2.23-1.64,4.45-3.23,5.58-5.86,4.69-10.92-1.89-22.55-11.13-28.64C199.75,438.46,187.73,434,175,434.58c-2.59.12-5.19.07-7.78.24-15.57,1.05-31.65,6.72-43.06,17.68-.53.51-1,1-1.54,1.56-2,2.1-4.88,3.35-5.63,6.31C114.05,472,120.45,481.23,129.89,487.26Z"/><path class="cls-5" d="M408.93,441.49a30.7,30.7,0,0,1-8.53,8.77c-10.27,7-21.11,12.8-33.3,15.56-8.44,1.91-17,3.56-25.69,1.24-7.65,1.07-14.14-1.82-20.2-6-4-2.75-4.89-5.86-3-10.32a20.73,20.73,0,0,1,7.67-9.46c5-3.2,9.93-6.49,15.15-9.36,10.25-5.62,21.42-6.65,32.74-6.9,3.58-.08,7.32-.89,10.77.93,7.84-.53,15.08,1.57,21.85,5.3C411.07,433.79,411.81,437.06,408.93,441.49Z"/><path class="cls-6" d="M336.47,469.1a1.93,1.93,0,0,1,2.08-1.67c8.3-.4,16-2.8,23.65-5.76a61.22,61.22,0,0,0,21.74-14.2c6.74-6.85,6.62-11.81,1.21-17.65-.95-1-2.87-5.18-2.68-6.54,8.61-.54,17.94,4.72,25.38,8.6,5.1,2.66,5.91,6.06,2.75,10.66a32.79,32.79,0,0,1-9.36,9.11c-11.28,7.26-23.18,13.3-36.56,16.16C355.4,469.8,346,471.52,336.47,469.1Z"/><path class="cls-7" d="M351,472.88c-9.74,0-19.22-1.2-27.84-6.23-1.05-.62-2.14-1.18-3.17-1.83-8.09-5.06-8.08-13-3.36-18.92,10.58-13.25,23.9-22.64,41.07-25.41a109.72,109.72,0,0,1,38.29.95A41.08,41.08,0,0,1,410,427c7.28,4.56,8.63,11.42,3.67,18.36a40.14,40.14,0,0,1-10.93,10.28c-10.69,7-22,12.54-34.45,15.56A63.53,63.53,0,0,1,351,472.88ZM341.33,468c12.82,1.18,25.77-1.26,37.66-6.07,10.95-4.42,25.56-11.15,30.87-22.4a6.3,6.3,0,0,0,.79-3.77c-.34-1.75-1.9-3-3.43-3.9a41.49,41.49,0,0,0-8.85-3.79,79.63,79.63,0,0,0-73.88,14.58,23.74,23.74,0,0,0-5.38,5.85,10,10,0,0,0-1.34,7.66c.79,2.85,3.16,5,5.67,6.56,4.87,3,10.59,4.45,16.28,5.11Z"/><path class="cls-5" d="M1352.24,151.45a27.94,27.94,0,0,1-15.09-2.89,83.38,83.38,0,0,1-15.4-9.82c-2.63-2.07-5.19-4.28-8-6.08-4.69-3-8.33-7.1-12.23-10.93a162.85,162.85,0,0,1-14.46-17.09,69.6,69.6,0,0,1-13-26.91,46.52,46.52,0,0,1-1.17-10.89,4.73,4.73,0,0,1,1.71-4.06c-.88-3.16.7-5.9,2.25-8.16,4.34-6.32,9.47-12,16.6-15.35a27.06,27.06,0,0,1,17.52-1.69,17.94,17.94,0,0,1,12.5,9.23,55.08,55.08,0,0,1,4.23,9.64c.44,1.4,1.14,2.87-.74,4-1.14.71-.41,1.75.37,2.18,2.55,1.4,2.7,3.76,3,6.25.7,6.22,1.4,12.44,1.6,18.71,0,1.25-.34,2.8,1.15,3.67,1.42-.42,1.22-1.67,1.36-2.64a57.3,57.3,0,0,0,.38-15.53c-.13-1-.2-1.8.82-2.21s1.4.44,1.83,1c6.17,7.78,13.57,14.64,18.77,23.13,6.1,9.95,11,20.49,12,32.39.13,1.68.58,3.36-.61,4.85C1368.4,140.88,1360.66,150.64,1352.24,151.45Z"/><path class="cls-6" d="M1274.37,64.18a6,6,0,0,1,2.18,2.85c4.41,9.26,9.73,17.86,17,25.22,3.74,3.76,6.8,8.17,10.46,12.08a198.56,198.56,0,0,0,26.74,24.13,73.18,73.18,0,0,0,10.76,6.9c7.08,3.57,14.07,3.4,21.17.25,1.53-.67,3.08-1.3,4.62-2,.87,8.63-6.87,18.39-15.29,19.2A28,28,0,0,1,1337,150a83.05,83.05,0,0,1-15.4-9.82c-2.63-2.07-5.18-4.28-8-6.08-4.68-3-8.33-7.1-12.22-10.93A161.74,161.74,0,0,1,1286.88,106a69.54,69.54,0,0,1-13.05-26.91,46,46,0,0,1-1.16-10.89A4.69,4.69,0,0,1,1274.37,64.18Z"/><path class="cls-7" d="M1281,107.54a71.41,71.41,0,0,1-13.32-30.41c-2.13-12.94.68-24.11,10.63-33.29,5.22-4.8,10.26-9.73,17.27-11.67,11.14-3.09,21.63-2.29,29.92,6.87a30,30,0,0,1,7.36,16.05,23.13,23.13,0,0,0,8.56,15.3,101.9,101.9,0,0,1,14.88,16.16c9.37,12.34,15.68,26.14,17.67,41.69,1.2,9.36-2.39,17.06-8.5,23.77a18,18,0,0,1-13,5.9,38.22,38.22,0,0,1-19.5-4.13C1316.74,145.28,1295.14,126.7,1281,107.54ZM1273.9,62.6a32.82,32.82,0,0,0-.13,15.8c1.48,6.23,4.41,12,7.7,17.52,10.46,17.49,24.45,30.36,40.28,42.82a84.37,84.37,0,0,0,15.39,9.82,28.09,28.09,0,0,0,15.1,2.89c7.24-.7,13-7.29,14.79-14a40.11,40.11,0,0,0,1-6c1.36-12.69-5.37-26-11.8-36.46-5.2-8.5-12.6-15.34-18.77-23.13-.44-.55-.91-1.37-1.83-1s-.94,1.18-.82,2.22a57.71,57.71,0,0,1-.38,15.53c-.15,1,.06,2.22-1.36,2.64-1.49-.87-1.11-2.42-1.15-3.68-.2-6.23-.2-13.29-1.53-19.4a10.75,10.75,0,0,0-3.1-5.79c-.34-.3-.74-.64-.75-1.11s.46-.85.8-1.22a4.45,4.45,0,0,0,.45-4.34,60.54,60.54,0,0,0-4.31-8.92,17.88,17.88,0,0,0-12.5-9.23,27.06,27.06,0,0,0-17.52,1.69A35.72,35.72,0,0,0,1273.9,62.6Z"/><path class="cls-5" d="M1151.26,35.51c-7.61,1.91-14.51,5.43-21.22,9.39a3.92,3.92,0,0,1-1.31.19c6.94-6.12,14.26-11.67,23-15.07-.9,2.2-3.55,2.56-4.9,4.52,1.37.5,2.41-.52,3.56-.37C1150.68,34.62,1151,35.07,1151.26,35.51Z"/><path class="cls-5" d="M1239.57,232.5c-10.77.59-21.36-1.42-30.66-7.4a173.9,173.9,0,0,1-33.44-28.19,67.61,67.61,0,0,1-9.54-13.93c-3.49-6.42-7.25-12.68-10.08-19.43-1.58-3.78-3.22-7.57-2.92-11.83a6.22,6.22,0,0,1-1-3.47,173.07,173.07,0,0,1,1.49-21c.36-3,.63-3,3.52-2,3.15,1.16,6.27,2.4,9.42,3.58a53.33,53.33,0,0,0,27,2.58c5.43-.82,10.81-1.94,16.17-3.17,2.29-.53,3.46-.19,4.62,2.07,9,17.41,21.58,31.68,38.18,42.25.91.58,1.79,1.18,2.74,1.69a2.26,2.26,0,0,1,1.1,3.08,9.62,9.62,0,0,1-1.36,2.87,13.09,13.09,0,0,0-2.93,10.22c1.58,2.26,1.67,4.89,1.68,7.48,0,6.55-.05,13.09-.12,19.65a16.27,16.27,0,0,1-.31,2.27C1251.67,229,1247.72,232.06,1239.57,232.5Z"/><path class="cls-5" d="M1247.14,75.21c.67-.7,1.44-.36,2.13-.15,20.91,6.69,39.34,17.33,54.06,33.94a134.41,134.41,0,0,1,10.6,13.21c4.24,6.19,6.87,12.88,6.6,20.51,1.61,9.69-1.9,16.38-11.55,21.45a68.65,68.65,0,0,1-30.52,8.36c-4.45.1-8.76-1-13.06-1.93a3.88,3.88,0,0,1-3.28-3.77c-.47-3.9-3-6.21-3.72-10.08-2.76-4.24-4.33-10.38-6.87-14.76-4.2-7.26-7.91-13.57-14.11-19.08-1.13-1-2.34-2-3.43-3-2.38-2.26-2.41-2.34-.09-4.7,10.06-10.25,13.82-22.76,13.22-36.84C1247.07,77.3,1246.6,76.25,1247.14,75.21Z"/><path class="cls-5" d="M1253.51,151.64a48.29,48.29,0,0,1,3.08,14.46,7.13,7.13,0,0,1-4.16-1.9c-6.34-4.69-12.41-9.63-17.41-15.86-2.91-3.66-9.34-6.67-11.39-11-3.52-.62,1.09,1.63,1.16,1.63-.15,0-3.52-4.94-3.49-4.88-2.29-3,.61-3-1-6.46-.76-1.6-.6-2.38,1.07-3.16,7.13-3.35,7.06-3.33,13.06,1.89A78.86,78.86,0,0,1,1253.51,151.64Z"/><path class="cls-5" d="M1169.91,106.93c-6,2-10.53,3-14.71,8-1.48,1.75-3,2-5.23.89a62.22,62.22,0,0,1-24.88-22.33c-3-4.74-4.83-10.17-6.22-15.66a3.28,3.28,0,0,1,.2-2.67c-2.35-5.7.2-10.73,3.14-15,8.66-12.7,20.89-19.75,36.33-20.86,9.74-.69,19.13,1.32,28.44,3.87,3.24.9,6.46,1.84,9.71,2.69a11.16,11.16,0,0,0,5.16.64,4.61,4.61,0,0,0-3.09-2.69c-13.8-5.52-27.7-10.57-43-8.92-1.52.16-3,.43-4.52.65-.3-.44-.58-.89-.88-1.34,3.1-1.27,6.21-2.52,9.28-3.84,2.18-.92,4.48-.25,6.73-.6a49.38,49.38,0,0,1,17.77.52,122.29,122.29,0,0,1,23.69,7c13.19,5.66,22.68,15.18,28.74,28.18,0,.09-.09.25-.27.79-7.73,2.43-12.66,4.82-17.47,10-6.43,7-11.32,14.79-12.29,24.55-.2,2,0,6.64-2.24,6.1a74.87,74.87,0,0,0-29.18-1.27C1174.3,106.71,1171,106.55,1169.91,106.93Z"/><path class="cls-5" d="M1165.56,122.51c-1.94-.87-4-1.48-5.94-2.35-1.17-.51-3.07-.58-2.91-2.32a5.62,5.62,0,0,1,3.21-4.79,59.92,59.92,0,0,1,15.36-5.27,86.71,86.71,0,0,1,21.33-1.66c3,.14,5.39,1.94,8.34,2.17,1.27.09,2,1.72,2.38,3.12.74,2.79,1.37,5.62,2.29,8.35.67,2,.28,3.33-1.86,3.74C1193.63,126.21,1179.49,128.79,1165.56,122.51Z"/><path class="cls-5" d="M1227.55,70.63c2.24-2.09,6.5-3.58,8.83-1.4,2.5-.44,3.5,3.31,3.86,5.61a43.48,43.48,0,0,1-3,24.54,47.09,47.09,0,0,1-8.09,13.15c-1.52,1.66-2.65,1.61-4.25.53-3.13-2.15-6.22-4.38-9.85-5.64a3,3,0,0,1-2.24-3.06c.06-2-.61-3.92.17-5.85C1215.29,87.64,1219.59,78,1227.55,70.63Z"/><path class="cls-5" d="M1222.44,119.94a17.35,17.35,0,0,1-4,1c-1.1.23-1.69-.3-2-1.37-.56-2.19-1.73-4.23-1.79-7,3.28,1.08,5.47,3.06,7.94,4.53C1224.13,118,1223.82,119.29,1222.44,119.94Z"/><path class="cls-5" d="M1432,247.51c-1.69.22-3,.26-3.31-1.91s-2.14-4-2.2-6.36c-4.16-6.41-8.48-12.69-13.25-18.67-.93-1.16-4-1.83-3.61-3.57.17-.81-2.76-5.69-3.26-6.28-5.48-6.56-5-10.56-10.94-16.81a144.15,144.15,0,0,0-24-20.44c-3.74-2.49-4-3.06-.76-6.11,8.39-7.86,17.28-15,28.67-18.31a45.51,45.51,0,0,1,17.72-1.22,14,14,0,0,1,7.82,3.48c4.15,3.61,8.44,7.07,12.53,10.73,6.73,6,14.47,10.75,21.25,16.73,8.58,7.58,15.83,16.12,20.63,26.6a36.31,36.31,0,0,1,3.18,21.43c-1,6.17-1.2,12.53-4.6,18.07a16.89,16.89,0,0,1-1.08,1.44c-.5,1.88-2,3-3.31,4.23-2.49,2.41-4.89,3.44-8.86,1.68A60.32,60.32,0,0,0,1432,247.51Z"/><path class="cls-5" d="M1368.12,291.9c-.76,1.12-1.81.86-2.85.36a77.8,77.8,0,0,1-22.14-15.15,85,85,0,0,1-12.36-15.81c-4.16-6.83-8.46-13.66-10.46-21.67a58.27,58.27,0,0,1,5.89,6.32c6.3,7.39,14,13.07,21.73,18.72,5.53,4,11.2,7.91,16.81,11.85A13.59,13.59,0,0,0,1367,278c.93.41,2.12,1,2.89-.06.63-.88-.45-1.62-.79-2.41l-.35-.84c-5.48-3.64-10.55-7.81-15.72-11.86-8.48-6.64-16.64-13.57-23.74-21.73-6.65-7.65-10.77-16.61-14.75-25.71-3.78-8.67-4.09-17.77-3.17-27,.78-7.85,5.15-13,12.06-16.6,11.65-6,23.14-5.71,34.74,0,2.06,1,7.6,4.1,10.32,5.82,9,5.61,16.77,12.6,24.11,20.21,4.15,4.31,7.48,9.23,11.12,13.91a7,7,0,0,1,1.45,2.32c1.87,7.34,22.09,12.09,26.34,18,2.44,4.37-3,17.12-1.5,22,.41,1.33-1.82,19.26,1.44,22.21-.77,1.72-6.89,8.08-15,16-.31.31-32.6-4.23-33-4C1379.8,293.18,1371.59,286.79,1368.12,291.9Z"/><path class="cls-5" d="M1459.27,256.31l-.06.36a7.64,7.64,0,0,1-4.22,1.49c-6.57.6-13.08-.2-19.59-.77a12.16,12.16,0,0,1-1.8-.34c-1.31-.31-2.3-1.07-2.2-2.5s1.45-1.29,2.45-1.56a22,22,0,0,1,7.28-.27C1447.31,253.19,1453.61,253.15,1459.27,256.31Z"/><path class="cls-5" d="M1306.29,211.94c-14.31-1.38-35.49-17-36.91-32.59,4.08.72,8.17.39,12.23.67a94,94,0,0,0,28.61-8.21c1-.45,1.88-1,2.82-1.45l.63.75c-6.45,5.55-8.36,13-8.83,21-.09,1.58.59,3.37-1,4.61a2.48,2.48,0,0,1,1,2C1304.8,203.2,1305.72,207.53,1306.29,211.94Z"/><path class="cls-5" d="M1327.51,141.52a49.82,49.82,0,0,1,16.26,20.41c-9-.6-16.93,1.89-24.45,5.74l-1-1C1326,160.35,1328,151.87,1327.51,141.52Z"/><path class="cls-5" d="M1226.78,137.13l-.21,0C1226.53,137.1,1226.63,137.09,1226.78,137.13Z"/><path class="cls-5" d="M1226.78,137.13l-.21,0C1226.53,137.1,1226.63,137.09,1226.78,137.13Z"/><path class="cls-5" d="M1319.32,167.67l-5.65,3.44-.63-.75,5.33-3.72Z"/><path class="cls-8" d="M1305.32,216.75c.94-.48,1.77-2.69,2.9-.18C1307.25,216.66,1306.31,217.18,1305.32,216.75Z"/><path class="cls-8" d="M1459.27,256.31l.6.28-.66.08Z"/><path class="cls-6" d="M1151,36.91c-7.62,1.91-14.52,5.43-21.23,9.38a3.39,3.39,0,0,1-1.3.19c6.94-6.12,14.26-11.67,23-15.07-.9,2.2-3.55,2.56-4.9,4.53,1.37.49,2.42-.52,3.57-.37Z"/><path class="cls-6" d="M1152.12,151.78a2.08,2.08,0,0,1,2,1c5,7.06,11.24,13,16.65,19.75,5.91,7.34,13.44,13.08,21.21,18.37,8.79,6,17.86,11.49,28.18,14.62,6.09,1.86,12.09,3.32,18.57,2.39,7-1,11.49-5.55,11.79-12,.08-1.73-.22-3.84,1.86-4.91,1.59,2.29,1.69,4.94,1.7,7.55,0,6.63-.06,13.26-.13,19.89a15,15,0,0,1-.31,2.3c-1.55,9.3-5.55,12.35-13.79,12.8-10.89.59-21.62-1.44-31-7.49a176.63,176.63,0,0,1-33.83-28.53,68.56,68.56,0,0,1-9.65-14.1c-3.53-6.49-7.34-12.83-10.2-19.66C1153.48,159.93,1151.81,156.09,1152.12,151.78Z"/><path class="cls-6" d="M1259.57,155.6c2.58-.79,5,.24,7.44.5a89.94,89.94,0,0,0,25-.46,48.35,48.35,0,0,0,21.87-9.21c2.6-2,4.94-4.73,8.61-4.93,1.44,9.86-2.35,16.78-12.47,22.17-10,5.31-20.57,8.73-31.83,9.22-4.62.21-9.06-.78-13.5-1.67a3.79,3.79,0,0,1-3.32-3.78C1261,163.46,1260.19,159.54,1259.57,155.6Z"/><path class="cls-6" d="M1159.74,113.19a61.45,61.45,0,0,1,15.82-5.43,89.63,89.63,0,0,1,22-1.72c3.06.15,5.56,2,8.6,2.24,1.31.1,2.07,1.77,2.45,3.21.76,2.88,1.42,5.8,2.36,8.62.7,2.1.29,3.42-1.91,3.85-14.57,2.79-29.14,5.45-43.5-1-2-.91-4.13-1.54-6.13-2.43-1.2-.53-3.17-.6-3-2.4A5.79,5.79,0,0,1,1159.74,113.19Z"/><path class="cls-6" d="M1366,195.4a5.38,5.38,0,0,1,2.83,1.68,219,219,0,0,0,44.45,35.48,3.77,3.77,0,0,0,3.89,0,76.06,76.06,0,0,1,6.46,14.33c.43,1.39,1.94,3.43,0,4.21s-3.89,3.5-6.87,1.55c-4.69-3.07-9.34-6.14-12.55-10.94a17.14,17.14,0,0,0-1.14-1.55c-.69-.81-.7-1.89-2-1-1.11.78.68,2,.94,3,.41,1.68,3,3.47,2.67,5.46-2.61-1-8.72-3.6-11.28-5.46,1.18-.94,1.85-.37,1.09-1.32-3.27-4.12-6.22-8.46-9.65-12.49a97.1,97.1,0,0,1-12.57-18c-1.68-3.24-4-6.19-5.25-9.64C1366.28,199.05,1364.76,197.41,1366,195.4Z"/><path class="cls-6" d="M1118.84,76.56c.46.39,1.11.67,1.37,1.17,2.77,5.14,7.39,7.53,12.64,9.72,12.92,5.39,25.52,11.57,38.88,15.92a4.9,4.9,0,0,1,2.17,1.61c-.84,1.06-2.16,1.08-3.29,1.46-6,2-11.47,4.93-15.64,9.88-1.48,1.75-3,2-5.22.9a62.18,62.18,0,0,1-24.89-22.33c-3-4.75-4.82-10.18-6.23-15.66A3.29,3.29,0,0,1,1118.84,76.56Z"/><path class="cls-6" d="M1368,275.29c4.49.32,10.84,3.15,14.67,5.31-3.67,4.9-9.42,7.8-12.9,12.91-.75,1.12-4.23-.17-5.27-.66a77.59,77.59,0,0,1-22.13-15.16A84.13,84.13,0,0,1,1330,261.88c-4.16-6.83-9.54-18.33-11.53-26.35,2.19,1.91,50.22,41.4,49.88,40.6Z"/><path class="cls-6" d="M1304.47,197.28a2.83,2.83,0,0,1,1,2.2c.16,4.83,1.25,9.57,2,14.38-15.41-1.81-38.5-19.29-40.37-36.29,4.41.86,8.79.61,13.17,1A80.67,80.67,0,0,0,1304.47,197.28Z"/><path class="cls-6" d="M1382.47,280.28c-.17.11,11.15,3.38,11.77,3.51,2.51.55,5,1.33,7.49,1.83a39.86,39.86,0,0,0,11.26.88c2.63-.22,7.4-2.63,9.16.45-4,4.73-9.35,7.13-15,9.13-11,3.95-22.14,5.47-33.49,1.28-2.33-.86-9.86-.17-8.24-2.08.29-.34.62-5.76,1-6C1371.66,286.05,1377.32,283.57,1382.47,280.28Z"/><path class="cls-6" d="M1237,71.22c2.67-.47,3.81.91,4.19,3.37a46.29,46.29,0,0,1-3.19,26.18,50.16,50.16,0,0,1-8.63,14c-1.62,1.78-2.83,1.73-4.53.56-3.35-2.28-6.63-4.66-10.51-6a3.16,3.16,0,0,1-2.39-3.27c.06-2-.79-4.19.2-6.06,1.56.59,3.33-.08,4.71-1,6.75-4.62,12.78-10.22,19.29-15.17a11.56,11.56,0,0,0,2.11-1.9c1.21-1.56,1-3.73.63-5.54C1238.81,75.92,1237.39,71.15,1237,71.22Z"/><path class="cls-6" d="M1426.3,240.63c1.48-.45,2.63.52,3.9.93a143,143,0,0,0,39.69,6.72c2.31.07,4.41-.92,6.67-.57-.49,1.87-2,3-3.3,4.23-2.5,2.41-4.89,3.44-8.87,1.68a60.18,60.18,0,0,0-32.58-4.72c-1.69.23-3,.26-3.31-1.9S1426.35,243,1426.3,240.63Z"/><path class="cls-6" d="M1223.7,135.19c5.23,2.65,9.42,6.94,14,10.6s10.3,7,16.28,6.57a57.35,57.35,0,0,1,3.94,16.42c.06.64-4.22-2-4.36-2.06q-2.53-1.86-5-3.84A124.38,124.38,0,0,1,1223.37,135Z"/><path class="cls-6" d="M1472.14,255.51a10.77,10.77,0,0,1-6.49,2.08c-10.25.44-19.93,4.14-30.18,2.69-1-.13-5.06-2.72-6-3-2.08-.61-1.1-5.11-1-7.42s2.16-2,3.7-2.34c3.72-.86,7.6-.33,11.38.15,9.72,1.23,19.59,1.68,28.71,7.25Z"/><path class="cls-6" d="M1213.13,110.44c4.43,1.45,7.39,4.12,10.73,6.11,2,1.19,1.56,2.92-.3,3.79a23.63,23.63,0,0,1-5.36,1.33c-1.48.31-2.28-.41-2.65-1.85C1214.78,116.86,1213.21,114.11,1213.13,110.44Z"/><path class="cls-6" d="M1318.14,168c.31.35.63.69.94,1l-5.64,3.45-.63-.75Z"/><path class="cls-6" d="M1459,257.7l.6.28-.66.09Z"/><path class="cls-7" d="M1486.71,207.78a68.73,68.73,0,0,0-18-27.33c-13.2-12.54-27.93-23.26-42.29-34.4a16.46,16.46,0,0,0-7.66-2.86,44.78,44.78,0,0,0-26.88,3.48c-10.16,4.81-19.31,11.2-26.65,19.82-1.59,1.87-2.77,1.85-4.64.89a52.44,52.44,0,0,0-6.73-2.89c-1.68-.57-2.52-1.29-2.39-3.22a13.42,13.42,0,0,0-1.82-7c-4.85-9.17-11.42-16.6-21.32-20.51-1.36-.53-2.37-1.05-2.87-2.58-3.31-10.13-9.73-18.34-16.72-26.06a118,118,0,0,0-60.44-36.18,7.56,7.56,0,0,1-5.73-4.39C1234,47.25,1220.7,35.36,1202,29.8A143.23,143.23,0,0,0,1181.51,25c-8.77-1.25-16.46.07-24.76,2.81-.55.18-1.1.36-1.64.57a14.23,14.23,0,0,0-1.5.66c-2.1,1.13-4.49,3.07-5.2,5.44,2.22.58,4.57-.24,6.63-1.27,10.17-5.09,21-4.66,32-2.46,10.41,2.09,20.68,5.52,29.58,11.31s16.37,14.12,20,24.12c-6.4-1.06-12.14,3.81-16.48,8.62-6.44,7.13-12.36,15.43-13.37,25a5,5,0,0,1-.86,2.91c-1.16,1.35-3.29,1-5,.55A52.34,52.34,0,0,0,1155,114.55a6.58,6.58,0,0,1-2.37,1.55c-1.53.45-3.13-.32-4.52-1.12a67.45,67.45,0,0,1-18.85-15.81c-7.91-9.75-13.68-23.13-8.63-35.47,4.17-10.17,13.78-17.72,23.86-21.51,14.22-5.35,30.18-2.73,44.74,1.62,4.17,1.24,8.39,2.64,12.75,2.67a15.84,15.84,0,0,0-4.47-3,84.18,84.18,0,0,0-33.5-8.67c-5.81-.27-11.13,0-16.65,1.82-15.41,5.06-38.6,18.14-35.16,37.91,1.93,11.08,6.35,21.32,14.22,29.78,6.19,6.65,12.88,12.58,21.12,16.59,1.34.65,2.85,1.16,2.22,3.31-1.75,5.93-1.47,12.1-2,18.18a47.56,47.56,0,0,0,4.19,23.65c3.16,7.13,7,13.91,10.84,20.69,11.14,19.67,26.45,34.94,47.14,44.53a64,64,0,0,0,27.49,6.22c10.77-.05,18.5-5.73,20.63-15.38a68.49,68.49,0,0,0,.14-30.45c-.86-3.7-.51-6.53,2-9.21.23-.29.48-.85.68-.83.67.06.71.64.63,1.2,2.15,6.56,5,12.74,9.94,17.7,7.11,7.08,15.25,12.47,25,15.34,2.93.87,5.84,1.52,8.9.88.94-.48,1.77-2.69,2.9-.18,1.52,3.17,3,6.38,4.58,9.5a17.27,17.27,0,0,1,2.07,8.78,26.39,26.39,0,0,0,2.19,11.18c4.7,11,10.39,21.45,18.36,30.51a130.4,130.4,0,0,0,15.42,14.39c3.81,3.13,7.42,6.61,11.83,8.9a8.58,8.58,0,0,0,6.76,1.1c2.85-.52,5.85.59,8.57,1.31,14.37,3.84,31.18.43,43.43-7.94,8.37-5.72,12.34-14.81,12.07-24.8,0-2-1.55-4.58.29-6,1.5-1.18,3.81.16,5.76.37a68.86,68.86,0,0,0,33.18-4.56,12.38,12.38,0,0,0,2.53-1.31,13.91,13.91,0,0,0,2.81-3c6.39-8.25,10.49-16.66,10.49-27.33.16-1.21.23-2.44.33-3.66A38.67,38.67,0,0,0,1486.71,207.78ZM1213.17,98.55c.94-4.32,3.17-8.51,5-12.38,2.75-5.66,6.35-10.9,11.51-14.63a6.42,6.42,0,0,1,2.68-1.29c2.75-.43,7.37,1.66,7.83,4.6a43.37,43.37,0,0,1-3,24.53,47,47,0,0,1-7.84,12.86,5.08,5.08,0,0,1-1.56,1.29c-1.27.59-2.53-.28-3.56-1a51.66,51.66,0,0,0-7.6-4.38c-2.34-1-3.72-1.78-3.93-4.42A17.74,17.74,0,0,1,1213.17,98.55Zm9.27,21.39a17.35,17.35,0,0,1-4,1c-1.1.23-1.69-.3-2-1.37-.56-2.19-1.73-4.23-1.79-7,3.28,1.08,5.47,3.06,8,4.53C1224.14,118,1223.82,119.29,1222.44,119.94Zm-62.51-6.89a59.85,59.85,0,0,1,15.35-5.27,87.2,87.2,0,0,1,21.33-1.66c3,.14,5.39,1.95,8.34,2.17,1.28.1,2,1.72,2.37,3.11.74,2.8,1.38,5.63,2.3,8.37.68,2,.28,3.32-1.86,3.73-14.13,2.7-28.26,5.29-42.2-1-1.94-.87-4-1.48-5.94-2.34-1.16-.52-3.07-.59-2.91-2.34A5.61,5.61,0,0,1,1159.93,113.05Zm96.32,64.32a9.64,9.64,0,0,1-1.37,2.87,13.09,13.09,0,0,0-2.93,10.22c1.57,2.27,1.67,4.89,1.68,7.47,0,6.55-.06,13.11-.13,19.66a14.71,14.71,0,0,1-.3,2.27c-1.53,9.18-5.48,12.2-13.62,12.64-10.77.59-21.38-1.42-30.68-7.4a171.45,171.45,0,0,1-27.8-22.38c-8.56-8.45-15.18-18.76-20.69-29.49a79.07,79.07,0,0,1-7.91-22.72c-1.28-7.65,0-15.6,1-23.24.36-3,.63-3,3.52-2,3.15,1.16,6.27,2.4,9.41,3.58a53.38,53.38,0,0,0,27,2.58c5.43-.82,10.82-1.94,16.17-3.17,2.28-.52,3.45-.2,4.63,2.07,9,17.41,21.56,31.68,38.18,42.25.9.58,1.79,1.18,2.72,1.69A2.25,2.25,0,0,1,1256.25,177.37Zm-3.82-13.17q-4.22-3.1-8.12-6.61c-3.64-3.24-29.28-30.16-23-33.11,7.13-3.34,7.05-3.33,13.05,1.9a78.71,78.71,0,0,1,19.13,25.26,48.23,48.23,0,0,1,3.08,14.46A7.18,7.18,0,0,1,1252.43,164.2Zm9.69,2.63c-2-17-12.09-32.69-24.7-43.93-1.14-1-2.33-2-3.44-3-2.37-2.26-2.4-2.34-.08-4.7,10.07-10.25,13.82-22.76,13.22-36.84,0-1-.52-2.09,0-3.13.67-.69,1.44-.37,2.13-.15,20.92,6.69,39.34,17.33,54.06,33.94a137.51,137.51,0,0,1,10.61,13.21c4.23,6.19,6.85,12.88,6.6,20.51,1.6,9.69-1.91,16.38-11.57,21.45a68.54,68.54,0,0,1-30.51,8.36c-4.44.1-8.76-1-13.06-1.93A3.89,3.89,0,0,1,1262.12,166.83Zm44,16.53c-1,3.83-1.29,7.87-1.8,11.79-.2,1.58.71,16.66,1.94,16.79-14.31-1.38-35.49-17-36.91-32.59,4.08.71,8.17.39,12.23.67a94.19,94.19,0,0,0,28.61-8.21c1-.46,1.88-1,2.82-1.45l5.33-3.72c7.66-6.29,9.68-14.78,9.14-25.12a49.85,49.85,0,0,1,16.26,20.4c-9-.59-16.93,1.9-24.45,5.75l-5.65,3.44A24.4,24.4,0,0,0,1306.15,183.36Zm116.23,102.2c-4,4.72-9.35,7.12-15,9.13-6.72,2.4-15,4.82-22.12,3.57a82.73,82.73,0,0,1-30-11.43,71.65,71.65,0,0,1-12.22-9.73,84.57,84.57,0,0,1-12.36-15.8c-4.16-6.83-8.46-13.65-10.45-21.67a59.18,59.18,0,0,1,5.88,6.32c6.3,7.39,14,13.07,21.73,18.72,5.54,4,11.2,7.91,16.81,11.84A13.44,13.44,0,0,0,1367,278c.25.11.52.24.79.34a8.89,8.89,0,0,1,2-1.79,7.33,7.33,0,0,1-.66-1c-.12-.28-.24-.56-.35-.84-5.48-3.64-10.55-7.81-15.72-11.86-8.47-6.64-16.64-13.56-23.75-21.74-6.65-7.64-10.77-16.6-14.74-25.71-3.78-8.66-4.09-17.76-3.17-27,.78-7.85,5.15-13,12.06-16.6,11.66-6,23.14-5.72,34.74,0,2.06,1,3,2.08,2.36,4.59-2.75,11,.46,21.17,5.14,31,6.38,13.27,17.39,24.62,27.6,35,.56.57,1.48,1.17,2.09.65s.17-1.51-.31-2.15c-6.18-8.45-13.23-16.25-19.1-24.92-7.21-10.64-13.3-23.85-11-37,.52-3,.82-3.05,3.54-1.35a110.72,110.72,0,0,1,25.32,21.87c7.21,8.43,12.65,18.26,18.55,27.63,1.21,1.93,2.51,3.85,3.79,5.79,2.93,4.43,5.77,9,7.29,14a4.49,4.49,0,0,1,.23,2.53c-.65,2.24-5.46,3.54-7.3,2.36-5.3-3.42-9.41-7.89-13.77-12.39-.44-.45-1-.94-1.61-.81-1,.21-1,1.58-.65,2.51,2,6.14,8.68,11.24,13.48,15.23a16.16,16.16,0,0,0,6.14,3.4c2.24.56,4.91.11,6.71,1.84a2.16,2.16,0,0,1,.67,1.15C1428.43,270.93,1428.63,279,1422.38,285.56ZM1480,240c-3.1,9.46-12,14.84-21.23,17-7.25,1.74-16.89,2.06-24.15.23a3.86,3.86,0,0,1-1.9-.9,4.35,4.35,0,0,1-.78-1.36c-1.73-4.15-2.86-8.52-4.59-12.63a69.91,69.91,0,0,0-5-9.44q-5-8.16-10.34-16.13c-5.13-7.71-10.09-16.24-16.51-22.94a144.15,144.15,0,0,0-24-20.44c-3.73-2.48-4-3.06-.76-6.11,8.4-7.87,17.28-15,28.67-18.31a45.52,45.52,0,0,1,17.72-1.22,14,14,0,0,1,7.82,3.48c4.16,3.61,8.43,7.07,12.53,10.74,6.73,6,14.47,10.75,21.24,16.72,8.59,7.57,15.84,16.12,20.64,26.6C1484.24,216.16,1483.64,228.88,1480,240Z"/><path class="cls-5" d="M1023.05,48.17a21.74,21.74,0,0,1-7.43,12.34C1008,67.22,998.58,69.85,989,72c-7.5,1.65-15.17,1.08-23.11,1,.88-1.46,2.23-1.29,3.21-1.53a133.56,133.56,0,0,0,20.68-7.29c1.52-.65,3.05-1.36,3.68-3-.66-1.44-1.57-.9-2.4-.63-3.92,1.27-7.77,2.72-11.79,3.64a7.76,7.76,0,0,1-4,.26,66.66,66.66,0,0,1-28.65,4,99.28,99.28,0,0,1-34.84-8.94,41.18,41.18,0,0,1-8.34-5.58c-3.09-2.49-3.69-6.13-5.18-9.38-.1-.89-.79-1.4-1.31-2,11.47-12.81,23.73-24.62,39.84-31.59A62.92,62.92,0,0,1,954,6.25c11.43-1.42,22.85-1.35,34.14,1.28a21.62,21.62,0,0,1,9.11,4.09,58.14,58.14,0,0,1,20,15.55C1022.17,33.16,1024.46,40.38,1023.05,48.17Z"/><path class="cls-6" d="M976.25,65.41c2.18-3.64,6.3-4.58,9.54-6.72,5.5-3.65,10.83-7.37,14.61-12.95,4.08-6,5.12-12.67,4.34-19.68-.32-2.92-2.1-5.36-3.61-7.85-1.09-1.79-2.86-3.25-2.92-5.59a58.14,58.14,0,0,1,20,15.56c4.91,6,7.2,13.21,5.79,21a21.8,21.8,0,0,1-7.44,12.34c-7.6,6.71-17,9.34-26.59,11.44-7.49,1.64-15.16,1.07-23.1,1,.88-1.46,2.23-1.29,3.21-1.53a132.48,132.48,0,0,0,20.68-7.28c1.52-.65,3.05-1.36,3.68-3-.66-1.44-1.57-.9-2.4-.64-3.92,1.26-7.77,2.72-11.8,3.64A7.62,7.62,0,0,1,976.25,65.41Z"/><path class="cls-7" d="M894.32,41.31c10.22-17,25-28.59,43-36.2A68.07,68.07,0,0,1,954.69.92a98,98,0,0,1,31.92.84c13.91,2.72,24.79,10.79,34.24,20.87,3.9,4.17,6.13,9.49,7.53,15,2.47,9.82-.77,18.05-7.53,25.12a41.16,41.16,0,0,1-15.69,10,83.48,83.48,0,0,1-28.64,5.5c-6.71,0-13.61.74-20.06-1.17-12.16-3.59-24.81-5.1-36.85-9.07a62.73,62.73,0,0,1-11.38-4.78,27.83,27.83,0,0,1-10.39-9.44c-.7-2.64-2.13-5.09-2.12-7.92.64-.84,1.32-1.6,2.52-1.46,1.49,3.26,2.09,6.9,5.18,9.39a41.6,41.6,0,0,0,8.34,5.58A99.66,99.66,0,0,0,946.6,68.4a66.51,66.51,0,0,0,28.65-4,7.62,7.62,0,0,0,4-.26c4-.92,7.88-2.38,11.8-3.64.83-.26,1.74-.8,2.4.64-.63,1.61-2.16,2.32-3.68,3a132.48,132.48,0,0,1-20.68,7.28c-1,.24-2.33.07-3.21,1.53,7.94.1,15.61.67,23.1-1,9.56-2.1,19-4.73,26.59-11.44a21.8,21.8,0,0,0,7.44-12.34c1.41-7.79-.88-15-5.79-21a58.14,58.14,0,0,0-20-15.56,21.48,21.48,0,0,0-9.11-4.08C976.81,4.9,965.39,4.83,954,6.26a62.56,62.56,0,0,0-17.19,4.63c-16.11,7-28.37,18.78-39.84,31.59C895.67,43,894.48,43.28,894.32,41.31Z"/><path class="cls-5" d="M1073.93,376.49a30.7,30.7,0,0,1-8.53,8.77c-10.27,7-21.11,12.8-33.3,15.56-8.44,1.91-17,3.56-25.69,1.24-7.65,1.07-14.14-1.82-20.2-6-4-2.75-4.89-5.86-3-10.32a20.73,20.73,0,0,1,7.67-9.46c5-3.2,9.93-6.49,15.15-9.36,10.25-5.62,21.42-6.65,32.74-6.9,3.58-.08,7.32-.89,10.77.93,7.84-.53,15.08,1.57,21.85,5.3C1076.07,368.79,1076.81,372.06,1073.93,376.49Z"/><path class="cls-6" d="M1001.47,404.1a1.93,1.93,0,0,1,2.08-1.67c8.3-.4,16-2.8,23.65-5.76a61.22,61.22,0,0,0,21.74-14.2c6.74-6.85,6.62-11.81,1.21-17.65-1-1-2.87-5.18-2.68-6.54,8.61-.54,17.94,4.72,25.38,8.6,5.1,2.66,5.91,6.06,2.75,10.66a32.79,32.79,0,0,1-9.36,9.11c-11.28,7.26-23.18,13.3-36.56,16.16C1020.4,404.8,1011,406.52,1001.47,404.1Z"/><path class="cls-7" d="M1016,407.88c-9.74,0-19.22-1.2-27.84-6.23-1-.62-2.14-1.18-3.17-1.83-8.09-5.06-8.08-13-3.36-18.92,10.58-13.25,23.9-22.64,41.07-25.41a109.72,109.72,0,0,1,38.29.95,41.08,41.08,0,0,1,14,5.57c7.28,4.56,8.63,11.42,3.67,18.36a40.14,40.14,0,0,1-10.93,10.28c-10.69,7-22,12.54-34.45,15.56A63.53,63.53,0,0,1,1016,407.88Zm-9.69-4.86c12.82,1.18,25.77-1.26,37.66-6.07,11-4.42,25.56-11.15,30.87-22.4a6.3,6.3,0,0,0,.79-3.77c-.34-1.75-1.9-3-3.43-3.9a41.49,41.49,0,0,0-8.85-3.79,79.63,79.63,0,0,0-73.88,14.58,23.74,23.74,0,0,0-5.38,5.85,10,10,0,0,0-1.34,7.66c.79,2.85,3.16,5,5.67,6.56,4.87,3,10.59,4.45,16.28,5.11Z"/><path class="cls-3" d="M466.39,325.16a3.14,3.14,0,0,1,1.68-1c2.29-.63,5.24,1.85,7.07,2.85a192.82,192.82,0,0,0,19,9.09,308.1,308.1,0,0,0,40.54,13.24,322.88,322.88,0,0,0,50.86,9.13c48.3,4.63,97.23,2.47,145.18-4.77,14.67-2.22,29.2-4.83,43.69-8.09,22.92-5.2,45.39-12.39,67.48-20.38.94-.34,6.29-1.54,6.29-2.83.46-1.4-2.51-1.26-3.51-1.35a101.76,101.76,0,0,1-16.43-2.85c-2.15-.56-4.94-1.63-4.52-4.37.31-2,1.92-2.86,5.2-2.51s6.23,1,9.36,1.31c10.38,1.12,20.74,3,31.22.79a6.55,6.55,0,0,1,3.93.31c5.31,2.25,1.58,7.73.46,11.51-2.32,7.91-4,15.86-7.37,23.38a96.67,96.67,0,0,1-5.91,11.1c-2,3.15-4.14,7.5-7,9.93a2,2,0,0,1-1.69.51c-2.43-.55-1.09-4.1-.46-5.47,1.59-2.39,2.55-5.56,3.74-8.17s2.6-5.41,3.73-8.18a99.81,99.81,0,0,0,3.23-9.53c.82-2.86,2.21-6.16,2.48-9.11.24-2.69-1.67-2.33-3.43-1.56a445.31,445.31,0,0,1-48.84,17.43c-46,13.93-93.22,21.47-141.16,23.79-16.46.79-32.86.8-49.33.29-45.87-1.44-91.37-9-133.24-28.41-3.34-1.56-6.52-3.32-9.79-5-3.74-1.92-9.63-4.92-12.25-8.29A2.13,2.13,0,0,1,466.39,325.16Z"/><path class="cls-4" d="M1114.42,324.33c-14.88-.35-30.22-4.74-43.77-8.47-8.62-2.37-16-6.48-21.06-14.16-12.27-18.77-.77-41.16,16.45-52a39.18,39.18,0,0,1,17.31-5.42c4.89-.45,9.26,1.4,13.35,3.91a7.5,7.5,0,0,1,2.92,3.27c1.2,2.67,3.2,3.52,6,3.72a117.39,117.39,0,0,1,22.59,4.12c12.32,3.36,24,11.6,27.32,24.48,3.09,12.09-2,27.13-12.57,34C1134.77,323.16,1124,324.56,1114.42,324.33Zm-3.55-7c3.71-.17,7.42-.06,11.15-.42a60.11,60.11,0,0,0,14-3.24,18.32,18.32,0,0,0,7-4.22,27.47,27.47,0,0,0,8.13-15.95c.5-3.25,1-6.58.1-9.88-.56-2-.81-4.17-2.14-5.76a43.64,43.64,0,0,0-6.72-6.59c-5.29-4.1-11.56-5.68-17.91-7.06-3.34-.73-6.75-1-10.15-1.45-4.85-.59-9.69-1.23-14.57-1.49-2.85-.15-5.71,0-8.56-.05a24.71,24.71,0,0,0-7.55,1,59,59,0,0,1-6.6,1.38c-1,.16-2.07.12-2.42-1.13-.29-1.05.47-1.72,1.24-2.12,3.15-1.6,6.16-3.51,9.65-4.36a39.26,39.26,0,0,1,11.06-1.23c.47,0,1,.07,1.23-.53a1.06,1.06,0,0,0-.62-1.21c-1.71-1-3.45-1.88-5.2-2.78-3.88-2-8.1-1.91-12.08-1a37.11,37.11,0,0,0-13.15,6.45,44.15,44.15,0,0,0-8.53,8.47c-3.35,4.2-6,8.67-7.06,14-.38,1.88.07,3.78-.46,5.56-.83,2.73,0,5.23.79,7.72,1.69,5.51,5.14,9.88,9.31,13.72a19.7,19.7,0,0,0,10.62,5.21,130.54,130.54,0,0,1,15.48,3.35C1094.7,315.94,1102.58,318,1110.87,317.31Z"/><path class="cls-3" d="M1110.87,317.31c-8.29.73-16.17-1.37-24-3.61a130.54,130.54,0,0,0-15.48-3.35,19.7,19.7,0,0,1-10.62-5.21c-4.17-3.84-7.62-8.21-9.31-13.72-.76-2.49-1.62-5-.79-7.72.53-1.78.08-3.68.46-5.56,1.07-5.35,3.71-9.82,7.06-14a44.15,44.15,0,0,1,8.53-8.47,37.11,37.11,0,0,1,13.15-6.45c4-.92,8.2-1,12.08,1,1.75.9,3.49,1.81,5.2,2.78a1.06,1.06,0,0,1,.62,1.21c-.18.6-.76.55-1.23.53a39.26,39.26,0,0,0-11.06,1.23c-3.49.85-6.5,2.76-9.65,4.36-.77.4-1.53,1.07-1.24,2.12.35,1.25,1.46,1.29,2.42,1.13a59,59,0,0,0,6.6-1.38,24.71,24.71,0,0,1,7.55-1c2.85.07,5.71-.1,8.56.05,4.88.26,9.72.9,14.57,1.49,3.4.42,6.81.72,10.15,1.45,6.35,1.38,12.62,3,17.91,7.06a43.64,43.64,0,0,1,6.72,6.59c1.33,1.59,1.58,3.78,2.14,5.76.92,3.3.4,6.63-.1,9.88a27.47,27.47,0,0,1-8.13,15.95,18.32,18.32,0,0,1-7,4.22,60.11,60.11,0,0,1-14,3.24C1118.29,317.25,1114.58,317.14,1110.87,317.31Z"/><path class="cls-7" d="M1292.52,544.5c.11-1.5-.92-2-1.68-2.53-9-6.69-17.66-13.8-27.9-18.59-1.39-.65-3.36-1.35-2.53-3.39.76-1.86,2.72-1.33,4.26-1,4.78,1,9,3.24,13.08,5.81,11.08,7,21.34,15.13,31.56,23.31a14.92,14.92,0,0,1,1.56,1.52c2.72,2.9,2.84,5,0,7.91-2.67,2.66-5.6,5.07-8.51,7.47-4.4,3.62-9.36,6.39-14.25,9.27-4.11,2.42-8.68,3.22-13.24,4.17-1.51.32-3.12.37-3.77-1.24s.63-2.7,1.88-3.53c6.4-4.28,12.8-8.56,19.25-12.78a92.18,92.18,0,0,0,8.71-6.23c-1.94-1.39-3.72-.95-5.33-1-32.86-.91-192.73-.95-225.6-.58-31.56.36-63.12.63-94.67,1-22.54.25-45.09.47-67.63.85-29.08.5-58.16,1-87.23,1.77q-42.09,1.08-84.19,1.72-48.19.76-96.4,1.74c-28.93.54-57.87,1-86.8,1.72-32.85.78-65.7,1.73-98.56,2.64-18.75.52-37.5,1-56.25,1.69-33.71,1.15-67.43,2.25-101.14,3.61-37.19,1.5-74.35,3.8-111.56,5-15.84.5-31.7.58-47.54,1.09-26.89.87-53.77,2-80.65,2.89-13.43.44-26.87.93-40.3.11a36.89,36.89,0,0,1-7.54-1.18c-1.17-.33-2.24-.93-2-2.49.28-1.93,2.23-1.46,3.61-1.44,10.48.15,20.93-.41,31.39-1,22-1.35,44.11-2.76,66.18-4,11.76-.64,23.53-1,35.31-1.33q56.25-1.54,112.43-5c27.58-1.67,55.17-3,82.79-3.85,25.14-.76,50.28-1.73,75.42-2.57,26.89-.9,53.78-1.72,80.67-2.63,23-.79,45.93-1.3,68.9-1.78q55-1.15,109.93-1.75,27.93-.33,55.84-.86c26.61-.52,53.21-1.06,79.82-1.78,32.13-.88,64.26-1.59,96.4-1.74,74.32-.34,275.64-1,350-.85,10.76,0,21.52.22,32.28.3C1289.81,544.87,1291.27,545.22,1292.52,544.5Z"/><path class="cls-7" d="M1257.52,618.32c0-.94.07-1.87.16-2.81.15-1.56.84-4-.77-5-3-2-13.58,7-15.38,3.62a1.8,1.8,0,0,1,.41-2,8.15,8.15,0,0,1,2.77-2.09,33.81,33.81,0,0,1,9.66-3.93c4.62-.9,3.91-5.49,4.56-9.06a17.63,17.63,0,0,1,.9-3.35,2.72,2.72,0,0,1,3.1-1.88,2.6,2.6,0,0,1,2.06,2.52,30,30,0,0,1,0,3.91c-.19,5.49-.21,5.45,5,4.83a53.6,53.6,0,0,1,6.08-.32c.94,0,2.31-.18,2.35,1.25,0,1-1.11,1.21-2,1.38-2.84.6-5.7,1.13-8.54,1.73-3.48.73-3.51.76-3.62,4.22a74.16,74.16,0,0,0,.54,13.49,16.87,16.87,0,0,0,.73,3.4c1,2.68,2.32,3.35,5.07,2.45,3.88-1.27,7.38-3.37,11-5.27,2.31-1.22,4.6-2.48,7-3.56,1.12-.51,2.74-1.43,3.54,0s-.58,2.63-1.77,3.5-2.62,1.84-3.91,2.77c-2.94,2.13-5.87,4.27-8.82,6.39-1.06.76-2.13,1.52-3.26,2.17-4.24,2.44-9.54,2.9-13-1.11-3-3.52-3.76-8.52-3.92-13C1257.52,621.15,1257.49,619.74,1257.52,618.32Z"/></g></g></svg>