<svg xmlns="http://www.w3.org/2000/svg" viewBox="0 0 315.92 630.31"><defs><style>.cls-1{fill:#023d53;}.cls-2{fill:#fefefe;}.cls-3{fill:#00b3ea;}.cls-4{fill:#56ab2f;}.cls-5{fill:#feb326;}.cls-6{fill:#ff8500;}.cls-7{fill:#e14c89;}.cls-8{fill:#e84d8a;}.cls-9{fill:#032c3b;}.cls-10{fill:#fff;}</style></defs><title>slide_6</title><g id="Layer_2" data-name="Layer 2"><g id="Layer_1-2" data-name="Layer 1"><path class="cls-1" d="M4.4,315.81q0-132,0-263.93C4.41,28.23,20,8.74,42.92,3.56A53.51,53.51,0,0,1,54.83,2.35q103.22,0,206.44,0C287,2.4,307,19.42,311,44.67a50.4,50.4,0,0,1,.45,8q0,86,0,172,0,177,0,353.9c0,14.42-4.66,26.78-14.94,36.87a47.44,47.44,0,0,1-31.85,13.69c-3,.15-6,.11-9,.11q-100.72,0-201.45,0c-19.51,0-34.17-8.66-43.93-25.48-4.36-7.51-6-15.73-6-24.43q.09-103.47,0-206.94ZM23.33,99.61V578.89c0,1.5,0,3,0,4.49A26.45,26.45,0,0,0,30.58,601c6,6.52,13.46,9.27,22.31,9.26q105-.12,209.93,0c1,0,2,0,3,0a28.21,28.21,0,0,0,25.71-20.28c1-3.6,1-7.23,1-10.89q0-205.18,0-410.37,0-33,0-66c0-4.39,0-4.43-4.27-4.48-46.66-.5-93.31.26-140,1.22C106.86,100.26,65.4,100.21,23.33,99.61Zm.05-31.2c0,7.5,0,15,0,22.49,0,2,.45,3,2.87,2.63a47.71,47.71,0,0,1,7.48-.3c28.14-.12,56.29.51,84.43-.94,13.3-.69,26.64-.59,40-.8,29.82-.48,59.64-1,89.46-.22,1.83,0,3.66.17,5.49.25,11.8.55,23.59,1.15,35.33,2.57,4.1.49,4.21.19,4.22-3.92,0-13.83.12-27.66,0-41.48a28.09,28.09,0,0,0-27-27.44c-8-.23-16,0-24-.09a7.88,7.88,0,0,0-5.38,2.17c-2.89,2.38-4,5.66-4.6,9.16-.88,4.85-4,7.44-8.53,8.72a23.13,23.13,0,0,1-6.42.76q-58.21,0-116.45,0a31.54,31.54,0,0,1-8.4-1c-3.76-1-6.51-3.25-7.5-7.25a43.38,43.38,0,0,0-1.53-5.26c-2-5.1-5.16-7.21-10.65-7.22-6.83,0-13.66-.09-20.49,0-17.89.26-28.89,15.05-28.28,28.2C23.62,55.74,23.38,62.08,23.38,68.41Z"/><path class="cls-2" d="M23.33,99.61c42.07.6,83.53.65,125-.2,46.64-1,93.29-1.72,140-1.22,4.23,0,4.27.09,4.27,4.48q0,33,0,66,0,205.19,0,410.37c0,3.66,0,7.29-1,10.89a28.21,28.21,0,0,1-25.71,20.28c-1,0-2,0-3,0q-105,0-209.93,0c-8.85,0-16.33-2.74-22.31-9.26a26.45,26.45,0,0,1-7.23-17.63c-.05-1.49,0-3,0-4.49V99.61ZM245.5,171c-2.65-3.7-4.85-7.11-9.16-9.22a241.85,241.85,0,0,0-51.13-18.38c-18.5-4.34-37.36-4.26-56.17-1.94-18.13,2.23-35,8-50,18.76a8.8,8.8,0,0,1-2.69,1.2c-3.5,1.09-4.11,2.38-2.87,5.92a35.79,35.79,0,0,0,3.79,7c11.87,18.9,23.33,38.06,33.85,57.74C125.35,258.69,140,285,155.46,310.9c2.16,3.61,3.66,3.87,6.13.41s4.77-7.23,6.93-11c15-26.13,30.09-52.23,44.95-78.46,9.27-16.37,19-32.52,26.5-49.8.74-1.68,1.55-1.9,3-1.07A2,2,0,0,0,245.5,171Zm5.62,272.85a100.38,100.38,0,0,0,.69-29.82c-.54-4.72-2.35-9.34-1.29-14.29.39-1.86-2.66-4.63-4.79-4.18-4.58,1-8.92-.52-13.37-.71-8.67-.37-17.32-.14-26,.1-32.33.91-64.61-1.56-96.92-1.08-14.48.21-29-.5-43.4,1.63-2.9.43-4.16,1.59-4.48,4.26s-.69,5.62-1.07,8.42c-1.77,13,1.68,25.47,4.45,38a2.41,2.41,0,0,0,2.13,2.26c1-2.76,3.25-3.15,6.14-3,17.47.61,35,1,52.44,1.49,22.64.61,45.3.8,67.92,2,15,.82,29.94,1.43,44.92,2.1a61.71,61.71,0,0,0,14.92-1c1.52-.3,3.05-.85,3.27-2.61.23-1.94-1.36-2.44-2.84-2.86C253.09,444.28,252.29,444.13,251.12,443.85Zm-91.76,66.3v-.45c-14.16,0-28.32.16-42.47-.06-9.5-.15-19-.34-28.48.13-6.34.31-12.15,1.23-18,4.33C60,519.62,54,529.36,55.13,541.47c1.09,11.95,8,19.7,19.84,22.75,4.12,1,8.27.83,12.41,1,18.8,1,37.6,1.8,56.43,2,28.49.26,57-.69,85.46.58,5.85.27,11.64-.6,17.45-1a12.84,12.84,0,0,0,3.38-.82c1.09-.39,1.75-1.57.8-2.28-2-1.51-.72-2.39.24-3.54,1.39-1.66,2.66-3.42,4.05-5.08,5.43-6.49,6.33-13.92,5.34-22.08-.94-7.67-13.09-21.14-21.29-21.44-2.65-.1-5.32,0-8-.19-17.13-1.22-34.25-2-51.43-1.26C173,510.41,166.19,510.15,159.36,510.15Z"/><path class="cls-3" d="M23.38,68.41c0-6.33.24-12.67-.06-19-.61-13.15,10.39-27.94,28.28-28.2,6.83-.1,13.66,0,20.49,0,5.49,0,8.66,2.12,10.65,7.22a43.38,43.38,0,0,1,1.53,5.26c1,4,3.74,6.22,7.5,7.25a31.54,31.54,0,0,0,8.4,1q58.23,0,116.45,0a23.13,23.13,0,0,0,6.42-.76c4.53-1.28,7.65-3.87,8.53-8.72.64-3.5,1.71-6.78,4.6-9.16a7.88,7.88,0,0,1,5.38-2.17c8,.11,16-.14,24,.09a28.09,28.09,0,0,1,27,27.44c.14,13.82.06,27.65,0,41.48,0,4.11-.12,4.41-4.22,3.92-11.74-1.42-23.53-2-35.33-2.57-1.83-.08-3.66-.2-5.49-.25-29.82-.76-59.64-.26-89.46.22-13.31.21-26.65.11-39.95.8-28.14,1.45-56.29.82-84.43.94a47.71,47.71,0,0,0-7.48.3c-2.42.41-2.88-.58-2.87-2.63C23.41,83.4,23.38,75.91,23.38,68.41Z"/><path class="cls-4" d="M222.14,189a110.51,110.51,0,0,0-32-13.45,147,147,0,0,0-28.94-4.49,158.89,158.89,0,0,0-44.49,4.07c-7.95,1.88-15.45,5-23,8l-3-.09c-2.82-4.9-5.76-9.73-8.41-14.72-1.59-3-1.21-3.58,1.75-4.94,13.48-6.2,27.2-11.59,42-13.74,25.39-3.69,50.55-4.49,75.4,3.73,10.12,3.34,20.19,6.69,29.86,11.17a44.18,44.18,0,0,1,4,2.08c.74.44,1.4,1.27.75,2.06-5.05,6.25-6.9,14.43-12.42,20.38Z"/><path class="cls-4" d="M192.5,204.21c-5.27-1.47-10.53-3-16.06-3.07a1.35,1.35,0,0,0-2-.51c-20-3.27-39.4-.93-58.43,5.53a47.83,47.83,0,0,0-6.8,3.1c-1.68.89-2.73.63-3.69-1-3.26-5.61-6.66-11.14-9.87-16.77-1.58-2.78-1.41-3.23,1.65-4.26A189.66,189.66,0,0,1,129.15,179c8.69-1.31,17.36-3.08,26.2-2.85,23.33.6,45.78,5.09,67,15.7-2.42,6.65-7.14,12-9.85,18.41-1.73.13-3.12-.81-4.66-1.34C202.81,207.18,197.92,204.84,192.5,204.21Z"/><path class="cls-5" d="M133.51,207.11l1.94-.32a1.92,1.92,0,0,0,2.11-.51l3.88-.55a3.2,3.2,0,0,0,3.09-.56l4.92-.42,23.07.13,3.94.27a4.78,4.78,0,0,0,4.07.6l2.95.36a1.71,1.71,0,0,0,2.07.47,30.78,30.78,0,0,0,6.93,1.34c5.89,2.06,12,3.47,17.32,7.05-3.6,7.41-8,14.35-12.26,21.38a12.36,12.36,0,0,1-2.4-.57,84.58,84.58,0,0,0-20.38-6.3c-18.42-3.34-36.32-2.12-53.28,6.58-3.79-6.55-7.77-13-11-19.85,0-.75,0-1.49,0-2.24,3.71-2.22,8.1-2.49,12-4.16a1.88,1.88,0,0,0,2.09-.61l1.91-.38a1.91,1.91,0,0,0,2.1-.58l1.91-.38A3.19,3.19,0,0,0,133.51,207.11Z"/><path class="cls-6" d="M194.65,240c-.16,2.08-1.54,3.6-2.5,5.29-3.82,6.69-7.74,13.34-11.62,20a6.82,6.82,0,0,1-3.32-.92,37.76,37.76,0,0,0-17.94-3.33c-7.52.3-14.86,1.41-21.83,4.36-4.89-8.73-10-17.35-14.24-26.44,3-.85,6.07-1.78,9.14-2.54,12.89-3.17,25.88-4.52,39.12-2.43C179.4,235.28,187,237.71,194.65,240Z"/><path class="cls-7" d="M178.41,269.07c-5.83,11.41-13.16,22-18.9,33.44-.1.21-.53.26-1.21.57-5.87-11.1-11.7-22.27-18.29-33,1.91-2.31,4.77-2,7.28-2.46C157.75,265.83,168.2,265.11,178.41,269.07Z"/><path class="cls-6" d="M198.7,403.17l21.51-.92c1.35,4,.56,8.17.74,12.25A236.26,236.26,0,0,0,223.39,442l-7.89.06a1.49,1.49,0,0,0-2-.06l-17-.82c.45-4.43.8-8.87,1.38-13.28C198.92,419.67,199.86,411.46,198.7,403.17Z"/><path class="cls-4" d="M67.59,419.52c0-5.48.07-11,0-16.43,0-2.49,1.09-3.41,3.33-2.92,5.24,1.15,10.56.88,15.86,1,1.78,0,2.69.64,2.81,2.59.61,10.24,1.4,20.48,2,30.72.23,4.31,0,4.26-4.39,4.46-5.45.25-10.95-.37-16.36.82-2.66.58-3.08-1.27-3.1-3.27-.06-5-.06-10-.09-14.94v-2Z"/><path class="cls-8" d="M224.73,402.28c5.31,0,10.63.12,15.93-.14,2.9-.15,3.67,1,3.93,3.63.82,8.25,1.82,16.48,2.82,24.71.51,4.27,1.19,8.51,1.88,13.41-8.38-.43-16.56-1-24.72-1.9,1.4-9.91,1.19-19.86.8-29.82C225.24,408.87,223.93,405.64,224.73,402.28Z"/><path class="cls-5" d="M144.57,402.12l23,.62q-.09,18.56-.19,37.11c-8,.58-16-.31-24-.58a37,37,0,0,1,.06-4.47,149.69,149.69,0,0,0,.57-30.3A8.53,8.53,0,0,1,144.57,402.12Z"/><path class="cls-6" d="M175.45,441l-4.38-.32a5.08,5.08,0,0,1-.53-3.84c1.6-11.22,1.23-22.48.94-33.75l22.86.1a99.16,99.16,0,0,1-.2,13.35c-.37,8.25-2.29,16.32-2.69,24.56l-12.95,0A2.83,2.83,0,0,0,175.45,441Z"/><path class="cls-4" d="M115.4,439c-5.65,0-11.31,0-17-.1-3.47-.08-4-.89-3.58-4.29,1.2-10.21,2.38-20.45.1-30.66-.46-2.08.28-2.77,2.2-2.75,4.83,0,9.65,0,14.48.11,3.28.09,3.71.54,3.81,3.83.12,4.16,0,8.32,0,12.48,0,3.49.08,7,.12,10.48Z"/><path class="cls-5" d="M120.52,402.08c6.26-.52,12.5,0,18.75.12.69,12.3,0,24.62.24,36.93l-20.11,0c0-2,0-4,0-6a1.62,1.62,0,0,0,.17-2,3.52,3.52,0,0,0,.26-3,15.6,15.6,0,0,0,.58-5.92c1.16-2.6,1-5.31.69-8a8.51,8.51,0,0,0,0-3.92C121.85,407.36,120.93,404.74,120.52,402.08Z"/><path class="cls-3" d="M96,515.1c48.33,1.65,96.69.21,145,1,4.45.08,7.93,1.34,10.82,4.49,4.26,4.64,7.67,9.7,8.45,15.85,1.09,8.53-3.55,15-9.41,20.9-.48.48-1.46.67-1.68,1.19-2,4.67-6,3.46-9.83,3.07a99,99,0,0,0-10.2-.34c-18.45,0-36.89.21-55.34.17-18.63-.05-37.26,0-55.87-.54-14.5-.46-29-.84-43.49-.73-13.52.09-23.94-11.95-21.72-24.39,1.88-10.52,8.54-16.85,19.14-20.09a19.44,19.44,0,0,1,5.83-.59Z"/><path class="cls-1" d="M77.29,174.36c11.87,18.9,23.33,38.06,33.85,57.74C125.35,258.69,140,285,155.46,310.9c2.16,3.61,3.66,3.87,6.13.41s4.77-7.23,6.93-11c15-26.13,30.09-52.23,44.95-78.46,9.27-16.37,19-32.52,26.5-49.8.74-1.68,1.55-1.9,3-1.07a2,2,0,0,0,2.53,0c-2.65-3.7-4.85-7.11-9.16-9.22a241.85,241.85,0,0,0-51.13-18.38c-18.5-4.34-37.36-4.26-56.17-1.94-18.13,2.23-35,8-50,18.76a8.8,8.8,0,0,1-2.69,1.2c-3.5,1.09-4.11,2.38-2.87,5.92A35.79,35.79,0,0,0,77.29,174.36ZM138,266.93c.26,1.14.41,2.36,1.62,3C138.41,269.29,138.26,268.07,138,266.93Zm21.51,35.58c-.1.21-.53.26-1.21.57-5.87-11.1-11.7-22.27-18.29-33h0c1.91-2.31,4.77-2,7.27-2.46,10.47-1.78,20.92-2.5,31.13,1.46C172.58,280.48,165.25,291,159.51,302.51Zm32.64-57.2c-3.82,6.69-7.74,13.34-11.62,20a8,8,0,0,1-.68,2.09,8,8,0,0,0,.68-2.09,6.82,6.82,0,0,1-3.32-.92,37.76,37.76,0,0,0-17.94-3.33c-7.52.3-14.86,1.41-21.83,4.36h0c-4.89-8.73-10-17.35-14.24-26.44a4,4,0,0,1-.57-.37,4,4,0,0,0,.57.37c3-.85,6.07-1.78,9.14-2.54,12.89-3.17,25.88-4.52,39.12-2.43,7.94,1.26,15.54,3.69,23.19,6C194.49,242.1,193.11,243.62,192.15,245.31Zm20.39-35c-.5,1.8-1,3.58-2.74,4.68-3.6,7.41-8,14.35-12.26,21.38a4.44,4.44,0,0,1-1.88,3,4.44,4.44,0,0,0,1.88-3,12.36,12.36,0,0,1-2.4-.57,84.58,84.58,0,0,0-20.38-6.3c-18.42-3.34-36.32-2.12-53.28,6.58-3.79-6.55-7.77-13-11-19.85-.49-.42-1-.85-1-1.27,0,.42.48.85,1,1.27,0-.75,0-1.49,0-2.24,3.71-2.22,8.1-2.49,12-4.16a3.33,3.33,0,0,1,.49-1.23,3.33,3.33,0,0,0-.49,1.23,1.88,1.88,0,0,0,2.09-.61l1.91-.38a3.3,3.3,0,0,1,.5-1.25,3.3,3.3,0,0,0-.5,1.25,1.91,1.91,0,0,0,2.1-.58l1.91-.38a3.85,3.85,0,0,1,.51-1.21,1.12,1.12,0,0,1,.68-.52,1.12,1.12,0,0,0-.68.52,3.85,3.85,0,0,0-.51,1.21,3.19,3.19,0,0,0,3-.75l1.94-.32a3.12,3.12,0,0,1,.54-1.25.56.56,0,0,1,.81-.08.56.56,0,0,0-.81.08,3.12,3.12,0,0,0-.54,1.25,1.92,1.92,0,0,0,2.11-.51l3.88-.55a4,4,0,0,1,.59-1.17,1.17,1.17,0,0,1,.71-.46,1.17,1.17,0,0,0-.71.46,4,4,0,0,0-.59,1.17,3.2,3.2,0,0,0,3.09-.56l4.92-.42a2.27,2.27,0,0,1,.5-1,1.81,1.81,0,0,1,.55-.4,1.81,1.81,0,0,0-.55.4,2.27,2.27,0,0,0-.5,1l23.07.13,3.94.27a5.83,5.83,0,0,1,1.3-.91,5.83,5.83,0,0,0-1.3.91,4.78,4.78,0,0,0,4.07.6l2.95.36a3.71,3.71,0,0,1,.37-.45,1.11,1.11,0,0,1,.63-.38,1.11,1.11,0,0,0-.63.38,3.71,3.71,0,0,0-.37.45,1.71,1.71,0,0,0,2.07.47,30.78,30.78,0,0,0,6.93,1.34h0c5.89,2.06,12,3.47,17.32,7.05,1.7-1.1,2.24-2.88,2.74-4.69-1.73.13-3.12-.81-4.66-1.34-5.07-1.76-10-4.1-15.38-4.73,0,1,0,2,0,3l0-3c-5.27-1.46-10.53-3-16.06-3.06h0a1.35,1.35,0,0,0-2-.51c-20-3.27-39.4-.93-58.43,5.53a47.83,47.83,0,0,0-6.8,3.1c-1.68.89-2.73.63-3.69-1-3.26-5.61-6.66-11.14-9.87-16.77-1.58-2.78-1.41-3.23,1.65-4.26A189.66,189.66,0,0,1,129.15,179c8.69-1.31,17.36-3.08,26.2-2.85,23.33.6,45.78,5.09,67,15.7C220,198.52,215.25,203.88,212.54,210.29ZM175,201.63a.6.6,0,0,0,.76.12A.6.6,0,0,1,175,201.63ZM84.07,163.4c13.48-6.2,27.2-11.59,42-13.74,25.39-3.69,50.55-4.49,75.4,3.73,10.12,3.34,20.19,6.69,29.86,11.17a44.18,44.18,0,0,1,4,2.08c.74.44,1.4,1.27.75,2.06-5.05,6.25-6.9,14.43-12.41,20.38-.15.51-.44.95-1,.92.56,0,.85-.41,1-.92l-1.52-.09a110.51,110.51,0,0,0-32-13.45,147,147,0,0,0-28.94-4.49,158.89,158.89,0,0,0-44.49,4.07c-7.95,1.88-15.45,5-23,8-.77.79-1.53,1.26-2.25.75.72.51,1.48,0,2.25-.76l-3-.09c-2.82-4.9-5.76-9.73-8.41-14.72C80.73,165.36,81.11,164.76,84.07,163.4Z"/><path class="cls-1" d="M258.33,555.07c5.66-6.49,6.6-13.92,5.56-22.08-1-7.67-13.64-21.14-22.17-21.44-2.77-.1-5.54,0-8.3-.19-17.84-1.22-35.68-2-53.58-1.26-7.11.31-14.23,0-21.35,0v-.45c-14.75,0-29.51.16-44.26-.06-9.89-.15-19.76-.34-29.66.13-6.6.31-12.66,1.23-18.75,4.33C55,519.62,48.75,529.36,49.91,541.47c1.14,11.95,8.29,19.7,20.67,22.75,4.29,1,8.61.83,12.93,1,19.58,1,39.17,1.8,58.79,2,29.67.26,59.36-.69,89,.58,6.09.27,12.12-.6,18.18-1A13.86,13.86,0,0,0,253,566c1.14-.39,1.82-1.57.84-2.28-2.09-1.51-.76-2.39.24-3.54C255.56,558.49,256.88,556.73,258.33,555.07Zm-10.75,2.28c-.46.48-1.41.67-1.63,1.19-2,4.67-5.78,3.46-9.53,3.07a92.83,92.83,0,0,0-9.88-.34c-17.87,0-35.75.21-53.63.17-18-.05-36.11,0-54.14-.54-14-.46-28.08-.84-42.14-.73-13.11.09-23.21-11.95-21.06-24.39,1.82-10.52,8.28-16.85,18.55-20.09a18.31,18.31,0,0,1,5.65-.59H97.48c46.83,1.65,93.7.21,140.55,1,4.31.08,7.68,1.34,10.48,4.49,4.13,4.64,7.43,9.7,8.19,15.85C257.75,545,253.26,551.45,247.58,557.35Z"/><path class="cls-9" d="M315.26,316.58c0,34.66-.55,69.33.15,104,.53,26.79-.36,53.57-1.18,80.35-.37,12.15-1,24.37-.92,36.53.12,12.36-1.64,25.3.73,37.51.66,3.39,1.68,6.74,1.85,10.19.81,16.57-14.65,32.52-28.84,38.58-12.64,5.4-25.68,6.41-39,6.3-54.59-.42-109.52-2.15-164.07-.11-6.18.23-12.36.48-18.54.38-17.68-.29-38.13-3.49-49.69-18A62.5,62.5,0,0,1,1.77,574c-.5-19.49-1.09-39-1.19-58.47-.17-32.16-.06-64.32.08-96.48.1-24.5.68-49,.6-73.49-.08-25.32-.71-50.65-1.08-76C-.6,215,1.29,160.48,2.89,106c.48-16.3,1.5-32.63,1.5-48.94.25-12.82,2.23-23.5,10.36-33.73,7.13-9,17.1-16.37,28.19-19.53C56,0,71.3.31,84.8.25c27.33-.13,54.66-.42,82-.12,23.31.26,46.63,1,69.93,2,13.76.59,28.06,1.28,41.31,5.33,11.94,3.64,23.8,10.73,29.83,22,5.81,10.87,6.73,27,6.67,39.16-.21,43.33.35,86.66-.49,130-.65,33.67-.34,67.31.65,100.95.16,5.66,0,11.33,0,17Zm-9.08-82.3c.42-20.5.93-36,1-51.48.12-26,.29-52,.86-78q.43-19.9,1.24-39.79c.49-11.64,1.79-22.14-4.72-32.61C296.82,20,281.25,11.05,266.73,10c-18.61-1.3-37.25-2.72-55.88-2.88C161.27,6.73,111.64,7,62.12,6.42c-16.39-.21-33,8.13-43.33,20.85-7.2,8.86-11.32,20.5-10.45,32,1,13.05.3,26.26.21,39.44q-.45,60.74-.79,121.46c-.26,51.49-.25,103-.72,154.46-.35,39.32-1.51,78.64-1.81,118-.14,18.49.37,37,.42,55.45,0,24.89,1.48,50.66,23,67.09C45.52,628,67.05,624.8,87,623.79c24.32-1.24,48.63-1,73-.54,27.82.56,55.64.73,83.47.83,17,.06,38.16-3.29,51.15-15.37,10.19-9.48,13.49-24.31,13.8-38.22.29-13.4-1-26.7-.36-40.1.63-13.21.63-26.5,1.07-39.72.92-27.57,2-55.15,1.31-82.74q-.3-12.87-1.15-25.72c-1.78-26.28-.66-53.1-1.23-79.47C307.51,278.25,306.71,253.77,306.18,234.28Z"/><path class="cls-9" d="M19.92,318.44q.3-108.74.58-217.46c0-10.65.45-21.28-.65-31.95-1.07-10.36.81-20.58,3.84-30.56,2.46-8.11,7.87-14.24,15.44-16.63,12-3.77,24.5-6.49,37.35-4.2,5.36,1,9.26,3.33,10,9.41A10.44,10.44,0,0,0,94,35.72a55.37,55.37,0,0,0,13.54,3.21c13.79,1,27.61,1.66,41.43,1.89,13.65.23,27.32-.21,41-.41A144.53,144.53,0,0,0,223,36.16c3.55-.89,6.13-2.43,7-6.2a18,18,0,0,1,1-2.3c1.59-4.37,4.69-6.9,9.34-7,5.14-.16,10.31-.19,15.44.09,3.15.17,6,.44,9.19-.86,4.44-1.82,9.18-1,13.49,1.35,8.13,4.48,14,10.67,15.39,20.27.61,4.29,1.59,8.58,1.57,12.87,0,10.32-.66,20.63-.84,31-.07,4,.51,8,.61,11.93.46,18.16,1,36.32,1.23,54.48.45,39.66.91,79.32,1,119,.07,28.49-.72,57-.65,85.48.11,44.16.83,88.32.88,132.48,0,16.48-1.08,33-1.73,49.44-.43,11-1,22-1.38,33a73.51,73.51,0,0,0,.62,9.92c.92,8.75-2.71,15.64-8.94,21.24C278.7,608.92,269.69,612.8,260,615s-19.55,1.56-29.37,1.81c-22.7.59-45.28-1.6-67.93-2.22-14.65-.4-29.31,0-44-.08-16.66-.12-33.33-.23-50-.68a127.06,127.06,0,0,1-28.13-4.11c-2.09-.53-4.14-1.26-6.19-1.95-7-2.38-10.51-7.09-11.61-14.64C16.51,550,16.56,506.74,18.18,463.4c.56-14.82,1.07-29.65,1.2-44.48.29-33.49.32-67,.45-100.48Zm6.64,16.25H26.5c0,17.66-.41,35.33.09,53,.78,27.19-.31,54.33-1.65,81.45-2,40-2.94,80.47,2.86,120.2.61,4.19,1.5,8.75,4.78,11.42,2.15,1.76,5,2.38,7.72,2.9,32.17,6.1,65.06,4.36,97.6,3.76s65.06,2.51,97.61,1.19c17.68-.72,40.68,0,51.28-17.12,4.75-7.65,5-17.21,4.44-26.2-2.48-36.75.95-74.33.24-111.31-.3-16-.72-32-.68-48,.11-44.66.56-89.32.63-134,.05-37.5.18-75-.55-112.48-.42-21.74,1.43-43.53-1.92-65.27-2.64-17.09-.82-34.44-5.23-51.35-1.05-4-2.48-8.11-5.5-10.94-7.77-7.31-23.55-4.91-33.28-5.4-4.82-.25-7.83,1.6-9.13,6.52-1.24,4.74-4.68,7.54-9.45,8.66-1.79.41-3.57.86-5.37,1.16a198.11,198.11,0,0,1-35.32,2.84c-12.83-.18-25.66-.13-38.49-.25-11-.1-22-.1-33-.53A83.7,83.7,0,0,1,97.88,42.9c-8.31-2-15.22-6.1-17-15.49-.42-2.2-1.91-3-3.81-3.36-9.16-1.94-20.62-2.29-29.65.45C39,27,33.19,33.36,30.44,41.6c-2.67,8-2.5,16.72-3,25.05-.75,13.58-.61,27.2-1.32,40.79-1.12,21.41-.29,42.9-.24,64.33q.09,41.64.23,83.28v1.66c.06,17.5.3,35,.41,52.49C26.61,317.7,26.56,326.19,26.56,334.69Z"/><path class="cls-10" d="M116.29,66.4l0,0a1.8,1.8,0,0,0-1.43-.9,8.6,8.6,0,0,0-3,.4,26.68,26.68,0,0,0-3.15.86,14.16,14.16,0,0,0-3.63,1.86c-.93.69-2.32,1.81-2,3.14.24,1,1.86,1.38,2.71,1.66a23.63,23.63,0,0,0,5.27,1,5,5,0,0,1,1.84.37.56.56,0,0,1,.21.93A7.23,7.23,0,0,1,111,77.59a12.11,12.11,0,0,1-1.29.67c-.27.11-1.13.27-1.14.63a.73.73,0,0,0,.18.41,2.42,2.42,0,0,0,1.43,1,2.6,2.6,0,0,0,1.45-.21c2.19-.86,5.79-4.63,2.45-6.36a21.63,21.63,0,0,0-4.43-1.51c-.64-.16-1.3-.26-2-.36-.37,0-2.46,0-2.07-.81a1,1,0,0,1,.45-.38c1.29-.68,2.58-1.36,3.92-1.93a13.68,13.68,0,0,1,4.1-1.23s0,.22.08.25.2,0,.31,0a3,3,0,0,0,1.77-1.17.55.55,0,0,0,.08-.15A.43.43,0,0,0,116.29,66.4Z"/><path class="cls-10" d="M218.22,66.4l0,0a1.79,1.79,0,0,0-1.43-.9,8.63,8.63,0,0,0-3,.4,26.68,26.68,0,0,0-3.15.86A14.16,14.16,0,0,0,207,68.59c-.93.69-2.32,1.81-2,3.14.24,1,1.86,1.38,2.71,1.66a23.61,23.61,0,0,0,5.28,1,4.94,4.94,0,0,1,1.83.37.56.56,0,0,1,.22.93,7.39,7.39,0,0,1-2.15,1.94,12.11,12.11,0,0,1-1.29.67c-.27.11-1.13.27-1.13.63a.65.65,0,0,0,.17.41,2.41,2.41,0,0,0,1.44,1,2.57,2.57,0,0,0,1.44-.21c2.2-.86,5.79-4.63,2.45-6.36a21.63,21.63,0,0,0-4.43-1.51c-.64-.16-1.3-.26-2-.36-.37,0-2.46,0-2.07-.81a1,1,0,0,1,.46-.38c1.28-.68,2.57-1.36,3.91-1.93a13.77,13.77,0,0,1,4.1-1.23s.05.22.08.25.21,0,.31,0a3,3,0,0,0,1.77-1.17.37.37,0,0,0,.08-.15A.43.43,0,0,0,218.22,66.4Z"/><path class="cls-10" d="M179.46,66.4l0,0a1.8,1.8,0,0,0-1.43-.9,8.6,8.6,0,0,0-3,.4,26.68,26.68,0,0,0-3.15.86,14.16,14.16,0,0,0-3.63,1.86c-.94.69-2.32,1.81-2,3.14.24,1,1.86,1.38,2.71,1.66a23.63,23.63,0,0,0,5.27,1,5,5,0,0,1,1.84.37.56.56,0,0,1,.21.93,7.23,7.23,0,0,1-2.14,1.94,11.37,11.37,0,0,1-1.3.67c-.26.11-1.12.27-1.13.63a.73.73,0,0,0,.18.41,2.42,2.42,0,0,0,1.43,1,2.6,2.6,0,0,0,1.45-.21c2.19-.86,5.79-4.63,2.45-6.36a21.63,21.63,0,0,0-4.43-1.51c-.64-.16-1.3-.26-1.95-.36-.37,0-2.46,0-2.07-.81a1,1,0,0,1,.45-.38c1.29-.68,2.58-1.36,3.92-1.93a13.68,13.68,0,0,1,4.1-1.23c-.05,0,0,.22.08.25s.2,0,.31,0a3,3,0,0,0,1.77-1.17.55.55,0,0,0,.08-.15A.43.43,0,0,0,179.46,66.4Z"/><path class="cls-10" d="M155.09,68.13c.78-1.26,1.2-2.71-.48-3.19a8.76,8.76,0,0,0-2.22-.49,12.65,12.65,0,0,0-7.32,2.44c-.67.44-.52.86-.27,1.48a6.8,6.8,0,0,1,.71,2.62c0,1.75-.37,3.49-.58,5.23a28.64,28.64,0,0,0-.39,3.89c0,.43.75,1.06,1.27,1.2.95.27,1-.76,1.12-1.42.17-1.2.23-3.71,1.88-3.58s3.34.17,5,.21c.23,0,2,.06,1.59-.47a4.77,4.77,0,0,0-2.88-1.28c-.53-.09-1.07-.14-1.6-.23-.17,0-1.53-.43-1.57-.39,1.5-1.41,3-2.82,4.42-4.32A11.39,11.39,0,0,0,155.09,68.13Zm-6.44,3.38h0a.3.3,0,0,1-.17-.21A3.28,3.28,0,0,1,150.25,67a5.54,5.54,0,0,1,1.54-.35,1.86,1.86,0,0,1,.78,0c.43.19.29.27,0,.61-1.18,1.38-2.4,2.73-3.61,4.09C148.87,71.42,148.76,71.52,148.65,71.51Z"/><path class="cls-10" d="M238.81,68.13c.78-1.26,1.2-2.71-.49-3.19a8.69,8.69,0,0,0-2.21-.49,12.63,12.63,0,0,0-7.32,2.44c-.67.44-.52.86-.27,1.48a7,7,0,0,1,.71,2.62c-.06,1.75-.37,3.49-.58,5.23a27.13,27.13,0,0,0-.39,3.89c0,.43.75,1.06,1.27,1.2.95.27,1-.76,1.12-1.42.16-1.2.23-3.71,1.88-3.58s3.33.17,5,.21c.23,0,2.05.06,1.6-.47a4.79,4.79,0,0,0-2.88-1.28c-.53-.09-1.07-.14-1.6-.23-.17,0-1.53-.43-1.58-.39,1.51-1.41,3-2.82,4.43-4.32A11.39,11.39,0,0,0,238.81,68.13Zm-6.44,3.38h0a.35.35,0,0,1-.18-.21A3.28,3.28,0,0,1,234,67a5.39,5.39,0,0,1,1.54-.35,1.86,1.86,0,0,1,.78,0c.43.19.28.27,0,.61-1.18,1.38-2.41,2.73-3.61,4.09C232.59,71.42,232.48,71.52,232.37,71.51Z"/><path class="cls-10" d="M133.2,63.44a1.51,1.51,0,0,0-.73-.1c-4,.23-7.94,1.51-11.75,2.62l-2.51.73c-.61.18-1.12.4-1.27,1.06a1.78,1.78,0,0,0,.62,1.84,2,2,0,0,0,1.79-.15L122.87,68c-.19,4-1.5,7.81-1.71,11.78a4.12,4.12,0,0,0,.17,1.64,1.56,1.56,0,0,0,1.18,1,.65.65,0,0,0,.47-.1.81.81,0,0,0,.21-.24,5.66,5.66,0,0,0,.63-2.34c.5-3.89,1.2-7.74,1.9-11.6a2.87,2.87,0,0,1,.41-1.18,2.65,2.65,0,0,1,1.4-.81c1.94-.58,4-.85,5.7-2a.57.57,0,0,0,.2-.21.38.38,0,0,0-.17-.45Z"/><path class="cls-10" d="M80.48,68.48a.34.34,0,0,0-.17,0,.88.88,0,0,0-.42.09,3.82,3.82,0,0,0-1.4,1.12c-.39.47-.64,1-1,1.51-.11.15-.29.39-.5.22a.62.62,0,0,1-.15-.4,18.3,18.3,0,0,1,.16-3.3c.09-1.17.19-2.35.28-3.53,0-.77.33-1.65-.87-1.91s-1.26.63-1.48,1.31c-.82,2.51-1.73,5-2.44,7.61s-1.07,5.34-1.6,8a1.07,1.07,0,0,0,0,.56c.23.66,1.35.11,1.62-.24a2.56,2.56,0,0,0,.38-1c.4-1.58.7-3.13,1-4.74.05-.25.14-1,.45-1,.51-.12.66,1.34.76,1.65s.48,1.21,1,1.25,1.1-.59,1.46-.91a7.48,7.48,0,0,0,.93-1.37c-.2,3.18-.41,6.08-.52,9,0,.43.36,1.19.67,1.26.82.18,1-.54,1-1.21.29-2.39.59-4.78.88-7.18.14-1.21.29-2.42.42-3.63a8.28,8.28,0,0,0,.1-1.72C81,69.49,80.88,68.69,80.48,68.48Z"/><path class="cls-10" d="M134.32,72.63l6.43-1.89c0,2.26-4.5,4.8-7.43,4.26l-.81,3.27.35.32,5.65-3.18a2.45,2.45,0,0,1,.15.52c0,2.06-4,5.38-6,4.93A2.76,2.76,0,0,1,130.42,78a59.72,59.72,0,0,1,1.45-6.23c.26-1.06.47-2.14.82-3.17a3,3,0,0,1,.94-1.25,12.07,12.07,0,0,1,7-2.44c.27,0,.83.38.82.56a1.65,1.65,0,0,1-.51,1.23,15.16,15.16,0,0,1-2.7,1.19C136.12,68.63,135.22,70.38,134.32,72.63Z"/><path class="cls-10" d="M184.06,72.63l6.44-1.89c0,2.26-4.51,4.8-7.44,4.26l-.81,3.27.35.32,5.65-3.18a2.45,2.45,0,0,1,.15.52c0,2.06-4,5.38-6.05,4.93A2.76,2.76,0,0,1,180.16,78a59.72,59.72,0,0,1,1.45-6.23c.26-1.06.47-2.14.83-3.17a2.94,2.94,0,0,1,.94-1.25,12.06,12.06,0,0,1,7-2.44c.27,0,.83.38.82.56a1.68,1.68,0,0,1-.5,1.23A15.58,15.58,0,0,1,188,67.88C185.87,68.63,185,70.38,184.06,72.63Z"/><path class="cls-10" d="M94,74.77c-.26,1.47-.51,2.94-.77,4.41a3.87,3.87,0,0,1-.3,1.3c-.24.39-.82,1-1,.89a1.78,1.78,0,0,1-1-1.11,8.73,8.73,0,0,1,.21-2.53c.33-1.71.69-3.42,1.11-5.12.12-.46.52-1.22.78-1.22.6,0,1.49.24,1.74.68,1,1.77,1.87,3.64,2.77,5.49.25.52.45,1.08.68,1.62l.52-.06c.66-5,1.32-10,2-15.1,1.21.16,1.86.79,1.72,2.07-.51,4.63-1,9.27-1.55,13.9-.21,1.73-1.78,2.39-3,1.16a16.65,16.65,0,0,1-2.45-3.91,18.81,18.81,0,0,1-1-2.53Z"/><path class="cls-10" d="M194.58,74.77c-.25,1.47-.5,2.94-.76,4.41a3.87,3.87,0,0,1-.3,1.3c-.24.39-.82,1-1,.89a1.78,1.78,0,0,1-1-1.11,8.73,8.73,0,0,1,.21-2.53c.33-1.71.69-3.42,1.11-5.12.12-.46.52-1.22.77-1.22.61,0,1.5.24,1.75.68,1,1.77,1.87,3.64,2.77,5.49.25.52.45,1.08.67,1.62l.53-.06c.66-5,1.32-10,2-15.1A1.71,1.71,0,0,1,203,66.09c-.51,4.63-1,9.27-1.55,13.9-.21,1.73-1.79,2.39-3,1.16A17,17,0,0,1,196,77.24a18.81,18.81,0,0,1-1-2.53Z"/><path class="cls-10" d="M83,74.84A16.85,16.85,0,0,1,84.35,70c.64-1.69,1.33-2.8,3.32-2.78A2.46,2.46,0,0,1,90,69.42a9.43,9.43,0,0,1-1.33,7.21c-1,1.63-2.24,2.25-3.51,1.84C83.36,77.89,82.89,76.46,83,74.84Zm5.08-6c-1.74,1-3.3,6-2.51,7.8C87.69,75.34,88.9,71.7,88.08,68.85Z"/><path class="cls-10" d="M219.33,74.84A16.85,16.85,0,0,1,220.68,70c.64-1.69,1.33-2.8,3.32-2.78a2.46,2.46,0,0,1,2.35,2.21A9.43,9.43,0,0,1,225,76.63c-1,1.63-2.24,2.25-3.51,1.84C219.69,77.89,219.22,76.46,219.33,74.84Zm5.08-6c-1.74,1-3.3,6-2.51,7.8C224,75.34,225.23,71.7,224.41,68.85Z"/><path class="cls-1" d="M244.19,350.43a.58.58,0,0,0-.21-.07,1.25,1.25,0,0,0-.54.12,4.91,4.91,0,0,0-1.76,1.41c-.49.59-.8,1.29-1.25,1.9-.14.18-.37.49-.63.27a.79.79,0,0,1-.19-.5,23.09,23.09,0,0,1,.2-4.15c.12-1.48.25-3,.35-4.43.06-1,.42-2.08-1.09-2.41s-1.58.8-1.86,1.65c-1,3.15-2.18,6.34-3.07,9.56s-1.35,6.71-2,10.08a1.39,1.39,0,0,0,0,.7c.29.83,1.7.14,2-.3a3.45,3.45,0,0,0,.48-1.21c.5-2,.88-3.94,1.22-6,0-.32.17-1.22.56-1.32.64-.16.83,1.69,1,2.07.18.57.61,1.52,1.29,1.57s1.38-.74,1.83-1.14a8.58,8.58,0,0,0,1.17-1.73c-.25,4-.51,7.64-.66,11.29,0,.54.45,1.5.84,1.59,1,.22,1.23-.68,1.33-1.52.36-3,.74-6,1.1-9,.18-1.53.36-3.05.53-4.57a10.45,10.45,0,0,0,.13-2.16C244.88,351.69,244.69,350.69,244.19,350.43Z"/><path class="cls-1" d="M172.9,348.31a1.81,1.81,0,0,0-.13-.48c-.5-1.2-1.78-2.47-3.21-2.34-1.1.1-1.86,1.3-2.39,2.14a40.27,40.27,0,0,0-5.43,13.08,8.26,8.26,0,0,0,0,3.43c.39,1.75,2,2.58,3.87,2.28,1.66-.26,3.11-1.59,3.12-2.94a1.36,1.36,0,0,0-.33-1c-.2-.14-.71,0-1,.18-.91.47-1.77,1-2.69,1.52-.85-2.59,3.33-13.51,5.6-15.14.11.35.2.65.28.92s.78.07.89.05a1.87,1.87,0,0,0,.88-.46A1.47,1.47,0,0,0,172.9,348.31Z"/><path class="cls-1" d="M137,344.1a1.78,1.78,0,0,0-.91-.13c-5,.28-10,1.9-14.78,3.29l-3.14.92c-.78.22-1.41.51-1.6,1.32a2.23,2.23,0,0,0,.78,2.32,2.61,2.61,0,0,0,2.25-.18l4.43-1.81c-.24,5-1.9,9.81-2.15,14.8a5.06,5.06,0,0,0,.2,2.05,2,2,0,0,0,1.49,1.31.84.84,0,0,0,.6-.12,1.05,1.05,0,0,0,.25-.3,7.24,7.24,0,0,0,.8-2.95c.62-4.88,1.51-9.72,2.39-14.56a3.52,3.52,0,0,1,.51-1.5,3.29,3.29,0,0,1,1.76-1c2.44-.73,5-1.07,7.15-2.56a.77.77,0,0,0,.27-.27.51.51,0,0,0-.22-.57Z"/><path class="cls-1" d="M149.21,358.38a7.48,7.48,0,0,0-.54,2.63c-.17,1-.33,1.91-.5,2.87a4.75,4.75,0,0,1-.38,1.63c-.29.49-1,1.22-1.27,1.12a2.26,2.26,0,0,1-1.3-1.4,10.67,10.67,0,0,1,.27-3.17c.41-2.16.86-4.31,1.39-6.44.15-.59.65-1.54,1-1.53a3,3,0,0,1,2.2.85c1.29,2.22,2.35,4.58,3.47,6.89.23.46.41.94.6,1.41s.72.9,1,.19a7.26,7.26,0,0,0,.2-1.74l.66-5,1.33-10,.24-1.82c1.52.2,2.33,1,2.15,2.6-.63,5.83-1.22,11.66-1.94,17.48-.26,2.17-2.24,3-3.78,1.45a14.82,14.82,0,0,1-2.8-4.27c-.36-.78-.67-1.58-.95-2.39C150.11,359.39,149.77,357.72,149.21,358.38Z"/><path class="cls-1" d="M139.21,358.12c-2,1.16-4.06,2.29-4.62,4.91-.19.9-.33,2-1.71,1.68s-1.4-1.31-1.09-2.36a43.65,43.65,0,0,1,9.57-17.71c.72-.79,1.48-1.3,2.61-.77a2.06,2.06,0,0,1,1.18,2.47c-.67,3.39-1.43,6.77-2.15,10.15-.44,2-.85,4-1.28,6.05-.38,1.77-.45,4.27-1.71,5.65-.44.48-1.58-.54-1.65-1a10.55,10.55,0,0,1,.16-3.26c.32-1.87.76-3.73,1.15-5.59Zm2.15-9.35c-.41-.65-1.43,1.43-1.55,1.66a36.22,36.22,0,0,0-2.06,3.77c-.13.34-.46,1-.14,1.19s1.12-.21,1.36-.31a4.86,4.86,0,0,0,2.65-4.34A4.61,4.61,0,0,0,141.36,348.77Z"/><path class="cls-1" d="M115.21,347.82l0-.05a2.26,2.26,0,0,0-1.79-1.13,11.54,11.54,0,0,0-3.73.5,35.64,35.64,0,0,0-4,1.09,17.42,17.42,0,0,0-4.56,2.34c-1.18.87-2.92,2.27-2.53,3.95.34,1.46,2.6,1.91,3.81,2.26a37.73,37.73,0,0,0,6.06.91,6.77,6.77,0,0,1,2.43.63,1.22,1.22,0,0,1,.41.33.68.68,0,0,1-.1.78,9,9,0,0,1-2.69,2.44,14,14,0,0,1-1.63.85c-.34.14-1.41.34-1.42.79a1,1,0,0,0,.22.52,3.11,3.11,0,0,0,1.8,1.29,3.24,3.24,0,0,0,1.81-.27c2.77-1.07,7.28-5.81,3.09-8a21.8,21.8,0,0,0-5.07-1.83c-1.65-.39-3.37-.43-5-.88-.23-.07-.5-.17-.57-.41a.49.49,0,0,1,.15-.44,8.94,8.94,0,0,1,2.39-1.31c1-.5,2-1,3-1.4a17.1,17.1,0,0,1,5.16-1.56c-.06,0,.06.28.1.32a.48.48,0,0,0,.39,0,3.73,3.73,0,0,0,2.22-1.47.32.32,0,0,0,.1-.18A.51.51,0,0,0,115.21,347.82Z"/><path class="cls-1" d="M84.73,347.13a19.09,19.09,0,0,0-8.39-1.36,10.67,10.67,0,0,0-7,2.63c-.53.5-1.1,1.25-.72,2a.92.92,0,0,0,.76.62,3.4,3.4,0,0,0,1.76-.79,15.78,15.78,0,0,1,6.21-1.86,15.43,15.43,0,0,1,6.75.62c2.36.78,2.7,1.54,1.32,3.61a23.92,23.92,0,0,1-4.57,5c-.87.73-1.78,1.42-2.71,2.09-.52.37-2,1.82-2.67,1.73s.26-1.85.37-2.19c.31-.93.62-1.87.89-2.81a40.69,40.69,0,0,0,1-4.33c.22-1.27-.61-2-1.73-2.25-1.3-.34-1.22.83-1.44,1.52-.77,2.45-1.51,4.91-2.26,7.38-.38,1.24-.82,2.47-1.21,3.71-.19.57-1.24,2.94-.82,3.43a.88.88,0,0,0,.44.22c2.09.61,3.78-.57,5.43-1.82A120.35,120.35,0,0,0,86.65,356C90.27,352.51,89.36,349,84.73,347.13Z"/><path class="cls-1" d="M179.74,355.49a.52.52,0,0,0,.18.18c.51.31,1.72-.3,2.2-.48,1.09-.43,2.2-.83,3.32-1.2.47-.15,2.33-1,1.8.23-1.31,3-5.81,4.93-9,4.35.11,0-1.3,3.88-.78,4.26s2.72-1.27,3.25-1.57,1.28-.8,1.93-1.18c.37-.21,1.61-1.12,2-.9.63.36-.2,1.88-.44,2.28a9.42,9.42,0,0,1-2,2.25c-1.21,1-3.16,2.43-4.86,2.05a3.4,3.4,0,0,1-2.69-3.52,72.85,72.85,0,0,1,1.78-7.64c.32-1.31.58-2.63,1-3.9a3.68,3.68,0,0,1,1.16-1.53,12,12,0,0,1,4.69-2.35c1-.27,4-1.28,4.76-.16a1.37,1.37,0,0,1-.47,1.72,18.86,18.86,0,0,1-3.32,1.45,7.83,7.83,0,0,0-4.34,4.54C179.86,354.7,179.56,355.16,179.74,355.49Z"/><path class="cls-1" d="M90.14,362.66a53.62,53.62,0,0,1,3.52-15.2c.37-.92.86-1.81,2.11-1.56s1.77.84,1.39,2.18c-.82,3-1.82,5.89-2.62,8.87-.4,1.49-.76,3-1,4.51-.22,1.29-.18,2.72-.87,3.87-.28.47-.8.91-1.33.75C90.15,365.72,90.05,363.6,90.14,362.66Z"/><path class="cls-1" d="M191.59,351.66c.23-.21.79.12,1.06.2s.81.21,1.2.35,1.27.64,1.29,1.25-.56.83-1,.92a3.66,3.66,0,0,1-1.19,0,1.59,1.59,0,0,1-.75-.21,1.21,1.21,0,0,1-.42-.76,6.49,6.49,0,0,1-.31-1.44A.4.4,0,0,1,191.59,351.66Z"/><path class="cls-1" d="M191.59,357.6c.23-.21.79.13,1.06.21s.81.2,1.2.34,1.27.64,1.29,1.25-.56.83-1,.92a3.66,3.66,0,0,1-1.19,0,1.48,1.48,0,0,1-.75-.21,1.21,1.21,0,0,1-.42-.76,6.49,6.49,0,0,1-.31-1.44A.4.4,0,0,1,191.59,357.6Z"/><path class="cls-1" d="M221.09,345.56c8.16,4,10.19,12.65,3.68,19.39a4.8,4.8,0,0,1-8.21-3.47,31.57,31.57,0,0,1,2.74-13.54A14.81,14.81,0,0,1,221.09,345.56Zm-.56,17.95c4.65-3.1,7-10,2.58-14.1C220.91,351.79,219.2,360.83,220.53,363.51Z"/><path class="cls-1" d="M205.28,363c.68-3.41,1.27-6.3,1.84-9.2.39-2,.68-3.94,1.19-5.86.16-.6.89-1.06,1.36-1.58.61.61,1.5,1.12,1.73,1.85a6,6,0,0,1-.08,2.85q-1.19,6-2.51,11.88c-.26,1.18-.28,3-2.07,2.54C206,365.33,205.65,363.71,205.28,363Z"/><path class="cls-10" d="M143.72,525.05c-1.38-.21-1.53,1-1.71,1.88a51.87,51.87,0,0,0-.93,6.06c-.15,2-1.34,2.71-3.29,3.12.11-.7.17-1.22.28-1.73.42-2.06.9-4.11,1.27-6.19.25-1.42-.61-2.09-1.88-2.38-1.62-.38-1.79,1.6-2,2.72-.38,2.35-.88,4.67-1.36,7a7.7,7.7,0,0,1-.87,3,7.44,7.44,0,0,1-3.14,2.11c-1,.45-2.89,1.1-2.22,2.47.57,1.18,1.66,1.26,2.79.79.64-.26,1.26-.55,2.09-.93,0,1,0,1.62,0,2.27a35.19,35.19,0,0,0-.23,4c.12,2.09,1.18,2.62,2.82,1.91.4-3.14.73-6.12,1.17-9.07.25-1.65,1.5-2.28,3.08-2.64-.35,2.57-.73,5-1,7.42-.12,1.07.08,2.1,1.47,2.27s1.72-.72,1.92-1.84c.38-2.09.84-4.16,1.22-6.24s1.56-10.22,1.74-11.22c.12-.65.31-1.29.41-1.94C145.59,526.43,145.24,525.3,143.72,525.05Z"/><path class="cls-10" d="M102.22,542.36a2.78,2.78,0,0,0,.39-2.65c-.59-1-7.7,6-8.68,6.38a.41.41,0,0,1-.48-.12.58.58,0,0,1-.06-.26c-.39-5.36,1.13-10.42,2.1-15.62.29-1.49.08-2.67-1.45-3.11-1.79-.5-1.86,1-2,2.13-.92,5.44-2.13,10.91-2.4,16.43a3.27,3.27,0,0,0,4,4,6.35,6.35,0,0,0,3.58-1.92c1.48-1.32,2.82-2.78,4.22-4.17A5.23,5.23,0,0,0,102.22,542.36Z"/><path class="cls-10" d="M117.64,542.36a2.75,2.75,0,0,0,.38-2.65c-.58-1-7.69,6-8.68,6.38a.4.4,0,0,1-.47-.12.48.48,0,0,1-.06-.26c-.39-5.36,1.13-10.42,2.09-15.62.3-1.49.09-2.67-1.45-3.11-1.78-.5-1.85,1-2,2.13-.91,5.44-2.12,10.91-2.39,16.43a3.26,3.26,0,0,0,4,4,6.35,6.35,0,0,0,3.58-1.92c1.48-1.32,2.81-2.78,4.22-4.17A5.23,5.23,0,0,0,117.64,542.36Z"/><path class="cls-10" d="M76.05,529.86a1.76,1.76,0,0,0-.14-.52c-.54-1.31-1.93-2.68-3.48-2.54-1.2.11-2,1.41-2.6,2.32a43.64,43.64,0,0,0-5.89,14.21,9,9,0,0,0,0,3.73c.43,1.9,2.17,2.8,4.21,2.48,1.81-.29,3.37-1.73,3.39-3.2a1.54,1.54,0,0,0-.36-1.11c-.22-.15-.77,0-1.1.2-1,.51-1.93,1.08-2.93,1.65-.92-2.81,3.62-14.67,6.1-16.45.11.38.21.71.3,1s.84.08,1,.06a2,2,0,0,0,.94-.5A1.55,1.55,0,0,0,76.05,529.86Z"/><path class="cls-10" d="M204.08,525.29a1.86,1.86,0,0,0-1-.14c-5.44.3-10.84,2.06-16.05,3.57l-3.41,1c-.84.24-1.53.55-1.74,1.44a2.44,2.44,0,0,0,.84,2.52,2.87,2.87,0,0,0,2.46-.2l4.8-2c-.26,5.41-2.05,10.66-2.33,16.08a5.42,5.42,0,0,0,.22,2.23,2.13,2.13,0,0,0,1.61,1.42.86.86,0,0,0,.65-.13.9.9,0,0,0,.28-.33,7.94,7.94,0,0,0,.87-3.2c.68-5.3,1.63-10.56,2.59-15.82a3.78,3.78,0,0,1,.56-1.62,3.58,3.58,0,0,1,1.91-1.1c2.65-.79,5.46-1.16,7.77-2.79a.71.71,0,0,0,.28-.29.53.53,0,0,0-.23-.62Z"/><path class="cls-10" d="M168.07,540.81c-.46.54-.52,2.46-.59,2.85l-.54,3.11a5.34,5.34,0,0,1-.41,1.78c-.32.52-1.11,1.32-1.38,1.21a2.45,2.45,0,0,1-1.41-1.52,11.26,11.26,0,0,1,.29-3.45c.44-2.34.93-4.68,1.51-7,.16-.63.71-1.67,1.05-1.66a3.18,3.18,0,0,1,2.39.92c1.41,2.41,2.55,5,3.77,7.49.24.5.45,1,.65,1.53s.79,1,1.08.21a8,8,0,0,0,.22-1.9l.71-5.43,1.44-10.91.26-2c1.66.22,2.53,1.08,2.35,2.82-.69,6.33-1.33,12.67-2.11,19-.29,2.36-2.44,3.26-4.11,1.58a16.3,16.3,0,0,1-3.05-4.64c-.38-.85-.72-1.72-1-2.6C169.05,541.89,168.67,540.08,168.07,540.81Z"/><path class="cls-10" d="M82.81,540.52c-2.18,1.26-4.4,2.48-5,5.33-.2,1-.36,2.2-1.85,1.83s-1.52-1.42-1.19-2.57a47.55,47.55,0,0,1,10.4-19.23c.79-.86,1.61-1.42,2.83-.84a2.23,2.23,0,0,1,1.29,2.68c-.73,3.69-1.56,7.35-2.34,11q-.71,3.29-1.39,6.57c-.41,1.92-.49,4.64-1.85,6.13-.48.53-1.72-.57-1.8-1.05a11.5,11.5,0,0,1,.18-3.55c.34-2,.82-4.05,1.24-6.07Zm2.34-10.16c-.44-.7-1.55,1.55-1.69,1.81a39.44,39.44,0,0,0-2.23,4.09c-.14.36-.51,1.06-.16,1.3s1.23-.23,1.48-.34a5.3,5.3,0,0,0,2.88-4.72A5.1,5.1,0,0,0,85.15,530.36Z"/><path class="cls-10" d="M250.53,529.33l0-.05a2.43,2.43,0,0,0-1.94-1.23,12,12,0,0,0-4.06.55,38,38,0,0,0-4.3,1.18,18.56,18.56,0,0,0-4.95,2.54c-1.28.94-3.17,2.46-2.75,4.28.37,1.59,2.83,2.08,4.14,2.46a41.83,41.83,0,0,0,6.58,1,7.06,7.06,0,0,1,2.64.68,1.22,1.22,0,0,1,.45.36.77.77,0,0,1-.11.85,10,10,0,0,1-2.93,2.65,15.53,15.53,0,0,1-1.77.91c-.36.16-1.53.38-1.54.86a1,1,0,0,0,.24.56,3.3,3.3,0,0,0,2,1.41,3.55,3.55,0,0,0,2-.29c3-1.17,7.9-6.31,3.35-8.67a23.14,23.14,0,0,0-5.51-2c-1.79-.42-3.66-.47-5.43-1-.25-.07-.55-.18-.61-.44a.52.52,0,0,1,.15-.48,9.94,9.94,0,0,1,2.6-1.42c1.06-.54,2.13-1.06,3.22-1.53a19.07,19.07,0,0,1,5.6-1.69c-.06,0,.06.31.11.35s.28.06.42,0a4.11,4.11,0,0,0,2.42-1.6.32.32,0,0,0,.1-.2A.22.22,0,0,0,250.53,529.33Z"/><path class="cls-10" d="M152.13,545.08c.58.2,1.28-2.7,1.37-3,.45-1.44.94-2.87,1.41-4.31q1.4-4.26,2.76-8.54c.3-.93.49-1.89,1.86-1.63s2.13.87,2.12,2.24c0,2.51-.08,5-.13,7.53,0,2,.25,4.31-.39,6.28a1.72,1.72,0,0,1-.31.6c-.61.66-1.68-.18-2.24-.5a3.7,3.7,0,0,1-1.13-1.23,28.61,28.61,0,0,1-2,4.88,3,3,0,0,1-2.56,1.45c-2.31.07-3.52-1.33-4.2-3.38a45.72,45.72,0,0,1-1.94-14.06,1.32,1.32,0,0,1,.31-1,1.28,1.28,0,0,1,1-.14,2.67,2.67,0,0,1,2,.93,2.57,2.57,0,0,1,.31,1.25c.2,2.37.44,4.73.69,7.1.1,1,.2,1.9.33,2.85.09.6.17,1.2.31,1.79C151.77,544.35,151.9,545,152.13,545.08Z"/><path class="cls-10" d="M231.56,531.68c1.06-1.71,1.63-3.7-.66-4.35a12.58,12.58,0,0,0-3-.67,17.25,17.25,0,0,0-10,3.33c-.92.6-.71,1.18-.37,2a9.29,9.29,0,0,1,1,3.57c-.07,2.39-.51,4.76-.79,7.14a36.74,36.74,0,0,0-.53,5.3c0,.59,1,1.45,1.73,1.65,1.3.36,1.41-1,1.53-1.95.23-1.64.31-5.06,2.57-4.89s4.55.25,6.83.3c.31,0,2.79.07,2.17-.65a6.45,6.45,0,0,0-3.92-1.74c-.73-.13-1.47-.2-2.19-.31-.24,0-2.09-.6-2.15-.54,2.05-1.92,4.11-3.84,6-5.9A15,15,0,0,0,231.56,531.68Zm-8.8,4.62h0a.53.53,0,0,1-.24-.29,4.47,4.47,0,0,1,2.48-5.92,7,7,0,0,1,2.11-.48,2.33,2.33,0,0,1,1.05,0c.6.25.4.37,0,.84-1.62,1.87-3.29,3.71-4.93,5.57A.57.57,0,0,1,222.76,536.3Z"/><path class="cls-10" d="M206.25,537.66a.55.55,0,0,0,.2.2c.55.33,1.87-.33,2.39-.53q1.77-.71,3.6-1.29c.51-.17,2.53-1.09,2,.24-1.42,3.29-6.31,5.36-9.72,4.73.11,0-1.42,4.21-.85,4.62s3-1.37,3.53-1.7,1.39-.87,2.1-1.28c.39-.24,1.75-1.22,2.18-1,.69.39-.22,2-.47,2.47a10.28,10.28,0,0,1-2.16,2.45c-1.31,1.12-3.43,2.64-5.28,2.23a3.69,3.69,0,0,1-2.92-3.83,81,81,0,0,1,1.93-8.3c.35-1.41.63-2.85,1.11-4.23a4,4,0,0,1,1.25-1.67,13.32,13.32,0,0,1,5.1-2.55c1.09-.29,4.39-1.39,5.16-.17a1.49,1.49,0,0,1-.51,1.87,21,21,0,0,1-3.6,1.58,8.46,8.46,0,0,0-4.71,4.92C206.39,536.8,206.05,537.31,206.25,537.66Z"/><path class="cls-1" d="M210.88,468.25c1.06-1.72,1.63-3.7-.67-4.35a12.4,12.4,0,0,0-3-.67,17.37,17.37,0,0,0-10,3.32c-.91.61-.7,1.19-.36,2a9.15,9.15,0,0,1,1,3.58c-.07,2.38-.5,4.76-.78,7.14a36.74,36.74,0,0,0-.53,5.3c0,.59,1,1.45,1.73,1.65,1.3.36,1.4-1.05,1.53-1.95.22-1.64.31-5.06,2.56-4.89s4.56.25,6.83.3c.32,0,2.8.07,2.18-.65a6.45,6.45,0,0,0-3.93-1.74c-.72-.13-1.46-.2-2.19-.31-.23,0-2.08-.6-2.14-.54,2-1.92,4.11-3.84,6-5.9A14.82,14.82,0,0,0,210.88,468.25Zm-8.8,4.62-.05,0a.44.44,0,0,1-.24-.29,4.48,4.48,0,0,1,2.48-5.92,7.26,7.26,0,0,1,2.11-.47,2.33,2.33,0,0,1,1.05,0c.6.25.4.37,0,.83-1.61,1.88-3.28,3.72-4.92,5.58A.57.57,0,0,1,202.08,472.87Z"/><path class="cls-1" d="M142.68,477.38c-.46.54-.52,2.46-.59,2.85l-.54,3.11a5.39,5.39,0,0,1-.41,1.78c-.32.52-1.12,1.32-1.38,1.21a2.45,2.45,0,0,1-1.41-1.52,11.57,11.57,0,0,1,.28-3.45c.45-2.34.94-4.68,1.52-7,.16-.63.71-1.67,1-1.66a3.18,3.18,0,0,1,2.39.92c1.41,2.41,2.55,5,3.77,7.49.24.5.45,1,.65,1.53s.79,1,1.08.21a8.65,8.65,0,0,0,.22-1.9l.71-5.44,1.44-10.91.26-2c1.66.22,2.53,1.08,2.34,2.82-.68,6.33-1.32,12.67-2.1,19-.29,2.35-2.44,3.26-4.11,1.58a16.3,16.3,0,0,1-3-4.64,27.54,27.54,0,0,1-1-2.6C143.66,478.46,143.28,476.65,142.68,477.38Z"/><path class="cls-1" d="M131.81,477.09c-2.18,1.26-4.4,2.48-5,5.33-.2,1-.36,2.2-1.85,1.83s-1.52-1.42-1.19-2.57a47.65,47.65,0,0,1,10.4-19.24c.79-.85,1.61-1.41,2.83-.83a2.23,2.23,0,0,1,1.29,2.68c-.73,3.69-1.56,7.35-2.34,11q-.7,3.29-1.39,6.57c-.41,1.92-.49,4.64-1.85,6.13-.48.53-1.72-.57-1.8-1.06a11.45,11.45,0,0,1,.18-3.54c.34-2,.82-4.05,1.24-6.07Zm2.34-10.16c-.44-.7-1.55,1.55-1.69,1.81a39.29,39.29,0,0,0-2.23,4.08c-.14.37-.51,1.07-.16,1.31s1.23-.24,1.48-.35a5.27,5.27,0,0,0,2.88-4.71A5.1,5.1,0,0,0,134.15,466.93Z"/><path class="cls-1" d="M120.53,465.15a20.77,20.77,0,0,0-9.12-1.48c-2.81.19-5.52.85-7.61,2.85-.57.55-1.19,1.37-.78,2.2.17.34.41.66.82.66a3.57,3.57,0,0,0,1.91-.85,17.07,17.07,0,0,1,6.75-2,16.76,16.76,0,0,1,7.34.67c2.56.85,2.92,1.68,1.43,3.92a26.45,26.45,0,0,1-5,5.39c-1,.8-1.94,1.55-3,2.27-.57.41-2.19,2-2.9,1.88s.28-2,.4-2.37c.34-1,.67-2,1-3.07a44,44,0,0,0,1.13-4.7c.23-1.37-.67-2.13-1.88-2.44-1.41-.37-1.33.9-1.56,1.65-.84,2.67-1.65,5.34-2.46,8-.41,1.36-.89,2.69-1.32,4-.2.62-1.34,3.19-.89,3.72a.93.93,0,0,0,.48.25c2.27.65,4.11-.63,5.9-2a132.8,132.8,0,0,0,11.38-9C126.55,471,125.56,467.2,120.53,465.15Z"/><path class="cls-1" d="M183.37,474.23a.63.63,0,0,0,.2.2c.55.33,1.87-.33,2.38-.53,1.19-.47,2.39-.9,3.61-1.29.51-.17,2.53-1.09,1.95.24-1.41,3.29-6.3,5.36-9.72,4.73.12,0-1.41,4.21-.84,4.62s3-1.37,3.53-1.7,1.39-.87,2.1-1.28c.39-.24,1.75-1.22,2.18-1,.69.39-.22,2-.48,2.47a10.24,10.24,0,0,1-2.15,2.45c-1.31,1.12-3.43,2.64-5.28,2.23a3.69,3.69,0,0,1-2.92-3.83,80.4,80.4,0,0,1,1.93-8.3c.35-1.42.63-2.86,1.1-4.23a4.1,4.1,0,0,1,1.26-1.67,13.35,13.35,0,0,1,5.09-2.55c1.09-.29,4.4-1.39,5.17-.17a1.49,1.49,0,0,1-.51,1.87,20,20,0,0,1-3.61,1.57,8.52,8.52,0,0,0-4.7,4.93C183.51,473.37,183.17,473.88,183.37,474.23Z"/><path class="cls-1" d="M175.26,472.81a5.18,5.18,0,0,0,.32-1.61c0-.71-1.76.12-2.1.23-.81.29-1.62.59-2.44.87-1.51.52-3,1.06-4.52,1.6-1.12.41-1.24,1.25-.43,2.17l.87,1c-1.75,2.44-3.15,5.07-5.7,7-.88-4.31,4.81-17.62,7.76-18.88a28.43,28.43,0,0,0,1.32,3.28c.18.33,1,.5,1.44.4.28-.06.58-.74.6-1.15a14,14,0,0,0-.11-3.11,3.81,3.81,0,0,0-2.69-3.4c-2-.55-3.54,1.28-4.54,2.72a39.27,39.27,0,0,0-4.84,8.91,48.42,48.42,0,0,0-2.27,10.51c-.22,1.73.92,3,2.5,3.7s2.73.11,3.84-.91c.57-.52,1.16-1,2-1.79,0,.95,0,1.48,0,2-.08,1.24.5,2.21,1.67,2.15.58,0,1.42-1,1.61-1.72.94-3.35,1.67-6.75,2.54-10.12a2.78,2.78,0,0,1,1-1.65,3.7,3.7,0,0,0,1.71-1.27A5.62,5.62,0,0,0,175.26,472.81Z"/><path class="cls-1" d="M67.1,448.42c1-2.76,3.25-3.15,6.14-3,17.47.61,35,1,52.44,1.49,22.64.61,45.3.8,67.92,2,15,.82,29.94,1.43,44.92,2.1a61.71,61.71,0,0,0,14.92-1c1.52-.3,3.05-.85,3.26-2.61.24-1.94-1.35-2.44-2.83-2.86-.78-.23-1.58-.38-2.75-.66a100.38,100.38,0,0,0,.69-29.82c-.54-4.72-2.35-9.34-1.29-14.29.39-1.86-2.66-4.63-4.79-4.18-4.58,1-8.92-.52-13.37-.71-8.67-.37-17.32-.14-26,.1-32.33.91-64.61-1.56-96.92-1.08-14.48.21-29-.5-43.4,1.63-2.9.43-4.16,1.59-4.48,4.26s-.68,5.62-1.07,8.42c-1.77,13,1.68,25.47,4.45,38A2.41,2.41,0,0,0,67.1,448.42Zm127.15-6.85a3.53,3.53,0,0,0,.63.13A3.53,3.53,0,0,1,194.25,441.57Zm46.41-39.43c2.89-.15,3.67,1,3.93,3.63.82,8.25,1.82,16.48,2.82,24.71.51,4.27,1.19,8.51,1.88,13.41-8.38-.43-16.56-1-24.72-1.9,1.4-9.91,1.19-19.86.8-29.82-.13-3.3-1.44-6.53-.64-9.89C230,402.26,235.36,402.4,240.66,402.14Zm-20.45.12h0c1.35,4,.56,8.16.74,12.24A236.26,236.26,0,0,0,223.39,442h0l-7.89.06a2.37,2.37,0,0,1-.26.33,2.37,2.37,0,0,0,.26-.33,1.49,1.49,0,0,0-2-.06l-17-.82-.32.24a2,2,0,0,1-.63.27,2,2,0,0,0,.63-.27l.32-.24c.45-4.43.8-8.87,1.38-13.28,1.08-8.22,2-16.43.86-24.72h0Zm-25.87.88h0a99.16,99.16,0,0,1-.2,13.35c-.37,8.25-2.29,16.32-2.69,24.56l-12.95,0a3.17,3.17,0,0,1-.8.71,3.17,3.17,0,0,0,.8-.71,2.83,2.83,0,0,0-3.05-.12l-4.38-.33h0a5,5,0,0,1-.53-3.83c1.6-11.22,1.23-22.48.94-33.75Zm-26.75-.4a3.79,3.79,0,0,1,1.52-.66,3.79,3.79,0,0,0-1.52.66q-.09,18.56-.19,37.11h0c-8,.58-16-.31-24-.58a3.53,3.53,0,0,1-1.5.75,3.53,3.53,0,0,0,1.5-.75,37,37,0,0,1,.06-4.47,149.69,149.69,0,0,0,.57-30.3,8.53,8.53,0,0,1,.51-2.38l-3.61.05,3.61-.05Zm-48.34,15.17a4.17,4.17,0,0,1,.06-1A4.17,4.17,0,0,0,119.25,417.91Zm.45-10.64a9.08,9.08,0,0,0,.4,1.07A9.08,9.08,0,0,1,119.7,407.27ZM95,403.93c-.46-2.08.28-2.77,2.2-2.75,4.83,0,9.65,0,14.48.11,3.28.09,3.71.54,3.81,3.83.12,4.16,0,8.32,0,12.48,0,3.49.08,7,.12,10.48h0L115.4,439l4,.12c0-2,0-4,0-6a1.63,1.63,0,0,0,.18-2,3.55,3.55,0,0,0,.25-3,15.6,15.6,0,0,0,.58-5.92c1.16-2.6,1-5.31.69-8a8.51,8.51,0,0,0,0-3.92,3.8,3.8,0,0,1-.29-.38,5.13,5.13,0,0,1-.54-.89,5.13,5.13,0,0,0,.54.89,3.8,3.8,0,0,0,.29.38c.69-2.75-.23-5.37-.64-8,6.26-.52,12.5,0,18.75.12h0c.69,12.3,0,24.62.24,36.93l-20.11,0-4-.12c-5.65,0-11.31,0-17-.1-3.47-.08-4-.89-3.58-4.29C96.06,424.38,97.24,414.14,95,403.93Zm-24.07-3.76c5.24,1.15,10.56.88,15.86,1,1.78,0,2.69.64,2.81,2.59.61,10.24,1.4,20.48,2,30.72.23,4.31,0,4.26-4.39,4.46-5.45.25-10.95-.37-16.36.82-2.66.58-3.08-1.27-3.1-3.27-.06-5-.06-10-.09-14.94v-2h0c0-5.48.07-11,0-16.43C67.51,400.6,68.65,399.68,70.89,400.17Z"/><path class="cls-9" d="M127.8,21.94a183.56,183.56,0,0,1,39.71-2.82c2.48.12,4.91.46,4.86,2.89s-1.35,3.75-4.86,3.88c-7.83.3-15.62.26-23.45.61-3.92.17-7.84.43-11.77.88-3.34.38-6.9,1.32-10.1.77-1.3-.23-2.63-.91-2.46-2C120.1,23.83,125.39,22.35,127.8,21.94Z"/><path class="cls-9" d="M180.26,18.58c.75-.68,2.57.41,3.45.67,1.3.38,2.63.65,3.9,1.13,1.56.59,4.13,2.08,4.21,4,.06,1.63-1.84,2.72-3.19,3a12.38,12.38,0,0,1-3.89,0,5,5,0,0,1-2.43-.67,4,4,0,0,1-1.38-2.48,22.08,22.08,0,0,1-1-4.68A1.35,1.35,0,0,1,180.26,18.58Z"/></g></g></svg>