<?xml version="1.0" encoding="UTF-8" standalone="no"?>
<svg
   xmlns:dc="http://purl.org/dc/elements/1.1/"
   xmlns:cc="http://creativecommons.org/ns#"
   xmlns:rdf="http://www.w3.org/1999/02/22-rdf-syntax-ns#"
   xmlns:svg="http://www.w3.org/2000/svg"
   xmlns="http://www.w3.org/2000/svg"
   height="584.5282"
   width="1588.87"
   id="svg46"
   version="1.1"
   viewBox="0 0 1588.87 584.52822">
  <metadata
     id="metadata50">
    <rdf:RDF>
      <cc:Work
         rdf:about="">
        <dc:format>image/svg+xml</dc:format>
        <dc:type
           rdf:resource="http://purl.org/dc/dcmitype/StillImage" />
        <dc:title>slide_19</dc:title>
      </cc:Work>
    </rdf:RDF>
  </metadata>
  <defs
     id="defs4">
    <style
       id="style2">.cls-1{fill:#b13e6d;}.cls-2{fill:#af3b6a;}.cls-3{fill:#c24377;}.cls-4{fill:#e74c8a;}.cls-5{fill:#d3467f;}.cls-6{fill:#b23b6c;}.cls-7{fill:#e64c8a;}</style>
    <clipPath
       id="clipPath1222"
       clipPathUnits="userSpaceOnUse">
      <rect
         y="-3.2169502"
         x="-2.4476924"
         height="587.79694"
         width="1591.3477"
         id="rect1224"
         style="fill:none;fill-opacity:1;stroke:none" />
    </clipPath>
  </defs>
  <title
     id="title6">slide_19</title>
  <g
     transform="translate(-0.03,-0.05181766)"
     clip-path="url(#clipPath1222)"
     data-name="Layer 2"
     id="Layer_2">
    <g
       data-name="Layer 1"
       id="Layer_1-2">
      <path
         style="fill:#b13e6d"
         id="path8"
         d="m 247.83,642.81 -1.84,-0.23 c -12.82,-1.53 -25.66,-3.09 -38.6,-3.31 a 8.19,8.19 0 0 0 -3,0.13 c -11.07,4.4 -20.73,-1.3 -30.71,-4.36 -4.28,-1.32 -6.42,-4.48 -5.73,-9.24 a 36.1,36.1 0 0 0 0,-5 c 0,-12.17 -6.33,-17.86 -18.72,-18.71 -15.61,-1.09 -30.23,2.91 -44.84,7.47 -11.94,3.73 -24.48,3.86 -36.74,5.69 -13.85,2.07 -27.79,2.2 -41.75,2 a 77.7,77.7 0 0 1 -15.72,-2.17 c -3.36,-0.74 -4.14,-2.5 -1.39,-5.15 4.59,-4.43 10.29,-7.26 15.49,-10.8 0.4,-0.28 1,-0.66 1.36,-0.55 8.09,2.45 11.07,-4 14.19,-8.85 14.89,-23 25,-47.85 28.26,-75.29 1.55,-13 1.71,-26.11 3,-39.12 0.66,-6.74 2,-13.41 3,-20.11 2.23,-11.93 4.12,-23.94 9.37,-35.07 a 12.6,12.6 0 0 0 0.59,-2.87 18.75,18.75 0 0 1 4,-8 l 0.37,-1.3 c 0.92,0.73 0,0.95 -0.37,1.3 -0.23,2.25 0.82,3.22 3,3 3.11,-5.81 6.25,-11.6 8,-18 -1.72,0.08 -3.27,-0.19 -4,-2 -4.81,7 -10.09,13.68 -13.33,21.65 -0.54,1.33 -1.08,2.8 -2.69,3.34 v 0 a 2,2 0 0 1 -0.84,2 C 72.37,431.91 69.74,445.47 67,459 c -3.08,15 -4,30.29 -5.37,45.5 -2.43,26.73 -13.21,50.62 -25.2,74.11 a 23.75,23.75 0 0 1 -10.31,10.37 c -9,4.93 -18.35,9.35 -26.09,16.32 v 15 c 10.77,6.64 23,6.78 34.88,6.59 28,-0.46 55.85,-3 82.64,-12.08 11.18,-3.81 22.53,-6 34.33,-3.64 7,1.39 8.2,3 8,10.16 a 7.48,7.48 0 0 1 0,1.5 c -2.7,11.37 1,17.63 14.78,21.71 a 87.75,87.75 0 0 0 40.36,2.67 6.58,6.58 0 0 1 2,0 c 10.59,1.43 21.18,2.84 31.75,4.36 q -0.49,-4.42 -0.94,-8.76 z"
         class="cls-1" />
      <path
         style="fill:#af3b6a"
         id="path10"
         d="m 215.17,537.06 -1.12,0.18 a 35.38,35.38 0 0 0 -4.4,0.7 c -1.48,0.44 -4.16,0 -4,2 0.18,2.43 2.85,2.23 4.8,2.29 2.56,0.09 5.08,0.06 7.57,-0.07 z"
         class="cls-2" />
      <path
         style="fill:#c24377"
         id="path12"
         d="m 95.84,385.86 c 0.61,2.24 -1.12,4.18 -0.85,6.38 -4.81,7 -10.09,13.68 -13.33,21.65 -0.54,1.33 -1.08,2.8 -2.69,3.34 3.57,-11.56 9.75,-21.72 16.87,-31.37 z"
         class="cls-3" />
      <path
         style="fill:#c24377"
         id="path14"
         d="m 79,417.23 a 2,2 0 0 1 -0.84,2 1.86,1.86 0 0 1 0.84,-2 z"
         class="cls-3" />
      <path
         style="fill:#e74c8a"
         id="path16"
         d="m 236.75,581.85 c -3.63,-11 -8.73,-21.35 -14.23,-31.49 -1.48,-2.73 -3,-5.45 -4.5,-8.17 -2.49,0.13 -5,0.16 -7.57,0.07 -1.95,-0.06 -4.62,0.14 -4.8,-2.29 -0.16,-2.07 2.52,-1.59 4,-2 a 35.38,35.38 0 0 1 4.4,-0.7 l 1.12,-0.18 c -2.51,-4.51 -5,-9 -7.41,-13.57 -4,-2 -7.89,-4.18 -11.71,-6.54 -13.23,-8.16 -24.73,-18.45 -36.37,-28.59 -6.13,-5.34 -12.23,-10.73 -16.89,-17.5 a 80.74,80.74 0 0 1 -14.16,-38.74 74.41,74.41 0 0 1 8.22,-43.27 c 4.78,-9.11 10.84,-17.54 14.52,-27.25 0.49,-1.27 0.91,-3.3 2.87,-2.88 2.18,0.46 1.7,2.55 1.69,4.15 a 12.24,12.24 0 0 1 -0.46,2.43 c -2.05,9.4 -6.93,17.59 -11.05,26.11 -0.83,1.7 -2.14,3.28 -2.08,6.19 8.19,-5.32 15.92,-10 23.32,-15.28 A 29.2,29.2 0 0 0 176.92,367 92.17,92.17 0 0 0 181,343 c 0.59,-11.33 -1.48,-22.58 -0.9,-33.88 0.46,-9.16 1.82,-18 8.42,-25.42 4.2,-4.72 9.41,-7.81 14.33,-11.42 4.54,-3.32 9.88,-5.49 13.62,-10 4.52,-5.41 3.32,-11.74 -3,-14.91 -7,-3.52 -13.66,-2.84 -20.34,1.23 -5.43,3.3 -9.95,7.75 -15.21,11.21 -3.73,2.46 -6.62,1.13 -6.89,-3.17 a 48.91,48.91 0 0 1 0.16,-10 28.5,28.5 0 0 0 -4.56,-20.81 c -2.3,-3.36 -4.67,-7.58 -9.79,-7.62 -6.36,-0.06 -14.34,4.95 -16.5,10.38 -2.68,6.73 1,11.49 5.4,15.75 a 40.76,40.76 0 0 1 9.26,12.95 c 1.13,2.54 1.8,5.14 -0.2,7.5 a 7.23,7.23 0 0 1 -7.76,2.21 49.53,49.53 0 0 1 -8.27,-3.42 c -11.42,-5.63 -25.82,2 -27.63,14.71 a 4.38,4.38 0 0 0 1.55,4.48 c 1.44,1 2.78,0.15 4.09,-0.71 2.64,-1.74 5.29,-3.47 8,-5 14.15,-8 24.6,1.52 27.77,12.54 0.43,1.51 0.74,3.19 -0.87,4 -2,1 -2.37,-1.07 -3.16,-2.2 -2,-2.85 -3,-6.72 -7.47,-7.55 a 8.74,8.74 0 0 0 0,2.21 c 4.36,14.25 1.51,27.57 -5.24,40.36 -5.67,10.73 -12.59,20.74 -17.94,31.68 -6,12.21 -12.6,24.12 -18.94,36.16 -1.74,6.41 -4.88,12.2 -8,18 -0.67,1.63 -1.25,3.29 -2,4.87 -1.54,3.21 -3.24,3.61 -5,0.14 a 12.6,12.6 0 0 1 -0.59,2.87 c -5.25,11.13 -7.14,23.14 -9.37,35.07 9.82,0.11 10.21,0 12.85,9.57 4.1,14.82 9.65,29.24 12,44.53 0.6,3.89 2.33,7.58 3.33,11.42 1.85,7.14 8.28,10.4 13.42,13.84 a 136.3,136.3 0 0 1 13.38,10 45.6,45.6 0 0 0 24.06,10.95 c 11.92,1.65 18.16,10.76 24,20 4.68,7.44 9.16,15 13.8,22.49 5.62,9.05 13.68,13.47 24.46,13.26 9.13,-0.17 18.38,0.72 26.73,-4.14 l 0.65,-0.4 a 176.29,176.29 0 0 0 -5.9,-24.88 z M 130.4,536.7 c -0.88,0.86 -1.82,0.27 -2.67,-0.3 -5.29,-3.54 -9.48,-8.26 -13.61,-13 -3.47,-4 -7,-8 -8.34,-13.34 -0.49,-1.9 -0.65,-3.23 1.54,-3.73 a 3.31,3.31 0 0 1 2.91,1.8 c 5.31,8.63 11.87,16.29 18.57,23.83 a 18.16,18.16 0 0 1 1.38,2.07 c 0.57,0.85 1.11,1.8 0.22,2.67 z m 21.2,4.79 c -0.7,1 -1.79,0.78 -2.62,0.11 -16,-12.85 -28.93,-27.76 -33,-48.7 a 8.5,8.5 0 0 1 0,-1.28 c 0.14,-0.95 -0.52,-2.71 1.24,-3.08 2.18,-0.46 2.8,1.51 3.32,3 a 108.94,108.94 0 0 0 21.15,36.25 c 3.16,3.6 6.18,7.32 9.26,11 0.7,0.8 1.3,1.74 0.65,2.7 z"
         class="cls-4" />
      <path
         style="fill:#d3467f"
         id="path18"
         d="m 244.88,619.88 c -0.66,-4.36 -1.35,-8.74 -2.13,-13.11 l -0.65,0.4 c -8.35,4.86 -17.6,4 -26.73,4.14 -10.78,0.21 -18.84,-4.21 -24.46,-13.26 -4.64,-7.48 -9.12,-15 -13.8,-22.49 -5.82,-9.25 -12.06,-18.36 -24,-20 a 45.6,45.6 0 0 1 -24.06,-10.95 136.3,136.3 0 0 0 -13.38,-10 c -5.14,-3.44 -11.57,-6.7 -13.42,-13.84 -1,-3.84 -2.73,-7.53 -3.33,-11.42 -2.38,-15.29 -7.93,-29.71 -12,-44.53 -2.64,-9.57 -3,-9.46 -12.85,-9.57 -1,6.7 -2.33,13.37 -3,20.11 -1.27,13 -1.43,26.11 -3,39.12 -3.28,27.44 -13.37,52.3 -28.26,75.29 -3.12,4.82 -6.1,11.3 -14.19,8.85 -0.37,-0.11 -1,0.27 -1.36,0.55 -5.2,3.54 -10.9,6.37 -15.49,10.8 -2.75,2.65 -2,4.41 1.39,5.15 a 77.7,77.7 0 0 0 15.72,2.17 c 14,0.19 27.9,0.06 41.75,-2 12.26,-1.83 24.8,-2 36.74,-5.69 14.63,-4.6 29.25,-8.6 44.92,-7.5 12.39,0.85 18.72,6.54 18.72,18.71 a 36.1,36.1 0 0 1 0,5 c -0.69,4.76 1.45,7.92 5.73,9.24 10,3.06 19.64,8.76 30.71,4.36 a 8.19,8.19 0 0 1 3,-0.13 c 12.94,0.22 25.78,1.78 38.6,3.31 l 1.84,0.23 q -1.27,-11.5 -3.01,-22.94 z"
         class="cls-5" />
      <path
         style="fill:#c24377"
         id="path20"
         d="m 91,412.27 c -0.67,1.63 -1.25,3.29 -2,4.87 -1.54,3.21 -3.24,3.61 -5,0.14 a 18.75,18.75 0 0 1 4,-8 v 0 c -0.22,2.22 0.82,3.19 3,2.99 z"
         class="cls-3" />
      <path
         style="fill:#c24377"
         id="path22"
         d="m 88,409.25 0.37,-1.3 c 0.92,0.73 0,0.95 -0.37,1.3 z"
         class="cls-3" />
      <path
         style="fill:#b23b6c"
         id="path24"
         d="m 116,491.62 c 0.14,-0.95 -0.52,-2.71 1.24,-3.08 2.18,-0.46 2.8,1.51 3.32,3 a 108.94,108.94 0 0 0 21.15,36.25 c 3.16,3.6 6.18,7.32 9.26,11 0.67,0.79 1.27,1.73 0.62,2.69 -0.65,0.96 -1.79,0.78 -2.62,0.11 -16,-12.85 -28.93,-27.76 -33,-48.7 a 8.5,8.5 0 0 1 0.03,-1.27 z"
         class="cls-6" />
      <path
         style="fill:#b23b6c"
         id="path26"
         d="m 107.32,506.33 a 3.31,3.31 0 0 1 2.91,1.8 c 5.31,8.63 11.87,16.29 18.57,23.83 a 18.16,18.16 0 0 1 1.38,2.07 c 0.57,0.85 1.11,1.8 0.22,2.67 -0.89,0.87 -1.82,0.27 -2.67,-0.3 -5.29,-3.54 -9.48,-8.26 -13.61,-13 -3.47,-4 -7,-8 -8.34,-13.34 -0.49,-1.9 -0.65,-3.23 1.54,-3.73 z"
         class="cls-6" />
      <path
         style="fill:#af3b6a"
         id="path28"
         d="m 206.26,516.43 a 30.25,30.25 0 0 0 -4.91,-4.5 c -5.73,-4.18 -11.42,-8.26 -16.95,-12.71 -8.37,-6.74 -16.51,-13.76 -24.75,-20.66 -19.27,-16.13 -25.07,-37.32 -23.48,-61.35 0.55,-8.23 3.27,-14.66 12.11,-17.94 6.87,-2.55 13,-7 19.55,-10.5 a 38.54,38.54 0 0 0 17.8,-20.21 c 4.48,-11.85 5.15,-24 4.81,-36.43 -0.27,-9.82 -0.62,-19.64 -0.73,-29.46 -0.08,-7 2.69,-12.85 7.8,-17.74 4.88,-4.67 10.55,-8.12 16.24,-11.57 a 31.91,31.91 0 0 0 9.39,-8.17 c 6.22,-8.43 3.05,-20.49 -6.28,-25.25 -7.69,-3.92 -15.69,-4.3 -23.78,0.08 -5.39,2.92 -9.92,7 -15,11.15 0,-3.8 -0.12,-6.93 0,-10 0.48,-10 -3.72,-18 -10.43,-25 -4.39,-4.61 -9.65,-5.82 -15.52,-4.47 -9.7,2.23 -15.58,8.85 -18.18,18 -2.06,7.3 1.49,13.24 6.61,18.3 3.48,3.43 7.33,6.6 8.63,11.89 -3.84,0.4 -6.36,-3.42 -9.52,-4.91 -8.72,-4.09 -18.18,-3.64 -25.39,3.1 -5.07,4.73 -9.92,11.47 -11.07,18.46 a 13.75,13.75 0 0 0 3.92,12 c 4.43,4.32 8.78,2.79 12.93,0.35 3,-1.76 5.92,-3.75 9,-5.39 4.64,-2.47 5.34,-2 5.79,3 1.26,14.15 -1.1,27.54 -8.51,39.85 -11.53,19.14 -21.15,39.25 -30.48,59.52 0.61,2.24 -1.12,4.18 -0.85,6.38 0.76,1.83 2.31,2.1 4,2 6.34,-12 13,-23.95 18.94,-36.16 5.35,-10.94 12.27,-21 17.94,-31.68 6.75,-12.79 9.6,-26.11 5.24,-40.36 a 8.74,8.74 0 0 1 0,-2.21 c 4.52,0.83 5.48,4.7 7.47,7.55 0.79,1.13 1.12,3.23 3.16,2.2 1.61,-0.82 1.3,-2.5 0.87,-4 -3.17,-11 -13.62,-20.5 -27.77,-12.54 -2.75,1.54 -5.4,3.27 -8,5 -1.31,0.86 -2.65,1.75 -4.09,0.71 a 4.38,4.38 0 0 1 -1.55,-4.48 c 1.81,-12.7 16.21,-20.34 27.63,-14.71 a 49.53,49.53 0 0 0 8.27,3.42 7.23,7.23 0 0 0 7.76,-2.21 c 2.14,-2.52 1.23,-5.32 0,-8 a 40.82,40.82 0 0 0 -8.9,-12.2 c -4.5,-4.29 -8.24,-9.08 -5.53,-15.88 2.16,-5.43 10.14,-10.44 16.5,-10.38 5.12,0 7.49,4.26 9.79,7.62 a 28.5,28.5 0 0 1 4.56,20.81 48.91,48.91 0 0 0 -0.16,10 c 0.27,4.3 3.16,5.63 6.89,3.17 5.26,-3.46 9.78,-7.91 15.21,-11.21 6.68,-4.07 13.32,-4.75 20.34,-1.23 5.9,3 7.41,9.31 3.33,14.49 -3.75,4.76 -9.28,7 -14,10.39 -4.92,3.61 -10.13,6.7 -14.33,11.42 -6.6,7.42 -8,16.26 -8.42,25.42 -0.58,11.3 1.49,22.55 0.9,33.88 a 92.17,92.17 0 0 1 -4.14,23.92 29.2,29.2 0 0 1 -11.26,15.34 c -7.4,5.27 -15.13,10 -23.32,15.28 -0.06,-2.91 1.25,-4.49 2.08,-6.19 4.12,-8.52 9,-16.71 11.05,-26.11 a 12.24,12.24 0 0 0 0.46,-2.43 c 0,-1.6 0.49,-3.69 -1.69,-4.15 -2,-0.42 -2.38,1.61 -2.87,2.88 -3.68,9.71 -9.74,18.14 -14.52,27.25 a 74.41,74.41 0 0 0 -8.22,43.27 80.74,80.74 0 0 0 14.16,38.74 c 4.66,6.77 10.76,12.16 16.89,17.5 6.32,5.5 12.6,11.05 19.14,16.29 3.33,2.66 6.72,5.23 10.21,7.67 4.19,2.94 7.76,5.11 10.5,9.63 9.67,16 17.14,33.19 25.73,49.74 2.67,5.15 5.35,10.31 8.22,15.35 0.61,1.07 3,6.59 4.52,6.71 7.47,0.58 -6.05,-28.81 -7.15,-31.21 -4.3,-9.39 -9,-18.61 -13.72,-27.77 -3.36,-6.48 -6.19,-13.05 -10.87,-18.36 z"
         class="cls-2" />
      <path
         style="fill:#b13e6d"
         id="path30"
         d="m 1588.9,584.58 c -2.58,-7.57 -6.1,-14.72 -13.09,-19 -11.6,-7 -21.47,-16.28 -32.29,-24.3 -19.6,-14.51 -39.75,-28 -64,-33.87 -4.39,-1.07 -8.15,-3.73 -11.84,-6.31 -14.29,-10 -26.4,-22.41 -37.86,-35.42 -10,-11.37 -19.72,-22.94 -27,-36.42 -6.21,-11.49 -7.1,-22.21 -1.36,-34.58 6.43,-13.86 6.91,-28.52 -1,-42.76 -6.35,-11.45 -5.73,-13.93 4.9,-21.61 15.17,-11 29.48,-22.73 41.74,-37 14.79,-17.23 17,-33.48 7.35,-53.92 -5.94,-12.5 -15.89,-21.67 -24.47,-32 -7.59,-9.14 -14.41,-18.64 -16.42,-30.89 -2.17,-13.19 -2.7,-26.48 -3.46,-39.76 -0.46,-8.09 1.57,-15.84 3.62,-23.59 1,-3.66 3.07,-4.79 6.58,-4.32 a 9.89,9.89 0 0 1 7.06,4.2 c 2.44,3.37 4.82,6.8 7.49,10 3.23,3.86 7.48,4.64 12.24,3.3 16.26,-4.57 20.35,-31.33 8.72,-38.93 -4.35,-2.85 -6.74,-7.41 -7.62,-12.49 -1.37,-7.9 -6.24,-13 -12.7,-17 -3.34,-2.09 -7.07,-2.75 -10.85,-3.47 -7.56,-1.44 -10.57,-5.64 -11.74,-13.22 -1.51,-9.84 -4.5,-19.91 -10.28,-28.12 A 30.07,30.07 0 0 0 1389.16,2.24 c -13,-5.14 -26,-1 -34.38,10.06 -3.76,5 -6.42,10.5 -9,16.09 -2.25,4.83 -4.43,9.72 -8.25,13.6 -3,3 -6.11,5 -10.83,5 -16.16,0.17 -26.21,15.12 -20.66,30.36 2.23,6.1 4.1,12.3 6.08,18.47 3.32,10.36 4.27,21.17 6.68,31.69 3.39,14.81 12.16,21.21 27.34,20.27 2.33,-0.14 4.65,-0.34 6.95,-0.66 1.41,-0.2 2.75,-0.21 3.73,0.86 5,5.54 11.5,9.51 16.05,15.65 11.55,15.59 16.38,33.68 20.12,52.2 0.88,4.33 2,8.75 0,13.24 a 55.76,55.76 0 0 1 -18.37,23.22 c -9.63,7 -20.45,11.81 -31.31,16.45 a 55.33,55.33 0 0 1 -21.68,4.7 c -7.79,0 -13.78,-2.28 -18.12,5.88 11.45,5.5 27,2.86 38.48,-1.36 14.93,-5.53 29.1,-12.89 41.7,-23.11 13,-10.56 18.27,-24.05 16,-40.09 -2,-14.81 -5.88,-29.4 -12.82,-42.76 -4.74,-9.11 -10.51,-17.74 -19.06,-24 -2.77,-2 -3.45,-3.35 0.63,-5.18 5.54,-2.48 7.79,-7.65 7.42,-13.58 -0.34,-5.43 -3.85,-8.58 -8.82,-10.31 -4.67,-1.62 -9.82,-1.78 -14,-4.86 a 2.59,2.59 0 0 0 -3.61,0.57 c -0.78,1.14 0.08,2.27 0.66,3.23 2.07,3.4 5.74,4.38 9.1,5.73 1.68,0.68 3.55,0.88 5.27,1.48 3,1 4.86,3.22 4.3,6.44 -0.51,2.91 -2.16,4.86 -5.61,5.41 -6.21,1 -12.24,2.92 -18.63,2.85 -8.67,-0.1 -14.76,-4.42 -17.6,-12.7 a 70,70 0 0 1 -2.87,-14.61 c -0.2,-1.66 -0.06,-3.49 -1.15,-4.76 -4.05,-4.7 -4.18,-10.57 -5.19,-16.2 a 107.64,107.64 0 0 0 -5.16,-17.64 c -3.62,-9.92 3.37,-19.67 14,-20.09 9.57,-0.38 17.89,3.34 25.82,8 6.84,4 14.07,7.72 17.82,15.4 A 15.62,15.62 0 0 1 1367.07,95 c -4.57,4.46 -11.39,5.09 -17.52,1.49 -4.54,-2.66 -8.23,-6.13 -10.37,-11.12 -0.58,-1.35 -0.85,-3.85 -3,-3.18 -2,0.62 -1.27,2.95 -1.06,4.42 1.16,8.06 6,13.62 13,17.1 7.45,3.71 14.82,3 21.55,-2.19 0.79,-0.61 1.55,-1.25 2.33,-1.87 2.74,-4.33 5.38,-8.71 6,-14 1,-9.22 -3.68,-15.73 -10.13,-21.39 -1.84,-1.62 -3.9,-3 -5.85,-4.49 -6.34,-3.3 -12.67,-6.65 -19,-9.88 -1.18,-0.59 -2.52,-1.19 -1.09,-2.35 9.34,-7.62 11.54,-19.64 18.09,-29 10.14,-14.51 28.74,-14.55 37.74,0.94 8.3,14.3 11.4,29.68 5.31,45.92 -3.59,9.55 -9.14,10.88 -16.28,3.55 -7,-7.14 -9.1,-16.38 -10.71,-25.79 -0.45,-2.6 -0.72,-5.24 -1.1,-7.86 -0.15,-1 -0.59,-2 -1.75,-2.13 -1.16,-0.13 -1.73,0.81 -2.19,1.69 -1.82,3.46 -0.64,7.22 -1.07,10.82 1.38,10.87 4.06,21.12 12.52,29 9.27,8.66 21,8.24 26.42,-4.76 1.83,-4.38 3.1,-9 4.7,-13.75 5,4.44 10.79,6.58 17.1,7.66 5.76,1 9.64,4.31 11.26,10 2,7.16 5.13,13.58 11.09,18.46 7.52,6.14 3.21,24.27 -7.42,27.11 -3.09,0.83 -5.2,-0.29 -6.87,-2.65 -1.67,-2.36 -3.28,-5 -5,-7.48 a 16.89,16.89 0 0 0 -12.86,-7.54 c -7.55,-0.8 -11.82,2.63 -13.85,10.41 -4.3,16.55 -2.81,33.11 -1.41,49.87 1,11.53 4.56,22.35 6.41,33.59 7.43,18.35 18.49,35.38 20,55.85 0.38,4.94 1.25,9.84 1.91,14.76 0.17,1.21 -0.42,3.14 1.49,3.13 1.91,-0.01 1.44,-1.9 1.48,-3.13 0.35,-13.49 -0.32,-26.87 -4.61,-39.83 a 20.24,20.24 0 0 1 -0.38,-3.08 c 7.15,6.52 11.14,13.8 14.94,21.33 9.08,18 0.84,32.23 -9.51,46.19 -10.35,13.96 -25.22,22.39 -38.36,33 -15.46,12.48 -26.67,28.14 -32.41,47.43 a 29.23,29.23 0 0 0 -0.72,6.41 c 0.16,1.47 0,3.37 1.88,3.6 1.88,0.23 2.06,-1.79 2.5,-3.14 A 95,95 0 0 1 1386,349.43 c 1,-1.34 2.1,-3.55 4.12,-3.08 1.72,0.4 0.85,2.62 1.19,4 1.25,5 4.75,9.07 5.82,14.25 2.42,11.78 0.14,22.77 -4.76,33.41 -4.16,9.05 -3.75,17.9 0.24,26.9 8.09,18.24 18.59,34.73 32.81,48.94 8.07,8.06 15.12,17.15 22.63,25.77 8.45,6.82 17.3,13 28.06,15.56 7.91,1.87 15.92,3.22 23.43,6.54 6.28,2.78 12.89,5.71 17.29,10.68 11.94,13.5 27.23,22.37 41.76,32.33 a 124,124 0 0 0 10.81,6.21 c 5.26,2.86 8.13,7.63 10.7,12.77 1.35,2.7 0.39,4.14 -1.64,5.9 -9.84,8.57 -21.89,12.43 -34,16.06 -18.27,5.48 -37,7.41 -56.06,7.15 -5.82,-0.08 -11.54,1.15 -17.4,1 a 474,474 0 0 1 -72.13,-7.27 c -19.73,-3.65 -39.9,-4.67 -59.34,3 -3.18,1.25 -8.46,2.48 -7.62,5.6 0.95,3.53 5.36,0.27 8.19,-0.23 a 187.48,187.48 0 0 1 26.11,-2.72 c -7.83,3.89 -12.13,10.6 -16.06,17.86 -6.15,11.38 -16.23,16.86 -27.67,20.13 q 1.9,3.79 3.9,7.55 c 14.11,-4.15 25.63,-12.89 32.69,-28.88 4.24,-9.63 14.78,-17.76 32.32,-14.63 12.6,2.24 25,5.78 37.76,7.05 23.75,2.36 47.52,2.12 71.33,1.06 28,-1.24 53.84,-9.8 78.89,-21.58 4.56,-2.14 8.77,-4.65 11.66,-8.93 v -3 c -1.87,-0.89 -1.63,-2.77 -2.13,-4.25 z"
         class="cls-1" />
      <path
         style="fill:#e74c8a"
         id="path32"
         d="m 1580.06,583.69 c -2.57,-5.14 -5.44,-9.91 -10.7,-12.77 a 124,124 0 0 1 -10.81,-6.21 c -14.53,-10 -29.82,-18.83 -41.76,-32.33 -4.4,-5 -11,-7.9 -17.29,-10.68 -7.51,-3.32 -15.52,-4.67 -23.43,-6.54 -10.76,-2.54 -19.61,-8.74 -28.06,-15.56 1.1,6.53 -1.44,10.62 -7.71,13.1 -14.54,5.78 -29.74,9.27 -45,11.79 -16.52,2.73 -28.28,-6.54 -38.3,-18.66 -14.55,-17.6 -16.78,-38 -14.09,-59.59 A 205.8,205.8 0 0 1 1362,381.75 c 0.84,-1.74 1.35,-3.91 3.9,-4 a 29.23,29.23 0 0 1 0.72,-6.41 c 5.74,-19.29 16.95,-34.95 32.41,-47.43 13.14,-10.61 28,-19.09 38.36,-33 10.36,-13.91 18.59,-28.18 9.51,-46.19 -3.8,-7.53 -7.79,-14.81 -14.94,-21.33 a 20.24,20.24 0 0 0 0.38,3.08 c 4.29,13 5,26.34 4.61,39.83 0,1.23 0.42,3.13 -1.48,3.13 -1.9,0 -1.32,-1.92 -1.49,-3.13 -0.66,-4.92 -1.53,-9.82 -1.91,-14.76 -1.56,-20.47 -12.62,-37.5 -20,-55.85 -3.23,2.09 -5.71,1.4 -8,-1.7 -6.11,-8.37 -10.17,-17.76 -14,-27.29 -1.47,-3.69 -3.18,-7.29 -5,-10.85 -3.7,-7.44 -3.68,-15.67 -5.07,-23.59 -0.78,-4.44 -1.67,-8.81 -4.47,-12.46 -4.69,-6.12 -3.49,-13.22 -3.58,-20.12 -0.78,0.62 -1.54,1.26 -2.33,1.87 -6.73,5.16 -14.1,5.9 -21.55,2.19 -7,-3.48 -11.89,-9 -13,-17.1 -0.21,-1.47 -1,-3.8 1.06,-4.42 2.2,-0.67 2.47,1.83 3,3.18 2.14,5 5.83,8.46 10.37,11.12 6.13,3.6 13,3 17.52,-1.49 a 15.62,15.62 0 0 0 3.15,-17.85 c -3.75,-7.68 -11,-11.38 -17.82,-15.4 -7.93,-4.65 -16.25,-8.37 -25.82,-8 -10.64,0.42 -17.63,10.17 -14,20.09 a 107.64,107.64 0 0 1 5.16,17.64 c 1,5.63 1.14,11.5 5.19,16.2 1.09,1.27 0.95,3.1 1.15,4.76 a 70,70 0 0 0 2.87,14.61 c 2.84,8.28 8.93,12.6 17.6,12.7 6.39,0.07 12.42,-1.86 18.63,-2.85 3.45,-0.55 5.1,-2.5 5.61,-5.41 0.56,-3.22 -1.29,-5.39 -4.3,-6.44 -1.72,-0.6 -3.59,-0.8 -5.27,-1.48 -3.36,-1.35 -7,-2.33 -9.1,-5.73 -0.58,-1 -1.44,-2.09 -0.66,-3.23 a 2.59,2.59 0 0 1 3.61,-0.57 c 4.21,3.08 9.36,3.24 14,4.86 5,1.73 8.48,4.88 8.82,10.31 0.37,5.93 -1.88,11.1 -7.42,13.58 -4.08,1.83 -3.4,3.15 -0.63,5.18 8.55,6.25 14.32,14.88 19.06,24 6.94,13.36 10.77,27.95 12.82,42.76 2.23,16 -3,29.53 -16,40.09 -12.6,10.22 -26.77,17.58 -41.7,23.11 -12.62,4.67 -25.71,5.84 -38.69,1.51 -15.1,18.14 -26.08,40.58 -34,61.75 -10.46,28 -17.89,60.25 -12.4,90.2 5.79,31.54 33.25,53.05 40.07,84.2 3.86,17.66 0.5,35.47 0.3,53.27 -0.21,18.58 5.67,35.82 12.48,52.87 3.8,9.52 8,19 12.66,28.39 11.44,-3.27 21.52,-8.75 27.67,-20.13 3.93,-7.26 8.23,-14 16.06,-17.86 a 187.48,187.48 0 0 0 -26.11,2.72 c -2.83,0.5 -7.24,3.76 -8.19,0.23 -0.84,-3.12 4.44,-4.35 7.62,-5.6 19.44,-7.63 39.61,-6.61 59.34,-3 a 474,474 0 0 0 72.13,7.27 c 5.86,0.17 11.58,-1.06 17.4,-1 19,0.26 37.79,-1.67 56.06,-7.15 12.1,-3.63 24.15,-7.49 34,-16.06 2.08,-1.74 3.04,-3.18 1.69,-5.88 z m -270.3,-218.14 a 8.84,8.84 0 0 0 -6,4.47 c -5,8.24 -11.53,14.2 -22,13.75 -5.74,-0.25 -11.11,-1.64 -15.67,-5.39 -1.07,-0.88 -3.28,-1.27 -2.47,-3.16 0.9,-2.12 3.13,-1.8 4.82,-1.14 a 47.71,47.71 0 0 0 10,2.87 c 9,1.42 15.88,-2.92 18.75,-9.61 2.32,-5.41 6.12,-8 11.72,-9.55 11,-3.05 21.85,-6.86 32.75,-10.38 1.78,-0.57 3.94,-1.42 4.83,0.74 0.89,2.16 -1.4,3.12 -3,3.83 -11.16,4.88 -21.92,10.59 -33.73,13.57 z"
         class="cls-4" />
      <path
         style="fill:#d3467f"
         id="path34"
         d="m 1448,499.6 c 1.1,6.53 -1.44,10.62 -7.71,13.1 -14.54,5.78 -29.74,9.27 -45,11.79 -16.52,2.73 -28.28,-6.54 -38.3,-18.66 -14.55,-17.6 -16.78,-38 -14.09,-59.59 a 205.8,205.8 0 0 1 19.1,-64.49 c 0.84,-1.74 1.35,-3.91 3.9,-4 0.16,1.47 0,3.37 1.88,3.6 1.88,0.23 2.06,-1.79 2.5,-3.14 A 95,95 0 0 1 1386,349.43 c 1,-1.34 2.1,-3.55 4.12,-3.08 1.72,0.4 0.85,2.62 1.19,4 1.25,5 4.75,9.07 5.82,14.25 2.42,11.78 0.14,22.77 -4.76,33.41 -4.16,9.05 -3.75,17.9 0.24,26.9 8.09,18.24 18.59,34.73 32.81,48.94 8.03,8.04 15.08,17.15 22.58,25.75 z"
         class="cls-5" />
      <path
         style="fill:#d3467f"
         id="path36"
         d="m 1412,195.65 c -3.23,2.09 -5.71,1.4 -8,-1.7 -6.11,-8.37 -10.17,-17.76 -14,-27.29 -1.47,-3.69 -3.18,-7.29 -5,-10.85 -3.7,-7.44 -3.68,-15.67 -5.07,-23.59 -0.78,-4.44 -1.67,-8.81 -4.47,-12.46 -4.69,-6.12 -3.49,-13.22 -3.58,-20.12 2.74,-4.33 5.38,-8.71 6,-14 1,-9.22 -3.68,-15.73 -10.13,-21.39 -1.84,-1.62 -3.9,-3 -5.85,-4.49 1.65,-5.25 3.23,-10.54 7.91,-14.09 1.38,10.87 4.06,21.12 12.52,29 9.27,8.66 21,8.24 26.42,-4.76 1.83,-4.38 3.1,-9 4.7,-13.75 5,4.44 10.79,6.58 17.09,7.66 5.77,1 9.65,4.31 11.27,10 2,7.16 5.13,13.58 11.09,18.46 7.52,6.14 3.21,24.27 -7.42,27.11 -3.09,0.83 -5.2,-0.29 -6.87,-2.65 -1.67,-2.36 -3.28,-5 -5,-7.48 a 16.89,16.89 0 0 0 -12.86,-7.54 c -7.55,-0.8 -11.82,2.63 -13.85,10.41 -4.3,16.55 -2.82,33.11 -1.41,49.87 1.1,11.59 4.7,22.41 6.51,33.65 z"
         class="cls-5" />
      <path
         style="fill:#e64c8a"
         id="path38"
         d="m 1369.9,45.71 c -4.68,3.55 -6.26,8.84 -7.91,14.09 -6.34,-3.3 -12.66,-6.65 -19,-9.88 -1.18,-0.59 -2.52,-1.19 -1.09,-2.35 9.34,-7.62 11.54,-19.64 18.09,-29 10.14,-14.51 28.74,-14.55 37.74,0.94 8.3,14.3 11.4,29.68 5.31,45.92 -3.59,9.55 -9.14,10.88 -16.28,3.55 -7,-7.14 -9.1,-16.38 -10.71,-25.79 -0.45,-2.6 -0.72,-5.24 -1.1,-7.86 -0.15,-1 -0.59,-2 -1.75,-2.13 -1.16,-0.13 -1.73,0.81 -2.19,1.69 -1.86,3.46 -0.68,7.22 -1.11,10.82 z"
         class="cls-7" />
      <path
         style="fill:#b23b6c"
         id="path40"
         d="m 1281.69,383.77 c -5.74,-0.25 -11.11,-1.64 -15.67,-5.39 -1.07,-0.88 -3.28,-1.27 -2.47,-3.16 0.9,-2.12 3.13,-1.8 4.82,-1.14 a 47.71,47.71 0 0 0 10,2.87 c 9,1.42 15.88,-2.92 18.75,-9.61 2.32,-5.41 6.12,-8 11.72,-9.55 11,-3.05 21.85,-6.86 32.75,-10.38 1.78,-0.57 3.94,-1.42 4.83,0.74 0.89,2.16 -1.4,3.12 -3,3.83 -11.07,4.88 -21.83,10.59 -33.64,13.57 a 8.84,8.84 0 0 0 -6,4.47 c -5.01,8.24 -11.59,14.2 -22.09,13.75 z"
         class="cls-6" />
      <path
         style="fill:#b13e6d"
         id="path42"
         d="m 1315,273.75 c -4.19,0.05 -9.22,-0.28 -12.28,3.11 a 142,142 0 0 0 -10.58,13.39 179.29,179.29 0 0 0 -16.63,29.57 277.06,277.06 0 0 0 -12,32 323.51,323.51 0 0 0 -9.07,35.44 c -4.39,23.24 -4.53,48.52 7.49,69.65 5.84,10.25 15.08,17.86 21.36,27.77 6.28,9.91 9.64,21.5 13,32.68 1.8,6.09 3.11,12.15 2.82,18.53 -0.29,6.18 -1.44,12.3 -2.08,18.45 -1.24,11.89 -1.46,24.11 1.44,35.8 a 62.9,62.9 0 0 0 2.76,8.43 3.08,3.08 0 0 0 3.69,2.09 c 1.42,-0.39 2.71,-2.18 2.09,-3.69 -4.43,-10.88 -5.29,-22.59 -4.66,-34.22 0.32,-5.84 1,-11.64 1.78,-17.43 0.84,-6.27 1.39,-12.4 0.48,-18.7 -0.87,-6 -2.8,-11.83 -4.61,-17.61 -1.75,-5.6 -3.6,-11.16 -5.9,-16.56 a 71.47,71.47 0 0 0 -8.5,-15 c -3.49,-4.61 -7.43,-8.83 -11.15,-13.26 a 69.27,69.27 0 0 1 -14.55,-29.36 c -2.61,-11.33 -2.69,-23.08 -1.38,-34.59 1.38,-12.12 4.35,-24 7.6,-35.77 a 320.53,320.53 0 0 1 10.44,-31.77 199.76,199.76 0 0 1 14.29,-29.43 158.1,158.1 0 0 1 9.2,-13.74 c 1.65,-2.19 3.36,-4.31 5.14,-6.39 a 20.19,20.19 0 0 1 2.37,-2.68 c -0.26,0.21 0.26,-0.1 0.29,-0.12 a 9,9 0 0 1 1.7,-0.41 40,40 0 0 1 5.47,-0.2 c 3.86,0 3.87,-6 0,-6 z"
         class="cls-1" />
    </g>
  </g>
</svg>
