<svg xmlns="http://www.w3.org/2000/svg" viewBox="0 0 971 698"><defs><style>.cls-1{fill:#b13e6d;}.cls-2{fill:#af3b6a;}.cls-3{fill:#d3467f;}.cls-4{fill:#e74c8a;}.cls-5{fill:#fefdfe;}</style></defs><title>monster_3</title><g id="Layer_2" data-name="Layer 2"><g id="Layer_1-2" data-name="Layer 1"><path class="cls-1" d="M208,0c-21,5.84-27,22.62-29.93,41.41-1.17,7.58-4.18,11.78-11.74,13.22-3.78.72-7.51,1.38-10.85,3.47-6.46,4-11.33,9.14-12.7,17-.88,5.08-3.27,9.64-7.62,12.49-11.63,7.6-7.54,34.36,8.72,38.93,4.76,1.34,9,.56,12.24-3.3,2.67-3.18,5-6.61,7.49-10a9.89,9.89,0,0,1,7.06-4.2c3.51-.47,5.61.66,6.58,4.32,2.05,7.75,4.08,15.5,3.62,23.59-.76,13.28-1.29,26.57-3.46,39.76-2,12.24-8.83,21.75-16.42,30.89-8.58,10.35-18.53,19.52-24.47,32-9.7,20.44-7.44,36.69,7.35,53.92,12.26,14.29,26.57,26.06,41.74,37,10.63,7.68,11.25,10.16,4.9,21.61-7.91,14.24-7.43,28.89-1,42.76,5.74,12.37,4.85,23.08-1.36,34.58-7.29,13.48-17,25.05-27,36.42-11.46,13-23.57,25.4-37.86,35.41-3.69,2.59-7.45,5.25-11.84,6.31-24.21,5.88-44.36,19.36-64,33.88-10.82,8-20.69,17.27-32.29,24.3-7,4.24-10.51,11.39-13.09,19-.5,1.47-.26,3.36-2.1,4.17v3c2.89,4.28,7.1,6.79,11.66,8.93,25.05,11.78,50.93,20.34,78.89,21.58,23.81,1.06,47.58,1.3,71.33-1.06,12.79-1.28,25.15-4.81,37.76-7.05,17.54-3.13,28.08,5,32.32,14.63,10.1,22.89,29.34,30.93,52.23,31.91,27.84,1.19,54.62-4.16,79.59-17.08,11.36-5.88,23.54-8.81,36-11.29,9.35-1.85,15.81.36,21.3,8.23,9.42,13.53,19.68,26.43,31.76,37.79a59.16,59.16,0,0,0,22.84,13.86c5.77,1.83,11.53,3.7,17.3,5.55h19c2-1.81,4.55-1.54,6.91-1.84a37,37,0,0,0,14.62-4.72c7.3-4.35,14.4-9,21.32-13.92,13.32-9.54,27.46-14.89,43.88-7.85a46.23,46.23,0,0,0,10.57,2.9c5.76,1,11.61,1.35,17.31-.43,6.11-1.89,8.29-7.46,5.09-13-1.18-2-2.74-3.87-4.71-6.61,14.62,2.11,28.24,4.31,41.92,6,11.36,1.39,22.72,3.56,34.26,1.59,7.08-1.22,10.84-5.88,9.89-13a38.53,38.53,0,0,0-2.5-8.59c-1.29-3.32-.37-5.51,2.8-6.82a24.63,24.63,0,0,1,5.64-1.94c11.68-1.71,23.38-3.26,35.08-4.85a6.91,6.91,0,0,1,2,0,87.75,87.75,0,0,0,40.36-2.67c13.73-4.08,17.48-10.34,14.78-21.71a7.48,7.48,0,0,1-.05-1.5c-.19-7.17,1-8.77,8-10.16,11.8-2.35,23.15-.17,34.33,3.64,26.79,9.13,54.64,11.62,82.64,12.08,11.84.19,24.11,0,34.88-6.59V583c-7.74-7-17.09-11.39-26.09-16.32a23.76,23.76,0,0,1-10.3-10.36c-12-23.49-22.77-47.38-25.21-74.1C908,467,907.11,451.73,904,436.73c-2.76-13.49-5.41-27-11.13-39.7a2,2,0,0,1-.86-2.09l0,.05c-1.61-.54-2.15-2-2.7-3.35-3.26-8-8.52-14.69-13.32-21.7-.77,1.86-2.32,2.16-4.06,2.07,1.74,6.42,4.91,12.22,8,18.05,2.21.17,3.28-.79,3-3.07-.38-.35-1.29-.55-.37-1.27L883,387a18.4,18.4,0,0,1,4,8.05,12.66,12.66,0,0,0,.63,2.86c5.24,11.12,7.14,23.13,9.36,35.05,1,6.7,2.33,13.37,3,20.11,1.27,13,1.43,26.11,3,39.12,3.28,27.43,13.37,52.3,28.26,75.29,3.12,4.82,6.1,11.3,14.19,8.85.36-.11,1,.27,1.36.55,5.2,3.54,10.9,6.37,15.49,10.8,2.75,2.65,2,4.41-1.39,5.15A77.7,77.7,0,0,1,945.1,595c-14,.18-27.9.06-41.75-2-12.26-1.83-24.8-2-36.74-5.69-14.63-4.57-29.23-8.52-44.9-7.46-12.39.85-18.72,6.54-18.72,18.71a34.59,34.59,0,0,0,0,5c.68,4.75-1.46,7.92-5.74,9.24-10,3.05-19.64,8.76-30.71,4.36a8.19,8.19,0,0,0-3-.13c-12.94.22-25.78,1.78-38.6,3.31-5.17.62-10.52,1.4-15.38,3.83-7,3.52-9.22,8.58-6.71,16,.8,2.36,1.87,4.63,2.62,7,1.13,3.56-.47,5.51-4,5.78a142.21,142.21,0,0,1-30.64-1.5c-10.31-1.48-20.57-3.38-30.93-4.39-18.09-1.76-35.34-5.67-50.19-16.87-2.95-2.23-5.88-3.49-8.61.19-2.6,3.5.3,5.63,2.39,7.54a69.69,69.69,0,0,0,17.51,11.24c6.32,3,12.62,6.06,18.74,9.43,1.7.93,4.45,2.54,3.63,4.79-1,2.72-3.93,1.49-6.18,1.22-7.14-.87-13.8-3.46-20.63-5.52-9.24-2.79-18.54-3.35-27.86.07-8.67,3.17-16.33,8-23.84,13.3-8.92,6.3-17.77,13-29.22,14.13a87.06,87.06,0,0,1-22.34-.58c-11.49-1.81-22.11-5.31-31.18-13.11a209.32,209.32,0,0,1-26.47-27c-3.48-4.31-8.16-7.58-11.48-13.1,14.81,2.12,24.8,11.76,36,19.28,1.25-2.48.09-4-.94-5.06a83.85,83.85,0,0,0-9.71-9.31c-6.06-4.68-13.25-7.39-19.55-11.61a12.17,12.17,0,0,1-3-.25c-17-5.62-33.6-2.94-49.8,2.72-21.9,7.66-43.15,17.14-66.26,21.14-12,2.07-23.75,4.94-35.95,2.3-14.05-3-26.84-8.27-34.12-21.74-3.93-7.26-8.23-14-16.06-17.86a187.48,187.48,0,0,1,26.11,2.72c2.83.5,7.24,3.76,8.19.23.84-3.12-4.45-4.35-7.62-5.6-19.44-7.64-39.61-6.61-59.34-3A472.7,472.7,0,0,1,120,614c-5.86.18-11.58-1-17.4-1-19,.26-37.79-1.67-56.06-7.15-12.1-3.64-24.15-7.49-34-16.06-2-1.76-3-3.2-1.64-5.9,2.57-5.14,5.44-9.91,10.7-12.77A124,124,0,0,0,32.45,565C47,555,62.27,546.12,74.21,532.63c4.4-5,11-7.9,17.29-10.68,7.51-3.32,15.53-4.67,23.43-6.54,10.76-2.54,19.61-8.74,28.06-15.56,7.51-8.63,14.56-17.71,22.63-25.77,14.22-14.21,24.72-30.7,32.81-48.94,4-9,4.4-17.85.24-26.9-4.9-10.64-7.18-21.63-4.76-33.41,1.07-5.18,4.57-9.21,5.82-14.25.34-1.36-.53-3.58,1.19-4,2-.48,3.07,1.74,4.12,3.08a95,95,0,0,1,15.66,28.74c.44,1.35.45,3.39,2.5,3.14s1.72-2.14,1.88-3.6a29.23,29.23,0,0,0-.72-6.41c-5.74-19.29-17-34.95-32.41-47.43-13.14-10.61-28-19.09-38.36-33s-18.59-28.18-9.51-46.19c3.8-7.53,7.79-14.81,14.94-21.33a20.44,20.44,0,0,1-.38,3.08c-4.29,13-5,26.34-4.61,39.83,0,1.23-.42,3.13,1.48,3.13s1.32-1.92,1.49-3.14c.66-4.91,1.53-9.81,1.91-14.75,1.56-20.47,12.62-37.5,20.05-55.85,1.85-11.24,5.45-22.07,6.41-33.59,1.41-16.76,2.89-33.32-1.41-49.87-2-7.78-6.3-11.21-13.85-10.41a16.89,16.89,0,0,0-12.86,7.54c-1.67,2.48-3.22,5-4.95,7.48s-3.78,3.48-6.87,2.65c-10.63-2.84-14.94-21-7.42-27.12,6-4.87,9.05-11.29,11.09-18.45,1.62-5.69,5.5-9,11.27-10,6.3-1.08,12.1-3.22,17.09-7.66,1.6,4.75,2.87,9.37,4.7,13.75,5.42,13,17.16,13.41,26.42,4.76,8.46-7.9,11.14-18.15,12.53-29-.44-3.59.74-7.36-1.08-10.81-.46-.88-1-1.85-2.19-1.69s-1.6,1.09-1.75,2.13c-.38,2.62-.65,5.25-1.1,7.86-1.61,9.41-3.76,18.65-10.71,25.79-7.14,7.33-12.69,6-16.28-3.56-6.09-16.23-3-31.61,5.31-45.91,9-15.49,27.6-15.45,37.74-.94,6.55,9.36,8.75,21.38,18.09,29,1.43,1.17.08,1.77-1.09,2.36-6.38,3.23-12.7,6.57-19,9.88-1.95,1.49-4,2.87-5.85,4.49C216.71,70.2,212,76.71,213,85.93c.59,5.25,3.23,9.63,6,14,.78.62,1.54,1.26,2.33,1.87,6.73,5.16,14.1,5.9,21.55,2.19,7-3.48,11.89-9,13.05-17.1.21-1.47.95-3.81-1.06-4.42-2.2-.67-2.47,1.83-3.05,3.18-2.14,5-5.83,8.46-10.37,11.12-6.13,3.6-12.95,3-17.52-1.49a15.62,15.62,0,0,1-3.15-17.85c3.75-7.68,11-11.39,17.82-15.4,7.93-4.65,16.25-8.37,25.82-8,10.64.42,17.63,10.17,14,20.09a106.84,106.84,0,0,0-5.16,17.63c-1,5.64-1.14,11.51-5.19,16.2-1.09,1.28-.95,3.1-1.15,4.77a69.76,69.76,0,0,1-2.87,14.6c-2.84,8.29-8.93,12.61-17.6,12.71-6.39.07-12.42-1.87-18.63-2.85-3.45-.55-5.1-2.5-5.61-5.41-.56-3.22,1.29-5.39,4.3-6.44,1.72-.6,3.59-.8,5.27-1.48,3.36-1.36,7-2.33,9.1-5.73.58-1,1.44-2.09.66-3.24a2.59,2.59,0,0,0-3.61-.56c-4.21,3.08-9.36,3.24-14,4.86-5,1.73-8.48,4.88-8.82,10.31-.37,5.93,1.88,11.1,7.42,13.58,4.08,1.83,3.4,3.15.63,5.18-8.55,6.25-14.32,14.87-19.06,24-6.94,13.36-10.77,27.95-12.82,42.76-2.23,16,3,29.53,16,40.09,12.6,10.22,26.77,17.58,41.7,23.11,14.26,5.27,29.11,6.1,43.72-.44a178.7,178.7,0,0,0,35.21-20.55c4.19-3.18,5.1-1.1,6,2.15,1.87,6.68,1.46,13.46.37,20.23-.18,1.11-.7,2.47.72,3.06s2-.8,2.49-1.78c4.78-8.91,3-28.3-3.39-36.07-3-3.62-6.79-6.33-10.58-9.05-3.41-2.45-6.09-5.85-5.32-10.08A58.66,58.66,0,0,1,325,206.46c7.16-12.27,16.89-22.62,25.87-33.41,15.37-18.49,29.2-37.81,40.32-59.16,9-17.23,17.63-34.67,29.83-50,8.72-11,18.33-20.64,32.1-25a79.33,79.33,0,0,1,24.49-3.74c13.76.07,27.55-1.81,42.05.44-1.89.66-3.1,1.1-4.32,1.51-15.63,5.17-31.76,8.32-47.77,12a54.9,54.9,0,0,0-15,5.29c-1.43.81-2.94,2-2.23,4,.61,1.73,2.28,1.81,3.79,1.67,2.31-.23,4.6-.59,6.88-1,15.2-2.45,30.48-4.51,45.57-7.48C523,48.29,538,40.89,553.24,34.31c7.8-3.37,15.7-5.51,24.21-4,17.27,3.12,27.66,16.12,39.22,27.43.06.07,0,.32-.08.48-.56.58-1.15.35-1.8.16-1.26-.36-2.72-1-3.47.67-.59,1.28.5,2.15,1.29,3a16.87,16.87,0,0,0,2.16,2.07c7,5.11,13.67,10.62,21,15.16a163.73,163.73,0,0,1,46,42.89c12.2,16.65,21.82,34.51,26.7,54.69,2.15,8.89-.86,13.63-9.44,15.15l-.45.4.4-.45c0-4.37-2.75-4.65-5.73-3.49-10.45,4.08-18.44,11.07-23.25,21.27-3.36,7.13-1.91,15-2.86,22.55-.66,5.23-1.59,10.5-1.25,15.86a3.29,3.29,0,0,1-2.12,3.61c-1.61.46-2.13-1.08-3-2.08A59.44,59.44,0,0,1,650.14,233c-1-2.47-2.22-4.7-5.06-4.8s-4.35,2.24-5.35,4.55a34,34,0,0,0-2.65,14.57c.23,7.5-.93,14.9-1.09,22.36,0,1.39-.23,3-1.4,3.56s-2.43-.62-3.44-1.52a18.59,18.59,0,0,1-4.16-5.54c-4.83-9.22-6-19.66-9.91-29.18C613.57,228.32,609,220.57,599,218l-1,3.88c8.48,2.44,12.21,9.32,14.82,16.75,2.81,8,4.7,16.27,7.22,24.36a29.31,29.31,0,0,0,9.72,14.82c5.69,4.5,10.46,3,12.13-4.08a90.85,90.85,0,0,0,2.21-19.81c.06-4.32-.28-8.68,1.55-14,3,5.48,6.67,9.53,9.94,13.94,2.39,3.22,5,6,9.51,5s7.09-4.35,7.76-8.78c1.25-8.39,3.4-16.88,3-25.23-.65-13.86,8.49-21.34,20.55-24.38,18.29-4.62,23.65-12,18.55-30.22-5.57-19.92-15.14-37.95-27.67-54.47-11-14.47-23.19-27.6-38.66-37.24-7.78-4.85-12.5-12.09-18.07-18.92-12.11-14.84-24.74-29.44-43.19-36.85a44.5,44.5,0,0,0-32.26-.62c-8,2.84-15.94,5.85-23.76,9.12a10.76,10.76,0,0,1-7.23.58c-4.6-1.44-9.41-1.36-14-2.1-17.46-2.81-35.21-3.41-52.69-.34-19.24,3.38-33.52,15-44.86,30.3C402.08,73.78,394,89.35,386.38,105.08c-14.31,29.51-34.39,55-55,80.14-8.08,9.84-15.48,20-19.17,32.43-3.45,11.64-1.74,17.8,7.86,25.44,8.25,6.56,8.21,6.48-1.29,11.22-8.19,4.09-16.36,8.24-24.39,12.65-15.25,8.37-30.8,8.67-46.6,2-11.05-4.65-22-9.53-31.74-16.72a55,55,0,0,1-18.18-23.38c-1.89-4.48-.71-8.95.19-13.26,3.79-18.15,8.46-36,19.74-51.32,4.63-6.32,11.2-10.42,16.34-16.08,1-1.07,2.3-1.09,3.71-.91,2.81.35,5.63.63,8.45.77,13.57.64,22.49-6,25.7-19.34,2.56-10.65,3.35-21.67,6.75-32.2,2.05-6.32,3.91-12.69,6.2-19,5.57-15.25-4.47-30.21-20.63-30.39-4.71-.06-7.87-2-10.84-5-3.82-3.88-6-8.77-8.25-13.6-2.6-5.6-5.26-11.14-9-16.09-3.9-5.12-7.94-9.89-14.89-10.82C220.48,1.56,219.77.58,219,0Z"/><path class="cls-2" d="M872,372c1.74.09,3.29-.21,4.06-2.06.27-2.18-1.49-4.1-.84-6.33-9.46-20.39-19.15-40.65-30.75-59.95-7.3-12.16-9.5-25.44-8.28-39.41.44-5.05,1.15-5.48,5.77-3,3.08,1.64,6,3.62,9,5.39,3.75,2.2,7.67,3.69,11.67.76a12.67,12.67,0,0,0,5.27-12.7,24.32,24.32,0,0,0-4.32-10.54,52.41,52.41,0,0,0-4-5.13c-2.49-2.75-3.38-7.5-7.76-7.87-7.55-.66-15.3-2-22.27,2.78-2.24,1.54-4.34,3.52-7.92,4a20,20,0,0,1,4.9-8.36c1.21-1.37,2.61-2.57,3.91-3.86,7.1-7.12,9-14.8,5.47-22.09-4.88-10.07-14.35-15.83-24-14.58a12.08,12.08,0,0,0-6.67,3.13c-7.78,7-12.67,15.35-12.33,26.19.11,3.29,0,6.58,0,10.61-5.09-4.23-9.64-8.27-15-11.19-8.61-4.67-17.11-3.95-25.24.69-9.23,5.26-11.14,15.95-4.82,24.49a31.82,31.82,0,0,0,9.36,8.14c5.54,3.37,11.07,6.74,15.88,11.22,5.46,5.08,8.31,11.18,8.2,18.58q-.21,14.25-.72,28.47c-.47,13.08.27,25.9,5.33,38.25,3,7.2,7.16,13.1,14,16.94,7.56,4.22,14.79,9.29,22.77,12.44,8.7,3.44,11.57,9.68,12.11,17.95,1.58,24-4.21,45.22-23.47,61.36-14.55,12.19-28.55,25.07-45,34.85a100.35,100.35,0,0,1-36.29,13.47c-1.83.28-3.63.57-5.37-.35-9-4.77-16.68-10.62-20.37-20.86-4.68-12.95-5.57-26.7-9.22-39.84q-1.33-4.81-2.85-9.56c-2.95-9.25-7-17.7-17.25-21.3,16.65-10.9,18.1-15.46,11.2-33.79a84.26,84.26,0,0,0-8.07-16c-6.23-9.63-7.17-20.21-5.57-31.22.64-4.45,1.49-8.86,2.18-13.3,1.37-8.86-1.33-13.86-9.54-17.55-6.85-3.08-14.13-4.87-21.35-6.84-11.23-3.05-22.43-6.17-33.44-10S594.24,271.9,593,260.74c-1.5-13.35,1.6-26.12,5-38.85l1-3.88c-3.85-1.52-8-3.6-11.62-.41-3.29,2.91-2.39,7.34-2.16,11.31,0,.49.36,1,.39,1.44.41,6.78,1.55,13.64-1.79,20.06-2.29,4.39-6.51,4.82-9.58.94a24.42,24.42,0,0,1-5.19-13.29c-1.07-12.86-9.11-21.72-21.89-24.13-12-2.26-24.34-3.23-35.8-8-5.65-2.34-10.18-7-16.44-8.13-12.36-2.3-17.42.31-17.85,12.58-.12,3.33.08,6.67-.09,10-.68,13.07-1.57,26.14-4.9,38.86-2.32,8.83-5.16,17.51-7.35,26.36-2.38,9.67-.6,18.32,6.89,25.58a105.67,105.67,0,0,0,15.73,13.08c-9-.95-16.36.56-23.83.74-1.26,0-3-.39-3.26,1.42s1.36,2.41,3,2.52c5,.33,9.92.87,14.88,1,15.05.29,30.15-2.69,45.14,1,9.33,2.32,19,3.75,26.91,9.77,4,3,7.65,6.38,11.61,9.4,5.2,4,7.56,3.54,11.19-2.19,2.84-4.48,5.06-9.37,8-13.77,3.73-5.57,8.91-7.75,15.85-6.5,10.84,2,20.95,6.39,31.67,8.67,5.79,1.23,7.86.08,9.52-5.55.8-2.7,1.43-5.72,4.36-6.92a159.81,159.81,0,0,1,25.26-7.53c-.77,4.54-1.69,8.56-2.11,12.65-1.28,12.74-1,25.19,7,36.23a71.18,71.18,0,0,1,12.13,26c.81,3.58.19,6.62-2.51,9.1-8.93,8.18-19.88,11.69-31.56,11.32a112.78,112.78,0,0,1-34.51-6.63c-.72,3.25,1.43,4.44,3.89,5.38A100.54,100.54,0,0,0,659.39,417c2.16-.07,4.43-2,6.3-.8,5.66,3.53,12.17,6.06,15,13.1A177.6,177.6,0,0,1,691,467c1.66,6.08,3.09,12.22,5,18.21,2.29,7.08,6.1,13.47,12,18A79.58,79.58,0,0,0,760.55,520c2-.06,4.62.14,4.8-2.29.16-2.07-2.52-1.59-4-2a35.38,35.38,0,0,0-4.4-.7,86.48,86.48,0,0,1-20.43-5.48c14.91-1.91,26.89-7.69,38.43-14.81,13.23-8.16,24.73-18.46,36.37-28.59,6.13-5.34,12.23-10.73,16.89-17.5a80.74,80.74,0,0,0,14.16-38.74,74.41,74.41,0,0,0-8.22-43.27c-4.78-9.11-10.84-17.54-14.52-27.25-.49-1.27-.91-3.31-2.87-2.88-2.18.46-1.7,2.55-1.69,4.15a12.24,12.24,0,0,0,.46,2.43c2.05,9.4,6.93,17.59,11.06,26.11.82,1.7,2.13,3.27,2.07,6-8.27-5-15.89-9.92-23.32-15.14a29.07,29.07,0,0,1-11.26-15.34A92.17,92.17,0,0,1,790,320.79c-.59-11.33,1.48-22.59.9-33.88-.46-9.17-1.82-18-8.42-25.42-4.2-4.72-9.41-7.81-14.33-11.42-4.54-3.32-9.88-5.5-13.62-10-4.52-5.42-3.32-11.74,3-14.91,7-3.52,13.66-2.84,20.34,1.23,5.43,3.3,9.95,7.75,15.21,11.21,3.73,2.46,6.62,1.13,6.89-3.17a48.91,48.91,0,0,0-.16-10,28.5,28.5,0,0,1,4.56-20.81c2.3-3.37,4.67-7.58,9.79-7.62,6.36-.06,14.34,4.95,16.5,10.38,2.68,6.73-1,11.49-5.4,15.75A40.76,40.76,0,0,0,816,235c-1.13,2.54-1.8,5.14.2,7.49a7.21,7.21,0,0,0,7.76,2.22,49.53,49.53,0,0,0,8.27-3.42c11.42-5.63,25.82,2,27.63,14.71a4.39,4.39,0,0,1-1.55,4.48c-1.44,1-2.78.15-4.09-.72-2.64-1.73-5.29-3.46-8-5-14.15-8-24.6,1.51-27.77,12.54-.43,1.51-.74,3.19.87,4,2,1,2.37-1.07,3.16-2.2,2-2.85,3-6.72,7.47-7.55a8.74,8.74,0,0,1,0,2.21c-4.36,14.25-1.51,27.57,5.24,40.36,5.67,10.73,12.59,20.74,17.94,31.67C859,348.06,865.64,360,872,372Z"/><path class="cls-3" d="M875.2,363.62c-.65,2.23,1.11,4.15.84,6.33,4.8,7,10.06,13.73,13.32,21.69.55,1.34,1.09,2.81,2.7,3.35C888.51,383.42,882.32,373.27,875.2,363.62Z"/><path class="cls-4" d="M614.27,404.39c-4.12,4.66-8.88,1.17-13.31,1.05-9.2-.25-18.31-2.82-27.61-.55-4.12,1-5,3.34-3.9,7,2.71,9.3,8.91,15.06,17.9,18.42,9.16,3.41,18.81,3.65,28.26,4.53,17.42,1.61,33.9,5.38,48.48,15.55.74.52,1.89.45,2.85.66a75.35,75.35,0,0,1,7.11,24.68c.1,1-.46,2.72,1.27,2.68,1.34,0,1.51-1.48,1.64-2.68.59-5.4-1.31-10.47-2-15.7,2-1.07,2.59,1,3.31,1.9,3.35,4.06,7.61,5.49,12.69,5.1,1.65,6.08,3.08,12.22,5,18.21,2.29,7.08,6.1,13.47,12,18A79.58,79.58,0,0,0,760.55,520c2-.06,4.62.14,4.8-2.29.16-2.07-2.52-1.59-4-2a35.38,35.38,0,0,0-4.4-.7,86.48,86.48,0,0,1-20.43-5.48c14.91-1.91,26.89-7.69,38.43-14.81,13.23-8.16,24.73-18.46,36.37-28.59,6.13-5.34,12.23-10.73,16.89-17.5a80.74,80.74,0,0,0,14.16-38.74,74.41,74.41,0,0,0-8.22-43.27c-4.78-9.11-10.84-17.54-14.52-27.25-.49-1.27-.91-3.31-2.87-2.88-2.18.46-1.7,2.55-1.69,4.15a12.24,12.24,0,0,0,.46,2.43c2.05,9.4,6.93,17.59,11.06,26.11.82,1.7,2.13,3.27,2.07,6-8.27-5-15.89-9.92-23.32-15.14a29.07,29.07,0,0,1-11.26-15.34A92.17,92.17,0,0,1,790,320.79c-.59-11.33,1.48-22.59.9-33.88-.46-9.17-1.82-18-8.42-25.42-4.2-4.72-9.41-7.81-14.33-11.42-4.54-3.32-9.88-5.5-13.62-10-4.52-5.42-3.32-11.74,3-14.91,7-3.52,13.66-2.84,20.34,1.23,5.43,3.3,9.95,7.75,15.21,11.21,3.73,2.46,6.62,1.13,6.89-3.17a48.91,48.91,0,0,0-.16-10,28.5,28.5,0,0,1,4.56-20.81c2.3-3.37,4.67-7.58,9.79-7.62,6.36-.06,14.34,4.95,16.5,10.38,2.68,6.73-1,11.49-5.4,15.75A40.76,40.76,0,0,0,816,235c-1.13,2.54-1.8,5.14.2,7.49a7.21,7.21,0,0,0,7.76,2.22,49.53,49.53,0,0,0,8.27-3.42c11.42-5.63,25.82,2,27.63,14.71a4.39,4.39,0,0,1-1.55,4.48c-1.44,1-2.78.15-4.09-.72-2.64-1.73-5.29-3.46-8-5-14.15-8-24.6,1.51-27.77,12.54-.43,1.51-.74,3.19.87,4,2,1,2.37-1.07,3.16-2.2,2-2.85,3-6.72,7.47-7.55a8.74,8.74,0,0,1,0,2.21c-4.36,14.25-1.51,27.57,5.24,40.36,5.67,10.73,12.59,20.74,17.94,31.67C859,348.06,865.64,360,872,372c1.74,6.42,4.91,12.22,8,18.05.69,1.68,1.29,3.41,2.1,5,1.59,3.16,3.28,3.21,4.88,0a12.66,12.66,0,0,0,.63,2.86c5.24,11.12,7.14,23.13,9.36,35.05-9.82.1-10.21,0-12.85,9.57-4.1,14.82-9.65,29.24-12,44.53-.6,3.89-2.33,7.58-3.33,11.42-1.85,7.14-8.28,10.4-13.42,13.84a136.3,136.3,0,0,0-13.38,10,45.68,45.68,0,0,1-24.06,10.95c-11.92,1.65-18.16,10.75-24,20-4.68,7.44-9.16,15-13.8,22.49-5.62,9-13.68,13.47-24.46,13.26-9.13-.17-18.38.72-26.73-4.14-6.48-3.77-11.8-9.13-17.93-13.35-13.78-9.48-27.48-19.18-43.83-24.05-2.9-.86-4.72-.43-6.74,2.25-5.46,7.26-12.12,13.57-15.62,22.31-1.42,3.55-5.13,4.37-8.94,3.36-7.69-2-15.34-4.2-23.08-6-11.85-2.71-21.25-.2-30.06,9.64-8.64,9.65-13.83,19.94-16,32.33-2.61,14.82-12.65,22.59-25.64,28.65-17,7.92-33.26,5.12-49.8-.48-15.87-5.37-31.7-10.88-48.21-14-4.33-.83-8.78-1.51-13.06.48a12.17,12.17,0,0,1-3-.25c-17-5.62-33.6-2.94-49.8,2.72-21.9,7.66-43.15,17.14-66.26,21.14-12,2.07-23.75,4.94-35.95,2.3-14.05-3-26.84-8.27-34.12-21.74-3.93-7.26-8.23-14-16.06-17.86a187.48,187.48,0,0,1,26.11,2.72c2.83.5,7.24,3.76,8.19.23.84-3.12-4.45-4.35-7.62-5.6-19.44-7.64-39.61-6.61-59.34-3A472.7,472.7,0,0,1,120,614c-5.86.18-11.58-1-17.4-1-19,.26-37.79-1.67-56.06-7.15-12.1-3.64-24.15-7.49-34-16.06-2-1.76-3-3.2-1.64-5.9,2.57-5.14,5.44-9.91,10.7-12.77A124,124,0,0,0,32.45,565C47,555,62.27,546.12,74.21,532.63c4.4-5,11-7.9,17.29-10.68,7.51-3.32,15.53-4.67,23.43-6.54,10.76-2.54,19.61-8.74,28.06-15.56-1.1,6.52,1.44,10.61,7.71,13.1,14.54,5.78,29.74,9.27,45,11.79,16.52,2.73,28.28-6.54,38.3-18.66,14.55-17.6,16.78-38,14.09-59.59A205.8,205.8,0,0,0,229,382c-.84-1.74-1.35-3.91-3.9-4a29.23,29.23,0,0,0-.72-6.41c-5.74-19.29-17-34.95-32.41-47.43-13.14-10.61-28-19.09-38.36-33s-18.59-28.18-9.51-46.19c3.8-7.53,7.79-14.81,14.94-21.33a20.44,20.44,0,0,1-.38,3.08c-4.29,13-5,26.34-4.61,39.83,0,1.23-.42,3.13,1.48,3.13s1.32-1.92,1.49-3.14c.66-4.91,1.53-9.81,1.91-14.75,1.56-20.47,12.62-37.5,20.05-55.85,3.23,2.09,5.71,1.4,8-1.7,6.11-8.37,10.17-17.76,14-27.29,1.47-3.69,3.18-7.29,4.95-10.85,3.71-7.44,3.68-15.67,5.07-23.59.78-4.44,1.67-8.81,4.47-12.46,4.69-6.12,3.49-13.22,3.58-20.12.78.62,1.54,1.26,2.33,1.87,6.73,5.16,14.1,5.9,21.55,2.19,7-3.48,11.89-9,13.05-17.1.21-1.47.95-3.81-1.06-4.42-2.2-.67-2.47,1.83-3.05,3.18-2.14,5-5.83,8.46-10.37,11.12-6.13,3.6-12.95,3-17.52-1.49a15.62,15.62,0,0,1-3.15-17.85c3.75-7.68,11-11.39,17.82-15.4,7.93-4.65,16.25-8.37,25.82-8,10.64.42,17.63,10.17,14,20.09a106.84,106.84,0,0,0-5.16,17.63c-1,5.64-1.14,11.51-5.19,16.2-1.09,1.28-.95,3.1-1.15,4.77a69.76,69.76,0,0,1-2.87,14.6c-2.84,8.29-8.93,12.61-17.6,12.71-6.39.07-12.42-1.87-18.63-2.85-3.45-.55-5.1-2.5-5.61-5.41-.56-3.22,1.29-5.39,4.3-6.44,1.72-.6,3.59-.8,5.27-1.48,3.36-1.36,7-2.33,9.1-5.73.58-1,1.44-2.09.66-3.24a2.59,2.59,0,0,0-3.61-.56c-4.21,3.08-9.36,3.24-14,4.86-5,1.73-8.48,4.88-8.82,10.31-.37,5.93,1.88,11.1,7.42,13.58,4.08,1.83,3.4,3.15.63,5.18-8.55,6.25-14.32,14.87-19.06,24-6.94,13.36-10.77,27.95-12.82,42.76-2.23,16,3,29.53,16,40.09,12.6,10.22,26.77,17.58,41.7,23.11,14.26,5.27,29.11,6.1,43.72-.44a178.7,178.7,0,0,0,35.21-20.55c4.19-3.18,5.1-1.1,6,2.15,1.87,6.68,1.46,13.46.37,20.23-.18,1.11-.7,2.47.72,3.06s2-.8,2.49-1.78c4.78-8.91,3-28.3-3.39-36.07-3-3.62-6.79-6.33-10.58-9.05-3.41-2.45-6.09-5.85-5.32-10.08A58.66,58.66,0,0,1,325,206.46c7.16-12.27,16.89-22.62,25.87-33.41,15.37-18.49,29.2-37.81,40.32-59.16,9-17.23,17.63-34.67,29.83-50,8.72-11,18.33-20.64,32.1-25a79.33,79.33,0,0,1,24.49-3.74c13.76.07,27.55-1.81,42.05.44-1.89.66-3.1,1.1-4.32,1.51-15.63,5.17-31.76,8.32-47.77,12a54.9,54.9,0,0,0-15,5.29c-1.43.81-2.94,2-2.23,4,.61,1.73,2.28,1.81,3.79,1.67,2.31-.23,4.6-.59,6.88-1,15.2-2.45,30.48-4.51,45.57-7.48C523,48.29,538,40.89,553.24,34.31c7.8-3.37,15.7-5.51,24.21-4,17.27,3.12,27.66,16.12,39.22,27.43.06.07,0,.32-.08.48-.56.58-1.15.35-1.8.16-1.26-.36-2.72-1-3.47.67-.59,1.28.5,2.15,1.29,3a16.87,16.87,0,0,0,2.16,2.07c7,5.11,13.67,10.62,21,15.16a163.73,163.73,0,0,1,46,42.89c12.2,16.65,21.82,34.51,26.7,54.69,2.15,8.89-.86,13.63-9.44,15.15l0-.05c0-4.37-2.75-4.65-5.73-3.49-10.45,4.08-18.44,11.07-23.25,21.27-3.36,7.13-1.91,15-2.86,22.55-.66,5.23-1.59,10.5-1.25,15.86a3.29,3.29,0,0,1-2.12,3.61c-1.61.46-2.13-1.08-3-2.08A59.44,59.44,0,0,1,650.14,233c-1-2.47-2.22-4.7-5.06-4.8s-4.35,2.24-5.35,4.55a34,34,0,0,0-2.65,14.57c.23,7.5-.93,14.9-1.09,22.36,0,1.39-.23,3-1.4,3.56s-2.43-.62-3.44-1.52a18.59,18.59,0,0,1-4.16-5.54c-4.83-9.22-6-19.66-9.91-29.18C613.57,228.32,609,220.57,599,218c-3.85-1.52-8-3.6-11.62-.41-3.29,2.91-2.39,7.34-2.16,11.31,0,.49.36,1,.39,1.44.41,6.78,1.55,13.64-1.79,20.06-2.29,4.39-6.51,4.82-9.58.94a24.42,24.42,0,0,1-5.19-13.29c-1.07-12.86-9.11-21.72-21.89-24.13-12-2.26-24.34-3.23-35.8-8-5.65-2.34-10.18-7-16.44-8.13-12.36-2.3-17.42.31-17.85,12.58-.12,3.33.08,6.67-.09,10-.68,13.07-1.57,26.14-4.9,38.86-2.32,8.83-5.16,17.51-7.35,26.36-2.38,9.67-.6,18.32,6.89,25.58a105.67,105.67,0,0,0,15.73,13.08c-9-.95-16.36.56-23.83.74-1.26,0-3-.39-3.26,1.42s1.36,2.41,3,2.52c5,.33,9.92.87,14.88,1,15.05.29,30.15-2.69,45.14,1,9.33,2.32,19,3.75,26.91,9.77,4,3,7.65,6.38,11.61,9.4,5.2,4,7.56,3.54,11.19-2.19,2.84-4.48,5.06-9.37,8-13.77,3.73-5.57,8.91-7.75,15.85-6.5,10.84,2,20.95,6.39,31.67,8.67,5.79,1.23,7.86.08,9.52-5.55.8-2.7,1.43-5.72,4.36-6.92a159.81,159.81,0,0,1,25.26-7.53c-.77,4.54-1.69,8.56-2.11,12.65-1.28,12.74-1,25.19,7,36.23a71.18,71.18,0,0,1,12.13,26c.81,3.58.19,6.62-2.51,9.1-8.93,8.18-19.88,11.69-31.56,11.32a112.78,112.78,0,0,1-34.51-6.63C615.44,404.82,614.42,404.22,614.27,404.39ZM340,496.05c1.25-1.91.92-4.07,1.08-6.19.27-3.44-1.5-4.6-4.62-4.89s-6.54,1.08-9.51-1a14.88,14.88,0,0,1,7.65-8.74c1.23-.58,2.58-1.29,2.21-2.9s-2.05-2.13-3.54-2.22a10.63,10.63,0,0,0-8.42,3.7c-10,10.61-16.29,22.82-16.89,37.75-.66,16.35,4.29,30.69,14.12,43.59,6.11,8,15.71,11.7,24,9,9.62-3.14,16.76-12.56,16.94-22.4.06-3.16,0-6.32,0-9.49,0-.93-.39-2.2.81-2.62s1.63.77,2.2,1.55a56.72,56.72,0,0,1,5.83,11c.74,1.67,1.35,3.41,2.23,5,2.53,4.62,6,8.43,11.69,7.72,5.88-.72,10-4.54,12.05-10,3.71-10,1-19.65-2.17-29.08-3.86-11.46-10.21-22-12.74-34a1.92,1.92,0,0,0-2.1-1.68,3,3,0,0,0-2.77,1.79c-1.7,3.14-1.4,6.49-.68,9.74,1.74,7.81,4.88,15.16,7.72,22.61A72.63,72.63,0,0,1,390,534a8.8,8.8,0,0,1-.06,3c-.81,2.94-.64,7.13-4.27,7.71-3.37.53-3.93-3.49-5.2-5.86-3-5.71-5.52-11.69-10.34-16.36-3.38-3.27-7.23-4.58-11.34-3-3.85,1.49-4.36,5.71-4.64,9.33-.34,4.47.06,9-.13,13.48-.23,5.69-2.46,10.28-8,12.73.46-5.44-.43-10.4-3.87-15-2.95-3.92-3.3-8.93-4.09-13.65-.24-1.45.14-3.11-2-3.38v-3q2-10.53,3.92-21.06Zm271-342c.11,8.75,4.38,15.25,11.11,20.41-2.89,1.58-5.85,3.05-8.62,4.8-1.18.75-2.8,1.92-2.08,3.59.87,2.07,2.84,1.26,4.35.76,8.81-2.93,17.5-6.23,26.7-7.89,7.38-1.32,14.7-2.21,22.08-.07,1.75.51,4.15,1.1,4.87-1,.87-2.48-1.49-3.3-3.46-3.78-4.19-1-5.3-2.89-3.93-7.45,2.74-9.14,3.91-18.36-1.36-27.45-7.34-12.66-25.94-20.27-39.77-15.71-7.25,2.4-12.42,10.54-12.77,20.24-.1,2.83,0,5.67,0,8.5C608.09,151.16,608.17,153.34,610.9,154ZM385.84,177.76c.58-1.07,1.39-2,.15-3s-2.45-.57-3.56.38A11.52,11.52,0,0,0,379,180.5c-4.36,13.63-6.64,27.6-8.19,41.82-1,9.05-.23,17.56,3.42,25.69,4,8.9,11,14.51,20.81,15.9,8.49,1.2,15.52-5.16,16-13.74.54-9.21-1.3-18.14-2.56-27.16a13,13,0,0,1-.38-3.92c.4-2.19.2-5.13,2.89-5.83,2.51-.65,3.7,1.83,4.86,3.57,1.46,2.21,3.23,4.15,5.93,3.89,3.06-.3,4.87-2.56,6-5.39,2.22-5.64,1.09-12.25-2.76-15.74-1-.87-2-2.19-3.38-1.05-1.18,1-.2,2.14.26,3.16,1,2.26,2.57,4.36,2,7.05-.26,1.15-.61,2.37-1.7,2.92-1.46.72-1.93-.69-2.72-1.49-3.07-3.12-6.66-5.27-11.14-3.75-4.86,1.65-5.74,6.1-6.28,10.47-.61,4.84.21,9.67,1.32,14.31A68.22,68.22,0,0,1,405,250c-9.41-14.12-12.07-29.4-8.56-46,1.36-6.4,2-13-.33-19.49-1.45-4-3.2-4.31-5.82-1.22-2.06,2.45-5.47,3.95-5.37,8,.05,1.87-1.67,1.7-3,1.77C382.3,187.69,383.27,182.51,385.84,177.76Zm124,2.36c-1.54.78-4.15,1.29-3.47,3.54s3,1.19,4.7.78c17.05-4.09,33.86-3.06,50.48,2.27,1,.31,1.89.65,2.85.9,1.44.37,3.22,1,4.13-.42,1.07-1.74-.6-2.64-1.91-3.39-2.3-1.3-2.31-2.4-.52-4.55a29.68,29.68,0,0,0,7-19.24c.06-8.53.07-16.84-5.18-24.35-11.45-16.35-32.58-15.29-41.57-5.3-6.42,7.13-8.76,16.21-9.28,25.72-.08,1.45.22,2.67,1.91,3-.57,6.57,2.32,11.88,6.17,16.83C520.06,177.39,514.64,177.68,509.84,180.12ZM313.09,377.19c-10,1.5-16.5-3.27-19.46-10.08-2.11-4.85-5.43-7.31-10.57-8.75-11.34-3.17-22.47-7.09-33.68-10.72-1.79-.58-4-1.36-4.79.81s1.46,3.1,3.07,3.81c10.47,4.58,20.61,10.06,31.75,12.94a13.34,13.34,0,0,1,8.79,6.33c8.75,14,24.05,16.63,37.25,6.79,1-.77,2.67-1.21,2-2.93-.58-1.49-2.09-1.42-3.86-1.37C320.33,374.9,317,376.61,313.09,377.19ZM422.73,136.42c1.78.26,1.86-1.93,2.37-3.27,5-13.44,10.95-26.4,21.72-36.4,3.62-3.36,7.24-6.86,12.06-8.59,1.3-.47,3.49,0,2.8-2.38a3.57,3.57,0,0,0-4.28-2.63,24,24,0,0,0-8.27,3.33c-16.88,10.59-25.4,26.52-28.92,46.18C420.38,133.94,420.72,136.12,422.73,136.42ZM850.42,469.3a108.65,108.65,0,0,1-21.14,36.25c-3.16,3.6-6.19,7.32-9.26,11-.77.92-1.48,2-.27,3,.9.73,1.87.13,2.68-.53,15.43-12.44,27.85-27,32.32-46.93.45-2,1.27-4.52-1.11-6C851.43,466.41,850.9,467.94,850.42,469.3Zm11.85,15.18a4.56,4.56,0,0,0-1.74,1.72,164.78,164.78,0,0,1-17.63,22.7c-1.22,1.38-4.07,3.44-2.23,5.36s4-.88,5.32-2.09c6.75-6.33,13.73-12.54,17.93-21,.73-1.48,1.18-3.09,1.77-4.67C865.42,484.28,864.23,483.56,862.27,484.48ZM647.35,448.31c-1.38-.39-3.1-1-4,.7-.79,1.48.57,2.47,1.51,3.33A76.42,76.42,0,0,1,658.49,470c.85,1.45,1.81,2.4,3.56,1.81s2-2,1.79-3.63C663.17,461.35,653.9,450.14,647.35,448.31ZM440.71,140.44c1.77.18,1.58-1.92,1.94-3,2-6.07,5.49-11.34,9.1-16.52.81-1.17,1.76-2.8,3.41-2.59s3.16.41,2.66-1.91c-.4-1.87-1.42-3.48-3.81-2.85a7.4,7.4,0,0,0-3.17,1.32A40.13,40.13,0,0,0,439,136.29C439.12,138.26,438.76,140.23,440.71,140.44Z"/><path class="cls-3" d="M896.94,433c-9.82.1-10.21,0-12.85,9.57-4.1,14.82-9.65,29.24-12,44.53-.6,3.89-2.33,7.58-3.33,11.42-1.85,7.14-8.28,10.4-13.42,13.84a136.3,136.3,0,0,0-13.38,10,45.68,45.68,0,0,1-24.06,10.95c-11.92,1.65-18.16,10.75-24,20-4.68,7.44-9.16,15-13.8,22.49-5.62,9-13.68,13.47-24.46,13.26-9.13-.17-18.38.72-26.73-4.14-6.48-3.77-11.8-9.13-17.93-13.35-13.78-9.48-27.48-19.18-43.83-24.05-2.9-.86-4.72-.43-6.74,2.25-5.46,7.26-12.12,13.57-15.62,22.31-1.42,3.55-5.13,4.37-8.94,3.36-7.69-2-15.34-4.2-23.08-6-11.85-2.71-21.25-.2-30.06,9.64-8.64,9.65-13.83,19.94-16,32.33-2.61,14.82-12.65,22.59-25.64,28.65-17,7.92-33.26,5.12-49.8-.48-15.87-5.37-31.7-10.88-48.21-14-4.33-.83-8.78-1.51-13.06.48,6.3,4.22,13.49,6.93,19.55,11.61a83.85,83.85,0,0,1,9.71,9.31c1,1.1,2.19,2.58.94,5.06-11.16-7.52-21.15-17.16-36-19.28,3.32,5.52,8,8.79,11.48,13.1a209.32,209.32,0,0,0,26.47,27c9.07,7.8,19.69,11.3,31.18,13.11a87.06,87.06,0,0,0,22.34.58c11.45-1.14,20.3-7.83,29.22-14.13,7.51-5.3,15.17-10.13,23.84-13.3,9.32-3.42,18.62-2.86,27.86-.07,6.83,2.06,13.49,4.65,20.63,5.52,2.25.27,5.18,1.5,6.18-1.22.82-2.25-1.93-3.86-3.63-4.79-6.12-3.37-12.42-6.42-18.74-9.43a69.69,69.69,0,0,1-17.51-11.24c-2.09-1.91-5-4-2.39-7.54,2.73-3.68,5.66-2.42,8.61-.19,14.85,11.2,32.1,15.11,50.19,16.87,10.36,1,20.62,2.91,30.93,4.39a142.21,142.21,0,0,0,30.64,1.5c3.54-.27,5.14-2.22,4-5.78-.75-2.37-1.82-4.64-2.62-7-2.51-7.44-.32-12.5,6.71-16,4.86-2.43,10.21-3.21,15.38-3.83,12.82-1.53,25.66-3.09,38.6-3.31a8.19,8.19,0,0,1,3,.13c11.07,4.4,20.73-1.31,30.71-4.36,4.28-1.32,6.42-4.49,5.74-9.24a34.59,34.59,0,0,1,0-5c0-12.17,6.33-17.86,18.72-18.71,15.67-1.06,30.27,2.89,44.9,7.46,11.94,3.73,24.48,3.86,36.74,5.69,13.85,2.07,27.79,2.19,41.75,2a77.7,77.7,0,0,0,15.72-2.17c3.36-.74,4.14-2.5,1.39-5.15-4.59-4.43-10.29-7.26-15.49-10.8-.4-.28-1-.66-1.36-.55-8.09,2.45-11.07-4-14.19-8.85-14.89-23-25-47.86-28.26-75.29-1.55-13-1.71-26.11-3-39.12C899.27,446.34,898,439.67,896.94,433Z"/><path class="cls-3" d="M143,499.85c-1.1,6.52,1.44,10.61,7.71,13.1,14.54,5.78,29.74,9.27,45,11.79,16.52,2.73,28.28-6.54,38.3-18.66,14.55-17.6,16.78-38,14.09-59.59A205.8,205.8,0,0,0,229,382c-.84-1.74-1.35-3.91-3.9-4-.16,1.46,0,3.37-1.88,3.6s-2.06-1.79-2.5-3.14A95,95,0,0,0,205,349.68c-1-1.34-2.1-3.56-4.12-3.08-1.72.4-.85,2.62-1.19,4-1.25,5-4.75,9.07-5.82,14.25-2.42,11.78-.14,22.77,4.76,33.41,4.16,9.05,3.75,17.9-.24,26.9-8.09,18.24-18.59,34.73-32.81,48.94C157.55,482.14,150.5,491.22,143,499.85Z"/><path class="cls-3" d="M179,195.9c3.23,2.09,5.71,1.4,8-1.7,6.11-8.37,10.17-17.76,14-27.29,1.47-3.69,3.18-7.29,4.95-10.85,3.71-7.44,3.68-15.67,5.07-23.59.78-4.44,1.67-8.81,4.47-12.46,4.69-6.12,3.49-13.22,3.58-20.12-2.74-4.33-5.38-8.71-6-14-1-9.22,3.68-15.73,10.13-21.39,1.84-1.62,3.9-3,5.85-4.49-1.64-5.26-3.23-10.54-7.9-14.1-1.39,10.88-4.07,21.13-12.53,29-9.26,8.65-21,8.24-26.42-4.76-1.83-4.38-3.1-9-4.7-13.75-5,4.44-10.79,6.58-17.09,7.66-5.77,1-9.65,4.31-11.27,10-2,7.16-5.13,13.58-11.09,18.45-7.52,6.15-3.21,24.28,7.42,27.12,3.09.83,5.2-.29,6.87-2.65s3.28-5,4.95-7.48A16.89,16.89,0,0,1,170.11,102c7.55-.8,11.82,2.63,13.85,10.41,4.3,16.55,2.82,33.11,1.41,49.87C184.41,173.83,180.81,184.66,179,195.9Z"/><path class="cls-4" d="M221.11,46c4.67,3.56,6.26,8.84,7.9,14.1,6.34-3.31,12.66-6.65,19-9.88,1.17-.59,2.52-1.19,1.09-2.36-9.34-7.61-11.54-19.63-18.09-29-10.14-14.51-28.74-14.55-37.74.94-8.3,14.3-11.4,29.68-5.31,45.91,3.59,9.56,9.14,10.89,16.28,3.56,6.95-7.14,9.1-16.38,10.71-25.79.45-2.61.72-5.24,1.1-7.86.15-1,.59-2,1.75-2.13s1.73.81,2.19,1.69C221.85,38.59,220.67,42.36,221.11,46Z"/><path class="cls-3" d="M880,390.06c.69,1.68,1.29,3.41,2.1,5,1.59,3.16,3.28,3.21,4.88,0a18.4,18.4,0,0,0-4-8.05l0,0C883.25,389.27,882.18,390.23,880,390.06Z"/><path class="cls-3" d="M883,387l-.35-1.29c-.92.72,0,.92.37,1.27Z"/><path class="cls-4" d="M699,192l-.4.45.45-.4Z"/><path class="cls-3" d="M616.06,405.06c-.62-.24-1.64-.84-1.79-.67-4.12,4.66-8.88,1.17-13.31,1.05-9.2-.25-18.31-2.82-27.61-.55-4.12,1-5,3.34-3.9,7,2.71,9.3,8.91,15.06,17.9,18.42,9.16,3.41,18.81,3.65,28.26,4.53,17.42,1.61,33.9,5.38,48.48,15.55.74.52,1.89.45,2.85.66a43.63,43.63,0,0,0-8.31-13.45c-2.81-3.1-5.83-6.46-10.63-6.6-1.91-.05-4-.18-3.73-2.76s2.52-2.32,4.31-2.2c7.19.45,12.3,4.45,16.39,10,5.32,7.17,7.39,15.72,10,24,2-1.07,2.59,1,3.31,1.9,3.35,4.06,7.61,5.49,12.69,5.1a178.21,178.21,0,0,0-10.3-37.73c-2.81-7-9.32-9.57-15-13.1-1.87-1.16-4.14.73-6.3.8A100.54,100.54,0,0,1,620,410.44C617.49,409.5,615.34,408.31,616.06,405.06Z"/><path class="cls-2" d="M326.9,483.94a14.88,14.88,0,0,1,7.65-8.74c1.23-.58,2.58-1.29,2.21-2.9s-2.05-2.13-3.54-2.22a10.63,10.63,0,0,0-8.42,3.7c-10,10.61-16.29,22.82-16.89,37.75-.66,16.35,4.29,30.69,14.12,43.59,6.11,8,15.71,11.7,24,9,9.62-3.14,16.76-12.56,16.94-22.4.06-3.16,0-6.32,0-9.49,0-.93-.39-2.2.81-2.62s1.63.77,2.2,1.55a56.72,56.72,0,0,1,5.83,11c.74,1.67,1.35,3.41,2.23,5,2.53,4.62,6,8.43,11.69,7.72,5.88-.72,10-4.54,12.05-10,3.71-10,1-19.65-2.17-29.08-3.86-11.46-10.21-22-12.74-34a1.92,1.92,0,0,0-2.1-1.68,3,3,0,0,0-2.77,1.79c-1.7,3.14-1.4,6.49-.68,9.74,1.74,7.81,4.88,15.16,7.72,22.61A72.63,72.63,0,0,1,390,534a8.8,8.8,0,0,1-.06,3c-.81,2.94-.64,7.13-4.27,7.71-3.37.53-3.93-3.49-5.2-5.86-3-5.71-5.52-11.69-10.34-16.36-3.38-3.27-7.23-4.58-11.34-3-3.85,1.49-4.36,5.71-4.64,9.33-.34,4.47.06,9-.13,13.48-.23,5.69-2.46,10.28-8,12.73-5.06,3.26-8.55,2.84-13.55-2-12.5-12.24-16.93-27.49-15.2-44.44C318.15,499.62,320.92,491,326.9,483.94Z"/><path class="cls-5" d="M524.51,141.63c1.66-2.83,3-3.95,6.56-2.16a43.27,43.27,0,0,0,29.56,3.82c2.25-.52,3.08.41,3.58,2.24a37.59,37.59,0,0,1-4.56,31.08c-.87,1.39-1.78,2.47-4,1.76a64.12,64.12,0,0,0-30.5-2.47c-3.85-5-6.74-10.26-6.17-16.83C520.79,153.25,521.33,147.05,524.51,141.63Zm24.37,10.52a5.36,5.36,0,0,0-5.75,5.61c0,3.71,2.25,5.94,6,5.86,3.5-.08,5.28-2.38,5.62-5.84C554.24,154.4,552.3,152.16,548.88,152.15Z"/><path class="cls-5" d="M611.54,149c.16-1.48.3-3,.5-4.45.77-5.76,2.35-6.85,8.07-5.9,9,1.49,17.9,1.84,26-3.34,2.42-1.54,4.09-1.2,6,1,3.82,4.43,6.5,9.21,6.09,15.29-.17,2.48-.14,5-.4,7.46-.92,8.62-1,8.49-9.77,9a67.55,67.55,0,0,0-18.88,4.23c-2.33.85-4.54,2.1-7.11,2.14-6.73-5.16-11-11.66-11.11-20.41C612.15,152.47,611.91,150.74,611.54,149Zm30.73,3.17c-3.37.11-5.52,2.28-5.46,5.82.06,3.85,2.49,5.82,6.1,5.61,3.42-.2,5.29-2.41,5.19-6.6C647.81,154,645.62,152.06,642.27,152.16Z"/><path class="cls-1" d="M573.08,160c0-5.68.13-11.56-1.64-17a28.53,28.53,0,0,0-30-19.75,24.21,24.21,0,0,0-13.09,5.21,29.06,29.06,0,0,0-8.18,12.19,48.2,48.2,0,0,0-3.1,14.91,5.14,5.14,0,0,0,.27,2.34,1.91,1.91,0,0,0,1.84,1.22,80.53,80.53,0,0,1,3-12.08,28.23,28.23,0,0,1,6.4-10.57,21.35,21.35,0,0,1,12.41-6,21.08,21.08,0,0,1,11.3,1.7c10.47,4.9,14.33,17.11,13.21,27.87a39.13,39.13,0,0,1-5.87,16.58c-.87,1.39-1.78,2.47-4,1.76a64.12,64.12,0,0,0-30.5-2.47c-5.07,1.49-10.49,1.78-15.29,4.22-1.54.78-4.15,1.29-3.47,3.54s3,1.19,4.7.78c17.05-4.09,33.86-3.06,50.48,2.27,1,.31,1.89.65,2.85.9,1.44.37,3.22,1,4.13-.42,1.07-1.74-.6-2.64-1.91-3.39-2.3-1.3-2.31-2.4-.52-4.55A29.68,29.68,0,0,0,573.08,160Z"/><path class="cls-3" d="M405,250c-9.41-14.12-12.07-29.4-8.56-46,1.36-6.4,2-13-.33-19.49-1.45-4-3.2-4.31-5.82-1.22-2.06,2.45-5.47,3.95-5.37,8,.05,1.87-1.67,1.7-3,1.77a113.31,113.31,0,0,0-4.66,41c.71,9.4,4,18.13,13.76,22.55C398.37,259.87,402.84,257.9,405,250Z"/><path class="cls-1" d="M405,250c-2.12,7.92-6.59,9.89-14,6.57-9.79-4.42-13.05-13.15-13.76-22.55a113.31,113.31,0,0,1,4.66-41c.41-5.32,1.38-10.5,3.95-15.25.58-1.07,1.39-2,.15-3s-2.45-.57-3.56.38A11.52,11.52,0,0,0,379,180.5c-4.36,13.63-6.64,27.6-8.19,41.82-1,9.05-.23,17.56,3.42,25.69,4,8.9,11,14.51,20.81,15.9,8.49,1.2,15.52-5.16,16-13.74.54-9.21-1.3-18.14-2.56-27.16a13,13,0,0,1-.38-3.92c.4-2.19.2-5.13,2.89-5.83,2.51-.65,3.7,1.83,4.86,3.57,1.46,2.21,3.23,4.15,5.93,3.89,3.06-.3,4.87-2.56,6-5.39,2.22-5.64,1.09-12.25-2.76-15.74-1-.87-2-2.19-3.38-1.05-1.18,1-.2,2.14.26,3.16,1,2.26,2.57,4.36,2,7.05-.26,1.15-.61,2.37-1.7,2.92-1.46.72-1.93-.69-2.72-1.49-3.07-3.12-6.66-5.27-11.14-3.75-4.86,1.65-5.74,6.1-6.28,10.47-.61,4.84.21,9.67,1.32,14.31A68.22,68.22,0,0,1,405,250Z"/><path class="cls-1" d="M665.85,170.85c-4.19-1-5.3-2.89-3.93-7.45,2.74-9.14,3.91-18.36-1.36-27.45-7.34-12.66-25.94-20.27-39.77-15.71-7.25,2.4-12.42,10.54-12.77,20.24-.1,2.83,0,5.67,0,8.5h3.52c-.32,0,1.6-8.66,1.86-9.54,1.79-6,4.77-11.28,11.18-12.94,11.83-3,24.6,4.71,30.88,14.44a17.7,17.7,0,0,1,2.71,10.6c-.17,2.48-.14,5-.4,7.46-.92,8.62-1,8.49-9.77,9a67.55,67.55,0,0,0-18.88,4.23c-2.33.85-4.54,2.1-7.11,2.14-2.89,1.58-5.85,3.05-8.62,4.8-1.18.75-2.8,1.93-2.08,3.59.87,2.07,2.84,1.26,4.35.76,8.81-2.93,17.5-6.23,26.7-7.89,7.38-1.32,14.7-2.21,22.08-.07,1.75.51,4.15,1.1,4.87-1C670.18,172.15,667.82,171.33,665.85,170.85Z"/><path class="cls-3" d="M326.9,483.94c-6,7.1-8.75,15.68-9.65,24.56-1.73,17,2.7,32.2,15.2,44.44,5,4.89,8.49,5.31,13.55,2,.46-5.44-.43-10.4-3.87-15-2.95-3.92-3.3-8.93-4.09-13.65-.24-1.45.14-3.11-2-3.38-2.22,2.36-3.56,2.06-4.62-1.29a33.2,33.2,0,0,1,.71-21.3c1.15-3.28,3.38-6.22,7.82-4.34,1.25-1.91.92-4.07,1.08-6.19.27-3.44-1.5-4.6-4.62-4.89S329.87,486.05,326.9,483.94Z"/><path class="cls-1" d="M323.6,374c-3.27.88-6.64,2.59-10.51,3.17-10,1.5-16.5-3.27-19.46-10.08-2.11-4.85-5.43-7.31-10.57-8.75-11.34-3.17-22.47-7.09-33.68-10.72-1.79-.58-4-1.36-4.79.81s1.46,3.1,3.07,3.81c10.47,4.58,20.61,10.06,31.75,12.94a13.34,13.34,0,0,1,8.79,6.33c8.75,14,24.05,16.63,37.25,6.79,1-.77,2.67-1.21,2-2.93C326.88,373.9,325.37,374,323.6,374Z"/><path class="cls-1" d="M420.21,132.66c.17,1.28.51,3.46,2.52,3.76,1.78.26,1.86-1.93,2.37-3.27,5-13.44,10.95-26.4,21.72-36.4,3.62-3.36,7.24-6.86,12.06-8.59,1.3-.47,3.49,0,2.8-2.38a3.57,3.57,0,0,0-4.28-2.63,24,24,0,0,0-8.27,3.33C432.25,97.07,423.73,113,420.21,132.66Z"/><path class="cls-1" d="M853.64,466.14c-2.21.27-2.74,1.8-3.22,3.16a108.65,108.65,0,0,1-21.14,36.25c-3.16,3.6-6.19,7.32-9.26,11-.77.92-1.48,2-.27,3,.9.73,1.87.13,2.68-.53,15.43-12.44,27.85-27,32.32-46.93C855.2,470.11,856,467.6,853.64,466.14Z"/><path class="cls-1" d="M675,460c-2.61-8.31-4.68-16.86-10-24-4.09-5.51-9.2-9.51-16.39-10-1.79-.12-4-.28-4.31,2.2s1.82,2.71,3.73,2.76c4.8.14,7.82,3.5,10.63,6.6A43.63,43.63,0,0,1,666.94,451a75.35,75.35,0,0,1,7.11,24.68c.1,1-.46,2.72,1.27,2.68,1.34,0,1.51-1.48,1.64-2.68C677.55,470.32,675.65,465.25,675,460Z"/><path class="cls-1" d="M865.69,486.46c-.27-2.18-1.46-2.9-3.42-2a4.56,4.56,0,0,0-1.74,1.72,164.78,164.78,0,0,1-17.63,22.7c-1.22,1.38-4.07,3.44-2.23,5.36s4-.88,5.32-2.09c6.75-6.33,13.73-12.54,17.93-21C864.65,489.65,865.1,488,865.69,486.46Z"/><path class="cls-1" d="M663.84,468.14c-.67-6.79-9.94-18-16.49-19.83-1.38-.39-3.1-1-4,.7-.79,1.48.57,2.47,1.51,3.33A76.42,76.42,0,0,1,658.49,470c.85,1.45,1.81,2.4,3.56,1.81S664.06,469.75,663.84,468.14Z"/><path class="cls-1" d="M439,136.29c.14,2-.22,3.94,1.73,4.15,1.77.18,1.58-1.92,1.94-3,2-6.07,5.49-11.34,9.1-16.52.81-1.17,1.76-2.8,3.41-2.59s3.16.41,2.66-1.91c-.4-1.87-1.42-3.48-3.81-2.85a7.4,7.4,0,0,0-3.17,1.32A40.13,40.13,0,0,0,439,136.29Z"/><path class="cls-1" d="M340,496.05c-4.44-1.88-6.67,1.06-7.82,4.34a33.2,33.2,0,0,0-.71,21.3c1.06,3.35,2.4,3.65,4.62,1.29,0-1,0-2,0-3-2.39-6.94.13-13.45,1.81-20,.13-.49,1.38-.7,2.11-1Z"/><path class="cls-3" d="M340,498.94c-.73.34-2,.55-2.11,1-1.68,6.57-4.2,13.08-1.81,20Q338,509.47,340,498.94Z"/><path class="cls-3" d="M611.54,149H608c.07,2.18.15,4.36,2.88,5C612.15,152.47,611.91,150.74,611.54,149Z"/><path class="cls-2" d="M554.71,157.78c-.47-3.38-2.41-5.62-5.83-5.63a5.36,5.36,0,0,0-5.75,5.61c0,3.71,2.25,5.94,6,5.86C552.59,163.54,554.37,161.24,554.71,157.78Z"/><path class="cls-2" d="M648.1,157c-.29-3-2.48-4.93-5.83-4.83s-5.52,2.28-5.46,5.82c.06,3.85,2.49,5.82,6.1,5.61C646.33,163.39,648.2,161.18,648.1,157Z"/></g></g></svg>