<?xml version="1.0" encoding="UTF-8" standalone="no"?>
<svg
   xmlns:dc="http://purl.org/dc/elements/1.1/"
   xmlns:cc="http://creativecommons.org/ns#"
   xmlns:rdf="http://www.w3.org/1999/02/22-rdf-syntax-ns#"
   xmlns:svg="http://www.w3.org/2000/svg"
   xmlns="http://www.w3.org/2000/svg"
   xmlns:sodipodi="http://sodipodi.sourceforge.net/DTD/sodipodi-0.dtd"
   xmlns:inkscape="http://www.inkscape.org/namespaces/inkscape"
   id="svg350"
   version="1.1"
   viewBox="0 0 1606 623.21942"
   sodipodi:docname="monster_in_wardobe_1.svg"
   width="1606"
   height="623.21942"
   inkscape:version="0.92.4 (5da689c313, 2019-01-14)">
  <sodipodi:namedview
     pagecolor="#ffffff"
     bordercolor="#666666"
     borderopacity="1"
     objecttolerance="10"
     gridtolerance="10"
     guidetolerance="10"
     inkscape:pageopacity="0"
     inkscape:pageshadow="2"
     inkscape:window-width="1502"
     inkscape:window-height="1027"
     id="namedview167"
     showgrid="false"
     inkscape:zoom="0.20236613"
     inkscape:cx="-204.69511"
     inkscape:cy="-947.51749"
     inkscape:window-x="629"
     inkscape:window-y="184"
     inkscape:window-maximized="0"
     inkscape:current-layer="svg350" />
  <metadata
     id="metadata354">
    <rdf:RDF>
      <cc:Work
         rdf:about="">
        <dc:format>image/svg+xml</dc:format>
        <dc:type
           rdf:resource="http://purl.org/dc/dcmitype/StillImage" />
        <dc:title>slide_21</dc:title>
      </cc:Work>
    </rdf:RDF>
  </metadata>
  <defs
     id="defs4">
    <style
       id="style2">.cls-1{fill:#023d53;}.cls-2{fill:#523722;}.cls-3{fill:#87542d;}.cls-4{fill:#d9ecf3;}.cls-5{fill:#033d53;}.cls-6{fill:#b13e6d;}.cls-7{fill:#af3b6a;}.cls-8{fill:#d3467f;}.cls-9{fill:#e74c8a;}.cls-10{fill:#fefdfe;}.cls-11{fill:#00b3ea;}.cls-12{fill:#553822;}.cls-13{fill:#e8548f;}.cls-14{fill:#2fafee;}.cls-15{fill:#55361f;}.cls-16{fill:#51331c;}.cls-17{fill:#ad8160;}.cls-18{fill:#5f3f27;}.cls-19{fill:#573720;}.cls-20{fill:#b08362;}.cls-21{fill:#af8261;}.cls-22{fill:#fff;}</style>
    <style
       id="style2-5">.cls-1{fill:#023d53;}.cls-2{fill:#523722;}.cls-3{fill:#87542d;}.cls-4{fill:#d9ecf3;}.cls-5{fill:#033d53;}.cls-6{fill:#553822;}.cls-7{fill:#2fafee;}.cls-8{fill:#573720;}.cls-9{fill:#ad8160;}.cls-10{fill:#51331c;}.cls-11{fill:#b08362;}.cls-12{fill:#af8261;}.cls-13{fill:#5f3f27;}.cls-14{fill:#00b3ea;}</style>
  </defs>
  <title
     id="title6">slide_21</title>
  <g
     transform="translate(0,0.01288081)"
     data-name="Layer 2"
     id="Layer_2-4">
    <g
       data-name="Layer 1"
       id="Layer_1-2-9">
      <g
         id="g1168">
        <path
           style="fill:#523722"
           inkscape:connector-curvature="0"
           class="cls-2"
           d="m 671.08,108 a 2.45,2.45 0 0 1 3.82,-0.07 l 43.17,-0.9 c 3,0.19 5.91,-0.94 8.88,-0.08 11.62,-0.06 23.25,-0.16 34.87,-0.17 9.47,0 18.94,0.12 28.4,0.18 L 795,107 c 10.4,1.29 20.88,1.31 31.32,1.88 18.58,1 37.18,1.12 55.79,1 0.62,-1 1.23,-0.92 1.83,0 l 9.85,0.25 a 32.39,32.39 0 0 1 7.08,-1.15 v -4.43 c -2,0.19 -4,0.39 -6,0.63 a 1,1 0 0 1 -1.37,0.32 c -3.8,1.58 -7.79,1.27 -11.76,1.21 l -42.83,-0.68 c -1,1.12 -1.93,1.07 -2.85,-0.07 -5.72,-0.23 -11.41,-1.1 -17.16,-0.91 -0.66,1 -1.27,0.85 -1.84,-0.08 -7.8,-0.44 -15.6,-0.91 -23.4,-1.3 -32.58,-1.61 -65.16,-0.09 -97.74,0.29 a 12.31,12.31 0 0 1 -9.83,0.11 c -6.75,-0.28 -13.45,0.5 -20.17,0.89 a 10.25,10.25 0 0 1 -8.82,0.13 h -6.2 c -0.87,1.5 -3.62,0 -3.91,2.41 l 3.1,0.29 c 1,-1.14 1.93,-1.07 2.83,0.11 a 137.56,137.56 0 0 0 18.16,0.1 z"
           id="path10-0" />
        <path
           style="fill:#523722"
           inkscape:connector-curvature="0"
           class="cls-2"
           d="m 900.85,544 c -0.89,-0.06 -1.78,-0.09 -2.68,-0.09 -2.24,0 -3.36,-1.24 -3.24,-3.49 0.31,-5.47 -0.49,-11 0.78,-16.42 a 22.93,22.93 0 0 0 0.23,-5 c 0.06,-7.15 1.14,-14.21 1.79,-21.31 0.47,-5.12 0.66,-10.26 1.15,-15.39 0.76,-7.91 1.37,-15.83 2,-23.76 V 328.75 c -0.33,-8.25 -0.69,-16.49 -1.15,-24.72 a 475,475 0 0 1 -0.42,-48.9 c 1.08,-23.65 0.35,-47.28 0.71,-70.91 0,-2.31 0.64,-4.55 0.86,-6.81 v -3.23 c -0.6,-7.22 -0.85,-14.46 -1.19,-21.69 -0.15,-3.29 -0.56,-6.6 -0.59,-9.92 q -0.11,-11.76 -0.18,-23.5 c 0,-0.66 0,-1.34 0,-2 -0.41,-4 -1.31,-4.36 -4.79,-2 -0.55,4.14 -0.19,8.3 -0.19,12.45 0,34.24 0.22,68.48 -0.78,102.71 -0.17,6 0,12 0.08,17.95 0,1.63 -0.26,3.35 0.83,4.81 1.13,0.12 1.87,0.65 1.9,1.87 0.03,1.22 0.05,2.66 0.05,4 0,17.34 -0.14,34.67 0.11,52 0.17,11.78 0.7,23.57 1.77,35.32 a 87.58,87.58 0 0 1 0.11,10 c -0.37,16.49 1.24,32.95 0.83,49.41 -0.27,10.63 -0.37,21.29 -1.06,31.89 -0.4,6.15 -0.39,12.29 -0.8,18.42 -0.6,8.94 -1.38,17.86 -2.12,26.79 0,0.44 -0.48,0.84 -0.73,1.26 -0.65,18.46 -2.6,36.86 -2.46,55.35 0,1 0,2 -0.08,3 a 1.75,1.75 0 0 1 -1.94,1.78 c -1.34,0 -2.67,0.07 -4,0 -33,-0.88 -65.9,-1.3 -98.86,-1.72 -22.15,-0.28 -44.28,0.66 -66.42,0.68 -13.49,0 -27,0 -40.46,0.14 -7.31,0.09 -14.63,0.56 -21.94,0.86 -1,1.35 -2.59,0.71 -3.91,0.94 v 1 c 3,0.46 6.07,-0.85 8.9,0.86 19.81,0.09 39.62,0.46 59.42,0.21 q 64.17,-0.83 128.33,0.13 c 10.15,0.13 20.28,1.09 30.44,0.67 a 4.77,4.77 0 0 1 5.83,0 c 4.64,0.8 9.26,-0.43 13.93,-0.18 z"
           id="path12-9" />
        <path
           style="fill:#87542d"
           inkscape:connector-curvature="0"
           class="cls-3"
           d="m 894.88,105.26 a 1,1 0 0 1 -1.37,0.32 1.09,1.09 0 0 1 1.37,-0.32 z"
           id="path14-1" />
        <path
           style="fill:#d9ecf3"
           inkscape:connector-curvature="0"
           class="cls-4"
           d="m 643,107.47 4,0.11 3.1,0.29 a 2.76,2.76 0 0 0 2.83,0.11 137.56,137.56 0 0 0 18.16,0 4.92,4.92 0 0 0 3.82,-0.07 l 43.17,-0.9 a 27.56,27.56 0 0 0 8.88,-0.08 c 11.62,-0.06 23.25,-0.16 34.87,-0.17 9.47,0 18.94,0.12 28.4,0.18 A 8.47,8.47 0 0 0 795,107 c 10.4,1.29 20.88,1.31 31.32,1.88 18.58,1 37.18,1.12 55.79,1 a 1.39,1.39 0 0 0 1.83,0 l 9.85,0.25 0.3,4.88 c -0.55,4.14 -0.19,8.3 -0.19,12.45 0,34.24 0.22,68.48 -0.78,102.71 -0.17,6 0,12 0.08,17.95 0,1.63 -0.26,3.35 0.83,4.81 0,1.16 -0.12,2.33 -0.12,3.49 q 0,111.74 0,223.47 c 0,1.32 0.11,2.65 0.17,4 -0.65,18.46 -2.6,36.86 -2.46,55.35 0,1 0,2 -0.08,3 a 1.75,1.75 0 0 1 -1.94,1.78 c -1.34,0 -2.67,0.07 -4,0 -33,-0.88 -65.9,-1.3 -98.86,-1.72 -22.15,-0.28 -44.28,0.66 -66.42,0.68 -13.49,0 -27,0 -40.46,0.14 -7.31,0.09 -14.63,0.56 -21.94,0.86 a 22,22 0 0 0 -9.45,0.58 c -1.56,-0.4 -3,0.16 -4.51,0.44 l -1.9,-1 c -0.68,-29.31 0.05,-58.62 -0.11,-87.93 -0.19,-34.64 1,-69.28 1.18,-103.92 0.17,-29.15 1.1,-58.29 0.72,-87.44 q -0.63,-47.48 -1,-94.94 c -0.11,-16.49 0,-33 0.29,-49.47 0.03,-4.3 -0.96,-8.55 -0.14,-12.83 z m 117,58.91 c -0.89,0.39 -1.83,1.08 -1.05,2.48 a 11.23,11.23 0 0 0 2,2.24 q 12.12,12.24 24.27,24.47 A 477.92,477.92 0 0 0 834,238.18 c 1,0.8 2.19,1.5 3.32,2.2 0.58,0.36 1.32,0.58 1.83,0 0.8,-0.87 0,-1.53 -0.56,-2.06 -1.82,-1.71 -3.65,-3.42 -5.57,-5 -5.59,-4.64 -11.69,-8.77 -16.73,-13.94 -5.46,-5.6 -11.29,-10.8 -16.81,-16.31 q -15,-15 -30.16,-29.89 c -2,-2 -4.23,-3.76 -6.37,-5.6 a 3.89,3.89 0 0 0 -3.01,-1.2 z m 57.3,16.84 c -2.44,-0.13 -3.55,1.49 -2.53,3.23 a 6.81,6.81 0 0 0 2,2.11 176.4,176.4 0 0 1 16.54,12.65 8.09,8.09 0 0 0 2.12,1.26 1.29,1.29 0 0 0 1.72,-0.52 1.92,1.92 0 0 0 0.23,-1.37 5,5 0 0 0 -1.05,-1.65 86.1,86.1 0 0 0 -16.76,-14.66 13.46,13.46 0 0 0 -2.33,-1.05 z m -19.63,40.49 c -0.06,-0.91 -0.57,-1.05 -1,-1.27 -3.22,-1.62 -5.27,-4.5 -7.56,-7.09 -2.65,-3 -5.19,-6.06 -7.83,-9 a 7.51,7.51 0 0 0 -3.09,-2.46 2,2 0 0 0 -1.39,0 1.34,1.34 0 0 0 -0.48,1.75 5,5 0 0 0 1,1.7 c 5,5.53 10.16,11 16.1,15.57 a 10.63,10.63 0 0 0 3,1.65 1,1 0 0 0 1.19,-0.85 z m 1.67,-56.47 c 0.57,4.89 3.89,7.51 7.2,10.1 a 1.26,1.26 0 0 0 1.79,-0.23 1.28,1.28 0 0 0 0,-1.8 c -3.04,-2.72 -6.06,-5.39 -9.05,-8.07 z"
           id="path16-7" />
        <path
           style="fill:#033d53"
           inkscape:connector-curvature="0"
           class="cls-5"
           d="m 894.07,484 c -0.06,-1.33 -0.17,-2.66 -0.17,-4 q 0,-111.74 0,-223.47 c 0,-1.16 0.08,-2.33 0.12,-3.49 1.13,0.12 1.87,0.65 1.9,1.87 0.03,1.22 0.05,2.66 0.05,4 0,17.34 -0.14,34.67 0.11,52 0.17,11.78 0.7,23.57 1.78,35.32 a 89.92,89.92 0 0 1 0.1,10 c -0.37,16.49 1.24,32.95 0.83,49.41 -0.27,10.63 -0.37,21.29 -1.06,31.9 -0.4,6.14 -0.39,12.28 -0.8,18.41 -0.6,8.94 -1.38,17.86 -2.12,26.79 -0.04,0.39 -0.49,0.79 -0.74,1.26 z"
           id="path18-7" />
        <path
           style="fill:#87542d"
           inkscape:connector-curvature="0"
           class="cls-3"
           d="m 883.92,110 a 1.39,1.39 0 0 1 -1.83,0 c 0.62,-1 1.23,-1 1.83,0 z"
           id="path20-1" />
        <path
           style="fill:#553822"
           inkscape:connector-curvature="0"
           class="cls-6"
           d="m 654,545 v 1 c -1.65,0.29 -3.51,-0.63 -4.92,0.92 -19.3,3.45 -38.78,1.38 -58.17,1.93 -0.62,-0.91 -1.23,-0.88 -1.83,0 -11.65,0.24 -23.3,0.76 -35,0.66 -36.8,-0.32 -73.59,-0.87 -110.39,-1.33 h -0.5 c -4.94,0 -4.84,0 -4.57,5.07 0.27,5.07 0.36,10 0.41,15 0,4 -0.92,5 -5.06,5 -2.83,0 -5.66,-0.22 -8.47,-0.48 a 181.25,181.25 0 0 0 -29.92,-0.83 c -1.82,0.13 -3.66,0.23 -5.46,0.49 -3.71,0.55 -4.42,0.18 -5.05,-3.4 a 76.5,76.5 0 0 1 -0.86,-19.41 c 0.11,-1.4 0.1,-2.34 -1.34,-3.3 -2.5,-1.67 -2.32,-2.15 0.37,-3.38 0.59,-0.27 1.16,-0.58 1.74,-0.86 2.94,0.23 3.29,-1.55 2.81,-3.79 a 74.26,74.26 0 0 1 -1.79,-17.1 2.84,2.84 0 0 0 -0.88,-2.22 c -0.6,-11.3 -1.33,-22.61 -1.17,-33.94 0.19,-13.34 -0.58,-26.65 -1.54,-39.94 a 81.77,81.77 0 0 1 -0.22,-9 c 0.89,-26.16 -0.79,-52.34 0.17,-78.47 1.61,-43.49 -0.33,-87 0.82,-130.46 0.78,-29.15 0.6,-58.31 1.4,-87.46 0.25,-9.14 0.63,-18.3 -1.1,-27.35 a 7.63,7.63 0 0 1 1.68,-6.37 c 1,-0.06 2.08,0.12 2.8,-0.85 l 37.18,-1 c 0.64,0.94 1.25,0.87 1.84,-0.06 7.39,-0.26 14.76,-1.13 22.17,-0.92 1,1.09 1.92,1 2.83,-0.1 10.05,-0.47 20.1,-1.16 30.17,-0.9 a 6.58,6.58 0 0 0 6.82,-0.08 48.33,48.33 0 0 1 9.16,0 4.82,4.82 0 0 0 5.82,0.08 c 27.06,0.15 54.13,-0.43 81.18,0.91 0.92,1.13 1.87,1.16 2.83,0 15.76,-0.24 31.5,0.33 47.22,1.38 2.26,0.15 4.62,-0.85 6.81,0.4 a 3.54,3.54 0 0 0 1,2.59 c -0.79,4.28 0.2,8.55 0.14,12.84 -0.25,16.49 -0.4,33 -0.29,49.47 q 0.34,47.47 1,94.94 c 0.38,29.15 -0.55,58.29 -0.72,87.44 -0.19,34.64 -1.37,69.28 -1.18,103.92 0.16,29.31 -0.57,58.62 0.11,87.93 0.27,1 0.53,2 1.88,1.08 1.5,-0.28 3,-0.84 4.52,-0.44 z m -262.46,-2.09 c 11.43,0.29 22.25,0.83 33,0.83 52.94,0 105.89,1.18 158.84,-0.58 16.6,-0.55 33.27,-0.9 49.88,0.73 4.62,0.45 4.64,0.07 4.71,-4.58 0.68,-43.28 0.14,-86.57 0.68,-129.86 0.74,-58.59 1.13,-117.22 -0.42,-175.83 -0.93,-35.3 -0.18,-70.64 -0.17,-106 a 14.54,14.54 0 0 1 0.28,-4 c 1.14,-4 0.43,-8 0.63,-11.92 0.12,-2.43 -1,-3.71 -3.53,-3.75 -6.3,-0.09 -12.59,-0.49 -18.89,-0.85 -16.43,-0.92 -32.92,-0.61 -49.37,-0.84 -31.77,-0.45 -63.58,-1.36 -95.36,0.56 -10.94,0.66 -21.91,0.23 -32.89,0.87 -15.09,0.88 -30.26,0.1 -45.37,1.15 -4.42,0.31 -4.45,0.11 -4.51,4.46 -0.53,36.45 0.41,72.9 -0.84,109.37 -1.43,41.42 0.13,82.88 -0.87,124.35 -0.86,35.75 -1.14,71.56 0.47,107.36 0.68,15.09 1.8,30.22 1.17,45.37 -0.05,1.16 0,2.33 0,3.5 0,6.65 1.28,13.19 1.72,19.78 0.44,6.51 2.3,12.88 0.84,19.89 z M 405,547 c -4.72,0 -8.05,0 -11.38,0 -4.56,0 -4.57,0.06 -4.62,4.82 0,2.5 0,5 0,7.5 0.1,7.45 1.66,8.84 9,7.44 5.3,-1 10.5,-0.7 15.82,-0.11 5.93,0.65 11.94,0.51 17.87,1.35 2.26,0.32 3.4,-0.58 3.34,-3 -0.1,-4.67 -0.1,-9.33 0,-14 0,-2.15 -0.9,-3.08 -3,-2.94 C 422.5,548.65 413.1,546.44 405,547 Z"
           id="path22-1" />
        <path
           style="fill:#87542d"
           inkscape:connector-curvature="0"
           class="cls-3"
           d="m 385.07,519 a 2.84,2.84 0 0 1 0.88,2.22 74.26,74.26 0 0 0 1.89,17.07 c 0.48,2.24 0.13,4 -2.81,3.79 -0.26,-7.73 -0.38,-15.42 0.04,-23.08 z"
           id="path24-5" />
        <path
           style="fill:#87542d"
           inkscape:connector-curvature="0"
           class="cls-3"
           d="m 649.08,546.94 c 1.41,-1.55 3.27,-0.63 4.92,-0.92 3,0.46 6.07,-0.85 8.9,0.86 a 62.61,62.61 0 0 1 -13.82,0.06 z"
           id="path26-9" />
        <path
           style="fill:#87542d"
           inkscape:connector-curvature="0"
           class="cls-3"
           d="m 643,107.47 a 3.54,3.54 0 0 1 -1,-2.59 c 3,-0.69 6,-0.24 9,0.29 -0.87,1.5 -3.62,0 -3.91,2.41 z"
           id="path28-7" />
        <path
           style="fill:#87542d"
           inkscape:connector-curvature="0"
           class="cls-3"
           d="m 695.93,104 a 12.31,12.31 0 0 1 -9.83,0.11 32.4,32.4 0 0 1 9.83,-0.11 z"
           id="path30-7" />
        <path
           style="fill:#87542d"
           inkscape:connector-curvature="0"
           class="cls-3"
           d="m 665.93,105 a 10.25,10.25 0 0 1 -8.82,0.13 25.37,25.37 0 0 1 8.82,-0.13 z"
           id="path32-6" />
        <path
           style="fill:#87542d"
           inkscape:connector-curvature="0"
           class="cls-3"
           d="m 488.92,102.06 a 6.58,6.58 0 0 1 -6.82,0.08 16.33,16.33 0 0 1 6.82,-0.08 z"
           id="path34-7" />
        <path
           style="fill:#87542d"
           inkscape:connector-curvature="0"
           class="cls-3"
           d="m 881.09,547.89 a 4.77,4.77 0 0 1 5.83,0 12.49,12.49 0 0 1 -5.83,0 z"
           id="path36-3" />
        <path
           style="fill:#87542d"
           inkscape:connector-curvature="0"
           class="cls-3"
           d="m 503.9,102.14 a 4.82,4.82 0 0 1 -5.82,-0.08 12.31,12.31 0 0 1 5.82,0.08 z"
           id="path38-6" />
        <path
           style="fill:#87542d"
           inkscape:connector-curvature="0"
           class="cls-3"
           d="m 587.91,103.1 c -1,1.11 -1.91,1.08 -2.83,0 a 3.07,3.07 0 0 1 2.83,0 z"
           id="path40-5" />
        <path
           style="fill:#87542d"
           inkscape:connector-curvature="0"
           class="cls-3"
           d="m 451.93,103 c -0.91,1.12 -1.85,1.19 -2.83,0.1 a 3.11,3.11 0 0 1 2.83,-0.1 z"
           id="path42-6" />
        <path
           style="fill:#87542d"
           inkscape:connector-curvature="0"
           class="cls-3"
           d="m 838.91,106.11 c -1,1.12 -1.92,1.07 -2.84,-0.07 a 3.1,3.1 0 0 1 2.84,0.07 z"
           id="path44-3" />
        <path
           style="fill:#87542d"
           inkscape:connector-curvature="0"
           class="cls-3"
           d="m 387.91,105.14 c -0.72,1 -1.8,0.79 -2.8,0.85 0.55,-1.54 1.64,-1.32 2.8,-0.85 z"
           id="path46-9" />
        <path
           style="fill:#87542d"
           inkscape:connector-curvature="0"
           class="cls-3"
           d="m 426.93,104.06 c -0.59,0.93 -1.2,1 -1.84,0.06 a 1.46,1.46 0 0 1 1.84,-0.06 z"
           id="path48-4" />
        <path
           style="fill:#87542d"
           inkscape:connector-curvature="0"
           class="cls-3"
           d="m 589.08,548.9 c 0.6,-0.91 1.21,-0.94 1.83,0 a 1.53,1.53 0 0 1 -1.83,0 z"
           id="path50-8" />
        <path
           style="fill:#87542d"
           inkscape:connector-curvature="0"
           class="cls-3"
           d="m 818.91,105.13 c -0.66,1 -1.27,0.85 -1.84,-0.08 a 1.44,1.44 0 0 1 1.84,0.08 z"
           id="path52-1" />
        <path
           style="fill:#87542d"
           inkscape:connector-curvature="0"
           class="cls-3"
           d="m 648.46,544.65 a 22,22 0 0 1 9.45,-0.58 c -1,1.35 -2.59,0.71 -3.91,0.94 z"
           id="path54-2" />
        <path
           style="fill:#87542d"
           inkscape:connector-curvature="0"
           class="cls-3"
           d="m 727,106.91 a 27.56,27.56 0 0 1 -8.88,0.08 c 2.88,0.19 5.88,-0.94 8.88,-0.08 z"
           id="path56-9" />
        <path
           style="fill:#87542d"
           inkscape:connector-curvature="0"
           class="cls-3"
           d="m 674.9,107.89 a 4.92,4.92 0 0 1 -3.82,0.07 2.45,2.45 0 0 1 3.82,-0.07 z"
           id="path58-3" />
        <path
           style="fill:#87542d"
           inkscape:connector-curvature="0"
           class="cls-3"
           d="m 652.92,108 a 2.76,2.76 0 0 1 -2.83,-0.11 c 0.99,-1.16 1.91,-1.09 2.83,0.11 z"
           id="path60-9" />
        <path
           style="fill:#87542d"
           inkscape:connector-curvature="0"
           class="cls-3"
           d="m 795,107 a 8.47,8.47 0 0 1 -4.76,-0.11 z"
           id="path62-0" />
        <path
           style="fill:#87542d"
           inkscape:connector-curvature="0"
           class="cls-3"
           d="m 597,507 c 0.16,0.46 0.31,0.54 0.36,0.23 0,0 -0.25,-0.13 -0.39,-0.2 -0.21,-1.79 0.9,-3.32 1,-5.06 0,-7.63 0,-15.26 -0.08,-22.9 0,-1.59 0.54,-3.34 -0.7,-4.78 -0.75,-2.71 0.64,-5.24 0.71,-7.87 0.26,-10.13 0.6,-20.27 0.84,-30.39 0.59,-24.65 0.23,-49.32 0.16,-74 0,-5.94 -2,-11.83 -0.34,-17.81 a 1.65,1.65 0 0 0 -1.28,-1.9 c -1.71,-0.56 -3.36,-1.49 -5.29,-1.11 -8.52,1.67 -17.21,0.57 -25.81,1.57 -6.7,0.78 -13.58,-0.15 -20.38,-0.54 -13.1,-0.75 -26.25,-0.49 -39.39,-1.07 -14.46,-0.64 -29,-0.15 -43.48,-0.13 -2.65,0 -5.29,0.42 -7.91,0.62 a 137.93,137.93 0 0 1 -22.45,0 c -3.33,-0.29 -3,-0.47 -3.67,2.6 -1.78,8.86 -0.88,17.87 -1.64,26.81 -1,12.06 -0.72,24.24 -1.07,36.37 -0.64,22.29 -0.32,44.6 0.72,66.89 0.23,5 0.23,10 0,15 -0.14,3.55 0.93,6.9 1.24,10.37 0.24,2.7 1.4,3.33 4,2.62 a 13,13 0 0 1 6.42,-0.2 c 6.54,1.63 13.23,0.95 19.83,1.58 12,1.14 24.18,1.87 36.26,2.07 29.48,0.49 59,0.22 88.48,0.09 4.18,0 8.42,-1.8 12.34,1.09 0.38,0.25 1.03,0.05 1.52,0.05 z M 430,154 c -1.21,0.18 -3.1,-0.27 -2.39,2 0.71,2.27 0.34,4.63 0.43,7 0.72,17.31 -1.43,34.58 -1,51.88 0.17,6.18 -1.28,12.25 -0.94,18.39 0.29,5.3 1,10.56 0.9,15.9 -0.16,8.49 0.2,17 -0.09,25.49 -0.38,10.83 1.23,21.58 1.12,32.39 0,3.21 0.66,3.74 3.76,4 0.5,0 1,0 1.5,0 11.46,0.39 23,-0.86 34.4,0.92 a 4.92,4.92 0 0 0 2.47,-0.19 c 2.26,-0.87 4.59,-0.68 6.91,-0.67 10.47,0 20.94,0.49 31.39,0.75 23,0.57 46,0.19 69,0.18 a 51.48,51.48 0 0 0 7.42,-0.63 c 3.33,-0.48 7,-1.4 10.13,1 0.58,0.43 1.47,0.5 1.68,-0.22 0.5,-1.75 2.55,-2.67 2.35,-4.79 -0.5,-5.34 0.9,-10.58 0.91,-15.89 q 0.06,-58.24 0,-116.49 a 20.24,20.24 0 0 0 -0.16,-4.48 c -1.37,-5.86 -0.89,-11.88 -1.71,-17.8 -0.75,-5.45 -0.39,-5.64 -5.78,-5.64 -8.8,0 -17.61,0.64 -26.39,0.79 -42.45,0.74 -84.93,-0.53 -127.38,1.14 -3,0.12 -5.9,0.88 -8.87,1.15 a 1.38,1.38 0 0 0 -1.44,1.63 c 0.12,1.05 1,1.15 1.83,1.38 C 430,153.4 430,153.7 430,154 Z m -22.1,128.46 c 0,-3 0.06,-6 0,-9 a 1.84,1.84 0 0 0 -1.75,-2 c -1,0 -1.23,0.95 -1.6,1.66 a 7.46,7.46 0 0 0 -0.49,3.41 c 0,2.16 0.09,4.34 -0.14,6.48 a 296.76,296.76 0 0 0 -1.92,31.7 c 0,4.48 1.47,8.84 1,13.35 -0.47,4.34 1.22,8.52 1.05,12.84 0,0.86 0.28,1.75 1.3,1.8 1.36,0.08 1.5,-1 1.58,-2 0,-0.49 0,-1 0,-1.49 0.36,-18.94 -0.73,-37.87 0.97,-56.75 z M 608,173.83 c 0,3.78 0,7.78 0,11.78 0,1.15 0.06,2.63 1.56,2.64 1.14,0 1.33,-1.28 1.4,-2.3 q 1,-14.38 2,-28.77 a 19.35,19.35 0 0 1 0.2,-4 c 1.37,-4.76 0.51,-9.61 0.75,-14.41 a 7,7 0 0 0 -1.55,-4.63 1.8,1.8 0 0 0 -1.24,-0.67 1.18,1.18 0 0 0 -1.13,1.35 c 0.11,3 -1,6 -0.9,8.89 0.37,10.02 -1.53,19.91 -1.09,30.12 z m 0.63,337.41 a 1.92,1.92 0 0 0 1.28,-2 86.18,86.18 0 0 1 0.94,-10.88 72.9,72.9 0 0 0 0,-11 1.85,1.85 0 0 0 -1.86,-2 c -1.21,0 -1.67,0.94 -1.87,2 a 10.93,10.93 0 0 0 -0.09,2 q 0,8.73 0,17.46 c 0.02,1.7 0.02,3.37 1.61,4.42 z M 416,312.67 c -0.27,-3.86 1.81,-6.78 0.7,-10 -0.8,-2.27 -0.64,-4.57 -0.66,-6.87 0,-5.63 0,-11.26 -0.08,-16.89 0,-0.88 0.34,-2.09 -1.41,-2.38 -1.16,3.92 -2.19,8 -1.4,12 1.2,6.1 0.61,12.2 0.87,18.29 0.07,1.82 -0.24,3.7 1.98,5.85 z"
           id="path64-8" />
        <path
           style="fill:#87542d"
           inkscape:connector-curvature="0"
           class="cls-3"
           d="m 638.64,409.46 c -0.54,43.29 0,86.58 -0.68,129.86 -0.07,4.65 -0.09,5 -4.71,4.58 -16.61,-1.63 -33.28,-1.28 -49.88,-0.73 -53,1.76 -105.9,0.57 -158.84,0.58 -10.74,0 -21.56,-0.54 -33,-0.83 1.49,-7 -0.4,-13.38 -0.84,-19.81 -0.44,-6.59 -1.74,-13.13 -1.72,-19.78 0,-1.17 -0.06,-2.34 0,-3.5 0.63,-15.15 -0.49,-30.28 -1.17,-45.37 -1.61,-35.8 -1.33,-71.61 -0.47,-107.36 1,-41.47 -0.56,-82.93 0.87,-124.35 1.25,-36.47 0.31,-72.92 0.84,-109.37 0.06,-4.35 0.09,-4.15 4.51,-4.46 15.11,-1 30.28,-0.27 45.37,-1.15 11,-0.64 21.95,-0.21 32.89,-0.87 31.78,-1.92 63.59,-1 95.36,-0.56 16.45,0.23 32.94,-0.08 49.37,0.84 6.3,0.36 12.59,0.76 18.89,0.85 2.57,0 3.65,1.32 3.53,3.75 -0.2,4 0.51,8 -0.63,11.92 a 14.54,14.54 0 0 0 -0.28,4 c 0,35.32 -0.76,70.66 0.17,106 1.55,58.54 1.16,117.17 0.42,175.76 z"
           id="path66-8" />
        <path
           style="fill:#87542d"
           inkscape:connector-curvature="0"
           class="cls-3"
           d="m 405,547 c 8.11,-0.55 17.51,1.66 27,1 2.08,-0.14 3,0.79 3,2.94 -0.06,4.67 -0.06,9.33 0,14 0.06,2.46 -1.08,3.36 -3.34,3 -5.93,-0.84 -11.94,-0.7 -17.87,-1.35 -5.32,-0.59 -10.52,-0.91 -15.82,0.11 -7.32,1.4 -8.88,0 -9,-7.44 0,-2.5 0,-5 0,-7.5 0.05,-4.76 0.06,-4.78 4.62,-4.82 3.35,0.06 6.68,0.06 11.41,0.06 z"
           id="path68-5" />
        <path
           style="fill:#87542d"
           inkscape:connector-curvature="0"
           class="cls-3"
           d="m 642.06,544 1.89,1.08 C 642.59,546 642.33,545 642.06,544 Z"
           id="path70-0" />
        <path
           style="fill:#2fafee"
           inkscape:connector-curvature="0"
           class="cls-7"
           d="m 759.94,166.38 a 3.89,3.89 0 0 1 3,1.21 c 2.14,1.84 4.35,3.62 6.37,5.6 q 15.12,14.9 30.16,29.89 c 5.52,5.51 11.35,10.71 16.81,16.31 5,5.17 11.14,9.3 16.73,13.94 1.92,1.59 3.75,3.3 5.57,5 0.56,0.53 1.36,1.19 0.56,2.06 -0.51,0.56 -1.25,0.34 -1.83,0 -1.13,-0.7 -2.27,-1.4 -3.32,-2.2 A 477.92,477.92 0 0 1 785.14,195.58 Q 773,183.34 760.86,171.1 a 11.23,11.23 0 0 1 -2,-2.24 c -0.75,-1.4 0.19,-2.09 1.08,-2.48 z"
           id="path72-9" />
        <path
           style="fill:#2fafee"
           inkscape:connector-curvature="0"
           class="cls-7"
           d="m 817.24,183.22 a 13.46,13.46 0 0 1 2.3,1.05 86.1,86.1 0 0 1 16.76,14.66 5,5 0 0 1 1.05,1.65 1.92,1.92 0 0 1 -0.23,1.37 1.29,1.29 0 0 1 -1.72,0.52 8.09,8.09 0 0 1 -2.12,-1.26 176.4,176.4 0 0 0 -16.54,-12.65 6.81,6.81 0 0 1 -2,-2.11 c -1.05,-1.74 0.06,-3.36 2.5,-3.23 z"
           id="path74-6" />
        <path
           style="fill:#2fafee"
           inkscape:connector-curvature="0"
           class="cls-7"
           d="m 797.61,223.71 a 1,1 0 0 1 -1.23,0.83 10.63,10.63 0 0 1 -3,-1.65 c -5.94,-4.59 -11.06,-10 -16.1,-15.57 a 5,5 0 0 1 -1,-1.7 1.34,1.34 0 0 1 0.48,-1.75 2,2 0 0 1 1.39,0 7.51,7.51 0 0 1 3.09,2.46 c 2.64,3 5.18,6.06 7.83,9 2.29,2.59 4.34,5.47 7.56,7.09 0.37,0.24 0.92,0.38 0.98,1.29 z"
           id="path76-3" />
        <path
           style="fill:#2fafee"
           inkscape:connector-curvature="0"
           class="cls-7"
           d="m 799.28,167.24 c 3,2.68 6,5.35 9,8.07 a 1.28,1.28 0 0 1 0,1.8 1.26,1.26 0 0 1 -1.79,0.23 c -3.32,-2.59 -6.64,-5.21 -7.21,-10.1 z"
           id="path78-8" />
        <path
           style="fill:#573720"
           inkscape:connector-curvature="0"
           class="cls-8"
           d="m 430.08,153.1 c -0.79,-0.23 -1.71,-0.33 -1.83,-1.38 a 1.38,1.38 0 0 1 1.44,-1.63 c 3,-0.27 5.84,-1 8.87,-1.15 42.45,-1.67 84.93,-0.4 127.38,-1.14 8.78,-0.15 17.59,-0.78 26.39,-0.79 5.39,0 5,0.19 5.78,5.64 0.82,5.92 0.34,11.94 1.71,17.8 a 20.24,20.24 0 0 1 0.16,4.48 q 0,58.24 0,116.49 c 0,5.31 -1.41,10.55 -0.91,15.89 0.2,2.12 -1.85,3 -2.35,4.79 -0.21,0.72 -1.1,0.65 -1.68,0.22 -3.18,-2.37 -6.8,-1.45 -10.13,-1 a 51.48,51.48 0 0 1 -7.42,0.63 c -23,0 -46,0.39 -69,-0.18 -10.45,-0.26 -20.92,-0.72 -31.39,-0.75 -2.32,0 -4.65,-0.2 -6.91,0.67 a 4.92,4.92 0 0 1 -2.47,0.19 c -11.43,-1.78 -22.94,-0.53 -34.4,-0.92 -0.5,0 -1,0 -1.5,0 -3.1,-0.25 -3.8,-0.78 -3.76,-4 0.11,-10.81 -1.5,-21.56 -1.12,-32.39 0.29,-8.49 -0.07,-17 0.09,-25.49 0.1,-5.34 -0.61,-10.6 -0.9,-15.9 -0.34,-6.14 1.11,-12.21 0.94,-18.39 -0.46,-17.3 1.69,-34.57 1,-51.88 -0.09,-2.32 0.29,-4.63 -0.43,-7 -0.72,-2.37 1.18,-1.79 2.39,-2 a 3.62,3.62 0 0 1 2.07,1.9 l -0.12,2.83 c -0.26,9.45 -0.08,18.9 -0.62,28.38 -0.8,14.41 -0.69,28.88 -1.05,43.33 -0.58,23.09 0,46.19 0.65,69.28 0,0.6 -0.17,1.37 1.33,1.78 3.2,-4.29 8.28,-7 11.73,-11.51 a 3.25,3.25 0 0 0 3,-1.59 16.85,16.85 0 0 1 2.44,-0.34 l 123.26,-0.16 c 0.66,0 1.33,0 2,0 3,-0.24 3.53,-0.82 3,-3.72 a 128.1,128.1 0 0 1 -1.6,-23.31 108.91,108.91 0 0 0 -0.32,-14.46 c -1.14,-9.59 -0.91,-19.23 -1.45,-28.84 -0.69,-12.1 -0.18,-24.28 -0.08,-36.42 0,-3.31 0.6,-6.61 0.71,-9.92 0.17,-4.75 0,-4.82 -5,-5.11 l -1,-0.08 c 0.82,-1.83 2.39,-2.15 4.15,-2.08 1.46,0.06 2.66,-0.27 3.05,-1.91 l 2,0.91 H 579 l 0.06,2.15 c -1.25,1.56 -1.17,3.4 -1.14,5.24 0.32,20.45 -0.42,40.89 0.78,61.36 0.83,14.08 1.72,28.22 1.17,42.37 -0.13,3.32 0,6.66 0.18,10 0.18,3.34 0.51,3.58 3.79,3.9 1.61,0.16 3.55,-0.66 4.87,1.11 -1.58,1.7 -3.79,0.29 -5.25,1.58 1.58,5.13 8.8,14.71 12,15.9 0.88,-1.55 0.47,-3.24 0.47,-4.86 -0.1,-48.91 1,-97.82 -0.9,-146.72 0,-0.36 0,-0.72 -0.07,-1.07 0.1,-1.69 -0.2,-2.92 -2.36,-2.86 -4.32,0.12 -8.67,-0.17 -13,0.21 -10.42,0.92 -20.85,1.64 -31.3,1.67 q -59.11,0.25 -118.22,0.25 z m 159.55,154.64 c 0.21,-2.24 -1,-3.25 -1.83,-4.44 -1.72,-2.45 -4,-4.68 -5,-7.39 -1.86,-4.64 -5.12,-5.14 -9.49,-5.09 q -52.46,0.56 -104.9,0 a 61.29,61.29 0 0 1 -8.44,-0.59 c -5.33,-0.8 -10.67,-1 -14.26,4.32 -0.53,0.78 -1.6,1.18 -2.32,1.87 -3.67,3.48 -7.71,6.61 -11.39,11.6 53.05,-0.85 105.21,1.9 157.63,-0.28 z"
           id="path80-5" />
        <path
           style="fill:#ad8160"
           inkscape:connector-curvature="0"
           class="cls-9"
           d="M 432,155.91 A 3.62,3.62 0 0 0 430,154 c 0,-0.31 0.07,-0.61 0.11,-0.91 q 59.12,-0.07 118.24,-0.19 c 10.45,0 20.88,-0.75 31.3,-1.67 4.3,-0.38 8.65,-0.09 13,-0.21 2.16,-0.06 2.46,1.17 2.36,2.86 -6.41,1.1 -11.11,5.21 -16,9.06 h -0.85 c -0.26,-0.85 0.18,-2.17 -1.16,-2.32 -0.74,-0.09 -0.88,0.74 -0.87,1.41 -0.39,1.64 -1.59,2 -3.05,1.91 -1.76,-0.07 -3.33,0.25 -4.13,2.08 h -0.4 c -0.3,-1.63 -1.45,-2 -2.89,-2 -5.08,0 -10.16,0 -15.24,0 -1.44,0 -2.58,0.39 -2.93,2 h -7.94 a 2.26,2.26 0 0 0 -2.43,-1.93 c -5.36,0.2 -10.74,-0.44 -16.06,0.59 -2,-0.57 -3.92,0.38 -5.92,0.31 -11.66,-0.43 -23.26,1.18 -34.91,1.13 a 19,19 0 0 0 -2,0.13 c -8.08,0.85 -16.16,1.67 -24.28,1.9 -2,0 -4,0.06 -5,2.35 l -1.49,0.51 a 5.47,5.47 0 0 0 -3.48,-5 l -0.92,-0.84 -0.31,0.54 1.25,0.29 c 0,1.66 0.17,3.32 0.06,5 -0.62,9.93 -1.73,19.84 -1.86,29.77 -0.16,12.63 -1.29,25.21 -1.18,37.84 0.05,5.48 0.18,11 0,16.45 -0.33,8.5 0.62,16.93 1.24,25.36 0.23,3.18 0,6.63 1.73,9.62 -3.45,4.5 -8.53,7.22 -11.73,11.51 -1.5,-0.41 -1.31,-1.18 -1.33,-1.78 -0.61,-23.09 -1.23,-46.19 -0.65,-69.28 0.36,-14.45 0.25,-28.92 1.05,-43.33 0.54,-9.48 0.36,-18.93 0.62,-28.38 3.49,0.4 5.38,3.89 8.69,4.71 -1.84,-3.86 -4.92,-6.07 -8.64,-7.58 z"
           id="path82-6" />
        <path
           style="fill:#51331c"
           inkscape:connector-curvature="0"
           class="cls-10"
           d="m 597.37,502 c 0,1.68 0,3.37 -0.1,5.05 -2,0.16 -4.25,-1.32 -6.32,-1.52 a 56,56 0 0 0 -7.33,-0.07 q -33.81,1.19 -67.65,0.64 -33.84,-0.55 -67.6,-2.82 -4.9,-0.33 -9.79,-0.69 c -2.62,-0.2 -6.08,0.14 -8.58,-0.72 -2.31,-0.79 -2,-4.18 -2.25,-6.22 -0.35,-3.27 -0.5,-6.55 -0.63,-9.84 a 1402.36,1402.36 0 0 1 1.35,-140.27 3.54,3.54 0 0 1 4.37,-4.11 l 159.54,0.91 a 8.56,8.56 0 0 1 4,0.67 c 2.74,1.46 3.05,5.2 3,8.31 l -0.92,68 -0.91,67 z M 433,348.94 c 0.24,5.51 -0.86,10.93 -0.91,16.43 -0.42,43.16 0.11,86.31 0,129.46 a 2,2 0 0 0 0.7,2.09 c 0.62,1 1.63,1 2.63,1.05 10.61,0.63 21.21,1.62 31.82,1.82 17,0.31 33.89,1.55 50.87,1.09 3.32,-0.09 6.65,0 10,-0.05 3.82,-0.09 7.63,-0.1 11.45,-0.31 a 238.64,238.64 0 0 1 29.9,0 c 7.13,0.49 14.3,0.36 21.45,0.5 1.21,0 1.85,-0.55 1.76,-1.82 0.09,-1.11 0.19,-2.21 0.28,-3.32 0,-8.82 0.39,-17.63 0.89,-26.44 0.71,-12.46 0.53,-25 0.83,-37.44 0.65,-27.65 0.37,-55.32 0.44,-83 0,-3.17 -1.08,-4 -4.29,-3.78 -12.44,1 -24.88,1.81 -37.37,1.65 -6.16,-0.08 -12.31,-0.53 -18.45,-0.66 -33.32,-0.67 -66.65,-0.41 -100,-0.26 -1,-1.05 -1.66,-0.78 -1.91,0.54 a 17.38,17.38 0 0 0 -0.09,2.45 z"
           id="path84-1" />
        <path
           style="fill:#51331c"
           inkscape:connector-curvature="0"
           class="cls-10"
           d="m 407.9,282.46 c 0,4.13 -0.63,8.33 -0.8,12.46 -0.18,4.35 -0.19,8.71 -0.23,13.06 -0.1,10.7 0.15,21.39 0.11,32.09 a 3.34,3.34 0 0 1 -0.49,2.14 c -2.66,3.39 -3.68,-8 -3.71,-8.84 -0.39,-10.1 -0.53,-20.21 -0.19,-30.3 0.17,-5 0.65,-10 0.89,-15 0.23,-4.71 0.21,-9.41 0.77,-14.1 0.31,-2.57 3.53,-3.59 3.62,-0.5 0.09,3.09 0.03,6 0.03,8.99 z"
           id="path86-1" />
        <path
           style="fill:#51331c"
           inkscape:connector-curvature="0"
           class="cls-10"
           d="m 608,173.83 c 0,-12.74 0.9,-25.61 1.94,-38.31 0.3,-3.63 3.22,-1.26 3.78,0.92 0.95,3.71 0.13,8.24 -0.1,12 -0.27,4.52 -0.67,9 -1,13.56 -0.62,8 -1.06,16 -1.62,24 -0.07,1 -0.26,2.32 -1.4,2.3 -1.5,0 -1.55,-1.49 -1.56,-2.64 C 608,181.61 608,177.61 608,173.83 Z"
           id="path88-5" />
        <path
           style="fill:#573720"
           inkscape:connector-curvature="0"
           class="cls-8"
           d="m 608.64,511.24 c -1.59,-1.05 -1.59,-2.72 -1.59,-4.36 q 0,-8.73 0,-17.46 a 10.93,10.93 0 0 1 0.09,-2 c 0.2,-1 0.66,-2 1.87,-2 a 1.85,1.85 0 0 1 1.86,2 72.9,72.9 0 0 1 0,11 86.18,86.18 0 0 0 -0.94,10.88 1.92,1.92 0 0 1 -1.29,1.94 z"
           id="path90-9" />
        <path
           style="fill:#573720"
           inkscape:connector-curvature="0"
           class="cls-8"
           d="m 416,312.67 c -2.22,-2.15 -1.91,-4 -2,-5.82 -0.26,-6.09 0.33,-12.19 -0.87,-18.29 -0.79,-4 0.24,-8.07 1.4,-12 1.75,0.29 1.41,1.5 1.41,2.38 0.06,5.63 0,11.26 0.08,16.89 0,2.3 -0.14,4.6 0.66,6.87 1.13,3.19 -0.95,6.11 -0.68,9.97 z"
           id="path92-8" />
        <path
           style="fill:#51331c"
           inkscape:connector-curvature="0"
           class="cls-10"
           d="m 597,507 c 0.14,0.07 0.4,0.16 0.39,0.2 0,0.31 -0.2,0.23 -0.36,-0.23 z"
           id="path94-4" />
        <path
           style="fill:#b08362"
           inkscape:connector-curvature="0"
           class="cls-11"
           d="m 568.53,166 h 0.4 l 1,0.08 c 5,0.29 5.17,0.36 5,5.11 -0.11,3.31 -0.68,6.61 -0.71,9.92 -0.1,12.14 -0.61,24.32 0.08,36.42 0.54,9.61 0.31,19.25 1.45,28.84 a 108.91,108.91 0 0 1 0.32,14.46 128.1,128.1 0 0 0 1.6,23.31 c 0.49,2.9 -0.06,3.48 -3,3.72 -0.66,0.05 -1.33,0 -2,0 l -123.26,0.16 a 16.85,16.85 0 0 0 -2.44,0.34 c -2.1,-1.94 -1.79,-4.5 -1.83,-7 -0.54,-32.05 0.14,-64.08 1.07,-96.11 0.14,-4.78 0.86,-9.54 1.31,-14.31 l 1.49,-0.51 c 5.6,-0.92 11.28,-0.26 16.88,-0.73 11.09,-0.93 22.18,-1.78 33.3,-1.77 7.33,0 14.6,-0.71 21.89,-1.22 a 90.89,90.89 0 0 0 18.5,-0.76 h 7.94 c 6.97,1.05 13.99,1.65 21.01,0.05 z"
           id="path96-8" />
        <path
           style="fill:#ad8160"
           inkscape:connector-curvature="0"
           class="cls-9"
           d="m 589.63,307.74 c -52.42,2.18 -104.58,-0.57 -157.68,0.32 3.68,-5 7.72,-8.12 11.39,-11.6 0.72,-0.69 1.79,-1.09 2.32,-1.87 3.59,-5.35 8.93,-5.12 14.26,-4.32 a 61.29,61.29 0 0 0 8.44,0.59 q 52.44,0.5 104.9,0 c 4.37,-0.05 7.63,0.45 9.49,5.09 1.08,2.71 3.33,4.94 5,7.39 0.88,1.15 2.09,2.16 1.88,4.4 z"
           id="path98-1" />
        <path
           style="fill:#af8261"
           inkscape:connector-curvature="0"
           class="cls-12"
           d="m 595,155 c 1.93,48.9 0.8,97.81 0.9,146.72 0,1.62 0.41,3.31 -0.47,4.86 -3.2,-1.19 -10.42,-10.77 -12,-15.9 1.46,-1.29 3.67,0.12 5.25,-1.58 -1.32,-1.77 -3.26,-0.95 -4.87,-1.11 -3.28,-0.32 -3.63,-0.54 -3.79,-3.9 -0.16,-3.36 -0.31,-6.66 -0.18,-10 0.55,-14.15 -0.34,-28.29 -1.17,-42.37 -1.2,-20.47 -0.46,-40.91 -0.78,-61.36 0,-1.84 -0.11,-3.68 1.14,-5.24 2,-0.39 3.46,-1.73 5.12,-2.77 3.73,-2.35 6.54,-6 10.85,-7.35 z"
           id="path100-0" />
        <path
           style="fill:#5f3f27"
           inkscape:connector-curvature="0"
           class="cls-13"
           d="m 447.47,171 c -0.45,4.77 -1.17,9.53 -1.31,14.31 -0.93,32 -1.61,64.06 -1.07,96.11 0,2.48 -0.27,5 1.83,7 a 3.25,3.25 0 0 1 -3,1.59 c -1.69,-3 -1.5,-6.44 -1.73,-9.62 -0.62,-8.43 -1.57,-16.86 -1.24,-25.36 0.22,-5.47 0.09,-11 0,-16.45 -0.11,-12.63 1,-25.21 1.18,-37.84 0.13,-9.93 1.24,-19.84 1.86,-29.77 0.11,-1.65 0,-3.31 -0.06,-5 v 0 a 5.47,5.47 0 0 1 3.54,5.03 z"
           id="path102-3" />
        <path
           style="fill:#5f3f27"
           inkscape:connector-curvature="0"
           class="cls-13"
           d="m 595,155 c -4.33,1.39 -7.14,5 -10.85,7.37 -1.66,1 -3.12,2.38 -5.12,2.77 L 579,163 c 4.85,-3.85 9.55,-8 16,-9.06 0,0.3 0,0.66 0,1.06 z"
           id="path104-0" />
        <path
           style="fill:#5f3f27"
           inkscape:connector-curvature="0"
           class="cls-13"
           d="m 432,155.91 c 3.68,1.51 6.76,3.72 8.57,7.54 -3.31,-0.82 -5.2,-4.31 -8.69,-4.71 z"
           id="path106-4" />
        <path
           style="fill:#5f3f27"
           inkscape:connector-curvature="0"
           class="cls-13"
           d="m 576.11,162 c 0,-0.67 0.13,-1.5 0.87,-1.41 1.34,0.15 0.9,1.47 1.16,2.32 z"
           id="path108-4" />
        <path
           style="fill:#5f3f27"
           inkscape:connector-curvature="0"
           class="cls-13"
           d="m 521,166.78 c -7.29,0.51 -14.56,1.22 -21.89,1.22 -11.12,0 -22.21,0.84 -33.3,1.77 -5.6,0.47 -11.28,-0.19 -16.88,0.73 1,-2.29 3,-2.3 5,-2.35 8.12,-0.23 16.2,-1.05 24.28,-1.9 a 19,19 0 0 1 2,-0.13 c 11.65,0 23.25,-1.56 34.91,-1.13 2,0.07 3.92,-0.88 5.92,-0.31 -0.04,0.7 -0.04,1.4 -0.04,2.1 z"
           id="path110-4" />
        <path
           style="fill:#573720"
           inkscape:connector-curvature="0"
           class="cls-8"
           d="m 568.53,166 c -7,1.59 -14,1 -21.06,0 0.35,-1.59 1.49,-2 2.93,-2 5.08,0 10.16,0 15.24,0 1.44,0 2.59,0.38 2.89,2 z"
           id="path112-4" />
        <path
           style="fill:#573720"
           inkscape:connector-curvature="0"
           class="cls-8"
           d="m 521,166.78 c 0,-0.7 0,-1.4 0,-2.1 5.32,-1 10.7,-0.39 16.06,-0.59 a 2.26,2.26 0 0 1 2.43,1.93 90.89,90.89 0 0 1 -18.49,0.76 z"
           id="path114-7" />
        <path
           style="fill:#5f3f27"
           inkscape:connector-curvature="0"
           class="cls-13"
           d="m 444,166 -1.25,-0.28 0.31,-0.54 0.92,0.84 z"
           id="path116-6" />
        <path
           style="fill:#ad8160"
           inkscape:connector-curvature="0"
           class="cls-9"
           d="M 587.3,501 H 433 v -3.78 a 3.21,3.21 0 0 0 2.41,0.75 c 10.61,0.63 21.21,1.62 31.82,1.82 17,0.31 33.89,1.55 50.87,1.09 3.32,-0.09 6.65,0 10,-0.05 3.82,-0.09 7.63,-0.1 11.45,-0.31 a 238.64,238.64 0 0 1 29.9,0 c 5.92,0.48 11.89,0.42 17.85,0.48 z"
           id="path118-3" />
        <path
           style="fill:#ad8160"
           inkscape:connector-curvature="0"
           class="cls-9"
           d="m 432.78,496.92 0.22,-0.18 v 0.48 a 2.32,2.32 0 0 1 -0.22,-0.3 z"
           id="path120-1" />
        <path
           style="fill:#ad8160"
           inkscape:connector-curvature="0"
           class="cls-9"
           d="m 591.46,501 a 2.67,2.67 0 0 1 -0.58,0.05 L 587.3,501 Z"
           id="path122-7" />
        <path
           style="fill:#ad8160"
           inkscape:connector-curvature="0"
           class="cls-9"
           d="m 433,348.94 v 1.62 q 0,-0.81 0,-1.62 z"
           id="path124-5" />
        <path
           style="fill:#ad8160"
           inkscape:connector-curvature="0"
           class="cls-9"
           d="m 432.06,365.37 c 0.05,-5 0.94,-9.86 0.94,-14.81 v 143.66 c -0.3,0.21 -0.6,0.41 -0.92,0.61 0.09,-43.15 -0.44,-86.3 -0.02,-129.46 z"
           id="path126-9" />
        <path
           style="fill:#ad8160"
           inkscape:connector-curvature="0"
           class="cls-9"
           d="m 593,347 v 154 h -5.7 c -6,-0.06 -11.93,0 -17.87,-0.45 a 238.64,238.64 0 0 0 -29.9,0 c -3.82,0.21 -7.63,0.22 -11.45,0.31 -3.33,0.09 -6.66,0 -10,0.05 -17,0.46 -33.91,-0.78 -50.87,-1.09 C 456.6,499.62 446,498.63 435.39,498 a 3.21,3.21 0 0 1 -2.41,-0.75 V 347 Z"
           id="path128-6" />
        <path
           style="fill:#ad8160"
           inkscape:connector-curvature="0"
           class="cls-9"
           d="m 594.64,432 c -0.3,12.48 -0.12,25 -0.83,37.44 -0.37,6.61 -0.68,13.21 -0.81,19.83 V 348.81 a 4.8,4.8 0 0 0 0.27,-1.47 L 593,347.48 V 347 H 436.12 L 435,346 c 33.32,-0.15 66.65,-0.41 100,0.26 6.14,0.13 12.29,0.58 18.45,0.66 12.49,0.16 24.93,-0.61 37.37,-1.65 3.21,-0.26 4.29,0.61 4.29,3.78 -0.11,27.66 0.18,55.33 -0.47,82.95 z"
           id="path130-2" />
        <path
           style="fill:#ad8160"
           inkscape:connector-curvature="0"
           class="cls-9"
           d="m 448,479 v 0 0 -0.06 z"
           id="path132-1" />
        <path
           style="fill:#51331c"
           inkscape:connector-curvature="0"
           class="cls-10"
           d="m 448,479 a 14.92,14.92 0 0 1 -1.94,-7.91 c 0.12,-9 -0.37,-17.95 -0.84,-26.92 -0.71,-13.65 0.56,-27.29 1.12,-40.91 0.42,-10.14 0.52,-20.28 0.81,-30.42 0,-1.17 -0.26,-2.44 0.1,-3.49 1.83,-5.36 0,-9.11 -4.51,-12.22 -2.29,-1.59 -4,-4 -6.05,-5.95 -1.05,-1 -2,-2.33 -3.7,-2.28 a 17.38,17.38 0 0 1 0.12,-2.4 c 0.25,-1.32 0.92,-1.59 1.91,-0.54 a 67.12,67.12 0 0 1 9.69,10 c 0.95,1.27 2.13,2.9 4,0.92 a 1.32,1.32 0 0 1 1.79,-0.3 c 4.26,2.88 9.26,2.17 13.83,2.16 14.14,0 28.23,1.08 42.34,1.58 8.13,0.29 16.28,0.86 24.39,0.43 12.43,-0.65 24.86,-1.24 37.29,-1.84 4.61,-0.22 9.3,-0.27 13.62,-2.3 0.29,1 0,2.84 2,1.51 l 4,0.06 0.03,1.82 c -8.92,0.15 -8.52,0.38 -7.64,9.43 a 89.88,89.88 0 0 1 0,17.89 c -0.17,1.65 -0.27,3.32 -0.28,5 -0.09,13.32 -0.34,26.64 -0.15,40 0.15,10.33 -0.92,20.6 -1.14,30.9 A 30.75,30.75 0 0 1 578,468 l -1.71,-0.11 c -0.68,-5 0.75,-9.91 0.72,-14.91 q -0.16,-31.74 0.21,-63.48 c 0.08,-7.14 1,-14.27 0.73,-21.43 0,-1.17 0.06,-2.35 -0.09,-3.5 -0.38,-3 -1,-3.71 -4.2,-3.54 -5.64,0.29 -11.29,0.62 -16.88,1.31 a 51.93,51.93 0 0 1 -7.45,0.58 c -8.49,-0.18 -16.91,1.15 -25.42,1 -12.64,-0.16 -25.25,-0.68 -37.85,-1.81 a 60.87,60.87 0 0 0 -8,-0.17 c -7.67,0.32 -15.27,-1 -22.92,-1 -4.14,0 -4.18,0 -4.27,4.15 -0.33,14.14 -0.16,28.31 -1.07,42.42 -1.31,20.14 -0.58,40.28 -0.68,60.42 0,1 0,2 0,3 -0.27,4.48 5.78,3 8.69,3 5,-0.1 9.91,-0.38 14.86,-0.59 8,-0.33 16,-0.25 24,-0.37 6.53,-0.1 13.15,-0.76 19.65,-0.57 6.83,0.19 13.66,0.36 20.49,0.21 10.62,-0.22 21.34,-1.18 31.8,0.67 a 3.08,3.08 0 0 1 1.57,0.6 1.08,1.08 0 0 1 0.16,1.51 1.63,1.63 0 0 1 -1.09,0.31 c -6.54,0.19 -13.17,0.11 -19.68,0.67 a 136,136 0 0 1 -19.88,0.3 283.5,283.5 0 0 0 -29.43,-0.5 q -23.48,0.94 -46.93,0.56 c -2.33,0.01 -3.8,1.06 -5.33,2.27 z"
           id="path134-7" />
        <path
           style="fill:#51331c"
           inkscape:connector-curvature="0"
           class="cls-10"
           d="M 576.27,467.9 578,468 a 11.46,11.46 0 0 0 2.7,8.65 93.48,93.48 0 0 1 8.84,14.35 c 0.93,1.76 3,3.56 4.46,5 -0.09,1.11 0.1,2.89 0,4 -2.37,-1.48 -4.69,-4.76 -6,-7 q -4.82,-8.08 -9.69,-16.15 c -1.7,-2.78 -2.75,-5.66 -2.04,-8.95 z"
           id="path136-8" />
        <path
           style="fill:#51331c"
           inkscape:connector-curvature="0"
           class="cls-10"
           d="m 432.08,494.83 c 5.06,-3.15 7.92,-8.39 11.85,-12.62 1.22,-1.32 2.89,-5.15 5.07,-5.21 a 67.89,67.89 0 0 1 -16.22,19.92 2,2 0 0 1 -0.7,-2.09 z"
           id="path138-5" />
        <path
           style="fill:#51331c"
           inkscape:connector-curvature="0"
           class="cls-10"
           d="m 583.94,358.12 c -2,1.33 -1.72,-0.49 -2,-1.51 2.81,-4.29 6.85,-7 11.34,-9.27 -0.1,2.72 -2,4 -3.76,5.3 -2.12,1.6 -4.28,3.09 -5.58,5.48 z"
           id="path140-7" />
        <path
           style="fill:#51331c"
           inkscape:connector-curvature="0"
           class="cls-10"
           d="m 588,360 -0.06,-1.78 a 7.53,7.53 0 0 1 1.41,-0.12 c 0.87,0.07 2.19,-0.21 2.06,1.19 -0.09,0.88 -1.23,0.74 -2,0.77 A 13.68,13.68 0 0 1 588,360 Z"
           id="path142-4" />
        <path
           style="fill:#553822"
           inkscape:connector-curvature="0"
           class="cls-6"
           d="m 885.69,544.65 c 1.56,-0.4 3,0.16 4.52,0.44 1.35,0.9 1.61,-0.09 1.88,-1.08 0.68,-29.31 -0.05,-58.62 0.11,-87.93 0.19,-34.64 -1,-69.28 -1.18,-103.92 -0.17,-29.15 -1.1,-58.29 -0.72,-87.44 q 0.63,-47.48 1,-94.94 c 0.11,-16.49 0,-33 -0.29,-49.47 -0.06,-4.29 0.93,-8.56 0.15,-12.84 a 3.57,3.57 0 0 0 1,-2.59 c 2.19,-1.25 4.55,-0.25 6.82,-0.4 15.71,-1 31.45,-1.62 47.21,-1.38 1,1.11 1.91,1.08 2.83,0 27,-1.34 54.12,-0.76 81.18,-0.91 a 4.82,4.82 0 0 0 5.82,-0.08 48.33,48.33 0 0 1 9.16,0 6.58,6.58 0 0 0 6.82,0.08 c 10.07,-0.26 20.12,0.43 30.17,0.9 0.91,1.12 1.85,1.19 2.83,0.1 7.41,-0.21 14.78,0.66 22.17,0.92 0.59,0.93 1.2,1 1.84,0.06 l 37.18,1 c 0.72,1 1.8,0.79 2.8,0.85 a 7.59,7.59 0 0 1 1.68,6.37 c -1.73,9 -1.35,18.21 -1.1,27.35 0.8,29.15 0.62,58.31 1.4,87.46 1.15,43.48 -0.79,87 0.82,130.46 1,26.13 -0.72,52.31 0.18,78.47 a 84.33,84.33 0 0 1 -0.23,9 c -1,13.29 -1.73,26.6 -1.54,39.94 0.16,11.33 -0.57,22.64 -1.17,33.94 a 2.84,2.84 0 0 0 -0.88,2.22 74.26,74.26 0 0 1 -1.89,17.07 c -0.48,2.24 -0.13,4 2.81,3.79 0.58,0.28 1.15,0.59 1.74,0.86 2.69,1.23 2.87,1.71 0.37,3.38 -1.44,1 -1.45,1.9 -1.34,3.3 A 76.5,76.5 0 0 1 1149,569 c -0.63,3.58 -1.34,4 -5,3.4 -1.8,-0.26 -3.64,-0.36 -5.46,-0.49 a 181.1,181.1 0 0 0 -29.91,0.83 c -2.82,0.26 -5.65,0.47 -8.48,0.48 -4.14,0 -5.1,-1 -5.06,-5 0,-5 0.15,-10 0.41,-15 0.26,-5 0.37,-5.1 -4.57,-5.07 h -0.5 c -36.8,0.46 -73.59,1 -110.39,1.33 -11.65,0.1 -23.3,-0.42 -34.95,-0.66 -0.6,-0.91 -1.21,-0.94 -1.83,0 -19.39,-0.55 -38.87,1.52 -58.17,-1.93 -1.41,-1.55 -3.27,-0.63 -4.92,-0.92 v -1 z m 257.76,-21.54 c 0.44,-6.59 1.74,-13.13 1.72,-19.78 0,-1.17 0.06,-2.34 0,-3.5 -0.63,-15.15 0.49,-30.28 1.17,-45.37 1.61,-35.8 1.33,-71.61 0.47,-107.36 -1,-41.47 0.56,-82.93 -0.87,-124.35 -1.25,-36.47 -0.31,-72.92 -0.84,-109.37 -0.06,-4.35 -0.09,-4.15 -4.51,-4.46 -15.11,-1 -30.28,-0.27 -45.37,-1.15 -11,-0.64 -22,-0.21 -32.89,-0.87 -31.78,-1.92 -63.59,-1 -95.36,-0.56 -16.45,0.23 -32.94,-0.08 -49.37,0.84 -6.3,0.36 -12.59,0.76 -18.89,0.85 -2.57,0 -3.65,1.32 -3.53,3.75 0.2,4 -0.51,8 0.63,11.92 a 14.54,14.54 0 0 1 0.28,4 c 0,35.32 0.76,70.66 -0.17,106 -1.55,58.61 -1.15,117.24 -0.42,175.83 0.54,43.29 0,86.58 0.68,129.86 0.07,4.65 0.09,5 4.71,4.58 16.61,-1.63 33.28,-1.28 49.88,-0.73 53,1.76 105.9,0.57 158.84,0.58 10.74,0 21.56,-0.54 33,-0.83 -1.49,-7.08 0.39,-13.45 0.84,-19.88 z m -41.3,24.89 c -2.08,-0.14 -3,0.79 -3,2.94 0.06,4.67 0.06,9.33 0,14 -0.06,2.46 1.08,3.36 3.35,3 5.93,-0.84 11.94,-0.7 17.86,-1.35 5.33,-0.59 10.52,-0.91 15.82,0.11 7.32,1.4 8.88,0 9,-7.44 0,-2.5 0,-5 0,-7.5 -0.05,-4.76 -0.06,-4.78 -4.62,-4.82 -3.33,0 -6.66,0 -11.38,0 -8.13,-0.5 -17.53,1.71 -27.03,1.06 z"
           id="path144-1" />
        <path
           style="fill:#87542d"
           inkscape:connector-curvature="0"
           class="cls-3"
           d="m 1149.08,519 a 2.84,2.84 0 0 0 -0.88,2.22 74.26,74.26 0 0 1 -1.89,17.07 c -0.48,2.24 -0.13,4 2.81,3.79 0.27,-7.73 0.38,-15.42 -0.04,-23.08 z"
           id="path146-8" />
        <path
           style="fill:#87542d"
           inkscape:connector-curvature="0"
           class="cls-3"
           d="m 1045.23,102.06 a 6.58,6.58 0 0 0 6.82,0.08 16.33,16.33 0 0 0 -6.82,-0.08 z"
           id="path148-5" />
        <path
           style="fill:#87542d"
           inkscape:connector-curvature="0"
           class="cls-3"
           d="m 1030.25,102.14 a 4.82,4.82 0 0 0 5.82,-0.08 12.31,12.31 0 0 0 -5.82,0.08 z"
           id="path150-9" />
        <path
           style="fill:#87542d"
           inkscape:connector-curvature="0"
           class="cls-3"
           d="m 946.24,103.1 c 1,1.11 1.91,1.08 2.83,0 a 3.07,3.07 0 0 0 -2.83,0 z"
           id="path152-7" />
        <path
           style="fill:#87542d"
           inkscape:connector-curvature="0"
           class="cls-3"
           d="m 1082.22,103 c 0.91,1.12 1.85,1.19 2.83,0.1 a 3.11,3.11 0 0 0 -2.83,-0.1 z"
           id="path154-5" />
        <path
           style="fill:#87542d"
           inkscape:connector-curvature="0"
           class="cls-3"
           d="m 1146.24,105.14 c 0.72,1 1.8,0.79 2.8,0.85 -0.55,-1.54 -1.64,-1.32 -2.8,-0.85 z"
           id="path156-3" />
        <path
           style="fill:#87542d"
           inkscape:connector-curvature="0"
           class="cls-3"
           d="m 1107.22,104.06 c 0.59,0.93 1.2,1 1.84,0.06 a 1.46,1.46 0 0 0 -1.84,-0.06 z"
           id="path158-8" />
        <path
           style="fill:#87542d"
           inkscape:connector-curvature="0"
           class="cls-3"
           d="m 945.07,548.9 c -0.6,-0.91 -1.21,-0.94 -1.83,0 a 1.53,1.53 0 0 0 1.83,0 z"
           id="path160-8" />
        <path
           style="fill:#87542d"
           inkscape:connector-curvature="0"
           class="cls-3"
           d="m 938.61,507 c 3.93,-2.89 8.16,-1.11 12.34,-1.09 29.5,0.13 59,0.4 88.48,-0.09 12.08,-0.2 24.23,-0.93 36.27,-2.07 6.59,-0.63 13.28,0 19.82,-1.58 a 13,13 0 0 1 6.42,0.2 c 2.61,0.71 3.77,0.08 4,-2.62 0.31,-3.47 1.38,-6.82 1.24,-10.37 -0.2,-5 -0.2,-10 0,-15 1,-22.29 1.35,-44.6 0.71,-66.89 -0.35,-12.13 0,-24.31 -1.06,-36.37 -0.77,-8.94 0.13,-18 -1.65,-26.81 -0.62,-3.07 -0.34,-2.89 -3.67,-2.6 a 137.93,137.93 0 0 1 -22.45,0 c -2.62,-0.2 -5.26,-0.61 -7.91,-0.62 -14.5,0 -29,-0.51 -43.48,0.13 -13.14,0.58 -26.29,0.32 -39.39,1.07 -6.8,0.39 -13.68,1.32 -20.38,0.54 -8.6,-1 -17.29,0.1 -25.81,-1.57 -1.93,-0.38 -3.58,0.55 -5.29,1.11 a 1.65,1.65 0 0 0 -1.28,1.9 c 1.62,6 -0.33,11.87 -0.34,17.81 -0.07,24.66 -0.43,49.33 0.16,74 0.24,10.12 0.58,20.26 0.84,30.39 0.07,2.63 1.46,5.16 0.71,7.87 -1.24,1.44 -0.68,3.19 -0.69,4.78 -0.09,7.64 -0.07,15.27 -0.09,22.9 0.11,1.74 1.22,3.27 1,5.06 -0.14,0.07 -0.4,0.16 -0.39,0.2 0.05,0.31 0.2,0.23 0.36,-0.23 0.56,-0.05 1.21,0.15 1.53,-0.05 z m 165.46,-353.9 c 0.79,-0.23 1.71,-0.33 1.83,-1.38 a 1.38,1.38 0 0 0 -1.44,-1.63 c -3,-0.27 -5.84,-1 -8.87,-1.15 -42.45,-1.67 -84.93,-0.4 -127.38,-1.14 -8.78,-0.15 -17.59,-0.78 -26.39,-0.79 -5.39,0 -5,0.19 -5.78,5.64 -0.82,5.92 -0.34,11.94 -1.71,17.8 a 20.24,20.24 0 0 0 -0.16,4.48 q 0,58.24 0.05,116.49 c 0,5.31 1.4,10.55 0.9,15.89 -0.2,2.12 1.85,3 2.35,4.79 0.21,0.72 1.1,0.65 1.69,0.22 3.17,-2.37 6.79,-1.45 10.12,-1 a 51.48,51.48 0 0 0 7.42,0.63 c 23,0 46,0.39 69,-0.18 10.45,-0.26 20.92,-0.72 31.39,-0.75 2.32,0 4.65,-0.2 6.92,0.67 a 4.91,4.91 0 0 0 2.47,0.19 c 11.42,-1.78 22.93,-0.53 34.39,-0.92 0.5,0 1,0 1.5,0 3.1,-0.25 3.8,-0.78 3.77,-4 -0.12,-10.81 1.49,-21.56 1.11,-32.39 -0.29,-8.49 0.07,-17 -0.09,-25.49 -0.1,-5.34 0.61,-10.6 0.9,-15.9 0.34,-6.14 -1.11,-12.21 -0.94,-18.39 0.46,-17.3 -1.69,-34.57 -1,-51.88 0.09,-2.32 -0.29,-4.63 0.43,-7 0.72,-2.37 -1.18,-1.79 -2.39,-2 -0.01,-0.21 -0.05,-0.51 -0.09,-0.81 z m 23.11,186.08 c 0,0.5 0,1 0,1.49 0.08,1 0.22,2.11 1.58,2 1,-0.05 1.33,-0.94 1.3,-1.8 -0.17,-4.32 1.52,-8.5 1.05,-12.84 -0.49,-4.51 1,-8.87 1,-13.35 a 296.76,296.76 0 0 0 -1.87,-31.69 c -0.23,-2.14 -0.1,-4.32 -0.14,-6.48 a 7.46,7.46 0 0 0 -0.49,-3.41 c -0.37,-0.71 -0.56,-1.69 -1.6,-1.66 a 1.84,1.84 0 0 0 -1.75,2 c -0.09,3 0,6 0,9 1.74,18.9 0.61,37.83 0.92,56.74 z M 925,143.73 c 0.1,-2.92 -1,-5.87 -0.9,-8.89 a 1.18,1.18 0 0 0 -1.13,-1.35 1.8,1.8 0 0 0 -1.24,0.67 7,7 0 0 0 -1.54,4.63 c 0.24,4.8 -0.63,9.65 0.74,14.41 a 19.35,19.35 0 0 1 0.2,4 q 1,14.38 2,28.77 c 0.07,1 0.26,2.32 1.4,2.3 1.5,0 1.55,-1.49 1.56,-2.64 0,-4 0,-8 0,-11.78 0.5,-10.23 -1.4,-20.12 -1.09,-30.12 z m 2.1,363.15 q 0,-8.73 0,-17.46 a 11.9,11.9 0 0 0 -0.1,-2 c -0.2,-1 -0.66,-2 -1.86,-2 a 1.85,1.85 0 0 0 -1.87,2 72.9,72.9 0 0 0 0,11 88.09,88.09 0 0 1 1,10.88 1.9,1.9 0 0 0 1.27,2 c 1.56,-1.11 1.56,-2.78 1.56,-4.42 z m 193,-200 c 0.26,-6.09 -0.33,-12.19 0.87,-18.29 0.79,-4 -0.24,-8.07 -1.4,-12 -1.75,0.29 -1.41,1.5 -1.41,2.38 -0.06,5.63 0,11.26 -0.08,16.89 0,2.3 0.14,4.6 -0.65,6.87 -1.12,3.18 1,6.1 0.69,10 2.25,-2.21 1.94,-4.09 2.01,-5.88 z"
           id="path162-3" />
        <path
           style="fill:#87542d"
           inkscape:connector-curvature="0"
           class="cls-3"
           d="m 895.51,409.46 c 0.54,43.29 0,86.58 0.68,129.86 0.07,4.65 0.09,5 4.71,4.58 16.61,-1.63 33.28,-1.28 49.88,-0.73 53,1.76 105.9,0.57 158.84,0.58 10.74,0 21.56,-0.54 33,-0.83 -1.49,-7 0.4,-13.38 0.84,-19.81 0.44,-6.59 1.74,-13.13 1.72,-19.78 0,-1.17 0.06,-2.34 0,-3.5 -0.63,-15.15 0.49,-30.28 1.17,-45.37 1.61,-35.8 1.33,-71.61 0.47,-107.36 -1,-41.47 0.56,-82.93 -0.87,-124.35 -1.25,-36.47 -0.31,-72.92 -0.84,-109.37 -0.06,-4.35 -0.09,-4.15 -4.51,-4.46 -15.11,-1 -30.28,-0.27 -45.37,-1.15 -11,-0.64 -22,-0.21 -32.89,-0.87 -31.78,-1.92 -63.59,-1 -95.36,-0.56 -16.45,0.23 -32.94,-0.08 -49.37,0.84 -6.3,0.36 -12.59,0.76 -18.89,0.85 -2.57,0 -3.65,1.32 -3.53,3.75 0.2,4 -0.51,8 0.63,11.92 a 14.54,14.54 0 0 1 0.28,4 c 0,35.32 0.76,70.66 -0.17,106 -1.55,58.54 -1.16,117.17 -0.42,175.76 z"
           id="path164-1" />
        <path
           style="fill:#87542d"
           inkscape:connector-curvature="0"
           class="cls-3"
           d="m 1129.16,547 c -8.11,-0.55 -17.51,1.66 -27,1 -2.08,-0.14 -3,0.79 -3,2.94 0.06,4.67 0.06,9.33 0,14 -0.06,2.46 1.08,3.36 3.35,3 5.93,-0.84 11.94,-0.7 17.86,-1.35 5.33,-0.59 10.52,-0.91 15.82,0.11 7.32,1.4 8.88,0 9,-7.44 0,-2.5 0,-5 0,-7.5 -0.05,-4.76 -0.06,-4.78 -4.62,-4.82 -3.36,0.06 -6.69,0.06 -11.41,0.06 z"
           id="path166-8" />
        <path
           style="fill:#573720"
           inkscape:connector-curvature="0"
           class="cls-8"
           d="m 985.83,152.91 c -10.45,0 -20.88,-0.75 -31.3,-1.67 -4.3,-0.38 -8.65,-0.09 -13,-0.21 -2.16,-0.06 -2.46,1.17 -2.36,2.86 0,0.35 0,0.71 -0.07,1.07 -1.93,48.9 -0.8,97.81 -0.89,146.72 0,1.62 -0.42,3.31 0.46,4.86 3.2,-1.19 10.42,-10.77 12,-15.9 -1.46,-1.29 -3.67,0.12 -5.25,-1.58 1.32,-1.77 3.26,-0.95 4.87,-1.11 3.28,-0.32 3.63,-0.54 3.79,-3.9 0.16,-3.36 0.31,-6.66 0.18,-10 -0.55,-14.15 0.34,-28.29 1.17,-42.37 1.2,-20.47 0.46,-40.91 0.78,-61.36 0,-1.84 0.11,-3.68 -1.14,-5.24 l 0.06,-2.15 H 956 l 2,-0.91 c 0.39,1.64 1.59,2 3.05,1.91 1.76,-0.07 3.33,0.25 4.15,2.08 l -1,0.08 c -5,0.29 -5.17,0.36 -5,5.11 0.11,3.31 0.68,6.61 0.71,9.92 0.11,12.14 0.61,24.32 -0.08,36.42 -0.54,9.61 -0.31,19.25 -1.45,28.84 a 108.91,108.91 0 0 0 -0.32,14.46 127.21,127.21 0 0 1 -1.6,23.31 c -0.49,2.9 0.07,3.48 3,3.72 0.66,0.05 1.33,0 2,0 l 123.26,0.16 a 17.18,17.18 0 0 1 2.45,0.34 3.22,3.22 0 0 0 3,1.59 c 3.45,4.5 8.53,7.22 11.73,11.51 1.5,-0.41 1.32,-1.18 1.33,-1.78 0.62,-23.09 1.23,-46.19 0.65,-69.28 -0.36,-14.45 -0.25,-28.92 -1.05,-43.33 -0.54,-9.48 -0.36,-18.93 -0.62,-28.38 l -0.12,-2.83 a 3.62,3.62 0 0 1 2.07,-1.9 c 1.21,0.18 3.1,-0.27 2.39,2 -0.71,2.27 -0.34,4.63 -0.43,7 -0.72,17.31 1.43,34.58 1,51.88 -0.17,6.18 1.28,12.25 0.94,18.39 -0.29,5.3 -1,10.56 -0.9,15.9 0.16,8.49 -0.2,17 0.09,25.49 0.38,10.83 -1.23,21.58 -1.11,32.39 0,3.21 -0.67,3.74 -3.77,4 -0.5,0 -1,0 -1.5,0 -11.46,0.39 -23,-0.86 -34.39,0.92 a 4.91,4.91 0 0 1 -2.47,-0.19 c -2.27,-0.87 -4.6,-0.68 -6.92,-0.67 -10.47,0 -20.94,0.49 -31.39,0.75 -23,0.57 -46,0.19 -69,0.18 a 51.48,51.48 0 0 1 -7.42,-0.63 c -3.33,-0.48 -6.95,-1.4 -10.12,1 -0.59,0.43 -1.48,0.5 -1.69,-0.22 -0.5,-1.75 -2.55,-2.67 -2.35,-4.79 0.5,-5.34 -0.9,-10.58 -0.9,-15.89 q -0.08,-58.24 -0.05,-116.49 a 20.24,20.24 0 0 1 0.16,-4.48 c 1.37,-5.86 0.89,-11.88 1.71,-17.8 0.75,-5.45 0.39,-5.64 5.78,-5.64 8.8,0 17.61,0.64 26.39,0.79 42.45,0.74 84.93,-0.53 127.38,1.14 3,0.12 5.9,0.88 8.87,1.15 a 1.38,1.38 0 0 1 1.44,1.63 c -0.12,1.05 -1,1.15 -1.83,1.38 Q 1045,153 985.83,152.91 Z m 116.37,155.15 c -3.68,-5 -7.72,-8.12 -11.39,-11.6 -0.72,-0.69 -1.79,-1.09 -2.32,-1.87 -3.59,-5.35 -8.92,-5.12 -14.25,-4.32 a 61.55,61.55 0 0 1 -8.45,0.59 q -52.44,0.5 -104.9,0 c -4.36,-0.05 -7.63,0.45 -9.49,5.09 -1.08,2.71 -3.33,4.94 -5,7.39 -0.84,1.19 -2.05,2.2 -1.84,4.44 52.38,2.14 104.54,-0.61 157.64,0.28 z"
           id="path168-9" />
        <path
           style="fill:#ad8160"
           inkscape:connector-curvature="0"
           class="cls-9"
           d="m 1102.11,155.91 a 3.62,3.62 0 0 1 2.07,-1.9 c 0,-0.31 -0.07,-0.61 -0.11,-0.91 q -59.11,-0.07 -118.24,-0.19 c -10.45,0 -20.88,-0.75 -31.3,-1.67 -4.3,-0.38 -8.65,-0.09 -13,-0.21 -2.16,-0.06 -2.46,1.17 -2.36,2.86 6.41,1.1 11.11,5.21 16,9.06 H 956 c 0.26,-0.85 -0.18,-2.17 1.16,-2.32 0.74,-0.09 0.88,0.74 0.87,1.41 0.39,1.64 1.59,2 3.05,1.91 1.76,-0.07 3.33,0.25 4.13,2.08 h 0.4 c 0.3,-1.63 1.45,-2 2.89,-2 5.08,0 10.16,0 15.24,0 1.44,0 2.58,0.39 2.93,2 h 7.94 a 2.27,2.27 0 0 1 2.44,-1.93 c 5.35,0.2 10.73,-0.44 16.05,0.59 2,-0.57 3.92,0.38 5.92,0.31 11.66,-0.43 23.26,1.18 34.91,1.13 a 19,19 0 0 1 2,0.13 c 8.08,0.85 16.16,1.67 24.28,1.9 2,0 4,0.06 5,2.35 l 1.5,0.51 a 5.44,5.44 0 0 1 3.47,-5 l 0.92,-0.84 0.31,0.54 -1.25,0.28 c 0,1.66 -0.17,3.32 -0.06,5 0.62,9.93 1.73,19.84 1.86,29.77 0.16,12.63 1.29,25.21 1.18,37.84 0,5.48 -0.18,11 0,16.45 0.33,8.5 -0.62,16.93 -1.23,25.36 -0.24,3.18 0,6.63 -1.74,9.62 3.45,4.5 8.53,7.22 11.73,11.51 1.5,-0.41 1.32,-1.18 1.33,-1.78 0.62,-23.09 1.23,-46.19 0.65,-69.28 -0.36,-14.45 -0.25,-28.92 -1.05,-43.33 -0.54,-9.48 -0.36,-18.93 -0.62,-28.38 -3.49,0.4 -5.38,3.89 -8.69,4.71 1.83,-3.86 4.91,-6.07 8.59,-7.58 z"
           id="path170-6" />
        <path
           style="fill:#51331c"
           inkscape:connector-curvature="0"
           class="cls-10"
           d="m 936.57,486.33 -0.91,-67 -0.92,-68 c 0,-3.11 0.27,-6.85 3,-8.31 a 8.56,8.56 0 0 1 4,-0.67 l 159.54,-0.91 a 3.54,3.54 0 0 1 4.37,4.11 1399.37,1399.37 0 0 1 1.35,140.25 c -0.13,3.29 -0.27,6.57 -0.62,9.84 -0.22,2 0,5.43 -2.26,6.22 -2.5,0.86 -6,0.52 -8.58,0.72 q -4.89,0.36 -9.79,0.69 -33.75,2.28 -67.6,2.82 -33.85,0.54 -67.65,-0.64 a 56,56 0 0 0 -7.33,0.07 c -2.07,0.2 -4.27,1.68 -6.32,1.52 -0.09,-1.68 -0.07,-3.37 -0.1,-5.05 z m 164.49,-139.79 c -0.25,-1.32 -0.92,-1.59 -1.91,-0.54 -33.32,-0.15 -66.65,-0.41 -100,0.26 -6.14,0.13 -12.29,0.58 -18.45,0.66 -12.49,0.16 -24.93,-0.61 -37.37,-1.65 -3.21,-0.26 -4.29,0.61 -4.29,3.78 0.07,27.66 -0.21,55.33 0.44,83 0.3,12.48 0.12,25 0.83,37.44 0.5,8.81 0.87,17.62 0.89,26.44 0.09,1.11 0.19,2.21 0.28,3.32 -0.09,1.27 0.55,1.84 1.76,1.82 7.15,-0.14 14.32,0 21.45,-0.5 a 238.64,238.64 0 0 1 29.9,0 c 3.82,0.21 7.63,0.22 11.45,0.31 3.33,0.09 6.66,0 10,0.05 17,0.46 33.91,-0.78 50.87,-1.09 10.61,-0.2 21.21,-1.19 31.82,-1.82 1,-0.06 2,-0.06 2.63,-1.05 a 2.06,2.06 0 0 0 0.71,-2.09 c -0.1,-43.15 0.43,-86.3 0,-129.46 0,-5.5 -1.15,-10.92 -0.91,-16.43 a 17.38,17.38 0 0 0 -0.1,-2.45 z"
           id="path172-4" />
        <path
           style="fill:#51331c"
           inkscape:connector-curvature="0"
           class="cls-10"
           d="m 1119.25,343.46 c 0,4.13 0.64,8.33 0.8,12.46 0.18,4.35 0.19,8.71 0.23,13.06 0.1,10.7 -0.15,21.39 -0.11,32.09 a 3.34,3.34 0 0 0 0.49,2.14 c 2.66,3.39 3.68,-8 3.71,-8.84 0.39,-10.1 0.53,-20.21 0.19,-30.3 -0.17,-5 -0.65,-10 -0.89,-15 -0.23,-4.71 -0.21,-9.41 -0.77,-14.1 -0.31,-2.57 -3.53,-3.59 -3.62,-0.5 -0.09,3.09 -0.03,6 -0.03,8.99 z"
           id="path174-3" />
        <path
           style="fill:#51331c"
           inkscape:connector-curvature="0"
           class="cls-10"
           d="m 921.14,208.83 c 0,-12.74 -0.89,-25.61 -1.94,-38.31 -0.3,-3.63 -3.22,-1.26 -3.78,0.92 -0.95,3.71 -0.13,8.24 0.1,12 0.27,4.52 0.67,9 1,13.56 0.62,8 1,15.95 1.61,23.93 0.07,1 0.26,2.32 1.4,2.3 1.5,0 1.55,-1.49 1.56,-2.64 0.07,-3.98 0.05,-7.98 0.05,-11.76 z"
           id="path176-3" />
        <path
           style="fill:#573720"
           inkscape:connector-curvature="0"
           class="cls-8"
           d="m 925.51,511.24 c 1.59,-1.05 1.59,-2.72 1.59,-4.36 q 0,-8.73 0,-17.46 a 11.9,11.9 0 0 0 -0.1,-2 c -0.2,-1 -0.66,-2 -1.86,-2 a 1.85,1.85 0 0 0 -1.87,2 72.9,72.9 0 0 0 0,11 88.09,88.09 0 0 1 1,10.88 1.9,1.9 0 0 0 1.24,1.94 z"
           id="path178-3" />
        <path
           style="fill:#51331c"
           inkscape:connector-curvature="0"
           class="cls-10"
           d="m 937.17,507 c -0.14,0.07 -0.4,0.16 -0.39,0.2 0.05,0.31 0.2,0.23 0.36,-0.23 z"
           id="path180-8" />
        <path
           style="fill:#b08362"
           inkscape:connector-curvature="0"
           class="cls-11"
           d="m 965.62,166 h -0.4 l -1,0.08 c -5,0.29 -5.17,0.36 -5,5.11 0.11,3.31 0.68,6.61 0.71,9.92 0.11,12.14 0.61,24.32 -0.08,36.42 -0.54,9.61 -0.31,19.25 -1.45,28.84 a 108.91,108.91 0 0 0 -0.32,14.46 127.21,127.21 0 0 1 -1.6,23.31 c -0.49,2.9 0.07,3.48 3,3.72 0.66,0.05 1.33,0 2,0 l 123.26,0.16 a 16.85,16.85 0 0 1 2.44,0.34 c 2.1,-1.94 1.79,-4.5 1.83,-7 0.54,-32.05 -0.14,-64.08 -1.07,-96.11 -0.14,-4.78 -0.85,-9.54 -1.3,-14.31 l -1.5,-0.51 c -5.6,-0.92 -11.28,-0.26 -16.88,-0.73 -11.09,-0.93 -22.18,-1.78 -33.3,-1.77 -7.33,0 -14.6,-0.71 -21.88,-1.22 a 91,91 0 0 1 -18.51,-0.76 h -7.94 c -6.97,1.05 -13.99,1.65 -21.01,0.05 z"
           id="path182-6" />
        <path
           style="fill:#ad8160"
           inkscape:connector-curvature="0"
           class="cls-9"
           d="m 944.52,307.74 c 52.42,2.18 104.58,-0.57 157.68,0.32 -3.68,-5 -7.72,-8.12 -11.39,-11.6 -0.72,-0.69 -1.79,-1.09 -2.32,-1.87 -3.59,-5.35 -8.92,-5.12 -14.25,-4.32 a 61.55,61.55 0 0 1 -8.45,0.59 q -52.44,0.5 -104.9,0 c -4.36,-0.05 -7.63,0.45 -9.49,5.09 -1.08,2.71 -3.33,4.94 -5,7.39 -0.88,1.15 -2.09,2.16 -1.88,4.4 z"
           id="path184-0" />
        <path
           style="fill:#af8261"
           inkscape:connector-curvature="0"
           class="cls-12"
           d="m 939.13,155 c -1.93,48.9 -0.8,97.81 -0.89,146.72 0,1.62 -0.42,3.31 0.46,4.86 3.2,-1.19 10.42,-10.77 12,-15.9 -1.46,-1.29 -3.67,0.12 -5.25,-1.58 1.32,-1.77 3.26,-0.95 4.87,-1.11 3.28,-0.32 3.63,-0.54 3.79,-3.9 0.16,-3.36 0.31,-6.66 0.18,-10 -0.55,-14.15 0.34,-28.29 1.17,-42.37 1.2,-20.47 0.46,-40.91 0.78,-61.36 0,-1.84 0.11,-3.68 -1.14,-5.24 -2,-0.39 -3.46,-1.73 -5.12,-2.77 -3.71,-2.35 -6.52,-6 -10.85,-7.35 z"
           id="path186-4" />
        <path
           style="fill:#5f3f27"
           inkscape:connector-curvature="0"
           class="cls-13"
           d="m 1086.69,171 c 0.45,4.77 1.16,9.53 1.3,14.31 0.93,32 1.61,64.06 1.07,96.11 0,2.48 0.27,5 -1.83,7 a 3.25,3.25 0 0 0 3,1.59 c 1.7,-3 1.5,-6.44 1.74,-9.62 0.61,-8.43 1.56,-16.86 1.23,-25.36 -0.22,-5.47 -0.09,-11 0,-16.45 0.11,-12.63 -1,-25.21 -1.18,-37.84 -0.13,-9.93 -1.24,-19.84 -1.86,-29.77 -0.11,-1.65 0,-3.31 0.06,-5 v 0 a 5.44,5.44 0 0 0 -3.53,5.03 z"
           id="path188-8" />
        <path
           style="fill:#5f3f27"
           inkscape:connector-curvature="0"
           class="cls-13"
           d="m 939.13,155 c 4.33,1.39 7.14,5 10.85,7.37 1.66,1 3.12,2.38 5.12,2.77 l 0.06,-2.15 c -4.85,-3.85 -9.55,-8 -16,-9.06 0.02,0.31 0,0.67 -0.03,1.07 z"
           id="path190-8" />
        <path
           style="fill:#5f3f27"
           inkscape:connector-curvature="0"
           class="cls-13"
           d="m 1102.11,155.91 c -3.68,1.51 -6.76,3.72 -8.57,7.54 3.31,-0.82 5.2,-4.31 8.69,-4.71 z"
           id="path192-8" />
        <path
           style="fill:#5f3f27"
           inkscape:connector-curvature="0"
           class="cls-13"
           d="m 958,162 c 0,-0.67 -0.13,-1.5 -0.87,-1.41 -1.34,0.15 -0.9,1.47 -1.16,2.32 z"
           id="path194-9" />
        <path
           style="fill:#5f3f27"
           inkscape:connector-curvature="0"
           class="cls-13"
           d="m 1013.13,166.78 c 7.28,0.51 14.55,1.22 21.88,1.22 11.12,0 22.21,0.84 33.3,1.77 5.6,0.47 11.28,-0.19 16.88,0.73 -1,-2.29 -3,-2.3 -5,-2.35 -8.12,-0.23 -16.2,-1.05 -24.28,-1.9 a 19,19 0 0 0 -2,-0.13 c -11.65,0 -23.25,-1.56 -34.91,-1.13 -2,0.07 -3.92,-0.88 -5.92,-0.31 0.03,0.7 0.04,1.4 0.05,2.1 z"
           id="path196-7" />
        <path
           style="fill:#573720"
           inkscape:connector-curvature="0"
           class="cls-8"
           d="m 965.62,166 c 7,1.59 14,1 21.06,0 -0.35,-1.59 -1.49,-2 -2.93,-2 -5.08,0 -10.16,0 -15.24,0 -1.44,0 -2.59,0.38 -2.89,2 z"
           id="path198-7" />
        <path
           style="fill:#573720"
           inkscape:connector-curvature="0"
           class="cls-8"
           d="m 1013.13,166.78 c 0,-0.7 0,-1.4 0,-2.1 -5.32,-1 -10.7,-0.39 -16.05,-0.59 a 2.27,2.27 0 0 0 -2.44,1.93 91,91 0 0 0 18.49,0.76 z"
           id="path200-6" />
        <path
           style="fill:#5f3f27"
           inkscape:connector-curvature="0"
           class="cls-13"
           d="m 1090.14,166 1.25,-0.28 -0.31,-0.54 -0.92,0.84 z"
           id="path202-4" />
        <path
           style="fill:#ad8160"
           inkscape:connector-curvature="0"
           class="cls-9"
           d="m 946.85,501 h 154.3 v -3.78 a 3.21,3.21 0 0 1 -2.41,0.75 c -10.61,0.63 -21.21,1.62 -31.82,1.82 -17,0.31 -33.89,1.55 -50.87,1.09 -3.32,-0.09 -6.65,0 -10,-0.05 -3.82,-0.09 -7.63,-0.1 -11.45,-0.31 a 238.64,238.64 0 0 0 -29.9,0 c -5.92,0.48 -11.89,0.42 -17.85,0.48 z"
           id="path204-3" />
        <path
           style="fill:#ad8160"
           inkscape:connector-curvature="0"
           class="cls-9"
           d="m 1101.37,496.92 -0.22,-0.18 v 0.48 a 2.32,2.32 0 0 0 0.22,-0.3 z"
           id="path206-0" />
        <path
           style="fill:#ad8160"
           inkscape:connector-curvature="0"
           class="cls-9"
           d="m 942.69,501 a 2.67,2.67 0 0 0 0.58,0.05 l 3.58,-0.05 z"
           id="path208-3" />
        <path
           style="fill:#ad8160"
           inkscape:connector-curvature="0"
           class="cls-9"
           d="m 1101.15,348.94 v 1.62 q 0,-0.81 0,-1.62 z"
           id="path210-0" />
        <path
           style="fill:#ad8160"
           inkscape:connector-curvature="0"
           class="cls-9"
           d="m 1102.09,365.37 c 0,-5 -0.94,-9.86 -0.94,-14.81 v 143.66 c 0.3,0.21 0.6,0.41 0.92,0.61 -0.07,-43.15 0.44,-86.3 0.02,-129.46 z"
           id="path212-9" />
        <path
           style="fill:#ad8160"
           inkscape:connector-curvature="0"
           class="cls-9"
           d="m 941.15,347 v 154 h 5.7 c 6,-0.06 11.93,0 17.87,-0.45 a 238.64,238.64 0 0 1 29.9,0 c 3.82,0.21 7.63,0.22 11.45,0.31 3.33,0.09 6.66,0 10,0.05 17,0.46 33.91,-0.78 50.87,-1.09 10.61,-0.2 21.21,-1.19 31.82,-1.82 a 3.21,3.21 0 0 0 2.41,-0.75 V 347 Z"
           id="path214-2" />
        <path
           style="fill:#ad8160"
           inkscape:connector-curvature="0"
           class="cls-9"
           d="m 939.51,432 c 0.3,12.48 0.12,25 0.83,37.44 0.37,6.61 0.68,13.21 0.81,19.83 V 348.81 a 4.8,4.8 0 0 1 -0.27,-1.47 l 0.27,0.14 V 347 H 1098 l 1.12,-1 c -33.32,-0.15 -66.65,-0.41 -100,0.26 -6.14,0.13 -12.29,0.58 -18.45,0.66 -12.49,0.16 -24.93,-0.61 -37.37,-1.65 -3.21,-0.26 -4.29,0.61 -4.29,3.78 0.13,27.66 -0.15,55.33 0.5,82.95 z"
           id="path216-5" />
        <path
           style="fill:#ad8160"
           inkscape:connector-curvature="0"
           class="cls-9"
           d="m 1086.12,479 v 0 0 -0.06 z"
           id="path218-4" />
        <path
           style="fill:#51331c"
           inkscape:connector-curvature="0"
           class="cls-10"
           d="m 1086.17,479 a 14.92,14.92 0 0 0 1.94,-7.91 c -0.12,-9 0.37,-17.95 0.84,-26.92 0.71,-13.65 -0.56,-27.29 -1.12,-40.91 -0.42,-10.14 -0.52,-20.28 -0.8,-30.42 0,-1.17 0.25,-2.44 -0.11,-3.49 -1.83,-5.36 0,-9.11 4.51,-12.22 2.29,-1.59 4,-4 6,-5.95 1,-1 2,-2.33 3.7,-2.28 a 17.38,17.38 0 0 0 -0.12,-2.4 c -0.25,-1.32 -0.92,-1.59 -1.91,-0.54 a 67.12,67.12 0 0 0 -9.69,10 c -1,1.27 -2.13,2.9 -4,0.92 a 1.32,1.32 0 0 0 -1.79,-0.3 c -4.26,2.88 -9.26,2.17 -13.83,2.16 -14.14,0 -28.23,1.08 -42.34,1.58 -8.13,0.29 -16.28,0.86 -24.39,0.43 -12.43,-0.65 -24.86,-1.24 -37.29,-1.84 -4.61,-0.22 -9.3,-0.27 -13.62,-2.3 -0.29,1 0,2.84 -2,1.51 l -4,0.06 -0.06,1.78 c 8.92,0.15 8.52,0.38 7.64,9.43 a 89.88,89.88 0 0 0 0,17.89 c 0.17,1.65 0.27,3.32 0.28,5 0.09,13.32 0.34,26.64 0.15,40 -0.15,10.33 0.92,20.6 1.14,30.9 a 30.75,30.75 0 0 0 0.86,4.89 l 1.71,-0.11 c 0.68,-5 -0.75,-9.91 -0.72,-14.91 q 0.17,-31.74 -0.2,-63.48 c -0.09,-7.14 -1,-14.27 -0.74,-21.43 0,-1.17 -0.06,-2.35 0.09,-3.5 0.38,-3 1,-3.71 4.2,-3.54 5.64,0.29 11.29,0.62 16.89,1.31 a 51.68,51.68 0 0 0 7.44,0.58 c 8.49,-0.18 16.91,1.15 25.42,1 12.64,-0.16 25.26,-0.68 37.85,-1.81 a 60.87,60.87 0 0 1 8,-0.17 c 7.67,0.32 15.27,-1 22.92,-1 4.14,0 4.18,0 4.27,4.15 0.34,14.14 0.16,28.31 1.07,42.42 1.31,20.14 0.58,40.28 0.68,60.42 0,1 0,2 0,3 0.28,4.48 -5.78,3 -8.69,3 -5,-0.1 -9.91,-0.38 -14.86,-0.59 -8,-0.33 -16,-0.25 -24,-0.37 -6.53,-0.1 -13.15,-0.76 -19.65,-0.57 -6.83,0.19 -13.66,0.36 -20.49,0.21 -10.62,-0.22 -21.34,-1.18 -31.8,0.67 a 3.08,3.08 0 0 0 -1.57,0.6 1.09,1.09 0 0 0 -0.16,1.51 1.63,1.63 0 0 0 1.09,0.31 c 6.54,0.19 13.18,0.11 19.68,0.67 a 136,136 0 0 0 19.88,0.3 283.65,283.65 0 0 1 29.44,-0.5 q 23.46,0.94 46.92,0.56 c 2.31,-0.06 3.79,0.99 5.34,2.2 z"
           id="path220-0" />
        <path
           style="fill:#51331c"
           inkscape:connector-curvature="0"
           class="cls-10"
           d="m 957.88,467.9 -1.71,0.11 a 11.46,11.46 0 0 1 -2.7,8.65 93.48,93.48 0 0 0 -8.86,14.34 c -0.93,1.76 -3,3.56 -4.46,5 0.09,1.11 -0.09,2.89 0,4 2.37,-1.48 4.69,-4.76 6,-7 q 4.82,-8.08 9.69,-16.15 c 1.71,-2.78 2.75,-5.66 2.04,-8.95 z"
           id="path222-5" />
        <path
           style="fill:#51331c"
           inkscape:connector-curvature="0"
           class="cls-10"
           d="m 1102.08,494.83 c -5.07,-3.15 -7.93,-8.39 -11.86,-12.62 -1.22,-1.32 -2.89,-5.15 -5.07,-5.21 a 67.89,67.89 0 0 0 16.22,19.92 2.06,2.06 0 0 0 0.71,-2.09 z"
           id="path224-9" />
        <path
           style="fill:#51331c"
           inkscape:connector-curvature="0"
           class="cls-10"
           d="m 950.21,358.12 c 2,1.33 1.72,-0.49 2,-1.51 -2.81,-4.29 -6.85,-7 -11.34,-9.27 0.1,2.72 2,4 3.76,5.3 2.12,1.6 4.28,3.09 5.58,5.48 z"
           id="path226-4" />
        <path
           style="fill:#51331c"
           inkscape:connector-curvature="0"
           class="cls-10"
           d="m 946.15,360 0.06,-1.78 a 7.53,7.53 0 0 0 -1.41,-0.12 c -0.87,0.07 -2.19,-0.21 -2.06,1.19 0.09,0.88 1.23,0.74 2,0.77 a 13.68,13.68 0 0 0 1.41,-0.06 z"
           id="path228-6" />
        <path
           style="fill:#00b3ea"
           inkscape:connector-curvature="0"
           class="cls-14"
           d="m 554.73,19.47 c 2.55,-4.12 3.92,-8.89 -1.6,-10.45 -2.38,-0.67 -4.82,-1.56 -7.25,-1.6 -8.88,-0.16 -16.68,3.15 -24,8 -2.18,1.45 -1.7,2.85 -0.86,4.87 1.12,2.74 2.38,5.73 2.3,8.57 -0.17,5.73 -1.21,11.43 -1.88,17.14 -0.51,4.24 -1.4,8.49 -1.28,12.71 0,1.41 2.46,3.46 4.15,3.94 3.12,0.88 3.37,-2.5 3.67,-4.66 0.54,-3.93 0.75,-12.15 6.16,-11.73 5.41,0.42 10.91,0.59 16.38,0.71 0.76,0 6.69,0.18 5.22,-1.56 -2.28,-2.68 -6.1,-3.59 -9.42,-4.17 -1.74,-0.3 -3.5,-0.47 -5.25,-0.75 -0.56,-0.09 -5,-1.43 -5.16,-1.28 C 540.87,34.56 545.8,30 550.43,25 a 37,37 0 0 0 4.3,-5.53 z m -21.09,11.06 a 0.35,0.35 0 0 1 -0.14,0 1.13,1.13 0 0 1 -0.57,-0.69 10.72,10.72 0 0 1 6,-14.2 17.56,17.56 0 0 1 5,-1.15 5.88,5.88 0 0 1 2.54,0.11 c 1.42,0.61 0.94,0.88 0,2 -3.88,4.51 -7.88,8.92 -11.82,13.37 -0.29,0.27 -0.65,0.6 -1.01,0.56 z"
           id="path230-9" />
        <path
           style="fill:#00b3ea"
           inkscape:connector-curvature="0"
           class="cls-14"
           d="m 511.68,20.61 a 1.46,1.46 0 0 0 -0.55,-0.16 2.83,2.83 0 0 0 -1.39,0.31 12.64,12.64 0 0 0 -4.59,3.66 c -1.26,1.54 -2.07,3.36 -3.26,4.94 -0.36,0.48 -1,1.28 -1.62,0.71 a 1.9,1.9 0 0 1 -0.5,-1.29 c -0.38,-3.56 0.22,-7.26 0.51,-10.81 0.32,-3.85 0.64,-7.7 0.91,-11.56 0.17,-2.52 1.09,-5.41 -2.84,-6.27 -3.93,-0.86 -4.11,2.09 -4.83,4.31 -2.69,8.2 -5.68,16.5 -8,24.89 -2.4,8.65 -3.5,17.49 -5.23,26.28 a 3.41,3.41 0 0 0 0,1.82 c 0.77,2.17 4.43,0.36 5.31,-0.8 a 8.57,8.57 0 0 0 1.25,-3.15 C 488.11,48.3 489.1,43.23 490,38 c 0.14,-0.83 0.45,-3.19 1.48,-3.44 1.66,-0.41 2.15,4.39 2.47,5.4 0.46,1.47 1.57,4 3.36,4.09 1.79,0.09 3.6,-1.94 4.76,-3 1.16,-1.06 1.82,-2.64 3,-4.51 -0.64,10.42 -1.33,19.9 -1.7,29.4 -0.06,1.41 1.17,3.91 2.19,4.14 2.68,0.58 3.18,-1.76 3.45,-4 0.94,-7.83 1.93,-15.66 2.87,-23.5 q 0.72,-6 1.38,-11.91 a 26.55,26.55 0 0 0 0.33,-5.63 c -0.1,-1.12 -0.59,-3.74 -1.91,-4.43 z"
           id="path232-2" />
        <path
           style="fill:#00b3ea"
           inkscape:connector-curvature="0"
           class="cls-14"
           d="m 1089.63,13.82 a 0.61,0.61 0 0 0 -0.05,-0.12 5.94,5.94 0 0 0 -4.67,-2.95 c -3.26,-0.4 -6.58,0.61 -9.74,1.31 A 89.72,89.72 0 0 0 1064.87,14.9 45,45 0 0 0 1053,21 c -3.07,2.26 -7.6,5.91 -6.59,10.28 0.79,3.4 6.08,4.5 8.87,5.41 a 76.16,76.16 0 0 0 17.27,3.15 16.51,16.51 0 0 1 6,1.2 c 1.4,0.69 1.58,1.8 0.7,3 a 23.63,23.63 0 0 1 -7,6.35 34.19,34.19 0 0 1 -4.25,2.2 c -0.87,0.38 -3.68,0.9 -3.7,2.07 a 2.28,2.28 0 0 0 0.58,1.34 8,8 0 0 0 4.69,3.38 8.67,8.67 0 0 0 4.72,-0.7 c 7.2,-2.81 19,-15.14 8,-20.81 -4.49,-2.32 -9.57,-3.64 -14.52,-4.94 a 57.33,57.33 0 0 0 -6.38,-1.19 c -1.21,-0.17 -8.06,-0.11 -6.77,-2.66 a 3.2,3.2 0 0 1 1.49,-1.24 c 4.21,-2.22 8.42,-4.44 12.8,-6.3 4.17,-1.78 8.87,-3.69 13.43,-4.06 -0.14,0 0.15,0.74 0.26,0.83 0.29,0.25 0.68,0.15 1,0.12 2.22,-0.19 4.45,-2.19 5.79,-3.83 a 1,1 0 0 0 0.26,-0.48 0.67,0.67 0 0 0 -0.02,-0.3 z"
           id="path234-2" />
        <path
           style="fill:#00b3ea"
           inkscape:connector-curvature="0"
           class="cls-14"
           d="m 1046.43,19.47 c 2.54,-4.12 3.91,-8.89 -1.6,-10.45 -2.39,-0.67 -4.83,-1.56 -7.26,-1.6 -8.88,-0.16 -16.68,3.15 -24,8 -2.18,1.45 -1.69,2.85 -0.86,4.87 1.12,2.74 2.39,5.73 2.31,8.57 -0.17,5.73 -1.21,11.43 -1.89,17.14 -0.5,4.24 -1.39,8.49 -1.28,12.71 0,1.41 2.46,3.46 4.15,3.94 3.12,0.88 3.38,-2.5 3.68,-4.66 0.54,-3.93 0.74,-12.15 6.15,-11.73 5.41,0.42 10.92,0.59 16.38,0.71 0.76,0 6.7,0.18 5.22,-1.56 -2.28,-2.68 -6.1,-3.59 -9.42,-4.17 -1.74,-0.3 -3.5,-0.47 -5.25,-0.75 -0.56,-0.09 -5,-1.43 -5.15,-1.28 4.92,-4.62 9.86,-9.22 14.48,-14.15 a 37.59,37.59 0 0 0 4.34,-5.59 z m -21.1,11.06 a 0.31,0.31 0 0 1 -0.13,0 1.1,1.1 0 0 1 -0.57,-0.69 10.73,10.73 0 0 1 5.94,-14.2 17.63,17.63 0 0 1 5.06,-1.15 5.83,5.83 0 0 1 2.53,0.11 c 1.43,0.61 0.94,0.88 0,2 -3.88,4.51 -7.88,8.92 -11.82,13.37 -0.28,0.27 -0.64,0.6 -1.01,0.56 z"
           id="path236-4" />
        <path
           style="fill:#00b3ea"
           inkscape:connector-curvature="0"
           class="cls-14"
           d="m 1003.38,20.61 a 1.52,1.52 0 0 0 -0.55,-0.16 2.87,2.87 0 0 0 -1.4,0.31 12.52,12.52 0 0 0 -4.58,3.66 c -1.27,1.54 -2.08,3.36 -3.27,4.94 -0.36,0.48 -1,1.28 -1.62,0.71 a 1.9,1.9 0 0 1 -0.5,-1.29 c -0.38,-3.56 0.23,-7.26 0.52,-10.81 0.31,-3.85 0.63,-7.7 0.9,-11.56 C 993.05,3.89 994,1 990,0.14 c -3.78,-0.82 -4.1,2.09 -4.83,4.31 -2.68,8.2 -5.68,16.5 -8,24.89 C 974.81,38 973.7,46.83 972,55.62 a 3.51,3.51 0 0 0 0,1.82 c 0.77,2.17 4.44,0.36 5.31,-0.8 a 8.59,8.59 0 0 0 1.26,-3.15 c 1.29,-5.19 2.28,-10.26 3.17,-15.52 0.14,-0.83 0.45,-3.19 1.48,-3.44 1.65,-0.41 2.14,4.39 2.46,5.4 0.47,1.47 1.58,4 3.36,4.09 1.78,0.09 3.6,-1.94 4.76,-3 1.16,-1.06 1.82,-2.64 3,-4.51 -0.65,10.42 -1.34,19.9 -1.71,29.4 -0.05,1.41 1.17,3.91 2.19,4.14 2.68,0.58 3.19,-1.76 3.45,-4 0.94,-7.83 1.93,-15.66 2.88,-23.5 0.47,-4 0.94,-7.94 1.38,-11.91 a 27.93,27.93 0 0 0 0.33,-5.63 c -0.13,-1.09 -0.63,-3.71 -1.94,-4.4 z"
           id="path238-7" />
      </g>
    </g>
  </g>
</svg>
