<svg xmlns="http://www.w3.org/2000/svg" viewBox="0 0 715.33 316.69"><defs><style>.cls-1{fill:#e74c8a;}.cls-2{fill:#b13e6d;}.cls-3{fill:#a43664;}.cls-4{fill:#f3edef;}.cls-5{fill:#39262f;}</style></defs><title>slide_18</title><g id="Layer_2" data-name="Layer 2"><g id="Layer_1-2" data-name="Layer 1"><path class="cls-1" d="M21.92,316.69c-1.55-2.59-4.55-3.67-6.29-6.05-.75-1-1.72-2-1.91-3.35,1.16-.39,1.78.44,2.51,1.08,2.26,2,4.55,4,6.8,6.07,1.13,1,2.39,2.17,3.81,1,1.77-1.44-.39-2.22-.94-3.22a12.25,12.25,0,0,0-1.73-2.33C11.86,296.52,7.33,280.09,5.85,262.57c-1-11.8,2.3-23.13,4.37-34.58,4.35-24.14,22.49-42.18,46.72-46.67,9.89-1.83,20-2.83,29.59-6,13.72-4.49,26.31-11.42,38.94-18.24a55.8,55.8,0,0,0,10.35-6.79c.75-.65,2.14-1.46,1.24-2.63-.74-1-1.77.19-2.56.57-9.88,4.75-19.73,9.57-29.6,14.33a21.39,21.39,0,0,1-7,2.46c1.1-2.87,2.3-5.24,3-7.83,1.9-6.78.8-13.73,1.25-20.58.6-9.08,2.07-17.47,8.44-24.57,5-5.55,9.26-11.72,17.28-13.18a133.56,133.56,0,0,1,20.95-2.47c10.34-.26,20.18-2.28,28.3-9.69a95.82,95.82,0,0,0,16.88-20c11-17.65,25.83-31.6,42.6-43.5,17-12,37-15,56.94-17.21,16-1.77,30.93,3.93,45.69,9.33,9.13,3.34,17,8.81,24.71,14.65,7.09,5.38,12.81,12.28,19.92,17.63,4.41,4.6,9.79,7.84,15.3,10.89.63,1.15,1.83,1.56,2.87,2.16,5,2.85,10.11,5.31,15.31,7.7,18,8.26,36.29,15.17,56.16,17,3.36.31,6.8.62,10.15-.4.66-.2,1.63-.24,1.59-1.19-.06-1.25-1.16-1-2-1a104.69,104.69,0,0,1-31.91-6.34c-3-1.15-6.67-1-9.64-4.16,6.72,0,12.85.54,18.85-.11,12.59-1.38,24.62-5.37,36.75-8.89,23.31-6.75,46.88-10.4,71.15-5.51,17.1,3.44,32.36,10.25,44.75,22.84,15.24,15.48,25,34,30.31,54.9,1.14,4.47,2.38,9,1.95,13.62-.49,5.31-1.17,10.6-1.26,15.95-.07,3.64-.16,7.26-.49,10.91-.53,5.91-1,12,.23,17.84,2.44,11.09,9.65,19.25,17.84,26.47,6.27,5.54,13.32,10.19,19.6,15.71,6.48,5.69,12.88,11.65,16.5,19.75a138.2,138.2,0,0,1,9.95,34.16c.75,4.64,1.42,9.3,2,14,.09.79-.54,1.78.55,2.15,1.29.44,1.53-.81,2.07-1.57,2.24-3.14.56-6.37.11-9.51-.92-6.46-2.74-12.77-3.16-19.32,5.5,12.14,7.35,24.73,4.63,37.88-.21,1.05-.73,2.07-.33,3.19Zm256-60,.65-.75c3.54-6.4,6.44-13,6.7-20.46,2-9.7.15-18.64-6.22-26.17a46.29,46.29,0,0,0-19.31-13.73c-12.09-4.54-23.9-5.22-35.61.65-7.53,3.78-12.61,9.95-16.58,17.37-8.12,15.18-7.25,35.32,6.14,48.57,2.2,2.18,2.32,2.93-.86,4.26-7.06,3-14,6.22-19.87,11.36-1.23,1.09-2.83,2.61-1.54,4.36s2.84.2,4.12-.58c16.4-10,34.42-14.27,53.38-15.38,14.87-.88,29.31,1.48,43.56,5.43,1.55.43,3.35,1,4.17-.89s-.64-3.09-2.23-4c-4.27-2.4-8.73-4.61-13.52-5.35-3.56-.55-3.78-2-3-4.72Zm139.24-67.5a72.66,72.66,0,0,0-25.55,8.36,30.79,30.79,0,0,0-9.45,7.37c-12.51,15.51-13.49,41.45,1.07,57.13,1.52,1.63,1.79,2.32-.82,2.89a63.77,63.77,0,0,0-17.31,6.68,6.52,6.52,0,0,0-3.64,4.29c-.18.82-.33,1.81.5,2.35a1.9,1.9,0,0,0,2.35-.32c5.43-4.2,11.93-5.82,18.41-7.3a187.75,187.75,0,0,1,29.91-4,233.62,233.62,0,0,1,31,0c6.81.46,13.42,2.11,20.13,3.08,1.74.25,4.13.65,4.73-1.53s-1.7-2.7-3.19-3.37a47.3,47.3,0,0,0-14.78-3.75c-2-.2-2.79-.69-1.38-2.65a59.9,59.9,0,0,0,4.4-6.7c5.62-10.54,9.12-21.43,5-33.47-2.35-7-7.43-11.85-12.43-16.88C438.17,193.43,428.14,190.7,417.13,189.23ZM75.31,266.07c0,1.78,0,2.63,0,3.48.13,5.41,3.13,10.36,7.14,11.81s9.5-.53,12.81-4.93c7.91-10.49,10.59-22.72,11.52-35.49.11-1.59-.31-3.26-1.9-3.55-1.82-.32-2.7,1.34-3.16,2.91-.82,2.79-1.43,5.65-2.3,8.43-2.44,7.78-4.87,15.59-10.11,22.07-1.06,1.31-2.23,3.73-4.12,3-2.15-.86-2.24-3.56-2.48-5.73a18.53,18.53,0,0,1,.33-2.14c.08-4.42,2.91-8.28,2.57-12.8-.28-3.8-3.08-5.39-6.34-3.44A15.75,15.75,0,0,0,74.42,254c-4.89,6.8-9.84,13.58-15,20.2-1.64,2.12-3.56,5.25-6.65,4.2s-3.48-4.55-3.75-7.4a49.18,49.18,0,0,1,2-18c3.51-12.41,9.84-23.53,15.48-35,1-2,3.07-4.53.39-6.1-2.39-1.4-3.84,1.62-5,3.21-10.12,14.34-18.16,29.68-20.74,47.3-1.05,7.21-.5,14.35,4.1,20.58a9,9,0,0,0,7.12,3.79c6.57.38,10.57-3.68,14.13-8.3C69.42,274.74,72,270.78,75.31,266.07ZM546.22,108.91c-5.58.09-11.18-.15-16.73.82-8.17,1.44-16.2,3.24-23.26,7.94a12.72,12.72,0,0,0-4.82,5.79c-.66,1.57-.2,2.83,1.19,3.32,1.6.57,1-1.15,1.38-1.84a7.79,7.79,0,0,1,3.13-3,44.51,44.51,0,0,1,10.47-4.19c15.43-4,31-3.86,46.63-1.56,26.43,3.9,47,17.39,63,38.43.93,1.22,1.57,3.27,3.53,2.18s.53-2.8-.1-4.11c-7-14.51-18.55-24.48-32.43-32C582,112,564.53,108.6,546.22,108.91ZM553.44,142a17.69,17.69,0,0,0-8.53,1.44c-.8.35-1.57.93-1.32,1.93.34,1.27,1.29.79,2.06.45,4.16-1.83,8.5-.74,12.54-.1,17,2.68,33.8,6.23,50.11,11.79.71.24,1.42.72,2,0s.09-1.69-.62-2.19a11.83,11.83,0,0,0-3.13-1.8c-5-1.6-9.92-3.21-15-4.58C579.06,145.5,566.41,142.79,553.44,142Z"/><path class="cls-2" d="M383.92,47.64C376.81,42.29,371.09,35.39,364,30c-7.69-5.84-15.58-11.31-24.71-14.65C324.53,10,309.6,4.26,293.6,6c-19.94,2.2-40,5.17-56.94,17.21-16.77,11.9-31.58,25.85-42.6,43.5a95.82,95.82,0,0,1-16.88,20c-8.12,7.41-18,9.43-28.3,9.69a133.56,133.56,0,0,0-20.95,2.47c-8,1.46-12.31,7.63-17.28,13.18-6.37,7.1-7.84,15.49-8.44,24.57-.45,6.85.65,13.8-1.25,20.58-.72,2.59-1.92,5-3,7.83a21.39,21.39,0,0,0,7-2.46c9.87-4.76,19.72-9.58,29.6-14.33.79-.38,1.82-1.53,2.56-.57.9,1.17-.49,2-1.24,2.63a55.8,55.8,0,0,1-10.35,6.79c-12.63,6.82-25.22,13.75-38.94,18.24-9.63,3.15-19.7,4.15-29.59,6C32.71,185.81,14.57,203.85,10.22,228c-2.07,11.45-5.36,22.78-4.37,34.58,1.48,17.52,6,33.95,18.32,47.33a12.25,12.25,0,0,1,1.73,2.33c.55,1,2.71,1.78.94,3.22-1.42,1.16-2.68,0-3.81-1-2.25-2.05-4.54-4-6.8-6.07-.73-.64-1.35-1.47-2.51-1.08l.09,0C14,306,14,305,12.35,305l0,0c.19-1.38.05-2.56-1.63-2.87l0,0c.2-.75.12-1.36-.8-1.51l.06.05c.21-.74.12-1.34-.77-1.54l.06.07c.19-.72.09-1.32-.72-1.58l.05.08a1.28,1.28,0,0,0-.77-1.63c-6.3-16.86-9.8-34-6.82-52.18,1.31-8,.87-16.37,3.7-24.11,8.76-24,25.76-38.74,50.66-44.25,8.67-1.92,17.41-3.62,26.18-5,6-1,9-4.94,11.26-9.8A22.7,22.7,0,0,0,95,150.85c-.08-6.58.64-13.16.6-19.71-.08-14.45,14.79-37.1,33-39.39,6.51-.82,13-2.43,19.55-2.34,13.25.16,24-4.46,31.66-15.5l.7-.91-.09.12a1.3,1.3,0,0,0,.91-1.46l0,0c1.06-.09,1.6-.57,1.23-1.7l.22.14-.23-.11c3.41-1.41,4.76-4.71,6.52-7.48,8.6-13.59,19.51-25,32-35,3.84-3.06,8.24-5.5,11.34-9.47l-.09.1.93-.65-.06,0a1.39,1.39,0,0,0,1.52-.88C254.35,4.87,275.78.07,298.48.14c4.81,1.08,9.77.64,14.63,1.62,8.66,1.76,16.92,4.82,25.42,7.1a49.37,49.37,0,0,1,9.54,4.47c.07,1.11.81,1.64,1.68,2.15C355.32,18.7,361,21.79,366,25.8c1.18.95,2.17,2.37,4,2h0c1.33,2.91,3.08,5.35,6.56,5.87a13.08,13.08,0,0,1,3.69,3.61c1,3.42,4.35,4.93,6.38,7.52.64.81,2,1.48,1.44,2.63-.78,1.58-1.79,0-2.68-.23C384.75,47,384.29,47,383.92,47.64Z"/><path class="cls-2" d="M709.46,275.62c.42,6.55,2.24,12.86,3.16,19.32.45,3.14,2.13,6.37-.11,9.51-.54.76-.78,2-2.07,1.57-1.09-.37-.46-1.36-.55-2.15-.55-4.67-1.22-9.33-2-14A138.2,138.2,0,0,0,698,255.74c-3.62-8.1-10-14.06-16.5-19.75-6.28-5.52-13.33-10.17-19.6-15.71-8.19-7.22-15.4-15.38-17.84-26.47-1.28-5.86-.76-11.93-.23-17.84.33-3.65.42-7.27.49-10.91.09-5.35.77-10.64,1.26-15.95.43-4.64-.81-9.15-1.95-13.62-5.35-20.92-15.07-39.42-30.31-54.9C600.9,68,585.64,61.19,568.54,57.75c-24.27-4.89-47.84-1.24-71.15,5.51-12.13,3.52-24.16,7.51-36.75,8.89-6,.65-12.13.11-18.85.11,3,3.14,6.61,3,9.64,4.16a104.69,104.69,0,0,0,31.91,6.34c.8,0,1.9-.22,2,1,0,.95-.93,1-1.59,1.19-3.35,1-6.79.71-10.15.4-19.87-1.82-38.21-8.73-56.16-17-5.2-2.39-10.35-4.85-15.31-7.7-1-.6-2.24-1-2.87-2.16,2.82-.29,5.11,1.3,7.53,2.28,7,2.84,13.91,6,21.52,7,2.19,2.09,5.09,1.24,7.63,1.85.2.36.42.38.65,0l3,.06c8.67,2.13,17.27,1.06,25.78-.78C477,66.48,488,62,499.51,59.25c9.86-2.34,19.47-5.62,29.61-6.84,2.22-.27,5.19.9,7-1.74l1.47-.06c1.53,1.17,3.31.63,4.93.56A102.73,102.73,0,0,1,573,54.73c10.07,2.62,19.44,7,28.65,11.92s15.93,12.09,22.68,19.57c1.88,2.08,2.78,5.28,6.06,6h0a5.67,5.67,0,0,0,.47,2.08,102.58,102.58,0,0,1,11.32,21.86c4,10.46,7.72,21,7.34,32.57-.13,4-.88,8.2.6,12.19l-.06,3.69c-1.32,5.28-.44,10.65-.63,16,.07,2.9.16,5.81.23,8.71.2,9.81,5.65,16.94,12.06,23.58a1.45,1.45,0,0,0,1.63.71l0,0c.39,2.59,2.56,3.71,4.33,5.08,10,7.73,19.94,15.46,28,25.35,2.36,2.91,3.66,6.54,6.48,9.11l0-.06c-.06.87-.12,1.74.84,2.23l0-.09a1.45,1.45,0,0,0,.66,1.6c2.42,4.55,2.57,9.77,4.3,14.53.1.83-.12,1.79.92,2.24l0-.06c-.1.88-.29,1.78.78,2.25Z"/><path class="cls-3" d="M536.07,50.67c-1.76,2.64-4.73,1.47-7,1.74-10.14,1.22-19.75,4.5-29.61,6.84C488,62,477,66.48,465.37,69c-8.51,1.84-17.11,2.91-25.78.78,2.9-1.21,6-.94,9-1,14.4-.46,28-4.62,41.54-8.94a221.2,221.2,0,0,1,42.33-9C533.64,50.6,534.86,50.69,536.07,50.67Z"/><path class="cls-3" d="M630.36,92.19c-3.28-.69-4.18-3.89-6.06-6-6.75-7.48-13.53-14.71-22.68-19.57S583,57.35,573,54.73a102.73,102.73,0,0,0-30.5-3.56c-1.62.07-3.4.61-4.93-.56,12.65-1.82,25,.21,37.26,2.93C598.25,58.73,616,72.17,630,91.19A4.46,4.46,0,0,1,630.36,92.19Z"/><path class="cls-3" d="M428.27,67.81c-7.61-1-14.5-4.16-21.52-7-2.42-1-4.71-2.57-7.53-2.28-5.51-3.05-10.89-6.29-15.3-10.89.37-.6.83-.6,1.51-.44.89.21,1.9,1.81,2.68.23.58-1.15-.8-1.82-1.44-2.63-2-2.59-5.33-4.1-6.38-7.52,6,5.16,11.65,10.62,18.35,14.91a206.75,206.75,0,0,0,25.81,13.58C425.76,66.37,427,67.13,428.27,67.81ZM391.7,49.56a1.62,1.62,0,0,0-1.62-1.17c-.61.08-.87.46-.71,1a1.4,1.4,0,0,0,1.38,1C391.26,50.4,391.7,50.19,391.7,49.56Z"/><path class="cls-1" d="M232.45,18.09c-3.1,4-7.5,6.41-11.34,9.47-12.53,10-23.44,21.41-32,35-1.76,2.77-3.11,6.07-6.52,7.48,12-21.14,26.38-40,48.51-51.54A7,7,0,0,1,232.45,18.09Z"/><path class="cls-3" d="M650.1,160.9c-1.48-4-.73-8.15-.6-12.19.38-11.53-3.33-22.11-7.34-32.57a102.58,102.58,0,0,0-11.32-21.86,5.67,5.67,0,0,1-.47-2.08c5.37,6.28,8.65,13.76,11.93,21.21a108.55,108.55,0,0,1,8.83,30.42C651.83,149.59,650.39,155.21,650.1,160.9Z"/><path class="cls-1" d="M702.09,253.08c-2.82-2.57-4.12-6.2-6.48-9.11-8.05-9.89-18-17.62-28-25.35-1.77-1.37-3.94-2.49-4.33-5.08,14.14,8.24,26.3,18.65,35.38,32.39C700.13,248.13,701.61,250.38,702.09,253.08Z"/><path class="cls-1" d="M338.53,8.86c-8.5-2.28-16.76-5.34-25.42-7.1-4.86-1-9.82-.54-14.63-1.62,12.68-.67,24.94,1,36.52,6.48C336.24,7.21,337.81,7.4,338.53,8.86Z"/><path class="cls-3" d="M370.05,27.8c-1.85.37-2.84-1.05-4-2-5.07-4-10.71-7.1-16.28-10.32-.87-.51-1.61-1-1.68-2.15A76.92,76.92,0,0,1,370.05,27.8Z"/><path class="cls-3" d="M376.6,33.67c-3.48-.52-5.23-3-6.56-5.87A22.87,22.87,0,0,1,376.6,33.67Z"/><path class="cls-3" d="M649.41,180.57c.19-5.33-.69-10.7.63-16A83.74,83.74,0,0,1,649.41,180.57Z"/><path class="cls-1" d="M10.74,302.17c1.68.31,1.82,1.49,1.63,2.87A3.43,3.43,0,0,1,10.74,302.17Z"/><path class="cls-1" d="M12.35,305c1.66,0,1.69,1,1.46,2.24A2.29,2.29,0,0,1,12.35,305Z"/><path class="cls-1" d="M182.56,70c.37,1.13-.17,1.61-1.23,1.7A2,2,0,0,1,182.56,70Z"/><path class="cls-1" d="M702.9,255.25c-1-.49-.9-1.36-.84-2.23A2.51,2.51,0,0,1,702.9,255.25Z"/><path class="cls-1" d="M708.73,273.53c-1-.45-.82-1.41-.92-2.24C709,271.68,708.7,272.67,708.73,273.53Z"/><path class="cls-1" d="M709.47,275.72c-1.07-.47-.88-1.37-.78-2.25C709.59,274,709.52,274.86,709.47,275.72Z"/><path class="cls-1" d="M181.37,71.66a1.3,1.3,0,0,1-.91,1.46A1.65,1.65,0,0,1,181.37,71.66Z"/><path class="cls-1" d="M663.33,213.57a1.45,1.45,0,0,1-1.63-.71C662.49,212.51,663,212.91,663.33,213.57Z"/><path class="cls-1" d="M234.75,16.7a1.39,1.39,0,0,1-1.52.88A1.81,1.81,0,0,1,234.75,16.7Z"/><path class="cls-1" d="M703.51,256.76a1.45,1.45,0,0,1-.66-1.6C703.54,255.5,703.52,256.13,703.51,256.76Z"/><path class="cls-1" d="M7.9,296.15a1.28,1.28,0,0,1,.77,1.63C7.9,297.48,8,296.78,7.9,296.15Z"/><path class="cls-1" d="M8.62,297.7c.81.26.91.86.72,1.58C8.61,299,8.57,298.36,8.62,297.7Z"/><path class="cls-1" d="M9.28,299.21c.89.2,1,.8.77,1.54C9.33,300.47,9.24,299.88,9.28,299.21Z"/><path class="cls-1" d="M10,300.7c.92.15,1,.76.8,1.51A1.28,1.28,0,0,1,10,300.7Z"/><path class="cls-1" d="M180.55,73l-.7.91Z"/><path class="cls-3" d="M436.55,69.69c-.23.35-.45.33-.65,0A.56.56,0,0,1,436.55,69.69Z"/><path class="cls-1" d="M233.29,17.54l-.93.65C232.45,17.65,232.84,17.56,233.29,17.54Z"/><path class="cls-2" d="M417.13,189.23c11,1.47,21,4.2,29,12.18,5,5,10.08,9.92,12.43,16.88,4.07,12,.57,22.93-5,33.47a59.9,59.9,0,0,1-4.4,6.7c-1.41,2-.62,2.45,1.38,2.65a47.3,47.3,0,0,1,14.78,3.75c1.49.67,3.75,1.32,3.19,3.37s-3,1.78-4.73,1.53c-6.71-1-13.32-2.62-20.13-3.08a233.62,233.62,0,0,0-31,0,187.75,187.75,0,0,0-29.91,4c-6.48,1.48-13,3.1-18.41,7.3a1.9,1.9,0,0,1-2.35.32c-.83-.54-.68-1.53-.5-2.35a6.52,6.52,0,0,1,3.64-4.29A63.77,63.77,0,0,1,382.38,265c2.61-.57,2.34-1.26.82-2.89-14.56-15.68-13.58-41.62-1.07-57.13a30.79,30.79,0,0,1,9.45-7.37A72.66,72.66,0,0,1,417.13,189.23Zm-10.56,25c3.4,1.36,8.37.36,10.26-2.06a87.21,87.21,0,0,0,17.26-7.34c1-.53,2.75-.58,2.67-2-.07-1.25-1.64-1.64-2.7-2.22-11.06-6-22.11-5.26-33.13.09-5.37,2.6-10.64,5.34-14.31,10.33-1.2,1.63-1.23,2.33,1,2.74C394,214.91,400.27,214.06,406.57,214.23Zm-23.32,3.12c-4.12,10.45-4.36,20.87.46,31.18,1.54,3.3,3.42,6.45,4.89,9.79,1.65,3.76,4,4.86,8.24,4.21a200.08,200.08,0,0,1,42.56-2.31c2.19.14,3.64-.34,4.73-2.41,1.64-3.12,3.68-6,5.41-9.1,5.2-9.22,7.1-18.78,3.16-29.05-2.23-5.8-6.36-10-10.95-13.85-3.23-2.7-5.56.67-7.05,2-8,7-17.58,9.23-27.74,10.25-3.64.37-6.92-1.68-10.32-1.3s-6.7.74-10.09-.09C385.48,216.36,384.1,216,383.25,217.35Z"/><path class="cls-2" d="M277.9,256.72c-.81,2.71-.59,4.17,3,4.72,4.79.74,9.25,2.95,13.52,5.35,1.59.89,3.1,2,2.23,4s-2.62,1.32-4.17.89c-14.25-4-28.69-6.31-43.56-5.43-19,1.11-37,5.42-53.38,15.38-1.28.78-2.8,2.38-4.12.58s.31-3.27,1.54-4.36c5.83-5.14,12.81-8.4,19.87-11.36,3.18-1.33,3.06-2.08.86-4.26-13.39-13.25-14.26-33.39-6.14-48.57,4-7.42,9-13.59,16.58-17.37,11.71-5.87,23.52-5.19,35.61-.65A46.29,46.29,0,0,1,279,209.35c6.37,7.53,8.25,16.47,6.22,26.17,0-2.29,0-4.57-.05-6.86a16.43,16.43,0,0,0-8-14.38l0,0c0-1.61-.38-2.86-2.34-2.82l-.66-.67c0-1.16-.56-1.61-1.68-1.46-1.25-.35-2-1.74-3.43-1.71a4.83,4.83,0,0,0-2.11-2c-5.76-3.13-11.69-5.93-18.23-6.88-9.82-1.43-19,0-26.8,6.81-1.1,1-2.24,2-1.8,3.68-.22,2-2.54.09-3,1.65a10.33,10.33,0,0,0-3,4c-10.18,19.35-5.5,32.89,5.61,47.28,1.15,1.49,2.38,1.31,3.87.93a132.46,132.46,0,0,1,49.92-3.15C276.35,260.72,276,257.22,277.9,256.72Z"/><path class="cls-2" d="M75.31,266.07c-3.3,4.71-5.89,8.67-8.76,12.41-3.56,4.62-7.56,8.68-14.13,8.3A9,9,0,0,1,45.3,283c-4.6-6.23-5.15-13.37-4.1-20.58,2.58-17.62,10.62-33,20.74-47.3,1.12-1.59,2.57-4.61,5-3.21,2.68,1.57.58,4.14-.39,6.1-5.64,11.45-12,22.57-15.48,35a49.18,49.18,0,0,0-2,18c.27,2.85.78,6.39,3.75,7.4s5-2.08,6.65-4.2c5.13-6.62,10.08-13.4,15-20.2a15.75,15.75,0,0,1,4.86-4.32c3.26-1.95,6.06-.36,6.34,3.44.34,4.52-2.49,8.38-2.57,12.8a18.53,18.53,0,0,0-.33,2.14c.24,2.17.33,4.87,2.48,5.73,1.89.75,3.06-1.67,4.12-3,5.24-6.48,7.67-14.29,10.11-22.07.87-2.78,1.48-5.64,2.3-8.43.46-1.57,1.34-3.23,3.16-2.91,1.59.29,2,2,1.9,3.55-.93,12.77-3.61,25-11.52,35.49-3.31,4.4-8.83,6.37-12.81,4.93s-7-6.4-7.14-11.81C75.29,268.7,75.31,267.85,75.31,266.07Z"/><path class="cls-2" d="M546.23,108.92c18.3-.32,35.78,3.09,52,11.83,13.88,7.49,25.42,17.46,32.43,32,.63,1.31,2.16,3,.1,4.11s-2.6-1-3.53-2.18c-16-21-36.58-34.53-63-38.43-15.63-2.3-31.2-2.47-46.63,1.56A44.51,44.51,0,0,0,507.11,122a7.79,7.79,0,0,0-3.13,3c-.4.69.22,2.41-1.38,1.84-1.39-.49-1.85-1.75-1.19-3.32a12.72,12.72,0,0,1,4.82-5.79c7.06-4.7,15.09-6.5,23.26-7.94C535,108.76,540.64,109,546.23,108.92Z"/><path class="cls-2" d="M553.44,142c13,.81,25.62,3.52,38.12,6.92,5,1.37,10,3,15,4.58a11.83,11.83,0,0,1,3.13,1.8c.71.5,1.25,1.32.62,2.19s-1.25.26-2,0c-16.31-5.56-33.13-9.11-50.11-11.79-4-.64-8.38-1.73-12.54.1-.77.34-1.72.82-2.06-.45-.25-1,.52-1.58,1.32-1.93A17.69,17.69,0,0,1,553.44,142Z"/><path class="cls-3" d="M277.9,256.72c-1.87.5-1.55,4-4.38,3.19a28.59,28.59,0,0,0,3.46-8c3.7-12.52,8.37-25.07.22-37.67a16.43,16.43,0,0,1,8,14.38c0,2.29,0,4.57.05,6.86-.26,7.46-3.16,14.06-6.7,20.46l-.65.75Z"/><path class="cls-2" d="M277.89,256.73l.65-.75Z"/><path class="cls-2" d="M391.7,49.56c0,.63-.44.84-.95.82a1.4,1.4,0,0,1-1.38-1c-.16-.53.1-.91.71-1A1.62,1.62,0,0,1,391.7,49.56Z"/><path class="cls-4" d="M441.75,205.81c4.59,3.87,8.72,8.05,10.95,13.85,3.94,10.27,2,19.83-3.16,29.05-1.73,3.07-3.77,6-5.41,9.1-1.09,2.07-2.54,2.55-4.73,2.41a200.08,200.08,0,0,0-42.56,2.31c-4.25.65-6.59-.45-8.24-4.21-1.47-3.34-3.35-6.49-4.89-9.79-4.82-10.31-4.58-20.73-.46-31.18,1.78.36,3.56.77,5.35,1.07,18.15,3.1,35.08.61,50-11C439.53,206.63,440.38,205.7,441.75,205.81Zm-29.33,28.77c-4.76.06-8.65,3.72-8.61,8.12s4.08,8.09,8.7,8.11c4.84,0,8.85-3.82,8.73-8.39S417.24,234.53,412.42,234.58Z"/><path class="cls-1" d="M406.57,214.23c-6.3-.17-12.62.68-18.91-.46-2.27-.41-2.24-1.11-1-2.74,3.67-5,8.94-7.73,14.31-10.33,11-5.35,22.07-6,33.13-.09,1.06.58,2.63,1,2.7,2.22.08,1.42-1.67,1.47-2.67,2a87.21,87.21,0,0,1-17.26,7.34Z"/><path class="cls-3" d="M441.75,205.81c-1.37-.11-2.22.82-3.17,1.57-14.9,11.65-31.83,14.14-50,11-1.79-.3-3.57-.71-5.35-1.07.85-1.35,2.23-1,3.3-.72,3.39.83,6.67.46,10.09.09s6.68,1.67,10.32,1.3c10.16-1,19.7-3.24,27.74-10.25C436.19,206.48,438.52,203.11,441.75,205.81Z"/><path class="cls-3" d="M406.57,214.23l10.26-2.06C414.94,214.59,410,215.59,406.57,214.23Z"/><path class="cls-4" d="M277.2,214.28c8.15,12.6,3.48,25.15-.22,37.67a28.59,28.59,0,0,1-3.46,8,132.46,132.46,0,0,0-49.92,3.15c-1.49.38-2.72.56-3.87-.93-11.11-14.39-15.79-27.93-5.61-47.28a10.33,10.33,0,0,1,3-4c2.1.91,4.19,1.85,6.32,2.72,10.34,4.25,21,6.07,31.9,2.86,5.33-1.57,10.65-3.5,13.69-8.8,1.44,0,2.18,1.36,3.43,1.71a2.38,2.38,0,0,0,1.68,1.46l.66.67a5.78,5.78,0,0,0,2.34,2.82Zm-30.1,25.78a8.64,8.64,0,0,0,8.59,8.57,8.88,8.88,0,0,0,8.89-8.72,8.74,8.74,0,0,0-8.87-8.33A8.51,8.51,0,0,0,247.1,240.06Z"/><path class="cls-1" d="M220.13,209.16c-.44-1.73.7-2.72,1.8-3.68,7.78-6.77,17-8.24,26.8-6.81,6.54,1,12.47,3.75,18.23,6.88a1.73,1.73,0,0,1-.86,1.49,47.4,47.4,0,0,1-30.88,6.13C230,212.42,225.3,210,220.13,209.16Z"/><path class="cls-3" d="M220.13,209.16c5.17.81,9.88,3.26,15.09,4A47.4,47.4,0,0,0,266.1,207a1.73,1.73,0,0,0,.86-1.49,4.83,4.83,0,0,1,2.11,2c-3,5.3-8.36,7.23-13.69,8.8-10.94,3.21-21.56,1.39-31.9-2.86-2.13-.87-4.22-1.81-6.32-2.72C217.59,209.25,219.91,211.11,220.13,209.16Z"/><path class="cls-3" d="M277.18,214.25a5.78,5.78,0,0,1-2.34-2.82C276.8,211.39,277.22,212.64,277.18,214.25Z"/><path class="cls-3" d="M274.18,210.76a2.38,2.38,0,0,1-1.68-1.46C273.62,209.15,274.21,209.6,274.18,210.76Z"/><path class="cls-5" d="M412.42,234.58c4.82-.05,8.7,3.4,8.82,7.84s-3.89,8.42-8.73,8.39c-4.62,0-8.66-3.79-8.7-8.11S407.66,234.64,412.42,234.58Z"/><path class="cls-5" d="M247.1,240.06a8.51,8.51,0,0,1,8.61-8.48,8.74,8.74,0,0,1,8.87,8.33,8.88,8.88,0,0,1-8.89,8.72A8.64,8.64,0,0,1,247.1,240.06Z"/></g></g></svg>