<?xml version="1.0" encoding="UTF-8" standalone="no"?>
<svg
   xmlns:dc="http://purl.org/dc/elements/1.1/"
   xmlns:cc="http://creativecommons.org/ns#"
   xmlns:rdf="http://www.w3.org/1999/02/22-rdf-syntax-ns#"
   xmlns:svg="http://www.w3.org/2000/svg"
   xmlns="http://www.w3.org/2000/svg"
   xmlns:sodipodi="http://sodipodi.sourceforge.net/DTD/sodipodi-0.dtd"
   xmlns:inkscape="http://www.inkscape.org/namespaces/inkscape"
   viewBox="0 0 552.46221 283.5669"
   version="1.1"
   id="svg24"
   sodipodi:docname="slide_4_5.svg"
   width="552.46222"
   height="283.56689"
   inkscape:version="0.92.4 (5da689c313, 2019-01-14)">
  <metadata
     id="metadata28">
    <rdf:RDF>
      <cc:Work
         rdf:about="">
        <dc:format>image/svg+xml</dc:format>
        <dc:type
           rdf:resource="http://purl.org/dc/dcmitype/StillImage" />
        <dc:title>slide_4_5</dc:title>
      </cc:Work>
    </rdf:RDF>
  </metadata>
  <sodipodi:namedview
     pagecolor="#ffffff"
     bordercolor="#666666"
     borderopacity="1"
     objecttolerance="10"
     gridtolerance="10"
     guidetolerance="10"
     inkscape:pageopacity="0"
     inkscape:pageshadow="2"
     inkscape:window-width="1920"
     inkscape:window-height="1023"
     id="namedview26"
     showgrid="false"
     fit-margin-top="0"
     fit-margin-left="0"
     fit-margin-right="0"
     fit-margin-bottom="0"
     inkscape:zoom="0.55190397"
     inkscape:cx="276.91503"
     inkscape:cy="180.52158"
     inkscape:window-x="0"
     inkscape:window-y="0"
     inkscape:window-maximized="1"
     inkscape:current-layer="svg24" />
  <defs
     id="defs4">
    <style
       id="style2">.cls-1{fill:#00b3ea;}.cls-2{fill:#009ddb;}.cls-3{fill:#023d53;}.cls-4{fill:#032c3b;}</style>
  </defs>
  <title
     id="title6">slide_4_5</title>
  <path
     style="fill:#00b3ea;stroke-width:0.46880504"
     inkscape:connector-curvature="0"
     class="cls-1"
     d="m 224.01533,176.31224 c -7.91342,-5.59284 -19.79295,-15.27836 -19.42259,-25.43735 0.41724,-11.33571 15.05332,-20.43991 23.02302,-26.57189 5.96788,-4.59898 13.82037,-9.18857 17.55675,-15.98156 3.47853,-6.32886 5.22717,-12.803064 9.87303,-18.667814 9.34797,-11.818575 23.20116,-20.191434 38.17479,-22.286992 15.14709,-2.11431 25.15608,4.964645 34.55093,16.0847 9.70427,11.485722 18.56938,24.007506 23.44026,38.240436 2.08618,6.09446 3.33789,13.07497 0.42192,18.8319 -2.34402,4.62241 -6.96176,7.61807 -11.58885,9.94334 -19.92891,10.02775 -43.28477,11.62169 -63.17618,21.72445 -9.21201,4.65522 -17.94116,11.2185 -28.21268,12.1561 -8.30723,0.73602 -16.58165,-2.43309 -23.44026,-7.1774 -0.38912,-0.28597 -0.78759,-0.56725 -1.20014,-0.85792 z"
     id="path8" />
  <path
     style="fill:#009ddb;stroke-width:0.46880504"
     inkscape:connector-curvature="0"
     class="cls-2"
     d="m 353.66805,133.12124 a 7.5430732,7.5430732 0 0 0 -0.0985,-2.7894 c -0.84853,-5.09122 -2.05804,-10.05586 -4.40207,-14.72047 A 173.88917,173.88917 0 0 0 335.50654,92.569593 c -2.64405,-3.712936 -5.40063,-7.350864 -8.32597,-10.843461 -4.73025,-5.672541 -10.72157,-9.755833 -17.56613,-12.545223 a 27.190694,27.190694 0 0 0 -6.56327,-1.687697 c -5.41469,-0.745401 -10.78252,-0.229715 -16.05188,0.937608 -4.84276,1.073566 -9.63863,2.508108 -14.08759,4.734932 -5.07247,2.540923 -9.51675,6.267923 -13.59534,10.159006 -3.90046,3.717624 -7.39775,7.904052 -9.91055,12.690548 a 37.43877,37.43877 0 0 0 -1.66426,3.60512 c -1.12982,2.812824 -2.34402,5.625654 -3.08942,8.583814 a 10.41216,10.41216 0 0 1 -3.61918,5.56941 c -0.661,0.55319 -1.29389,1.13451 -1.97835,1.65019 -5.62566,4.21925 -11.33571,8.31191 -16.53475,13.06561 -1.14858,1.05011 -2.46124,1.92678 -3.66138,2.92534 -1.56581,1.29389 -3.12692,2.59248 -4.64116,3.94264 a 35.554175,35.554175 0 0 0 -9.29172,12.77963 c -1.40642,3.32383 -1.37829,6.52108 0.29065,9.69488 a 21.171236,21.171236 0 0 0 1.68771,2.81283 105.57021,105.57021 0 0 0 10.91378,12.53585 20.899328,20.899328 0 0 0 3.0988,2.49874 129.56834,129.56834 0 0 0 11.5326,6.7086 14.087591,14.087591 0 0 0 5.56003,1.7252 c 3.97078,0.26253 7.94156,0.65164 11.93109,0.30472 a 22.938632,22.938632 0 0 0 5.73818,-1.07825 c 5.4522,-1.92678 10.87627,-3.93328 15.98624,-6.65235 7.31336,-3.8817 14.70643,-7.55713 22.46983,-10.50123 3.60042,-1.35953 7.29461,-2.27371 10.97472,-3.28163 6.61485,-1.84241 13.20156,-3.81138 19.92892,-5.24124 3.66604,-0.77823 7.36023,-1.46736 10.8247,-2.95348 5.44282,-2.34402 10.44028,-5.335 14.2001,-10.03711 2.68158,-3.38009 4.13018,-7.17271 3.60511,-11.55135 z m -5.8835,10.60437 a 35.929218,35.929218 0 0 1 -18.7522,10.40278 c -8.63539,1.81897 -17.12077,4.16767 -25.63426,6.4367 -10.93254,2.91597 -21.16655,7.44931 -31.07239,12.83118 -8.66352,4.68805 -18.08651,8.4385 -28.03925,8.14314 -3.80669,-0.11255 -7.79621,-0.39379 -11.30288,-2.02523 -3.78326,-1.76271 -7.60401,-4.30363 -11.00754,-6.72267 -3.33321,-2.36746 -5.90695,-5.56003 -8.68695,-8.50412 a 63.687165,63.687165 0 0 1 -4.53804,-5.65378 c -2.46592,-3.31446 -2.72376,-6.75549 -0.81572,-10.52468 2.20806,-4.35051 5.3725,-7.86654 8.99636,-10.97473 q 5.68661,-4.88494 11.14819,-10.00898 c 3.20663,-3.01443 6.98987,-5.24124 10.31372,-8.07752 0.87665,-0.75008 1.95491,-1.30327 2.43308,-2.45185 l 0.46882,-0.55787 c -0.13127,0.17814 -0.28598,0.35629 -0.42662,0.52506 l 1.14388,0.0704 c -0.60006,-0.0375 -2.25025,6.29605 -2.41435,6.92895 -0.2672,1.04543 -0.52505,2.09555 -0.75476,3.15036 a 7.4118079,7.4118079 0 0 0 0.0937,2.48935 c -0.0797,-0.64694 1.172,-2.34402 1.46267,-2.9816 0.55788,-1.18607 1.08763,-2.38153 1.59863,-3.58635 0.99387,-2.34402 1.91272,-4.68805 2.81283,-7.03208 1.81427,-4.68805 3.55354,-9.43236 5.62566,-14.02665 1.94554,-4.298944 4.04109,-8.691646 7.3321,-12.076418 6.7461,-6.94769 13.20155,-13.178109 22.78394,-15.89249 6.72265,-1.90335 14.82829,-3.22538 21.79473,-2.273705 6.52576,0.895417 12.5546,3.75044 17.81461,7.650898 4.09266,3.028481 6.91018,7.163341 9.97147,11.101304 a 152.73668,152.73668 0 0 1 10.65126,16.005001 c 2.23151,3.75045 4.82868,7.34149 6.73672,11.25132 2.54093,5.24125 3.727,10.81534 3.99423,16.60509 a 12.657737,12.657737 0 0 1 -3.73169,9.77927 z"
     id="path10" />
  <path
     style="fill:#009ddb;stroke-width:0.46880504"
     inkscape:connector-curvature="0"
     class="cls-2"
     d="m 349.86605,122.23557 c -0.28129,0.56727 -0.30472,1.08763 0.25784,1.51425 0.56725,-0.61882 0.34224,-1.09701 -0.25784,-1.51425 z"
     id="path12" />
  <path
     style="fill:#00b3ea;stroke-width:0.46880504"
     inkscape:connector-curvature="0"
     class="cls-1"
     d="m 325.29597,181.30033 c -0.9751,0.99855 -0.9001,2.0768 -1.11575,3.05191 a 11.691998,11.691998 0 0 1 -1.05013,3.141 1.1626365,1.1626365 0 0 1 -1.2564,0.68446 1.2329573,1.2329573 0 0 1 -1.03136,-0.99856 6.8961222,6.8961222 0 0 1 -0.061,-3.04722 c 0.52976,-2.76127 1.05481,-5.52722 1.67364,-8.26973 0.37036,-1.65957 1.35485,-2.38621 3.00974,-1.94554 2.97222,0.79697 5.90694,0.60008 8.88385,0.22504 a 9.6667601,9.6667601 0 0 1 3.81138,0.14063 c 0.6282,0.16876 1.43454,0.29065 1.3736,1.21889 -0.0468,0.72665 -0.68445,0.93761 -1.26109,1.08763 a 29.244059,29.244059 0 0 1 -6.56326,0.99855 c -0.64695,0.0329 -1.35486,-0.22502 -1.93618,0.28129 -0.0421,0.67975 0.39381,1.13919 0.76416,1.57987 9.53081,11.25133 20.02735,21.41501 32.98512,28.73775 1.87522,1.04544 3.78326,1.95961 5.68193,2.93003 0.46879,0.23441 0.93759,0.43598 1.3689,0.69383 0.63758,0.37036 1.05481,0.93761 0.85323,1.68301 -0.22972,0.89543 -0.93761,1.1392 -1.78615,1.09232 a 14.889248,14.889248 0 0 1 -3.50666,-0.68445 c -4.46302,-1.34079 -8.47131,-3.6145 -12.29674,-6.18824 a 121.11579,121.11579 0 0 1 -27.72515,-25.5405 c -0.1969,-0.25783 -0.44067,-0.47817 -0.81571,-0.87197 z"
     id="path14" />
  <path
     style="fill:#023d53;stroke-width:0.46880504"
     inkscape:connector-curvature="0"
     class="cls-3"
     d="m 268.06894,91.674175 0.0797,0.09376 1.6877,-5.231864 c 0.2344,-0.736024 0.62351,-1.598625 1.40642,-1.678322 1.16264,-0.117201 1.51893,1.542368 1.40641,2.705006 a 64.695096,64.695096 0 0 1 -1.73926,9.305781 2.8597108,2.8597108 0 0 1 -0.89073,1.66894 2.9440956,2.9440956 0 0 1 -1.77677,0.35161 l -12.39521,-0.20159 c -0.90948,0 -2.12369,-0.31879 -2.11899,-1.22827 0,-0.83916 1.05949,-1.19076 1.87521,-1.29859 l 8.14783,-1.08294 c -1.96898,-2.920653 -4.60366,-5.325623 -7.30867,-7.575887 -12.9859,-10.782516 -28.09548,-18.705321 -42.0518,-28.222063 -3.9286,-2.676877 -7.89938,-5.545964 -12.52179,-6.642968 -3.85827,-0.909482 -7.88999,-0.520373 -11.83264,-0.121886 -18.7522,1.875219 -37.50441,3.858265 -56.2566,5.649099 -5.02091,0.468805 -10.05118,0.961051 -15.08147,1.336096 -2.4659,0.182833 -4.99277,0.02813 -7.47275,0.103133 -1.097,0.0422 -2.49873,-0.323476 -2.16587,-1.729891 a 1.4064152,1.4064152 0 0 1 0.80634,-0.937611 c 0.73133,-0.314099 1.87523,-0.342227 2.67219,-0.510997 2.63468,-0.55319 5.40063,-0.225025 8.07282,-0.468804 23.44026,-2.194009 46.8805,-6.703912 70.18481,-10.112125 3.51603,-0.515686 7.0977,-1.031372 10.60436,-0.468806 4.79119,0.778216 8.94012,3.48791 12.72805,6.394501 3.87702,2.948785 8.06346,5.527211 12.13269,8.232217 8.22752,5.475644 16.40817,11.035671 24.37785,16.876982 6.23043,4.547408 12.35302,8.902608 17.43018,14.795487 z"
     id="path16" />
  <path
     style="fill:#023d53;stroke-width:0.46880504"
     inkscape:connector-curvature="0"
     class="cls-3"
     d="m 262.00729,113.21577 c 3.16912,-4.00828 8.66821,-6.37575 13.59535,-4.95996 a 21.640041,21.640041 0 0 1 4.80057,2.2784 l 7.82904,4.53803 c 2.34402,1.35953 4.74431,2.75658 6.50233,4.824 a 11.973281,11.973281 0 0 1 -7.52902,19.63356 c -3.92859,0.52506 -7.8431,-0.90948 -11.80451,-1.05949 -2.88784,-0.10785 -5.80381,0.46879 -8.6682,0.0515 -12.12799,-1.76741 -10.62314,-17.84273 -4.72556,-25.3061 z"
     id="path18" />
  <path
     style="fill:#032c3b;stroke-width:0.46880504"
     inkscape:connector-curvature="0"
     class="cls-4"
     d="m 299.30073,126.00946 c 0,1.75802 -0.12184,3.02379 -0.65633,4.15362 -2.68625,5.68661 -6.80236,9.648 -13.28124,10.58562 -3.55355,0.52505 -6.77424,-0.82042 -9.89647,-2.23621 a 4.0504757,4.0504757 0 0 0 -2.85034,-0.36098 17.275466,17.275466 0 0 1 -11.18568,-1.04075 c -4.10206,-1.77207 -5.92571,-6.38981 -5.70068,-9.68082 0.41255,-6.01946 1.87522,-11.72012 6.18824,-16.26285 3.51134,-3.70825 7.604,-5.62566 12.79837,-4.21924 2.5878,0.69852 4.93182,1.93616 7.23366,3.25819 4.25674,2.45185 8.58851,4.76776 12.84526,7.21491 2.4659,1.40643 3.91452,3.23007 4.17705,6.03352 0.0937,1.03607 0.25783,2.03462 0.32816,2.55499 z m -20.23831,10.66063 c 0,0.17345 0,0.34691 0,0.52037 a 13.848501,13.848501 0 0 0 8.33067,0.25785 c 3.23944,-0.8673 5.48502,-3.15506 7.21022,-5.95383 1.50486,-2.44248 1.76738,-4.98809 1.18138,-7.8478 a 4.4911523,4.4911523 0 0 0 -2.40966,-3.39883 c -2.30652,-1.29391 -4.54272,-2.71907 -6.8633,-3.98953 -3.61917,-1.98774 -7.24774,-3.97079 -10.95128,-5.79444 a 7.2055336,7.2055336 0 0 0 -7.16334,0.1969 c -3.20194,1.87523 -5.41939,4.65055 -6.97115,7.93219 -1.37359,2.90191 -1.94084,6.09446 -2.22681,9.24484 a 6.13197,6.13197 0 0 0 2.15181,5.2131 c 2.3159,2.0065 5.28344,2.50811 8.11503,2.3159 a 75.383852,75.383852 0 0 0 13.93757,-2.45654 6.3476203,6.3476203 0 0 1 2.07212,-0.21565 1.0735636,1.0735636 0 0 1 1.07356,0.7454 c 0.14532,0.53912 -0.27661,0.85323 -0.61883,1.16264 -0.34223,0.30941 -0.8579,0.32348 -1.30328,0.4688 -1.85647,0.49225 -3.70824,1.05481 -5.56471,1.59863 z"
     id="path20" />
  <text
     xml:space="preserve"
     style="font-style:normal;font-weight:normal;font-size:18.75220108px;line-height:1.25;font-family:sans-serif;letter-spacing:0px;word-spacing:0px;fill:#023d53;fill-opacity:1;stroke:none;stroke-width:0.46880504"
     x="325.87677"
     y="232.18585"
     id="text837"><tspan
       sodipodi:role="line"
       id="tspan835"
       x="325.87677"
       y="232.18585"
       style="stroke-width:0.46880504">Business domain </tspan><tspan
       sodipodi:role="line"
       x="325.87677"
       y="255.6261"
       id="tspan839"
       style="stroke-width:0.46880504">the company/department</tspan><tspan
       sodipodi:role="line"
       x="325.87677"
       y="279.06635"
       id="tspan843"
       style="stroke-width:0.46880504">is operating in</tspan><tspan
       sodipodi:role="line"
       x="325.87677"
       y="302.50659"
       id="tspan841"
       style="stroke-width:0.46880504" /></text>
  <text
     xml:space="preserve"
     style="font-style:normal;font-weight:normal;font-size:18.75220108px;line-height:1.25;font-family:sans-serif;letter-spacing:0px;word-spacing:0px;fill:#023d53;fill-opacity:1;stroke:none;stroke-width:0.46880504"
     x="-0.18752201"
     y="14.251673"
     id="text837-3"><tspan
       sodipodi:role="line"
       x="-0.18752201"
       y="14.251673"
       id="tspan841-3"
       style="stroke-width:0.46880504">This is the domain </tspan><tspan
       sodipodi:role="line"
       x="-0.18752201"
       y="37.691925"
       id="tspan883"
       style="stroke-width:0.46880504">that your software </tspan><tspan
       sodipodi:role="line"
       x="-0.18752201"
       y="61.132179"
       id="tspan885"
       style="stroke-width:0.46880504">covers</tspan><tspan
       sodipodi:role="line"
       x="-0.18752201"
       y="84.572426"
       id="tspan881"
       style="stroke-width:0.46880504" /></text>
</svg>
