<svg xmlns="http://www.w3.org/2000/svg" viewBox="0 0 1149.37 523.88"><defs><style>.cls-1{fill:#023d53;}.cls-2{fill:#032c3b;}.cls-3{fill:#e4e4e4;}.cls-4{fill:#7f7f7f;}.cls-5{fill:#ccc;}.cls-6{fill:#aaa9a9;}</style></defs><title>slide_7_8</title><g id="Layer_2" data-name="Layer 2"><g id="Layer_1-2" data-name="Layer 1"><path class="cls-1" d="M664.88,365.59c11.21-14.18,30.64-22.54,48-17.55,6,1.74,11.54,4.91,17,8.06l27.69,16c8.3,4.81,16.77,9.75,23,17.05a42.34,42.34,0,0,1-26.62,69.43c-13.89,1.85-27.73-3.23-41.73-3.75-10.23-.38-20.53,1.67-30.65.19C638.71,448.81,644,392,664.88,365.59Z"/><path class="cls-2" d="M796.74,410.82c.06,6.21-.43,10.69-2.32,14.68-9.51,20.12-24.11,34.14-47,37.51-12.57,1.85-24-2.91-35-7.91-3.55-1.61-6.42-2.16-10.08-1.29-13.57,3.25-26.57,1.93-39.56-3.67-14.5-6.26-21-22.59-20.15-34.23,1.46-21.29,6.6-41.37,21.88-57.5,12.41-13.11,26.89-19.86,45.25-14.89C719,346,727.26,350.36,735.38,355c15.06,8.66,30.37,16.86,45.43,25.52,8.71,5,13.84,11.41,14.76,21.33C795.9,405.45,796.49,409,796.74,410.82Zm-71.57,37.69,0,1.85a49.06,49.06,0,0,0,29.46.9c11.45-3.06,19.4-11.15,25.5-21.05,5.32-8.63,6.24-17.64,4.17-27.74-1.21-5.92-3.66-9.3-8.51-12-8.16-4.58-16.07-9.62-24.27-14.11-12.81-7-25.64-14-38.73-20.49-8.3-4.09-19.55-5.87-27.92-1-11.33,6.65-20.52,17.4-26,29-4.85,10.27-6,18.81-7,30-.63,6.94,5.21,17.1,10.68,21.84,8.19,7.09,18.68,8.86,28.7,8.19,16.65-1.11,33.12-4.47,49.33-8.69a22.65,22.65,0,0,1,7.34-.76c1.76.13,3.31.85,3.79,2.64s-1,3-2.19,4.11-3,1.14-4.61,1.58C738.29,444.61,731.74,446.59,725.17,448.51Z"/><path class="cls-2" d="M579.57,255.54c-2.22,6.16-3.76,12-5.31,17.92a59.26,59.26,0,0,1-2,6.1,2.77,2.77,0,0,1-3.18,2.05c-1.66-.29-2.13-1.58-2.3-3a29.41,29.41,0,0,1,.4-8.22A169.81,169.81,0,0,1,574.5,241c3-8.38,4.54-11,14.48-7.83,4.54,1.44,9.27,1.89,13.95,2.65a29.74,29.74,0,0,1,6.62,1.79c4.17,1.75,6,4,5.52,6.91s-3,4.51-7.39,5c-3.39.35-6.7-.48-10-.71-1.54-.11-3.54-1.62-4.56.15-.92,1.56.86,3.07,1.65,4.47a171.05,171.05,0,0,0,14,20.94c11.23,14.36,23.29,27.95,37,40,3.22,2.81,6.26,5.83,9.31,8.84,1.5,1.48,2.4,3.33,1,5.35s-3.31,2-5.32,1.18a56.17,56.17,0,0,1-5.39-2.52,88.37,88.37,0,0,1-16.65-12.11,246.32,246.32,0,0,1-46.1-55.58C581.91,258.24,581.43,256.73,579.57,255.54Z"/><path class="cls-3" d="M277.9,229.51c-2.87,7.3-4,15-4.71,22.72a3.77,3.77,0,0,1-.6,1.18c-.94-9.21-1.2-18.39,1.11-27.47,1.27,2,0,4.38.83,6.62,1.2-.83,1-2.27,1.77-3.12Z"/><path class="cls-3" d="M842.83,47.88l1.59-1.14Q843.64,47.33,842.83,47.88Z"/><path class="cls-3" d="M857.39,21.93c0,.13-.07.25-.1.38C857.29,22.05,857.32,21.89,857.39,21.93Z"/><path class="cls-3" d="M857.68,29.56c-.2.53-.41,1.05-.63,1.57a15,15,0,0,0,.55-2.81,12.61,12.61,0,0,0,0-1.94A4.82,4.82,0,0,1,857.68,29.56Z"/><path class="cls-3" d="M489.51,272.26c-5.79,9.1-13.59,16.55-23.86,20.64a174.43,174.43,0,0,1-42.38,10.8,67.31,67.31,0,0,1-16.88-.35c-7.25-.89-14.53-1.47-21.67-3.1-4-.91-8-1.78-11.32-4.5a6.36,6.36,0,0,1-3.39-1.23,174.72,174.72,0,0,1-16.2-13.42c-2.23-2-2.11-2.28.44-4,2.78-1.88,5.6-3.7,8.39-5.57A53.3,53.3,0,0,0,380.47,251c2.49-4.89,4.71-9.92,6.83-15,.9-2.17,1.85-2.93,4.37-2.56,19.41,2.79,38.32.88,56.58-6.48,1-.4,2-.77,3-1.24a2.25,2.25,0,0,1,3.15.89,9.66,9.66,0,0,1,1.54,2.78,13.13,13.13,0,0,0,6.61,8.33c2.76,0,4.95,1.48,7.06,3,5.34,3.79,10.62,7.66,15.91,11.53a15.45,15.45,0,0,1,1.67,1.57C493.73,260.41,493.89,265.38,489.51,272.26Z"/><path class="cls-3" d="M366,174.61c-.17-1,.55-1.38,1.12-1.82,17.61-13.12,37-21.92,59.06-24.23a134.58,134.58,0,0,1,16.91-.94c7.5.15,14.47,1.91,20.52,6.56,8.82,4.33,12.22,11.08,10.73,21.88a68.62,68.62,0,0,1-10.95,29.68c-2.51,3.68-5.88,6.57-9.17,9.5a3.89,3.89,0,0,1-5,.48c-3.44-1.89-6.81-1.14-10.36-2.84-5-.22-11-2.52-16-3-8.35-.8-15.64-1.45-23.73.38-1.49.33-3,.75-4.46,1-3.22.62-3.3.6-3.87-2.66-2.49-14.15-10.48-24.48-22.28-32.18C367.63,175.88,366.5,175.65,366,174.61Z"/><path class="cls-3" d="M431.84,213.88a48.5,48.5,0,0,1,13.55,5.91,7.11,7.11,0,0,1-4,2.28c-7.5,2.43-15.05,4.49-23,4.93-4.67.25-10.86,3.72-15.56,2.88-2.55,2.5,2,.06,2,0-.12.1-6.07,0-6,0-3.81.1-2.07-2.22-5.87-2.9-1.74-.31-2.28-.9-1.94-2.71,1.42-7.75,1.39-7.68,9.13-9.52A79,79,0,0,1,431.84,213.88Z"/><path class="cls-3" d="M346.84,255.88c-1.87,6.07-3.64,10.34-2,16.62.57,2.22-.15,3.63-2.31,4.77a62.24,62.24,0,0,1-32.64,7.25c-5.63-.28-11.08-2-16.36-4a3.26,3.26,0,0,1-2.05-1.71c-6-1.41-8.61-6.41-10.4-11.3-5.29-14.43-3.91-28.48,4.17-41.69,5.1-8.32,12.2-14.79,19.69-20.88,2.61-2.11,5.25-4.18,7.83-6.33a11.11,11.11,0,0,0,3.52-3.83,4.6,4.6,0,0,0-4,1c-12.52,8-24.71,16.38-32.26,29.77-.75,1.33-1.4,2.7-2.1,4.06l-1.6-.07c.77-3.26,1.56-6.51,2.28-9.78.51-2.31,2.4-3.79,3.42-5.82a49.44,49.44,0,0,1,10.76-14.15,122.23,122.23,0,0,1,19.47-15.2c12.28-7.44,25.55-9.62,39.64-7,.1,0,.16.22.49.68-2.52,7.7-3.44,13.1-2,20,1.95,9.3,5.44,17.81,12.81,24.28,1.5,1.32,5.38,3.89,3.66,5.37a74.86,74.86,0,0,0-18,23C349.22,252.18,347.19,254.74,346.84,255.88Z"/><path class="cls-3" d="M357,268.48c-1.84,1.07-3.53,2.39-5.37,3.47-1.09.65-2.26,2.16-3.58,1a5.62,5.62,0,0,1-2-5.4A59.9,59.9,0,0,1,350.66,252a86.75,86.75,0,0,1,11.06-18.32c1.83-2.33,4.71-3.25,6.61-5.52.82-1,2.57-.63,3.92-.12,2.7,1,5.37,2.15,8.13,3,2.05.63,2.87,1.7,2,3.68C376.32,247.8,370.2,260.8,357,268.48Z"/><path class="cls-3" d="M350.84,187.88c-.39-3,.87-7.37,4-8,1.1-2.29,4.73-.92,6.81.13a43.38,43.38,0,0,1,18.23,16.7,47.13,47.13,0,0,1,6,14.23c.47,2.2-.23,3.09-2,3.76-3.57,1.3-7.18,2.51-10.32,4.73a3,3,0,0,1-3.79,0c-1.55-1.18-3.55-1.78-4.66-3.54C357.55,207.75,352.2,198.63,350.84,187.88Z"/><path class="cls-3" d="M388,220.72a17.3,17.3,0,0,1-1.51,3.8c-.45,1-1.23,1.2-2.26.8-2.11-.81-4.44-1-6.69-2.58,2.78-2,5.67-2.67,8.3-3.83C387.4,218.22,388.26,219.22,388,220.72Z"/><path class="cls-3" d="M802.32,141.38c5.79,14,3.81,27.07-5,39.35-4.89,6.84-9.63,13.76-15.88,19.47-1.07,1-1.8,2.52-3.58,2.59-1.22-1.31.05-2.3.49-3.26,3.81-8.43,4.54-17.33,4.23-26.41a4.69,4.69,0,0,0-.38-1.77c-.24-.51-.6-1.12-1.38-.91a1.13,1.13,0,0,0-.81,1c-.63,3.44-1.21,6.89-1.93,10.31-2.3,11-6.3,21.05-15.11,28.59-7,6-15.21,9.54-24,11.91a162.83,162.83,0,0,1-43.37,5.63c-11.15-.07-22.31.24-33.4-1.1-6.18-.74-12.46-1-18.5-2.74-3.48-1-7.07-1.87-9.72-4.65-6-2-9.61-6.77-13.37-11.38-1.25-1.52-.29-2.52,1-3.34a49.92,49.92,0,0,0,8.26-7.23C640.13,187,645,174.1,645.61,159.8c.43-10.23-4.74-18.05-13.2-23.76-1.69-1.15-4.63-1.41-4.74-3.75-.09-1.91,2.34-3,3.64-4.47,6.34-7.15,12.19-14.57,14.06-24.29a5.3,5.3,0,0,1,2.91-3.81c15.51-8.85,32.07-15,49.28-19.57,3.34-.88,3.52-.67,3.7,3a22,22,0,0,0,.68,5c.22.74.47,1.57,1.41,1.49s1-1,1.18-1.73c.1-.45.16-.91.23-1.36l1.87-.23c7,8.44,16.37,12.38,27,13.75,5.45.7,10.84,1.76,16.28,2.47s10.89,1.34,16.41.56a59.06,59.06,0,0,1,6.39-.24c4.82,1.73,8,5.59,11.14,9.22A107,107,0,0,1,802.32,141.38Z"/><path class="cls-3" d="M613.67,124.43c-.8,1.51-1.55,2.62-3.48,1.58s-4.5-.58-6.45-1.91c-7.63-.34-15.26-.48-22.89-.08-1.49.08-3.81,2.17-5,.86-.56-.61-6.23-1.06-7-1-8.53.64-11.48-2.11-20-.88a144.23,144.23,0,0,0-30.6,7.66c-4.2,1.59-4.83,1.49-5.42-2.94-1.51-11.4-2.18-22.8,1.79-34a45.49,45.49,0,0,1,9.31-15.12,14,14,0,0,1,7.38-4.34c5.35-1.28,10.66-2.75,16-4,8.82-2,17.16-5.51,26-7.55,11.15-2.57,22.32-3.5,33.63-1.31a36.33,36.33,0,0,1,19.29,9.88c4.42,4.41,9.49,8.26,12,14.25a17.14,17.14,0,0,1,.54,1.72c1.24,1.5,1.27,3.42,1.52,5.15.51,3.43,0,6-3.79,8.19A60.29,60.29,0,0,0,613.67,124.43Z"/><path class="cls-3" d="M612.6,202.25c.47,1.27-.36,2-1.37,2.53A77.79,77.79,0,0,1,586,214a84.74,84.74,0,0,1-20,.86c-8-.59-16-1.06-23.71-4.1a57.46,57.46,0,0,1,8.57-1.11c9.67-.83,18.77-3.79,27.86-6.79,6.51-2.15,12.95-4.51,19.42-6.78a14,14,0,0,0,2.55-1c.87-.52,2.08-1.12,1.63-2.39-.35-1-1.58-.57-2.42-.76l-.89-.2c-6.15,2.34-12.49,4-18.79,5.89-10.33,3-20.71,5.64-31.49,6.67-10.09,1-19.77-.9-29.49-3-9.25-2-16.83-7-23.79-13.12-5.94-5.2-7.59-11.76-6.49-19.46,1.86-13,8.81-22.15,20.21-28.26,2-1.08,7.76-3.79,10.74-5a128.88,128.88,0,0,1,30.46-7.85c5.92-.87,11.86-.72,17.79-1a7.08,7.08,0,0,1,2.73.17c7.06,2.75,22.68-10.93,30-11,5,.56,12.2,12.38,17,14,1.32.45-8.3,16.93-4,16,.95,1.62-5.77,25.86-4,37.07a5.83,5.83,0,0,1-.12,1.36C611.53,190.14,610.46,196.45,612.6,202.25Z"/><path class="cls-3" d="M703.65,81.36c-1.65-1.54-.87-3.59,1.77-4.22a50.12,50.12,0,0,1,11.37-1.73,141.78,141.78,0,0,1,18.55-.19c3.62.24,7.39.56,9.78,4a2.84,2.84,0,0,1,2.26.91c6.65,6.32,12.44,13.59,21.46,18.25a9.25,9.25,0,0,1-6.22,1c-8.17-.85-16.33-1.81-24.43-3.25-4.63-.82-9.29-1.45-13.84-2.68C716.34,91.31,709.65,86.92,703.65,81.36Z"/><path class="cls-3" d="M637.73,171.89c1.63-5.72,2.81-11.5,1.27-17.47-1.73-8.93-8.38-13.42-15.67-17.32A2.14,2.14,0,0,0,622,137c-2.26.42-6.46,4.93-6.7,7.31a180.23,180.23,0,0,0-.49,34.76l.1,0c-.06,0-.1.05-.1,0-.32,6.1,1.29,12.1.91,18.21a4.15,4.15,0,0,0,.18,1.35c.61,2.43,1.33,2.67,3.39,1.27C629.3,193.09,634.53,183.15,637.73,171.89Zm.63-17.48a3.47,3.47,0,0,0-2.47,1.69A2.77,2.77,0,0,1,638.36,154.41Zm-5.05,7.2c.81-1.35,1.42-3.77,2.53-5.43-.31.6-.54,1.28-.79,1.91-1,2.56-2,5.12-4,7.1l-1.29,1.28A32,32,0,0,0,633.31,161.61ZM614.93,179c.76-.4,4.84-3.33,5.27-3.71.62-.57,1.26-1.11,1.91-1.65C619.87,175.63,618,178.08,614.93,179Zm7.84-5.92c1.06-.87,2.12-1.75,3.13-2.69a30.53,30.53,0,0,1-2.79,2.43Z"/><path class="cls-3" d="M636.67,107.4l.26.26a7.76,7.76,0,0,1-1.24,4.3c-3.34,5.69-7.78,10.52-12,15.49a13.2,13.2,0,0,1-1.32,1.27c-1,.88-2.21,1.24-3.31.33s-.21-1.93.15-2.9a22,22,0,0,1,4-6.08C627.17,115.32,630.81,110.17,636.67,107.4Z"/><path class="cls-3" d="M863.88,36.8c-.93,8.73-5.59,15.89-10.69,22.85-6,8.2-14.14,13.7-22.59,18.92-15.67,9.69-33,14.56-51,17.83a7.48,7.48,0,0,1-5.31-.72c-7-4.1-12.18-5.58-17.5-11.8-.28-.33-3.82-1.58-4-2-1-.38.1-2.89-.73-3.78-4.76-5.11-10.82-7.13-17.7-7.28a166.39,166.39,0,0,0-24.24,1.41c-2.77.34-3,.15-2.41-2.55Q710,59.6,712.31,49.56a26.63,26.63,0,0,1,4-8.69c9-13.48,21.47-22.38,36.63-27.74,22.77-8,46.15-9,69.64-4.72a102.36,102.36,0,0,1,31,11,12.37,12.37,0,0,1,3.79,2.52c-.07,0-.1.12-.1.38a6.08,6.08,0,0,0,.2,3.65c0,.14.1.28.14.42a12.61,12.61,0,0,1,0,1.94,15,15,0,0,1-.55,2.81,42.48,42.48,0,0,1-3.3,6.57,26.47,26.47,0,0,0,1.78-2.86,18.43,18.43,0,0,0,1.52-3.71c.22-.52.43-1,.63-1.57a4.82,4.82,0,0,0,0-3.18c0-.57-.1-1.14-.18-1.72a21.14,21.14,0,0,1-.16-2.35c0-.13.06-.25.1-.38C863.36,25.22,864.51,30.86,863.88,36.8Z"/><path class="cls-3" d="M842.83,47.88l1.59-1.14Q843.64,47.33,842.83,47.88Z"/><path class="cls-3" d="M857.39,21.93c0,.13-.07.25-.1.38C857.29,22.05,857.32,21.89,857.39,21.93Z"/><path class="cls-3" d="M857.68,29.56c-.2.53-.41,1.05-.63,1.57a15,15,0,0,0,.55-2.81,12.61,12.61,0,0,0,0-1.94A4.82,4.82,0,0,1,857.68,29.56Z"/><path class="cls-3" d="M620.2,175.29c.62-.57,1.26-1.11,1.91-1.65-2.24,2-4.15,4.44-7.18,5.36C615.69,178.6,619.77,175.67,620.2,175.29Z"/><path class="cls-3" d="M622.77,173.08c1.06-.87,2.12-1.75,3.13-2.69a30.53,30.53,0,0,1-2.79,2.43Z"/><path class="cls-3" d="M633.31,161.61c.81-1.35,1.42-3.77,2.53-5.43-.31.6-.54,1.28-.79,1.91-1,2.56-2,5.12-4,7.1l-1.29,1.28A32,32,0,0,0,633.31,161.61Z"/><path class="cls-3" d="M511.59,206c-9.45,10.84-34.48,19-48,11.07,3-2.91,5.07-6.42,7.66-9.56a94.07,94.07,0,0,0,10-28c.19-1,.32-2.09.47-3.14l1-.07c.76,8.47,5.7,14.35,12,19.42,1.23,1,3.08,1.48,3.14,3.54a2.46,2.46,0,0,1,2.17.39C503.61,202.16,507.67,203.93,511.59,206Z"/><path class="cls-3" d="M466.65,147.81a49.82,49.82,0,0,1,26.06-1.36c-5.75,7-8.31,14.87-9.55,23.23l-1.39.17C481.11,160,475.38,153.39,466.65,147.81Z"/><path class="cls-3" d="M620.2,175.29c.62-.57,1.26-1.11,1.91-1.65-2.24,2-4.15,4.44-7.18,5.36C615.69,178.6,619.77,175.67,620.2,175.29Z"/><path class="cls-3" d="M622.77,173.08c1.06-.87,2.12-1.75,3.13-2.69a30.53,30.53,0,0,1-2.79,2.43Z"/><path class="cls-3" d="M633.31,161.61c.81-1.35,1.42-3.77,2.53-5.43-.31.6-.54,1.28-.79,1.91-1,2.56-2,5.12-4,7.1l-1.29,1.28A32,32,0,0,0,633.31,161.61Z"/><path class="cls-3" d="M404.49,227.19a.69.69,0,0,0-.1.19C404.32,227.37,404.37,227.29,404.49,227.19Z"/><path class="cls-3" d="M404.49,227.19a.69.69,0,0,0-.1.19C404.32,227.37,404.37,227.29,404.49,227.19Z"/><path class="cls-3" d="M483.16,169.68c-.16,2.2-.33,4.4-.49,6.6l-1,.07q0-3.24.07-6.5Z"/><path class="cls-3" d="M706.63,86.26l-1.87.23c-.09-.61,0-1.32.55-1.5C706.28,84.7,706.47,85.54,706.63,86.26Z"/><path class="cls-3" d="M1135.42,346.57a19.15,19.15,0,0,1-7,6.47,54.33,54.33,0,0,1-27.27,8c-11.6.19-22.41-1.95-32.49-7.67a107,107,0,0,1-13-9.21c-3.7-2.92-7-6.3-10.56-9.44-4.33-3.86-6.7-9-9.19-14.06a21.81,21.81,0,0,1-1.17-4.39c-3.07-5.13-2.37-10.73-1.34-16.07,1.59-8.25,3.52-16.38,3.66-24.87.08-4.85,2.91-8.72,7.06-11.21a62.1,62.1,0,0,1,20.26-8.25,29.42,29.42,0,0,1,15.36,1.2,55.55,55.55,0,0,1,21.73,13.24,128,128,0,0,1,11.94,13.4,21.83,21.83,0,0,1-7.57-.24,79.57,79.57,0,0,0-16.47-.26c-1.5.09-4-.16-4.11,1.8,0,1.7,2.39,1.46,3.82,1.67,5.88.88,11.79,1.61,17.68,2.45,8.55,1.23,16.22,4.18,21.75,11.26,3.51,2.22,5.22,5.9,7,9.29C1142.14,321.92,1142.8,334.28,1135.42,346.57Z"/><path class="cls-3" d="M478.82,493.53c-.51,9.85-4.68,17.94-14.26,22.27a29.74,29.74,0,0,1-7.49,2,49.11,49.11,0,0,1-22.49-1.88c-9.94-3-19.91-6-28.37-12.38a43.43,43.43,0,0,1-9.65-10.75c-10.3-9.32-14.18-21.41-14.95-34.81a40.06,40.06,0,0,1,.93-12.29c2-7.74,7.52-12.21,15.48-12.45a32.92,32.92,0,0,1,19.48,5.68,92.52,92.52,0,0,1,38.32,50.38,23.6,23.6,0,0,1,.6,3.59c2.72,0,3.51-1.6,3.06-3.9a66.85,66.85,0,0,0-2.1-8.42,115.14,115.14,0,0,0-8.37-19.8,25.15,25.15,0,0,0-3.67-4.65c-.5-.54-1.21-1.08-.75-2s1.29-.69,2-.69a24,24,0,0,1,16.78,6.31C473.08,468.78,479.55,479.78,478.82,493.53Z"/><path class="cls-3" d="M131.07,141.17a28,28,0,0,1-11.45,10.25,83.51,83.51,0,0,1-17.15,6.28c-3.24.84-6.55,1.53-9.68,2.67-5.23,1.9-10.7,2.31-16.11,3.08a162.06,162.06,0,0,1-22.36,1.13,69.67,69.67,0,0,1-29.31-6A46.66,46.66,0,0,1,15.65,153a4.72,4.72,0,0,1-2.2-3.82c-3-1.22-4.26-4.14-5.11-6.74-2.4-7.28-3.81-14.81-2.14-22.51a27,27,0,0,1,9.29-14.95,17.94,17.94,0,0,1,14.92-4.34,55.13,55.13,0,0,1,10.23,2.49c1.38.5,3,.83,2.74,3-.13,1.34,1.14,1.39,1.95,1,2.66-1.18,4.63.13,6.78,1.42C57.48,111.77,62.85,115,68,118.63c1,.73,2,2,3.62,1.31.53-1.38-.59-2-1.27-2.68a57.07,57.07,0,0,0-12.12-9.72c-.9-.53-1.55-.94-1.26-2s1.2-.84,1.9-.85c9.93-.18,19.87-1.91,29.78-.89,11.6,1.19,22.94,3.71,33,10.15,1.41.91,3,1.57,3.49,3.42C132.47,121.92,135.53,134,131.07,141.17Z"/><path class="cls-3" d="M1074.42,105.77a21.77,21.77,0,0,1-7.43,12.34c-7.61,6.71-17,9.34-26.59,11.44-7.5,1.65-15.17,1.07-23.11,1,.88-1.46,2.23-1.29,3.21-1.53a133.56,133.56,0,0,0,20.68-7.29c1.52-.65,3-1.36,3.68-3-.66-1.44-1.57-.9-2.4-.63-3.92,1.26-7.77,2.72-11.79,3.64a7.76,7.76,0,0,1-4.05.26A66.66,66.66,0,0,1,998,126a99.28,99.28,0,0,1-34.84-8.94,41.18,41.18,0,0,1-8.34-5.58c-3.09-2.49-3.69-6.13-5.18-9.38-.1-.89-.79-1.4-1.31-2C959.77,87.26,972,75.45,988.14,68.48a62.92,62.92,0,0,1,17.19-4.63c11.43-1.42,22.85-1.35,34.14,1.28a21.62,21.62,0,0,1,9.11,4.09,58.14,58.14,0,0,1,20.05,15.55C1073.54,90.76,1075.83,98,1074.42,105.77Z"/><path class="cls-3" d="M316.19,34.59c-.06.12-.11.25-.17.37a25.5,25.5,0,0,0,.92-3.09c.34-1.49.25-3.38.54-5.06a10.14,10.14,0,0,0,0,1.56A13.37,13.37,0,0,1,316.19,34.59Z"/><path class="cls-3" d="M319,23.75a6.78,6.78,0,0,0-2.72-3c-11.36-8-23.64-13.25-37.88-12.59-2.59.13-5.19.08-7.77.25-7.94.53-24.3,2.12-34.75,8.46-11.72,7.11-18,16-16,22A23.82,23.82,0,0,1,221,41.51c1.76,7.93,4.68,15.09,12.59,18.92a5.07,5.07,0,0,0,2.16,2.26c8.86,6.35,18.82,7.33,29.23,6,5.26-.69,10.49-1.69,15.76-2.31,13.72-1.62,27-4.41,38.45-12.85,2.23-1.64,4.45-3.24,5.58-5.87C328.57,38.79,326,29.78,319,23.75Zm-2.77,10.84c-.06.12-.11.25-.17.37a25.5,25.5,0,0,0,.92-3.09c.34-1.49.25-3.38.54-5.06a10.14,10.14,0,0,0,0,1.56A13.37,13.37,0,0,1,316.19,34.59Z"/><path class="cls-3" d="M316.19,34.59c-.06.12-.11.25-.17.37a25.5,25.5,0,0,0,.92-3.09c.34-1.49.25-3.38.54-5.06a10.14,10.14,0,0,0,0,1.56A13.37,13.37,0,0,1,316.19,34.59Z"/><path class="cls-3" d="M168.3,235.09a30.7,30.7,0,0,1-8.53,8.77c-10.27,7-21.11,12.8-33.3,15.56-8.44,1.91-17,3.56-25.69,1.24-7.65,1.07-14.14-1.82-20.2-6-4-2.75-4.89-5.86-3-10.32a20.73,20.73,0,0,1,7.67-9.46c5-3.2,9.93-6.49,15.15-9.36,10.25-5.62,21.42-6.65,32.74-6.9,3.58-.08,7.32-.89,10.77.93,7.84-.53,15.08,1.57,21.85,5.3C170.44,227.39,171.18,230.66,168.3,235.09Z"/><path class="cls-4" d="M514.94,209.62c.16-1-1.16-3,1.54-2.46C516,208,515.87,209.06,514.94,209.62Z"/><path class="cls-4" d="M636.67,107.41l.58-.33c-.11.19-.22.39-.32.59Z"/><path class="cls-5" d="M278.9,230.51c-2.87,7.31-4,15-4.71,22.72a3.66,3.66,0,0,1-.6,1.18c-.94-9.21-1.2-18.39,1.11-27.47,1.27,2,0,4.38.83,6.62,1.2-.82,1-2.26,1.77-3.11Z"/><path class="cls-5" d="M632,220.26c1.78-1.56,3.84-.81,5.74-.52a117.7,117.7,0,0,0,16.09,1.42,123.85,123.85,0,0,0,29.29-3.52c15.73-3.58,31-8.38,45.2-16.15a123.62,123.62,0,0,0,27.31-19.76c6.73-6.58,13.64-13,19.09-20.8a36.41,36.41,0,0,0,6.31-27.6c-1.57-10.12-4.67-19.79-8.2-29.35a9.68,9.68,0,0,1-.32-1.8c4.89,1.74,8.09,5.66,11.29,9.34a108.25,108.25,0,0,1,18.68,29.74c5.86,14.15,3.86,27.42-5,39.86-5,6.93-9.75,13.94-16.08,19.72-1.09,1-1.83,2.56-3.63,2.63-1.23-1.33.05-2.33.49-3.31,3.87-8.53,4.61-17.55,4.3-26.75a4.75,4.75,0,0,0-.39-1.79c-.25-.52-.61-1.14-1.4-.92a1.13,1.13,0,0,0-.82,1c-.64,3.48-1.23,7-2,10.45-2.32,11.11-6.38,21.32-15.3,29-7.09,6.06-15.41,9.67-24.31,12.07a164.88,164.88,0,0,1-43.93,5.7c-11.29-.06-22.6.24-33.83-1.11-6.27-.75-12.63-1-18.74-2.78C638.35,224,634.71,223.08,632,220.26Z"/><path class="cls-5" d="M373,296.44a2.06,2.06,0,0,1,1.94-1c8.63.05,17.14-1.56,25.74-2.06,9.41-.54,18.46-3.32,27.28-6.56,10-3.67,19.74-7.85,28.29-14.42,5.05-3.87,9.73-7.9,12.75-13.71,3.28-6.33,2.17-12.58-2.92-16.58-1.36-1.07-3.24-2.06-2.91-4.37,2.78,0,5,1.5,7.13,3,5.41,3.84,10.76,7.77,16.11,11.68a15.73,15.73,0,0,1,1.69,1.58c6.66,6.67,6.81,11.7,2.39,18.66-5.86,9.21-13.75,16.76-24.15,20.9a176.54,176.54,0,0,1-42.89,10.92,68.44,68.44,0,0,1-17.08-.35c-7.33-.9-14.7-1.5-21.92-3.14C380.4,300.08,376.31,299.2,373,296.44Z"/><path class="cls-5" d="M752.84,80.75c6.81-1.79,13.89-1.76,20.77-3.17A196.85,196.85,0,0,0,827.32,58.7,168.8,168.8,0,0,0,843.25,49c5.23-3.61,10-7.46,13-13.1a17.31,17.31,0,0,0,2.13-6.54,14.18,14.18,0,0,0-.15-3.68c0-.24-.34-2.89-.06-2.74,6.13,3.3,7.32,9,6.67,14.93-1,8.77-5.75,16-11,22.94-6.18,8.24-14.55,13.76-23.23,19-16.1,9.73-33.95,14.62-52.36,17.9a7.78,7.78,0,0,1-5.46-.73c-7.2-4.11-14-8.73-19.44-15A4.86,4.86,0,0,1,752.84,80.75Z"/><path class="cls-5" d="M438.59,211.27c.86-2.56,3.09-3.91,4.73-5.76a89.77,89.77,0,0,0,14.17-20.61,48.37,48.37,0,0,0,5.23-23.15c-.12-3.27-1-6.76,1-9.87,8.87,4.57,12.29,11.67,10.79,23.05-1.48,11.19-4.87,21.8-11,31.25-2.52,3.87-5.92,6.91-9.22,10a3.81,3.81,0,0,1-5,.5C445.8,214.7,442.16,213.06,438.59,211.27Z"/><path class="cls-5" d="M346,267.8a62.53,62.53,0,0,1,4.79-16,89.94,89.94,0,0,1,11.4-18.89c1.9-2.4,4.87-3.35,6.82-5.68.85-1,2.65-.66,4-.13,2.79,1.06,5.54,2.22,8.39,3.09,2.11.65,2.95,1.76,2,3.79-6.2,13.48-12.51,26.88-26.13,34.8-1.89,1.1-3.64,2.46-5.53,3.58-1.13.66-2.34,2.22-3.7,1A5.79,5.79,0,0,1,346,267.8Z"/><path class="cls-5" d="M532.84,147.88a5.4,5.4,0,0,1,3-1.32,219.41,219.41,0,0,0,54.72-15.51,3.8,3.8,0,0,0,2.27-3.17A75.45,75.45,0,0,1,608.25,131c1.39.45,3.93.41,3.4,2.48s.59,5.2-2.72,6.48c-5.24,2-10.44,4-16.21,3.85a17.54,17.54,0,0,0-1.92,0c-1.06.09-1.95-.53-2,1.08,0,1.37,2,.6,3,1,1.61.65,4.55-.38,6,1-2.31,1.56-8,5-11,6-.08-1.5.77-1.71-.44-1.65-5.25.26-10.5.14-15.77.59a97.56,97.56,0,0,1-22-.28c-3.61-.51-7.34-.38-10.89-1.34C536,149.73,533.78,150,532.84,147.88Z"/><path class="cls-5" d="M292.44,279.77a5,5,0,0,1,1.74-.45c5.8.74,10.43-1.63,15.26-4.62,11.91-7.38,24.26-14,35.57-22.36a4.94,4.94,0,0,1,2.57-.84c.38,1.3-.38,2.39-.73,3.53-1.86,6.08-2.65,12.2-1.06,18.47.57,2.22-.15,3.63-2.3,4.77a62.31,62.31,0,0,1-32.65,7.26c-5.63-.29-11.08-2-16.36-4A3.28,3.28,0,0,1,292.44,279.77Z"/><path class="cls-5" d="M599,192.72c2.87-3.46,8.87-7,12.85-8.84,1.86,5.84.86,12.21,3,18,.47,1.27-2.6,3.34-3.61,3.91A77.45,77.45,0,0,1,586,215a84.74,84.74,0,0,1-20,.86c-8-.59-20.46-2.91-28.14-6,2.83-.67,62.88-16.77,62-16.95Z"/><path class="cls-5" d="M745.77,79.76a2.73,2.73,0,0,1,2.19.92c6.43,6.41,12,13.79,20.74,18.53a8.52,8.52,0,0,1-6,1c-7.9-.87-15.8-1.83-23.63-3.3-4.47-.83-9-1.47-13.37-2.71-7.74-2.19-14.21-6.64-20-12.28-1.61-1.57-.86-3.65,1.7-4.29a46.08,46.08,0,0,1,11-1.76c.05,1.3.83,1.66,1.92,1.76C728.79,78.43,737.22,79.83,745.77,79.76Z"/><path class="cls-5" d="M498.61,199a2.82,2.82,0,0,1,2.4.42c4,2.68,8.51,4.55,12.83,6.78-10.43,11.48-38.09,20.09-53,11.73,3.27-3.09,5.61-6.8,8.46-10.14A80.74,80.74,0,0,0,498.61,199Z"/><path class="cls-5" d="M613.84,180.88c0,.2,6.89-4.16,7.36-4.59,1.9-1.73,4-3.27,5.85-5a40.11,40.11,0,0,0,7.26-8.65c1.35-2.27,2.16-7.55,5.69-7.18,1.54,6,.36,11.75-1.27,17.47-3.2,11.25-8.43,21.19-18.44,28-2.06,1.39-3.84,4.43-4.45,2-.11-.44-2-3.55-2-4C614.22,192.78,613.52,187,613.84,180.88Z"/><path class="cls-5" d="M356.84,180.51c1.18-2.44,3-2.57,5.18-1.45a46.31,46.31,0,0,1,19.45,17.82,50.43,50.43,0,0,1,6.39,15.18c.5,2.35-.24,3.31-2.18,4-3.8,1.39-7.65,2.68-11,5a3.16,3.16,0,0,1-4,0c-1.59-1.2-3.87-1.79-4.82-3.69a5.3,5.3,0,0,0,1.91-4.42c.17-8.18-.87-16.34-1.12-24.52a11.1,11.1,0,0,0-.32-2.82c-.56-1.89-2.42-3-4.14-3.73C361.69,181.8,357,180.18,356.84,180.51Z"/><path class="cls-5" d="M604.74,125.1c.49-1.46,2-1.83,3-2.62a143.33,143.33,0,0,0,28.56-28.39c1.39-1.83,1.81-4.12,3.41-5.75,1.24,1.49,1.27,3.41,1.53,5.14.5,3.44-.06,6-3.8,8.2a60.23,60.23,0,0,0-22.79,23.76c-.8,1.5-1.55,2.61-3.47,1.58S606.69,126.44,604.74,125.1Z"/><path class="cls-5" d="M401.12,228.57c5.19-2.71,11.12-3.63,16.77-5.23s11.66-4.32,14.81-9.42a57.18,57.18,0,0,1,15.66,6.34c.55.33-4.05,2.29-4.22,2.35-2,.65-4,1.26-6,1.81a124,124,0,0,1-37.32,4.32Z"/><path class="cls-5" d="M639.84,105.2a9,9,0,0,1-1.62,5.24c-4.35,6.92-10.13,12.8-15.67,18.85a15.83,15.83,0,0,1-1.71,1.55c-1.33,1.07-2.87,1.51-4.31.39s-.28-2.35.19-3.52c1.14-2.84,3.23-5.15,5.24-7.4,5.16-5.79,9.9-12.06,17.53-15.43Z"/><path class="cls-5" d="M374.84,222.77c3.76-2.76,7.65-3.61,11.21-5.17,2.13-.94,3.29.42,2.91,2.44a23.32,23.32,0,0,1-2,5.13c-.62,1.39-1.67,1.62-3.05,1.09C381,225.16,377.87,224.83,374.84,222.77Z"/><path class="cls-5" d="M482.77,170.86l1.39-.17-.48,6.59-1,.08Z"/><path class="cls-5" d="M637.67,108.41l.58-.33c-.11.19-.22.39-.32.59Z"/><path class="cls-5" d="M1035.71,317.25c3,.89,5.16,3.19,7.21,5.28a72.7,72.7,0,0,0,26.73,17.11,85.87,85.87,0,0,0,35.36,5.6,20.05,20.05,0,0,0,5.36-1.05,54.55,54.55,0,0,0,19.56-11.47c3-2.76,4.16-6.27,4.36-10.23a33.4,33.4,0,0,0-3.73-17.66,7,7,0,0,1-1.08-3.46c3.51,2.22,5.22,5.9,7,9.3,6.62,12.25,7.28,24.61-.11,36.9a19,19,0,0,1-7,6.47,54.29,54.29,0,0,1-27.28,8c-11.6.19-22.41-1.95-32.48-7.67a106.21,106.21,0,0,1-13.06-9.2c-3.7-2.92-7-6.31-10.56-9.45-4.33-3.86-6.69-9-9.19-14.05A22.09,22.09,0,0,1,1035.71,317.25Z"/><path class="cls-5" d="M397.56,493.74c3,.16,6.05-.1,8,3.11.53.87,2.08,1.17,3.2,1.64,7.27,3.09,15,4.16,22.77,4.39a64.29,64.29,0,0,0,20.68-3.23,5.07,5.07,0,0,0,3.33-2.84c.49-1.06.46-2.5,1.89-3,2.73,0,3.51-1.59,3.06-3.9a66.85,66.85,0,0,0-2.1-8.42,114.36,114.36,0,0,0-8.37-19.8,25.48,25.48,0,0,0-3.67-4.65c-.5-.54-1.21-1.08-.75-1.95s1.29-.7,2-.7a24.06,24.06,0,0,1,16.78,6.31c9.69,9.06,16.16,20,15.44,33.81-.52,9.84-4.69,17.93-14.27,22.26a29.21,29.21,0,0,1-7.49,2,48.79,48.79,0,0,1-22.48-1.88c-9.95-3-19.92-6-28.38-12.38A43.25,43.25,0,0,1,397.56,493.74Z"/><path class="cls-5" d="M14.45,150.13a5.94,5.94,0,0,1,3.59,0c10,2.11,20.1,3.1,30.39,1.75,5.26-.69,10.62-.44,15.95-1a199.37,199.37,0,0,0,35.4-6.61,74.18,74.18,0,0,0,12-4.37c7.13-3.47,11.23-9.13,13-16.68.39-1.63.83-3.24,1.25-4.87,7.38,4.55,10.44,16.62,6,23.81a28.12,28.12,0,0,1-11.45,10.25,83.48,83.48,0,0,1-17.15,6.27c-3.24.84-6.55,1.53-9.68,2.67-5.23,1.9-10.7,2.32-16.11,3.08a160.52,160.52,0,0,1-22.36,1.14,69.82,69.82,0,0,1-29.31-6A46.7,46.7,0,0,1,16.65,154,4.72,4.72,0,0,1,14.45,150.13Z"/><path class="cls-5" d="M1027.62,123c2.19-3.64,6.31-4.58,9.54-6.72,5.5-3.65,10.83-7.37,14.61-13,4.08-6,5.12-12.68,4.34-19.68-.32-2.92-2.1-5.36-3.6-7.85-1.09-1.79-2.86-3.25-2.92-5.59a58.1,58.1,0,0,1,20,15.56c4.91,6,7.2,13.21,5.79,21a21.72,21.72,0,0,1-7.43,12.33c-7.61,6.71-17,9.35-26.59,11.44-7.5,1.65-15.16,1.08-23.11,1,.88-1.46,2.23-1.29,3.21-1.53a132.63,132.63,0,0,0,20.69-7.29c1.52-.64,3-1.35,3.67-3-.66-1.45-1.57-.9-2.4-.64-3.91,1.26-7.77,2.72-11.79,3.64A7.76,7.76,0,0,1,1027.62,123Z"/><path class="cls-5" d="M234.59,61.44c1.89-.91,3.67.12,5.28.65,9.07,3,18.23,2.67,27.56,1.73,11.86-1.2,24.91-4.44,35.09-10.81a37,37,0,0,0,12.13-12.12,27.48,27.48,0,0,0,3.29-8c.59-2.55-.12-6.27,2-8.12,7,6,9.61,15,5.81,23.86-1.13,2.63-3.35,4.23-5.57,5.87-11.44,8.44-24.74,11.23-38.46,12.85C276.47,68,271.25,69,266,69.65c-10.41,1.37-20.37.39-29.23-6A5,5,0,0,1,234.59,61.44Z"/><path class="cls-5" d="M230.65,26.33a6.21,6.21,0,0,1,1.9-.81,32.58,32.58,0,0,0,6.87-3.35,20,20,0,0,1,4-1.74c.63-.19,3.86-1.11,3.29.29a2.26,2.26,0,0,1-.51.65,43.58,43.58,0,0,1-6.76,4.81q-3.81,2.46-7.53,5.05c-1,.7-2.23.92-2.79-.45a3,3,0,0,1,0-1.94A4.14,4.14,0,0,1,230.65,26.33Z"/><path class="cls-5" d="M95.84,262.7A1.93,1.93,0,0,1,97.92,261c8.3-.4,16-2.8,23.65-5.76a61.22,61.22,0,0,0,21.74-14.2c6.74-6.85,6.62-11.81,1.21-17.65-1-1-2.87-5.18-2.68-6.54,8.61-.54,17.94,4.72,25.39,8.6,5.09,2.66,5.91,6.06,2.74,10.66a32.79,32.79,0,0,1-9.36,9.11c-11.28,7.26-23.18,13.3-36.56,16.16C114.78,263.4,105.39,265.12,95.84,262.7Z"/><path class="cls-6" d="M274.31,222.21c.14-.56.32-1.12.49-1.67,2.6-8.34,6-15.37,12.12-21.77a142.48,142.48,0,0,1,15.87-13.88c15.39-11.95,32.8-15.86,51.83-12.8a7.56,7.56,0,0,0,6.9-2.1,117.94,117.94,0,0,1,64.59-28.13c10.34-1.19,20.76-1.64,30.92,1.56,1.53.49,2.54,0,3.77-.83,8.94-5.78,18.81-6.8,29.08-5.41a13.41,13.41,0,0,1,6.78,2.61c1.5,1.22,2.57,1,4-.07a51.83,51.83,0,0,1,6.28-3.79c1.86-1,2.56-1.92,2-4.29a78.47,78.47,0,0,1-.62-33.21,44.82,44.82,0,0,1,12.8-23.89A16.34,16.34,0,0,1,527.89,70c17.41-5.21,34.7-11,52.58-14.4a68.93,68.93,0,0,1,32.69,1.28,38.65,38.65,0,0,1,14.46,7.66c.94.79,1.89,1.56,2.78,2.39,8.07,7.45,15.73,15.14,16,27,1.69.59,2.63-.37,3.65-.9A223.38,223.38,0,0,1,698.3,74.52c3.09-.79,4.09-2.23,4.56-5.19,1.1-6.94,2.56-13.82,4-20.71A31.9,31.9,0,0,1,712.13,37c9.77-14.29,23-23.88,39.36-29.32C768.18,2.15,785.3-.83,802.91.2A131.1,131.1,0,0,1,856.4,15.08c6,3.15,10.84,7.4,12.51,14.39a25.92,25.92,0,0,1-.24,12.26C866.46,51,861.76,59,855.55,66.1c-9.79,11.22-22.42,18.3-35.85,24.1a151.58,151.58,0,0,1-33.29,10c-1.31.24-2.72.22-3.85,1.18.13,1.61,1.56,2.19,2.46,3.14A116.42,116.42,0,0,1,807.12,137c5.11,11.29,6.51,22.84,2.13,34.74a46,46,0,0,1-4.14,8.67,143.44,143.44,0,0,1-30.9,34.86c-7.44,6.09-15.85,10.06-25.78,10.82-5.57.43-11,2.51-16.52,3.71-19,4.15-38.15,5.05-57.47,3.95q-11.22-.64-22.38-2c-12.71-1.5-23.42-6.84-31.87-16.37-2.8-3.16-5.35-3.44-9.21-2.25-9.77,3-19.65,5.75-29.89,6.78-12,1.22-23.81-.22-35.5-2.81a26.38,26.38,0,0,1-10.37-4.72,17.37,17.37,0,0,0-8.35-3.42c-3.48-.5-6.93-1.19-10.39-1.8-2.7-.55-1.38,1.42-1.54,2.46-1.26,2.86-3.48,4.86-5.89,6.73-8,6.22-17.1,9.71-27,11.38-6.94,1.16-13.59-.15-20.17-2.21-.42-.4-.91-.7-1.36-.19-.13.15.18.68.29,1,.72,3.59,2.82,5.53,6.33,7a68.35,68.35,0,0,1,24.69,17.82c6.61,7.34,6.73,16.94.51,25.73a64.09,64.09,0,0,1-21,18.74c-19.84,11.25-41.16,14.82-63.65,12.44-7.74-.82-15.49-1.64-23.13-3.22a47.44,47.44,0,0,1-21.67-10.35c-4.64-4-9.83-7.32-13.63-12.19-1.39-1.77-2.67-.83-4-.12-8.05,4.37-16.77,6.37-25.78,7.53C308,291.21,297.09,288.85,287,284c-18.08-8.7-15.23-35.16-10.39-50.65,1.74-5.54,4.61-10,8.21-14.6a84,84,0,0,1,26.54-22.2,15.45,15.45,0,0,1,5-1.9c-2.56,3.53-6.15,6.15-9.59,8.82-12,9.31-23.42,20.76-27.34,35.44-2.78,10.41-2.23,22.62,3.62,31.93,7.09,11.28,21.34,14.37,33.87,13.61a67.36,67.36,0,0,0,23.83-6.14c1.45-.67,3-1.51,3.54-3a6.73,6.73,0,0,0,.11-2.83,52.36,52.36,0,0,1,17.42-43.86c1.34-1.17,2.9-2.68,2.47-4.41a5.09,5.09,0,0,0-1.86-2.39c-7.19-6.38-10.5-16-12.55-25.4-1.38-6.33-2-13.84,2.57-18.43-10.22-2.9-21.33-1.65-31.23,2.21s-18.64,10.23-26.4,17.48c-8.17,7.64-14.83,16.22-16.6,27.45-.36,2.27-1.06,4.66-2.83,6.13-1.51-2-1.7-5-1.39-7.4A12.62,12.62,0,0,1,274.31,222.21Zm362.36-114.8c-5.86,2.76-9.5,7.91-13.47,12.67a21.73,21.73,0,0,0-4,6.08c-.36,1-1.24,2-.15,2.89s2.29.56,3.31-.33a12.17,12.17,0,0,0,1.32-1.27c4.25-5,8.69-9.79,12-15.48a7.71,7.71,0,0,0,1.24-4.31l.32-.58ZM483.16,169.69c1.24-8.36,3.8-16.22,9.55-23.24a49.92,49.92,0,0,0-26.06,1.36c8.73,5.58,14.46,12.16,15.12,22.05l-.07,6.5c-.15,1-.28,2.09-.47,3.13a94,94,0,0,1-10,28c-2.59,3.15-4.7,6.65-7.66,9.56,13.5,7.9,38.53-.23,48-11.07-.82.93-13.62-7.11-14.78-8.19-2.9-2.69-6-5.25-8.54-8.32a24.32,24.32,0,0,1-5.59-13.24Zm-51.32,44.19a79,79,0,0,0-31.68.87c-7.74,1.84-7.71,1.78-9.13,9.52-1.26,6.84,35.55,1.64,40.3.57q5.12-1.16,10.1-2.76a7.26,7.26,0,0,0,4-2.28A48.43,48.43,0,0,0,431.84,213.88Zm-66.65,1.94a18.05,18.05,0,0,0,4,3.38c2.27,1.37,3.71.7,5.88-.62a49.91,49.91,0,0,1,8-3.64c1.15-.45,2.59-1,2.85-2.34a5,5,0,0,0-.15-2,47.09,47.09,0,0,0-5.89-13.85A43.42,43.42,0,0,0,361.66,180c-2.66-1.34-7.05,1.2-8.29,3.69a6.5,6.5,0,0,0-.52,2.93c0,6.36,2.21,12.34,5.21,17.87C360.11,208.29,362.23,212.54,365.19,215.82ZM639,154.43c-1.74-8.93-8.39-13.43-15.68-17.33A2.14,2.14,0,0,0,622,137c-2.25.43-6.46,4.93-6.7,7.31a179.44,179.44,0,0,0-.48,34.76c-.33,6.1,1.28,12.11.9,18.21a4.5,4.5,0,0,0,.18,1.36c.61,2.42,1.33,2.66,3.39,1.27,10-6.79,15.24-16.73,18.44-28C639.36,166.18,640.54,160.39,639,154.43Zm79.6-77.89a44.18,44.18,0,0,0-10.3,1.57c-2.39.56-3.1,2.42-1.59,3.82,5.42,5,11.47,9,18.72,10.95,4.12,1.11,8.33,1.67,12.52,2.41,7.33,1.31,14.72,2.17,22.12,2.95a8.38,8.38,0,0,0,5.62-.9c-1.7.93-9.79-7.06-11.06-8.22-3.29-3-6.07-6.6-9.74-9.25C736.72,74,727.91,76.53,718.61,76.54Zm-126,52.32c-2.32-.08-4.64-.14-6.91-.28-11.06-.65-22.22-1.94-33.27-1a110.71,110.71,0,0,0-32.51,7.87c-3,1.22-3.06,1.53-1,3.66,9.37,9.54,23.65,12.27,36.51,12.59,10.46.27,20.91-.92,31.38-1,.8,0,1.85.2,1.92,1s-1,1.2-1.74,1.32c-14.41,2.25-30,4.6-44.55,2.08-10.7-1.9-20.81-5.19-28.19-13.84-1.68-2-3.08-1.84-5.11-.75-11.4,6.1-18.34,15.25-20.21,28.25-1.1,7.7.55,14.26,6.49,19.47,7,6.11,14.54,11.14,23.79,13.11,9.72,2.07,19.4,3.92,29.49,3,10.78-1,21.16-3.64,31.49-6.67,6.3-1.85,12.64-3.55,18.79-5.89l.89.21c.84.18,2.07-.26,2.43.76.44,1.27-.76,1.87-1.64,2.39a14.74,14.74,0,0,1-2.55,1c-6.47,2.27-12.91,4.63-19.41,6.78-9.1,3-18.2,6-27.87,6.79a57.46,57.46,0,0,0-8.57,1.11c7.68,3,15.73,3.51,23.71,4.1a84.74,84.74,0,0,0,20-.86,77.45,77.45,0,0,0,25.2-9.18c1-.57,1.84-1.27,1.37-2.54-2.14-5.79-1.07-12.1-2.92-17.94a5.74,5.74,0,0,0,.12-1.36,134.8,134.8,0,0,1-.68-33.7c.13-1.33.43-2.73-.52-4.34-.49-.81-6,1-6.74,1.21-3.86.93-7.11,1.55-11.09.64a3.77,3.77,0,0,1-1.88-.85c-1.79-1.76.65-2.37,1.91-2.48a58,58,0,0,0,17.26-3.77c2-.8,3.76-5.47,2.32-7.31a4.55,4.55,0,0,0-2.19-1.29C603.24,129.39,597.89,129.06,592.58,128.86Zm-129,25.32c-6.05-4.65-13-6.4-20.52-6.56a134.7,134.7,0,0,0-16.91.95c-22.08,2.3-41.45,11.1-59.05,24.23-.58.43-1.3.87-1.13,1.81.54,1,1.67,1.27,2.54,1.84,11.8,7.7,19.8,18,22.28,32.19.57,3.25.65,3.27,3.87,2.66,1.5-.29,3-.7,4.46-1,16.47-3.72,35.08-2.78,50.09,5.46a3.89,3.89,0,0,0,5-.47c3.29-2.94,6.66-5.83,9.17-9.51a68.62,68.62,0,0,0,10.95-29.68C475.79,165.26,472.39,158.52,463.57,154.18Zm-1.05,83.56a13,13,0,0,1-6.61-8.32,9.82,9.82,0,0,0-1.54-2.79,2.26,2.26,0,0,0-3.16-.88c-1,.46-2,.83-3,1.23-18.26,7.36-37.17,9.27-56.57,6.48-2.53-.36-3.48.4-4.38,2.56-2.12,5.07-4.34,10.1-6.83,15a53.3,53.3,0,0,1-17.83,20.5c-2.78,1.88-5.61,3.69-8.39,5.58-2.55,1.73-2.67,2-.44,4,5.69,5.2,11.39,10.89,18.36,14.29a78.43,78.43,0,0,0,23.08,6.78c11.93,1.77,24.17,2.38,36,.33a171.55,171.55,0,0,0,34.38-9.59c10.27-4.09,18.07-11.55,23.86-20.65,4.38-6.88,4.22-11.85-2.36-18.44a14.43,14.43,0,0,0-1.67-1.56c-5.29-3.87-10.57-7.75-15.91-11.54C467.46,239.22,465.27,237.78,462.52,237.74ZM603.69,124.41a22,22,0,0,1,4.08.79c2.13.67,4.53,1.82,5.9-.76a60.23,60.23,0,0,1,22.79-23.76c7.34-4.34,2.91-14.29-1-19.6-7-9.45-16.94-17.34-28.6-19.6-11.31-2.19-22.48-1.26-33.63,1.32-8.8,2-17.15,5.58-26,7.55-5.37,1.2-10.68,2.66-16,3.94a14,14,0,0,0-7.38,4.35,45.34,45.34,0,0,0-9.31,15.11c-4,11.17-3.3,22.57-1.79,34,.59,4.44,1.23,4.53,5.42,2.95A143.65,143.65,0,0,1,548.8,123c9.19-1.32,19-.39,28.27-.08q10.54.35,21.08,1.11C600,124.16,601.86,124.22,603.69,124.41ZM754.4,80c1.33,1.32,2.63,2.68,4,4a77.3,77.3,0,0,0,16,11.7,7.42,7.42,0,0,0,5.31.72c17.92-3.27,35.28-8.13,51-17.82,8.45-5.22,16.58-10.73,22.6-18.93,5.09-6.95,9.75-14.11,10.68-22.85.64-5.94-.52-11.58-6.48-14.87a12.5,12.5,0,0,0-3.8-2.51,101.73,101.73,0,0,0-31-11C799.1,4.18,775.73,5.08,753,13.13c-15.16,5.36-27.61,14.26-36.63,27.75a26.44,26.44,0,0,0-4,8.69q-2.35,10-4.55,20.11c-.58,2.7-.36,2.9,2.41,2.56a165.09,165.09,0,0,1,24.24-1.42A27.32,27.32,0,0,1,745.08,73,32.52,32.52,0,0,1,754.4,80Zm18.34,22.81a61.72,61.72,0,0,0-6.39.24c-5.52.79-11,.15-16.41-.56s-10.83-1.77-16.27-2.47c-10.67-1.37-20-5.31-27-13.74-.16-.73-.34-1.56-1.32-1.27-.6.18-.64.89-.54,1.49-.08.46-.14.91-.24,1.36-.16.73-.22,1.65-1.18,1.73s-1.19-.74-1.4-1.48a21.51,21.51,0,0,1-.69-5c-.18-3.63-.36-3.83-3.7-3-17.21,4.53-33.77,10.72-49.28,19.56a5.3,5.3,0,0,0-2.91,3.82c-1.87,9.72-7.71,17.14-14.06,24.28-1.3,1.46-3.73,2.56-3.64,4.47.11,2.34,3.05,2.61,4.74,3.75,8.46,5.71,13.63,13.53,13.2,23.76-.59,14.31-5.48,27.18-15.71,37.63a50.87,50.87,0,0,1-8.27,7.23c-1.25.81-2.22,1.81-1,3.34,10.42,12.78,25.29,17.56,41.25,19.14,11.19,1.1,22.55.66,33.74.72A162.37,162.37,0,0,0,739,222.23c8.78-2.36,17-5.93,24-11.91,8.81-7.53,12.81-17.61,15.11-28.58.72-3.43,1.3-6.88,1.94-10.32a1.09,1.09,0,0,1,.8-1c.78-.22,1.14.4,1.38.91a4.6,4.6,0,0,1,.38,1.77c.31,9.07-.42,18-4.23,26.4-.44,1-1.71,1.95-.49,3.27,1.78-.07,2.51-1.61,3.59-2.6,6.24-5.71,11-12.63,15.87-19.46,8.77-12.29,10.75-25.39,5-39.36A107,107,0,0,0,783.88,112C780.72,108.4,777.56,104.53,772.74,102.8ZM346,267.56a5.61,5.61,0,0,0,2,5.4c1.32,1.15,2.49-.36,3.58-1,1.84-1.08,3.53-2.39,5.37-3.47,13.21-7.68,19.33-20.68,25.35-33.75.91-2,.09-3-2-3.68-2.75-.85-5.43-2-8.13-3-1.35-.51-3.1-.86-3.92.13-1.89,2.27-4.77,3.19-6.61,5.51A87.26,87.26,0,0,0,350.66,252,60.29,60.29,0,0,0,346,267.56Zm31.51-44.82c2.25,1.53,4.58,1.77,6.69,2.59,1,.39,1.81.22,2.26-.81a17.11,17.11,0,0,0,1.51-3.8c.28-1.49-.58-2.5-2.16-1.81C383.19,220.07,380.31,220.7,377.52,222.74Z"/><path class="cls-6" d="M1103.62,369.55a75.09,75.09,0,0,1-40.93-12.38,183.69,183.69,0,0,1-19.25-14.78c-8.84-7.62-14.47-17.26-17.7-28.35-1.31-4.48-1-9.08-.31-13.64.89-5.88,3.14-11.5,3.5-17.5.15-2.43.38-4.87.52-7.3.41-7,3.18-13,9.09-16.66,9.56-6,19.89-10.57,31.43-9.93,15.64.88,29,6.82,38.3,20.11,2.54,3.63,5.81,7.13,7,11.19,1.27,4.29,3.77,5.44,7.34,6.6A33.63,33.63,0,0,1,1139,299c9.57,12.46,12.64,26.18,8.83,41.46A32.64,32.64,0,0,1,1132.84,361C1123.53,366.82,1115.31,369.3,1103.62,369.55Zm-68.91-53.3a22.09,22.09,0,0,0,1.17,4.4c2.5,5,4.86,10.19,9.19,14.05,3.53,3.14,6.86,6.53,10.56,9.45a106.21,106.21,0,0,0,13.06,9.2c10.07,5.72,20.88,7.86,32.48,7.67a54.29,54.29,0,0,0,27.28-8,19,19,0,0,0,7-6.47c7.39-12.29,6.73-24.65.11-36.9-1.83-3.4-3.54-7.08-7-9.29-5.53-7.08-13.2-10-21.75-11.27-5.89-.84-11.8-1.56-17.68-2.45-1.43-.21-3.87,0-3.82-1.67.07-2,2.61-1.71,4.11-1.8a80.25,80.25,0,0,1,16.47.26,21.59,21.59,0,0,0,7.57.24,128,128,0,0,0-11.94-13.4,55.55,55.55,0,0,0-21.73-13.24,29.42,29.42,0,0,0-15.36-1.2,62.32,62.32,0,0,0-20.26,8.25c-4.15,2.5-7,6.36-7.06,11.21-.14,8.49-2.07,16.62-3.66,24.87C1032.34,305.53,1031.64,311.12,1034.71,316.25Z"/><path class="cls-6" d="M374.86,461.29a96,96,0,0,1,1.31-14.58c2.38-13,11.49-20.14,24.74-19.37a41.49,41.49,0,0,1,18.24,5.56,87.58,87.58,0,0,1,18.72,14.67c1.76,1.77,3.12,2.34,5.47,1,2.7-1.59,5.87-1.66,8.94-1.25A28.31,28.31,0,0,1,464,451.1c15.08,9.66,25.63,29,20.75,48.13-3.46,13.54-13.67,22.07-27.42,24.1-11.78,1.74-22.77-.9-33.78-4.26a128.29,128.29,0,0,1-12.37-4.84,41.51,41.51,0,0,1-15.07-11c-2.12-2.41-4.26-4.82-6.56-7A46.69,46.69,0,0,1,374.86,461.29Zm81.56,31.55a23.6,23.6,0,0,0-.6-3.59,92.41,92.41,0,0,0-38.32-50.37A32.92,32.92,0,0,0,398,433.19c-8,.25-13.49,4.72-15.48,12.46a39.68,39.68,0,0,0-.92,12.28c.76,13.4,4.64,25.49,14.94,34.81a43.25,43.25,0,0,0,9.65,10.75c8.46,6.37,18.43,9.38,28.38,12.38a48.79,48.79,0,0,0,22.48,1.88,29.21,29.21,0,0,0,7.49-2c9.58-4.33,13.75-12.42,14.27-22.26.72-13.76-5.75-24.75-15.44-33.81a24.06,24.06,0,0,0-16.78-6.31c-.73,0-1.6-.11-2,.7s.25,1.41.75,1.95a25.48,25.48,0,0,1,3.67,4.65,114.36,114.36,0,0,1,8.37,19.8,66.85,66.85,0,0,1,2.1,8.42C459.93,491.25,459.15,492.88,456.42,492.84Z"/><path class="cls-6" d="M52.93,171.18a71.44,71.44,0,0,1-32.25-7.85c-11.59-6.16-18.76-15.17-20-28.65C0,127.62-.85,120.61,1.86,113.87c4.31-10.73,11.31-18.58,23.62-19.62a30.17,30.17,0,0,1,17.23,3.89,23.06,23.06,0,0,0,17.35,2.47,102,102,0,0,1,21.87-2c15.5,0,30.3,3.4,43.87,11.25,8.16,4.72,12.11,12.25,13.73,21.17A17.92,17.92,0,0,1,136.32,145a38.26,38.26,0,0,1-15.12,13C104.63,165.65,76.76,171.56,52.93,171.18Zm-40-21.63a32.94,32.94,0,0,0,12.48,9.69c5.85,2.6,12.24,3.78,18.6,4.5,20.25,2.3,39-1,58.48-6a83.48,83.48,0,0,0,17.15-6.27,28.12,28.12,0,0,0,11.45-10.25c3.84-6.18,2.11-14.78-2.16-20.26a39.3,39.3,0,0,0-4.18-4.38c-9.26-8.78-23.9-11.48-36.13-12.74-9.91-1-19.84.71-29.78.89-.7,0-1.64-.1-1.9.85s.36,1.47,1.26,2a57.7,57.7,0,0,1,12.12,9.72c.68.71,1.8,1.3,1.27,2.68-1.59.66-2.6-.58-3.62-1.31-5.08-3.62-10.69-7.91-16.35-10.56a10.73,10.73,0,0,0-6.48-1,1.72,1.72,0,0,1-1.34-.08c-.4-.3-.4-.88-.49-1.38a4.44,4.44,0,0,0-3.17-3,60.35,60.35,0,0,0-9.71-2,17.87,17.87,0,0,0-14.92,4.34A27.08,27.08,0,0,0,6.2,119.88,35.72,35.72,0,0,0,12.91,149.55Z"/><path class="cls-6" d="M945.69,98.91c10.23-17,25-28.59,43-36.2,5.51-2.32,11.42-3.39,17.32-4.19a98,98,0,0,1,31.93.84c13.9,2.71,24.78,10.79,34.23,20.87,3.91,4.17,6.14,9.49,7.53,15,2.48,9.83-.77,18.06-7.52,25.13a41,41,0,0,1-15.69,10,83.58,83.58,0,0,1-28.64,5.51c-6.72,0-13.62.74-20.07-1.17-12.16-3.6-24.81-5.1-36.85-9.07a62.73,62.73,0,0,1-11.38-4.78,27.91,27.91,0,0,1-10.39-9.44c-.69-2.65-2.13-5.09-2.11-7.92a2.71,2.71,0,0,1,2.52-1.46c1.48,3.25,2.09,6.89,5.17,9.39a41.55,41.55,0,0,0,8.34,5.57A99.51,99.51,0,0,0,998,126a66.51,66.51,0,0,0,28.65-4,7.76,7.76,0,0,0,4.05-.26c4-.92,7.88-2.38,11.79-3.64.83-.26,1.74-.81,2.4.64-.63,1.61-2.15,2.32-3.67,3A132.63,132.63,0,0,1,1020.5,129c-1,.24-2.33.07-3.21,1.53,8,.1,15.61.67,23.11-1,9.55-2.09,19-4.73,26.59-11.44a21.72,21.72,0,0,0,7.43-12.33c1.41-7.79-.88-15-5.79-21a58,58,0,0,0-20.05-15.56,21.62,21.62,0,0,0-9.11-4.09c-11.29-2.63-22.71-2.7-34.14-1.27a62.31,62.31,0,0,0-17.19,4.63c-16.11,7-28.37,18.77-39.84,31.58C947,100.55,945.86,100.88,945.69,98.91Z"/><path class="cls-6" d="M215.73,33.09C219.12,27.5,224,22.93,229,18.74A53.31,53.31,0,0,1,245.32,9C255.6,5.36,265.89,2.27,277,2.91c14.39.81,27.64,4.88,39.56,13,7.06,4.82,12,11.22,13.89,19.75a26.92,26.92,0,0,1-.84,14c-1.08,3.56-3.53,5.92-6.42,8.09-11,8.2-23.37,12.54-36.83,14-9.71,1.08-19.33,3.08-29.17,3.08-14.91,0-26.29-7-35.46-18.11a22,22,0,0,1-4.4-8.88,26.42,26.42,0,0,1-.69-5.08,13.61,13.61,0,0,1,0-2.3c.09-.69.69-1.52.25-2.2a1.37,1.37,0,0,0-1.06-.54c-.41,0-.83,0-1.23-.08a.92.92,0,0,1-.66-.41,1.21,1.21,0,0,1,.12-1.1A33.25,33.25,0,0,1,215.73,33.09Zm17.54,27.77c9.65,6.16,22.47,9,31.71,7.79,5.27-.69,10.49-1.68,15.76-2.31,13.72-1.62,27-4.41,38.46-12.85,2.22-1.64,4.44-3.24,5.57-5.87,4.7-10.91-1.88-22.55-11.12-28.63-10.53-6.93-22.54-11.41-35.29-10.81-2.59.12-5.19.07-7.77.24C255,9.47,238.93,15.14,227.52,26.1c-.52.51-1,1-1.54,1.56-2,2.1-4.87,3.35-5.62,6.31C217.42,45.63,223.83,54.83,233.27,60.86Z"/><path class="cls-6" d="M110.4,266.48c-9.75,0-19.23-1.21-27.84-6.23-1.06-.62-2.14-1.18-3.18-1.83-8.08-5.06-8.08-13-3.35-18.92,10.58-13.25,23.89-22.64,41.06-25.41a109.72,109.72,0,0,1,38.29.95,40.85,40.85,0,0,1,14,5.57C176.64,225.17,178,232,173,239a40.24,40.24,0,0,1-10.92,10.28c-10.69,7-22,12.54-34.46,15.56A63.49,63.49,0,0,1,110.4,266.48Zm-9.7-4.86c12.82,1.18,25.77-1.27,37.67-6.07,10.94-4.42,25.55-11.16,30.86-22.41a6.27,6.27,0,0,0,.79-3.76c-.33-1.76-1.89-3-3.42-3.9a42.34,42.34,0,0,0-8.86-3.8,79.63,79.63,0,0,0-73.88,14.59,23.74,23.74,0,0,0-5.38,5.85,10,10,0,0,0-1.33,7.65c.79,2.86,3.15,5,5.66,6.57,4.87,3,10.59,4.45,16.29,5.11Z"/></g></g></svg>