<svg xmlns="http://www.w3.org/2000/svg" viewBox="0 0 1606 819"><defs><style>.cls-1{fill:#023d53;}.cls-2{fill:#523722;}.cls-3{fill:#87542d;}.cls-4{fill:#d9ecf3;}.cls-5{fill:#033d53;}.cls-6{fill:#553822;}.cls-7{fill:#2fafee;}.cls-8{fill:#573720;}.cls-9{fill:#ad8160;}.cls-10{fill:#51331c;}.cls-11{fill:#b08362;}.cls-12{fill:#af8261;}.cls-13{fill:#5f3f27;}.cls-14{fill:#00b3ea;}</style></defs><title>slide_20</title><g id="Layer_2" data-name="Layer 2"><g id="Layer_1-2" data-name="Layer 1"><rect class="cls-1" y="526" width="1606" height="293"/><path class="cls-2" d="M671.08,108a2.45,2.45,0,0,1,3.82-.07l43.17-.9c3,.19,5.91-.94,8.88-.08,11.62-.06,23.25-.16,34.87-.17,9.47,0,18.94.12,28.4.18L795,107c10.4,1.29,20.88,1.31,31.32,1.88,18.58,1,37.18,1.12,55.79,1,.62-1,1.23-.92,1.83,0l9.85.25a32.39,32.39,0,0,1,7.08-1.15v-4.43c-2,.19-4,.39-6,.63a1,1,0,0,1-1.37.32c-3.8,1.58-7.79,1.27-11.76,1.21l-42.83-.68c-1,1.12-1.93,1.07-2.85-.07-5.72-.23-11.41-1.1-17.16-.91-.66,1-1.27.85-1.84-.08-7.8-.44-15.6-.91-23.4-1.3-32.58-1.61-65.16-.09-97.74.29a12.31,12.31,0,0,1-9.83.11c-6.75-.28-13.45.5-20.17.89a10.25,10.25,0,0,1-8.82.13H650.9c-.87,1.5-3.62,0-3.91,2.41l3.1.29c1-1.14,1.93-1.07,2.83.11A137.56,137.56,0,0,0,671.08,108Z"/><path class="cls-2" d="M900.85,544c-.89-.06-1.78-.09-2.68-.09-2.24,0-3.36-1.24-3.24-3.49.31-5.47-.49-11,.78-16.42a22.93,22.93,0,0,0,.23-5c.06-7.15,1.14-14.21,1.79-21.31.47-5.12.66-10.26,1.15-15.39.76-7.91,1.37-15.83,2-23.76V328.75c-.33-8.25-.69-16.49-1.15-24.72a475,475,0,0,1-.42-48.9c1.08-23.65.35-47.28.71-70.91,0-2.31.64-4.55.86-6.81v-3.23c-.6-7.22-.85-14.46-1.19-21.69-.15-3.29-.56-6.6-.59-9.92q-.11-11.76-.18-23.5c0-.66,0-1.34,0-2-.41-4-1.31-4.36-4.79-2-.55,4.14-.19,8.3-.19,12.45,0,34.24.22,68.48-.78,102.71-.17,6,0,12,.08,17.95,0,1.63-.26,3.35.83,4.81,1.13.12,1.87.65,1.9,1.87s.05,2.66.05,4c0,17.34-.14,34.67.11,52,.17,11.78.7,23.57,1.77,35.32a87.58,87.58,0,0,1,.11,10c-.37,16.49,1.24,32.95.83,49.41-.27,10.63-.37,21.29-1.06,31.89-.4,6.15-.39,12.29-.8,18.42-.6,8.94-1.38,17.86-2.12,26.79,0,.44-.48.84-.73,1.26-.65,18.46-2.6,36.86-2.46,55.35,0,1,0,2-.08,3a1.75,1.75,0,0,1-1.94,1.78c-1.34,0-2.67.07-4,0-33-.88-65.9-1.3-98.86-1.72-22.15-.28-44.28.66-66.42.68-13.49,0-27,0-40.46.14-7.31.09-14.63.56-21.94.86-1,1.35-2.59.71-3.91.94v1c3,.46,6.07-.85,8.9.86,19.81.09,39.62.46,59.42.21q64.17-.83,128.33.13c10.15.13,20.28,1.09,30.44.67a4.77,4.77,0,0,1,5.83,0c4.64.8,9.26-.43,13.93-.18Z"/><path class="cls-3" d="M894.88,105.26a1,1,0,0,1-1.37.32A1.09,1.09,0,0,1,894.88,105.26Z"/><path class="cls-4" d="M643,107.47l4,.11,3.1.29a2.76,2.76,0,0,0,2.83.11,137.56,137.56,0,0,0,18.16,0,4.92,4.92,0,0,0,3.82-.07l43.17-.9a27.56,27.56,0,0,0,8.88-.08c11.62-.06,23.25-.16,34.87-.17,9.47,0,18.94.12,28.4.18A8.47,8.47,0,0,0,795,107c10.4,1.29,20.88,1.31,31.32,1.88,18.58,1,37.18,1.12,55.79,1a1.39,1.39,0,0,0,1.83,0l9.85.25.3,4.88c-.55,4.14-.19,8.3-.19,12.45,0,34.24.22,68.48-.78,102.71-.17,6,0,12,.08,17.95,0,1.63-.26,3.35.83,4.81,0,1.16-.12,2.33-.12,3.49q0,111.74,0,223.47c0,1.32.11,2.65.17,4-.65,18.46-2.6,36.86-2.46,55.35,0,1,0,2-.08,3a1.75,1.75,0,0,1-1.94,1.78c-1.34,0-2.67.07-4,0-33-.88-65.9-1.3-98.86-1.72-22.15-.28-44.28.66-66.42.68-13.49,0-27,0-40.46.14-7.31.09-14.63.56-21.94.86a22,22,0,0,0-9.45.58c-1.56-.4-3,.16-4.51.44L642.06,544c-.68-29.31.05-58.62-.11-87.93-.19-34.64,1-69.28,1.18-103.92.17-29.15,1.1-58.29.72-87.44q-.63-47.48-1-94.94c-.11-16.49,0-33,.29-49.47C643.17,116,642.18,111.75,643,107.47Zm117,58.91c-.89.39-1.83,1.08-1.05,2.48a11.23,11.23,0,0,0,2,2.24q12.12,12.24,24.27,24.47A477.92,477.92,0,0,0,834,238.18c1,.8,2.19,1.5,3.32,2.2.58.36,1.32.58,1.83,0,.8-.87,0-1.53-.56-2.06-1.82-1.71-3.65-3.42-5.57-5-5.59-4.64-11.69-8.77-16.73-13.94-5.46-5.6-11.29-10.8-16.81-16.31q-15-15-30.16-29.89c-2-2-4.23-3.76-6.37-5.6A3.89,3.89,0,0,0,759.94,166.38Zm57.3,16.84c-2.44-.13-3.55,1.49-2.53,3.23a6.81,6.81,0,0,0,2,2.11,176.4,176.4,0,0,1,16.54,12.65,8.09,8.09,0,0,0,2.12,1.26,1.29,1.29,0,0,0,1.72-.52,1.92,1.92,0,0,0,.23-1.37,5,5,0,0,0-1.05-1.65,86.1,86.1,0,0,0-16.76-14.66A13.46,13.46,0,0,0,817.24,183.22Zm-19.63,40.49c-.06-.91-.57-1.05-1-1.27-3.22-1.62-5.27-4.5-7.56-7.09-2.65-3-5.19-6.06-7.83-9a7.51,7.51,0,0,0-3.09-2.46,2,2,0,0,0-1.39,0,1.34,1.34,0,0,0-.48,1.75,5,5,0,0,0,1,1.7c5,5.53,10.16,11,16.1,15.57a10.63,10.63,0,0,0,3,1.65A1,1,0,0,0,797.61,223.71Zm1.67-56.47c.57,4.89,3.89,7.51,7.2,10.1a1.26,1.26,0,0,0,1.79-.23,1.28,1.28,0,0,0,0-1.8C805.29,172.59,802.27,169.92,799.28,167.24Z"/><path class="cls-5" d="M894.07,484c-.06-1.33-.17-2.66-.17-4q0-111.74,0-223.47c0-1.16.08-2.33.12-3.49,1.13.12,1.87.65,1.9,1.87s.05,2.66.05,4c0,17.34-.14,34.67.11,52,.17,11.78.7,23.57,1.78,35.32a89.92,89.92,0,0,1,.1,10c-.37,16.49,1.24,32.95.83,49.41-.27,10.63-.37,21.29-1.06,31.9-.4,6.14-.39,12.28-.8,18.41-.6,8.94-1.38,17.86-2.12,26.79C894.77,483.13,894.32,483.53,894.07,484Z"/><path class="cls-3" d="M883.92,110a1.39,1.39,0,0,1-1.83,0C882.71,109,883.32,109,883.92,110Z"/><path class="cls-6" d="M654,545v1c-1.65.29-3.51-.63-4.92.92-19.3,3.45-38.78,1.38-58.17,1.93-.62-.91-1.23-.88-1.83,0-11.65.24-23.3.76-35,.66-36.8-.32-73.59-.87-110.39-1.33h-.5c-4.94,0-4.84,0-4.57,5.07s.36,10,.41,15c0,4-.92,5-5.06,5-2.83,0-5.66-.22-8.47-.48a181.25,181.25,0,0,0-29.92-.83c-1.82.13-3.66.23-5.46.49-3.71.55-4.42.18-5.05-3.4a76.5,76.5,0,0,1-.86-19.41c.11-1.4.1-2.34-1.34-3.3-2.5-1.67-2.32-2.15.37-3.38.59-.27,1.16-.58,1.74-.86,2.94.23,3.29-1.55,2.81-3.79A74.26,74.26,0,0,1,386,521.19a2.84,2.84,0,0,0-.88-2.22c-.6-11.3-1.33-22.61-1.17-33.94.19-13.34-.58-26.65-1.54-39.94a81.77,81.77,0,0,1-.22-9c.89-26.16-.79-52.34.17-78.47,1.61-43.49-.33-87,.82-130.46.78-29.15.6-58.31,1.4-87.46.25-9.14.63-18.3-1.1-27.35a7.63,7.63,0,0,1,1.68-6.37c1-.06,2.08.12,2.8-.85l37.18-1c.64.94,1.25.87,1.84-.06,7.39-.26,14.76-1.13,22.17-.92,1,1.09,1.92,1,2.83-.1,10.05-.47,20.1-1.16,30.17-.9a6.58,6.58,0,0,0,6.82-.08,48.33,48.33,0,0,1,9.16,0,4.82,4.82,0,0,0,5.82.08c27.06.15,54.13-.43,81.18.91.92,1.13,1.87,1.16,2.83,0,15.76-.24,31.5.33,47.22,1.38,2.26.15,4.62-.85,6.81.4a3.54,3.54,0,0,0,1,2.59c-.79,4.28.2,8.55.14,12.84-.25,16.49-.4,33-.29,49.47q.34,47.47,1,94.94c.38,29.15-.55,58.29-.72,87.44-.19,34.64-1.37,69.28-1.18,103.92.16,29.31-.57,58.62.11,87.93.27,1,.53,2,1.88,1.08,1.5-.28,3-.84,4.52-.44Zm-262.46-2.09c11.43.29,22.25.83,33,.83,52.94,0,105.89,1.18,158.84-.58,16.6-.55,33.27-.9,49.88.73,4.62.45,4.64.07,4.71-4.58.68-43.28.14-86.57.68-129.86.74-58.59,1.13-117.22-.42-175.83-.93-35.3-.18-70.64-.17-106a14.54,14.54,0,0,1,.28-4c1.14-4,.43-8,.63-11.92.12-2.43-1-3.71-3.53-3.75-6.3-.09-12.59-.49-18.89-.85-16.43-.92-32.92-.61-49.37-.84-31.77-.45-63.58-1.36-95.36.56-10.94.66-21.91.23-32.89.87-15.09.88-30.26.1-45.37,1.15-4.42.31-4.45.11-4.51,4.46-.53,36.45.41,72.9-.84,109.37-1.43,41.42.13,82.88-.87,124.35-.86,35.75-1.14,71.56.47,107.36.68,15.09,1.8,30.22,1.17,45.37-.05,1.16,0,2.33,0,3.5,0,6.65,1.28,13.19,1.72,19.78C391.14,529.54,393,535.91,391.54,542.92ZM405,547c-4.72,0-8.05,0-11.38,0-4.56,0-4.57.06-4.62,4.82,0,2.5,0,5,0,7.5.1,7.45,1.66,8.84,9,7.44,5.3-1,10.5-.7,15.82-.11,5.93.65,11.94.51,17.87,1.35,2.26.32,3.4-.58,3.34-3-.1-4.67-.1-9.33,0-14,0-2.15-.9-3.08-3-2.94C422.5,548.65,413.1,546.44,405,547Z"/><path class="cls-3" d="M385.07,519a2.84,2.84,0,0,1,.88,2.22,74.26,74.26,0,0,0,1.89,17.07c.48,2.24.13,4-2.81,3.79C384.77,534.35,384.65,526.66,385.07,519Z"/><path class="cls-3" d="M649.08,546.94c1.41-1.55,3.27-.63,4.92-.92,3,.46,6.07-.85,8.9.86A62.61,62.61,0,0,1,649.08,546.94Z"/><path class="cls-3" d="M643,107.47a3.54,3.54,0,0,1-1-2.59c3-.69,6-.24,9,.29-.87,1.5-3.62,0-3.91,2.41Z"/><path class="cls-3" d="M695.93,104a12.31,12.31,0,0,1-9.83.11A32.4,32.4,0,0,1,695.93,104Z"/><path class="cls-3" d="M665.93,105a10.25,10.25,0,0,1-8.82.13A25.37,25.37,0,0,1,665.93,105Z"/><path class="cls-3" d="M488.92,102.06a6.58,6.58,0,0,1-6.82.08A16.33,16.33,0,0,1,488.92,102.06Z"/><path class="cls-3" d="M881.09,547.89a4.77,4.77,0,0,1,5.83,0A12.49,12.49,0,0,1,881.09,547.89Z"/><path class="cls-3" d="M503.9,102.14a4.82,4.82,0,0,1-5.82-.08A12.31,12.31,0,0,1,503.9,102.14Z"/><path class="cls-3" d="M587.91,103.1c-1,1.11-1.91,1.08-2.83,0A3.07,3.07,0,0,1,587.91,103.1Z"/><path class="cls-3" d="M451.93,103c-.91,1.12-1.85,1.19-2.83.1A3.11,3.11,0,0,1,451.93,103Z"/><path class="cls-3" d="M838.91,106.11c-1,1.12-1.92,1.07-2.84-.07A3.1,3.1,0,0,1,838.91,106.11Z"/><path class="cls-3" d="M387.91,105.14c-.72,1-1.8.79-2.8.85C385.66,104.45,386.75,104.67,387.91,105.14Z"/><path class="cls-3" d="M426.93,104.06c-.59.93-1.2,1-1.84.06A1.46,1.46,0,0,1,426.93,104.06Z"/><path class="cls-3" d="M589.08,548.9c.6-.91,1.21-.94,1.83,0A1.53,1.53,0,0,1,589.08,548.9Z"/><path class="cls-3" d="M818.91,105.13c-.66,1-1.27.85-1.84-.08A1.44,1.44,0,0,1,818.91,105.13Z"/><path class="cls-3" d="M648.46,544.65a22,22,0,0,1,9.45-.58c-1,1.35-2.59.71-3.91.94Z"/><path class="cls-3" d="M727,106.91a27.56,27.56,0,0,1-8.88.08C721,107.18,724,106.05,727,106.91Z"/><path class="cls-3" d="M674.9,107.89a4.92,4.92,0,0,1-3.82.07A2.45,2.45,0,0,1,674.9,107.89Z"/><path class="cls-3" d="M652.92,108a2.76,2.76,0,0,1-2.83-.11C651.08,106.73,652,106.8,652.92,108Z"/><path class="cls-3" d="M795,107a8.47,8.47,0,0,1-4.76-.11Z"/><path class="cls-3" d="M597,507c.16.46.31.54.36.23,0,0-.25-.13-.39-.2-.21-1.79.9-3.32,1-5.06,0-7.63,0-15.26-.08-22.9,0-1.59.54-3.34-.7-4.78-.75-2.71.64-5.24.71-7.87.26-10.13.6-20.27.84-30.39.59-24.65.23-49.32.16-74,0-5.94-2-11.83-.34-17.81a1.65,1.65,0,0,0-1.28-1.9c-1.71-.56-3.36-1.49-5.29-1.11-8.52,1.67-17.21.57-25.81,1.57-6.7.78-13.58-.15-20.38-.54-13.1-.75-26.25-.49-39.39-1.07-14.46-.64-29-.15-43.48-.13-2.65,0-5.29.42-7.91.62a137.93,137.93,0,0,1-22.45,0c-3.33-.29-3-.47-3.67,2.6-1.78,8.86-.88,17.87-1.64,26.81-1,12.06-.72,24.24-1.07,36.37-.64,22.29-.32,44.6.72,66.89.23,5,.23,10,0,15-.14,3.55.93,6.9,1.24,10.37.24,2.7,1.4,3.33,4,2.62a13,13,0,0,1,6.42-.2c6.54,1.63,13.23.95,19.83,1.58,12,1.14,24.18,1.87,36.26,2.07,29.48.49,59,.22,88.48.09,4.18,0,8.42-1.8,12.34,1.09C595.86,507.2,596.51,507,597,507ZM430,154c-1.21.18-3.1-.27-2.39,2s.34,4.63.43,7c.72,17.31-1.43,34.58-1,51.88.17,6.18-1.28,12.25-.94,18.39.29,5.3,1,10.56.9,15.9-.16,8.49.2,17-.09,25.49-.38,10.83,1.23,21.58,1.12,32.39,0,3.21.66,3.74,3.76,4,.5,0,1,0,1.5,0,11.46.39,23-.86,34.4.92a4.92,4.92,0,0,0,2.47-.19c2.26-.87,4.59-.68,6.91-.67,10.47,0,20.94.49,31.39.75,23,.57,46,.19,69,.18a51.48,51.48,0,0,0,7.42-.63c3.33-.48,7-1.4,10.13,1,.58.43,1.47.5,1.68-.22.5-1.75,2.55-2.67,2.35-4.79-.5-5.34.9-10.58.91-15.89q.06-58.24,0-116.49a20.24,20.24,0,0,0-.16-4.48c-1.37-5.86-.89-11.88-1.71-17.8-.75-5.45-.39-5.64-5.78-5.64-8.8,0-17.61.64-26.39.79-42.45.74-84.93-.53-127.38,1.14-3,.12-5.9.88-8.87,1.15a1.38,1.38,0,0,0-1.44,1.63c.12,1.05,1,1.15,1.83,1.38C430,153.4,430,153.7,430,154ZM407.9,282.46c0-3,.06-6,0-9a1.84,1.84,0,0,0-1.75-2c-1,0-1.23.95-1.6,1.66a7.46,7.46,0,0,0-.49,3.41c0,2.16.09,4.34-.14,6.48A296.76,296.76,0,0,0,402,314.71c0,4.48,1.47,8.84,1,13.35-.47,4.34,1.22,8.52,1.05,12.84,0,.86.28,1.75,1.3,1.8,1.36.08,1.5-1,1.58-2,0-.49,0-1,0-1.49C407.29,320.27,406.2,301.34,407.9,282.46ZM608,173.83c0,3.78,0,7.78,0,11.78,0,1.15.06,2.63,1.56,2.64,1.14,0,1.33-1.28,1.4-2.3q1-14.38,2-28.77a19.35,19.35,0,0,1,.2-4c1.37-4.76.51-9.61.75-14.41a7,7,0,0,0-1.55-4.63,1.8,1.8,0,0,0-1.24-.67,1.18,1.18,0,0,0-1.13,1.35c.11,3-1,6-.9,8.89C609.46,153.73,607.56,163.62,608,173.83Zm.63,337.41a1.92,1.92,0,0,0,1.28-2,86.18,86.18,0,0,1,.94-10.88,72.9,72.9,0,0,0,0-11,1.85,1.85,0,0,0-1.86-2c-1.21,0-1.67.94-1.87,2a10.93,10.93,0,0,0-.09,2q0,8.73,0,17.46C607.05,508.52,607.05,510.19,608.64,511.24ZM416,312.67c-.27-3.86,1.81-6.78.7-10-.8-2.27-.64-4.57-.66-6.87,0-5.63,0-11.26-.08-16.89,0-.88.34-2.09-1.41-2.38-1.16,3.92-2.19,8-1.4,12,1.2,6.1.61,12.2.87,18.29C414.09,308.64,413.78,310.52,416,312.67Z"/><path class="cls-3" d="M638.64,409.46c-.54,43.29,0,86.58-.68,129.86-.07,4.65-.09,5-4.71,4.58-16.61-1.63-33.28-1.28-49.88-.73-53,1.76-105.9.57-158.84.58-10.74,0-21.56-.54-33-.83,1.49-7-.4-13.38-.84-19.81-.44-6.59-1.74-13.13-1.72-19.78,0-1.17-.06-2.34,0-3.5.63-15.15-.49-30.28-1.17-45.37-1.61-35.8-1.33-71.61-.47-107.36,1-41.47-.56-82.93.87-124.35,1.25-36.47.31-72.92.84-109.37.06-4.35.09-4.15,4.51-4.46,15.11-1,30.28-.27,45.37-1.15,11-.64,21.95-.21,32.89-.87,31.78-1.92,63.59-1,95.36-.56,16.45.23,32.94-.08,49.37.84,6.3.36,12.59.76,18.89.85,2.57,0,3.65,1.32,3.53,3.75-.2,4,.51,8-.63,11.92a14.54,14.54,0,0,0-.28,4c0,35.32-.76,70.66.17,106C639.77,292.24,639.38,350.87,638.64,409.46Z"/><path class="cls-3" d="M405,547c8.11-.55,17.51,1.66,27,1,2.08-.14,3,.79,3,2.94-.06,4.67-.06,9.33,0,14,.06,2.46-1.08,3.36-3.34,3-5.93-.84-11.94-.7-17.87-1.35-5.32-.59-10.52-.91-15.82.11-7.32,1.4-8.88,0-9-7.44,0-2.5,0-5,0-7.5.05-4.76.06-4.78,4.62-4.82C396.94,547,400.27,547,405,547Z"/><path class="cls-3" d="M642.06,544l1.89,1.08C642.59,546,642.33,545,642.06,544Z"/><path class="cls-7" d="M759.94,166.38a3.89,3.89,0,0,1,3,1.21c2.14,1.84,4.35,3.62,6.37,5.6q15.12,14.9,30.16,29.89c5.52,5.51,11.35,10.71,16.81,16.31,5,5.17,11.14,9.3,16.73,13.94,1.92,1.59,3.75,3.3,5.57,5,.56.53,1.36,1.19.56,2.06-.51.56-1.25.34-1.83,0-1.13-.7-2.27-1.4-3.32-2.2a477.92,477.92,0,0,1-48.85-42.61Q773,183.34,760.86,171.1a11.23,11.23,0,0,1-2-2.24C758.11,167.46,759.05,166.77,759.94,166.38Z"/><path class="cls-7" d="M817.24,183.22a13.46,13.46,0,0,1,2.3,1.05,86.1,86.1,0,0,1,16.76,14.66,5,5,0,0,1,1.05,1.65,1.92,1.92,0,0,1-.23,1.37,1.29,1.29,0,0,1-1.72.52,8.09,8.09,0,0,1-2.12-1.26,176.4,176.4,0,0,0-16.54-12.65,6.81,6.81,0,0,1-2-2.11C813.69,184.71,814.8,183.09,817.24,183.22Z"/><path class="cls-7" d="M797.61,223.71a1,1,0,0,1-1.23.83,10.63,10.63,0,0,1-3-1.65c-5.94-4.59-11.06-10-16.1-15.57a5,5,0,0,1-1-1.7,1.34,1.34,0,0,1,.48-1.75,2,2,0,0,1,1.39,0,7.51,7.51,0,0,1,3.09,2.46c2.64,3,5.18,6.06,7.83,9,2.29,2.59,4.34,5.47,7.56,7.09C797,222.66,797.55,222.8,797.61,223.71Z"/><path class="cls-7" d="M799.28,167.24c3,2.68,6,5.35,9,8.07a1.28,1.28,0,0,1,0,1.8,1.26,1.26,0,0,1-1.79.23C803.17,174.75,799.85,172.13,799.28,167.24Z"/><path class="cls-8" d="M430.08,153.1c-.79-.23-1.71-.33-1.83-1.38a1.38,1.38,0,0,1,1.44-1.63c3-.27,5.84-1,8.87-1.15,42.45-1.67,84.93-.4,127.38-1.14,8.78-.15,17.59-.78,26.39-.79,5.39,0,5,.19,5.78,5.64.82,5.92.34,11.94,1.71,17.8a20.24,20.24,0,0,1,.16,4.48q0,58.24,0,116.49c0,5.31-1.41,10.55-.91,15.89.2,2.12-1.85,3-2.35,4.79-.21.72-1.1.65-1.68.22-3.18-2.37-6.8-1.45-10.13-1a51.48,51.48,0,0,1-7.42.63c-23,0-46,.39-69-.18-10.45-.26-20.92-.72-31.39-.75-2.32,0-4.65-.2-6.91.67a4.92,4.92,0,0,1-2.47.19c-11.43-1.78-22.94-.53-34.4-.92-.5,0-1,0-1.5,0-3.1-.25-3.8-.78-3.76-4,.11-10.81-1.5-21.56-1.12-32.39.29-8.49-.07-17,.09-25.49.1-5.34-.61-10.6-.9-15.9-.34-6.14,1.11-12.21.94-18.39-.46-17.3,1.69-34.57,1-51.88-.09-2.32.29-4.63-.43-7s1.18-1.79,2.39-2a3.62,3.62,0,0,1,2.07,1.9l-.12,2.83c-.26,9.45-.08,18.9-.62,28.38-.8,14.41-.69,28.88-1.05,43.33-.58,23.09,0,46.19.65,69.28,0,.6-.17,1.37,1.33,1.78,3.2-4.29,8.28-7,11.73-11.51a3.25,3.25,0,0,0,3-1.59,16.85,16.85,0,0,1,2.44-.34l123.26-.16c.66,0,1.33,0,2,0,3-.24,3.53-.82,3-3.72a128.1,128.1,0,0,1-1.6-23.31,108.91,108.91,0,0,0-.32-14.46c-1.14-9.59-.91-19.23-1.45-28.84-.69-12.1-.18-24.28-.08-36.42,0-3.31.6-6.61.71-9.92.17-4.75,0-4.82-5-5.11l-1-.08c.82-1.83,2.39-2.15,4.15-2.08,1.46.06,2.66-.27,3.05-1.91l2,.91H579l.06,2.15c-1.25,1.56-1.17,3.4-1.14,5.24.32,20.45-.42,40.89.78,61.36.83,14.08,1.72,28.22,1.17,42.37-.13,3.32,0,6.66.18,10s.51,3.58,3.79,3.9c1.61.16,3.55-.66,4.87,1.11-1.58,1.7-3.79.29-5.25,1.58,1.58,5.13,8.8,14.71,12,15.9.88-1.55.47-3.24.47-4.86-.1-48.91,1-97.82-.9-146.72,0-.36,0-.72-.07-1.07.1-1.69-.2-2.92-2.36-2.86-4.32.12-8.67-.17-13,.21-10.42.92-20.85,1.64-31.3,1.67Q489.19,153.1,430.08,153.1ZM589.63,307.74c.21-2.24-1-3.25-1.83-4.44-1.72-2.45-4-4.68-5-7.39-1.86-4.64-5.12-5.14-9.49-5.09q-52.46.56-104.9,0a61.29,61.29,0,0,1-8.44-.59c-5.33-.8-10.67-1-14.26,4.32-.53.78-1.6,1.18-2.32,1.87-3.67,3.48-7.71,6.61-11.39,11.6C485.05,307.17,537.21,309.92,589.63,307.74Z"/><path class="cls-9" d="M432,155.91A3.62,3.62,0,0,0,430,154c0-.31.07-.61.11-.91q59.12-.07,118.24-.19c10.45,0,20.88-.75,31.3-1.67,4.3-.38,8.65-.09,13-.21,2.16-.06,2.46,1.17,2.36,2.86-6.41,1.1-11.11,5.21-16,9.06h-.85c-.26-.85.18-2.17-1.16-2.32-.74-.09-.88.74-.87,1.41-.39,1.64-1.59,2-3.05,1.91-1.76-.07-3.33.25-4.13,2.08l-.4,0c-.3-1.63-1.45-2-2.89-2-5.08,0-10.16,0-15.24,0-1.44,0-2.58.39-2.93,2h-7.94a2.26,2.26,0,0,0-2.43-1.93c-5.36.2-10.74-.44-16.06.59-2-.57-3.92.38-5.92.31-11.66-.43-23.26,1.18-34.91,1.13a19,19,0,0,0-2,.13c-8.08.85-16.16,1.67-24.28,1.9-2,0-4,.06-5,2.35l-1.49.51a5.47,5.47,0,0,0-3.48-5l-.92-.84-.31.54L444,166c0,1.66.17,3.32.06,5-.62,9.93-1.73,19.84-1.86,29.77-.16,12.63-1.29,25.21-1.18,37.84.05,5.48.18,11,0,16.45-.33,8.5.62,16.93,1.24,25.36.23,3.18,0,6.63,1.73,9.62-3.45,4.5-8.53,7.22-11.73,11.51-1.5-.41-1.31-1.18-1.33-1.78-.61-23.09-1.23-46.19-.65-69.28.36-14.45.25-28.92,1.05-43.33.54-9.48.36-18.93.62-28.38,3.49.4,5.38,3.89,8.69,4.71C438.8,159.63,435.72,157.42,432,155.91Z"/><path class="cls-10" d="M597.37,502c0,1.68,0,3.37-.1,5.05-2,.16-4.25-1.32-6.32-1.52a56,56,0,0,0-7.33-.07q-33.81,1.19-67.65.64t-67.6-2.82q-4.9-.33-9.79-.69c-2.62-.2-6.08.14-8.58-.72-2.31-.79-2-4.18-2.25-6.22-.35-3.27-.5-6.55-.63-9.84a1402.36,1402.36,0,0,1,1.35-140.27,3.54,3.54,0,0,1,4.37-4.11l159.54.91a8.56,8.56,0,0,1,4,.67c2.74,1.46,3.05,5.2,3,8.31l-.92,68-.91,67ZM433,348.94c.24,5.51-.86,10.93-.91,16.43-.42,43.16.11,86.31,0,129.46a2,2,0,0,0,.7,2.09c.62,1,1.63,1,2.63,1.05,10.61.63,21.21,1.62,31.82,1.82,17,.31,33.89,1.55,50.87,1.09,3.32-.09,6.65,0,10-.05,3.82-.09,7.63-.1,11.45-.31a238.64,238.64,0,0,1,29.9,0c7.13.49,14.3.36,21.45.5,1.21,0,1.85-.55,1.76-1.82.09-1.11.19-2.21.28-3.32,0-8.82.39-17.63.89-26.44.71-12.46.53-25,.83-37.44.65-27.65.37-55.32.44-83,0-3.17-1.08-4-4.29-3.78-12.44,1-24.88,1.81-37.37,1.65-6.16-.08-12.31-.53-18.45-.66-33.32-.67-66.65-.41-100-.26-1-1.05-1.66-.78-1.91.54A17.38,17.38,0,0,0,433,348.94Z"/><path class="cls-10" d="M407.9,282.46c0,4.13-.63,8.33-.8,12.46-.18,4.35-.19,8.71-.23,13.06-.1,10.7.15,21.39.11,32.09a3.34,3.34,0,0,1-.49,2.14c-2.66,3.39-3.68-8-3.71-8.84-.39-10.1-.53-20.21-.19-30.3.17-5,.65-10,.89-15,.23-4.71.21-9.41.77-14.1.31-2.57,3.53-3.59,3.62-.5S407.9,279.47,407.9,282.46Z"/><path class="cls-10" d="M608,173.83c0-12.74.9-25.61,1.94-38.31.3-3.63,3.22-1.26,3.78.92.95,3.71.13,8.24-.1,12-.27,4.52-.67,9-1,13.56C612,170,611.56,178,611,186c-.07,1-.26,2.32-1.4,2.3-1.5,0-1.55-1.49-1.56-2.64C608,181.61,608,177.61,608,173.83Z"/><path class="cls-8" d="M608.64,511.24c-1.59-1.05-1.59-2.72-1.59-4.36q0-8.73,0-17.46a10.93,10.93,0,0,1,.09-2c.2-1,.66-2,1.87-2a1.85,1.85,0,0,1,1.86,2,72.9,72.9,0,0,1,0,11,86.18,86.18,0,0,0-.94,10.88A1.92,1.92,0,0,1,608.64,511.24Z"/><path class="cls-8" d="M416,312.67c-2.22-2.15-1.91-4-2-5.82-.26-6.09.33-12.19-.87-18.29-.79-4,.24-8.07,1.4-12,1.75.29,1.41,1.5,1.41,2.38.06,5.63,0,11.26.08,16.89,0,2.3-.14,4.6.66,6.87C417.81,305.89,415.73,308.81,416,312.67Z"/><path class="cls-10" d="M597,507c.14.07.4.16.39.2,0,.31-.2.23-.36-.23Z"/><path class="cls-11" d="M568.53,166l.4,0,1,.08c5,.29,5.17.36,5,5.11-.11,3.31-.68,6.61-.71,9.92-.1,12.14-.61,24.32.08,36.42.54,9.61.31,19.25,1.45,28.84a108.91,108.91,0,0,1,.32,14.46,128.1,128.1,0,0,0,1.6,23.31c.49,2.9-.06,3.48-3,3.72-.66.05-1.33,0-2,0l-123.26.16a16.85,16.85,0,0,0-2.44.34c-2.1-1.94-1.79-4.5-1.83-7-.54-32.05.14-64.08,1.07-96.11.14-4.78.86-9.54,1.31-14.31l1.49-.51c5.6-.92,11.28-.26,16.88-.73,11.09-.93,22.18-1.78,33.3-1.77,7.33,0,14.6-.71,21.89-1.22a90.89,90.89,0,0,0,18.5-.76h7.94C554.49,167,561.51,167.6,568.53,166Z"/><path class="cls-9" d="M589.63,307.74c-52.42,2.18-104.58-.57-157.68.32,3.68-5,7.72-8.12,11.39-11.6.72-.69,1.79-1.09,2.32-1.87,3.59-5.35,8.93-5.12,14.26-4.32a61.29,61.29,0,0,0,8.44.59q52.44.5,104.9,0c4.37-.05,7.63.45,9.49,5.09,1.08,2.71,3.33,4.94,5,7.39C588.63,304.49,589.84,305.5,589.63,307.74Z"/><path class="cls-12" d="M595,155c1.93,48.9.8,97.81.9,146.72,0,1.62.41,3.31-.47,4.86-3.2-1.19-10.42-10.77-12-15.9,1.46-1.29,3.67.12,5.25-1.58-1.32-1.77-3.26-.95-4.87-1.11-3.28-.32-3.63-.54-3.79-3.9s-.31-6.66-.18-10c.55-14.15-.34-28.29-1.17-42.37-1.2-20.47-.46-40.91-.78-61.36,0-1.84-.11-3.68,1.14-5.24,2-.39,3.46-1.73,5.12-2.77C587.88,160,590.69,156.35,595,155Z"/><path class="cls-13" d="M447.47,171c-.45,4.77-1.17,9.53-1.31,14.31-.93,32-1.61,64.06-1.07,96.11,0,2.48-.27,5,1.83,7a3.25,3.25,0,0,1-3,1.59c-1.69-3-1.5-6.44-1.73-9.62-.62-8.43-1.57-16.86-1.24-25.36.22-5.47.09-11,0-16.45-.11-12.63,1-25.21,1.18-37.84.13-9.93,1.24-19.84,1.86-29.77.11-1.65,0-3.31-.06-5l0,0A5.47,5.47,0,0,1,447.47,171Z"/><path class="cls-13" d="M595,155c-4.33,1.39-7.14,5-10.85,7.37-1.66,1-3.12,2.38-5.12,2.77L579,163c4.85-3.85,9.55-8,16-9.06C595,154.24,595,154.6,595,155Z"/><path class="cls-13" d="M432,155.91c3.68,1.51,6.76,3.72,8.57,7.54-3.31-.82-5.2-4.31-8.69-4.71Z"/><path class="cls-13" d="M576.11,162c0-.67.13-1.5.87-1.41,1.34.15.9,1.47,1.16,2.32Z"/><path class="cls-13" d="M521,166.78c-7.29.51-14.56,1.22-21.89,1.22-11.12,0-22.21.84-33.3,1.77-5.6.47-11.28-.19-16.88.73,1-2.29,3-2.3,5-2.35,8.12-.23,16.2-1.05,24.28-1.9a19,19,0,0,1,2-.13c11.65,0,23.25-1.56,34.91-1.13,2,.07,3.92-.88,5.92-.31C521,165.38,521,166.08,521,166.78Z"/><path class="cls-8" d="M568.53,166c-7,1.59-14,1-21.06,0,.35-1.59,1.49-2,2.93-2,5.08,0,10.16,0,15.24,0C567.08,164,568.23,164.38,568.53,166Z"/><path class="cls-8" d="M521,166.78c0-.7,0-1.4,0-2.1,5.32-1,10.7-.39,16.06-.59a2.26,2.26,0,0,1,2.43,1.93A90.89,90.89,0,0,1,521,166.78Z"/><path class="cls-13" d="M444,166l-1.25-.28.31-.54.92.84Z"/><path class="cls-9" d="M587.3,501H433v-3.78a3.21,3.21,0,0,0,2.41.75c10.61.63,21.21,1.62,31.82,1.82,17,.31,33.89,1.55,50.87,1.09,3.32-.09,6.65,0,10-.05,3.82-.09,7.63-.1,11.45-.31a238.64,238.64,0,0,1,29.9,0C575.37,501,581.34,500.94,587.3,501Z"/><path class="cls-9" d="M432.78,496.92l.22-.18v.48A2.32,2.32,0,0,1,432.78,496.92Z"/><path class="cls-9" d="M591.46,501a2.67,2.67,0,0,1-.58.05L587.3,501Z"/><path class="cls-9" d="M433,348.94v1.62q0-.81,0-1.62Z"/><path class="cls-9" d="M432.06,365.37c.05-5,.94-9.86.94-14.81V494.22c-.3.21-.6.41-.92.61C432.17,451.68,431.64,408.53,432.06,365.37Z"/><path class="cls-9" d="M593,347V501h-5.7c-6-.06-11.93,0-17.87-.45a238.64,238.64,0,0,0-29.9,0c-3.82.21-7.63.22-11.45.31-3.33.09-6.66,0-10,.05-17,.46-33.91-.78-50.87-1.09-10.61-.2-21.21-1.19-31.82-1.82a3.21,3.21,0,0,1-2.41-.75V347Z"/><path class="cls-9" d="M594.64,432c-.3,12.48-.12,25-.83,37.44-.37,6.61-.68,13.21-.81,19.83V348.81a4.8,4.8,0,0,0,.27-1.47l-.27.14V347H436.12L435,346c33.32-.15,66.65-.41,100,.26,6.14.13,12.29.58,18.45.66,12.49.16,24.93-.61,37.37-1.65,3.21-.26,4.29.61,4.29,3.78C595,376.71,595.29,404.38,594.64,432Z"/><path class="cls-9" d="M448,479l0,0,0,0,0-.06Z"/><path class="cls-10" d="M448,479a14.92,14.92,0,0,1-1.94-7.91c.12-9-.37-17.95-.84-26.92-.71-13.65.56-27.29,1.12-40.91.42-10.14.52-20.28.81-30.42,0-1.17-.26-2.44.1-3.49,1.83-5.36,0-9.11-4.51-12.22-2.29-1.59-4-4-6.05-5.95-1.05-1-2-2.33-3.7-2.28a17.38,17.38,0,0,1,.12-2.4c.25-1.32.92-1.59,1.91-.54a67.12,67.12,0,0,1,9.69,10c.95,1.27,2.13,2.9,4,.92a1.32,1.32,0,0,1,1.79-.3c4.26,2.88,9.26,2.17,13.83,2.16,14.14,0,28.23,1.08,42.34,1.58,8.13.29,16.28.86,24.39.43,12.43-.65,24.86-1.24,37.29-1.84,4.61-.22,9.3-.27,13.62-2.3.29,1,0,2.84,2,1.51l4,.06L588,360c-8.92.15-8.52.38-7.64,9.43a89.88,89.88,0,0,1,0,17.89c-.17,1.65-.27,3.32-.28,5-.09,13.32-.34,26.64-.15,40,.15,10.33-.92,20.6-1.14,30.9A30.75,30.75,0,0,1,578,468l-1.71-.11c-.68-5,.75-9.91.72-14.91q-.16-31.74.21-63.48c.08-7.14,1-14.27.73-21.43,0-1.17.06-2.35-.09-3.5-.38-3-1-3.71-4.2-3.54-5.64.29-11.29.62-16.88,1.31a51.93,51.93,0,0,1-7.45.58c-8.49-.18-16.91,1.15-25.42,1-12.64-.16-25.25-.68-37.85-1.81a60.87,60.87,0,0,0-8-.17c-7.67.32-15.27-1-22.92-1-4.14,0-4.18,0-4.27,4.15-.33,14.14-.16,28.31-1.07,42.42-1.31,20.14-.58,40.28-.68,60.42,0,1,0,2,0,3-.27,4.48,5.78,3,8.69,3,5-.1,9.91-.38,14.86-.59,8-.33,16-.25,24-.37,6.53-.1,13.15-.76,19.65-.57,6.83.19,13.66.36,20.49.21,10.62-.22,21.34-1.18,31.8.67a3.08,3.08,0,0,1,1.57.6,1.08,1.08,0,0,1,.16,1.51,1.63,1.63,0,0,1-1.09.31c-6.54.19-13.17.11-19.68.67a136,136,0,0,1-19.88.3,283.5,283.5,0,0,0-29.43-.5q-23.48.94-46.93.56C451,476.74,449.53,477.79,448,479Z"/><path class="cls-10" d="M576.27,467.9,578,468a11.46,11.46,0,0,0,2.7,8.65A93.48,93.48,0,0,1,589.54,491c.93,1.76,3,3.56,4.46,5-.09,1.11.1,2.89,0,4-2.37-1.48-4.69-4.76-6-7q-4.82-8.08-9.69-16.15C576.61,474.07,575.56,471.19,576.27,467.9Z"/><path class="cls-10" d="M432.08,494.83c5.06-3.15,7.92-8.39,11.85-12.62,1.22-1.32,2.89-5.15,5.07-5.21a67.89,67.89,0,0,1-16.22,19.92A2,2,0,0,1,432.08,494.83Z"/><path class="cls-10" d="M583.94,358.12c-2,1.33-1.72-.49-2-1.51,2.81-4.29,6.85-7,11.34-9.27-.1,2.72-2,4-3.76,5.3C587.4,354.24,585.24,355.73,583.94,358.12Z"/><path class="cls-10" d="M588,360l-.06-1.78a7.53,7.53,0,0,1,1.41-.12c.87.07,2.19-.21,2.06,1.19-.09.88-1.23.74-2,.77A13.68,13.68,0,0,1,588,360Z"/><path class="cls-6" d="M885.69,544.65c1.56-.4,3,.16,4.52.44,1.35.9,1.61-.09,1.88-1.08.68-29.31-.05-58.62.11-87.93.19-34.64-1-69.28-1.18-103.92-.17-29.15-1.1-58.29-.72-87.44q.63-47.48,1-94.94c.11-16.49,0-33-.29-49.47-.06-4.29.93-8.56.15-12.84a3.57,3.57,0,0,0,1-2.59c2.19-1.25,4.55-.25,6.82-.4,15.71-1,31.45-1.62,47.21-1.38,1,1.11,1.91,1.08,2.83,0,27-1.34,54.12-.76,81.18-.91a4.82,4.82,0,0,0,5.82-.08,48.33,48.33,0,0,1,9.16,0,6.58,6.58,0,0,0,6.82.08c10.07-.26,20.12.43,30.17.9.91,1.12,1.85,1.19,2.83.1,7.41-.21,14.78.66,22.17.92.59.93,1.2,1,1.84.06l37.18,1c.72,1,1.8.79,2.8.85a7.59,7.59,0,0,1,1.68,6.37c-1.73,9-1.35,18.21-1.1,27.35.8,29.15.62,58.31,1.4,87.46,1.15,43.48-.79,87,.82,130.46,1,26.13-.72,52.31.18,78.47a84.33,84.33,0,0,1-.23,9c-1,13.29-1.73,26.6-1.54,39.94.16,11.33-.57,22.64-1.17,33.94a2.84,2.84,0,0,0-.88,2.22,74.26,74.26,0,0,1-1.89,17.07c-.48,2.24-.13,4,2.81,3.79.58.28,1.15.59,1.74.86,2.69,1.23,2.87,1.71.37,3.38-1.44,1-1.45,1.9-1.34,3.3A76.5,76.5,0,0,1,1149,569c-.63,3.58-1.34,4-5,3.4-1.8-.26-3.64-.36-5.46-.49a181.1,181.1,0,0,0-29.91.83c-2.82.26-5.65.47-8.48.48-4.14,0-5.1-1-5.06-5,0-5,.15-10,.41-15s.37-5.1-4.57-5.07h-.5c-36.8.46-73.59,1-110.39,1.33-11.65.1-23.3-.42-34.95-.66-.6-.91-1.21-.94-1.83,0-19.39-.55-38.87,1.52-58.17-1.93-1.41-1.55-3.27-.63-4.92-.92v-1Zm257.76-21.54c.44-6.59,1.74-13.13,1.72-19.78,0-1.17.06-2.34,0-3.5-.63-15.15.49-30.28,1.17-45.37,1.61-35.8,1.33-71.61.47-107.36-1-41.47.56-82.93-.87-124.35-1.25-36.47-.31-72.92-.84-109.37-.06-4.35-.09-4.15-4.51-4.46-15.11-1-30.28-.27-45.37-1.15-11-.64-22-.21-32.89-.87-31.78-1.92-63.59-1-95.36-.56-16.45.23-32.94-.08-49.37.84-6.3.36-12.59.76-18.89.85-2.57,0-3.65,1.32-3.53,3.75.2,4-.51,8,.63,11.92a14.54,14.54,0,0,1,.28,4c0,35.32.76,70.66-.17,106-1.55,58.61-1.15,117.24-.42,175.83.54,43.29,0,86.58.68,129.86.07,4.65.09,5,4.71,4.58,16.61-1.63,33.28-1.28,49.88-.73,53,1.76,105.9.57,158.84.58,10.74,0,21.56-.54,33-.83C1141.12,535.91,1143,529.54,1143.45,523.11ZM1102.15,548c-2.08-.14-3,.79-3,2.94.06,4.67.06,9.33,0,14-.06,2.46,1.08,3.36,3.35,3,5.93-.84,11.94-.7,17.86-1.35,5.33-.59,10.52-.91,15.82.11,7.32,1.4,8.88,0,9-7.44,0-2.5,0-5,0-7.5-.05-4.76-.06-4.78-4.62-4.82-3.33,0-6.66,0-11.38,0C1121.05,546.44,1111.65,548.65,1102.15,548Z"/><path class="cls-3" d="M1149.08,519a2.84,2.84,0,0,0-.88,2.22,74.26,74.26,0,0,1-1.89,17.07c-.48,2.24-.13,4,2.81,3.79C1149.39,534.35,1149.5,526.66,1149.08,519Z"/><path class="cls-3" d="M1045.23,102.06a6.58,6.58,0,0,0,6.82.08A16.33,16.33,0,0,0,1045.23,102.06Z"/><path class="cls-3" d="M1030.25,102.14a4.82,4.82,0,0,0,5.82-.08A12.31,12.31,0,0,0,1030.25,102.14Z"/><path class="cls-3" d="M946.24,103.1c1,1.11,1.91,1.08,2.83,0A3.07,3.07,0,0,0,946.24,103.1Z"/><path class="cls-3" d="M1082.22,103c.91,1.12,1.85,1.19,2.83.1A3.11,3.11,0,0,0,1082.22,103Z"/><path class="cls-3" d="M1146.24,105.14c.72,1,1.8.79,2.8.85C1148.49,104.45,1147.4,104.67,1146.24,105.14Z"/><path class="cls-3" d="M1107.22,104.06c.59.93,1.2,1,1.84.06A1.46,1.46,0,0,0,1107.22,104.06Z"/><path class="cls-3" d="M945.07,548.9c-.6-.91-1.21-.94-1.83,0A1.53,1.53,0,0,0,945.07,548.9Z"/><path class="cls-3" d="M938.61,507c3.93-2.89,8.16-1.11,12.34-1.09,29.5.13,59,.4,88.48-.09,12.08-.2,24.23-.93,36.27-2.07,6.59-.63,13.28,0,19.82-1.58a13,13,0,0,1,6.42.2c2.61.71,3.77.08,4-2.62.31-3.47,1.38-6.82,1.24-10.37-.2-5-.2-10,0-15,1-22.29,1.35-44.6.71-66.89-.35-12.13,0-24.31-1.06-36.37-.77-8.94.13-18-1.65-26.81-.62-3.07-.34-2.89-3.67-2.6a137.93,137.93,0,0,1-22.45,0c-2.62-.2-5.26-.61-7.91-.62-14.5,0-29-.51-43.48.13-13.14.58-26.29.32-39.39,1.07-6.8.39-13.68,1.32-20.38.54-8.6-1-17.29.1-25.81-1.57-1.93-.38-3.58.55-5.29,1.11a1.65,1.65,0,0,0-1.28,1.9c1.62,6-.33,11.87-.34,17.81-.07,24.66-.43,49.33.16,74,.24,10.12.58,20.26.84,30.39.07,2.63,1.46,5.16.71,7.87-1.24,1.44-.68,3.19-.69,4.78-.09,7.64-.07,15.27-.09,22.9.11,1.74,1.22,3.27,1,5.06-.14.07-.4.16-.39.2.05.31.2.23.36-.23C937.64,507,938.29,507.2,938.61,507ZM1104.07,153.1c.79-.23,1.71-.33,1.83-1.38a1.38,1.38,0,0,0-1.44-1.63c-3-.27-5.84-1-8.87-1.15-42.45-1.67-84.93-.4-127.38-1.14-8.78-.15-17.59-.78-26.39-.79-5.39,0-5,.19-5.78,5.64-.82,5.92-.34,11.94-1.71,17.8a20.24,20.24,0,0,0-.16,4.48q0,58.24.05,116.49c0,5.31,1.4,10.55.9,15.89-.2,2.12,1.85,3,2.35,4.79.21.72,1.1.65,1.69.22,3.17-2.37,6.79-1.45,10.12-1a51.48,51.48,0,0,0,7.42.63c23,0,46,.39,69-.18,10.45-.26,20.92-.72,31.39-.75,2.32,0,4.65-.2,6.92.67a4.91,4.91,0,0,0,2.47.19c11.42-1.78,22.93-.53,34.39-.92.5,0,1,0,1.5,0,3.1-.25,3.8-.78,3.77-4-.12-10.81,1.49-21.56,1.11-32.39-.29-8.49.07-17-.09-25.49-.1-5.34.61-10.6.9-15.9.34-6.14-1.11-12.21-.94-18.39.46-17.3-1.69-34.57-1-51.88.09-2.32-.29-4.63.43-7s-1.18-1.79-2.39-2C1104.15,153.7,1104.11,153.4,1104.07,153.1Zm23.11,186.08c0,.5,0,1,0,1.49.08,1,.22,2.11,1.58,2,1-.05,1.33-.94,1.3-1.8-.17-4.32,1.52-8.5,1.05-12.84-.49-4.51,1-8.87,1-13.35a296.76,296.76,0,0,0-1.87-31.69c-.23-2.14-.1-4.32-.14-6.48a7.46,7.46,0,0,0-.49-3.41c-.37-.71-.56-1.69-1.6-1.66a1.84,1.84,0,0,0-1.75,2c-.09,3,0,6,0,9C1128,301.34,1126.87,320.27,1127.18,339.18ZM925,143.73c.1-2.92-1-5.87-.9-8.89a1.18,1.18,0,0,0-1.13-1.35,1.8,1.8,0,0,0-1.24.67,7,7,0,0,0-1.54,4.63c.24,4.8-.63,9.65.74,14.41a19.35,19.35,0,0,1,.2,4q1,14.38,2,28.77c.07,1,.26,2.32,1.4,2.3,1.5,0,1.55-1.49,1.56-2.64,0-4,0-8,0-11.78C926.59,163.62,924.69,153.73,925,143.73Zm2.1,363.15q0-8.73,0-17.46a11.9,11.9,0,0,0-.1-2c-.2-1-.66-2-1.86-2a1.85,1.85,0,0,0-1.87,2,72.9,72.9,0,0,0,0,11,88.09,88.09,0,0,1,1,10.88,1.9,1.9,0,0,0,1.27,2C927.1,510.19,927.1,508.52,927.1,506.88Zm193-200c.26-6.09-.33-12.19.87-18.29.79-4-.24-8.07-1.4-12-1.75.29-1.41,1.5-1.41,2.38-.06,5.63,0,11.26-.08,16.89,0,2.3.14,4.6-.65,6.87-1.12,3.18,1,6.1.69,10C1120.37,310.52,1120.06,308.64,1120.13,306.85Z"/><path class="cls-3" d="M895.51,409.46c.54,43.29,0,86.58.68,129.86.07,4.65.09,5,4.71,4.58,16.61-1.63,33.28-1.28,49.88-.73,53,1.76,105.9.57,158.84.58,10.74,0,21.56-.54,33-.83-1.49-7,.4-13.38.84-19.81.44-6.59,1.74-13.13,1.72-19.78,0-1.17.06-2.34,0-3.5-.63-15.15.49-30.28,1.17-45.37,1.61-35.8,1.33-71.61.47-107.36-1-41.47.56-82.93-.87-124.35-1.25-36.47-.31-72.92-.84-109.37-.06-4.35-.09-4.15-4.51-4.46-15.11-1-30.28-.27-45.37-1.15-11-.64-22-.21-32.89-.87-31.78-1.92-63.59-1-95.36-.56-16.45.23-32.94-.08-49.37.84-6.3.36-12.59.76-18.89.85-2.57,0-3.65,1.32-3.53,3.75.2,4-.51,8,.63,11.92a14.54,14.54,0,0,1,.28,4c0,35.32.76,70.66-.17,106C894.38,292.24,894.77,350.87,895.51,409.46Z"/><path class="cls-3" d="M1129.16,547c-8.11-.55-17.51,1.66-27,1-2.08-.14-3,.79-3,2.94.06,4.67.06,9.33,0,14-.06,2.46,1.08,3.36,3.35,3,5.93-.84,11.94-.7,17.86-1.35,5.33-.59,10.52-.91,15.82.11,7.32,1.4,8.88,0,9-7.44,0-2.5,0-5,0-7.5-.05-4.76-.06-4.78-4.62-4.82C1137.21,547,1133.88,547,1129.16,547Z"/><path class="cls-8" d="M985.83,152.91c-10.45,0-20.88-.75-31.3-1.67-4.3-.38-8.65-.09-13-.21-2.16-.06-2.46,1.17-2.36,2.86,0,.35,0,.71-.07,1.07-1.93,48.9-.8,97.81-.89,146.72,0,1.62-.42,3.31.46,4.86,3.2-1.19,10.42-10.77,12-15.9-1.46-1.29-3.67.12-5.25-1.58,1.32-1.77,3.26-.95,4.87-1.11,3.28-.32,3.63-.54,3.79-3.9s.31-6.66.18-10c-.55-14.15.34-28.29,1.17-42.37,1.2-20.47.46-40.91.78-61.36,0-1.84.11-3.68-1.14-5.24l.06-2.15H956l2-.91c.39,1.64,1.59,2,3.05,1.91,1.76-.07,3.33.25,4.15,2.08l-1,.08c-5,.29-5.17.36-5,5.11.11,3.31.68,6.61.71,9.92.11,12.14.61,24.32-.08,36.42-.54,9.61-.31,19.25-1.45,28.84a108.91,108.91,0,0,0-.32,14.46,127.21,127.21,0,0,1-1.6,23.31c-.49,2.9.07,3.48,3,3.72.66.05,1.33,0,2,0l123.26.16a17.18,17.18,0,0,1,2.45.34,3.22,3.22,0,0,0,3,1.59c3.45,4.5,8.53,7.22,11.73,11.51,1.5-.41,1.32-1.18,1.33-1.78.62-23.09,1.23-46.19.65-69.28-.36-14.45-.25-28.92-1.05-43.33-.54-9.48-.36-18.93-.62-28.38l-.12-2.83a3.62,3.62,0,0,1,2.07-1.9c1.21.18,3.1-.27,2.39,2s-.34,4.63-.43,7c-.72,17.31,1.43,34.58,1,51.88-.17,6.18,1.28,12.25.94,18.39-.29,5.3-1,10.56-.9,15.9.16,8.49-.2,17,.09,25.49.38,10.83-1.23,21.58-1.11,32.39,0,3.21-.67,3.74-3.77,4-.5,0-1,0-1.5,0-11.46.39-23-.86-34.39.92a4.91,4.91,0,0,1-2.47-.19c-2.27-.87-4.6-.68-6.92-.67-10.47,0-20.94.49-31.39.75-23,.57-46,.19-69,.18a51.48,51.48,0,0,1-7.42-.63c-3.33-.48-6.95-1.4-10.12,1-.59.43-1.48.5-1.69-.22-.5-1.75-2.55-2.67-2.35-4.79.5-5.34-.9-10.58-.9-15.89q-.08-58.24-.05-116.49a20.24,20.24,0,0,1,.16-4.48c1.37-5.86.89-11.88,1.71-17.8.75-5.45.39-5.64,5.78-5.64,8.8,0,17.61.64,26.39.79,42.45.74,84.93-.53,127.38,1.14,3,.12,5.9.88,8.87,1.15a1.38,1.38,0,0,1,1.44,1.63c-.12,1.05-1,1.15-1.83,1.38Q1045,153,985.83,152.91ZM1102.2,308.06c-3.68-5-7.72-8.12-11.39-11.6-.72-.69-1.79-1.09-2.32-1.87-3.59-5.35-8.92-5.12-14.25-4.32a61.55,61.55,0,0,1-8.45.59q-52.44.5-104.9,0c-4.36-.05-7.63.45-9.49,5.09-1.08,2.71-3.33,4.94-5,7.39-.84,1.19-2.05,2.2-1.84,4.44C996.94,309.92,1049.1,307.17,1102.2,308.06Z"/><path class="cls-9" d="M1102.11,155.91a3.62,3.62,0,0,1,2.07-1.9c0-.31-.07-.61-.11-.91q-59.11-.07-118.24-.19c-10.45,0-20.88-.75-31.3-1.67-4.3-.38-8.65-.09-13-.21-2.16-.06-2.46,1.17-2.36,2.86,6.41,1.1,11.11,5.21,16,9.06H956c.26-.85-.18-2.17,1.16-2.32.74-.09.88.74.87,1.41.39,1.64,1.59,2,3.05,1.91,1.76-.07,3.33.25,4.13,2.08l.4,0c.3-1.63,1.45-2,2.89-2,5.08,0,10.16,0,15.24,0,1.44,0,2.58.39,2.93,2h7.94a2.27,2.27,0,0,1,2.44-1.93c5.35.2,10.73-.44,16.05.59,2-.57,3.92.38,5.92.31,11.66-.43,23.26,1.18,34.91,1.13a19,19,0,0,1,2,.13c8.08.85,16.16,1.67,24.28,1.9,2,0,4,.06,5,2.35l1.5.51a5.44,5.44,0,0,1,3.47-5l.92-.84.31.54-1.25.28c0,1.66-.17,3.32-.06,5,.62,9.93,1.73,19.84,1.86,29.77.16,12.63,1.29,25.21,1.18,37.84,0,5.48-.18,11,0,16.45.33,8.5-.62,16.93-1.23,25.36-.24,3.18,0,6.63-1.74,9.62,3.45,4.5,8.53,7.22,11.73,11.51,1.5-.41,1.32-1.18,1.33-1.78.62-23.09,1.23-46.19.65-69.28-.36-14.45-.25-28.92-1.05-43.33-.54-9.48-.36-18.93-.62-28.38-3.49.4-5.38,3.89-8.69,4.71C1095.35,159.63,1098.43,157.42,1102.11,155.91Z"/><path class="cls-10" d="M936.57,486.33l-.91-67-.92-68c0-3.11.27-6.85,3-8.31a8.56,8.56,0,0,1,4-.67l159.54-.91a3.54,3.54,0,0,1,4.37,4.11A1399.37,1399.37,0,0,1,1107,485.8c-.13,3.29-.27,6.57-.62,9.84-.22,2,0,5.43-2.26,6.22-2.5.86-6,.52-8.58.72q-4.89.36-9.79.69-33.75,2.28-67.6,2.82t-67.65-.64a56,56,0,0,0-7.33.07c-2.07.2-4.27,1.68-6.32,1.52-.09-1.68-.07-3.37-.1-5.05Zm164.49-139.79c-.25-1.32-.92-1.59-1.91-.54-33.32-.15-66.65-.41-100,.26-6.14.13-12.29.58-18.45.66-12.49.16-24.93-.61-37.37-1.65-3.21-.26-4.29.61-4.29,3.78.07,27.66-.21,55.33.44,83,.3,12.48.12,25,.83,37.44.5,8.81.87,17.62.89,26.44.09,1.11.19,2.21.28,3.32-.09,1.27.55,1.84,1.76,1.82,7.15-.14,14.32,0,21.45-.5a238.64,238.64,0,0,1,29.9,0c3.82.21,7.63.22,11.45.31,3.33.09,6.66,0,10,.05,17,.46,33.91-.78,50.87-1.09,10.61-.2,21.21-1.19,31.82-1.82,1-.06,2-.06,2.63-1.05a2.06,2.06,0,0,0,.71-2.09c-.1-43.15.43-86.3,0-129.46,0-5.5-1.15-10.92-.91-16.43A17.38,17.38,0,0,0,1101.06,346.54Z"/><path class="cls-10" d="M1119.25,343.46c0,4.13.64,8.33.8,12.46.18,4.35.19,8.71.23,13.06.1,10.7-.15,21.39-.11,32.09a3.34,3.34,0,0,0,.49,2.14c2.66,3.39,3.68-8,3.71-8.84.39-10.1.53-20.21.19-30.3-.17-5-.65-10-.89-15-.23-4.71-.21-9.41-.77-14.1-.31-2.57-3.53-3.59-3.62-.5S1119.25,340.47,1119.25,343.46Z"/><path class="cls-10" d="M921.14,208.83c0-12.74-.89-25.61-1.94-38.31-.3-3.63-3.22-1.26-3.78.92-.95,3.71-.13,8.24.1,12,.27,4.52.67,9,1,13.56.62,8,1,15.95,1.61,23.93.07,1,.26,2.32,1.4,2.3,1.5,0,1.55-1.49,1.56-2.64C921.16,216.61,921.14,212.61,921.14,208.83Z"/><path class="cls-8" d="M925.51,511.24c1.59-1.05,1.59-2.72,1.59-4.36q0-8.73,0-17.46a11.9,11.9,0,0,0-.1-2c-.2-1-.66-2-1.86-2a1.85,1.85,0,0,0-1.87,2,72.9,72.9,0,0,0,0,11,88.09,88.09,0,0,1,1,10.88A1.9,1.9,0,0,0,925.51,511.24Z"/><path class="cls-10" d="M937.17,507c-.14.07-.4.16-.39.2.05.31.2.23.36-.23Z"/><path class="cls-11" d="M965.62,166l-.4,0-1,.08c-5,.29-5.17.36-5,5.11.11,3.31.68,6.61.71,9.92.11,12.14.61,24.32-.08,36.42-.54,9.61-.31,19.25-1.45,28.84a108.91,108.91,0,0,0-.32,14.46,127.21,127.21,0,0,1-1.6,23.31c-.49,2.9.07,3.48,3,3.72.66.05,1.33,0,2,0l123.26.16a16.85,16.85,0,0,1,2.44.34c2.1-1.94,1.79-4.5,1.83-7,.54-32.05-.14-64.08-1.07-96.11-.14-4.78-.85-9.54-1.3-14.31l-1.5-.51c-5.6-.92-11.28-.26-16.88-.73-11.09-.93-22.18-1.78-33.3-1.77-7.33,0-14.6-.71-21.88-1.22a91,91,0,0,1-18.51-.76h-7.94C979.66,167,972.64,167.6,965.62,166Z"/><path class="cls-9" d="M944.52,307.74c52.42,2.18,104.58-.57,157.68.32-3.68-5-7.72-8.12-11.39-11.6-.72-.69-1.79-1.09-2.32-1.87-3.59-5.35-8.92-5.12-14.25-4.32a61.55,61.55,0,0,1-8.45.59q-52.44.5-104.9,0c-4.36-.05-7.63.45-9.49,5.09-1.08,2.71-3.33,4.94-5,7.39C945.52,304.49,944.31,305.5,944.52,307.74Z"/><path class="cls-12" d="M939.13,155c-1.93,48.9-.8,97.81-.89,146.72,0,1.62-.42,3.31.46,4.86,3.2-1.19,10.42-10.77,12-15.9-1.46-1.29-3.67.12-5.25-1.58,1.32-1.77,3.26-.95,4.87-1.11,3.28-.32,3.63-.54,3.79-3.9s.31-6.66.18-10c-.55-14.15.34-28.29,1.17-42.37,1.2-20.47.46-40.91.78-61.36,0-1.84.11-3.68-1.14-5.24-2-.39-3.46-1.73-5.12-2.77C946.27,160,943.46,156.35,939.13,155Z"/><path class="cls-13" d="M1086.69,171c.45,4.77,1.16,9.53,1.3,14.31.93,32,1.61,64.06,1.07,96.11,0,2.48.27,5-1.83,7a3.25,3.25,0,0,0,3,1.59c1.7-3,1.5-6.44,1.74-9.62.61-8.43,1.56-16.86,1.23-25.36-.22-5.47-.09-11,0-16.45.11-12.63-1-25.21-1.18-37.84-.13-9.93-1.24-19.84-1.86-29.77-.11-1.65,0-3.31.06-5l0,0A5.44,5.44,0,0,0,1086.69,171Z"/><path class="cls-13" d="M939.13,155c4.33,1.39,7.14,5,10.85,7.37,1.66,1,3.12,2.38,5.12,2.77l.06-2.15c-4.85-3.85-9.55-8-16-9.06C939.18,154.24,939.16,154.6,939.13,155Z"/><path class="cls-13" d="M1102.11,155.91c-3.68,1.51-6.76,3.72-8.57,7.54,3.31-.82,5.2-4.31,8.69-4.71Z"/><path class="cls-13" d="M958,162c0-.67-.13-1.5-.87-1.41-1.34.15-.9,1.47-1.16,2.32Z"/><path class="cls-13" d="M1013.13,166.78c7.28.51,14.55,1.22,21.88,1.22,11.12,0,22.21.84,33.3,1.77,5.6.47,11.28-.19,16.88.73-1-2.29-3-2.3-5-2.35-8.12-.23-16.2-1.05-24.28-1.9a19,19,0,0,0-2-.13c-11.65,0-23.25-1.56-34.91-1.13-2,.07-3.92-.88-5.92-.31C1013.11,165.38,1013.12,166.08,1013.13,166.78Z"/><path class="cls-8" d="M965.62,166c7,1.59,14,1,21.06,0-.35-1.59-1.49-2-2.93-2-5.08,0-10.16,0-15.24,0C967.07,164,965.92,164.38,965.62,166Z"/><path class="cls-8" d="M1013.13,166.78c0-.7,0-1.4,0-2.1-5.32-1-10.7-.39-16.05-.59a2.27,2.27,0,0,0-2.44,1.93A91,91,0,0,0,1013.13,166.78Z"/><path class="cls-13" d="M1090.14,166l1.25-.28-.31-.54-.92.84Z"/><path class="cls-9" d="M946.85,501h154.3v-3.78a3.21,3.21,0,0,1-2.41.75c-10.61.63-21.21,1.62-31.82,1.82-17,.31-33.89,1.55-50.87,1.09-3.32-.09-6.65,0-10-.05-3.82-.09-7.63-.1-11.45-.31a238.64,238.64,0,0,0-29.9,0C958.78,501,952.81,500.94,946.85,501Z"/><path class="cls-9" d="M1101.37,496.92l-.22-.18v.48A2.32,2.32,0,0,0,1101.37,496.92Z"/><path class="cls-9" d="M942.69,501a2.67,2.67,0,0,0,.58.05l3.58-.05Z"/><path class="cls-9" d="M1101.15,348.94v1.62q0-.81,0-1.62Z"/><path class="cls-9" d="M1102.09,365.37c0-5-.94-9.86-.94-14.81V494.22c.3.21.6.41.92.61C1102,451.68,1102.51,408.53,1102.09,365.37Z"/><path class="cls-9" d="M941.15,347V501h5.7c6-.06,11.93,0,17.87-.45a238.64,238.64,0,0,1,29.9,0c3.82.21,7.63.22,11.45.31,3.33.09,6.66,0,10,.05,17,.46,33.91-.78,50.87-1.09,10.61-.2,21.21-1.19,31.82-1.82a3.21,3.21,0,0,0,2.41-.75V347Z"/><path class="cls-9" d="M939.51,432c.3,12.48.12,25,.83,37.44.37,6.61.68,13.21.81,19.83V348.81a4.8,4.8,0,0,1-.27-1.47l.27.14V347H1098l1.12-1c-33.32-.15-66.65-.41-100,.26-6.14.13-12.29.58-18.45.66-12.49.16-24.93-.61-37.37-1.65-3.21-.26-4.29.61-4.29,3.78C939.14,376.71,938.86,404.38,939.51,432Z"/><path class="cls-9" d="M1086.12,479l0,0,0,0,0-.06Z"/><path class="cls-10" d="M1086.17,479a14.92,14.92,0,0,0,1.94-7.91c-.12-9,.37-17.95.84-26.92.71-13.65-.56-27.29-1.12-40.91-.42-10.14-.52-20.28-.8-30.42,0-1.17.25-2.44-.11-3.49-1.83-5.36,0-9.11,4.51-12.22,2.29-1.59,4-4,6-5.95,1-1,2-2.33,3.7-2.28a17.38,17.38,0,0,0-.12-2.4c-.25-1.32-.92-1.59-1.91-.54a67.12,67.12,0,0,0-9.69,10c-1,1.27-2.13,2.9-4,.92a1.32,1.32,0,0,0-1.79-.3c-4.26,2.88-9.26,2.17-13.83,2.16-14.14,0-28.23,1.08-42.34,1.58-8.13.29-16.28.86-24.39.43-12.43-.65-24.86-1.24-37.29-1.84-4.61-.22-9.3-.27-13.62-2.3-.29,1,0,2.84-2,1.51l-4,.06-.06,1.78c8.92.15,8.52.38,7.64,9.43a89.88,89.88,0,0,0,0,17.89c.17,1.65.27,3.32.28,5,.09,13.32.34,26.64.15,40-.15,10.33.92,20.6,1.14,30.9a30.75,30.75,0,0,0,.86,4.89l1.71-.11c.68-5-.75-9.91-.72-14.91q.17-31.74-.2-63.48c-.09-7.14-1-14.27-.74-21.43,0-1.17-.06-2.35.09-3.5.38-3,1-3.71,4.2-3.54,5.64.29,11.29.62,16.89,1.31a51.68,51.68,0,0,0,7.44.58c8.49-.18,16.91,1.15,25.42,1,12.64-.16,25.26-.68,37.85-1.81a60.87,60.87,0,0,1,8-.17c7.67.32,15.27-1,22.92-1,4.14,0,4.18,0,4.27,4.15.34,14.14.16,28.31,1.07,42.42,1.31,20.14.58,40.28.68,60.42,0,1,0,2,0,3,.28,4.48-5.78,3-8.69,3-5-.1-9.91-.38-14.86-.59-8-.33-16-.25-24-.37-6.53-.1-13.15-.76-19.65-.57-6.83.19-13.66.36-20.49.21-10.62-.22-21.34-1.18-31.8.67a3.08,3.08,0,0,0-1.57.6,1.09,1.09,0,0,0-.16,1.51,1.63,1.63,0,0,0,1.09.31c6.54.19,13.18.11,19.68.67a136,136,0,0,0,19.88.3,283.65,283.65,0,0,1,29.44-.5q23.46.94,46.92.56C1083.14,476.74,1084.62,477.79,1086.17,479Z"/><path class="cls-10" d="M957.88,467.9l-1.71.11a11.46,11.46,0,0,1-2.7,8.65A93.48,93.48,0,0,0,944.61,491c-.93,1.76-3,3.56-4.46,5,.09,1.11-.09,2.89,0,4,2.37-1.48,4.69-4.76,6-7q4.82-8.08,9.69-16.15C957.55,474.07,958.59,471.19,957.88,467.9Z"/><path class="cls-10" d="M1102.08,494.83c-5.07-3.15-7.93-8.39-11.86-12.62-1.22-1.32-2.89-5.15-5.07-5.21a67.89,67.89,0,0,0,16.22,19.92A2.06,2.06,0,0,0,1102.08,494.83Z"/><path class="cls-10" d="M950.21,358.12c2,1.33,1.72-.49,2-1.51-2.81-4.29-6.85-7-11.34-9.27.1,2.72,2,4,3.76,5.3C946.75,354.24,948.91,355.73,950.21,358.12Z"/><path class="cls-10" d="M946.15,360l.06-1.78a7.53,7.53,0,0,0-1.41-.12c-.87.07-2.19-.21-2.06,1.19.09.88,1.23.74,2,.77A13.68,13.68,0,0,0,946.15,360Z"/><path class="cls-14" d="M554.73,19.47c2.55-4.12,3.92-8.89-1.6-10.45-2.38-.67-4.82-1.56-7.25-1.6-8.88-.16-16.68,3.15-24,8-2.18,1.45-1.7,2.85-.86,4.87,1.12,2.74,2.38,5.73,2.3,8.57-.17,5.73-1.21,11.43-1.88,17.14-.51,4.24-1.4,8.49-1.28,12.71,0,1.41,2.46,3.46,4.15,3.94,3.12.88,3.37-2.5,3.67-4.66.54-3.93.75-12.15,6.16-11.73s10.91.59,16.38.71c.76,0,6.69.18,5.22-1.56-2.28-2.68-6.1-3.59-9.42-4.17-1.74-.3-3.5-.47-5.25-.75-.56-.09-5-1.43-5.16-1.28C540.87,34.56,545.8,30,550.43,25A37,37,0,0,0,554.73,19.47ZM533.64,30.53a.35.35,0,0,1-.14,0,1.13,1.13,0,0,1-.57-.69,10.72,10.72,0,0,1,6-14.2,17.56,17.56,0,0,1,5-1.15,5.88,5.88,0,0,1,2.54.11c1.42.61.94.88,0,2-3.88,4.51-7.88,8.92-11.82,13.37C534.36,30.24,534,30.57,533.64,30.53Z"/><path class="cls-14" d="M511.68,20.61a1.46,1.46,0,0,0-.55-.16,2.83,2.83,0,0,0-1.39.31,12.64,12.64,0,0,0-4.59,3.66c-1.26,1.54-2.07,3.36-3.26,4.94-.36.48-1,1.28-1.62.71a1.9,1.9,0,0,1-.5-1.29c-.38-3.56.22-7.26.51-10.81.32-3.85.64-7.7.91-11.56.17-2.52,1.09-5.41-2.84-6.27s-4.11,2.09-4.83,4.31c-2.69,8.2-5.68,16.5-8,24.89-2.4,8.65-3.5,17.49-5.23,26.28a3.41,3.41,0,0,0,0,1.82c.77,2.17,4.43.36,5.31-.8a8.57,8.57,0,0,0,1.25-3.15C488.11,48.3,489.1,43.23,490,38c.14-.83.45-3.19,1.48-3.44,1.66-.41,2.15,4.39,2.47,5.4.46,1.47,1.57,4,3.36,4.09s3.6-1.94,4.76-3,1.82-2.64,3-4.51c-.64,10.42-1.33,19.9-1.7,29.4-.06,1.41,1.17,3.91,2.19,4.14,2.68.58,3.18-1.76,3.45-4,.94-7.83,1.93-15.66,2.87-23.5q.72-6,1.38-11.91a26.55,26.55,0,0,0,.33-5.63C513.49,23.92,513,21.3,511.68,20.61Z"/><path class="cls-14" d="M1089.63,13.82a.61.61,0,0,0-.05-.12,5.94,5.94,0,0,0-4.67-2.95c-3.26-.4-6.58.61-9.74,1.31a89.72,89.72,0,0,0-10.3,2.84A45,45,0,0,0,1053,21c-3.07,2.26-7.6,5.91-6.59,10.28.79,3.4,6.08,4.5,8.87,5.41a76.16,76.16,0,0,0,17.27,3.15,16.51,16.51,0,0,1,6,1.2c1.4.69,1.58,1.8.7,3a23.63,23.63,0,0,1-7,6.35,34.19,34.19,0,0,1-4.25,2.2c-.87.38-3.68.9-3.7,2.07a2.28,2.28,0,0,0,.58,1.34,8,8,0,0,0,4.69,3.38,8.67,8.67,0,0,0,4.72-.7c7.2-2.81,19-15.14,8-20.81-4.49-2.32-9.57-3.64-14.52-4.94a57.33,57.33,0,0,0-6.38-1.19c-1.21-.17-8.06-.11-6.77-2.66a3.2,3.2,0,0,1,1.49-1.24c4.21-2.22,8.42-4.44,12.8-6.3,4.17-1.78,8.87-3.69,13.43-4.06-.14,0,.15.74.26.83.29.25.68.15,1,.12,2.22-.19,4.45-2.19,5.79-3.83a1,1,0,0,0,.26-.48A.67.67,0,0,0,1089.63,13.82Z"/><path class="cls-14" d="M1046.43,19.47c2.54-4.12,3.91-8.89-1.6-10.45-2.39-.67-4.83-1.56-7.26-1.6-8.88-.16-16.68,3.15-24,8-2.18,1.45-1.69,2.85-.86,4.87,1.12,2.74,2.39,5.73,2.31,8.57-.17,5.73-1.21,11.43-1.89,17.14-.5,4.24-1.39,8.49-1.28,12.71,0,1.41,2.46,3.46,4.15,3.94,3.12.88,3.38-2.5,3.68-4.66.54-3.93.74-12.15,6.15-11.73s10.92.59,16.38.71c.76,0,6.7.18,5.22-1.56-2.28-2.68-6.1-3.59-9.42-4.17-1.74-.3-3.5-.47-5.25-.75-.56-.09-5-1.43-5.15-1.28,4.92-4.62,9.86-9.22,14.48-14.15A37.59,37.59,0,0,0,1046.43,19.47Zm-21.1,11.06a.31.31,0,0,1-.13,0,1.1,1.1,0,0,1-.57-.69,10.73,10.73,0,0,1,5.94-14.2,17.63,17.63,0,0,1,5.06-1.15,5.83,5.83,0,0,1,2.53.11c1.43.61.94.88,0,2-3.88,4.51-7.88,8.92-11.82,13.37C1026.06,30.24,1025.7,30.57,1025.33,30.53Z"/><path class="cls-14" d="M1003.38,20.61a1.52,1.52,0,0,0-.55-.16,2.87,2.87,0,0,0-1.4.31,12.52,12.52,0,0,0-4.58,3.66c-1.27,1.54-2.08,3.36-3.27,4.94-.36.48-1,1.28-1.62.71a1.9,1.9,0,0,1-.5-1.29c-.38-3.56.23-7.26.52-10.81.31-3.85.63-7.7.9-11.56C993.05,3.89,994,1,990,.14c-3.78-.82-4.1,2.09-4.83,4.31-2.68,8.2-5.68,16.5-8,24.89C974.81,38,973.7,46.83,972,55.62a3.51,3.51,0,0,0,0,1.82c.77,2.17,4.44.36,5.31-.8a8.59,8.59,0,0,0,1.26-3.15c1.29-5.19,2.28-10.26,3.17-15.52.14-.83.45-3.19,1.48-3.44,1.65-.41,2.14,4.39,2.46,5.4.47,1.47,1.58,4,3.36,4.09s3.6-1.94,4.76-3,1.82-2.64,3-4.51c-.65,10.42-1.34,19.9-1.71,29.4-.05,1.41,1.17,3.91,2.19,4.14,2.68.58,3.19-1.76,3.45-4,.94-7.83,1.93-15.66,2.88-23.5.47-4,.94-7.94,1.38-11.91a27.93,27.93,0,0,0,.33-5.63C1005.19,23.92,1004.69,21.3,1003.38,20.61Z"/></g></g></svg>