<svg xmlns="http://www.w3.org/2000/svg" viewBox="0 0 1274.61 676.31"><defs><style>.cls-1{fill:#e4e4e4;}.cls-2{fill:#feb326;}.cls-3{fill:#ff8500;}.cls-4{fill:#791579;}.cls-5{fill:#7f58af;}.cls-6{fill:#511654;}.cls-7{fill:#ff5705;}.cls-8{fill:#ff8a08;}.cls-9{fill:#ff8b0a;}.cls-10{fill:#ff8806;}.cls-11{fill:#ffb427;}.cls-12{fill:#e74c8a;}.cls-13{fill:#d3467f;}.cls-14{fill:#b13e6d;}.cls-15{fill:#af3b6a;}.cls-16{fill:#fefdfe;}.cls-17{fill:#e84d8a;}</style></defs><title>slide_17</title><g id="Layer_2" data-name="Layer 2"><g id="Layer_1-2" data-name="Layer 1"><path class="cls-1" d="M560.91,251.11c1.33-3.17,3.85-4,5.85-5.47a28.67,28.67,0,0,0,6.1-5.42,2.85,2.85,0,0,0,.34-3.5,3.05,3.05,0,0,0-3.26-1.38,17.16,17.16,0,0,0-7,2.81c-5.74,3.87-11.5,7.72-17.12,11.77-3.41,2.45-4.1,5.38-1.5,8.71,4.67,6,7.06,12.81,9.08,19.91a24,24,0,0,0,4,8.51c1,1.26,2.05,3,4.09,1.93,1.6-.81,1.43-2.43,1.25-3.9a71.53,71.53,0,0,0-4.07-15.83c-.56-1.51-1.81-2.85-1.23-4.67,1.5-.74,3-.2,4.31.22,34.73,10.72,67.88,24.71,97,47,4.16,3.19,8.1,6.69,12.13,10.05,1,.81,1.88,1.69,2.89,2.44,1.46,1.09,3.1,1.5,4.65.31,1.8-1.4,1.66-3.27.75-5.11a37.16,37.16,0,0,0-5-7.29c-7.35-8.82-16.37-15.7-25.9-21.89a298.4,298.4,0,0,0-84.66-38.18C562.91,251.92,562.18,251.58,560.91,251.11Z"/><path class="cls-2" d="M256.1,116.19a34,34,0,0,0-6.9,6.86c-6.91,9-11.47,20.24-6.71,31.38a27.4,27.4,0,0,0,2.66,4.8c14.77,21.47,37.92,37,78.38,38S393,182.14,389.71,163,360.49,115.62,323,108.89a123.31,123.31,0,0,0-41.36-.21c-7.15,1.17-14.5,2.34-20.88,4.92A22,22,0,0,0,256.1,116.19Z"/><path class="cls-2" d="M57.2,144.77a45.24,45.24,0,0,0-7.34,9c-7.45,11.61-12.65,26.06-8.43,39.82a34,34,0,0,0,2.44,5.9c13.8,26.23,36.38,44.54,77.22,43.71s71-22.66,68.69-46.56-27.05-58.06-64.6-64.56A101.13,101.13,0,0,0,83.39,134c-7.29,1.84-14.78,3.71-21.36,7.28A25,25,0,0,0,57.2,144.77Z"/><path class="cls-2" d="M145.68,401.75a45.28,45.28,0,0,0,3.14-11.17C151,377,150,361.63,140.66,350.7a34.36,34.36,0,0,0-4.59-4.43C113,327.72,84.94,320,47.82,337s-56,49.13-44.4,70.11,48,42.44,85,33.42A101,101,0,0,0,126,422.09c5.95-4.59,12.08-9.29,16.68-15.2A24.14,24.14,0,0,0,145.68,401.75Z"/><path class="cls-2" d="M257.6,566.76a31.68,31.68,0,0,0,5.83-7c5.63-8.89,8.8-19.73,3.21-29.56a26.09,26.09,0,0,0-3-4.18c-16.06-18.43-39.43-30.59-77.69-27.78S122,518.68,127,536s32.27,41,68.3,43.71a119.62,119.62,0,0,0,39-3.66c6.63-1.74,13.44-3.51,19.2-6.48A20.84,20.84,0,0,0,257.6,566.76Z"/><path class="cls-3" d="M213.39,298.47a56.77,56.77,0,0,0-5.87,13c-5.26,16.18-7.12,35.11,1.66,50.44a42.89,42.89,0,0,0,4.48,6.39c23.34,27.54,54.52,43,101.23,30S390,350.05,380.58,322s-47.65-62-92.67-58.78a115.33,115.33,0,0,0-47.49,14.6c-7.86,4.35-15.93,8.8-22.48,15A30.44,30.44,0,0,0,213.39,298.47Z"/><path class="cls-2" d="M367.08,468.94a40.21,40.21,0,0,0-6,9.8c-5.41,12.19-7.46,26.41,1.16,37.82a31.78,31.78,0,0,0,4.42,4.75c23,20.43,54.06,31.67,100.88,21.45s75.61-36.9,66.43-57.88-47-46-92-43.16a146.65,146.65,0,0,0-47.62,11.43c-7.89,3.34-16,6.76-22.62,11.51A26.43,26.43,0,0,0,367.08,468.94Z"/><path class="cls-4" d="M742.68,413.1c2.6,15.59-35.16,36.6-10,49.52s42.58,2,52.63,14.24-7.42,24.52,17.7,44.61,100.48,12.92,127-15.07,29.43-55.26,32.3-84.69,3.59-39.47-25.84-40.19-35.88-3.59-38.75-15.79S876,328.49,848,332.08s-33.58,12.84-55.82,25.76S739.1,391.57,742.68,413.1Z"/><path class="cls-5" d="M913.54,388.88c-.46,2,.45,3.84.23,6.15-.28,3.06-4.25,2-7.16,3-18,6.15-36,2.85-54-2-17.23-4.64-33.23-13.34-50-19-3.29-1.11-7.5-5-11-5-17.65,0-39-8.54-28.91-42.59s15.13-39.09,36.57-34.05,64.31-5,79.44,8.83,21.44,31.53,35.31,44.14c5.91,5.37,8.57,13.95,8.27,21.78a26.47,26.47,0,0,1-3,11.49c-1.21,2.3-3.72,3.51-5,5.7A5.5,5.5,0,0,0,913.54,388.88Z"/><path class="cls-5" d="M942.62,401.68c.59-6.33,5.3-11.48,10-15.31,5.58-4.53,10.42-9.74,15.74-14.54,9.19-8.27,27.84-7.16,38.28-2.07,11.12,5.42,16.12,17.08,6.51,26.7-13.6,13.59-37.36,30-57.32,20.43-3.43-1.64-6.5-3.78-10.1-5.13a5.44,5.44,0,0,1-2.27-1.25C941.77,408.69,942.41,404,942.62,401.68Z"/><path class="cls-5" d="M895.84,442.9s58-11.35,89.53,5,35.31,36.57,25.22,44.14-29,6.3-41.61,13.87-35.31,17.65-55.48,5-39.09-20.18-36.57-30.26S861.8,454.25,895.84,442.9Z"/><path class="cls-5" d="M727.53,454.33a13.48,13.48,0,0,0,4.67-3.71,46.21,46.21,0,0,1,13.43-10.3,41.94,41.94,0,0,1,32.94-2.21c31.53,11.35,70.62,20.18,64.31,44.14s-7.56,34-70.61,31.52-97.1,25.22-95.84,0c1.12-22.31,10.2-53,35.35-58.2a38,38,0,0,1,10.48-.55A11.13,11.13,0,0,0,727.53,454.33Z"/><path class="cls-5" d="M783.61,408c-2.81-10.14-9.55-22.75-13-26.55-7.22-7.9-16.89-14.72-28.06-14.21-27.74,1.26-61.79-12.61-78.18,5s11.87,41.46,28.26,42.72,37.31,6.46,67.57,6.46c7.24,0,15.45.75,22.55-1.1C788.67,418.82,785.14,413.49,783.61,408Z"/><path class="cls-6" d="M984.7,447.34c-7.13-2.3-14.46-4.18-21.34-7.12L964,420.1c16.09,3.84,32.33-5.68,44.59-16.79,5-4.58,10.08-10.09,10.66-16.89.89-10.59-9.53-19-19.87-21.46a45.37,45.37,0,0,0-36.31,7c-3.41,2.42-6.59,5.36-10.58,6.61a28.05,28.05,0,0,1-8.82.81L920.37,379c5.17-7.75,2.84-18.48-2.23-26.3s-12.45-13.85-18.23-21.16c-8.6-10.86-14.22-25.06-26.54-31.38-6.88-3.54-14.87-4-22.6-4.42l-57-3c-5.43-.28-11.36-.43-15.74,2.81-3.11,2.31-4.89,6-6.52,9.48-4.92,10.63-9.65,21.6-10.89,33.26s1.51,24.26,9.78,32.57a162.09,162.09,0,0,1-17.83-2l-42-6.31c-8.82-1.32-17.77-2.65-26.62-1.54s-17.73,5-22.92,12.26-5.66,18.17.42,24.69c5.31,5.69,14.18,7.09,19.19,13a7,7,0,0,0-8.54,4.27c22,1.66,44.1,3.33,65.78,7.53a53.75,53.75,0,0,0-17.95,29.67A55.82,55.82,0,0,0,682.08,474a55.19,55.19,0,0,0-9.41,19.92,60.7,60.7,0,0,0-1.37,12.4c-.15,3.83-1.26,8.44-.83,12.18.56,4.91,6.46,8.17,10.87,8.51,5.65.44,11.08-1.93,16.41-3.85,28.58-10.26,59.91-8.08,90.19-5.76a31.24,31.24,0,0,1,8.22,1.39c3.66,1.33,6.66,4,9.87,6.19,17.36,11.95,40.31,10.79,61.22,8.16,16.64-2.1,34.25-5.33,46.59-16.69-17.86,5.3-35.89,10.62-54.47,12s-38-1.33-53.8-11.19c22,1.22,42.42-20.08,40.28-42-.58-5.91-2.64-11.83-6.67-16.18-3.88-4.19-9.24-6.63-14.46-8.92-16.06-7.07-32.62-13.88-50.11-15.24s-36.33,3.56-47.94,16.72a64,64,0,0,1,14.93-24.95,9.87,9.87,0,0,1,3.91-2.82,10.7,10.7,0,0,1,4.68-.06c11.43,1.52,23.61,2.73,34-2.25a9.51,9.51,0,0,0,4.48-3.68c1.65-3,.26-6.71-1.19-9.81a304.06,304.06,0,0,0-19.14-34.81c19.43-3,37.8,8.13,55.91,15.76a166.65,166.65,0,0,0,79.24,12.31c3.7-.33,8-1.2,9.61-4.55s-.19-7.78,2.12-10.63c1.71-2.11,4.81-2.26,7.53-2.24l23.6.23A39.76,39.76,0,0,0,938,402c-.52,2.74-.6,6,1.41,7.9,1.65,1.6,4.16,1.77,6.39,2.34,9.69,2.46,15.15,15.11,10.31,23.86a5.67,5.67,0,0,1-2,2.29c-1.54.88-3.47.43-5.2,0a99.24,99.24,0,0,0-60.87,4.5c-8.93,3.67-18.59,11.06-17.14,20.61.91,6,6.18,10.76,7,16.82.35,2.58-.16,5.25.45,7.78,1,4.25,4.85,7.12,8.43,9.62,16.57,11.56,35.79,23.38,55.6,19.39,12.32-2.48,22.71-10.81,34.79-14.32,12.74-3.7,28.78-3,36.07-14.09,7.41-11.27-.67-27-12.09-34.19A72.56,72.56,0,0,0,984.7,447.34ZM727.32,461c2.82-3.49,5.88-6.79,9-10C744,443,754,440,764.58,438.92c13.06-1.38,24.88,3.44,36.74,7.8,5.78,2.13,11.37,4.74,17.14,6.87,4.59,1.7,8.59,4.33,12.7,6.86,5.18,3.19,7.27,8.15,7.67,13.84a46.6,46.6,0,0,1-3.16,20,20.08,20.08,0,0,1-11.89,12A63.15,63.15,0,0,1,798,511.2c-8.83-.27-17.69.29-26.49-.27-11.8-.74-23.6-1.19-35.41-.87-15.08.42-29.6,4-43.8,8.87a73.31,73.31,0,0,1-8.07,2.54c-4.14.91-6.48-.38-7.22-4.49a19.58,19.58,0,0,1-.13-7c1.93-10.13,4.19-20.13,9-29.47,6.53-12.78,17-19.64,30.87-21.68,1.55-.22,3.1-1.47,4.75-.33.42,1.22-.52,1.84-1.08,2.62-5.33,7.43-11,14.62-15.59,22.55a16.34,16.34,0,0,0-.92,2.29l3.11.08a67.56,67.56,0,0,0,4.59-5.86C716,473.15,722.1,467.44,727.32,461ZM774,391.57a93.25,93.25,0,0,0,8.89,18.92c1.87,3.1,1.59,4.35-1.64,5.88-6.54,3.11-13.47,3.34-20.47,2.18-10.46-1.74-20.88-3.78-31.36-5.39a238.87,238.87,0,0,0-35.26-2.31c-2.33,0-4.65-.14-7-.21a17.33,17.33,0,0,1-3.93.36,16.79,16.79,0,0,0,3.93-.37c-1.85-3.76-5.89-4.66-9-6.75-3.29-2.22-6.73-4.2-9.87-6.67-4.87-3.85-5.52-8.86-4-14.34a72.48,72.48,0,0,1,3.45-8.79c2.41-5.62,7.14-8.25,12.84-8.92a46.89,46.89,0,0,1,12.4.25c6.21.91,12.46,1.51,18.69,2.33,10,1.32,20,2.64,30.19,2.16,1.32-.07,2.64-.17,4-.26h0l2.89.16,2,.24h0C761.12,374.46,770.23,380,774,391.57Zm138.26-13.31c-1.11,1.66-2.34,3.24-3.38,4.94-1.51,2.46-2.36,5-1.48,8s0,4.13-3.26,4.73c-12,2.22-24,1.93-36.16.49-10.11-1.2-20-2.85-29.65-6.29A92.75,92.75,0,0,1,826,384.75c-9.42-5-19.29-9-29.16-13A40.41,40.41,0,0,0,785.28,369c-6.58-.61-11.73-3.6-14.09-10.18-1.68-4.7-3.42-9.4-4.08-14.37-.87-6.44,1-12.53,2.87-18.56,2.46-8.12,7.2-15,12.79-21.2a23.15,23.15,0,0,1,10.11-6.24c2.88-1,5.91.36,8.82.77a66.43,66.43,0,0,0,9.43.73c11.66,0,23.32-.13,35-.09,11.49,0,21.44,4.25,29.91,11.84a92.65,92.65,0,0,1,13.63,14.57,53.53,53.53,0,0,1,8.27,18.58c.44,1.75.79,3.48,2.42,4.67,2.69-2.53.27-5.22.83-8.89,4.63,5.94,9.28,10.6,12.83,16.24C918.84,364.59,916.84,371.47,912.29,378.26ZM952.39,411a16.61,16.61,0,0,1-2.19-1.2c-5.53-3.72-6.23-6.87-2.39-12.36,2.94-4.21,6.06-8.25,10.24-11.47a67.94,67.94,0,0,0,8.89-8.74c3.37-3.74,7.61-5.71,12.28-7.24,9.88-3.25,19.31-1.76,28.62,2.1a36.71,36.71,0,0,1,6.12,6h0c2.25,6.31,0,11.46-4.45,15.8-5,4.89-10.2,9.55-15.39,14.2-4.92,4.4-11.5,6.07-17.94,6.86A42.86,42.86,0,0,1,952.39,411Zm59.28,67.71c-1.07,7.45-5.51,12.67-12.91,15-5,1.56-10.14,1.69-15.23,2.3-7.4.88-14.35,2.75-20.38,7.27-7,5.26-14.38,9.58-23.35,10.38-1.81.16-3.62.39-5.83.63-12.75-1.39-25-4.94-35.61-13.2q-5.9-4.6-11.85-9.11c-3.24-2.45-5.47-5-3.88-9.66,1.18-3.45-.37-6.84-2.31-9.89s-4-5.73-5.88-8.64c-1.55-2.36-.85-3.44.78-4.92a62,62,0,0,1,18.43-11.69,82.54,82.54,0,0,1,30.63-6,126.14,126.14,0,0,1,28.18,2.71c3.21,3,7.31,1.35,10.91,2.17,14.64,3.34,28.85,7.61,40.93,17.3C1009.44,467.5,1012.59,472.26,1011.67,478.66Z"/><path class="cls-6" d="M780.8,394h0l.06.06Z"/><path class="cls-6" d="M875.09,517a15.46,15.46,0,0,0,8.89-2.79c.77-.53,1.8-1.28,1.27-2.41s-1.7-.79-2.64-.57c-9.4,2.28-19,2.57-28.6,2.78-1.33,0-2.66,0-4,.06-.86,0-1.75.25-1.85,1.26-.14,1.38,1,1.61,2,1.62,4.49,0,9,0,13.47,0v0Z"/><path class="cls-6" d="M702,494.62a22,22,0,0,0,4.94-8.53l-3.11-.08C700.53,490.86,700.45,491.24,702,494.62Z"/><path class="cls-7" d="M222.55,377.29a38.34,38.34,0,0,1-5.66-7.53c-12.2-21.25-20.23-55.69-2.07-76.06,23.85-26.76,71.21-37.18,104.79-26.43,10,3.19,20,6.32,29.44,11a65.61,65.61,0,0,1,36.56,57.61c.66,25.51-19,41.59-39.93,52.07-25.38,12.69-53.37,15.13-81,10-8.3-1.54-16.62-3.17-24.06-7.56C234,386.48,227.64,382.61,222.55,377.29Zm75.06,17.78a41.21,41.21,0,0,0,17.16-2.49c4.36-1.58,8.8-2.94,13.18-4.48a98.07,98.07,0,0,0,34.88-21.57c3.19-3,5-7,7.62-10.45,17.69-23.71-4.17-61.38-26.91-72.27-5.86-2.81-12.11-4.62-18-7.18-9.68-4.21-19.91-4.79-30.12-5.57-9.22-.71-18,2.08-26.94,3.95a99.92,99.92,0,0,0-30,11.81c-6.85,4-13.89,8-19.12,14.2a34.34,34.34,0,0,0-7.93,28.23c1.19,8.11,4.12,15.7,6.82,23.35,3.54,10,8.63,19,17.84,25.11,5.95,3.92,11.55,8.23,18.56,10.48C268.65,392.69,283.07,394.18,297.61,395.07Z"/><path class="cls-8" d="M1.94,380.76a14.7,14.7,0,0,1,1-3.78c.82-2,4.69-6.2,4.69-8.15,8.41-12.42,19.73-21.6,32.83-28.59,15.69-8.38,32.31-13.17,50.31-12.25,21.28,1.09,45.35,10.77,54.1,31.55,5.06,12,6,25.84,4.74,38.7-1,10-6,17.08-13.38,23a56.51,56.51,0,0,1-8.81,5.67c-10.43,5.55-20.92,11.07-32,15.3-19,7.3-38,7.59-56.45-2.24-9.17-4.87-18.84-9.51-26.43-16.75-9.88-9.43-8.82-19.14-7.68-31.83.07-.85.06-1.85-.63-2.34s-1.48-.3-2-.82a2.11,2.11,0,0,1-.4-1.42A38.61,38.61,0,0,1,1.94,380.76Zm64.81,59.33a68.33,68.33,0,0,0,27-5.12c8.67-3.39,17.56-8,25.83-12.34,7.87-4.11,15.42-9.73,19.17-17.77S143,387.7,141.39,379c-1.41-7.56-4.19-14.78-7-21.94-6.22-15.84-27.1-22.68-42.77-22.07-5.79.23-11.56.15-17.38.89-29.8,3.77-60.91,22-64,54.44-.5,5.14-.87,10.31.08,15.38,1.28,6.84,6.33,11.11,11.37,15.26,5.28,4.34,11.28,7.62,17.17,11A59.12,59.12,0,0,0,66.75,440.09ZM5.37,385.62c-.34.22-.37.47-.07.76.09-.12.25-.23.26-.36S5.44,385.76,5.37,385.62Z"/><path class="cls-9" d="M47.29,158.47a18.15,18.15,0,0,1,3.34-2.26c2-1.1,4-2.31,6-3.38a97.24,97.24,0,0,1,8.9-4.16A44.61,44.61,0,0,1,84.85,145c2,.12,4-.09,5.67,2.07-2.16,1.44-4.69,1.62-6.93,1.81-11,.95-20.47,5.77-29,12.18-6.59,4.93-8.86,12.58-9.77,20.6C44,188.81,46.1,195,50.2,200.81c6.91,9.88,14.61,19,24.28,26.22,7.14,5.33,15.54,8.29,24,10.82,5.19,1.55,10.44,3.11,16,3.25,7.79.2,15.13-1.72,22.51-3.66,3-.8,6.07-1.7,9.13-2.44a50.77,50.77,0,0,0,26-14.86c9.92-10.73,13-24.59,6.68-38.26-4.68-10.21-11.95-18.23-20.56-25.3-10.6-8.7-22.74-14.31-35.62-18.47a54.44,54.44,0,0,0-18.58-3,86.84,86.84,0,0,0-30.95,6.71C68.07,144,63,146,57.9,148.1c-1.55.64-2.94,1-3.21-1.36a14.62,14.62,0,0,1,6.06-5.06c12.9-6.36,26-12.45,40.77-12.23,37,.53,67.9,17.4,83.31,52.26.47,1.07.81,2.19,1.22,3.28,6,15.77,2.47,29.32-11.51,42.84-9.21,8.92-19.95,12.07-32.06,15.12-7.26,1.83-14.5,4-22,4.44a61,61,0,0,1-22.07-3.06c-3.64-1.18-7.23-2.54-10.86-3.74C76.63,237,67,230.43,58.87,222.4a113,113,0,0,1-11.21-13c-3.33-4.49-7-9.27-8.9-14.6a30.6,30.6,0,0,1-.62-17,58.45,58.45,0,0,1,3.09-9.55,42.74,42.74,0,0,1,4.39-7.91A10.38,10.38,0,0,1,47.29,158.47Z"/><path class="cls-10" d="M124.07,529.09C129.34,512.83,144.3,504,160.15,500c10.29-2.55,21-3.13,31.57-3.31,22.8-.39,52.67.48,69.81,17.82a25.74,25.74,0,0,1,7.11,12.37,54.61,54.61,0,0,1,1.28,20.3c-2,14.16-15.35,23.11-28.2,26.83-19.41,5.61-43.76,4.82-63.41.39-19.29-4.36-41.39-19.12-46.46-39.32a13.12,13.12,0,0,0-2.11-5.28,6.44,6.44,0,0,1-5.06,2.33C124.85,531.06,125.06,530,124.07,529.09Zm92.32,41c6.67.69,15.26-.69,23.45-3.38,7.93-2.61,16.35-6.14,20.74-13.71,10.82-18.65-3.09-38.22-21.58-43a148.44,148.44,0,0,0-39.35-4.72,190.8,190.8,0,0,0-21.78,1.49,116.77,116.77,0,0,0-26.06,6.15,44.32,44.32,0,0,0-16.39,11c-.79.81-1.79,1.58-1,3,5.47,9.73,10.14,17.8,17.78,26,7.47,8,17.05,12,27.49,14.05C191.1,569.19,202.68,570,216.39,570.11Z"/><path class="cls-8" d="M449.83,546.08a184,184,0,0,1-35-2.91c-17.79-3.2-40.95-14.15-46.74-32.88a5.34,5.34,0,0,1-.24-3.2,2.16,2.16,0,0,1,2.5-1.53,3.31,3.31,0,0,1,1.59,1.7c7.57,13.35,21.1,22.64,35.71,27.32,13,4.16,26.85,4.92,40.41,4.12,13.12-.78,26.31-.87,39-4.73,17.21-5.22,47.1-24.56,39.5-46.51-5.05-14.58-21.88-27.83-35.79-33.53-16.56-6.78-35.1-5.55-52.59-5-23.18.75-46.86,8.58-65.4,22.69a22,22,0,0,0-5.76,6c-2.55,4.31-2.35,9.39-2.22,14.22,0,1.71,1.25,11.62-1.33,12.28a1,1,0,0,1-1.41-1c0-8.45-1.91-17.14-1-25.56.71-6.32,7.08-11.47,12.25-14.43a157.29,157.29,0,0,1,65.5-20.58c20.83-1.62,49.24-.38,66.66,12.64,5.6,4.19,11.21,8.38,16.51,12.93,14.15,12.16,16.18,30.62,5.18,45.36C509.56,537.19,479.37,545.62,449.83,546.08Z"/><path class="cls-9" d="M318.15,203.7c-23.5-2.86-46.37-7.3-64.1-25.12-8.59-8.64-13.13-19.09-14.38-31.08a22.1,22.1,0,0,1,.82-9.4c4.32-12.76,11.54-22.61,25.37-26.57,10.3-3,20.55-5.86,31.34-5.38,22.47,1,44,5.78,63,18.36,12.29,8.12,22.35,18.39,27.46,32.71,4.32,12.08,1.68,20.86-8.75,28.36a42.23,42.23,0,0,1-4.66,2.91,118.08,118.08,0,0,1-35.19,12.38A165.71,165.71,0,0,1,318.15,203.7ZM316.84,196c12.67.44,24.81-2.1,36.7-5.86,7.93-2.51,15.78-5.41,22.57-10.33s9.55-9.89,6.86-20c-3.08-11.61-11.42-19.24-20-26.7a37.34,37.34,0,0,0-9.52-6.3A197.49,197.49,0,0,0,311.22,114c-5-1-10.06-2-15.23-2a107.29,107.29,0,0,0-20.69,2.37c-7.42,1.4-14.21,3.64-19.46,9.92-7.67,9.18-11,19-8.19,30.86,2.93,12.32,11.1,20.46,21,27.28a58.64,58.64,0,0,0,15.26,7.21C294.68,193.11,305.38,196.69,316.84,196Z"/><path class="cls-11" d="M124.07,529.09c1,.87.78,2,.61,3.07C123.24,531.38,123.31,530.3,124.07,529.09Z"/><path class="cls-9" d="M221.8,378c.94.06,1.83.2,1.58,1.51A2.11,2.11,0,0,1,221.8,378Z"/><path class="cls-9" d="M205.54,315.42a2.14,2.14,0,0,1-.66,2.6A3,3,0,0,1,205.54,315.42Z"/><path class="cls-9" d="M223.42,379.51c.79-.2,1.11.12,1,.91A1.17,1.17,0,0,1,223.42,379.51Z"/><path class="cls-9" d="M393.46,477.54c1-3.81,4-5.44,7-6.68,11.86-5,24.1-8.45,37.16-7.84,1.25.06,2.74-.35,3.6,1.72C424.56,466.48,408.53,470,393.46,477.54Z"/><path class="cls-11" d="M5.37,385.62c.07.14.2.28.19.4s-.17.24-.26.36C5,386.09,5,385.84,5.37,385.62Z"/><path class="cls-12" d="M874.25,435.78c-1.72-3.46-3.65-6.67-7.19-8.59a81.5,81.5,0,0,1-7.27-4.18c-9.78-6.7-20.06-12.67-28.09-21.74-3-3.35-7.41-5.32-11.63-7.19-5.05-2.23-10.45-3.14-15.77-4.4-7.23-1.7-118.18-48.88-123.87-53.46.74,4.39-1,7.14-5.18,8.81A146.67,146.67,0,0,1,645,353c-11.11,1.84-19-4.4-25.76-12.55-9.79-11.84-11.29-25.54-9.48-40.09A138.52,138.52,0,0,1,622.59,257c.57-1.17.91-2.63,2.63-2.72a19.17,19.17,0,0,1,.48-4.31c3.86-13,11.41-23.51,21.8-31.91,8.84-7.13,18.86-12.83,25.8-22.19s12.51-19,6.4-31.07c-2.56-5.07-5.24-10-10.05-14.35a14.32,14.32,0,0,0,.25,2.07c2.89,8.72,3.34,17.72,3.1,26.8,0,.82.29,2.1-1,2.1s-.89-1.29-1-2.11c-.45-3.31-1-6.6-1.28-9.92-1.06-13.78-8.49-25.23-13.49-37.57-2.17,1.4-3.84.94-5.37-1.15-4.11-5.63-6.84-11.94-9.41-18.35-1-2.48-2.14-4.91-3.33-7.3-2.49-5-2.47-10.54-3.41-15.87-.53-3-1.12-5.92-3-8.38-3.15-4.11-2.34-8.89-2.41-13.53-.52.42-1,.85-1.56,1.26a13,13,0,0,1-14.5,1.47c-4.71-2.34-8-6.08-8.78-11.5-.14-1-.64-2.56.72-3s1.66,1.22,2.05,2.13a16,16,0,0,0,7,7.49c4.12,2.42,8.7,2,11.78-1a10.52,10.52,0,0,0,2.12-12c-2.52-5.16-7.39-7.65-12-10.35-5.33-3.13-10.93-5.63-17.36-5.38-7.16.28-11.86,6.85-9.43,13.51A71.37,71.37,0,0,1,592.8,61.7c.68,3.79.77,7.73,3.49,10.89.74.86.64,2.09.78,3.21A46.9,46.9,0,0,0,599,85.62c1.91,5.57,6,8.48,11.83,8.55,4.3,0,8.36-1.26,12.54-1.92a4.1,4.1,0,0,0,3.77-3.64c.38-2.16-.87-3.63-2.89-4.33-1.16-.4-2.41-.54-3.54-1-2.27-.92-4.74-1.57-6.13-3.86-.39-.64-1-1.41-.44-2.17a1.74,1.74,0,0,1,2.42-.39c2.84,2.08,6.3,2.18,9.44,3.27,3.35,1.17,5.71,3.28,5.94,6.94.25,4-1.27,7.46-5,9.13-2.75,1.24-2.29,2.12-.43,3.49,5.75,4.2,9.64,10,12.82,16.13,4.67,9,7.24,18.81,8.63,28.77,1.5,10.78-2,19.86-10.79,27a97.79,97.79,0,0,1-28,15.54c-9.59,3.55-19.59,4.11-29.41-.29-8.41-3.76-51.66-44.92-60-48.85-3.21-1.52-3.51,0-3.66,2.25-.31,4.65.9,9.06,2.55,13.36.27.71.8,1.53,0,2.12s-1.4-.26-1.89-.83c-4.37-5.21-5.87-18.22-2.74-24.21a35.71,35.71,0,0,1,5.71-7.42c1.91-2.08,3.2-4.7,2.11-7.37a39.5,39.5,0,0,0-7.09-11.7c-6.41-7.09-14.24-12.55-21.64-18.42-12.68-10-24.45-20.86-34.71-33.38C450.07,42.26,442,32,431.81,23.54c-7.26-6-14.92-11.06-24.59-12a53,53,0,0,0-16.63.92c-9,1.94-18.39,2.61-27.63,6.09,1.34.18,2.2.3,3.06.4,11,1.24,22.05,1.09,33.09,1.28a36.83,36.83,0,0,1,10.6,1.42c1.05.33,2.21.88,2,2.3-.17,1.23-1.26,1.51-2.27,1.62-1.55.18-3.11.26-4.66.33-10.35.49-20.69,1.24-31,1.37-11.25.14-22.16-2.66-33.1-4.89-5.6-1.14-11.1-1.45-16.49.73-10.93,4.44-16,14.43-22,23.48,0,0,.08.2.12.3.44.31.81.07,1.21-.14.78-.41,1.65-1,2.37,0,.57.76,0,1.49-.43,2.15a11.34,11.34,0,0,1-1.14,1.66c-3.88,4.32-7.53,8.88-11.72,12.88A110,110,0,0,0,268.19,98c-5.73,12.64-9.59,25.72-10,39.68-.19,6.15,2.45,8.86,8.3,8.67l0,0c-.63-2.87,1.17-3.44,3.3-3.09A27.88,27.88,0,0,1,288,154c3.19,4.22,3.33,9.63,5,14.45a56.52,56.52,0,0,1,3,10.26,2.22,2.22,0,0,0,1.89,2.09c1.12.08,1.25-1,1.68-1.79a39.74,39.74,0,0,0,4.68-12.49c.3-1.76.82-3.4,2.67-3.86s3.18.88,4.15,2.26a22.89,22.89,0,0,1,3.76,9.22c.89,5,2.67,9.69,3.8,14.58.21.9.57,1.94,1.42,2.14s1.51-.74,2-1.47a12.57,12.57,0,0,0,2-4.22c1.9-6.74,1.26-13.78,2.49-20.58,1.12-6.17,3.09-11.91,9.29-15,2.32-1.52,4.77-3.47,7.59-1.87,2.57,1.46,2.59,4.5,3,7.15,0,.32-.11.67-.06,1,.66,4.52.86,9.19,3.95,13,2.11,2.57,4.95,2.27,6.43-.71a16.33,16.33,0,0,0,1.58-9.46c-1.07-8.62,3-15.56,11.08-18.91,7.6-3.15,15.58-5.48,22.47-10.19,3.4-2.32,5.74-6,9.7-7.62,7.82-3.22,11.51-2.2,13.49,5.82.53,2.17.87,4.4,1.44,6.56,2.25,8.51,4.64,17,8.59,24.91,2.74,5.49,5.81,10.81,8.47,16.34,2.91,6,2.93,12-1,17.78a70.81,70.81,0,0,1-8.55,10.78c5.77-1.86,10.85-1.89,15.79-2.79.83-.16,2-.68,2.34.48s-.56,1.77-1.62,2.07c-3.22.9-6.41,1.94-9.67,2.69-9.86,2.27-20.22,2.39-29.57,6.92-5.81,2.82-12,5.09-16.36,10.15-2.2,2.53-4.16,5.26-6.35,7.79-2.87,3.32-4.48,3.37-7.67.11-2.49-2.56-4.62-5.48-7.17-8-3.22-3.15-6.94-3.87-11.34-2.08-6.86,2.78-12.9,7.09-19.64,10.07-3.65,1.61-5.17,1.15-7-2.34-.9-1.66-1.73-3.56-3.82-4a108.13,108.13,0,0,0-17.67-1.47c1.13,2.88,2.3,5.41,3.13,8,2.6,8.21,4.14,16.45.43,24.81a47.73,47.73,0,0,0-4.4,18.82,5.9,5.9,0,0,0,2.92,5.64,29.19,29.19,0,0,0,22.34,3.1,76.06,76.06,0,0,0,21.8-9.13c.37-.25,1.12.49,1.1-.1,3.35,2.5,6.1-.31,9-1,6-1.43,11.56-5.12,18-4.91,2.85.1,3.73,1.51,3.53,4.06-.5,6.5-3.78,11.15-9.24,14.6s-11.88,5-18,6.88c-11.24,3.47-21.57,8.23-29.77,16.93-.41.45-1.18.56-1.78.83-1.34,5.67.45,1.77-.14,7.59-.07.7.32,1.84-.85,1.81-.9,0-1-1-1.11-1.81-.39-3.62-1.67,3-1.95-.56-1.49-.43,1.55-9.3,1.07-8.72-2.26,2.74-7.36,1.57-10.77,1.3-1.11,4.09-10.08,12.05-19.15,13-10.39,1.14-54.65-16.86-64.68-19.54-5.28-1.41-10.56-2.86-15.38-5.57a54.34,54.34,0,0,1-20-19.21,50,50,0,0,1-7.84-28.58c.19-6.91,1.36-13.79.71-20.75-.08-.91-.43-2.27.88-2.59,1.46-.37,1.78,1,2.25,2a7.71,7.71,0,0,1,.44,1.6c1.55,6.28,1,12.68,1,19.05,0,1.26-.32,2.6.53,4.26,3.51-5.5,6.67-10.69,9.61-16a19.59,19.59,0,0,0,2.27-12.6,62.19,62.19,0,0,0-4.62-15.67c-3-7-7.57-13.2-10.57-20.2-2.43-5.67-4.23-11.41-2.43-17.85,1.14-4.09,3.37-7.5,5.28-11.13,1.76-3.35,4.34-6.25,5.28-10,1.13-4.62-1.47-8.08-6.22-8.13-5.28-.05-9.09,2.33-11.93,6.76-2.3,3.6-3.71,7.63-5.87,11.27-1.52,2.59-3.66,2.65-5.1.13a32.65,32.65,0,0,1-2.85-6.08,19.17,19.17,0,0,0-8.91-11.22c-2.39-1.35-5.07-3.2-8.17-1.71-3.86,1.85-7.2,7.23-6.9,11.15.37,4.86,4,6.66,7.92,7.92a27.44,27.44,0,0,1,9.41,5c1.43,1.2,2.61,2.57,2.09,4.58a4.85,4.85,0,0,1-4,3.64,33.42,33.42,0,0,1-6,.38c-8.56,0-15,8.85-12.34,17.06a3,3,0,0,0,2.26,2.25c1.18.2,1.73-.74,2.27-1.65,1.08-1.83,2.17-3.65,3.37-5.4,6.19-9,15.31-6.36,20.49-.64.7.78,1.39,1.71.66,2.68-.93,1.23-1.75.06-2.56-.4-2.05-1.13-3.78-3.18-6.74-2.34a5.74,5.74,0,0,0,.66,1.32c6.86,7.32,9.07,16.21,8.78,25.94-.25,8.15-1.47,16.25-1.47,24.44,0,9.14-.47,18.29-.74,27.44.85,4.4.65,8.84.52,13.27.08,1.22.23,2.45.21,3.67,0,2.37-1,2.91-3,1.42a8.33,8.33,0,0,1,.47,1.91c.13,8.27,2.53,16.08,4.72,23.94,6-2.84,4.41,7.61,8.35,9.19,10,4,16.72,7.6,22.68,16.14,1.52,2.16,3.66,3.88,5.39,5.91,3.23,3.76-8.92,23.83-4.8,24.39a93.58,93.58,0,0,1,11.05,2.09c5.93,1.55,5.47,14.61,11.68,15.47,8,1.11,13.09-.05,17,6.17,3.15,5,6.16,10.1,9.29,15.13,3.78,6.09,91.46,80.84,98.71,80.7,6.14-.12,14.1-3.29,19.72-6.56,4.35-2.54,107.64,9.5,109.1,17.83,1.75,10,8.51,15.19,17.25,19.27,11.43,5.33,22.37,3.45,33.49-.32,10.68-3.61,21.33-7.32,32.43-9.44,2.91-.55,5.91-1,8.79.33a8.24,8.24,0,0,0,2-.17c11.41-3.78,50.6-45,61.5-41.17,14.73,5.15,29,11.53,44.57,14.22,8,1.39,16,3.32,24.18,1.55,9.45-2.05,18.05-5.56,23-14.62,2.64-4.89,5.53-9.4,10.8-12a127.09,127.09,0,0,0-17.56,1.83c-1.9.34-4.87,2.53-5.51.16-.57-2.1,3-2.93,5.12-3.77,13.08-5.14,26.65-4.45,39.92-2A319.13,319.13,0,0,0,800.88,456c3.94.11,7.79-.72,11.7-.66a124.46,124.46,0,0,0,37.71-4.81c8.14-2.45,16.25-5,22.86-10.8C874.52,438.56,875.16,437.59,874.25,435.78ZM323,128.13c-.3,1.48-1.7,1.23-2.77,1.1-6.2-.71-12.37-1.69-18.66-1.5-5,.14-10,.57-14.55,3-1.08.57-2.57,1.29-3.34,0-.91-1.52.53-2.38,1.76-3,2.61-1.25,3.08-2.64,1.56-5.45-3.07-5.64-5.11-11.55-2.9-18.25.5-1.5,1.27-3.69,3.07-4,.76-.12,1.32.28,2,.42,1.58.33,1.37-.49,2.35-1.8a8.45,8.45,0,0,1,2.68-2.33c3.47-1.91,6.51-4.1,10.66-4.45a10.63,10.63,0,0,1,8,2.44A29,29,0,0,1,316.32,99a39.82,39.82,0,0,1,3.72,5.49,3.85,3.85,0,0,1,.4,3.25,7.31,7.31,0,0,0-1,3.83,21.56,21.56,0,0,1-.5,4.39,18.62,18.62,0,0,1-4.18,8.09c2.12.64,4.27,1.2,6.34,2C322,126.38,323.19,126.94,323,128.13Zm66.21-12.77a62,62,0,0,0-32.92,8.47c-.58.33-1.15.69-1.75,1-.9.44-2,1.13-2.78.29-.94-1,0-1.82.79-2.5,1.33-1.17,1.19-1.89-.28-3.06A19.94,19.94,0,0,1,345,107.84c-1.22-5.61-1.24-7.29,1.18-13l1.74.36q.08-.44.18-.84a9.79,9.79,0,0,1,3.25-4.92,9.3,9.3,0,0,1,2.29-3.23,9,9,0,0,1,6-2.92A9.79,9.79,0,0,1,364.75,82a9.19,9.19,0,0,1,7.4,3.31,11.73,11.73,0,0,1,2.76,2.33c4.38,3.26,4.84,4.1,6.4,9.92.25.94.22,1.79-.85,2.23,1.29,4.25.11,8.14-1.74,11.93,3.55.28,7.16-.27,10.65.67,1.12.3,2.91.28,2.78,1.85S390.33,115.4,389.16,115.36ZM429.4,76.68c-1.14.37-1.3-1-1.69-1.71a44.27,44.27,0,0,0-8.27-9.62c-.7-.66-1.55-1.6-2.6-1.23s-2,.7-2-.89c0-1.29.46-2.49,2.11-2.4a5.09,5.09,0,0,1,2.27.42A27,27,0,0,1,430,73.72C430.14,75,430.66,76.27,429.4,76.68Zm11.28-5.13c-1.13.42-1.49-1-2-1.82-5.18-8.15-10.85-15.87-19.32-21-2.85-1.72-5.72-3.52-9.13-4-.92-.12-2.3.47-2.17-1.17a2.4,2.4,0,0,1,2.45-2.32,15.91,15.91,0,0,1,5.91,1c12.57,4.65,20.38,14,25.41,26.41C441.89,69.6,442,71.08,440.68,71.55ZM222.3,343.27c-.57,1.79-2.69.66-3.84.31-5.94-1.82-12-3.51-17.05-7.4a33,33,0,0,1-2.45-2.3c-.48-1.4,0-2.18,1.48-2.21a3,3,0,0,1,1.56.53,111.15,111.15,0,0,0,17.36,8.5C220.51,341.16,222.84,341.57,222.3,343.27Zm14.21-3c-.33.71-1.09.63-1.77.47-13-2.95-24.81-8-33.42-18.79-.86-1.08-2.1-2.36-1.09-3.94,1.41-.49,2.19.28,2.88,1a72.87,72.87,0,0,0,23.49,15.64c3,1.24,5.91,2.59,8.85,3.91C236.19,338.88,237,339.35,236.51,340.3Zm101.57-30.1c-2.94,4.13-1.83,1.59-4.39,5.91-.58,1-1.22,1.62-2.4,1.22s-1.34-1.36-1.2-2.44c.45-4.57,1.73-4.89,5.79-7,.86-.45,1.91-1.08,2.73-.09S338.58,309.5,338.08,310.2ZM488,138.31a17.36,17.36,0,0,1-11.5,13.35c-5.42,2-10.93-1.26-12.45-6.83-1.63-6-1.65-12.13-2.07-18.24a8.71,8.71,0,0,0-.28-2.63c-.57-1.39-.85-3.35-2.71-3.44s-2.19,1.72-2.71,3c-.65,1.66-1.55,3.18-3.37,3.38-2.05.23-3.56-1-4.68-2.72-2.24-3.4-2.41-7.91-.36-10.74.52-.71,1-1.72,2.08-1.16.91.47.43,1.38.27,2.12-.36,1.62-1.09,3.22-.32,4.91.32.72.72,1.48,1.52,1.68,1.05.28,1.17-.71,1.58-1.35,1.59-2.48,3.66-4.39,6.82-4,3.42.42,4.61,3.22,5.58,6a27.25,27.25,0,0,1,1.11,9.61,45.78,45.78,0,0,0,1.53,12.57c4.24-10.58,3.89-21-.72-31.46-1.77-4-3.11-8.26-2.47-12.87.4-2.86,1.51-3.28,3.66-1.61,1.7,1.33,4.15,1.84,4.64,4.51.23,1.24,1.34.88,2.21.75a24.94,24.94,0,0,0-4.7-9.49c-.53-.63-1.19-1.12-.52-2s1.53-.71,2.4-.24a7.67,7.67,0,0,1,3,3.08,142.57,142.57,0,0,1,11.17,26.39A32.5,32.5,0,0,1,488,138.31Zm72,235.08c-4.1,5.39-10.56,7.88-16.17,6.05a16.75,16.75,0,0,1-11.39-15.07c0-2.13,0-4.26,0-6.39,0-.62.27-1.47-.54-1.76s-1.1.52-1.48,1a38.59,38.59,0,0,0-3.93,7.4c-.49,1.12-.9,2.29-1.49,3.36-1.7,3.11-4,5.67-7.87,5.2a9.8,9.8,0,0,1-8.1-6.75c-2.5-6.69-.67-13.22,1.46-19.56,2.59-7.71,6.87-14.8,8.57-22.85a1.28,1.28,0,0,1,1.41-1.13,2,2,0,0,1,1.86,1.2c1.15,2.11.94,4.36.46,6.55-1.17,5.25-3.28,10.2-5.19,15.21a48.3,48.3,0,0,0-3.26,13.27,5.88,5.88,0,0,0,0,2c.55,2,.44,4.8,2.88,5.19,2.27.36,2.64-2.35,3.49-3.95,2-3.83,3.72-7.86,7-11,2.27-2.2,4.86-3.08,7.63-2,2.59,1,2.93,3.84,3.12,6.27.23,3,0,6.05.09,9.07.15,3.83,1.65,6.92,5.37,8.57a13.92,13.92,0,0,1,2.61-10.08c2-2.63,2.21-6,2.75-9.18.16-1-.1-2.1,1.34-2.28,0-.67,0-1.33,0-2L548,335.61v-1.95c-.84-1.28-.62-2.74-.73-4.16-.18-2.32,1-3.09,3.11-3.29s4.4.72,6.4-.69a10,10,0,0,0-5.15-5.88c-.82-.39-1.73-.87-1.48-1.95s1.37-1.44,2.38-1.49a7.12,7.12,0,0,1,5.66,2.48c6.71,7.14,11,15.35,11.36,25.39A44,44,0,0,1,560,373.39ZM582.76,249.9c-5.89,9.42-16.18,11.19-25,4.57-.69-.51-1.8-.81-1.36-2,.39-1,1.41-.95,2.6-.92,2.2.59,4.46,1.74,7.07,2.13,6.73,1,11.1-2.2,13.09-6.78,1.41-3.26,3.65-4.92,7.1-5.88,7.63-2.13,15.12-4.77,22.66-7.22,1.21-.39,2.67-.91,3.23.55s-1,2.09-2.07,2.56c-7,3.09-13.86,6.77-21.36,8.7A9,9,0,0,0,582.76,249.9Z"/><path class="cls-13" d="M164.26,310.81c-.38-1.21,5.42-1.41,6.1-1.3,3.65.6,6.6,5.31,9.07,8,4.16,4.55,8.19,9.21,12.19,13.89,2.95,3.46,8.12,7.79,9.76,12.06a13,13,0,0,1,.58,4.62c0,3.9-.56,7.63,0,11.55a3.36,3.36,0,0,0,1.16,2.43,3.53,3.53,0,0,0,1.31.42c3.54.61,8.39.75,11.54,2.53a9.64,9.64,0,0,1,3.26,3.45c1.55,2.48,2.61,5.24,4.07,7.78,3.22,5.59,9.76,5.13,13.86,9.72,1.74,2,2.73,4.42,4,6.7,3.66,6.63,12.48,9.35,19.07,11.88,3.71,1.43,8.94-1.58,12.11-3.19a144.15,144.15,0,0,0,15.94-9.74c6.86-4.7,13.49-9.74,20.54-14.16,5.22-3.28,13.38-9.52,19.83-9.23s9.75,8.67,12.45,13.37c2.5,4.36,5,6.41,10.14,5s10.27-3.35,15.62-3.89c9.88-1,15.11,4.55,21.76,10.75Q400,404,412.07,413.59c8.25,6.53,16.87,12.78,26.57,16.87,8.95,3.77,18.59,5.59,28.09,7.62,7.73,1.65,15.41,3.51,23.08,5.41,6.13,1.51,12.74,2.68,17.55,7.11,6.18,5.69,7.62,14.9,10.39,22.46,1.64,4.46,5,16.26,11.86,13.94,10.68-3.61,14.89,21.9,26,19.78,2.91-.55,5.91-1,8.79.33-4.24,2.84-9.07,4.66-13.16,7.81a57.63,57.63,0,0,0-6.52,6.26,2.66,2.66,0,0,0-.64,3.41c7.51-5.06,14.23-11.55,24.19-13-2.23,3.71-5.38,5.91-7.72,8.81a141,141,0,0,1-17.81,18.19c-6.1,5.24-13.24,7.6-21,8.82a59,59,0,0,1-15,.39c-7.7-.77-13.66-5.27-19.66-9.51a69.51,69.51,0,0,0-16-9c-6.26-2.29-12.52-1.92-18.73,0-4.6,1.38-9.08,3.12-13.88,3.71-1.52.18-3.49,1-4.16-.82-.55-1.51,1.3-2.6,2.44-3.22,4.12-2.27,8.36-4.32,12.61-6.34a47.46,47.46,0,0,0,11.78-7.56c1.4-1.29,3.35-2.72,1.6-5.08s-3.8-1.62-5.79-.12c-10,7.53-21.59,10.16-33.76,11.34-7,.68-13.87,2-20.8,3a95.46,95.46,0,0,1-20.61,1c-2.38-.18-3.46-1.49-2.7-3.88.51-1.6,1.23-3.12,1.76-4.71,1.7-5,.22-8.41-4.51-10.78A30.94,30.94,0,0,0,366,503.26,256.22,256.22,0,0,0,340,501a5.53,5.53,0,0,0-2,.09c-7.45,2.95-14-.88-20.66-2.94-2.88-.88-4.32-3-3.86-6.21a23.53,23.53,0,0,0,0-3.36c0-8.19-83.1-86.11-74.88-84.61,11,2,56.85,28.93,47,32-8,2.51-3.38,4.64-11.62,5.87-9.32,1.39-18.69,1.48-28.08,1.35a52.33,52.33,0,0,1-10.58-1.45c-2.26-.5-2.2-3.28-4.72-3.77-11.78-2.3-96-32-95-45,.56-7.19,4.87-5.41,5.12-5.33,5.44,1.64,7.45-2.72,9.55-5.95,10-15.47,34-15.82,27.89-33.36-2.91-8.32-6.69-16.28-9.77-24.52C166.81,319.58,165.62,315.16,164.26,310.81Z"/><path class="cls-14" d="M636.71,0c14.11,3.93,18.18,15.22,20.13,27.85.78,5.1,2.81,7.92,7.89,8.89a20.69,20.69,0,0,1,7.3,2.34c4.35,2.71,7.62,6.15,8.54,11.46a12.15,12.15,0,0,0,5.13,8.4c7.82,5.11,5.07,23.11-5.87,26.19-3.2.9-6.06.38-8.23-2.22-1.8-2.14-3.39-4.45-5-6.71a6.68,6.68,0,0,0-4.75-2.83c-2.37-.32-3.78.44-4.43,2.91C656,81.49,654.65,86.7,655,92.14c.51,8.94.86,17.88,2.32,26.75,1.35,8.23,5.94,14.63,11,20.78,5.78,7,12.47,13.13,16.46,21.54,6.53,13.74,5,24.67-4.94,36.26-8.25,9.61-17.87,17.53-28.08,24.9-7.14,5.17-7.56,6.84-3.29,14.54,5.32,9.58,5,19.43.67,28.76-3.86,8.32-3.26,15.53.92,23.26,4.9,9.07,11.43,16.85,18.17,24.5,7.71,8.75,120.85,60.08,130.46,66.82,2.48,1.74,5,3.53,8,4.24,16.28,4,29.84,13,43,22.79,7.27,5.39,13.91,11.61,21.72,16.35,4.7,2.85,7.07,7.66,8.8,12.75.34,1,.18,2.25,1.41,2.8v2c-1.94,2.88-4.78,4.57-7.84,6-16.85,7.92-34.26,13.68-53.06,14.51-16,.71-32,.88-48-.71-8.6-.86-16.91-3.23-25.39-4.74-11.8-2.11-18.89,3.36-21.74,9.84-6.8,15.4-19.74,20.81-35.13,21.46a104.93,104.93,0,0,1-53.54-11.49c-7.64-3.95-15.84-5.92-24.23-7.59-6.29-1.25-38.63,43.24-42.32,48.54A159.6,159.6,0,0,1,549,542.45a39.85,39.85,0,0,1-15.36,9.32c-3.88,1.23-7.76,2.49-11.64,3.73H509.22c-1.33-1.22-3.06-1-4.65-1.24a24.77,24.77,0,0,1-9.83-3.17c-4.91-2.93-9.69-6-14.34-9.36-9-6.43-18.47-10-29.51-5.28a31.06,31.06,0,0,1-7.11,1.94c-3.88.65-7.81.91-11.65-.28-4.11-1.28-5.57-5-3.42-8.75.79-1.37,1.84-2.6,3.17-4.45-9.84,1.42-19,2.9-28.2,4-7.64.93-15.28,2.39-23.05,1.06-4.75-.81-7.28-4-6.65-8.76a25.32,25.32,0,0,1,1.69-5.78c.86-2.23.24-3.71-1.89-4.59a16.7,16.7,0,0,0-3.79-1.31c-7.86-1.15-15.73-2.19-23.6-3.25a4.24,4.24,0,0,0-1.33,0,59.08,59.08,0,0,1-27.15-1.8c-9.24-2.74-11.75-7-9.94-14.6a4.83,4.83,0,0,0,0-1c.13-4.82-4.24-11.32-7.4-14.93-7-8-3-4-16-15-14.53-12.3-13.83-9.64-32.67-9.33-8,.13-16.21,0-23.46-4.43,0-1.8-7.83-4.9-9-5.54-7.32-3.79-14.76-7.35-22.2-10.91C174,417.67,149.61,422,127.58,395.46c-1.61-1.94-5-2.78-2.59-5.27,5.42-5.61,14-6.53,19.74-11.8,2.23-2.06,3.27-4.68,5-7.09,2.83-3.95,6.82-6.69,11-9.13,7.34-4.32,14.31-8.25,10.62-17.92s-7.63-19.09-10.22-29.07c-2.32-9-4.72-17.93-5-27.27a1.38,1.38,0,0,0-.09-1.52v0a3.29,3.29,0,0,0,.64-2.81c-.38-5.78.8-11.4,1.63-17.05,1,.89,2,.61,3.06,0,.85,4.4.65,8.84.52,13.27-1.29.76-2.22.49-2.75-.95.12-.32.62-.71-.15-.88l.17.88a12.35,12.35,0,0,0,0,6,8.85,8.85,0,0,1,.46,1.91c.13,8.27,2.53,16.08,4.72,23.94,1.36,4.35,2.55,8.77,4.14,13,3.08,8.24,6.86,16.2,9.77,24.52,6.14,17.54-17.88,17.89-27.89,33.36-2.1,3.23-4.11,7.59-9.55,5.95-.25-.08-.66.16-.91.36-20.21,16,79.79,44,86.79,48,2.23,1.27,10.74,5.5,13,6,3.48.77,2.71,1.18,6.3,1.22,9.39.13,18.76,0,28.08-1.35,8.24-1.23,17.4,11.47,23.62,17.13,11,10,15.89,21.42,15.88,29.61a23.53,23.53,0,0,1,0,3.36c-.46,3.2,1,5.33,3.86,6.21,6.71,2.06,13.21,5.89,20.66,2.94a5.53,5.53,0,0,1,2-.09,256.22,256.22,0,0,1,26,2.23,30.94,30.94,0,0,1,10.34,2.57c4.73,2.37,6.21,5.77,4.51,10.78-.53,1.59-1.25,3.11-1.76,4.71-.76,2.39.32,3.7,2.7,3.88a95.46,95.46,0,0,0,20.61-1c6.93-1,13.84-2.28,20.8-3,12.17-1.18,23.77-3.81,33.76-11.34,2-1.5,4-2.35,5.79.12s-.2,3.79-1.6,5.08a47.46,47.46,0,0,1-11.78,7.56c-4.25,2-8.49,4.07-12.61,6.34-1.14.62-3,1.71-2.44,3.22.67,1.83,2.64,1,4.16.82,4.8-.59,9.28-2.33,13.88-3.71,6.21-1.88,12.47-2.25,18.73,0a69.51,69.51,0,0,1,16,9c6,4.24,12,8.74,19.66,9.51a59,59,0,0,0,15-.39c7.73-1.22,14.87-3.58,21-8.82a141,141,0,0,0,17.81-18.19c2.34-2.9,5.49-5.1,7.72-8.81-10,1.42-16.68,7.91-24.19,13a2.66,2.66,0,0,1,.64-3.41,57.63,57.63,0,0,1,6.52-6.26c4.09-3.15,8.92-5,13.16-7.81a8.24,8.24,0,0,0,2-.17c11.41-3.78,50.6-45,61.5-41.17,14.73,5.15,29,11.53,44.57,14.22,8,1.39,16,3.32,24.18,1.55,9.45-2.05,18.05-5.56,23-14.62,2.64-4.89,5.53-9.4,10.8-12a127.09,127.09,0,0,0-17.56,1.83c-1.9.34-4.87,2.53-5.51.16-.57-2.1,3-2.93,5.12-3.77,13.08-5.14,26.65-4.45,39.92-2A319.13,319.13,0,0,0,800.88,456c3.94.11,7.79-.72,11.7-.66a124.46,124.46,0,0,0,37.71-4.81c8.14-2.45,16.25-5,22.86-10.8,1.37-1.19,2-2.16,1.1-4-1.72-3.46-3.65-6.67-7.19-8.59a81.5,81.5,0,0,1-7.27-4.18c-9.78-6.7-20.06-12.67-28.09-21.74-3-3.35-7.41-5.32-11.63-7.19-5.05-2.23-10.45-3.14-15.77-4.4-7.23-1.7-118.18-48.88-123.87-53.46-5-5.8-9.79-11.92-15.22-17.34A107.11,107.11,0,0,1,643.14,286c-2.68-6-3-12-.16-18.09,3.29-7.15,4.83-14.55,3.2-22.47-.72-3.49-3.07-6.2-3.91-9.59-.23-.92.36-2.41-.8-2.68-1.36-.31-2.07,1.17-2.77,2.08a63.68,63.68,0,0,0-10.53,19.33c-.3.9-.31,2.28-1.69,2.11s-1.16-1.44-1.26-2.42a19.17,19.17,0,0,1,.48-4.31c3.86-13,11.41-23.51,21.8-31.91,8.84-7.13,18.86-12.83,25.8-22.19s12.51-19,6.4-31.07c-2.56-5.07-5.24-10-10.05-14.35a14.32,14.32,0,0,0,.25,2.07c2.89,8.72,3.34,17.72,3.1,26.8,0,.82.29,2.1-1,2.1s-.89-1.29-1-2.11c-.45-3.31-1-6.6-1.28-9.92-1.06-13.78-8.49-25.23-13.49-37.57-1.24-7.56-3.67-14.84-4.32-22.6-.94-11.27-1.94-22.41,1-33.54,1.36-5.23,4.23-7.54,9.31-7a11.34,11.34,0,0,1,8.65,5.07c1.13,1.67,2.17,3.39,3.33,5a3.93,3.93,0,0,0,4.62,1.79c7.15-1.92,10.05-14.11,5-18.24-4-3.28-6.08-7.6-7.45-12.42a8.94,8.94,0,0,0-7.58-6.73A22.22,22.22,0,0,1,657.25,38c-1.08,3.2-1.93,6.31-3.16,9.25-3.65,8.74-11.54,9-17.78,3.2-5.69-5.31-7.49-12.21-8.42-19.52.29-2.42-.5-4.95.72-7.27.31-.6.66-1.25,1.48-1.14s1.07.73,1.17,1.43c.26,1.76.44,3.54.74,5.29,1.08,6.33,2.53,12.54,7.21,17.35s8.53,4,10.95-2.39c4.09-10.93,2-21.27-3.58-30.89C640.53,2.87,628,2.9,621.2,12.66,616.8,19,615.31,27,609,32.16c-1,.78,0,1.19.74,1.59,4.28,2.17,8.54,4.42,12.8,6.64,1.32,1,2.7,1.93,3.94,3,4.33,3.81,7.51,8.19,6.81,14.39-.4,3.53-2.17,6.48-4,9.39-.52.42-1,.85-1.56,1.26a13,13,0,0,1-14.5,1.47c-4.71-2.34-8-6.08-8.78-11.5-.14-1-.64-2.56.72-3s1.66,1.22,2.05,2.13a16,16,0,0,0,7,7.49c4.12,2.42,8.7,2,11.78-1a10.52,10.52,0,0,0,2.12-12c-2.52-5.16-7.39-7.65-12-10.35-5.33-3.13-10.93-5.63-17.36-5.38-7.16.28-11.86,6.85-9.43,13.51A71.37,71.37,0,0,1,592.8,61.7c.68,3.79.77,7.73,3.49,10.89.74.86.64,2.09.78,3.21A46.9,46.9,0,0,0,599,85.62c1.91,5.57,6,8.48,11.83,8.55,4.3,0,8.36-1.26,12.54-1.92a4.11,4.11,0,0,0,3.77-3.64c.38-2.16-.87-3.63-2.89-4.33-1.16-.4-2.41-.54-3.54-1-2.27-.92-4.74-1.57-6.13-3.86-.39-.64-1-1.41-.44-2.17a1.74,1.74,0,0,1,2.42-.39c2.84,2.08,6.3,2.18,9.44,3.27,3.35,1.17,5.71,3.28,5.94,6.94.25,4-1.27,7.46-5,9.13-2.75,1.24-2.29,2.12-.43,3.49,5.75,4.2,9.64,10,12.82,16.13,4.67,9,7.24,18.81,8.63,28.77,1.5,10.78-2,19.86-10.79,27a97.79,97.79,0,0,1-28,15.54c-9.59,3.55-19.59,4.11-29.41-.29-8.41-3.76-51.66-44.92-60-48.85-3.21-1.52-3.51,0-3.66,2.25-.31,4.65.9,9.06,2.55,13.36.27.71.8,1.53,0,2.12s-1.4-.26-1.89-.83c-4.37-5.21-5.87-18.22-2.74-24.21a35.71,35.71,0,0,1,5.71-7.42c1.91-2.08,3.2-4.7,2.11-7.37a39.5,39.5,0,0,0-7.09-11.7c-6.41-7.09-14.24-12.55-21.64-18.42-12.68-10-24.45-20.86-34.71-33.38C450.07,42.26,442,32,431.81,23.54c-7.26-6-14.92-11.06-24.59-12a53,53,0,0,0-16.63.92c-9,1.94-18.39,2.61-27.63,6.09,1.34.18,2.2.3,3.06.4,11,1.24,22.05,1.09,33.09,1.28a36.83,36.83,0,0,1,10.6,1.42c1.05.33,2.21.88,2,2.3-.17,1.23-1.26,1.51-2.27,1.62-1.55.18-3.11.26-4.66.33-10.35.49-20.69,1.24-31,1.37-11.25.14-22.16-2.66-33.1-4.89-5.6-1.14-11.1-1.45-16.49.73-10.93,4.44-16,14.43-22,23.48,0,0,.08.2.12.3.44.31.81.07,1.21-.14.78-.41,1.65-1,2.37,0,.57.76,0,1.49-.43,2.15a11.34,11.34,0,0,1-1.14,1.66c-3.88,4.32-7.53,8.88-11.72,12.88A110,110,0,0,0,268.19,98c-5.73,12.64-9.59,25.72-10,39.68-.19,6.15,2.45,8.86,8.3,8.67l.36.2-.33-.24c-.63-2.87,1.17-3.44,3.29-3.09A27.88,27.88,0,0,1,288,154c3.19,4.22,3.33,9.63,5,14.45a56.52,56.52,0,0,1,3,10.26,2.22,2.22,0,0,0,1.89,2.09c1.12.08,1.25-1,1.68-1.79a39.74,39.74,0,0,0,4.68-12.49c.3-1.76.82-3.4,2.67-3.86s3.18.88,4.15,2.26a22.89,22.89,0,0,1,3.76,9.22c.89,5,2.67,9.69,3.8,14.58.21.9.57,1.94,1.42,2.14s1.51-.74,2-1.47a12.57,12.57,0,0,0,2-4.22c1.9-6.74,1.26-13.78,2.49-20.58,1.12-6.17,3.09-11.91,9.29-15,.4.81.81,1.61,1.21,2.42-5.24,2.77-6.75,7.82-7.44,13.07-.75,5.64-.85,11.36-1.39,17a19.74,19.74,0,0,1-4.35,11.09c-3.13,3.75-6.48,3.4-8.55-1a61.06,61.06,0,0,1-4.19-12.73c-.64-2.84-1-5.76-3-9-1.18,4-3.08,7.19-4.62,10.54-1.13,2.45-2.48,4.66-5.57,4.61a6.57,6.57,0,0,1-6.32-4.7c-2-5.35-4.57-10.65-5.46-16.2-1.49-9.21-8.54-12.87-16.9-13.21-12.68-.52-17.22-4.64-16.38-17.33a108.84,108.84,0,0,1,10.69-39.68c5.22-11,11.46-21.37,20.31-29.85,4.45-4.27,6.56-9.69,9.28-15,5.92-11.44,12.22-22.79,23.34-30.21a30,30,0,0,1,21.16-4.87c5.65.77,11.3,1.65,16.9,2.73a7.26,7.26,0,0,0,4.84-.62c2.83-1.59,6-2.2,8.94-3.32a106.59,106.59,0,0,1,34.64-7.5c13.13-.43,24.13,5.24,33.71,13.75,8.83,7.84,16.29,17,23.48,26.27,13.5,17.45,30.24,31.47,47.29,45.17,6.67,5.36,12.94,11,17.09,18.7,3.88,7.18,3.6,11.48-1.66,17.83-4.52,5.46-4.51,5.4,2.4,7.21,6,1.56,47.8,41.79,53.2,44.76,10.26,5.63,20.72,5.83,31.35,1.35,7.43-3.12,14.8-6.4,21.35-11.24A37.08,37.08,0,0,0,643.53,154c1.27-3,.47-6-.14-8.93-2.54-12.21-5.68-24.18-13.27-34.52-3.12-4.25-7.54-7-11-10.81a2.65,2.65,0,0,0-2.5-.61c-1.88.23-3.78.42-5.68.51-9.13.43-15.13-4-17.29-13-1.72-7.17-2.25-14.58-4.54-21.66-1.37-4.25-2.63-8.54-4.17-12.75-3.74-10.26,3-20.32,13.88-20.44a9.79,9.79,0,0,0,7.29-3.37c2.57-2.61,4-5.9,5.55-9.15a57.77,57.77,0,0,1,6.07-10.82c2.62-3.45,5.34-6.66,10-7.28.55-.08,1-.74,1.55-1.13Z"/><path class="cls-15" d="M161.3,266.6c-1,.57-2.05.85-3.06,0-.81-1.24-.31-2.91-1.37-4.07-.31-15.11-.46-30.22.84-45.31.82-9.51-1.78-18.18-6.65-26.26-1.76-2.92-2.32-3-4.39-.12-1.37,1.9-2.54,4-3.84,5.92-1.61,2.44-3.54,4.49-6.82,3.9a8.52,8.52,0,0,1-6.95-6.11,16.46,16.46,0,0,1-.5-7.64,34.58,34.58,0,0,1,.89-4.28c.68-2.39-.18-5.53,2.35-7.05,4.37-2.63,8.66-5.73,14.28-4.9,1.81.26,3.66.84,6,.07a13.58,13.58,0,0,0-5.43-3.6c-1.14-.46-2.34-.77-3.51-1.17-6.4-2.2-9.81-6.28-9.84-11.73,0-7.53,4-13.81,10.17-15.9a8.23,8.23,0,0,1,5-.08c6.76,1.92,12.19,5.52,15.19,12.17.91,2,1.94,4,3.13,6.42,1.82-4.06,3.38-7.85,5.76-11.2,3.82-5.37,9.17-7.45,15.45-7.05,7.13.44,11.45,6.33,10.16,13.36a21.42,21.42,0,0,1-3.25,7.69,64.06,64.06,0,0,0-6.27,11.47,16.12,16.12,0,0,0,.54,13.66q4.35,8.53,8.86,17c4.16,7.75,7.5,15.72,8.1,24.67.34,5.23-.45,10-3.46,14.39-3.32,4.78-6.19,10-10.07,14.25-4.24,4.65-4.13,9.27-2,14.42,6.15,15,15.92,26.07,32.33,30.12,12.4,3.06,61.75,22.41,78.75,11.41,2.38-1.54,2.48-4.09,2.7-6.31.67-6.5,2.14-12.62,8.42-16.4-12.46-4.88-14.05-7.68-12-20.71a56.5,56.5,0,0,1,3.1-11.66c2.77-7.21,1.92-14.3-.65-21.33-1-2.84-2.2-5.63-3.27-8.45-2.12-5.65-1-9.31,3.86-12.87a96.23,96.23,0,0,1,13.11-7.45c7-3.56,13.92-7.16,20.63-11.21s9-10.18,8.3-17.71c-.85-9-4.66-17-8.65-24.88-.4-.81-.81-1.61-1.21-2.42,2.32-1.52,4.77-3.47,7.59-1.87,2.57,1.46,2.59,4.5,3,7.15,0,.32-.11.67-.06,1,.66,4.52.86,9.19,3.95,13,2.11,2.57,4.95,2.27,6.43-.71a16.33,16.33,0,0,0,1.58-9.46c-1.07-8.62,3-15.56,11.08-18.91,7.6-3.15,15.58-5.48,22.47-10.19,3.4-2.32,5.74-6,9.7-7.62,7.82-3.22,11.51-2.2,13.49,5.82.53,2.17.87,4.4,1.44,6.56,2.25,8.51,4.64,17,8.59,24.91,2.74,5.49,5.81,10.81,8.47,16.34,2.91,6,2.93,12-1,17.78a70.81,70.81,0,0,1-8.55,10.78c5.77-1.86,10.85-1.89,15.79-2.79.83-.16,2-.68,2.34.48s-.56,1.77-1.62,2.07c-3.22.9-6.41,1.94-9.67,2.69-9.86,2.27-20.22,2.39-29.57,6.92-5.81,2.82-12,5.09-16.36,10.15-2.2,2.53-4.16,5.26-6.35,7.79-2.87,3.32-4.48,3.37-7.67.11-2.49-2.56-4.62-5.48-7.17-8-3.22-3.15-6.94-3.87-11.33-2.08-6.87,2.78-12.91,7.09-19.65,10.07-3.65,1.61-5.17,1.15-7-2.34-.9-1.66-1.73-3.56-3.82-4a108.13,108.13,0,0,0-17.67-1.47c1.13,2.88,2.3,5.41,3.13,8,2.6,8.21,4.14,16.45.43,24.81a47.73,47.73,0,0,0-4.4,18.82,5.9,5.9,0,0,0,2.92,5.64,29.19,29.19,0,0,0,22.34,3.1,76.06,76.06,0,0,0,21.8-9.13c.92,2-.33,3.12-1.82,4.08a67.51,67.51,0,0,1-25.06,9.75c-1.43.26-3.19-.67-4.26.35-3.24,3.1-7.18,5.67-8.05,10.69.29,21-11.79,24.08-20.86,25.07-10.39,1.14-54.65-16.86-64.68-19.54-5.28-1.41-10.56-2.86-15.38-5.57a54.34,54.34,0,0,1-20-19.21,50,50,0,0,1-7.84-28.58c.19-6.91,1.36-13.79.71-20.75-.08-.91-.43-2.27.88-2.59,1.46-.37,1.78,1,2.25,2a7.71,7.71,0,0,1,.44,1.6c1.55,6.28,1,12.68,1,19.05,0,1.26-.32,2.6.53,4.26,3.51-5.5,6.67-10.69,9.61-16a19.59,19.59,0,0,0,2.27-12.6,62.19,62.19,0,0,0-4.62-15.67c-3-7-7.57-13.2-10.57-20.2-2.43-5.67-4.23-11.41-2.43-17.85,1.14-4.09,3.37-7.5,5.28-11.13,1.76-3.35,4.34-6.25,5.28-10,1.13-4.62-1.47-8.08-6.22-8.13-5.28-.05-9.09,2.33-11.93,6.76-2.3,3.6-3.71,7.63-5.87,11.27-1.52,2.59-3.66,2.65-5.1.13a32.65,32.65,0,0,1-2.85-6.08,19.17,19.17,0,0,0-8.91-11.22c-2.39-1.35-5.07-3.2-8.17-1.71-3.86,1.85-7.2,7.23-6.9,11.15.37,4.86,4,6.66,7.92,7.92a27.44,27.44,0,0,1,9.41,5c1.43,1.2,2.61,2.57,2.09,4.58a4.85,4.85,0,0,1-4,3.64,33.42,33.42,0,0,1-6,.38c-8.56,0-15,8.85-12.34,17.06a3,3,0,0,0,2.26,2.25c1.18.2,1.73-.74,2.27-1.65,1.08-1.83,2.17-3.65,3.37-5.4,6.19-9,15.31-6.36,20.49-.64.7.78,1.39,1.71.66,2.68-.93,1.23-1.75.06-2.56-.39-2.05-1.14-3.78-3.19-6.74-2.35a5.74,5.74,0,0,0,.66,1.32c6.86,7.32,9.07,16.21,8.78,25.94-.25,8.15-1.47,16.25-1.47,24.44C162,248.3,161.57,257.45,161.3,266.6Z"/><path class="cls-13" d="M156.87,262.49c1.06,1.16.56,2.83,1.37,4.07-.83,5.65-2,11.27-1.63,17.05a3.29,3.29,0,0,1-.64,2.81C154.69,278.39,155.43,270.43,156.87,262.49Z"/><path class="cls-13" d="M686.61,335c15,6,110.22,50.33,106,52-9.78,3.88-78.73-1.7-89,0-11.11,1.84-81.26-30.85-88-39-9.79-11.84-7.69-33.13-5.88-47.68A138.52,138.52,0,0,1,622.59,257c.57-1.17.91-2.63,2.63-2.72.1,1,0,2.27,1.26,2.42s1.39-1.21,1.69-2.11a63.68,63.68,0,0,1,10.53-19.33c.7-.91,1.41-2.39,2.77-2.08,1.16.27.57,1.76.8,2.68.84,3.39,3.19,6.1,3.91,9.59,1.63,7.92.09,15.32-3.2,22.47-2.8,6.09-2.52,12,.16,18.09a107.11,107.11,0,0,0,22.07,32.92C670.64,324.3,676.61,329,686.61,335Z"/><path class="cls-13" d="M656.24,131.77c-2.17,1.4-3.84.94-5.37-1.15-4.11-5.63-6.84-11.94-9.41-18.35-1-2.48-2.14-4.91-3.33-7.3-2.49-5-2.47-10.54-3.41-15.87-.53-3-1.12-5.92-3-8.38-3.15-4.11-2.34-8.89-2.41-13.53,1.85-2.91,3.62-5.86,4-9.39.7-6.2-2.48-10.58-6.81-14.39-1.24-1.09-2.62-2-3.94-3,1.11-3.54,2.18-7.09,5.32-9.48.93,7.31,2.73,14.21,8.42,19.52,6.24,5.82,14.13,5.54,17.78-3.2,1.23-2.94,2.08-6,3.16-9.25a22.22,22.22,0,0,0,11.5,5.15,8.94,8.94,0,0,1,7.58,6.73c1.37,4.82,3.44,9.14,7.45,12.42,5.06,4.13,2.16,16.32-5,18.24a3.93,3.93,0,0,1-4.62-1.79c-1.16-1.64-2.2-3.36-3.33-5a11.34,11.34,0,0,0-8.65-5.07c-5.08-.54-8,1.77-9.31,7-2.9,11.13-1.9,22.27-1,33.54C652.57,116.93,655,124.21,656.24,131.77Z"/><path class="cls-12" d="M627.89,30.91c-3.14,2.39-4.21,5.94-5.32,9.48-4.26-2.22-8.52-4.47-12.8-6.64-.79-.4-1.7-.81-.74-1.59C615.31,27,616.8,19,621.2,12.66c6.82-9.76,19.33-9.79,25.38.63,5.59,9.62,7.67,20,3.58,30.89-2.42,6.42-6.15,7.32-10.95,2.39s-6.13-11-7.21-17.35c-.3-1.75-.48-3.53-.74-5.29-.1-.7-.39-1.33-1.17-1.43s-1.17.54-1.48,1.14C627.39,26,628.18,28.49,627.89,30.91Z"/><path class="cls-13" d="M161.82,279.87c.08,1.22.23,2.45.21,3.67,0,2.37-1,2.91-3,1.42a12.47,12.47,0,0,1,0-6h0C159.6,280.36,160.53,280.63,161.82,279.87Z"/><path class="cls-13" d="M159.09,278.92l-.17-.88c.77.17.27.56.15.88Z"/><path class="cls-12" d="M266.5,146.27l.33.24-.36-.2Z"/><path class="cls-13" d="M350.51,275.09c1-.65,1.47-.29,2.53.1a4.52,4.52,0,0,0,2.72-.09c2.06-.56,4-1.55,6-2.28s4.25-1.19,6.35-1.85a31.52,31.52,0,0,1,10.52-1.88c2.85.1,3.73,1.51,3.53,4.06-.5,6.5-3.78,11.15-9.24,14.6s-11.88,5-18,6.88c-11.24,3.47-21.57,8.23-29.77,16.93-.41.45-1.18.56-1.78.83a29.33,29.33,0,0,1,3.61-10c1.43-2.43,2.95-5.05,6.09-5.81,1.25-.3,2.62-.67,2.08-2.34s-2-1.17-3.15-.85c-4.67,1.29-7.48,4.63-9.41,8.82-2.52,5.46-2.7,11.37-3.27,17.21-1.49-.43,1.55-9.3,1.07-8.72-2.26,2.74-10.36,6.57-13.77,6.3,5-8,3.19-8.33,4.71-17,.87-5,4.81-7.59,8.05-10.69,1.07-1,2.83-.09,4.26-.35a67.51,67.51,0,0,0,25.06-9.75C350.18,278.22,351.43,277.14,350.51,275.09Z"/><path class="cls-15" d="M556.73,325.52a10,10,0,0,0-5.15-5.88c-.82-.39-1.73-.87-1.48-1.95s1.37-1.44,2.38-1.49a7.12,7.12,0,0,1,5.66,2.48c6.71,7.14,11,15.35,11.36,25.39a44,44,0,0,1-9.5,29.32c-4.1,5.39-10.56,7.88-16.17,6.05a16.75,16.75,0,0,1-11.39-15.07c0-2.13,0-4.26,0-6.39,0-.62.27-1.47-.54-1.76s-1.1.52-1.48,1a38.59,38.59,0,0,0-3.93,7.4c-.49,1.12-.9,2.29-1.49,3.36-1.7,3.11-4,5.67-7.87,5.2a9.8,9.8,0,0,1-8.1-6.75c-2.5-6.69-.67-13.22,1.46-19.56,2.59-7.71,6.87-14.8,8.57-22.85a1.28,1.28,0,0,1,1.41-1.13,2,2,0,0,1,1.86,1.2c1.15,2.11.94,4.36.46,6.55-1.17,5.25-3.28,10.2-5.19,15.21a48.66,48.66,0,0,0-3.26,13.27,5.88,5.88,0,0,0,0,2c.55,2,.44,4.8,2.88,5.19,2.27.36,2.64-2.35,3.49-3.95,2-3.83,3.72-7.86,7-11,2.27-2.2,4.86-3.08,7.63-2,2.59,1,2.93,3.84,3.12,6.27.23,3,0,6.05.09,9.07.15,3.83,1.65,6.92,5.37,8.57,3.4,2.19,5.75,1.91,9.11-1.38,8.42-8.23,11.39-18.49,10.23-29.9C562.61,336.06,560.75,330.29,556.73,325.52Z"/><path class="cls-16" d="M380.46,99.75c1.29,4.25.11,8.14-1.74,11.93A43.19,43.19,0,0,0,359,117.52c-1.38.78-2.13.19-2.89-.6a25.32,25.32,0,0,1-7.3-19.83c.08-1.27.26-8.12,1.81-8.09,4-8,8.14-7.37,15-6,5,1,7.31,4.4,8.79,6C377.24,92.17,378.45,96.18,380.46,99.75Zm-23.71,4.09c.7,2.23,2.19,3.5,4.5,3.07a3.86,3.86,0,1,0-1.44-7.58C357.56,99.81,356.59,101.55,356.75,103.84Z"/><path class="cls-16" d="M319.24,109.11c1.13,5.78-.78,10.65-4.5,15-1.69.32-3.32-.2-5-.43a45.82,45.82,0,0,0-13-.18c-5.87.86-5.88,1-7.68-4.6-.51-1.59-.84-3.25-1.29-4.86-1.11-3.94,0-7.46,1.9-10.9.92-1.68,5.13-8.8,6.93-8.12,6-4,5.29-1.78,11-4,3.64-1.41,8.27,8.36,9.57,12,.34.95.63,1.9.94,2.86A3.71,3.71,0,0,0,319.24,109.11Zm-24.08,7.1c.51,2.77,2,4,4.33,3.63a3.85,3.85,0,1,0-4.33-3.63Z"/><path class="cls-14" d="M345,107.84c-.81-3.73-1.68-7.59-1.27-11.43a19.2,19.2,0,0,1,17-17.15,16.35,16.35,0,0,1,9.34,1.62,19.64,19.64,0,0,1,7.07,6.9,32.24,32.24,0,0,1,4.1,9.39,3.5,3.5,0,0,1,.14,1.57,1.27,1.27,0,0,1-1,1.06,53.94,53.94,0,0,0-3.66-7.53A18.85,18.85,0,0,0,371,86.19a14.37,14.37,0,0,0-16.2.45c-6.21,4.67-7.07,13.24-4.85,20.17a26.31,26.31,0,0,0,6.16,10.11c.76.79,1.51,1.38,2.89.6a43.19,43.19,0,0,1,19.73-5.84c3.55.28,7.16-.27,10.65.67,1.12.3,2.91.28,2.78,1.85s-1.82,1.2-3,1.16a61.92,61.92,0,0,0-32.92,8.47c-.58.33-1.15.69-1.75,1-.9.44-2,1.13-2.78.29-.94-1,0-1.82.79-2.5,1.33-1.17,1.19-1.89-.28-3.06A19.94,19.94,0,0,1,345,107.84Z"/><path class="cls-13" d="M468.06,143.85c4.24-10.58,3.89-21-.72-31.46-1.77-4-3.11-8.26-2.47-12.87.4-2.86,1.51-3.28,3.66-1.61,1.7,1.33,4.15,1.84,4.64,4.51.23,1.24,1.34.88,2.21.75a76.21,76.21,0,0,1,8.73,26.34c.83,6.29-.11,12.48-5.95,16.74C473.76,149.46,470.55,148.78,468.06,143.85Z"/><path class="cls-14" d="M468.06,143.85c2.49,4.93,5.7,5.61,10.1,2.4,5.84-4.26,6.78-10.45,5.95-16.74a76.21,76.21,0,0,0-8.73-26.34,24.94,24.94,0,0,0-4.7-9.49c-.53-.63-1.19-1.12-.52-2s1.53-.71,2.4-.24a7.67,7.67,0,0,1,3,3.08,142.57,142.57,0,0,1,11.17,26.39A32.5,32.5,0,0,1,488,138.31a17.36,17.36,0,0,1-11.5,13.35c-5.42,2-10.93-1.26-12.45-6.83-1.63-6-1.65-12.13-2.06-18.24a9,9,0,0,0-.29-2.63c-.57-1.39-.85-3.35-2.71-3.44s-2.19,1.72-2.71,3c-.65,1.66-1.55,3.18-3.37,3.38-2.05.23-3.56-1-4.68-2.72-2.24-3.4-2.41-7.91-.36-10.74.52-.71,1-1.72,2.08-1.16.91.47.43,1.38.27,2.12-.36,1.62-1.09,3.22-.32,4.91.32.72.72,1.48,1.52,1.68,1.05.28,1.17-.71,1.58-1.35,1.59-2.48,3.66-4.39,6.82-4,3.42.42,4.61,3.22,5.58,6a27.17,27.17,0,0,1,1.11,9.6A45.78,45.78,0,0,0,468.06,143.85Z"/><path class="cls-14" d="M285.39,127.79c2.61-1.25,3.08-2.64,1.56-5.45-3.07-5.64-5.11-11.55-2.9-18.25,3.09-9.36,14.28-16.93,24-15.84,5.1.58,9.63,5.22,11.19,11.56.46,1.85.79,3.73,1.18,5.6l-2.32.49c.21-.05-2.24-5.48-2.54-6-2-3.69-4.7-6.77-9.14-7-8.21-.37-15.55,6.5-18.34,13.77a11.85,11.85,0,0,0-.32,7.35c.45,1.61.78,3.27,1.29,4.86,1.8,5.55,1.81,5.46,7.68,4.6a45.82,45.82,0,0,1,13,.18c1.65.23,3.28.75,5,.43,2.12.64,4.27,1.2,6.34,2,.88.32,2.11.88,1.87,2.07-.3,1.48-1.7,1.23-2.77,1.1-6.2-.71-12.37-1.69-18.66-1.5-5,.14-10,.57-14.55,3-1.08.57-2.57,1.29-3.34,0C282.72,129.25,284.16,128.38,285.39,127.79Z"/><path class="cls-13" d="M556.73,325.52c4,4.77,5.88,10.54,6.49,16.51,1.16,11.41-1.81,21.67-10.23,29.9-3.36,3.29-5.71,3.57-9.11,1.38a13.92,13.92,0,0,1,2.61-10.08c2-2.63,2.21-6,2.75-9.18.16-1-.1-2.1,1.34-2.28,1.49,1.59,2.39,1.39,3.11-.86a22.32,22.32,0,0,0-.48-14.33c-.77-2.21-2.27-4.18-5.26-2.92-.84-1.28-.62-2.74-.73-4.16-.18-2.32,1-3.09,3.11-3.29S554.73,326.93,556.73,325.52Z"/><path class="cls-14" d="M559,251.58c2.2.59,4.46,1.74,7.07,2.13,6.73,1,11.1-2.2,13.09-6.78,1.41-3.26,3.65-4.92,7.1-5.88,7.63-2.13,15.12-4.77,22.66-7.22,1.21-.39,2.67-.91,3.23.55s-1,2.09-2.07,2.56c-7,3.09-13.87,6.77-21.36,8.7a9,9,0,0,0-5.91,4.26c-5.89,9.42-16.18,11.19-25,4.57-.69-.51-1.8-.81-1.36-2C556.74,251.5,557.76,251.55,559,251.58Z"/><path class="cls-14" d="M441.82,68.73c.07.87.14,2.35-1.14,2.82s-1.49-1-2-1.82c-5.18-8.15-10.85-15.87-19.32-21-2.85-1.72-5.72-3.52-9.13-4-.92-.12-2.3.47-2.17-1.17a2.4,2.4,0,0,1,2.45-2.32,15.91,15.91,0,0,1,5.91,1C429,47,436.79,56.27,441.82,68.73Z"/><path class="cls-14" d="M200.23,318c1.41-.49,2.19.28,2.88,1a73,73,0,0,0,23.49,15.64c3,1.24,5.91,2.59,8.85,3.91.74.33,1.5.8,1.06,1.75-.33.71-1.09.63-1.77.47-13-2.95-24.81-8-33.42-18.79C200.46,320.9,199.22,319.62,200.23,318Z"/><path class="cls-14" d="M319.48,319.41c0-.77,0-1.53,0-2.3a36.78,36.78,0,0,1,3.42-15.59c1.86-3.75,5-7,9.06-8.17a3.77,3.77,0,0,1,2.15-.11,1.65,1.65,0,0,1,1.23,1.6c-.12,1.15-1.56,1.52-2.65,1.89a10.64,10.64,0,0,0-5.4,4.9,28.57,28.57,0,0,0-3.63,12.26,81.47,81.47,0,0,0,.26,12.88,2.47,2.47,0,0,1-.47,2.05,1.67,1.67,0,0,1-2.24-.31c-1.1-1.21-1.16-3.54-1.37-5.08C319.64,322.1,319.53,320.75,319.48,319.41Z"/><path class="cls-14" d="M199,333.88c-.48-1.4,0-2.18,1.48-2.21a3,3,0,0,1,1.56.53,110.82,110.82,0,0,0,17.37,8.5c1.14.46,3.47.87,2.93,2.57s-2.69.66-3.84.31c-5.94-1.82-12-3.51-17.05-7.4A33,33,0,0,1,199,333.88Z"/><path class="cls-14" d="M330.09,314.89c.45-4.57,1.73-4.89,5.79-7,.86-.45,1.91-1.08,2.73-.09s0,1.7-.53,2.4c-2.94,4.13-1.83,1.59-4.39,5.91-.58,1-1.22,1.62-2.4,1.22S330,316,330.09,314.89Z"/><path class="cls-14" d="M430,73.72c.17,1.31.69,2.55-.57,3s-1.3-1-1.69-1.71a44.27,44.27,0,0,0-8.27-9.62c-.7-.66-1.55-1.6-2.6-1.23s-2,.7-2-.89c0-1.29.46-2.49,2.11-2.4a5.09,5.09,0,0,1,2.27.42A27,27,0,0,1,430,73.72Z"/><path class="cls-14" d="M548,333.66c3-1.26,4.49.71,5.26,2.92a22.32,22.32,0,0,1,.48,14.33c-.72,2.25-1.62,2.45-3.11.86,0-.67,0-1.33,0-2,1.6-4.67-.09-9-1.22-13.46-.09-.34-.93-.48-1.42-.7Z"/><path class="cls-13" d="M548,335.61c.49.22,1.33.36,1.42.7,1.13,4.41,2.82,8.79,1.22,13.46Z"/><path class="cls-13" d="M318.12,105.9l2.32-.49c.25,1.44.51,2.89-1.2,3.7A3.71,3.71,0,0,1,318.12,105.9Z"/><path class="cls-15" d="M356.75,103.84c-.16-2.29.81-4,3.06-4.51a3.86,3.86,0,1,1,1.44,7.58C358.94,107.34,357.45,106.07,356.75,103.84Z"/><path class="cls-15" d="M295.16,116.21a3.51,3.51,0,0,1,3.17-4,3.85,3.85,0,1,1,1.16,7.61C297.21,120.19,295.67,119,295.16,116.21Z"/><path class="cls-17" d="M1073.25,588.53l-.09-.19c-1.33-2.68-4.31-4.24-7.27-4.6-5.08-.63-10.24,1-15.16,2a139.08,139.08,0,0,0-16,4.42,69.85,69.85,0,0,0-18.51,9.48c-4.78,3.52-11.83,9.21-10.26,16,1.22,5.31,9.47,7,13.82,8.44,8.6,2.81,17.89,4.15,26.9,4.91,3.18.26,6.48.45,9.35,1.86,2.18,1.07,2.46,2.81,1.09,4.75a36.66,36.66,0,0,1-10.92,9.9,55.11,55.11,0,0,1-6.61,3.42c-1.36.59-5.74,1.4-5.76,3.22a3.53,3.53,0,0,0,.89,2.09c1.83,2.48,4.29,4.68,7.31,5.27a13.59,13.59,0,0,0,7.36-1.09c11.2-4.38,29.53-23.59,12.52-32.41-7-3.63-14.92-5.68-22.62-7.7a90.15,90.15,0,0,0-9.94-1.86c-1.89-.27-12.55-.17-10.55-4.14a5,5,0,0,1,2.32-1.93c6.56-3.46,13.13-6.91,19.95-9.82,6.49-2.77,13.82-5.74,20.92-6.31-.22,0,.23,1.14.4,1.29.45.39,1.06.23,1.58.18,3.47-.3,6.94-3.41,9-6a1.5,1.5,0,0,0,.39-.76A1.05,1.05,0,0,0,1073.25,588.53Z"/><path class="cls-17" d="M1271.15,597.32c4-6.41,6.1-13.83-2.49-16.26-3.72-1.06-7.52-2.44-11.3-2.5-13.83-.25-26,4.9-37.34,12.42-3.4,2.25-2.64,4.43-1.35,7.59,1.75,4.25,3.73,8.91,3.6,13.34-.27,8.92-1.88,17.8-2.94,26.69-.78,6.61-2.17,13.23-2,19.8.06,2.2,3.83,5.4,6.47,6.15,4.85,1.36,5.25-3.9,5.72-7.26.84-6.13,1.16-18.93,9.59-18.27s17,.9,25.51,1.1c1.18,0,10.43.28,8.13-2.43-3.55-4.17-9.5-5.59-14.67-6.5-2.71-.47-5.46-.74-8.18-1.17-.87-.14-7.79-2.22-8-2,7.68-7.18,15.36-14.35,22.57-22A58.42,58.42,0,0,0,1271.15,597.32Zm-32.86,17.24a.8.8,0,0,1-.21,0,1.71,1.71,0,0,1-.89-1.08,16.7,16.7,0,0,1,9.26-22.11,27.35,27.35,0,0,1,7.87-1.79,9.22,9.22,0,0,1,4,.17c2.22.94,1.47,1.37,0,3.11-6,7-12.27,13.89-18.41,20.83C1239.42,614.11,1238.87,614.62,1238.29,614.56Z"/><path class="cls-17" d="M706.76,573.43a6.94,6.94,0,0,0-3.69-.51c-20.34,1.14-40.5,7.69-60,13.35L630.36,590c-3.15.92-5.72,2.08-6.49,5.4-.73,3.14.19,7.64,3.14,9.41,2.73,1.63,6.22.45,9.16-.76l18-7.34c-1,20.22-7.67,39.83-8.72,60.05a20.54,20.54,0,0,0,.83,8.34c1,2.64,3.24,5,6,5.32a3.48,3.48,0,0,0,2.43-.48,4,4,0,0,0,1-1.24c2.18-3.54,2.71-7.83,3.24-12,2.53-19.8,6.11-39.46,9.69-59.1a14.14,14.14,0,0,1,2.09-6.06c1.66-2.25,4.46-3.3,7.13-4.1,9.9-3,20.38-4.34,29-10.42a2.84,2.84,0,0,0,1.06-1.09,2,2,0,0,0-.86-2.3A3.24,3.24,0,0,0,706.76,573.43Z"/><path class="cls-17" d="M1159.48,573.43a6.94,6.94,0,0,0-3.69-.51c-20.34,1.14-40.5,7.69-60,13.35l-12.76,3.7c-3.15.92-5.72,2.08-6.49,5.4-.73,3.14.19,7.64,3.14,9.41,2.74,1.63,6.22.45,9.16-.76l18-7.34c-1,20.22-7.68,39.83-8.73,60.05a20.71,20.71,0,0,0,.83,8.34c1,2.64,3.24,5,6,5.32a3.48,3.48,0,0,0,2.43-.48,4,4,0,0,0,1-1.24c2.18-3.54,2.71-7.83,3.24-12,2.53-19.8,6.11-39.46,9.69-59.1a14.28,14.28,0,0,1,2.09-6.06c1.66-2.25,4.46-3.3,7.13-4.1,9.9-3,20.38-4.34,29-10.42a2.77,2.77,0,0,0,1.06-1.09,2,2,0,0,0-.86-2.3A2.5,2.5,0,0,0,1159.48,573.43Z"/><path class="cls-17" d="M744,571.43c-5.26-.83-5.85,3.74-6.51,7.16a200.41,200.41,0,0,0-3.55,23.17c-.58,7.76-5.13,10.37-12.57,11.92.42-2.69.65-4.66,1-6.6,1.61-7.89,3.45-15.73,4.87-23.65,1-5.43-2.34-8-7.18-9.12-6.2-1.42-6.84,6.12-7.53,10.39-1.46,9-3.36,17.88-5.21,26.78-.8,3.86-1,8-3.34,11.28-2.87,4.06-7.63,6-12,8.08-3.64,1.7-11,4.2-8.5,9.44,2.17,4.5,6.35,4.8,10.69,3,2.42-1,4.79-2.12,8-3.54,0,3.7.11,6.19,0,8.66-.26,5.05-1.18,10.12-.88,15.12.48,8,4.51,10,10.78,7.3,1.53-12,2.8-23.36,4.49-34.65.94-6.31,5.71-8.73,11.76-10.09-1.35,9.82-2.79,19.07-3.83,28.37-.45,4.08.31,8,5.61,8.65s6.57-2.74,7.35-7c1.45-8,3.21-15.89,4.65-23.86,1.35-7.48,6-39,6.68-42.87.45-2.49,1.17-4.92,1.55-7.42C751.16,576.7,749.78,572.35,744,571.43Z"/><path class="cls-17" d="M770.81,620.28l32.93-9.68c.13,11.58-23,24.57-38.07,21.81-1.38,5.54-2.77,11.13-4.15,16.72l1.79,1.64,28.93-16.26a13.4,13.4,0,0,1,.77,2.63c.16,10.54-20.69,27.54-31,25.28-6.14-1.34-12.16-7.59-11.21-14.7,1.43-10.77,4.83-21.28,7.42-31.89,1.33-5.44,2.43-11,4.24-16.26a15.61,15.61,0,0,1,4.8-6.4c10.35-8.62,22.89-11.35,35.86-12.48,1.4-.12,4.25,1.95,4.21,2.9-.1,2.19-1,5.33-2.59,6.29a79,79,0,0,1-13.86,6.06C780,599.78,775.43,608.73,770.81,620.28Z"/><path class="cls-17" d="M890.67,599.11a2.32,2.32,0,0,0-.86-.26,4.61,4.61,0,0,0-2.17.48A19.6,19.6,0,0,0,880.5,605c-2,2.4-3.24,5.24-5.09,7.7-.56.74-1.5,2-2.53,1.09a3,3,0,0,1-.77-2c-.59-5.54.35-11.29.8-16.83.49-6,1-12,1.41-18,.27-3.93,1.71-8.43-4.42-9.77-5.89-1.28-6.4,3.25-7.53,6.71-4.18,12.78-8.84,25.71-12.47,38.78-3.74,13.47-5.46,27.24-8.15,40.93a5.34,5.34,0,0,0,0,2.83c1.2,3.38,6.91.56,8.27-1.24a13.27,13.27,0,0,0,2-4.91c2-8.09,3.56-16,4.94-24.17.21-1.3.7-5,2.3-5.36,2.57-.64,3.34,6.84,3.84,8.41.73,2.29,2.45,6.15,5.24,6.37s5.6-3,7.41-4.62,2.84-4.1,4.74-7c-1,16.23-2.07,31-2.65,45.79-.09,2.21,1.82,6.11,3.41,6.45,4.17.91,5-2.74,5.37-6.16,1.47-12.2,3-24.4,4.48-36.61q1.11-9.27,2.15-18.55a41.47,41.47,0,0,0,.51-8.76C893.49,604.25,892.71,600.19,890.67,599.11Z"/><path class="cls-17" d="M1165.21,620.28l32.81-9.64c.13,11.53-23,24.48-37.93,21.73-1.36,5.51-2.75,11.08-4.13,16.65l1.79,1.63,28.82-16.19a13.92,13.92,0,0,1,.77,2.62c.15,10.5-20.62,27.43-30.87,25.19-6.11-1.34-12.11-7.57-11.17-14.65,1.43-10.73,4.82-21.2,7.4-31.77,1.32-5.42,2.41-10.93,4.22-16.19a15.52,15.52,0,0,1,4.78-6.38c10.31-8.58,22.81-11.31,35.73-12.43,1.38-.12,4.23,1.94,4.19,2.89-.1,2.18-1,5.31-2.58,6.26a78,78,0,0,1-13.81,6C1174.4,599.86,1169.82,608.78,1165.21,620.28Z"/><path class="cls-17" d="M959.68,631.16c-1.3,7.51-2.59,15-3.92,22.53-.4,2.25-.4,4.79-1.52,6.63s-4.16,4.94-5.15,4.53c-2.24-.92-5-3.49-5.28-5.67-.5-4.19.28-8.64,1.08-12.88,1.65-8.75,3.5-17.48,5.66-26.12.59-2.37,2.63-6.24,3.93-6.21,3.09.08,7.61,1.21,8.92,3.45,5.25,9,9.53,18.57,14.09,28,1.3,2.69,2.31,5.52,3.46,8.29l2.67-.28c3.37-25.6,6.75-51.2,10.16-77,6.18.82,9.45,4,8.75,10.54-2.56,23.65-5,47.32-7.87,70.93-1.09,8.8-9.12,12.18-15.34,5.89-5.39-5.45-8.75-13-12.48-20-2.16-4-3.29-8.59-4.89-12.91Z"/><path class="cls-17" d="M903.5,631.52c.59-8.55,3.83-16.76,6.87-24.69,3.31-8.63,6.83-14.27,17-14.19,6.55.06,10.45,4.7,12,11.28,3.05,13.27.11,25.4-6.77,36.74-5,8.32-11.44,11.47-17.91,9.4C905.35,647.09,902.93,639.81,903.5,631.52ZM929.43,601c-8.91,5.1-16.85,30.39-12.84,39.81C927.43,634.08,933.57,615.54,929.43,601Z"/></g></g></svg>