<?xml version="1.0" encoding="UTF-8" standalone="no"?>
<svg
   xmlns:dc="http://purl.org/dc/elements/1.1/"
   xmlns:cc="http://creativecommons.org/ns#"
   xmlns:rdf="http://www.w3.org/1999/02/22-rdf-syntax-ns#"
   xmlns:svg="http://www.w3.org/2000/svg"
   xmlns="http://www.w3.org/2000/svg"
   xmlns:sodipodi="http://sodipodi.sourceforge.net/DTD/sodipodi-0.dtd"
   xmlns:inkscape="http://www.inkscape.org/namespaces/inkscape"
   viewBox="0 0 1243.4607 627.23679"
   version="1.1"
   id="svg106"
   sodipodi:docname="team_work_developing_monster.svg"
   width="1243.4607"
   height="627.23682"
   inkscape:version="0.92.4 (5da689c313, 2019-01-14)">
  <metadata
     id="metadata110">
    <rdf:RDF>
      <cc:Work
         rdf:about="">
        <dc:format>image/svg+xml</dc:format>
        <dc:type
           rdf:resource="http://purl.org/dc/dcmitype/StillImage" />
        <dc:title>slide_15</dc:title>
      </cc:Work>
    </rdf:RDF>
  </metadata>
  <sodipodi:namedview
     pagecolor="#ffffff"
     bordercolor="#666666"
     borderopacity="1"
     objecttolerance="10"
     gridtolerance="10"
     guidetolerance="10"
     inkscape:pageopacity="0"
     inkscape:pageshadow="2"
     inkscape:window-width="1716"
     inkscape:window-height="1381"
     id="namedview108"
     showgrid="false"
     fit-margin-top="0"
     fit-margin-left="0"
     fit-margin-right="0"
     fit-margin-bottom="0"
     inkscape:zoom="0.66811216"
     inkscape:cx="625.08483"
     inkscape:cy="212.02745"
     inkscape:window-x="0"
     inkscape:window-y="0"
     inkscape:window-maximized="0"
     inkscape:current-layer="svg106" />
  <defs
     id="defs4">
    <style
       id="style2">.cls-1{fill:#023d53;}.cls-2{fill:#791579;}.cls-3{fill:#7f58af;}.cls-4{fill:#511654;}.cls-5{fill:#feb326;}.cls-6{fill:#ff8a08;}.cls-7{fill:#ff8b0a;}.cls-8{fill:#ff8500;}.cls-9{fill:#ff5705;}.cls-10{fill:#ff8806;}.cls-11{fill:#ffb427;}.cls-12{fill:#bbb;}</style>
  </defs>
  <title
     id="title6">slide_15</title>
  <path
     class="cls-2"
     d="m 737.60992,375.29706 c 2.6,15.59 -35.17,36.61 -10,49.52 25.17,12.91 42.58,2.05 52.63,14.25 10.05,12.2 -7.42,24.51 17.7,44.61 25.12,20.1 100.48,12.91 127,-15.08 26.52,-27.99 29.42,-55.26 32.29,-84.68 2.87,-29.42 3.59,-39.48 -25.83,-40.2 -29.42,-0.72 -35.89,-3.58 -38.76,-15.79 -2.87,-12.21 -21.69,-37.24 -49.68,-33.65 -27.99,3.59 -33.57,12.84 -55.82,25.76 -22.25,12.92 -53.14,33.73 -49.53,55.26 z"
     id="path34"
     inkscape:connector-curvature="0"
     style="fill:#791579" />
  <path
     class="cls-3"
     d="m 908.44992,351.08706 c -0.46,2 0.44,3.83 0.23,6.14 -0.29,3.06 -4.26,2 -7.16,3 -18,6.16 -36,2.85 -54,-2 -17.23,-4.64 -33.24,-13.34 -50,-19 -3.3,-1.11 -7.5,-5 -11,-5 -17.66,0 -39,-8.54 -28.91,-42.58 10.09,-34.04 15.13,-39.09 36.56,-34.05 21.43,5.04 64.31,-5 79.44,8.83 15.13,13.83 21.44,31.52 35.31,44.13 5.92,5.38 8.58,13.95 8.27,21.79 a 26.5,26.5 0 0 1 -3,11.49 c -1.22,2.29 -3.73,3.5 -5.05,5.69 a 5.24,5.24 0 0 0 -0.69,1.56 z"
     id="path36"
     inkscape:connector-curvature="0"
     style="fill:#7f58af" />
  <path
     class="cls-3"
     d="m 937.52992,363.88706 c 0.58,-6.33 5.29,-11.49 10,-15.31 5.58,-4.54 10.42,-9.75 15.74,-14.54 9.19,-8.28 27.84,-7.17 38.28998,-2.07 11.11,5.42 16.11,17.08 6.5,26.69 -13.59998,13.6 -37.34998,30 -57.31998,20.43 -3.42,-1.64 -6.49,-3.78 -10.1,-5.12 a 5.67,5.67 0 0 1 -2.27,-1.25 c -1.69,-1.83 -1.05,-6.54 -0.84,-8.83 z"
     id="path38"
     inkscape:connector-curvature="0"
     style="fill:#7f58af" />
  <path
     class="cls-3"
     d="m 890.74992,405.09706 c 0,0 58,-11.35 89.52,5.05 31.51998,16.4 35.30998,36.56 25.21998,44.13 -10.08998,7.57 -28.99998,6.3 -41.60998,13.87 -12.61,7.57 -35.31,17.65 -55.48,5 -20.17,-12.65 -39.09,-20.17 -36.57,-30.26 2.52,-10.09 -15.13,-26.44 18.92,-37.79 z"
     id="path40"
     inkscape:connector-curvature="0"
     style="fill:#7f58af" />
  <path
     class="cls-3"
     d="m 722.42992,416.52706 a 13.5,13.5 0 0 0 4.68,-3.71 45.74,45.74 0 0 1 13.43,-10.29 41.89,41.89 0 0 1 32.94,-2.21 c 31.52,11.35 70.61,20.17 64.3,44.13 -6.31,23.96 -7.56,34 -70.61,31.53 -63.05,-2.47 -97.09,25.22 -95.83,0 1.11,-22.32 10.19,-53 35.35,-58.2 a 37.94,37.94 0 0 1 10.48,-0.56 11,11 0 0 0 5.26,-0.69 z"
     id="path42"
     inkscape:connector-curvature="0"
     style="fill:#7f58af" />
  <path
     class="cls-3"
     d="m 778.51992,370.19706 c -2.82,-10.14 -9.56,-22.75 -13,-26.54 -7.22,-7.9 -16.88,-14.72 -28.06,-14.22 -27.74,1.27 -61.79,-12.61 -78.18,5.05 -16.39,17.66 11.87,41.45 28.27,42.71 16.4,1.26 37.3,6.47 67.56,6.47 7.24,0 15.45,0.74 22.55,-1.1 5.95,-1.55 2.38,-6.88 0.86,-12.37 z"
     id="path44"
     inkscape:connector-curvature="0"
     style="fill:#7f58af" />
  <path
     class="cls-4"
     d="m 979.60992,409.59706 c -7.12,-2.31 -14.46,-4.18 -21.34,-7.12 l 0.64,-20.12 c 16.09,3.84 32.33,-5.68 44.57998,-16.79 5.06,-4.59 10.08,-10.1 10.66,-16.9 0.9,-10.59 -9.53,-19 -19.85998,-21.46 a 45.4,45.4 0 0 0 -36.31,7 c -3.42,2.41 -6.6,5.35 -10.58,6.61 a 27.79,27.79 0 0 1 -8.83,0.8 l -23.29,-0.36 c 5.18,-7.76 2.84,-18.48 -2.23,-26.3 -5.07,-7.82 -12.45,-13.85 -18.23,-21.16 -8.59,-10.87 -14.22,-25.06 -26.54,-31.39 -6.88,-3.53 -14.87,-4 -22.6,-4.42 l -57,-3 c -5.44,-0.29 -11.37,-0.44 -15.74,2.8 -3.12,2.31 -4.89,6 -6.52,9.48 -4.93,10.64 -9.66,21.61 -10.89,33.26 -1.23,11.65 1.5,24.27 9.77,32.57 a 161.64,161.64 0 0 1 -17.82,-2 l -42,-6.3 c -8.82,-1.33 -17.77,-2.66 -26.62,-1.54 -8.85,1.12 -17.73,5 -22.92,12.25 -5.19,7.25 -5.66,18.17 0.43,24.69 5.31,5.69 14.17,7.09 19.19,13 a 7,7 0 0 0 -8.54,4.27 c 22,1.66 44.1,3.33 65.77,7.54 a 53.77,53.77 0 0 0 -18,29.67 54.84,54.84 0 0 0 -47.27,41.51 60.86,60.86 0 0 0 -1.37,12.4 c -0.14,3.83 -1.25,8.44 -0.83,12.19 0.56,4.9 6.46,8.16 10.88,8.51 5.65,0.44 11.07,-1.94 16.41,-3.85 28.57,-10.27 59.91,-8.08 90.18,-5.76 a 30.76,30.76 0 0 1 8.22,1.38 c 3.66,1.34 6.66,4 9.88,6.2 17.35,11.94 40.31,10.79 61.21,8.15 16.65,-2.1 34.25,-5.32 46.59,-16.68 -17.86,5.29 -35.89,10.62 -54.47,12.05 -18.58,1.43 -38,-1.34 -53.8,-11.2 22,1.22 42.42,-20.08 40.28,-42 -0.57,-5.91 -2.63,-11.82 -6.67,-16.18 -3.88,-4.18 -9.24,-6.62 -14.46,-8.92 -16.06,-7.06 -32.62,-13.87 -50.11,-15.23 -17.49,-1.36 -36.33,3.55 -47.93,16.71 a 64.06,64.06 0 0 1 14.93,-24.95 9.86,9.86 0 0 1 3.9,-2.82 11,11 0 0 1 4.68,-0.06 c 11.43,1.53 23.62,2.74 34,-2.25 a 9.53,9.53 0 0 0 4.49,-3.68 c 1.64,-3 0.25,-6.7 -1.2,-9.8 a 303.35,303.35 0 0 0 -19.14,-34.82 c 19.43,-3 37.8,8.14 55.92,15.76 a 166.6,166.6 0 0 0 79.23,12.32 c 3.7,-0.34 8,-1.21 9.62,-4.56 1.62,-3.35 -0.2,-7.78 2.11,-10.63 1.71,-2.11 4.82,-2.26 7.53,-2.23 l 23.61,0.22 a 39.58,39.58 0 0 0 -8.38,17.84 c -0.52,2.74 -0.61,6 1.4,7.89 1.66,1.6 4.16,1.78 6.39,2.34 9.69,2.47 15.16,15.12 10.31,23.86 a 5.75,5.75 0 0 1 -2,2.3 c -1.55,0.87 -3.48,0.43 -5.2,0 a 99.23,99.23 0 0 0 -60.87,4.51 c -8.94,3.66 -18.6,11 -17.15,20.6 0.91,6.05 6.19,10.77 7,16.82 0.35,2.58 -0.15,5.26 0.46,7.79 1,4.24 4.85,7.12 8.42,9.61 16.57,11.57 35.79,23.38 55.6,19.4 12.32,-2.48 22.71,-10.82 34.79,-14.32 12.74,-3.7 28.77998,-3 36.06998,-14.09 7.41,-11.27 -0.66,-27 -12.08998,-34.2 a 72.34,72.34 0 0 0 -16.35,-7.21 z m -257.38,13.66 c 2.82,-3.48 5.88,-6.79 9,-10 7.69,-8 17.65,-10.93 28.27,-12.06 13.06,-1.37 24.88,3.45 36.75,7.81 5.77,2.12 11.36,4.73 17.14,6.87 4.58,1.69 8.59,4.33 12.69,6.86 5.18,3.19 7.27,8.14 7.67,13.83 a 46.82,46.82 0 0 1 -3.14,20.03 20.12,20.12 0 0 1 -11.9,12 63.07,63.07 0 0 1 -25.77,4.84 c -8.82,-0.27 -17.68,0.29 -26.48,-0.26 -11.81,-0.75 -23.61,-1.2 -35.42,-0.87 -15.08,0.41 -29.6,4 -43.79,8.86 a 74.16,74.16 0 0 1 -8.08,2.54 c -4.14,0.92 -6.47,-0.37 -7.22,-4.48 a 19.4,19.4 0 0 1 -0.12,-7 c 1.93,-10.12 4.18,-20.12 8.95,-29.46 6.52,-12.79 17,-19.65 30.87,-21.68 1.54,-0.23 3.09,-1.48 4.74,-0.33 0.42,1.22 -0.51,1.83 -1.08,2.62 -5.33,7.42 -11,14.62 -15.59,22.55 a 16.21,16.21 0 0 0 -0.92,2.28 l 3.12,0.09 a 69.12,69.12 0 0 0 4.59,-5.86 c 4.4,-7.09 10.49,-12.79 15.71,-19.23 z m 46.71,-69.43 a 93.21,93.21 0 0 0 8.9,18.91 c 1.86,3.11 1.58,4.35 -1.65,5.89 -6.53,3.1 -13.47,3.33 -20.47,2.17 -10.46,-1.73 -20.88,-3.77 -31.36,-5.38 a 240.25,240.25 0 0 0 -35.26,-2.32 c -2.32,0 -4.65,-0.13 -7,-0.21 a 16.87,16.87 0 0 1 -3.93,0.36 16.87,16.87 0 0 0 3.93,-0.36 c -1.86,-3.77 -5.9,-4.66 -9,-6.75 -3.29,-2.23 -6.74,-4.21 -9.87,-6.68 -4.88,-3.84 -5.53,-8.85 -4,-14.34 a 73,73 0 0 1 3.45,-8.78 c 2.42,-5.62 7.14,-8.25 12.84,-8.93 a 47.75,47.75 0 0 1 12.4,0.25 c 6.21,0.91 12.47,1.52 18.69,2.34 10,1.32 20,2.63 30.19,2.15 1.32,-0.06 2.64,-0.17 4,-0.26 v 0 l 2.89,0.17 2,0.24 v 0 c 10.33,4.36 19.45,9.9 23.24,21.48 z m 138.26,-13.31 c -1.11,1.65 -2.34,3.23 -3.38,4.93 -1.51,2.47 -2.36,5 -1.48,8.05 0.88,3.05 0,4.12 -3.25,4.73 -12,2.21 -24.06,1.92 -36.17,0.49 -10.1,-1.2 -20,-2.85 -29.65,-6.29 a 92.75,92.75 0 0 1 -12.33,-5.42 c -9.42,-5 -19.29,-9 -29.16,-13 a 40.33,40.33 0 0 0 -11.59,-2.72 c -6.57,-0.6 -11.73,-3.59 -14.09,-10.18 -1.67,-4.69 -3.41,-9.4 -4.08,-14.37 -0.86,-6.43 1,-12.53 2.87,-18.56 2.46,-8.12 7.2,-15 12.79,-21.19 a 23,23 0 0 1 10.11,-6.24 c 2.89,-1 5.92,0.36 8.82,0.76 a 68,68 0 0 0 9.43,0.74 c 11.66,0 23.32,-0.14 35,-0.1 11.49,0 21.44,4.26 29.92,11.85 a 93,93 0 0 1 13.62,14.56 53.39,53.39 0 0 1 8.27,18.59 c 0.44,1.74 0.79,3.48 2.42,4.67 2.69,-2.53 0.27,-5.23 0.83,-8.9 4.63,5.95 9.28,10.6 12.84,16.25 4.81,7.62 2.8,14.5 -1.75,21.3 z m 40.1,32.68 a 16.55,16.55 0 0 1 -2.19,-1.19 c -5.53,-3.73 -6.23,-6.87 -2.39,-12.37 2.94,-4.21 6.06,-8.25 10.24,-11.46 a 68.58,68.58 0 0 0 8.89,-8.74 c 3.38,-3.74 7.61,-5.71 12.28,-7.25 9.88,-3.25 19.32,-1.75 28.61998,2.1 a 37.11,37.11 0 0 1 6.12,6 v 0 c 2.25,6.32 0,11.46 -4.45,15.8 -4.99998,4.89 -10.18998,9.56 -15.38998,14.2 -4.92,4.41 -11.49,6.07 -17.94,6.87 a 42.78,42.78 0 0 1 -23.8,-4.01 z m 59.28998,67.71 c -1.08,7.46 -5.51,12.68 -12.91998,15 -4.95,1.57 -10.14,1.7 -15.23,2.3 -7.4,0.88 -14.35,2.75 -20.38,7.28 -7,5.25 -14.38,9.57 -23.34,10.37 -1.82,0.16 -3.63,0.39 -5.84,0.64 -12.75,-1.39 -25,-4.95 -35.61,-13.21 q -5.9,-4.59 -11.85,-9.1 c -3.23,-2.45 -5.47,-5 -3.88,-9.66 1.18,-3.46 -0.37,-6.84 -2.31,-9.9 -1.94,-3.06 -4,-5.73 -5.88,-8.63 -1.55,-2.36 -0.85,-3.45 0.78,-4.93 a 61.72,61.72 0 0 1 18.43,-11.68 82.63,82.63 0 0 1 30.63,-6 126.29,126.29 0 0 1 28.19,2.72 c 3.2,2.95 7.3,1.34 10.9,2.16 14.64,3.34 28.86,7.62 40.93,17.31 5.12998,4.12 8.28998,8.89 7.39998,15.28 z"
     id="path46"
     inkscape:connector-curvature="0"
     style="fill:#511654" />
  <path
     class="cls-4"
     d="m 775.69992,356.18706 v 0 a 0.46,0.46 0 0 0 0.07,0.07 z"
     id="path48"
     inkscape:connector-curvature="0"
     style="fill:#511654" />
  <path
     class="cls-4"
     d="m 869.99992,479.19706 a 15.38,15.38 0 0 0 8.88,-2.79 c 0.78,-0.53 1.8,-1.28 1.27,-2.41 -0.53,-1.13 -1.69,-0.79 -2.64,-0.56 -9.4,2.28 -19,2.56 -28.59,2.77 -1.34,0 -2.67,0 -4,0.06 -0.86,0 -1.75,0.26 -1.85,1.27 -0.13,1.37 1,1.6 2,1.61 4.49,0 9,0 13.48,0 v 0 z"
     id="path50"
     inkscape:connector-curvature="0"
     style="fill:#511654" />
  <path
     class="cls-4"
     d="m 696.93992,456.82706 a 22.07,22.07 0 0 0 5,-8.53 l -3.12,-0.09 c -3.39,4.86 -3.47,5.24 -1.88,8.62 z"
     id="path52"
     inkscape:connector-curvature="0"
     style="fill:#511654" />
  <path
     class="cls-5"
     d="m 221.54992,330.70706 a 48.68,48.68 0 0 0 3.36,-12 c 2.36,-14.59 1.29,-31 -8.74,-42.71 a 36.24,36.24 0 0 0 -4.92,-4.75 c -24.76,-19.86 -54.76,-28.19 -94.52,-9.92 -39.760001,18.27 -60.000001,52.61 -47.550001,75.08 12.45,22.47 51.380001,45.46 91.000001,35.79 a 108.13,108.13 0 0 0 40.22,-19.74 c 6.37,-4.92 12.93,-10 17.86,-16.28 a 26.21,26.21 0 0 0 3.29,-5.47 z"
     id="path54"
     inkscape:connector-curvature="0"
     style="fill:#feb326" />
  <path
     class="cls-6"
     d="m 67.609919,308.22706 a 16.05,16.05 0 0 1 1.06,-4.06 c 0.89,-2.18 5,-6.64 5,-8.72 9,-13.3 21.13,-23.14 35.160001,-30.63 16.8,-9 34.6,-14.1 53.89,-13.11 22.78,1.16 48.57,11.53 57.94,33.79 5.42,12.87 6.43,27.67 5.07,41.44 -1,10.69 -6.42,18.29 -14.33,24.61 a 60.85,60.85 0 0 1 -9.43,6.07 c -11.18,5.94 -22.41,11.85 -34.24,16.38 -20.41,7.82 -40.68,8.14 -60.47,-2.39 -9.810001,-5.22 -20.170001,-10.18 -28.300001,-17.94 -10.59,-10.11 -9.45,-20.5 -8.23,-34.09 0.08,-0.91 0.07,-2 -0.67,-2.51 -0.74,-0.51 -1.59,-0.32 -2.13,-0.88 a 2.27,2.27 0 0 1 -0.43,-1.52 40.32,40.32 0 0 1 0.11,-6.44 z m 69.420001,63.54 c 9.45,0.28 19.06,-1.63 28.93,-5.48 9.28,-3.63 18.81,-8.59 27.67,-13.22 8.42,-4.4 16.51,-10.43 20.53,-19 4.02,-8.57 4.56,-18.38 2.81,-27.74 -1.51,-8.09 -4.49,-15.83 -7.5,-23.49 -6.66,-17 -29,-24.3 -45.8,-23.64 -6.21,0.24 -12.39,0.16 -18.62,0.95 -31.92,4 -65.240001,23.61 -68.580001,58.31 -0.53,5.51 -0.93,11 0.09,16.48 1.37,7.32 6.77,11.9 12.18,16.34 5.66,4.64 12.080001,8.16 18.380001,11.77 a 63.41,63.41 0 0 0 29.89,8.72 z m -65.740001,-58.34 c -0.37,0.23 -0.4,0.5 -0.07,0.81 0.09,-0.13 0.26,-0.25 0.27,-0.38 0.01,-0.13 -0.15,-0.26 -0.22,-0.43 z"
     id="path56"
     inkscape:connector-curvature="0"
     style="fill:#ff8a08" />
  <path
     class="cls-5"
     d="m 101.07992,163.59706 a 49.11,49.11 0 0 0 -7.870001,9.63 c -8,12.44 -13.55,27.91 -9,42.65 a 36.12,36.12 0 0 0 2.61,6.32 c 14.770001,28.09 39.000001,47.7 82.700001,46.82 43.7,-0.88 76.05,-24.28 73.57,-49.87 -2.48,-25.59 -29,-62.18 -69.19,-69.15 a 108.16,108.16 0 0 0 -44.75,2.05 c -7.81,2 -15.83,4 -22.88,7.8 a 26.29,26.29 0 0 0 -5.19,3.75 z"
     id="path58"
     inkscape:connector-curvature="0"
     style="fill:#feb326" />
  <path
     class="cls-7"
     d="m 90.459919,178.31706 a 19.4,19.4 0 0 1 3.58,-2.42 c 2.16,-1.18 4.24,-2.47 6.420001,-3.63 a 104.58,104.58 0 0 1 9.54,-4.45 c 6.57,-2.67 13.56,-4.35 20.69,-3.94 2.12,0.12 4.3,-0.09 6.07,2.22 -2.32,1.53 -5,1.73 -7.42,1.93 -11.8,1 -21.93,6.19 -31.080001,13 -7,5.28 -9.48,13.47 -10.46,22.06 -0.87,7.67 1.39,14.25 5.78,20.53 7.400001,10.57 15.640001,20.33 26.000001,28.07 7.65,5.72 16.64,8.88 25.66,11.59 5.56,1.67 11.19,3.34 17.18,3.49 8.34,0.21 16.21,-1.84 24.11,-3.92 3.27,-0.86 6.5,-1.83 9.78,-2.62 a 54.35,54.35 0 0 0 27.87,-15.91 c 10.63,-11.5 13.87,-26.34 7.16,-41 -5,-10.94 -12.8,-19.52 -22,-27.09 -11.36,-9.32 -24.36,-15.33 -38.16,-19.79 a 58.34,58.34 0 0 0 -19.89,-3.17 93,93 0 0 0 -33.15,7.19 c -5.4,2.29 -10.87,4.44 -16.29,6.68 -1.67,0.68 -3.160001,1.07 -3.440001,-1.46 a 15.62,15.62 0 0 1 6.490001,-5.42 c 13.81,-6.8 27.88,-13.33 43.66,-13.1 39.63,0.57 72.72,18.64 89.24,56 0.5,1.14 0.86,2.34 1.3,3.51 6.44,16.89 2.64,31.4 -12.32,45.88 -9.87,9.56 -21.37,12.93 -34.35,16.2 -7.77,1.95 -15.53,4.29 -23.58,4.75 a 65.19,65.19 0 0 1 -23.64,-3.28 c -3.9,-1.26 -7.74,-2.71 -11.63,-4 -11.67,-3.85 -22,-10.88 -30.7,-19.48 a 120.75,120.75 0 0 1 -12.000001,-13.95 c -3.57,-4.81 -7.56,-9.92 -9.54,-15.63 a 32.77,32.77 0 0 1 -0.65,-18.23 61.05,61.05 0 0 1 3.31,-10.23 44.7,44.7 0 0 1 4.69,-8.48 11.06,11.06 0 0 1 1.77,-1.9 z"
     id="path60"
     inkscape:connector-curvature="0"
     style="fill:#ff8b0a" />
  <path
     class="cls-5"
     d="m 237.49992,145.30706 a 36.84,36.84 0 0 0 -7.4,7.35 c -7.4,9.58 -12.28,21.68 -7.18,33.61 a 29,29 0 0 0 2.85,5.14 c 15.81,23 40.61,39.62 83.94,40.73 43.33,1.11 74.4,-16.2 70.89,-36.69 -3.51,-20.49 -31.3,-50.75 -71.47,-58 a 132,132 0 0 0 -44.29,-0.22 c -7.67,1.25 -15.54,2.51 -22.37,5.27 a 23.87,23.87 0 0 0 -4.97,2.81 z"
     id="path62"
     inkscape:connector-curvature="0"
     style="fill:#feb326" />
  <path
     class="cls-7"
     d="m 303.94992,239.03706 c -25.17,-3.07 -49.66,-7.82 -68.65,-26.91 -9.21,-9.25 -14.07,-20.44 -15.4,-33.29 a 23.57,23.57 0 0 1 0.88,-10.06 c 4.62,-13.67 12.35,-24.22 27.16,-28.46 11,-3.16 22,-6.27 33.58,-5.77 24.06,1.06 47.08,6.2 67.46,19.67 13.16,8.7 23.93,19.7 29.41,35 4.62,12.94 1.8,22.35 -9.38,30.39 a 45.6,45.6 0 0 1 -5,3.11 126.61,126.61 0 0 1 -37.69,13.25 177.85,177.85 0 0 1 -22.37,3.07 z m -1.41,-8.23 c 13.58,0.47 26.58,-2.25 39.32,-6.27 8.48,-2.69 16.9,-5.79 24.17,-11.07 7.27,-5.28 10.23,-10.59 7.35,-21.42 -3.31,-12.43 -12.24,-20.61 -21.39,-28.59 a 40.23,40.23 0 0 0 -10.19,-6.75 212.15,212.15 0 0 0 -45.27,-13.74 c -5.39,-1 -10.78,-2.12 -16.32,-2.16 -7.49,-0.05 -14.84,1.16 -22.16,2.54 -7.94,1.5 -15.21,3.9 -20.84,10.63 -8.21,9.82 -11.79,20.36 -8.77,33.05 3.14,13.2 11.89,21.92 22.53,29.21 a 62.15,62.15 0 0 0 16.34,7.73 c 11.51,3.73 22.97,7.56 35.23,6.84 z"
     id="path64"
     inkscape:connector-curvature="0"
     style="fill:#ff8b0a" />
  <path
     class="cls-8"
     d="m 208.28992,260.66706 a 57.47,57.47 0 0 0 -5.87,13 c -5.26,16.18 -7.12,35.11 1.66,50.44 a 43,43 0 0 0 4.49,6.39 c 23.33,27.53 54.51,42.94 101.22,29.95 46.71,-12.99 75.16,-48.18 65.69,-76.28 -9.47,-28.1 -47.65,-62 -92.67,-58.77 a 115.47,115.47 0 0 0 -47.49,14.59 c -7.85,4.36 -15.93,8.81 -22.48,15.05 a 30,30 0 0 0 -4.55,5.63 z"
     id="path66"
     inkscape:connector-curvature="0"
     style="fill:#ff8500" />
  <path
     class="cls-9"
     d="m 217.44992,339.48706 a 38.84,38.84 0 0 1 -5.66,-7.53 c -12.2,-21.24 -20.23,-55.69 -2.07,-76.06 23.86,-26.76 71.21,-37.17 104.8,-26.43 10,3.19 20,6.32 29.43,11 a 65.59,65.59 0 0 1 36.56,57.61 c 0.66,25.52 -19,41.59 -39.93,52.07 -25.38,12.7 -53.37,15.14 -81,10 -8.3,-1.54 -16.62,-3.16 -24.05,-7.56 -6.66,-3.9 -12.98,-7.78 -18.08,-13.1 z m 75.07,17.79 a 41.2,41.2 0 0 0 17.15,-2.5 c 4.37,-1.58 8.81,-2.94 13.18,-4.48 a 97.92,97.92 0 0 0 34.89,-21.57 c 3.19,-3 5,-7 7.61,-10.44 17.69,-23.72 -4.17,-61.39 -26.91,-72.28 -5.86,-2.81 -12.11,-4.61 -18,-7.18 -9.69,-4.2 -19.92,-4.78 -30.12,-5.57 -9.23,-0.7 -18,2.08 -26.94,3.95 a 99.73,99.73 0 0 0 -30,11.82 c -6.85,4 -13.89,8 -19.12,14.2 a 34.31,34.31 0 0 0 -7.92,28.22 c 1.18,8.12 4.11,15.71 6.81,23.35 3.54,10 8.64,19.05 17.84,25.12 5.95,3.91 11.55,8.22 18.56,10.47 14,4.51 28.43,5.99 42.97,6.89 z"
     id="path68"
     inkscape:connector-curvature="0"
     style="fill:#ff5705" />
  <path
     class="cls-5"
     d="m 252.50992,528.95706 a 31.13,31.13 0 0 0 5.82,-7 c 5.63,-8.89 8.81,-19.73 3.21,-29.56 a 26,26 0 0 0 -3,-4.18 c -16.06,-18.43 -39.44,-30.59 -77.69,-27.78 -38.25,2.81 -64,20.41 -59,37.75 5,17.34 32.27,41 68.3,43.7 a 119.29,119.29 0 0 0 39,-3.66 c 6.63,-1.74 13.44,-3.5 19.2,-6.48 a 20.78,20.78 0 0 0 4.16,-2.79 z"
     id="path70"
     inkscape:connector-curvature="0"
     style="fill:#feb326" />
  <path
     class="cls-10"
     d="m 118.96992,491.28706 c 5.28,-16.26 20.23,-25.12 36.08,-29.06 10.29,-2.55 21,-3.12 31.57,-3.3 22.81,-0.39 52.67,0.48 69.81,17.82 a 25.61,25.61 0 0 1 7.11,12.37 54.39,54.39 0 0 1 1.28,20.3 c -2,14.16 -15.35,23.1 -28.2,26.82 -19.4,5.61 -43.76,4.83 -63.41,0.39 -19.29,-4.35 -41.38,-19.11 -46.46,-39.32 a 12.89,12.89 0 0 0 -2.11,-5.28 6.41,6.41 0 0 1 -5.06,2.33 c 0.17,-1.09 0.38,-2.2 -0.61,-3.07 z m 92.32,41 c 6.67,0.69 15.26,-0.69 23.45,-3.38 7.94,-2.61 16.35,-6.14 20.74,-13.7 10.82,-18.66 -3.08,-38.23 -21.58,-43 a 148.77,148.77 0 0 0 -39.34,-4.71 193.1,193.1 0 0 0 -21.79,1.48 116.24,116.24 0 0 0 -26.06,6.16 44.49,44.49 0 0 0 -16.39,11 c -0.79,0.82 -1.78,1.59 -1,3 5.47,9.72 10.14,17.79 17.78,26 7.47,8 17.06,12 27.5,14.05 11.4,2.21 23.01,2.99 36.69,3.12 z"
     id="path72"
     inkscape:connector-curvature="0"
     style="fill:#ff8806" />
  <path
     class="cls-11"
     d="m 118.96992,491.28706 c 1,0.87 0.78,2 0.61,3.07 -1.44,-0.76 -1.37,-1.85 -0.61,-3.07 z"
     id="path74"
     inkscape:connector-curvature="0"
     style="fill:#ffb427" />
  <path
     class="cls-7"
     d="m 216.69992,340.17706 c 1,0.07 1.83,0.2 1.59,1.52 a 2.12,2.12 0 0 1 -1.59,-1.52 z"
     id="path76"
     inkscape:connector-curvature="0"
     style="fill:#ff8b0a" />
  <path
     class="cls-7"
     d="m 200.43992,277.59706 a 2.14,2.14 0 0 1 -0.66,2.6 3,3 0 0 1 0.66,-2.6 z"
     id="path78"
     inkscape:connector-curvature="0"
     style="fill:#ff8b0a" />
  <path
     class="cls-7"
     d="m 218.32992,341.70706 c 0.78,-0.19 1.1,0.12 1,0.91 a 1.14,1.14 0 0 1 -1,-0.91 z"
     id="path80"
     inkscape:connector-curvature="0"
     style="fill:#ff8b0a" />
  <path
     class="cls-5"
     d="m 361.98992,391.13706 a 40.15,40.15 0 0 0 -6,9.81 c -5.42,12.19 -7.47,26.41 1.15,37.82 a 32.78,32.78 0 0 0 4.42,4.75 c 23,20.42 54.06,31.67 100.88,21.45 46.82,-10.22 75.61,-36.9 66.43,-57.89 -9.18,-20.99 -47,-46 -92,-43.16 a 146.6,146.6 0 0 0 -47.61,11.43 c -7.9,3.35 -16,6.77 -22.62,11.52 a 26,26 0 0 0 -4.65,4.27 z"
     id="path82"
     inkscape:connector-curvature="0"
     style="fill:#feb326" />
  <path
     class="cls-6"
     d="m 444.73992,468.28706 a 183.24,183.24 0 0 1 -35,-2.92 c -17.79,-3.19 -40.95,-14.15 -46.74,-32.88 a 5.33,5.33 0 0 1 -0.23,-3.2 2.14,2.14 0 0 1 2.5,-1.52 3.29,3.29 0 0 1 1.58,1.7 c 7.58,13.34 21.11,22.64 35.72,27.31 13,4.16 26.84,4.93 40.4,4.13 13.12,-0.78 26.31,-0.88 39,-4.73 17.2,-5.22 47.09,-24.56 39.49,-46.51 -5,-14.59 -21.87,-27.83 -35.79,-33.54 -16.56,-6.78 -35.1,-5.55 -52.58,-5 -23.18,0.75 -46.87,8.57 -65.4,22.69 a 21.7,21.7 0 0 0 -5.77,6 c -2.55,4.31 -2.34,9.39 -2.21,14.21 0,1.71 1.25,11.62 -1.34,12.28 a 1,1 0 0 1 -1.41,-1 c 0,-8.45 -1.9,-17.14 -1,-25.56 0.71,-6.32 7.09,-11.46 12.25,-14.43 a 157.28,157.28 0 0 1 65.5,-20.57 c 20.83,-1.62 49.24,-0.38 66.66,12.63 5.6,4.19 11.22,8.38 16.51,12.94 14.15,12.16 16.18,30.62 5.18,45.36 -17.59,23.72 -47.79,32.14 -77.32,32.61 z"
     id="path84"
     inkscape:connector-curvature="0"
     style="fill:#ff8a08" />
  <path
     class="cls-7"
     d="m 388.35992,399.74706 c 1,-3.81 4,-5.45 7,-6.68 11.85,-5 24.09,-8.45 37.15,-7.85 1.25,0.06 2.74,-0.35 3.6,1.73 -16.64,1.73 -32.68,5.24 -47.75,12.8 z"
     id="path86"
     inkscape:connector-curvature="0"
     style="fill:#ff8b0a" />
  <path
     class="cls-11"
     d="m 0.27991868,347.82706 c 0.06,0.13 0.2,0.27 0.19,0.4 -0.01,0.13 -0.17,0.23 -0.26,0.35 -0.3,-0.29 -0.28,-0.54 0.07,-0.75 z"
     id="path88"
     inkscape:connector-curvature="0"
     style="fill:#ffb427" />
  <g
     transform="translate(184.47992,126.57706)"
     data-name="Layer 1"
     id="Layer_1-2">
    <path
       style="fill:#e74c8a"
       inkscape:connector-curvature="0"
       id="path8"
       d="m 682.69,255.77 c -3.33,-3.72 -6.91,-7.2 -10.11,-11.06 -4.19,-5 -9.11,-9.21 -15.35,-11.66 -2.8,-1.1 -5.49,-2.52 -8.18,-3.89 l -0.39,-0.2 a 101.65,101.65 0 0 0 -30.21,-10 c -6.74,-1.07 -13.45,-2.3 -20.18,-3.3 a 186.09,186.09 0 0 1 -42.63,-12.1 c -13.58,-5.5 -27.1,-11.14 -40.51,-17 a 175.46,175.46 0 0 1 -35.29,-20.61 380.41,380.41 0 0 1 -30.3,-25.24 C 435.89,128 420.46,117.39 407,104.43 396,93.82 384.14,84 373.21,73.29 A 118.73,118.73 0 0 0 360,61.87 c -9,-6.57 -18,-13.22 -28.64,-17.09 -15.17,-5.53 -30.4,-10.93 -45.75,-16 a 94.26,94.26 0 0 0 -19.43,-4.45 c -6.12,-0.64 -12.23,-1.42 -18.3,-2.39 -18.89,-3 -37.57,-7.16 -56.3,-11 C 183,9.17 174.41,6.67 165.43,7.61 A 108,108 0 0 0 151.12,9.7 C 144.31,11.36 138.7,20 140,25 c 1.35,5.33 2.47,10.76 5,15.65 3.87,7.37 8,14.59 12,21.9 1.91,3.51 3.77,7 5.54,10.64 a 8.53,8.53 0 0 1 -0.06,8.16 c -1.55,2.86 -5,4.42 -7.06,2.64 -2.5,-2.09 -5.39,-2.44 -8.2,-3.26 A 48.11,48.11 0 0 1 130.77,72.54 C 125.13,68.12 119.15,64.18 113.39,59.93 98.27,48.76 81.56,42.09 62.74,40.82 a 53,53 0 0 0 -24,3.43 C 31,47.43 24,51.85 17.11,56.59 c -6.89,4.74 -11.44,18 -8.74,26 2.32,6.81 5.52,13.23 11.07,18.14 3.86,3.42 7.58,7 11.67,10.16 a 409.38,409.38 0 0 0 62.3,39.61 c 9.64,4.93 19.16,10.08 27.86,16.61 8.7,6.53 17.79,12.18 23.84,21.51 a 183.64,183.64 0 0 1 14.61,26.68 14.48,14.48 0 0 1 1.25,7.32 c -0.07,0.64 -0.13,1.36 -0.92,1.6 a 1.69,1.69 0 0 1 -1.8,-0.54 25.83,25.83 0 0 1 -4.18,-6.75 109.22,109.22 0 0 0 -9.86,-17.06 3.57,3.57 0 0 0 -2.41,2.87 c -1.11,6.1 -5.15,9.88 -10.06,13 -1.69,1.07 -3.4,2.1 -5.1,3.15 l -1.6,0.92 a 2.63,2.63 0 0 1 -3,2 c -2.57,4 -6.6,5.76 -11,7 -0.4,1.57 -1.83,1.53 -3,1.89 -6.86,3.73 -13.72,7.5 -20.61,11.19 -0.59,0.32 -1.17,0.64 -1.74,1 a 34.69,34.69 0 0 0 -8.81,7.29 c -2.92,3.43 -3.81,7 -1.47,11.45 5.63,10.67 13.17,19.34 23.64,25.6 7.6,4.54 15.25,9 23.43,12.28 a 269.08,269.08 0 0 0 98.82,19.51 c 13,0.14 26,0.08 38.95,-0.91 a 254.78,254.78 0 0 0 35.56,-4.84 c 31.35,-6.91 60.52,-20.46 92.23,-26.45 32.37,-6.11 55.13,-4.88 88,-3 13.42,0.77 36.81,0 49.39,4.61 13,4.73 26,9.25 39,14 11.77,4.33 23.84,6 36.21,6.32 18.2,0.47 36.28,-0.21 54.05,-4.77 a 57.27,57.27 0 0 0 21.34,-10.52 c 5.13,-4.05 9.23,-9 11.38,-15.46 2.87,-8.53 1.01,-15.8 -4.72,-22.23 z M 45.69,106.52 C 39,100.68 34.76,93.23 31.38,85.2 a 36.76,36.76 0 0 1 -3,-10 c -0.77,-6.67 1.13,-9.47 8,-11.81 0.49,2 -0.7,2.93 -1.5,3.87 A 8.92,8.92 0 0 0 33,75.24 c 2.35,10.87 6.69,20.78 14.46,29 2.41,2.55 5.66,3.79 9.29,5.88 -5.04,0.88 -8.2,-1.07 -11.09,-3.6 z m 132.14,177.17 c -15.87,0.62 -31.1,-2.59 -45.94,-7.85 a 28.8,28.8 0 0 1 -12.68,-8.59 7.17,7.17 0 0 1 -2.13,-4.39 c -0.09,-2.52 1.5,-3.68 3.88,-2.76 a 4.62,4.62 0 0 1 1.27,0.78 c 7.9,6.53 17.36,9.59 27,12.38 10,2.87 20.16,4.2 30.37,5.54 a 28.12,28.12 0 0 1 3.41,0.66 2,2 0 0 1 1.63,1.62 c -1.84,2.17 -4.29,2.52 -6.81,2.61 z m 183,-33 c -5.44,3.28 -11.12,3.84 -16.05,1.57 a 15.74,15.74 0 0 1 -3.14,-1.9 35.13,35.13 0 0 1 -9.86,-11.79 c -7.26,-14 -12.47,-28.67 -13.63,-44.57 -0.2,-2.65 -0.68,-5.27 -0.94,-7.92 a 1.73,1.73 0 0 1 1,-2.05 2,2 0 0 1 2.57,0.91 17.32,17.32 0 0 1 2.06,6.12 c 0.86,4.58 1.6,9.18 2.54,13.73 2.15,10.35 6.31,20 10.84,29.46 a 28.84,28.84 0 0 0 7.86,10.22 c 2.95,2.36 6.16,3.8 10.16,2.56 7.1,-2.19 9.78,-6.68 7.36,-13.71 -2.16,-6.29 -4.82,-12.41 -7.33,-18.57 a 72.83,72.83 0 0 1 -3.69,-14 9.48,9.48 0 0 1 -0.14,-2 4.82,4.82 0 0 1 2.92,-4.33 c 2,-0.95 3.68,0.1 4.85,1.53 a 37.74,37.74 0 0 1 3.45,5.48 19.26,19.26 0 0 0 3,4.6 c 1.27,1.23 2.65,2 4.47,1.34 a 4.43,4.43 0 0 0 3.19,-4.06 17.34,17.34 0 0 0 -0.79,-6.39 50.2,50.2 0 0 0 -8.53,-15.09 26.2,26.2 0 0 1 -2.5,-3.71 2.53,2.53 0 0 1 0.43,-3.22 c 1.16,-1.07 2.17,-0.31 3.11,0.4 a 37.42,37.42 0 0 1 12.82,16.85 34,34 0 0 1 2.14,10.19 c 0.4,7.46 -8.51,15.16 -16.94,9.65 -0.79,-0.52 -1.45,-1.43 -2.64,-1.09 -1,1.33 -0.14,2.52 0.36,3.71 1.79,4.3 3.56,8.61 5.46,12.87 a 33,33 0 0 1 2.49,7.05 c 0.9,4.71 0.27,8.56 -1.92,11.69 a 16.26,16.26 0 0 1 -5.02,4.51 z M 125,219.79 v 0 -0.12 z m -3,2 v 0 -0.07 z m -11,7 h 0.08 c 0,0 0,0 0,-0.05 z"
       class="cls-1" />
    <path
       style="fill:#d3467f"
       inkscape:connector-curvature="0"
       id="path10"
       d="m 687.45,277.93 c -2.15,6.48 -6.25,11.41 -11.38,15.46 a 57.27,57.27 0 0 1 -21.34,10.52 c -17.77,4.56 -35.85,5.24 -54.05,4.77 -12.37,-0.32 -24.44,-2 -36.21,-6.32 -13,-4.76 -26,-9.28 -39,-14 -12.58,-4.57 -36,-3.84 -49.39,-4.61 -32.87,-1.88 -55.63,-3.11 -88,3 -31.71,6 -60.88,19.54 -92.23,26.45 a 254.78,254.78 0 0 1 -35.57,4.8 c -13,1 -26,1.05 -38.95,0.91 A 269.08,269.08 0 0 1 122.51,299.4 c -8.18,-3.32 -15.83,-7.74 -23.43,-12.28 -10.47,-6.26 -18,-14.93 -23.64,-25.6 -2.34,-4.42 -1.45,-8 1.47,-11.45 a 34.69,34.69 0 0 1 8.81,-7.29 c 1,-0.62 11.68,6 13.21,6.7 q 7.92,3.77 16.06,7.07 a 288.07,288.07 0 0 0 38.51,12.55 262.69,262.69 0 0 0 97.89,5.9 c 16.56,-2.2 32.05,-7.53 48.9,-6.72 15.2,0.73 32.12,4.81 46.76,-1.07 6.86,-2.76 12.94,-7.12 19.88,-9.72 7.49,-2.8 15.36,-4.72 22.94,-7.29 13.33,-4.52 26.42,-9.69 39.59,-14.63 16.53,-6.21 35.09,-13.43 52.61,-6.8 36.93,14 164.54,77.77 167,0.42 2.69,1.37 5.38,2.79 8.18,3.89 6.24,2.45 11.16,6.62 15.35,11.66 3.2,3.86 6.78,7.34 10.11,11.06 5.71,6.4 7.57,13.67 4.74,22.13 z"
       class="cls-2" />
    <path
       style="fill:#b13e6d"
       inkscape:connector-curvature="0"
       id="path12"
       d="m 676.92,236.7 c 14.7,11.24 25.22,26.51 18.89,44.76 -3.51,10.13 -10.47,17.28 -19.22,22.9 a 60.68,60.68 0 0 1 -21.06,8.89 c -12.73,2.51 -25.35,5.87 -38.35,6.67 -16.48,1 -32.48,-2.08 -48.26,-6.68 -15.21,-4.43 -29.84,-10.45 -44.54,-16.25 A 106.43,106.43 0 0 0 488.9,289.2 c -26.32,-0.92 -52.67,-0.85 -78.9,1.68 -29.2,2.82 -57.66,10.63 -85.65,19.11 C 297,318.26 270.63,323.4 242,324 217.91,324.45 194,323.43 170.35,318.71 147.91,314.23 126,307.96 105.69,296.97 A 114.81,114.81 0 0 1 78.9,277 c -5,-5 -7.61,-11.73 -9.23,-18.57 -1,-4.17 1.2,-7.8 3.88,-10.92 a 36.81,36.81 0 0 1 11.84,-9.06 c 15.31,-7.51 28.8,-18 43.52,-26.47 6.22,-3.58 8.55,-9.48 9.3,-16.23 A 10.26,10.26 0 0 0 135.65,187.9 63.39,63.39 0 0 0 125.26,177.84 191,191 0 0 0 91.81,156.97 467.49,467.49 0 0 1 36.05,124.72 188.54,188.54 0 0 1 13.86,106.88 41.91,41.91 0 0 1 0.57,82.71 c -2,-11.93 1.08,-23 11.34,-30.67 A 106.76,106.76 0 0 1 31.1,40.39 c 15.13,-7 30.77,-6.58 46.52,-3.07 A 104.93,104.93 0 0 1 116,54.85 c 6.1,4.37 12.32,8.55 18.51,12.78 5.69,3.89 12,6.46 18.46,8.77 a 3.05,3.05 0 0 0 2.66,0 c 0.11,-2 -1.09,-3.65 -2,-5.31 -3.9,-7.35 -7.78,-14.73 -11.92,-22 A 74,74 0 0 1 134,28.66 c 0.35,-2.52 -1.28,-4.89 -0.59,-7.41 2.1,-7.74 6.3,-13.85 13.72,-17.39 1.64,-0.78 3.57,-0.85 5,-2 3,-2.41 14.9,-1.77 18.75,-1.71 6.39,0.09 12.54,1.67 18.76,2.94 24.49,5 50,8.86 74.71,14.35 12.77,2.84 25.47,6 38,9.79 19.44,5.86 39.27,13.27 55.91,25 22.7,16 40.26,37.59 61,55.79 25.61,22.44 50.88,46.69 81,63.12 a 387.07,387.07 0 0 0 61.88,27.08 c 26.78,9 55.28,11.63 81.94,21.09 a 124.56,124.56 0 0 1 32.84,17.39 z M 125,219.79 l 0.08,-0.13 c -1.24,0.38 -2.53,0.69 -3.09,2.09 l 0.08,-0.07 A 26.91,26.91 0 0 0 111,228.76 l 0.09,-0.07 a 4.2,4.2 0 0 0 -3,1.94 c -6.87,3.73 -13.72,7.5 -20.61,11.19 a 35.93,35.93 0 0 0 -10.55,8.28 c -2.93,3.43 -3.81,7 -1.47,11.45 5.63,10.67 13.17,19.34 23.64,25.6 7.59,4.54 15.25,9 23.42,12.27 a 268.94,268.94 0 0 0 98.83,19.52 c 13,0.14 26,0.08 38.95,-0.91 a 254.3,254.3 0 0 0 35.54,-4.84 367.39,367.39 0 0 0 41.34,-12.06 c 33.88,-11.75 69.36,-19.61 105.34,-20 14.63,-0.15 29.24,-1.35 43.92,-0.51 a 136.37,136.37 0 0 1 39,7.69 c 13,4.73 26,9.25 39,14 11.76,4.33 23.84,6 36.21,6.32 18.2,0.47 36.28,-0.21 54.05,-4.77 a 57.3,57.3 0 0 0 21.33,-10.52 c 5.14,-4.05 9.23,-9 11.39,-15.46 2.82,-8.46 1,-15.73 -4.76,-22.16 -16.7,-18.71 -39.2,-32.88 -64.24,-36.83 -6.74,-1.07 -13.45,-2.3 -20.19,-3.3 a 186,186 0 0 1 -42.62,-12.1 c -13.58,-5.5 -27.1,-11.14 -40.51,-17 a 175.46,175.46 0 0 1 -35.29,-20.61 380.77,380.77 0 0 1 -30.3,-25.24 C 435.89,128 420.46,117.39 407,104.43 396,93.82 384.14,84 373.21,73.29 A 118.73,118.73 0 0 0 360,61.87 C 351,55.3 342,48.65 331.36,44.78 320.47,40.78 309.5,37.09 298.6,33.17 287.7,29.25 276.53,27.23 265,25 l -51.9,-9.87 c -15,-2.85 -32.34,-9.14 -47.64,-7.54 a 106.22,106.22 0 0 0 -14.3,2.09 C 144.31,11.36 138.69,20 140,25 c 1.35,5.33 2.47,10.75 5,15.65 3.87,7.37 8,14.59 12,21.9 1.92,3.51 3.78,7 5.54,10.64 a 8.49,8.49 0 0 1 0,8.15 c -1.56,2.87 -5,4.42 -7.07,2.65 -2.49,-2.09 -5.38,-2.44 -8.19,-3.26 A 48.29,48.29 0 0 1 130.83,72.54 C 125.18,68.12 119.21,64.17 113.45,59.93 98.27,48.76 81.56,42.09 62.73,40.82 a 53,53 0 0 0 -24,3.43 C 31,47.43 24,51.85 17.11,56.59 c -6.89,4.74 -11.44,18 -8.74,26 2.32,6.82 5.52,13.24 11.06,18.15 3.87,3.42 7.59,7 11.68,10.16 a 408.89,408.89 0 0 0 62.3,39.61 c 9.64,4.93 19.16,10.08 27.85,16.6 8.69,6.52 17.8,12.19 23.84,21.52 a 183.64,183.64 0 0 1 14.61,26.68 14.49,14.49 0 0 1 1.26,7.32 c -0.07,0.64 -0.13,1.36 -0.93,1.6 a 1.68,1.68 0 0 1 -1.79,-0.54 25.73,25.73 0 0 1 -4.18,-6.75 109.55,109.55 0 0 0 -9.86,-17.06 3.57,3.57 0 0 0 -2.41,2.87 c -1.11,6.1 -5.16,9.88 -10.07,13 -1.68,1.07 -3.39,2.1 -5.09,3.15 -0.64,0.15 -1.29,0.22 -1.64,0.89 z"
       class="cls-3" />
    <path
       style="fill:#b13e6d"
       inkscape:connector-curvature="0"
       id="path14"
       d="m 122.08,221.68 c -2.58,4.09 -6.66,5.84 -11.07,7.08 a 26.91,26.91 0 0 1 11.07,-7.08 z"
       class="cls-3" />
    <path
       style="fill:#b13e6d"
       inkscape:connector-curvature="0"
       id="path16"
       d="m 111.1,228.69 c -0.39,1.62 -1.84,1.58 -3,1.94 a 4.2,4.2 0 0 1 3,-1.94 z"
       class="cls-3" />
    <path
       style="fill:#b13e6d"
       inkscape:connector-curvature="0"
       id="path18"
       d="m 125.09,219.66 c -0.53,1.44 -1.43,2.32 -3.09,2.09 0.56,-1.4 1.85,-1.75 3.09,-2.09 z"
       class="cls-3" />
    <path
       style="fill:#b13e6d"
       inkscape:connector-curvature="0"
       id="path20"
       d="m 126.64,218.86 -1.63,0.93 c 0.34,-0.67 0.99,-0.74 1.63,-0.93 z"
       class="cls-3" />
    <path
       style="fill:#b13e6d"
       inkscape:connector-curvature="0"
       id="path22"
       d="m 359.44,210.9 c -1,1.33 -0.14,2.52 0.35,3.71 1.8,4.3 3.57,8.61 5.46,12.87 a 32.45,32.45 0 0 1 2.5,7 c 1.4,7.31 -0.88,12.54 -7,16.21 -6.64,4 -13.63,4 -19.19,-0.33 a 35.21,35.21 0 0 1 -9.86,-11.79 c -7.26,-14 -12.47,-28.67 -13.64,-44.57 -0.19,-2.65 -0.67,-5.27 -0.94,-7.92 a 1.74,1.74 0 0 1 1,-2.05 2,2 0 0 1 2.57,0.91 17.73,17.73 0 0 1 2.06,6.12 c 0.86,4.57 1.6,9.18 2.54,13.73 2.15,10.35 6.31,20 10.84,29.45 a 28.78,28.78 0 0 0 7.86,10.23 c 2.95,2.36 6.16,3.8 10.16,2.56 7.1,-2.19 9.78,-6.68 7.36,-13.71 -2.16,-6.29 -4.82,-12.41 -7.33,-18.57 a 72.83,72.83 0 0 1 -3.69,-14 9.48,9.48 0 0 1 -0.14,-2 4.82,4.82 0 0 1 2.92,-4.33 c 2,-0.95 3.68,0.1 4.85,1.53 a 38.61,38.61 0 0 1 3.45,5.48 19.22,19.22 0 0 0 3,4.6 c 1.27,1.23 2.65,2 4.48,1.34 a 4.43,4.43 0 0 0 3.19,-4.06 17.34,17.34 0 0 0 -0.79,-6.39 50.23,50.23 0 0 0 -8.45,-15.09 28,28 0 0 1 -2.5,-3.71 2.53,2.53 0 0 1 0.44,-3.22 c 1.15,-1.07 2.17,-0.31 3.1,0.39 a 37.53,37.53 0 0 1 12.83,16.86 33.71,33.71 0 0 1 2.13,10.19 c 0.41,7.46 -8.5,15.16 -16.93,9.65 -0.79,-0.52 -1.44,-1.43 -2.63,-1.09 z m -0.84,-1.84 -0.19,0.31 h 0.28 z"
       class="cls-3" />
    <path
       style="fill:#b13e6d"
       inkscape:connector-curvature="0"
       id="path24"
       d="m 184.64,281.08 c -1.84,2.17 -4.3,2.52 -6.82,2.61 -15.86,0.62 -31.09,-2.59 -45.93,-7.85 a 28.88,28.88 0 0 1 -12.68,-8.59 7.15,7.15 0 0 1 -2.13,-4.39 c -0.09,-2.53 1.5,-3.68 3.88,-2.76 a 4.78,4.78 0 0 1 1.27,0.78 c 7.9,6.53 17.36,9.59 27,12.38 10,2.87 20.15,4.2 30.37,5.53 a 28.15,28.15 0 0 1 3.41,0.67 2,2 0 0 1 1.63,1.62 z"
       class="cls-3" />
    <path
       style="fill:#b13e6d"
       inkscape:connector-curvature="0"
       id="path26"
       d="m 36.42,63.42 c 0.49,2 -0.71,2.92 -1.5,3.87 A 8.89,8.89 0 0 0 33,75.24 c 2.35,10.87 6.68,20.78 14.45,29 2.42,2.55 5.67,3.79 9.3,5.88 -5.08,0.9 -8.23,-1.07 -11.12,-3.61 C 39,100.68 34.76,93.23 31.38,85.2 a 36.76,36.76 0 0 1 -3,-10 c -0.76,-6.64 1.14,-9.44 8.04,-11.78 z"
       class="cls-3" />
    <path
       style="fill:#fefdfe"
       inkscape:connector-curvature="0"
       id="path28"
       d="m 275,122.73 c 0.38,4.43 -1.57,8 -4.16,11.32 a 43.23,43.23 0 0 0 -20.51,1.67 c -1.51,0.47 -2.12,-0.25 -2.7,-1.19 a 25.28,25.28 0 0 1 -3.07,-20.9 c 0.33,-1.23 0.89,-1.86 2.41,-1.51 a 29.11,29.11 0 0 0 19.88,-2.57 c 2.42,-1.2 3.3,-0.45 4.41,1.46 2.14,3.64 2.5,7.81 3.74,11.72 z m -24,-0.86 c 0.23,2.33 1.42,3.87 3.78,3.93 a 3.8606347,3.8606347 0 1 0 0.14,-7.72 c -2.35,0.01 -3.65,1.51 -3.92,3.79 z"
       class="cls-4" />
    <path
       style="fill:#fefdfe"
       inkscape:connector-curvature="0"
       id="path30"
       d="m 213.16,119.33 c -0.08,5.89 -2.95,10.26 -7.48,13.73 -1.73,0 -3.22,-0.87 -4.78,-1.44 a 45.59,45.59 0 0 0 -12.7,-2.85 c -5.93,-0.36 -5.95,-0.28 -6.57,-6.08 -0.18,-1.66 -0.16,-3.34 -0.27,-5 -0.28,-4.08 1.52,-7.3 4.09,-10.28 1.26,-1.45 2.38,-1.68 4,-0.65 5.46,3.49 11.45,3.26 17.5,2.25 3.85,-0.63 4.91,0.1 5.43,4 0.13,1 0.22,2 0.33,3 a 3.7,3.7 0 0 0 0.45,3.32 z m -25,2 c -0.08,2.81 1.18,4.3 3.48,4.44 a 3.8510064,3.8510064 0 1 0 0.43,-7.69 3.5,3.5 0 0 0 -3.93,3.26 z"
       class="cls-4" />
    <path
       style="fill:#b13e6d"
       inkscape:connector-curvature="0"
       id="path32"
       d="m 238.59,123.37 c 0,-3.82 -0.08,-7.78 1.11,-11.46 a 19.18,19.18 0 0 1 20.17,-13.28 16.31,16.31 0 0 1 8.81,3.5 19.52,19.52 0 0 1 5.5,8.2 32.3,32.3 0 0 1 2.09,10 3.58,3.58 0 0 1 -0.18,1.57 1.28,1.28 0 0 1 -1.24,0.82 53.87,53.87 0 0 0 -2,-8.12 19,19 0 0 0 -4.31,-7.11 14.37,14.37 0 0 0 -8.35,-4 14,14 0 0 0 -7.59,1.15 c -7,3.29 -9.64,11.5 -8.89,18.74 a 26.21,26.21 0 0 0 3.95,11.15 c 0.58,0.94 1.19,1.66 2.7,1.19 a 43.23,43.23 0 0 1 20.51,-1.67 c 3.42,1 7.06,1.2 10.29,2.84 1,0.53 2.79,0.87 2.34,2.39 -0.45,1.52 -2,0.79 -3.17,0.52 a 61.85,61.85 0 0 0 -34,1.53 c -0.64,0.21 -1.27,0.44 -1.92,0.6 -1,0.25 -2.16,0.71 -2.77,-0.28 -0.73,-1.17 0.39,-1.78 1.28,-2.28 1.54,-0.88 1.55,-1.61 0.35,-3.06 a 20,20 0 0 1 -4.68,-12.94 z"
       class="cls-3" />
    <path
       style="fill:#b13e6d"
       inkscape:connector-curvature="0"
       id="path34-3"
       d="m 176.19,130.66 c 2.82,-0.68 3.56,-1.95 2.65,-5 -1.84,-6.15 -2.63,-12.35 0.91,-18.46 4.94,-8.52 17.45,-13.64 26.75,-10.57 4.88,1.61 8.36,7.09 8.59,13.61 0.07,1.91 0,3.81 0,5.72 h -2.37 c 0.22,0 -1.07,-5.82 -1.25,-6.41 -1.2,-4 -3.2,-7.59 -7.52,-8.7 -7.95,-2 -16.54,3.16 -20.77,9.71 a 11.85,11.85 0 0 0 -1.82,7.12 c 0.11,1.68 0.09,3.36 0.27,5 0.62,5.8 0.64,5.72 6.57,6.08 a 45.59,45.59 0 0 1 12.7,2.85 c 1.56,0.57 3,1.41 4.78,1.44 1.94,1.07 3.93,2.05 5.8,3.23 0.79,0.5 1.88,1.29 1.4,2.42 -0.59,1.38 -1.91,0.84 -2.93,0.51 -5.92,-2 -11.77,-4.2 -18,-5.31 -5,-0.89 -9.88,-1.49 -14.85,0 -1.17,0.34 -2.79,0.74 -3.28,-0.66 -0.54,-1.7 1.05,-2.24 2.37,-2.58 z"
       class="cls-3" />
    <path
       style="fill:#d3467f"
       inkscape:connector-curvature="0"
       id="path36-5"
       d="m 212.72,116 h 2.37 c -0.05,1.47 -0.1,2.93 -1.93,3.38 A 3.7,3.7 0 0 1 212.72,116 Z"
       class="cls-2" />
    <path
       style="fill:#af3b6a"
       inkscape:connector-curvature="0"
       id="path38-6"
       d="m 251,121.87 c 0.32,-2.28 1.62,-3.78 3.92,-3.79 a 3.8606347,3.8606347 0 1 1 -0.14,7.72 c -2.41,-0.06 -3.6,-1.6 -3.78,-3.93 z"
       class="cls-5" />
    <path
       style="fill:#af3b6a"
       inkscape:connector-curvature="0"
       id="path40-2"
       d="m 188.14,121.34 a 3.5,3.5 0 0 1 3.91,-3.25 3.8510064,3.8510064 0 1 1 -0.43,7.69 c -2.3,-0.14 -3.56,-1.63 -3.48,-4.44 z"
       class="cls-5" />
  </g>
</svg>
