<?xml version="1.0" encoding="UTF-8" standalone="no"?>
<svg
   xmlns:dc="http://purl.org/dc/elements/1.1/"
   xmlns:cc="http://creativecommons.org/ns#"
   xmlns:rdf="http://www.w3.org/1999/02/22-rdf-syntax-ns#"
   xmlns:svg="http://www.w3.org/2000/svg"
   xmlns="http://www.w3.org/2000/svg"
   xmlns:sodipodi="http://sodipodi.sourceforge.net/DTD/sodipodi-0.dtd"
   xmlns:inkscape="http://www.inkscape.org/namespaces/inkscape"
   viewBox="0 0 1243.4607 627.23679"
   version="1.1"
   id="svg106"
   sodipodi:docname="team_work.svg"
   width="1243.4607"
   height="627.23682"
   inkscape:version="0.92.4 (5da689c313, 2019-01-14)">
  <metadata
     id="metadata110">
    <rdf:RDF>
      <cc:Work
         rdf:about="">
        <dc:format>image/svg+xml</dc:format>
        <dc:type
           rdf:resource="http://purl.org/dc/dcmitype/StillImage" />
        <dc:title>slide_15</dc:title>
      </cc:Work>
    </rdf:RDF>
  </metadata>
  <sodipodi:namedview
     pagecolor="#ffffff"
     bordercolor="#666666"
     borderopacity="1"
     objecttolerance="10"
     gridtolerance="10"
     guidetolerance="10"
     inkscape:pageopacity="0"
     inkscape:pageshadow="2"
     inkscape:window-width="1880"
     inkscape:window-height="869"
     id="namedview108"
     showgrid="false"
     fit-margin-top="0"
     fit-margin-left="0"
     fit-margin-right="0"
     fit-margin-bottom="0"
     inkscape:zoom="0.66811216"
     inkscape:cx="962.41983"
     inkscape:cy="212.02745"
     inkscape:window-x="917"
     inkscape:window-y="459"
     inkscape:window-maximized="0"
     inkscape:current-layer="svg106" />
  <defs
     id="defs4">
    <style
       id="style2">.cls-1{fill:#023d53;}.cls-2{fill:#791579;}.cls-3{fill:#7f58af;}.cls-4{fill:#511654;}.cls-5{fill:#feb326;}.cls-6{fill:#ff8a08;}.cls-7{fill:#ff8b0a;}.cls-8{fill:#ff8500;}.cls-9{fill:#ff5705;}.cls-10{fill:#ff8806;}.cls-11{fill:#ffb427;}.cls-12{fill:#bbb;}</style>
  </defs>
  <title
     id="title6">slide_15</title>
  <path
     class="cls-2"
     d="m 896.98992,537.88706 c -1.07,0.11 -2.3,-0.23 -3.14,0.63 a 3.91,3.91 0 0 0 1.63,2.43 230.79,230.79 0 0 0 22.45,18.65 c 8.35,5.92 17.35,10.17 26.44,14.76 2.4,1.2 5,2.57 6.62,4.73 a 2.6,2.6 0 0 1 0.6,1.18 2.36,2.36 0 0 1 -1.78,2.32 c -2.71,1 -5.21,-0.78 -7.62,-1.79 -3.18,-1.32 -6.41,-2.47 -9.56,-3.88 -16.88,-7.54 -30.72,-18.35 -43.83,-31.25 -0.39,-0.38 -0.85,-0.71 -1.56,-1.31 -1.38,1.68 -1,3.38 -1.13,4.95 a 17.09,17.09 0 0 1 -1,5.08 1.77,1.77 0 0 1 -1.92,1.19 2.3,2.3 0 0 1 -2,-1.49 10.85,10.85 0 0 1 -0.81,-4.83 c 0.22,-4.43 0.44,-8.86 0.82,-13.27 0.22,-2.67 1.68,-3.91 4.52,-3.35 5.1,1 9.92,0.41 14.75,-0.45 a 17.08,17.08 0 0 1 6.34,-0.12 c 1.08,0.22 2.45,0.33 2.56,1.81 0.09,1.16 -0.91,1.53 -1.83,1.84 a 47.71,47.71 0 0 1 -10.55,2.17 z"
     id="path16"
     inkscape:connector-curvature="0"
     style="fill:#791579" />
  <path
     class="cls-2"
     d="m 1096.0899,586.96706 c 1.05,-1.78 1.74,-4 0.81,-5.54 -1.23,-2 -16.13,12.56 -18.18,13.35 a 0.82,0.82 0 0 1 -1,-0.25 1.26,1.26 0 0 1 -0.12,-0.55 c -0.81,-11.21 2.36,-21.81 4.38,-32.71 0.62,-3.1 0.18,-5.59 -3,-6.5 -3.74,-1.05 -3.89,2.2 -4.27,4.45 -1.92,11.39 -4.46,22.85 -5,34.41 -0.1,2 -0.07,4.26 1.2,5.86 1.66,2.07 4.73,2.57 7.22,2.43 2.9,-0.17 5.42,-2.17 7.5,-4 3.1,-2.75 5.89,-5.83 8.84,-8.73 a 11.25,11.25 0 0 0 1.62,-2.22 z"
     id="path18"
     inkscape:connector-curvature="0"
     style="fill:#791579" />
  <path
     class="cls-2"
     d="m 1151.1099,560.79706 a 4,4 0 0 0 -0.29,-1.1 c -1.15,-2.73 -4,-5.61 -7.3,-5.31 -2.52,0.23 -4.23,2.95 -5.44,4.87 a 91.54,91.54 0 0 0 -12.34,29.75 18.43,18.43 0 0 0 0.06,7.79 c 0.89,4 4.53,5.88 8.79,5.2 3.8,-0.6 7.08,-3.62 7.11,-6.69 a 3.15,3.15 0 0 0 -0.75,-2.32 c -0.46,-0.32 -1.61,0 -2.31,0.41 -2.05,1.06 -4,2.26 -6.12,3.46 -1.93,-5.89 7.57,-30.73 12.75,-34.45 0.24,0.8 0.45,1.49 0.64,2.1 0.12,0.36 1.76,0.17 2,0.11 a 4.07,4.07 0 0 0 2,-1 3.33,3.33 0 0 0 1.2,-2.82 z"
     id="path20"
     inkscape:connector-curvature="0"
     style="fill:#791579" />
  <path
     class="cls-2"
     d="m 1204.6999,558.11706 a 43.42,43.42 0 0 0 -19.09,-3.1 c -5.88,0.39 -11.56,1.77 -15.94,6 -1.2,1.15 -2.49,2.85 -1.62,4.59 a 2,2 0 0 0 1.72,1.4 c 1.5,0 2.79,-1 4,-1.79 4,-2.54 9.49,-3.65 14.12,-4.23 a 35,35 0 0 1 15.38,1.41 c 5.36,1.77 6.12,3.5 3,8.19 a 54.31,54.31 0 0 1 -10.38,11.29 c -2,1.67 -4.06,3.24 -6.17,4.75 -1.2,0.86 -4.59,4.15 -6.07,3.95 -1.48,-0.2 0.58,-4.22 0.83,-5 0.71,-2.13 1.4,-4.26 2,-6.41 a 88.21,88.21 0 0 0 2.37,-9.85 c 0.49,-2.87 -1.39,-4.45 -3.93,-5.12 -3,-0.77 -2.78,1.89 -3.28,3.47 -1.75,5.58 -3.45,11.18 -5.14,16.78 -0.86,2.83 -1.86,5.62 -2.76,8.44 -0.42,1.3 -2.81,6.7 -1.86,7.8 a 1.88,1.88 0 0 0 1,0.51 c 4.76,1.38 8.61,-1.31 12.35,-4.14 8.07,-6.13 16.53,-11.9 23.83,-18.86 8.25,-7.85 6.18,-15.79 -4.36,-20.08 z"
     id="path22"
     inkscape:connector-curvature="0"
     style="fill:#791579" />
  <path
     class="cls-2"
     d="m 1224.0999,577.12706 a 1.16,1.16 0 0 0 0.43,0.42 c 1.15,0.7 3.91,-0.69 5,-1.11 2.49,-1 5,-1.88 7.55,-2.71 1.07,-0.35 5.3,-2.27 4.09,0.51 -3,6.9 -13.21,11.22 -20.35,9.9 0.24,0.05 -3,8.83 -1.76,9.68 1.24,0.85 6.18,-2.87 7.39,-3.55 1.47,-0.89 2.9,-1.83 4.38,-2.7 0.83,-0.48 3.67,-2.55 4.58,-2 1.43,0.81 -0.46,4.27 -1,5.17 a 21,21 0 0 1 -4.51,5.12 c -2.74,2.35 -7.18,5.53 -11.06,4.68 -3.35,-0.73 -6.63,-4.14 -6.11,-8 0.78,-5.87 2.63,-11.6 4,-17.39 0.73,-3 1.33,-6 2.31,-8.86 a 8.49,8.49 0 0 1 2.62,-3.49 27.88,27.88 0 0 1 10.68,-5.35 c 2.28,-0.61 9.21,-2.91 10.82,-0.36 a 3.12,3.12 0 0 1 -1.07,3.92 43.06,43.06 0 0 1 -7.55,3.3 c -4.66,1.64 -8,5.88 -9.86,10.32 -0.29,0.71 -0.99,1.76 -0.58,2.5 z"
     id="path24"
     inkscape:connector-curvature="0"
     style="fill:#791579" />
  <path
     class="cls-2"
     d="m 1016.4999,577.12706 a 1.16,1.16 0 0 0 0.43,0.42 c 1.15,0.7 3.91,-0.69 5,-1.11 q 3.73,-1.47 7.54,-2.71 c 1.08,-0.35 5.31,-2.27 4.1,0.51 -3,6.9 -13.21,11.22 -20.35,9.9 0.24,0.05 -3,8.83 -1.76,9.68 1.24,0.85 6.18,-2.87 7.38,-3.55 1.47,-0.89 2.91,-1.83 4.39,-2.7 0.83,-0.48 3.67,-2.55 4.58,-2 1.43,0.81 -0.46,4.27 -1,5.17 a 21.21,21.21 0 0 1 -4.51,5.12 c -2.75,2.35 -7.18,5.53 -11.06,4.68 -3.35,-0.73 -6.63,-4.14 -6.12,-8 0.78,-5.87 2.64,-11.6 4,-17.39 0.73,-3 1.32,-6 2.31,-8.86 a 8.49,8.49 0 0 1 2.62,-3.49 27.81,27.81 0 0 1 10.68,-5.35 c 2.28,-0.61 9.21,-2.91 10.82,-0.36 a 3.12,3.12 0 0 1 -1.07,3.92 43.06,43.06 0 0 1 -7.55,3.3 c -4.66,1.64 -8,5.88 -9.86,10.32 -0.28,0.71 -0.98,1.76 -0.57,2.5 z"
     id="path26"
     inkscape:connector-curvature="0"
     style="fill:#791579" />
  <path
     class="cls-2"
     d="m 1147.6099,583.64706 c 0.32,-4.68 2.1,-9.17 3.76,-13.51 1.81,-4.72 3.74,-7.81 9.28,-7.76 3.58,0 5.71,2.57 6.54,6.17 1.68,7.26 0.07,13.9 -3.7,20.1 -2.76,4.56 -6.26,6.28 -9.8,5.15 -5.08,-1.63 -6.44,-5.61 -6.08,-10.15 z m 14.19,-16.71 c -4.87,2.79 -9.22,16.63 -7,21.79 5.86,-3.68 9.22,-13.82 6.95,-21.79 z"
     id="path28"
     inkscape:connector-curvature="0"
     style="fill:#791579" />
  <path
     class="cls-2"
     d="m 1053.0799,583.10706 c -4.58,2.65 -9.23,5.21 -10.51,11.18 -0.44,2 -0.76,4.59 -3.88,3.83 -2.88,-0.71 -3.19,-3 -2.5,-5.38 4.34,-15 11.19,-28.66 21.79,-40.29 1.64,-1.79 3.35,-3 5.92,-1.75 a 4.69,4.69 0 0 1 2.7,5.62 c -1.53,7.72 -3.27,15.39 -4.91,23.09 -1,4.59 -1.93,9.18 -2.91,13.77 -0.86,4 -1,9.7 -3.87,12.83 -1,1.1 -3.6,-1.21 -3.76,-2.21 a 23.52,23.52 0 0 1 0.37,-7.42 c 0.72,-4.27 1.72,-8.48 2.6,-12.71 z m 4.89,-21.26 c -0.93,-1.47 -3.25,3.24 -3.53,3.78 -1.5,2.88 -3.53,5.5 -4.68,8.56 -0.29,0.77 -1.06,2.23 -0.33,2.72 0.55,0.38 2.56,-0.48 3.1,-0.71 3.85,-1.64 5.84,-5.88 6,-9.87 0.08,-0.73 0.08,-3.41 -0.56,-4.48 z"
     id="path30"
     inkscape:connector-curvature="0"
     style="fill:#791579" />
  <path
     class="cls-2"
     d="m 1000.4299,564.59706 c 2.22,-3.59 3.42,-7.75 -1.38998,-9.11 a 26,26 0 0 0 -6.34,-1.41 c -7.75,-0.14 -14.56,2.75 -20.93,7 -1.9,1.26 -1.48,2.48 -0.75,4.25 1,2.39 2.08,5 2,7.48 -0.15,5 -1,10 -1.65,15 -0.43,3.7 -1.21,7.42 -1.11,11.1 0,1.23 2.15,3 3.62,3.45 2.72,0.76 2.95,-2.19 3.21,-4.07 0.47,-3.44 0.65,-10.61 5.38,-10.24 4.73,0.37 9.53,0.5 14.3,0.61 0.66,0 5.83998,0.16 4.54998,-1.36 -1.99998,-2.34 -5.31998,-3.13 -8.21998,-3.64 -1.52,-0.26 -3.06,-0.41 -4.58,-0.66 -0.49,-0.08 -4.37,-1.24 -4.5,-1.12 4.3,-4 8.6,-8 12.64,-12.35 a 31.81,31.81 0 0 0 3.76998,-4.93 z m -18.41998,9.67 h -0.12 a 1,1 0 0 1 -0.49,-0.61 9.35,9.35 0 0 1 5.19,-12.39 15.54,15.54 0 0 1 4.41,-1 5.13,5.13 0 0 1 2.21,0.1 c 1.25,0.53 0.83,0.77 0,1.74 -3.39,3.94 -6.88,7.79 -10.32,11.68 -0.28,0.23 -0.55,0.52 -0.88,0.49 z"
     id="path32"
     inkscape:connector-curvature="0"
     style="fill:#791579" />
  <path
     class="cls-2"
     d="m 737.60992,375.29706 c 2.6,15.59 -35.17,36.61 -10,49.52 25.17,12.91 42.58,2.05 52.63,14.25 10.05,12.2 -7.42,24.51 17.7,44.61 25.12,20.1 100.48,12.91 127,-15.08 26.52,-27.99 29.42,-55.26 32.29,-84.68 2.87,-29.42 3.59,-39.48 -25.83,-40.2 -29.42,-0.72 -35.89,-3.58 -38.76,-15.79 -2.87,-12.21 -21.69,-37.24 -49.68,-33.65 -27.99,3.59 -33.57,12.84 -55.82,25.76 -22.25,12.92 -53.14,33.73 -49.53,55.26 z"
     id="path34"
     inkscape:connector-curvature="0"
     style="fill:#791579" />
  <path
     class="cls-3"
     d="m 908.44992,351.08706 c -0.46,2 0.44,3.83 0.23,6.14 -0.29,3.06 -4.26,2 -7.16,3 -18,6.16 -36,2.85 -54,-2 -17.23,-4.64 -33.24,-13.34 -50,-19 -3.3,-1.11 -7.5,-5 -11,-5 -17.66,0 -39,-8.54 -28.91,-42.58 10.09,-34.04 15.13,-39.09 36.56,-34.05 21.43,5.04 64.31,-5 79.44,8.83 15.13,13.83 21.44,31.52 35.31,44.13 5.92,5.38 8.58,13.95 8.27,21.79 a 26.5,26.5 0 0 1 -3,11.49 c -1.22,2.29 -3.73,3.5 -5.05,5.69 a 5.24,5.24 0 0 0 -0.69,1.56 z"
     id="path36"
     inkscape:connector-curvature="0"
     style="fill:#7f58af" />
  <path
     class="cls-3"
     d="m 937.52992,363.88706 c 0.58,-6.33 5.29,-11.49 10,-15.31 5.58,-4.54 10.42,-9.75 15.74,-14.54 9.19,-8.28 27.84,-7.17 38.28998,-2.07 11.11,5.42 16.11,17.08 6.5,26.69 -13.59998,13.6 -37.34998,30 -57.31998,20.43 -3.42,-1.64 -6.49,-3.78 -10.1,-5.12 a 5.67,5.67 0 0 1 -2.27,-1.25 c -1.69,-1.83 -1.05,-6.54 -0.84,-8.83 z"
     id="path38"
     inkscape:connector-curvature="0"
     style="fill:#7f58af" />
  <path
     class="cls-3"
     d="m 890.74992,405.09706 c 0,0 58,-11.35 89.52,5.05 31.51998,16.4 35.30998,36.56 25.21998,44.13 -10.08998,7.57 -28.99998,6.3 -41.60998,13.87 -12.61,7.57 -35.31,17.65 -55.48,5 -20.17,-12.65 -39.09,-20.17 -36.57,-30.26 2.52,-10.09 -15.13,-26.44 18.92,-37.79 z"
     id="path40"
     inkscape:connector-curvature="0"
     style="fill:#7f58af" />
  <path
     class="cls-3"
     d="m 722.42992,416.52706 a 13.5,13.5 0 0 0 4.68,-3.71 45.74,45.74 0 0 1 13.43,-10.29 41.89,41.89 0 0 1 32.94,-2.21 c 31.52,11.35 70.61,20.17 64.3,44.13 -6.31,23.96 -7.56,34 -70.61,31.53 -63.05,-2.47 -97.09,25.22 -95.83,0 1.11,-22.32 10.19,-53 35.35,-58.2 a 37.94,37.94 0 0 1 10.48,-0.56 11,11 0 0 0 5.26,-0.69 z"
     id="path42"
     inkscape:connector-curvature="0"
     style="fill:#7f58af" />
  <path
     class="cls-3"
     d="m 778.51992,370.19706 c -2.82,-10.14 -9.56,-22.75 -13,-26.54 -7.22,-7.9 -16.88,-14.72 -28.06,-14.22 -27.74,1.27 -61.79,-12.61 -78.18,5.05 -16.39,17.66 11.87,41.45 28.27,42.71 16.4,1.26 37.3,6.47 67.56,6.47 7.24,0 15.45,0.74 22.55,-1.1 5.95,-1.55 2.38,-6.88 0.86,-12.37 z"
     id="path44"
     inkscape:connector-curvature="0"
     style="fill:#7f58af" />
  <path
     class="cls-4"
     d="m 979.60992,409.59706 c -7.12,-2.31 -14.46,-4.18 -21.34,-7.12 l 0.64,-20.12 c 16.09,3.84 32.33,-5.68 44.57998,-16.79 5.06,-4.59 10.08,-10.1 10.66,-16.9 0.9,-10.59 -9.53,-19 -19.85998,-21.46 a 45.4,45.4 0 0 0 -36.31,7 c -3.42,2.41 -6.6,5.35 -10.58,6.61 a 27.79,27.79 0 0 1 -8.83,0.8 l -23.29,-0.36 c 5.18,-7.76 2.84,-18.48 -2.23,-26.3 -5.07,-7.82 -12.45,-13.85 -18.23,-21.16 -8.59,-10.87 -14.22,-25.06 -26.54,-31.39 -6.88,-3.53 -14.87,-4 -22.6,-4.42 l -57,-3 c -5.44,-0.29 -11.37,-0.44 -15.74,2.8 -3.12,2.31 -4.89,6 -6.52,9.48 -4.93,10.64 -9.66,21.61 -10.89,33.26 -1.23,11.65 1.5,24.27 9.77,32.57 a 161.64,161.64 0 0 1 -17.82,-2 l -42,-6.3 c -8.82,-1.33 -17.77,-2.66 -26.62,-1.54 -8.85,1.12 -17.73,5 -22.92,12.25 -5.19,7.25 -5.66,18.17 0.43,24.69 5.31,5.69 14.17,7.09 19.19,13 a 7,7 0 0 0 -8.54,4.27 c 22,1.66 44.1,3.33 65.77,7.54 a 53.77,53.77 0 0 0 -18,29.67 54.84,54.84 0 0 0 -47.27,41.51 60.86,60.86 0 0 0 -1.37,12.4 c -0.14,3.83 -1.25,8.44 -0.83,12.19 0.56,4.9 6.46,8.16 10.88,8.51 5.65,0.44 11.07,-1.94 16.41,-3.85 28.57,-10.27 59.91,-8.08 90.18,-5.76 a 30.76,30.76 0 0 1 8.22,1.38 c 3.66,1.34 6.66,4 9.88,6.2 17.35,11.94 40.31,10.79 61.21,8.15 16.65,-2.1 34.25,-5.32 46.59,-16.68 -17.86,5.29 -35.89,10.62 -54.47,12.05 -18.58,1.43 -38,-1.34 -53.8,-11.2 22,1.22 42.42,-20.08 40.28,-42 -0.57,-5.91 -2.63,-11.82 -6.67,-16.18 -3.88,-4.18 -9.24,-6.62 -14.46,-8.92 -16.06,-7.06 -32.62,-13.87 -50.11,-15.23 -17.49,-1.36 -36.33,3.55 -47.93,16.71 a 64.06,64.06 0 0 1 14.93,-24.95 9.86,9.86 0 0 1 3.9,-2.82 11,11 0 0 1 4.68,-0.06 c 11.43,1.53 23.62,2.74 34,-2.25 a 9.53,9.53 0 0 0 4.49,-3.68 c 1.64,-3 0.25,-6.7 -1.2,-9.8 a 303.35,303.35 0 0 0 -19.14,-34.82 c 19.43,-3 37.8,8.14 55.92,15.76 a 166.6,166.6 0 0 0 79.23,12.32 c 3.7,-0.34 8,-1.21 9.62,-4.56 1.62,-3.35 -0.2,-7.78 2.11,-10.63 1.71,-2.11 4.82,-2.26 7.53,-2.23 l 23.61,0.22 a 39.58,39.58 0 0 0 -8.38,17.84 c -0.52,2.74 -0.61,6 1.4,7.89 1.66,1.6 4.16,1.78 6.39,2.34 9.69,2.47 15.16,15.12 10.31,23.86 a 5.75,5.75 0 0 1 -2,2.3 c -1.55,0.87 -3.48,0.43 -5.2,0 a 99.23,99.23 0 0 0 -60.87,4.51 c -8.94,3.66 -18.6,11 -17.15,20.6 0.91,6.05 6.19,10.77 7,16.82 0.35,2.58 -0.15,5.26 0.46,7.79 1,4.24 4.85,7.12 8.42,9.61 16.57,11.57 35.79,23.38 55.6,19.4 12.32,-2.48 22.71,-10.82 34.79,-14.32 12.74,-3.7 28.77998,-3 36.06998,-14.09 7.41,-11.27 -0.66,-27 -12.08998,-34.2 a 72.34,72.34 0 0 0 -16.35,-7.21 z m -257.38,13.66 c 2.82,-3.48 5.88,-6.79 9,-10 7.69,-8 17.65,-10.93 28.27,-12.06 13.06,-1.37 24.88,3.45 36.75,7.81 5.77,2.12 11.36,4.73 17.14,6.87 4.58,1.69 8.59,4.33 12.69,6.86 5.18,3.19 7.27,8.14 7.67,13.83 a 46.82,46.82 0 0 1 -3.14,20.03 20.12,20.12 0 0 1 -11.9,12 63.07,63.07 0 0 1 -25.77,4.84 c -8.82,-0.27 -17.68,0.29 -26.48,-0.26 -11.81,-0.75 -23.61,-1.2 -35.42,-0.87 -15.08,0.41 -29.6,4 -43.79,8.86 a 74.16,74.16 0 0 1 -8.08,2.54 c -4.14,0.92 -6.47,-0.37 -7.22,-4.48 a 19.4,19.4 0 0 1 -0.12,-7 c 1.93,-10.12 4.18,-20.12 8.95,-29.46 6.52,-12.79 17,-19.65 30.87,-21.68 1.54,-0.23 3.09,-1.48 4.74,-0.33 0.42,1.22 -0.51,1.83 -1.08,2.62 -5.33,7.42 -11,14.62 -15.59,22.55 a 16.21,16.21 0 0 0 -0.92,2.28 l 3.12,0.09 a 69.12,69.12 0 0 0 4.59,-5.86 c 4.4,-7.09 10.49,-12.79 15.71,-19.23 z m 46.71,-69.43 a 93.21,93.21 0 0 0 8.9,18.91 c 1.86,3.11 1.58,4.35 -1.65,5.89 -6.53,3.1 -13.47,3.33 -20.47,2.17 -10.46,-1.73 -20.88,-3.77 -31.36,-5.38 a 240.25,240.25 0 0 0 -35.26,-2.32 c -2.32,0 -4.65,-0.13 -7,-0.21 a 16.87,16.87 0 0 1 -3.93,0.36 16.87,16.87 0 0 0 3.93,-0.36 c -1.86,-3.77 -5.9,-4.66 -9,-6.75 -3.29,-2.23 -6.74,-4.21 -9.87,-6.68 -4.88,-3.84 -5.53,-8.85 -4,-14.34 a 73,73 0 0 1 3.45,-8.78 c 2.42,-5.62 7.14,-8.25 12.84,-8.93 a 47.75,47.75 0 0 1 12.4,0.25 c 6.21,0.91 12.47,1.52 18.69,2.34 10,1.32 20,2.63 30.19,2.15 1.32,-0.06 2.64,-0.17 4,-0.26 v 0 l 2.89,0.17 2,0.24 v 0 c 10.33,4.36 19.45,9.9 23.24,21.48 z m 138.26,-13.31 c -1.11,1.65 -2.34,3.23 -3.38,4.93 -1.51,2.47 -2.36,5 -1.48,8.05 0.88,3.05 0,4.12 -3.25,4.73 -12,2.21 -24.06,1.92 -36.17,0.49 -10.1,-1.2 -20,-2.85 -29.65,-6.29 a 92.75,92.75 0 0 1 -12.33,-5.42 c -9.42,-5 -19.29,-9 -29.16,-13 a 40.33,40.33 0 0 0 -11.59,-2.72 c -6.57,-0.6 -11.73,-3.59 -14.09,-10.18 -1.67,-4.69 -3.41,-9.4 -4.08,-14.37 -0.86,-6.43 1,-12.53 2.87,-18.56 2.46,-8.12 7.2,-15 12.79,-21.19 a 23,23 0 0 1 10.11,-6.24 c 2.89,-1 5.92,0.36 8.82,0.76 a 68,68 0 0 0 9.43,0.74 c 11.66,0 23.32,-0.14 35,-0.1 11.49,0 21.44,4.26 29.92,11.85 a 93,93 0 0 1 13.62,14.56 53.39,53.39 0 0 1 8.27,18.59 c 0.44,1.74 0.79,3.48 2.42,4.67 2.69,-2.53 0.27,-5.23 0.83,-8.9 4.63,5.95 9.28,10.6 12.84,16.25 4.81,7.62 2.8,14.5 -1.75,21.3 z m 40.1,32.68 a 16.55,16.55 0 0 1 -2.19,-1.19 c -5.53,-3.73 -6.23,-6.87 -2.39,-12.37 2.94,-4.21 6.06,-8.25 10.24,-11.46 a 68.58,68.58 0 0 0 8.89,-8.74 c 3.38,-3.74 7.61,-5.71 12.28,-7.25 9.88,-3.25 19.32,-1.75 28.61998,2.1 a 37.11,37.11 0 0 1 6.12,6 v 0 c 2.25,6.32 0,11.46 -4.45,15.8 -4.99998,4.89 -10.18998,9.56 -15.38998,14.2 -4.92,4.41 -11.49,6.07 -17.94,6.87 a 42.78,42.78 0 0 1 -23.8,-4.01 z m 59.28998,67.71 c -1.08,7.46 -5.51,12.68 -12.91998,15 -4.95,1.57 -10.14,1.7 -15.23,2.3 -7.4,0.88 -14.35,2.75 -20.38,7.28 -7,5.25 -14.38,9.57 -23.34,10.37 -1.82,0.16 -3.63,0.39 -5.84,0.64 -12.75,-1.39 -25,-4.95 -35.61,-13.21 q -5.9,-4.59 -11.85,-9.1 c -3.23,-2.45 -5.47,-5 -3.88,-9.66 1.18,-3.46 -0.37,-6.84 -2.31,-9.9 -1.94,-3.06 -4,-5.73 -5.88,-8.63 -1.55,-2.36 -0.85,-3.45 0.78,-4.93 a 61.72,61.72 0 0 1 18.43,-11.68 82.63,82.63 0 0 1 30.63,-6 126.29,126.29 0 0 1 28.19,2.72 c 3.2,2.95 7.3,1.34 10.9,2.16 14.64,3.34 28.86,7.62 40.93,17.31 5.12998,4.12 8.28998,8.89 7.39998,15.28 z"
     id="path46"
     inkscape:connector-curvature="0"
     style="fill:#511654" />
  <path
     class="cls-4"
     d="m 775.69992,356.18706 v 0 a 0.46,0.46 0 0 0 0.07,0.07 z"
     id="path48"
     inkscape:connector-curvature="0"
     style="fill:#511654" />
  <path
     class="cls-4"
     d="m 869.99992,479.19706 a 15.38,15.38 0 0 0 8.88,-2.79 c 0.78,-0.53 1.8,-1.28 1.27,-2.41 -0.53,-1.13 -1.69,-0.79 -2.64,-0.56 -9.4,2.28 -19,2.56 -28.59,2.77 -1.34,0 -2.67,0 -4,0.06 -0.86,0 -1.75,0.26 -1.85,1.27 -0.13,1.37 1,1.6 2,1.61 4.49,0 9,0 13.48,0 v 0 z"
     id="path50"
     inkscape:connector-curvature="0"
     style="fill:#511654" />
  <path
     class="cls-4"
     d="m 696.93992,456.82706 a 22.07,22.07 0 0 0 5,-8.53 l -3.12,-0.09 c -3.39,4.86 -3.47,5.24 -1.88,8.62 z"
     id="path52"
     inkscape:connector-curvature="0"
     style="fill:#511654" />
  <path
     class="cls-5"
     d="m 221.54992,330.70706 a 48.68,48.68 0 0 0 3.36,-12 c 2.36,-14.59 1.29,-31 -8.74,-42.71 a 36.24,36.24 0 0 0 -4.92,-4.75 c -24.76,-19.86 -54.76,-28.19 -94.52,-9.92 -39.760001,18.27 -60.000001,52.61 -47.550001,75.08 12.45,22.47 51.380001,45.46 91.000001,35.79 a 108.13,108.13 0 0 0 40.22,-19.74 c 6.37,-4.92 12.93,-10 17.86,-16.28 a 26.21,26.21 0 0 0 3.29,-5.47 z"
     id="path54"
     inkscape:connector-curvature="0"
     style="fill:#feb326" />
  <path
     class="cls-6"
     d="m 67.609919,308.22706 a 16.05,16.05 0 0 1 1.06,-4.06 c 0.89,-2.18 5,-6.64 5,-8.72 9,-13.3 21.13,-23.14 35.160001,-30.63 16.8,-9 34.6,-14.1 53.89,-13.11 22.78,1.16 48.57,11.53 57.94,33.79 5.42,12.87 6.43,27.67 5.07,41.44 -1,10.69 -6.42,18.29 -14.33,24.61 a 60.85,60.85 0 0 1 -9.43,6.07 c -11.18,5.94 -22.41,11.85 -34.24,16.38 -20.41,7.82 -40.68,8.14 -60.47,-2.39 -9.810001,-5.22 -20.170001,-10.18 -28.300001,-17.94 -10.59,-10.11 -9.45,-20.5 -8.23,-34.09 0.08,-0.91 0.07,-2 -0.67,-2.51 -0.74,-0.51 -1.59,-0.32 -2.13,-0.88 a 2.27,2.27 0 0 1 -0.43,-1.52 40.32,40.32 0 0 1 0.11,-6.44 z m 69.420001,63.54 c 9.45,0.28 19.06,-1.63 28.93,-5.48 9.28,-3.63 18.81,-8.59 27.67,-13.22 8.42,-4.4 16.51,-10.43 20.53,-19 4.02,-8.57 4.56,-18.38 2.81,-27.74 -1.51,-8.09 -4.49,-15.83 -7.5,-23.49 -6.66,-17 -29,-24.3 -45.8,-23.64 -6.21,0.24 -12.39,0.16 -18.62,0.95 -31.92,4 -65.240001,23.61 -68.580001,58.31 -0.53,5.51 -0.93,11 0.09,16.48 1.37,7.32 6.77,11.9 12.18,16.34 5.66,4.64 12.080001,8.16 18.380001,11.77 a 63.41,63.41 0 0 0 29.89,8.72 z m -65.740001,-58.34 c -0.37,0.23 -0.4,0.5 -0.07,0.81 0.09,-0.13 0.26,-0.25 0.27,-0.38 0.01,-0.13 -0.15,-0.26 -0.22,-0.43 z"
     id="path56"
     inkscape:connector-curvature="0"
     style="fill:#ff8a08" />
  <path
     class="cls-5"
     d="m 101.07992,163.59706 a 49.11,49.11 0 0 0 -7.870001,9.63 c -8,12.44 -13.55,27.91 -9,42.65 a 36.12,36.12 0 0 0 2.61,6.32 c 14.770001,28.09 39.000001,47.7 82.700001,46.82 43.7,-0.88 76.05,-24.28 73.57,-49.87 -2.48,-25.59 -29,-62.18 -69.19,-69.15 a 108.16,108.16 0 0 0 -44.75,2.05 c -7.81,2 -15.83,4 -22.88,7.8 a 26.29,26.29 0 0 0 -5.19,3.75 z"
     id="path58"
     inkscape:connector-curvature="0"
     style="fill:#feb326" />
  <path
     class="cls-7"
     d="m 90.459919,178.31706 a 19.4,19.4 0 0 1 3.58,-2.42 c 2.16,-1.18 4.24,-2.47 6.420001,-3.63 a 104.58,104.58 0 0 1 9.54,-4.45 c 6.57,-2.67 13.56,-4.35 20.69,-3.94 2.12,0.12 4.3,-0.09 6.07,2.22 -2.32,1.53 -5,1.73 -7.42,1.93 -11.8,1 -21.93,6.19 -31.080001,13 -7,5.28 -9.48,13.47 -10.46,22.06 -0.87,7.67 1.39,14.25 5.78,20.53 7.400001,10.57 15.640001,20.33 26.000001,28.07 7.65,5.72 16.64,8.88 25.66,11.59 5.56,1.67 11.19,3.34 17.18,3.49 8.34,0.21 16.21,-1.84 24.11,-3.92 3.27,-0.86 6.5,-1.83 9.78,-2.62 a 54.35,54.35 0 0 0 27.87,-15.91 c 10.63,-11.5 13.87,-26.34 7.16,-41 -5,-10.94 -12.8,-19.52 -22,-27.09 -11.36,-9.32 -24.36,-15.33 -38.16,-19.79 a 58.34,58.34 0 0 0 -19.89,-3.17 93,93 0 0 0 -33.15,7.19 c -5.4,2.29 -10.87,4.44 -16.29,6.68 -1.67,0.68 -3.160001,1.07 -3.440001,-1.46 a 15.62,15.62 0 0 1 6.490001,-5.42 c 13.81,-6.8 27.88,-13.33 43.66,-13.1 39.63,0.57 72.72,18.64 89.24,56 0.5,1.14 0.86,2.34 1.3,3.51 6.44,16.89 2.64,31.4 -12.32,45.88 -9.87,9.56 -21.37,12.93 -34.35,16.2 -7.77,1.95 -15.53,4.29 -23.58,4.75 a 65.19,65.19 0 0 1 -23.64,-3.28 c -3.9,-1.26 -7.74,-2.71 -11.63,-4 -11.67,-3.85 -22,-10.88 -30.7,-19.48 a 120.75,120.75 0 0 1 -12.000001,-13.95 c -3.57,-4.81 -7.56,-9.92 -9.54,-15.63 a 32.77,32.77 0 0 1 -0.65,-18.23 61.05,61.05 0 0 1 3.31,-10.23 44.7,44.7 0 0 1 4.69,-8.48 11.06,11.06 0 0 1 1.77,-1.9 z"
     id="path60"
     inkscape:connector-curvature="0"
     style="fill:#ff8b0a" />
  <path
     class="cls-5"
     d="m 237.49992,145.30706 a 36.84,36.84 0 0 0 -7.4,7.35 c -7.4,9.58 -12.28,21.68 -7.18,33.61 a 29,29 0 0 0 2.85,5.14 c 15.81,23 40.61,39.62 83.94,40.73 43.33,1.11 74.4,-16.2 70.89,-36.69 -3.51,-20.49 -31.3,-50.75 -71.47,-58 a 132,132 0 0 0 -44.29,-0.22 c -7.67,1.25 -15.54,2.51 -22.37,5.27 a 23.87,23.87 0 0 0 -4.97,2.81 z"
     id="path62"
     inkscape:connector-curvature="0"
     style="fill:#feb326" />
  <path
     class="cls-7"
     d="m 303.94992,239.03706 c -25.17,-3.07 -49.66,-7.82 -68.65,-26.91 -9.21,-9.25 -14.07,-20.44 -15.4,-33.29 a 23.57,23.57 0 0 1 0.88,-10.06 c 4.62,-13.67 12.35,-24.22 27.16,-28.46 11,-3.16 22,-6.27 33.58,-5.77 24.06,1.06 47.08,6.2 67.46,19.67 13.16,8.7 23.93,19.7 29.41,35 4.62,12.94 1.8,22.35 -9.38,30.39 a 45.6,45.6 0 0 1 -5,3.11 126.61,126.61 0 0 1 -37.69,13.25 177.85,177.85 0 0 1 -22.37,3.07 z m -1.41,-8.23 c 13.58,0.47 26.58,-2.25 39.32,-6.27 8.48,-2.69 16.9,-5.79 24.17,-11.07 7.27,-5.28 10.23,-10.59 7.35,-21.42 -3.31,-12.43 -12.24,-20.61 -21.39,-28.59 a 40.23,40.23 0 0 0 -10.19,-6.75 212.15,212.15 0 0 0 -45.27,-13.74 c -5.39,-1 -10.78,-2.12 -16.32,-2.16 -7.49,-0.05 -14.84,1.16 -22.16,2.54 -7.94,1.5 -15.21,3.9 -20.84,10.63 -8.21,9.82 -11.79,20.36 -8.77,33.05 3.14,13.2 11.89,21.92 22.53,29.21 a 62.15,62.15 0 0 0 16.34,7.73 c 11.51,3.73 22.97,7.56 35.23,6.84 z"
     id="path64"
     inkscape:connector-curvature="0"
     style="fill:#ff8b0a" />
  <path
     class="cls-8"
     d="m 208.28992,260.66706 a 57.47,57.47 0 0 0 -5.87,13 c -5.26,16.18 -7.12,35.11 1.66,50.44 a 43,43 0 0 0 4.49,6.39 c 23.33,27.53 54.51,42.94 101.22,29.95 46.71,-12.99 75.16,-48.18 65.69,-76.28 -9.47,-28.1 -47.65,-62 -92.67,-58.77 a 115.47,115.47 0 0 0 -47.49,14.59 c -7.85,4.36 -15.93,8.81 -22.48,15.05 a 30,30 0 0 0 -4.55,5.63 z"
     id="path66"
     inkscape:connector-curvature="0"
     style="fill:#ff8500" />
  <path
     class="cls-9"
     d="m 217.44992,339.48706 a 38.84,38.84 0 0 1 -5.66,-7.53 c -12.2,-21.24 -20.23,-55.69 -2.07,-76.06 23.86,-26.76 71.21,-37.17 104.8,-26.43 10,3.19 20,6.32 29.43,11 a 65.59,65.59 0 0 1 36.56,57.61 c 0.66,25.52 -19,41.59 -39.93,52.07 -25.38,12.7 -53.37,15.14 -81,10 -8.3,-1.54 -16.62,-3.16 -24.05,-7.56 -6.66,-3.9 -12.98,-7.78 -18.08,-13.1 z m 75.07,17.79 a 41.2,41.2 0 0 0 17.15,-2.5 c 4.37,-1.58 8.81,-2.94 13.18,-4.48 a 97.92,97.92 0 0 0 34.89,-21.57 c 3.19,-3 5,-7 7.61,-10.44 17.69,-23.72 -4.17,-61.39 -26.91,-72.28 -5.86,-2.81 -12.11,-4.61 -18,-7.18 -9.69,-4.2 -19.92,-4.78 -30.12,-5.57 -9.23,-0.7 -18,2.08 -26.94,3.95 a 99.73,99.73 0 0 0 -30,11.82 c -6.85,4 -13.89,8 -19.12,14.2 a 34.31,34.31 0 0 0 -7.92,28.22 c 1.18,8.12 4.11,15.71 6.81,23.35 3.54,10 8.64,19.05 17.84,25.12 5.95,3.91 11.55,8.22 18.56,10.47 14,4.51 28.43,5.99 42.97,6.89 z"
     id="path68"
     inkscape:connector-curvature="0"
     style="fill:#ff5705" />
  <path
     class="cls-5"
     d="m 252.50992,528.95706 a 31.13,31.13 0 0 0 5.82,-7 c 5.63,-8.89 8.81,-19.73 3.21,-29.56 a 26,26 0 0 0 -3,-4.18 c -16.06,-18.43 -39.44,-30.59 -77.69,-27.78 -38.25,2.81 -64,20.41 -59,37.75 5,17.34 32.27,41 68.3,43.7 a 119.29,119.29 0 0 0 39,-3.66 c 6.63,-1.74 13.44,-3.5 19.2,-6.48 a 20.78,20.78 0 0 0 4.16,-2.79 z"
     id="path70"
     inkscape:connector-curvature="0"
     style="fill:#feb326" />
  <path
     class="cls-10"
     d="m 118.96992,491.28706 c 5.28,-16.26 20.23,-25.12 36.08,-29.06 10.29,-2.55 21,-3.12 31.57,-3.3 22.81,-0.39 52.67,0.48 69.81,17.82 a 25.61,25.61 0 0 1 7.11,12.37 54.39,54.39 0 0 1 1.28,20.3 c -2,14.16 -15.35,23.1 -28.2,26.82 -19.4,5.61 -43.76,4.83 -63.41,0.39 -19.29,-4.35 -41.38,-19.11 -46.46,-39.32 a 12.89,12.89 0 0 0 -2.11,-5.28 6.41,6.41 0 0 1 -5.06,2.33 c 0.17,-1.09 0.38,-2.2 -0.61,-3.07 z m 92.32,41 c 6.67,0.69 15.26,-0.69 23.45,-3.38 7.94,-2.61 16.35,-6.14 20.74,-13.7 10.82,-18.66 -3.08,-38.23 -21.58,-43 a 148.77,148.77 0 0 0 -39.34,-4.71 193.1,193.1 0 0 0 -21.79,1.48 116.24,116.24 0 0 0 -26.06,6.16 44.49,44.49 0 0 0 -16.39,11 c -0.79,0.82 -1.78,1.59 -1,3 5.47,9.72 10.14,17.79 17.78,26 7.47,8 17.06,12 27.5,14.05 11.4,2.21 23.01,2.99 36.69,3.12 z"
     id="path72"
     inkscape:connector-curvature="0"
     style="fill:#ff8806" />
  <path
     class="cls-11"
     d="m 118.96992,491.28706 c 1,0.87 0.78,2 0.61,3.07 -1.44,-0.76 -1.37,-1.85 -0.61,-3.07 z"
     id="path74"
     inkscape:connector-curvature="0"
     style="fill:#ffb427" />
  <path
     class="cls-7"
     d="m 216.69992,340.17706 c 1,0.07 1.83,0.2 1.59,1.52 a 2.12,2.12 0 0 1 -1.59,-1.52 z"
     id="path76"
     inkscape:connector-curvature="0"
     style="fill:#ff8b0a" />
  <path
     class="cls-7"
     d="m 200.43992,277.59706 a 2.14,2.14 0 0 1 -0.66,2.6 3,3 0 0 1 0.66,-2.6 z"
     id="path78"
     inkscape:connector-curvature="0"
     style="fill:#ff8b0a" />
  <path
     class="cls-7"
     d="m 218.32992,341.70706 c 0.78,-0.19 1.1,0.12 1,0.91 a 1.14,1.14 0 0 1 -1,-0.91 z"
     id="path80"
     inkscape:connector-curvature="0"
     style="fill:#ff8b0a" />
  <path
     class="cls-5"
     d="m 361.98992,391.13706 a 40.15,40.15 0 0 0 -6,9.81 c -5.42,12.19 -7.47,26.41 1.15,37.82 a 32.78,32.78 0 0 0 4.42,4.75 c 23,20.42 54.06,31.67 100.88,21.45 46.82,-10.22 75.61,-36.9 66.43,-57.89 -9.18,-20.99 -47,-46 -92,-43.16 a 146.6,146.6 0 0 0 -47.61,11.43 c -7.9,3.35 -16,6.77 -22.62,11.52 a 26,26 0 0 0 -4.65,4.27 z"
     id="path82"
     inkscape:connector-curvature="0"
     style="fill:#feb326" />
  <path
     class="cls-6"
     d="m 444.73992,468.28706 a 183.24,183.24 0 0 1 -35,-2.92 c -17.79,-3.19 -40.95,-14.15 -46.74,-32.88 a 5.33,5.33 0 0 1 -0.23,-3.2 2.14,2.14 0 0 1 2.5,-1.52 3.29,3.29 0 0 1 1.58,1.7 c 7.58,13.34 21.11,22.64 35.72,27.31 13,4.16 26.84,4.93 40.4,4.13 13.12,-0.78 26.31,-0.88 39,-4.73 17.2,-5.22 47.09,-24.56 39.49,-46.51 -5,-14.59 -21.87,-27.83 -35.79,-33.54 -16.56,-6.78 -35.1,-5.55 -52.58,-5 -23.18,0.75 -46.87,8.57 -65.4,22.69 a 21.7,21.7 0 0 0 -5.77,6 c -2.55,4.31 -2.34,9.39 -2.21,14.21 0,1.71 1.25,11.62 -1.34,12.28 a 1,1 0 0 1 -1.41,-1 c 0,-8.45 -1.9,-17.14 -1,-25.56 0.71,-6.32 7.09,-11.46 12.25,-14.43 a 157.28,157.28 0 0 1 65.5,-20.57 c 20.83,-1.62 49.24,-0.38 66.66,12.63 5.6,4.19 11.22,8.38 16.51,12.94 14.15,12.16 16.18,30.62 5.18,45.36 -17.59,23.72 -47.79,32.14 -77.32,32.61 z"
     id="path84"
     inkscape:connector-curvature="0"
     style="fill:#ff8a08" />
  <path
     class="cls-7"
     d="m 388.35992,399.74706 c 1,-3.81 4,-5.45 7,-6.68 11.85,-5 24.09,-8.45 37.15,-7.85 1.25,0.06 2.74,-0.35 3.6,1.73 -16.64,1.73 -32.68,5.24 -47.75,12.8 z"
     id="path86"
     inkscape:connector-curvature="0"
     style="fill:#ff8b0a" />
  <path
     class="cls-11"
     d="m 0.27991868,347.82706 c 0.06,0.13 0.2,0.27 0.19,0.4 -0.01,0.13 -0.17,0.23 -0.26,0.35 -0.3,-0.29 -0.28,-0.54 0.07,-0.75 z"
     id="path88"
     inkscape:connector-curvature="0"
     style="fill:#ffb427" />
  <path
     class="cls-12"
     d="m 707.70992,527.48706 q 18.06,-7.1 35.66,-15.16 a 778.86,778.86 0 0 0 93.44,-50.8 c 11.72,-7.48 23,-15.57 34.24,-23.76 10.18,-7.43 20,-15.38 29.49,-23.65 8.55,-7.42 18.9,-15 24.77,-24.83 1.18,-2 2.32,-7 -1.47,-6.39 -2.31,0.36 -4.59,2.71 -6.24,4.22 -4.72,4.3 -9.13,8.71 -14,12.83 -5.72,4.8 -11.48,9.54 -17.48,14 -18.85,14 -37.87,27.7 -57.79,40.16 q -25.68,16.07 -52.55,30 c -14.1,7.35 -28.61,13.89 -43.21,20.21 -13.68,5.93 -27.41,11.77 -41.43,16.89 -17.3,6.32 -34.93,12.13 -52.44,17.87 -31.33,10.26 -64.34,17.27 -96.92,22.21 -10.5,1.58 -21,3.24 -31.49,4.74 -5.92,0.84 -11.85,1.59 -17.8,2.09 -8.77,0.73 -17.55,1.47 -26.3,2.34 -15.23,1.53 -30.51,1.86 -45.76,2.49 -13.45,0.56 -26.9,-0.8 -40.34,-1.53 q -18.2,-1 -36.18,-3.54 c -15.57,-2.23 -31.08,-5.1 -46.15,-9.81 a 117.5,117.5 0 0 1 -16.07,-5.89 1.42,1.42 0 0 1 -0.79,-0.64 1,1 0 0 1 0.38,-1.07 c 1.59,-1.22 4,-2 5.74,-3 2.07,-1.16 4.14,-2.33 6.17,-3.54 4.13,-2.47 8.15,-5.1 12.25,-7.6 2.24,-1.37 3.28,-5 0.63,-6.64 a 4.87,4.87 0 0 0 -2.91,-0.59 c -2.63,0.18 -4.89,1.65 -7.12,2.93 l -7.87,4.51 c -5.17,3 -10.39,5.85 -15.81,8.33 -3.75,1.7 -7.39,3.79 -11.79,3.35 -2,-0.19 -3.08,0.89 -3,3 0,1.67 0,3.25 1.28,4.66 6.62,7.44 11.73,16 18,23.72 3.36,4.11 6,8.79 10,12.4 1.23,1.11 2.63,1.78 4,0.71 1.37,-1.07 0.6,-2.4 0.05,-3.65 -2,-4.58 -4.8,-8.73 -7.16,-13.11 -2.2,-4.08 -5.61,-7.5 -7.64,-11.63 a 9.64,9.64 0 0 1 -0.82,-2.33 c -0.39,-2.07 3.27,-0.76 4,-0.36 5.92,3.09 12.38,4.89 18.81,6.61 23.3,6.22 47.55,9.84 71.52,12.25 16.56,1.66 33.12,2.79 49.76,2.81 14.65,0 29.24,-0.81 43.85,-1.82 11.93,-0.83 23.83,-1.94 35.73,-3.07 16.37,-1.56 32.64,-3.9 48.88,-6.39 q 21.52,-3.3 42.83,-8 c 9.49,-2.1 19,-4.51 28.34,-7.11 a 904.48,904.48 0 0 0 88.71,-29.42 z"
     id="path90"
     inkscape:connector-curvature="0"
     style="fill:#bbbbbb" />
  <path
     class="cls-12"
     d="m 926.78992,501.07706 a 3.11,3.11 0 0 0 -1.67,-1 c -2.29,-0.63 -5.24,1.85 -7.07,2.85 a 193,193 0 0 1 -19,9.09 308.1,308.1 0 0 1 -40.54,13.24 322.88,322.88 0 0 1 -50.86,9.13 c -48.29,4.63 -97.23,2.47 -145.17,-4.77 -14.68,-2.22 -29.2,-4.83 -43.7,-8.09 -22.91,-5.2 -45.39,-12.39 -67.47,-20.38 -0.95,-0.34 -6.3,-1.54 -6.3,-2.83 -0.46,-1.4 2.52,-1.26 3.51,-1.35 a 101.38,101.38 0 0 0 16.43,-2.85 c 2.15,-0.56 4.94,-1.63 4.52,-4.37 -0.3,-2 -1.92,-2.86 -5.19,-2.51 -3.27,0.35 -6.23,1 -9.37,1.31 -10.38,1.12 -20.74,3 -31.21,0.79 a 6.59,6.59 0 0 0 -3.94,0.31 c -5.3,2.25 -1.57,7.73 -0.46,11.51 2.33,7.91 4,15.86 7.37,23.38 a 95.2,95.2 0 0 0 5.92,11.1 c 1.95,3.15 4.13,7.5 7,9.93 a 2,2 0 0 0 1.7,0.51 c 2.43,-0.55 1.08,-4.1 0.45,-5.47 -1.59,-2.39 -2.54,-5.56 -3.74,-8.17 -1.2,-2.61 -2.6,-5.41 -3.72,-8.18 a 99.81,99.81 0 0 1 -3.23,-9.53 c -0.83,-2.86 -2.21,-6.16 -2.48,-9.11 -0.24,-2.69 1.67,-2.33 3.43,-1.56 a 443.83,443.83 0 0 0 48.84,17.43 c 45.94,13.93 93.22,21.47 141.16,23.79 16.46,0.79 32.86,0.8 49.32,0.29 45.88,-1.44 91.38,-9 133.24,-28.41 3.35,-1.56 6.53,-3.32 9.8,-5 3.73,-1.92 9.62,-4.92 12.25,-8.29 a 2.13,2.13 0 0 0 0.18,-2.79 z"
     id="path92"
     inkscape:connector-curvature="0"
     style="fill:#bbbbbb" />
  <path
     class="cls-12"
     d="m 177.88992,89.267055 c 4.83,-4 8.86,-8.88 13.31,-13.26 a 222.92,222.92 0 0 1 44.67,-34 354.77,354.77 0 0 1 50.66,-24.47 233.24,233.24 0 0 1 24.75,-7.9999997 c 35.72,-9.49 71.84,-10.95 108.67,-8.47 15.72,1.05 31.4,2.46 47,4.85 13.8,2.12 27.33,5.3699997 40.84,8.7799997 15.62,3.93 31,8.57 46.31,13.61 a 376.12,376.12 0 0 1 40.77,16.18 c 17.63,8.18 34.7,17.42 51.71,26.77 17.58,9.67 35.08,19.51 51.86,30.530005 11.11,7.29 22,14.88 32.42,23.21 14.81,11.88 29.71,23.67 43.83,36.37 12.57,11.32 25,22.76 36.93,34.85 7.74,7.87 15,16.25 21.9,24.85 q 5.33,6.62 10.47,13.38 c 0.84,1.1 8.77,11.31 2.06,8.9 a 18.08,18.08 0 0 1 -7.1,-5.36 c -9.32,-10.34 -17.72,-21.48 -27.61,-31.32 -4,-4 -7.83,-8.1 -11.95,-11.94 -8.6,-8 -17.41,-15.8 -26,-23.82 -15.09,-14.1 -31.8,-26.21 -47.71,-39.3 -16.16,-13.29 -33.83,-24.42 -51.8,-35.000005 -20.11,-11.87 -40.65,-22.94 -61.45,-33.56 -34.08,-17.4 -70.06,-30.14 -107.25,-39.08 a 523.74,523.74 0 0 0 -85.81,-13.12 c -39.33,-2.7699997 -79.65,-0.56 -117.17,12.4 a 329.44,329.44 0 0 0 -44.71,19.8 c -16.73,8.73 -32.61,17.53 -47,29.9 -3.12,2.69 -6.19,5.46 -9.21,8.27 -3.02,2.81 -6.28,5.94 -9.35,9 q -2.34,2.34 -4.65,4.72 c -1,1.05 -2.75,1.86 -3.39,3.21 -1.19,2.480005 3.67,0.76 4.84,0.43 a 107.83,107.83 0 0 1 16.35,-3.18 c 5.39,-0.66 10.72,-1.23 16.14,-0.47 a 4,4 0 0 1 1.76,0.56 3.8,3.8 0 0 1 1.08,3.89 c -0.44,1.120005 -1.54,1.280005 -2.62,1.370005 -11.15,0.94 -22,3.74 -32.65,6.72 -6.62,1.84 -13.48,3.56 -19,8.14 -1.66,1.38 -3.43,1.15 -5.12,0.18 -1.88,-1.08 -2.93,-3.91 -3.55,-5.85 -1.17,-3.64 0.09,-7 1,-10.560005 1.12,-4.23 2.27,-8.46 3.51,-12.66 1.46,-4.93 3.22,-9.76 4.69,-14.69 1.28,-4.29 2.65,-15.77 9.47,-13.87 2.48,0.69 3.83,3.05 3.06,6 -0.89,3.36 -2,6.69 -3.15,10 a 67.89,67.89 0 0 0 -2.52,8.69 37.44,37.44 0 0 0 -0.89,5 c -0.1,1.59 -0.18,2.88 1.6,1.42 z"
     id="path94"
     inkscape:connector-curvature="0"
     style="fill:#bbbbbb" />
  <path
     class="cls-12"
     d="m 200.01992,402.23706 c 2,0.37 3.87,0.94 4.36,1.06 l 15.27,3.83 a 8.75,8.75 0 0 0 3.2,0.39 3,3 0 0 0 1.68,-5.28 7.81,7.81 0 0 0 -3.11,-1.3 c -15,-3.81 -31.11,-7.83 -46.63,-8.51 -3.87,0 -5.46,1.61 -6.2,5.43 -1.12,5.73 -1.73,12.47 0,18.17 0.68,2.28 2.18,4.94 4.82,5.12 a 2.32,2.32 0 0 0 1.75,-0.52 c 0.84,-0.78 0.65,-2.13 0.46,-3.26 a 61.43,61.43 0 0 1 -0.41,-12.28 7.13,7.13 0 0 1 0.47,-3 c 3,2 5.65,5.86 8.49,8.34 3.26,2.85 6.67,5.5 10.07,8.17 a 269,269 0 0 0 22.12,16.3 c 10.24,6.54 21,12.2 31.62,18 17.93,9.83 36.18,19 55.47,25.9 47.81,17.09 98.58,18.67 148.74,16 48,-2.56 95.32,-12.49 140.91,-27.37 a 388.58,388.58 0 0 0 101.68,-50.62 c 1,-0.71 2.45,-2.44 0.65,-3.3 a 3.42,3.42 0 0 0 -2.1,-0.08 c -10.16,1.93 -20.36,10 -29.55,14.66 q -16,8 -32.44,15 a 545.25,545.25 0 0 1 -67.5,23.44 l -4.14,1.12 c -39.7,10.59 -81.42,17.48 -122.57,18.17 -10.52,0.17 -21,0.3 -31.57,0.12 -48.8,-0.83 -94.77,-12.69 -138.36,-34.77 -12.11,-6.14 -24,-12.75 -35.73,-19.53 a 211.16,211.16 0 0 1 -19,-12.52 c -5.85,-4.27 -12,-8.52 -16.92,-13.86 a 3.34,3.34 0 0 1 -0.9,-1.37 c -0.75,-2.29 2.44,-2.2 5.37,-1.65 z"
     id="path96"
     inkscape:connector-curvature="0"
     style="fill:#bbbbbb" />
  <path
     class="cls-12"
     d="m 729.21992,309.40706 a 26.94,26.94 0 0 0 -2.65,-2 l -0.93,-0.65 c -11.92,-8.49 -24.6,-16.58 -35.79,-23.72 -7.67,-4.89 -14.51,-9.2 -20.9,-13.16 -10.26,-6.34 -20.94,-12.23 -31,-17.72 -12.86,-7 -28.13,-15.23 -43.82,-23 a 602.4,602.4 0 0 0 -58,-24.8 c -15.93,-5.93 -32,-11.16 -47.76,-15.55 -9,-2.51 -21,-5.71 -33.33,-8.14 -7.17,-1.41 -14.44,-2.89 -21.48,-4.32 l -6.5,-1.31 2.07,-0.47 c 4.28,-0.95 8.57,-1.91 12.84,-2.9 1.84,-0.43 3.1,-1.2 3.63,-2.24 a 2.28,2.28 0 0 0 0.08,-2 c -0.73,-1.79 -2.87,-2.56 -5.68,-2.08 -11.36,1.93 -23.54,4 -35.67,6.13 -2,0.34 -3.3,1.24 -3.71,2.53 a 3.28,3.28 0 0 0 1.09,3.37 l 3.9,4 c 2.75,2.84 5.6,5.77 8.53,8.59 1,0.93 1.88,1.91 2.77,2.86 0.89,0.95 1.91,2 3,3 l 0.45,0.43 c 1.66,1.62 4.42,4.34 7.3,4.21 a 2.73,2.73 0 0 0 2.16,-1.14 c 1.63,-2.25 0,-4.6 -1.1,-6.17 a 34.79,34.79 0 0 0 -4,-4.67 c -1.91,-1.91 -3.81,-3.89 -5.64,-5.8 l -1.1,-1.14 c 0.18,0 0.37,0.06 0.57,0.1 l 0.27,0.05 7.11,1.25 c 4.83,0.85 9.84,1.73 14.73,2.65 14.13,2.66 26.87,5.59 38.93,8.95 11.85,3.31 22.23,6.42 31.72,9.52 15.88,5.18 31.58,10.93 46.65,17.09 12.46,5.1 25.25,11 41.47,19.23 l 1,0.5 c 11.13,5.62 22.64,11.44 33.54,17.56 2.82,1.58 5.68,3.14 8.54,4.69 4.2,2.3 8.56,4.67 12.71,7.09 5.25,3.06 10.42,6.31 15.43,9.45 l 4.37,2.74 c 2.26,1.41 4.61,2.8 6.88,4.15 a 154.45,154.45 0 0 1 14.4,9.25 6.68,6.68 0 0 0 0.68,0.45 l 5.26,3.28 q 6.61,4.13 13.25,8.23 c 1.95,1.2 3.91,2.38 5.88,3.56 l 5,3 a 5.23,5.23 0 0 0 2.56,0.72 3.73,3.73 0 0 0 1,-0.14 2.29,2.29 0 0 0 1.47,-1.27 c 0.74,-1.67 -1.23,-3.41 -2.18,-4.24 z"
     id="path100"
     inkscape:connector-curvature="0"
     style="fill:#bbbbbb" />
  <text
     xml:space="preserve"
     style="font-style:normal;font-weight:normal;font-size:29.6264534px;line-height:1.25;font-family:sans-serif;letter-spacing:0px;word-spacing:0px;fill:#023d53;fill-opacity:1;stroke:none;stroke-width:0.74066132"
     x="888.38464"
     y="194.28964"
     id="text1085"><tspan
       sodipodi:role="line"
       id="tspan1083"
       x="888.38464"
       y="194.28964"
       style="font-size:33.33333206px;fill:#023d53;fill-opacity:1;stroke-width:0.74066132">Developers’ </tspan><tspan
       sodipodi:role="line"
       x="888.38464"
       y="235.95631"
       id="tspan1089"
       style="font-size:33.33333206px;fill:#023d53;fill-opacity:1;stroke-width:0.74066132">internal model</tspan><tspan
       sodipodi:role="line"
       x="888.38464"
       y="274.25018"
       id="tspan1087"
       style="font-size:33.33333206px;fill:#023d53;fill-opacity:1;stroke-width:0.74066132" /></text>
  <text
     xml:space="preserve"
     style="font-style:normal;font-weight:normal;font-size:34.79992676px;line-height:1.25;font-family:sans-serif;letter-spacing:0px;word-spacing:0px;fill:#023d53;fill-opacity:1;stroke:none;stroke-width:0.86999816"
     x="9.0860043"
     y="532.237"
     id="text1093"><tspan
       sodipodi:role="line"
       x="9.0860043"
       y="532.237"
       id="tspan1097"
       style="font-size:33.33333206px;fill:#023d53;fill-opacity:1;stroke-width:0.86999816">Dev’s </tspan><tspan
       sodipodi:role="line"
       x="9.0860043"
       y="575.73694"
       id="tspan1101"
       style="font-size:33.33333206px;fill:#023d53;fill-opacity:1;stroke-width:0.86999816">understanding </tspan><tspan
       sodipodi:role="line"
       x="9.0860043"
       y="619.23682"
       id="tspan1103"
       style="font-size:33.33333206px;fill:#023d53;fill-opacity:1;stroke-width:0.86999816">of the spec</tspan><tspan
       sodipodi:role="line"
       x="9.0860043"
       y="662.73669"
       id="tspan1095"
       style="font-size:33.33333206px;fill:#023d53;fill-opacity:1;stroke-width:0.86999816" /></text>
</svg>
